<?xml version="1.0" encoding="utf-8"?>
<!-- Generator: Adobe Illustrator 20.1.0, SVG Export Plug-In . SVG Version: 6.00 Build 0)  -->
<svg version="1.1" id="Layer_1" xmlns="http://www.w3.org/2000/svg" xmlns:xlink="http://www.w3.org/1999/xlink" x="0px" y="0px"
	 viewBox="0 0 324 324" style="enable-background:new 0 0 324 324;" xml:space="preserve">
<style type="text/css">
	.st0{fill:none;stroke:#E6C0FF;stroke-width:12;stroke-miterlimit:10;}
	.st1{fill:#E6C0FF;}
</style>
<title>ic_behuman</title>
<path class="st0" d="M107.3,49.7c-31.3,0-56.7,25.3-56.7,56.6c0,0,0,0,0,0v170h170c31.3,0,56.7-25.4,56.7-56.7V49.7H107.3z"/>
<path class="st1" d="M207.6,177.1c-3.9,0-7,3.1-7,7c0,20.5-16.6,37.1-37.1,37.1c-20.5,0-37.1-16.6-37.1-37.1c0-3.9-3.1-7-7-7
	s-7,3.1-7,7c0,28.2,22.9,51.1,51.1,51.1s51.1-22.9,51.1-51.1C214.6,180.3,211.5,177.1,207.6,177.1
	C207.6,177.1,207.6,177.1,207.6,177.1z"/>
<path class="st1" d="M127.5,119.2c-12.7,0-23,10.3-23,23c0,3.9,3.1,7,7,7s7-3.1,7-7c0-5,4-9,9-9s9,4,9,9c0,3.9,3.1,7,7,7s7-3.1,7-7
	C150.4,129.5,140.2,119.2,127.5,119.2z"/>
<path class="st1" d="M200.4,118.2c-12.8,0-23.2,10.4-23.2,23.2c0,3.9,3.2,7,7,7c3.9,0,7-3.2,7-7c0-5,4.1-9.1,9.1-9.1
	c5,0,9.1,4.1,9.1,9.1c0,3.9,3.2,7,7,7c3.9,0,7-3.2,7-7C223.5,128.6,213.2,118.3,200.4,118.2z"/>
</svg>
