<svg id="Layer_1" data-name="Layer 1" xmlns="http://www.w3.org/2000/svg" viewBox="0 0 324 324"><title>ic_behuman</title><path d="M107.35,49.7a56.65,56.65,0,0,0-56.7,56.6v170h170a56.7,56.7,0,0,0,56.7-56.67V49.7Z" style="fill:none;stroke:#fff;stroke-miterlimit:10;stroke-width:12px"/><path d="M207.61,177.15a7,7,0,0,0-7,7,37.07,37.07,0,0,1-74.14,0,7,7,0,1,0-14,0,51.08,51.08,0,0,0,102.16,0A7,7,0,0,0,207.61,177.15Z" style="fill:#fff"/><path d="M127.47,119.15a23.06,23.06,0,0,0-23,23,7,7,0,0,0,14,0,9,9,0,1,1,18,0,7,7,0,0,0,14,0A23.06,23.06,0,0,0,127.47,119.15Z" style="fill:#fff"/><path d="M200.36,118.24a23.23,23.23,0,0,0-23.2,23.2,7,7,0,0,0,14.08,0,9.12,9.12,0,0,1,18.24,0,7,7,0,1,0,14.08,0A23.23,23.23,0,0,0,200.36,118.24Z" style="fill:#fff"/></svg>