<svg id="Layer_1" data-name="Layer 1" xmlns="http://www.w3.org/2000/svg" viewBox="0 0 324 324"><title>ic_getjobdone</title><path d="M107.35,49.7a56.65,56.65,0,0,0-56.7,56.6v170h170a56.7,56.7,0,0,0,56.7-56.67V49.7Z" style="fill:none;stroke:#fff;stroke-miterlimit:10;stroke-width:12px"/><path d="M218.77,102.06a12.45,12.45,0,0,0-17.34,4.83l-48,86.15-26.71-32.51c-4.84-5.57-11.26-8.46-17.33-4.83s-8.59,12.39-4.66,18l37.17,45.24c2.78,3.61,6,5.77,9.27,6.39l0,.05.34,0c.75.12,12,2.19,16.82-6.46l55-98.88A13.47,13.47,0,0,0,218.77,102.06Z" style="fill:#fff"/></svg>