<?xml version="1.0" encoding="utf-8"?>
<!-- Generator: Adobe Illustrator 20.1.0, SVG Export Plug-In . SVG Version: 6.00 Build 0)  -->
<svg version="1.1" id="Layer_1" xmlns="http://www.w3.org/2000/svg" xmlns:xlink="http://www.w3.org/1999/xlink" x="0px" y="0px"
	 viewBox="0 0 324 324" style="enable-background:new 0 0 324 324;" xml:space="preserve">
<style type="text/css">
	.st0{fill:none;stroke:#E6C0FF;stroke-width:12;stroke-miterlimit:10;}
	.st1{fill:#E6C0FF;}
</style>
<title>ic_inspire</title>
<path class="st0" d="M107.3,49.7c-31.3,0-56.7,25.3-56.7,56.6c0,0,0,0,0,0v170h170c31.3,0,56.7-25.4,56.7-56.7V49.7H107.3z"/>
<path class="st1" d="M163.7,135.7c4.6-11.2,15.5-18.6,27.6-18.7c16.6,0,28.6,14.2,30.1,31.2c0,0,0.8,4.2-1,11.8
	c-2.5,10.2-8,19.5-15.9,26.5L163.7,223l-40.2-36.5c-7.9-7-13.4-16.3-15.9-26.5c-1.8-7.6-1-11.8-1-11.8c1.5-17,13.5-31.2,30.1-31.2
	C149.1,117,159,124.7,163.7,135.7z"/>
</svg>
