<svg id="Layer_1" data-name="Layer 1" xmlns="http://www.w3.org/2000/svg" viewBox="0 0 324 324"><title>ic_inspire</title><path d="M107.35,49.7a56.65,56.65,0,0,0-56.7,56.6v170h170a56.7,56.7,0,0,0,56.7-56.67V49.7Z" style="fill:none;stroke:#fff;stroke-miterlimit:10;stroke-width:12px"/><path d="M163.66,135.73A30.13,30.13,0,0,1,191.28,117c16.64,0,28.63,14.24,30.14,31.21,0,0,.81,4.21-1,11.8a52.15,52.15,0,0,1-15.9,26.51L163.66,223l-40.21-36.49A52.15,52.15,0,0,1,107.55,160c-1.79-7.58-1-11.8-1-11.8,1.51-17,13.49-31.21,30.14-31.21C149.07,117,159,124.7,163.66,135.73Z" style="fill:#fff"/></svg>