<svg id="Layer_1" data-name="Layer 1" xmlns="http://www.w3.org/2000/svg" viewBox="0 0 324 324"><title>ic_nuturecreativity</title><path d="M253,110.58c-4.47-42.46-38.37-76.54-80.59-81h-.11c-1.24,0-2.48-.1-3.8-.21s-3-.24-4.61-.24-3.16.12-4.61.24-2.56.21-3.8.21h-.12c-42.22,4.94-76.12,39-80.58,81a91.37,91.37,0,0,0,27.76,76.55c10.52,10.1,17.79,22.3,20.5,34.37v52.14a5.19,5.19,0,0,0,5.43,5.43h6.14l7.69,10.25a18.71,18.71,0,0,0,15,7.46h13.28a18.17,18.17,0,0,0,15-7.49l7.67-10.23h6.14a5.19,5.19,0,0,0,5.43-5.43V221.48c2.16-11.54,9.44-23.73,20.51-34.36A92.53,92.53,0,0,0,253,110.58Zm-73.4,168.49-2.78,3.7a8.22,8.22,0,0,1-6.29,3.16H157.2a8.21,8.21,0,0,1-6.29-3.14l-2.79-3.71Zm-3.43-40.85a5.19,5.19,0,0,0,5.43,5.43h12.28v6.86H168.27a5.43,5.43,0,0,0,0,10.86h25.57v6.86h-60v-6.86h12.28a5.43,5.43,0,1,0,0-10.86H133.85v-6.86h25.57a5.43,5.43,0,1,0,0-10.86H133.85v-6.86h60v6.86H181.56A5.19,5.19,0,0,0,176.13,238.21ZM217.62,179l0,0c-11.25,11.25-19.06,23.69-22.63,36H132.72c-3.57-12.33-11.38-24.77-22.65-36a80.76,80.76,0,0,1-24.49-67.35c4.35-36.95,34.3-66.92,71.24-71.29,1.08,0,2.14-.1,3.25-.21s2.43-.23,3.77-.23,2.58.12,3.77.23,2.17.21,3.25.21c37.38,4.42,67.34,34.39,71.24,71.28A80.77,80.77,0,0,1,217.62,179Z" style="fill:#fff"/><path d="M151.12,102.07a12.72,12.72,0,0,0-12.73,12.71V153h38.18a12.73,12.73,0,0,0,12.73-12.73V102.07Z" style="fill:#fff"/></svg>