<?xml version="1.0" encoding="utf-8"?>
<!-- Generator: Adobe Illustrator 20.1.0, SVG Export Plug-In . SVG Version: 6.00 Build 0)  -->
<svg version="1.1" id="Layer_1" xmlns="http://www.w3.org/2000/svg" xmlns:xlink="http://www.w3.org/1999/xlink" x="0px" y="0px"
	 viewBox="0 0 324 324" style="enable-background:new 0 0 324 324;" xml:space="preserve">
<style type="text/css">
	.st0{fill:#E6C0FF;}
</style>
<title>ic_nuturecreativity</title>
<path class="st0" d="M253,110.6c-4.5-42.5-38.4-76.5-80.6-81h-0.1c-1.2,0-2.5-0.1-3.8-0.2s-3-0.2-4.6-0.2s-3.2,0.1-4.6,0.2
	s-2.6,0.2-3.8,0.2h-0.1c-42.2,4.9-76.1,39-80.6,81c-3.3,28.5,7,56.8,27.8,76.6c10.5,10.1,17.8,22.3,20.5,34.4v52.1
	c-0.1,2.9,2.1,5.3,4.9,5.4c0.2,0,0.3,0,0.5,0h6.1l7.7,10.2c3.5,4.7,9.1,7.5,15,7.5h13.3c5.9,0.1,11.5-2.7,15-7.5l7.7-10.2h6.1
	c2.9,0.1,5.3-2.1,5.4-4.9c0-0.2,0-0.3,0-0.5v-52.2c2.2-11.5,9.4-23.7,20.5-34.4C245.9,167.3,256.1,139,253,110.6z M179.6,279.1
	l-2.8,3.7c-1.5,1.9-3.8,3.1-6.3,3.2h-13.3c-2.5-0.1-4.8-1.2-6.3-3.1l-2.8-3.7L179.6,279.1z M176.2,238.2c-0.1,2.9,2.1,5.3,4.9,5.4
	c0.2,0,0.3,0,0.5,0h12.3v6.9h-25.6c-3,0-5.4,2.4-5.4,5.4c0,3,2.4,5.4,5.4,5.4h25.6v6.9h-60v-6.9h12.3c3,0,5.4-2.4,5.4-5.4
	c0-3-2.4-5.4-5.4-5.4h-12.3v-6.9h25.6c3,0,5.4-2.4,5.4-5.4c0-3-2.4-5.4-5.4-5.4h-25.6v-6.9h60v6.9h-12.3c-2.9-0.1-5.3,2.1-5.4,4.9
	C176.1,237.9,176.1,238,176.2,238.2L176.2,238.2z M217.6,179L217.6,179c-11.2,11.2-19.1,23.7-22.6,36h-62.3
	c-3.6-12.3-11.4-24.8-22.7-36c-18.2-17.4-27.3-42.3-24.5-67.3c4.3-37,34.3-66.9,71.2-71.3c1.1,0,2.1-0.1,3.2-0.2s2.4-0.2,3.8-0.2
	s2.6,0.1,3.8,0.2s2.2,0.2,3.2,0.2c37.4,4.4,67.3,34.4,71.2,71.3C244.9,136.7,235.8,161.6,217.6,179z"/>
<path class="st0" d="M151.1,102.1c-7,0-12.7,5.7-12.7,12.7l0,0V153h38.2c7,0,12.7-5.7,12.7-12.7v-38.2H151.1z"/>
</svg>
