<?xml version="1.0" encoding="utf-8"?>
<!-- Generator: Adobe Illustrator 18.1.1, SVG Export Plug-In . SVG Version: 6.00 Build 0)  -->
<svg version="1.1" id="Layer_1" xmlns="http://www.w3.org/2000/svg" xmlns:xlink="http://www.w3.org/1999/xlink" x="0px" y="0px"
	 viewBox="-18 187 518 516" enable-background="new -18 187 518 516" xml:space="preserve">
<polygon fill="#FFFFFF" stroke="#000000" stroke-width="30" stroke-miterlimit="10" points="408.6,368.4 431.8,393.2 240.5,597.9 
	49.2,393.2 72.3,368.4 240.5,548.3 "/>
<g>
	<circle fill="#FFFFFF" cx="240.5" cy="445.9" r="235"/>
	<path fill="#FFFFFF" d="M240.5,695.9c-66.8,0-129.6-26-176.8-73.2s-73.2-110-73.2-176.8s26-129.6,73.2-176.8s110-73.2,176.8-73.2
		s129.6,26,176.8,73.2s73.2,110,73.2,176.8s-26,129.6-73.2,176.8S307.3,695.9,240.5,695.9z M240.5,225.9
		c-58.8,0-114,22.9-155.6,64.4c-41.6,41.6-64.4,96.8-64.4,155.6c0,58.8,22.9,114,64.4,155.6c41.6,41.6,96.8,64.4,155.6,64.4
		s114-22.9,155.6-64.4s64.4-96.8,64.4-155.6c0-58.8-22.9-114-64.4-155.6C354.5,248.8,299.3,225.9,240.5,225.9z"/>
</g>
</svg>
