<?xml version="1.0" encoding="utf-8"?>
<!-- Generator: Adobe Illustrator 20.0.0, SVG Export Plug-In . SVG Version: 6.00 Build 0)  -->
<svg version="1.1" id="Layer_1" xmlns="http://www.w3.org/2000/svg" xmlns:xlink="http://www.w3.org/1999/xlink" x="0px" y="0px"
	 viewBox="0 0 20 20" enable-background="new 0 0 20 20" xml:space="preserve">
<g>
	<path fill="#386ED3" d="M10,0C4.477,0,0,4.477,0,10c0,5.523,4.477,10,10,10s10-4.477,10-10C20,4.477,15.523,0,10,0z M15.396,7.904
		l-5.682,6.807c-0.268,0.321-0.658,0.516-1.075,0.537c-0.025,0.001-0.051,0.002-0.076,0.002c-0.391,0-0.768-0.152-1.048-0.428
		l-2.18-2.131c-0.593-0.578-0.604-1.528-0.024-2.121c0.581-0.593,1.53-0.603,2.121-0.024l1.02,0.997l4.642-5.561
		c0.53-0.636,1.477-0.722,2.112-0.19C15.841,6.322,15.927,7.268,15.396,7.904z"/>
</g>
<path fill="#FFFFFF" d="M13.093,5.982l-4.642,5.561l-1.02-0.997C6.839,9.968,5.89,9.978,5.31,10.571
	c-0.579,0.592-0.568,1.542,0.024,2.121l2.18,2.131c0.281,0.275,0.657,0.428,1.048,0.428c0.025,0,0.051-0.001,0.076-0.002
	c0.417-0.021,0.808-0.216,1.075-0.537l5.682-6.807c0.531-0.636,0.446-1.582-0.19-2.112C14.569,5.26,13.623,5.346,13.093,5.982z"/>
</svg>
