<?xml version="1.0" encoding="utf-8"?>
<!-- Generator: Adobe Illustrator 17.1.0, SVG Export Plug-In . SVG Version: 6.00 Build 0)  -->
<!DOCTYPE svg PUBLIC "-//W3C//DTD SVG 1.1//EN" "http://www.w3.org/Graphics/SVG/1.1/DTD/svg11.dtd">
<svg version="1.1" id="Layer_1" xmlns="http://www.w3.org/2000/svg" xmlns:xlink="http://www.w3.org/1999/xlink" x="0px" y="0px"
	 viewBox="0 0 70 70" enable-background="new 0 0 70 70" xml:space="preserve">
<path fill="#1686B0" d="M35-0.036c-19.33,0-35,15.67-35,35c0,19.33,15.67,35,35,35s35-15.67,35-35C70,15.634,54.33-0.036,35-0.036z
	 M25,51h-6V29h6V51z M21.729,26.578c-2.479,0-4.083-1.604-4.083-3.792s1.604-3.792,4.083-3.792c2.479,0,4.083,1.604,4.083,3.792
	S24.354,26.578,21.729,26.578z M52,51h-7V39.703c0-2.917-1.354-4.958-3.979-4.958c-2.042,0-3.177,1.312-3.76,2.625
	C37.115,37.807,37,38.536,37,39.12V51h-7.542c0,0,0.146-20,0-22H37v3.557c0-1.458,2.76-3.646,6.552-3.646
	c4.812,0,8.448,3.062,8.448,9.771V51z"/>
<path fill="#FFFFFF" d="M21.729,18.995c-2.479,0-4.083,1.604-4.083,3.792s1.604,3.792,4.083,3.792c2.625,0,4.083-1.604,4.083-3.792
	S24.208,18.995,21.729,18.995z"/>
<rect x="19" y="29" fill="#FFFFFF" width="6" height="22"/>
</svg>
