<?xml version="1.0" encoding="utf-8"?>
<!-- Generator: Adobe Illustrator 17.1.0, SVG Export Plug-In . SVG Version: 6.00 Build 0)  -->
<!DOCTYPE svg PUBLIC "-//W3C//DTD SVG 1.1//EN" "http://www.w3.org/Graphics/SVG/1.1/DTD/svg11.dtd">
<svg version="1.1" id="Layer_1" xmlns="http://www.w3.org/2000/svg" xmlns:xlink="http://www.w3.org/1999/xlink" x="0px" y="0px"
	 viewBox="0 0 70 70" enable-background="new 0 0 70 70" xml:space="preserve">
<path fill="#CCCCCC" d="M35-0.036c-19.33,0-35,15.67-35,35c0,19.33,15.67,35,35,35s35-15.67,35-35C70,15.634,54.33-0.036,35-0.036z
	 M49.413,29.683c0.014,0.302,0.02,0.606,0.02,0.912c0,9.314-7.089,20.053-20.053,20.053c-3.98,0-7.685-1.167-10.804-3.167
	c0.551,0.065,1.112,0.099,1.681,0.099c3.302,0,6.341-1.127,8.753-3.017c-3.084-0.057-5.687-2.094-6.584-4.894
	c0.43,0.082,0.872,0.126,1.326,0.126c0.643,0,1.288-0.086,1.879-0.247C22.407,38.9,20,36.051,20,32.637c0-0.03,0-0.059,0-0.089
	c1,0.528,2.015,0.845,3.171,0.882c-1.891-1.264-3.146-3.421-3.146-5.866c0-1.292,0.342-2.502,0.949-3.543
	c3.476,4.264,8.667,7.07,14.524,7.364c-0.12-0.516-0.184-1.054-0.184-1.606c0-3.892,3.155-7.048,7.047-7.048
	c2.027,0,3.859,0.856,5.144,2.226c1.605-0.316,3.114-0.902,4.476-1.71c-0.526,1.646-1.644,3.027-3.099,3.899
	c1.425-0.17,2.784-0.549,4.048-1.11l0,0h0c0,0,0,0,0,0C51.984,27.448,50.79,28.69,49.413,29.683z"/>
<polygon fill="#FFFFFF" points="52.929,26.035 52.929,26.035 52.929,26.035 "/>
</svg>
