<svg id="Layer_1" data-name="Layer 1" xmlns="http://www.w3.org/2000/svg" xmlns:xlink="http://www.w3.org/1999/xlink" viewBox="0 0 70 70"><defs><style>.cls-1,.cls-2,.cls-4{fill:#295396;}.cls-1{clip-rule:evenodd;}.cls-2,.cls-6{fill-rule:evenodd;}.cls-3{clip-path:url(#clip-path);}.cls-5,.cls-6{fill:#fff;}</style><clipPath id="clip-path"><path class="cls-1" d="M35,0A35,35,0,1,0,70,35,35,35,0,0,0,35,0Z"/></clipPath></defs><title>icon_facebook_hover</title><path class="cls-2" d="M35,0A35,35,0,1,0,70,35,35,35,0,0,0,35,0Z"/><g class="cls-3"><path class="cls-4" d="M69.94,54.5A15.28,15.28,0,0,1,54.71,69.83H15.17A15.28,15.28,0,0,1-.06,54.5V15.17A15.28,15.28,0,0,1,15.17-.17H54.71A15.28,15.28,0,0,1,69.94,15.17Z"/></g><polygon class="cls-5" points="35.48 26.04 35.48 26.04 35.48 26.04 35.48 26.04"/><polygon class="cls-5" points="52.93 26.04 52.93 26.04 52.93 26.04 52.93 26.04"/><polygon class="cls-5" points="52.93 26.04 52.93 26.04 52.93 26.04 52.93 26.04"/><polygon class="cls-5" points="52.93 26.04 52.93 26.04 52.93 26.04 52.93 26.04"/><polygon class="cls-5" points="52.93 26.04 52.93 26.04 52.93 26.04 52.93 26.04"/><path id="_Path_" data-name="&lt;Path&gt;" class="cls-6" d="M28.36,47.86c0-3.37,0-6.74,0-10.11,0-.57-.16-.75-.72-.72-1,0-2.1,0-3.15,0-.43,0-.58-.11-.58-.56q0-3.15,0-6.31c0-.4.12-.54.53-.53,1.07,0,2.15,0,3.22,0,.62,0,.75-.19.74-.77q-.06-2.4,0-4.8a9.21,9.21,0,0,1,1.73-5.37,7.46,7.46,0,0,1,6-3c2.48-.11,5,0,7.45-.08.35,0,.45.12.45.46q0,3.19,0,6.38c0,.38-.12.49-.49.49-1.19,0-2.39,0-3.58,0a2.37,2.37,0,0,0-2.64,2.4c-.08,1.26,0,2.53-.05,3.8,0,.45.26.42.56.42,1.82,0,3.63,0,5.45,0,.53,0,.71.11.65.67-.23,2.11-.42,4.23-.61,6.35,0,.48-.26.57-.69.56-1.43,0-2.87,0-4.3,0-1,0-.93-.15-.93.9,0,6.59,0,13.19,0,19.78,0,.7-.18.87-.86.86q-3.69-.07-7.38,0c-.69,0-.81-.22-.8-.84C28.37,54.51,28.36,51.19,28.36,47.86Z"/></svg>