<?xml version="1.0" encoding="utf-8"?>
<!-- Generator: Adobe Illustrator 17.1.0, SVG Export Plug-In . SVG Version: 6.00 Build 0)  -->
<!DOCTYPE svg PUBLIC "-//W3C//DTD SVG 1.1//EN" "http://www.w3.org/Graphics/SVG/1.1/DTD/svg11.dtd">
<svg version="1.1" xmlns="http://www.w3.org/2000/svg" xmlns:xlink="http://www.w3.org/1999/xlink" x="0px" y="0px"
	 viewBox="0 0 170 170" enable-background="new 0 0 170 170" xml:space="preserve">
<g id="Layer_1">
</g>
<g id="Layer_2">
	<path fill="#D2A532" d="M128.639,40.472c-3.464-2.794-8.294-2.225-10.694-1.302c-1.758,0.676-4.458,1.831-6.294,2.831H57.849
		c-1.836-1-4.536-2.154-6.294-2.831c-2.4-0.922-7.23-1.387-10.694,1.407c-3.332,2.687-4.516,7.259-3.519,13.694
		c2.25,14.519,21.156,21.043,26.792,22.701C66.904,81.195,71,85.179,76,88.535v9.851C74,100.144,69.788,104,69.189,111h-2.438
		l0.153,0.012C64.74,111.353,61,113.158,61,117.619V131h23.073h1.354H109v-13.381c0-4.461-3.99-6.266-6.154-6.608L102.749,111
		h-2.438C99.712,104,95,100.144,94,98.386v-9.851c5-3.356,8.846-7.367,11.616-11.59c5.636-1.658,24.304-8.208,26.554-22.727
		C133.167,47.783,131.971,43.158,128.639,40.472z M42.436,53.429c-0.478-3.084-0.577-7.139,1.661-8.945
		c1.839-1.483,4.753-1.042,5.607-0.714c1.928,0.742,5.167,2.136,6.889,2.884c-0.308,4.622-0.267,14.053,3.746,23.574
		C53.611,67.525,43.787,62.144,42.436,53.429z M102.287,116c0.443,0,1.713,0.631,1.713,1.619V126H66v-8.381
		c0-0.988,0.77-1.619,1.213-1.619H102.287z M89.633,85.051L88,85.672v15.21l1.453,0.792c0.049,0.036,4.904,3.326,5.668,9.326H74.379
		c0.764-6,5.368-9.289,5.418-9.326L81,100.882v-15.21l-1.383-0.621C61.722,74.115,61.329,54,61.771,47h45.959
		C108.171,54,107.528,74.115,89.633,85.051z M127.064,53.429c-1.351,8.715-11.175,14.096-17.903,16.8
		c4.013-9.521,4.054-18.952,3.746-23.574c1.722-0.748,4.961-2.142,6.889-2.884c0.854-0.328,3.769-0.769,5.607,0.714
		C127.641,46.289,127.542,50.345,127.064,53.429z"/>
	<g>
		<path fill="#D2A532" d="M84.75,169.351c-46.547,0-84.417-37.869-84.417-84.417S38.203,0.517,84.75,0.517
			s84.417,37.869,84.417,84.417S131.297,169.351,84.75,169.351z M84.75,5.673c-43.705,0-79.261,35.557-79.261,79.261
			s35.557,79.261,79.261,79.261s79.261-35.557,79.261-79.261S128.455,5.673,84.75,5.673z"/>
	</g>
</g>
</svg>
