<svg id="Layer_1" data-name="Layer 1" xmlns="http://www.w3.org/2000/svg" xmlns:xlink="http://www.w3.org/1999/xlink" viewBox="0 0 70 70"><defs><style>.cls-1{fill:none;}.cls-2{fill:#ccc;fill-rule:evenodd;}.cls-3{fill:#fff;}.cls-4{clip-path:url(#clip-path);}</style><clipPath id="clip-path"><rect class="cls-1" x="17.38" y="18" width="36" height="36"/></clipPath></defs><title>icon_instagram_normal</title><path class="cls-2" d="M35,0A35,35,0,1,0,70,35,35,35,0,0,0,35,0Z"/><polygon class="cls-3" points="52.93 26.04 52.93 26.04 52.93 26.04 52.93 26.04"/><polygon class="cls-3" points="52.93 26.04 52.93 26.04 52.93 26.04 52.93 26.04"/><g class="cls-4"><path class="cls-3" d="M35.38,21.24c4.81,0,5.38,0,7.27.1A10,10,0,0,1,46,22a6,6,0,0,1,3.42,3.42A10,10,0,0,1,50,28.73c.09,1.9.1,2.47.1,7.27s0,5.38-.1,7.27a10,10,0,0,1-.62,3.34A6,6,0,0,1,46,50a10,10,0,0,1-3.34.62c-1.9.09-2.47.1-7.27.1s-5.38,0-7.27-.1A10,10,0,0,1,24.76,50a6,6,0,0,1-3.42-3.42,10,10,0,0,1-.62-3.34c-.09-1.9-.1-2.47-.1-7.27s0-5.38.1-7.27a10,10,0,0,1,.62-3.34A6,6,0,0,1,24.76,22a10,10,0,0,1,3.34-.62c1.9-.09,2.47-.1,7.27-.1m0-3.24c-4.89,0-5.5,0-7.42.11a13.21,13.21,0,0,0-4.37.84,9.2,9.2,0,0,0-5.26,5.26,13.21,13.21,0,0,0-.84,4.37c-.09,1.92-.11,2.53-.11,7.42s0,5.5.11,7.42a13.21,13.21,0,0,0,.84,4.37,9.2,9.2,0,0,0,5.26,5.26,13.21,13.21,0,0,0,4.37.84c1.92.09,2.53.11,7.42.11s5.5,0,7.42-.11a13.21,13.21,0,0,0,4.37-.84,9.2,9.2,0,0,0,5.26-5.26,13.21,13.21,0,0,0,.84-4.37c.09-1.92.11-2.53.11-7.42s0-5.5-.11-7.42a13.21,13.21,0,0,0-.84-4.37,9.2,9.2,0,0,0-5.26-5.26,13.21,13.21,0,0,0-4.37-.84C40.88,18,40.26,18,35.38,18"/><path class="cls-3" d="M35.38,26.76A9.24,9.24,0,1,0,44.62,36a9.24,9.24,0,0,0-9.24-9.24m0,15.24a6,6,0,1,1,6-6,6,6,0,0,1-6,6"/><path class="cls-3" d="M47.14,26.39A2.16,2.16,0,1,1,45,24.23a2.16,2.16,0,0,1,2.16,2.16"/></g></svg>