<?xml version="1.0" encoding="utf-8"?>
<!-- Generator: Adobe Illustrator 17.1.0, SVG Export Plug-In . SVG Version: 6.00 Build 0)  -->
<!DOCTYPE svg PUBLIC "-//W3C//DTD SVG 1.1//EN" "http://www.w3.org/Graphics/SVG/1.1/DTD/svg11.dtd">
<svg version="1.1" xmlns="http://www.w3.org/2000/svg" xmlns:xlink="http://www.w3.org/1999/xlink" x="0px" y="0px"
	 viewBox="0 0 360 140" enable-background="new 0 0 360 140" xml:space="preserve">
<g id="Layer_1">
	<path fill="#CACCE0" d="M150.694,71.843c-10.418,6.209-20.698,6.205-31.009,0.052c-4.147,4.139-6.457,15.816-4.097,21.031
		c2.307-1.915,4.985-2.804,8.029-2.793c0-0.7-0.05-1.295,0.014-1.877c0.064-0.589-0.101-0.785-0.709-0.772
		c-1.702,0.036-3.405,0.013-5.108,0.011c-0.491,0-0.927-0.13-0.915-0.716c0.012-0.581,0.452-0.691,0.941-0.69
		c1.678,0.003,3.356,0.001,5.034,0.001c0.262,0,0.523,0,0.777,0c0.037-0.207,0.059-0.302,0.07-0.399
		c0.189-1.789,0.376-3.578,0.566-5.367c0.053-0.495,0.26-0.886,0.827-0.814c0.541,0.068,0.62,0.484,0.559,0.949
		c-0.016,0.122-0.021,0.246-0.031,0.369c-0.228,2.898-0.454,5.796-0.686,8.694c-0.04,0.504,0.062,0.769,0.668,0.893
		c5.323,1.088,9.171,5.681,9.371,11.106c0.005,0.142,0.062,0.282,0.095,0.423c0.681-6.316,3.978-10.31,10.227-11.841
		c0-0.331,0.023-0.675-0.004-1.015c-0.224-2.849-0.452-5.698-0.694-8.545c-0.039-0.46-0.02-0.88,0.492-1.01
		c0.552-0.14,0.826,0.182,0.882,0.708c0.185,1.715,0.392,3.427,0.529,5.146c0.043,0.532,0.173,0.728,0.731,0.717
		c1.702-0.033,3.405-0.005,5.108-0.016c0.543-0.004,1.055,0.077,1.05,0.736c-0.005,0.635-0.53,0.675-1.025,0.675
		c-1.629-0.002-3.257-0.003-4.886,0.002c-0.259,0.001-0.518,0.033-0.728,0.048c0,0.892,0,1.69,0,2.295
		c1.51,0.322,2.95,0.475,4.271,0.955c1.316,0.478,2.512,1.286,3.845,1.994C156.613,85.192,155.234,78.202,150.694,71.843z"/>
	<path fill="#CACCE0" d="M173.46,68.692c0,0.434,0,0.752,0,1.069c0,10.909,0,21.817-0.001,32.726c0,1.023-0.001,1.024,0.978,1.024
		c1.629,0.001,3.258,0.001,4.887,0c0.975-0.001,0.977-0.002,0.977-0.954c0.001-5.973,0.002-11.945,0.002-17.918
		c0-0.263,0-0.525,0-0.788c0.072-0.003,0.143-0.006,0.215-0.008c0.137,0.311,0.279,0.62,0.41,0.934
		c2.505,6.004,5.017,12.005,7.502,18.018c0.223,0.539,0.488,0.757,1.083,0.731c1.158-0.05,2.319-0.015,3.479-0.015
		c0.683,0,1.366,0,2.068,0c0-11.654,0-23.191,0-34.745c-2.275,0-4.498,0-6.793,0c0,6.598,0,13.119,0,19.64
		c-0.243-0.177-0.353-0.383-0.443-0.598c-1.044-2.501-2.085-5.004-3.128-7.505c-1.527-3.661-3.049-7.324-4.595-10.977
		c-0.106-0.251-0.392-0.601-0.601-0.606C177.53,68.673,175.56,68.692,173.46,68.692z"/>
	<path fill="#CACCE0" d="M221.892,68.692c0.055,0.331,0.079,0.546,0.126,0.755c2.474,11.111,4.955,22.22,7.408,33.336
		c0.131,0.593,0.365,0.746,0.931,0.74c2.369-0.026,4.74-0.042,7.108,0.008c0.709,0.015,0.975-0.215,1.134-0.889
		c2.441-10.309,4.907-20.611,7.366-30.915c0.232-0.972,0.451-1.948,0.675-2.92c-0.159-0.056-0.227-0.101-0.295-0.101
		c-2.073-0.007-4.147-0.026-6.219,0.013c-0.194,0.004-0.497,0.356-0.553,0.594c-1.413,5.944-2.798,11.894-4.191,17.842
		c-0.345,1.473-0.702,2.942-1.054,4.413c-0.211-0.203-0.28-0.404-0.328-0.609c-0.879-3.767-1.758-7.534-2.633-11.302
		c-0.798-3.432-1.585-6.866-2.403-10.294c-0.06-0.25-0.33-0.637-0.508-0.641C226.312,68.676,224.167,68.692,221.892,68.692z"/>
	<path fill="#CACCE0" d="M105.815,56.024c0,3.675-0.001,7.349,0,11.024c0,1.263,0.291,1.547,1.574,1.548
		c1.702,0.001,3.403,0.001,5.105,0.001c1.48,0,2.018-0.527,2.019-1.985c0.001-7.029,0.001-14.057,0.001-21.086
		c0-1.454-0.595-2.06-2.056-2.068c-1.702-0.009-3.403-0.006-5.105,0c-1.197,0.004-1.536,0.347-1.537,1.543
		C105.814,48.675,105.815,52.35,105.815,56.024z"/>
	<path fill="#CACCE0" d="M164.456,56.086c0-3.724,0.005-7.447-0.003-11.171c-0.003-1.114-0.349-1.45-1.468-1.455
		c-1.8-0.008-3.6-0.016-5.4,0.006c-1.15,0.014-1.851,0.72-1.853,1.855c-0.008,7.151-0.01,14.302-0.003,21.453
		c0.001,1.175,0.672,1.817,1.851,1.821c1.775,0.006,3.551,0.003,5.326,0.001c1.285-0.001,1.547-0.259,1.549-1.562
		C164.46,63.385,164.457,59.735,164.456,56.086z"/>
	<path fill="#CACCE0" d="M136.789,102.032c0.415,0,0.709,0,1.002,0c3.082,0,6.163,0,9.245,0c3.23,0,6.459-0.001,9.688,0.001
		c0.392,0,0.694,0.035,0.655-0.572c-0.283-4.484-3.473-8.474-7.688-9.553c-4.405-1.127-8.834,0.667-11.301,4.597
		C137.35,98.162,136.824,99.976,136.789,102.032z"/>
	<path fill="#CACCE0" d="M112.898,101.86c6.914,0,13.729,0,20.619,0c-0.198-3.971-1.909-6.997-5.329-8.878
		c-3.696-2.032-7.424-1.816-10.894,0.578C114.441,95.53,113.022,98.35,112.898,101.86z"/>
	<path fill="#CACCE0" d="M104.17,67.143c0-7.446,0-14.806,0-22.243c-0.32,0.064-0.559,0.096-0.789,0.159
		c-1.616,0.444-2.872,1.429-3.846,2.742c-2.595,3.499-3.124,7.435-2.236,11.601c0.549,2.573,1.721,4.828,3.853,6.476
		C102.017,66.546,102.975,67.032,104.17,67.143z"/>
	<path fill="#CACCE0" d="M166.101,67.16c0.284-0.049,0.501-0.07,0.709-0.125c1.696-0.453,3.026-1.461,4.012-2.868
		c2.958-4.218,3.226-8.785,1.53-13.524c-0.748-2.089-2.017-3.851-4.005-4.963c-0.664-0.371-1.418-0.582-2.247-0.911
		C166.101,52.343,166.101,59.686,166.101,67.16z"/>
	<path fill="#CACCE0" d="M110.383,42.031c1.076,0,1.962,0.025,2.845-0.013c0.334-0.014,0.738-0.077,0.983-0.276
		c2.636-2.139,5.45-3.99,8.56-5.367c5.537-2.451,11.283-3.241,17.261-2.14c5.613,1.033,10.512,3.572,14.909,7.135
		c0.697,0.565,1.298,1.039,2.274,0.65c0.406-0.162,0.927-0.029,1.395-0.042c0.176-0.005,0.35-0.045,0.584-0.077
		C144.7,27.509,124.09,28.205,110.383,42.031z"/>
	<path fill="#CACCE0" d="M123.246,103.589c-3.452,0-6.904-0.002-10.356,0.002c-0.837,0.001-0.988,0.157-1,0.993
		c-0.007,0.444-0.002,0.888-0.001,1.331c0.004,1.497,0.55,2.039,2.06,2.04c4.882,0.001,9.764,0.001,14.646,0
		c1.356,0,2.712,0.005,4.068-0.004c1.263-0.008,1.827-0.591,1.831-1.874c0.002-0.493,0.002-0.986-0.001-1.479
		c-0.007-0.901-0.112-1.007-1.039-1.007C130.051,103.589,126.648,103.59,123.246,103.589z"/>
	<path fill="#CACCE0" d="M147.144,103.589c-3.431,0-6.862-0.001-10.293,0.001c-0.909,0.001-1.063,0.155-1.078,1.076
		c-0.007,0.444-0.008,0.889,0.002,1.333c0.029,1.403,0.598,1.958,2.006,1.958c5.727,0.001,11.453,0,17.18-0.001
		c0.592,0,1.185,0.011,1.777-0.006c1.02-0.03,1.6-0.613,1.615-1.618c0.009-0.592,0.004-1.185,0-1.777
		c-0.005-0.888-0.079-0.963-0.989-0.964C153.957,103.587,150.551,103.588,147.144,103.589z"/>
	<path fill="#CACCE0" d="M154.234,55.822c0,3.233,0.017,6.465-0.02,9.697c-0.005,0.422-0.185,0.926-0.456,1.248
		c-3.436,4.091-7.894,6.484-13.056,7.57c-5.77,1.214-11.378,0.609-16.745-1.886c-2.879-1.338-5.373-3.21-7.41-5.652
		c-0.284-0.341-0.489-0.866-0.491-1.307c-0.031-6.465-0.031-12.93,0-19.395c0.002-0.441,0.206-0.968,0.492-1.307
		c3.555-4.204,8.164-6.621,13.5-7.64c6.11-1.167,11.974-0.355,17.491,2.598c2.395,1.282,4.489,2.954,6.218,5.053
		c0.268,0.326,0.45,0.827,0.455,1.249C154.25,49.308,154.234,52.565,154.234,55.822z M126.035,59.155
		c-0.931-1.322-2.618-1.749-4.114-1.09c-1.461,0.644-2.332,2.308-1.999,3.82c0.378,1.714,1.821,2.901,3.471,2.857
		c1.575-0.043,2.946-1.124,3.196-2.52c-1.315,0.624-2.009,0.596-2.679-0.107c-0.53-0.556-0.652-1.389-0.302-2.054
		C124.028,59.261,124.794,58.96,126.035,59.155z M149.263,59.16c-0.842-1.304-2.588-1.749-4.097-1.09
		c-1.528,0.667-2.355,2.335-1.965,3.963c0.391,1.634,1.926,2.813,3.516,2.7c1.614-0.115,2.958-1.207,3.085-2.507
		c-1.198,0.619-1.88,0.607-2.573-0.044c-0.568-0.534-0.745-1.321-0.409-2.029C147.312,59.116,148.192,58.919,149.263,59.16z
		 M136.065,69.714c-2.803-0.792-5.494-1.552-8.203-2.317c-0.355,0.745-0.15,1.843,0.697,2.805c1.362,1.547,3.1,2.038,5.086,1.588
		C134.841,71.52,135.744,70.865,136.065,69.714z"/>
	<path fill="#CACCE0" d="M150.694,71.843c4.54,6.36,5.918,13.349,4.195,20.948c-1.333-0.708-2.529-1.516-3.845-1.994
		c-1.321-0.48-2.761-0.633-4.271-0.955c0-0.605,0-1.403,0-2.295c0.21-0.014,0.469-0.047,0.728-0.048
		c1.629-0.005,3.257-0.003,4.886-0.002c0.496,0,1.021-0.039,1.025-0.675c0.005-0.659-0.506-0.739-1.05-0.736
		c-1.703,0.011-3.406-0.017-5.108,0.016c-0.558,0.011-0.689-0.185-0.731-0.717c-0.137-1.718-0.344-3.431-0.529-5.146
		c-0.057-0.525-0.33-0.847-0.882-0.708c-0.512,0.129-0.532,0.55-0.492,1.01c0.243,2.847,0.47,5.696,0.694,8.545
		c0.027,0.34,0.004,0.685,0.004,1.015c-6.25,1.532-9.547,5.525-10.227,11.841c-0.033-0.141-0.09-0.281-0.095-0.423
		c-0.2-5.425-4.048-10.018-9.371-11.106c-0.606-0.124-0.708-0.389-0.668-0.893c0.232-2.898,0.458-5.796,0.686-8.694
		c0.01-0.123,0.015-0.247,0.031-0.369c0.062-0.465-0.018-0.881-0.559-0.949c-0.568-0.071-0.775,0.32-0.827,0.814
		c-0.19,1.789-0.377,3.578-0.566,5.367c-0.01,0.097-0.033,0.193-0.07,0.399c-0.254,0-0.515,0-0.777,0
		c-1.678,0-3.356,0.002-5.034-0.001c-0.489-0.001-0.93,0.109-0.941,0.69c-0.012,0.585,0.424,0.715,0.915,0.716
		c1.703,0.001,3.406,0.024,5.108-0.011c0.608-0.013,0.773,0.183,0.709,0.772c-0.064,0.583-0.014,1.178-0.014,1.877
		c-3.043-0.011-5.722,0.878-8.029,2.793c-2.36-5.216-0.049-16.892,4.097-21.031C129.996,78.048,140.276,78.052,150.694,71.843z"/>
	<path fill="#CACCE0" d="M173.46,68.692c2.1,0,4.07-0.019,6.039,0.028c0.209,0.005,0.495,0.355,0.601,0.606
		c1.546,3.653,3.068,7.316,4.595,10.977c1.043,2.502,2.084,5.004,3.128,7.505c0.09,0.215,0.2,0.421,0.443,0.598
		c0-6.521,0-13.042,0-19.64c2.295,0,4.518,0,6.793,0c0,11.554,0,23.091,0,34.745c-0.702,0-1.385,0-2.068,0
		c-1.16,0-2.321-0.034-3.479,0.015c-0.595,0.025-0.86-0.192-1.083-0.731c-2.485-6.012-4.996-12.014-7.502-18.018
		c-0.131-0.314-0.273-0.623-0.41-0.934c-0.072,0.003-0.143,0.006-0.215,0.008c0,0.263,0,0.525,0,0.788
		c-0.001,5.973-0.001,11.945-0.002,17.918c0,0.952-0.002,0.953-0.977,0.954c-1.629,0.001-3.258,0.001-4.887,0
		c-0.979,0-0.978-0.001-0.978-1.024c0-10.909,0.001-21.817,0.001-32.726C173.46,69.444,173.46,69.126,173.46,68.692z"/>
	<path fill="#CACCE0" d="M198.282,86.133c0.037-3.754,0.41-7.444,1.886-10.939c1.235-2.924,3.11-5.297,6.214-6.368
		c4.723-1.63,10.336-0.268,13.144,5.835c1.33,2.891,1.856,5.966,2.014,9.11c0.204,4.061,0.009,8.09-1.31,11.984
		c-0.931,2.748-2.355,5.174-4.895,6.746c-4.769,2.951-10.982,1.477-14.006-3.288c-1.734-2.733-2.462-5.784-2.792-8.949
		C198.393,88.894,198.363,87.511,198.282,86.133z M213.953,85.597c-0.085-1.198-0.107-2.959-0.366-4.683
		c-0.206-1.373-0.608-2.738-1.1-4.04c-0.402-1.063-1.255-1.774-2.491-1.79c-1.274-0.017-2.072,0.731-2.578,1.79
		c-0.337,0.705-0.619,1.46-0.775,2.224c-0.86,4.226-0.794,8.484-0.252,12.737c0.19,1.491,0.525,2.973,1.48,4.209
		c1.085,1.404,2.972,1.483,4.069,0.091c0.49-0.621,0.848-1.394,1.092-2.153C213.85,91.438,213.845,88.786,213.953,85.597z"/>
	<path fill="#CACCE0" d="M267.096,103.469c-0.336,0.018-0.573,0.042-0.81,0.043c-1.802,0.003-3.604-0.017-5.406,0.012
		c-0.554,0.009-0.825-0.115-0.945-0.723c-0.334-1.691-0.77-3.362-1.131-5.048c-0.106-0.495-0.302-0.691-0.834-0.683
		c-1.999,0.03-3.999,0.034-5.998-0.002c-0.6-0.011-0.803,0.225-0.912,0.774c-0.325,1.643-0.714,3.274-1.05,4.916
		c-0.108,0.531-0.298,0.783-0.912,0.77c-2.043-0.043-4.088-0.016-6.259-0.016c0.317-1.356,0.605-2.618,0.907-3.877
		c2.402-10.015,4.815-20.027,7.193-30.048c0.171-0.72,0.459-0.933,1.18-0.914c1.875,0.051,3.752,0.036,5.627,0.004
		c0.557-0.009,0.821,0.128,0.964,0.714c2.569,10.506,5.162,21.007,7.751,31.508C266.663,101.71,266.863,102.52,267.096,103.469z
		 M257.406,91.694c-0.842-3.751-1.668-7.429-2.493-11.107c-0.071-0.002-0.142-0.004-0.213-0.006
		c-0.751,3.683-1.503,7.367-2.267,11.113C254.141,91.694,255.708,91.694,257.406,91.694z"/>
	<path fill="#CACCE0" d="M221.892,68.692c2.276,0,4.42-0.016,6.564,0.029c0.179,0.004,0.449,0.392,0.508,0.641
		c0.818,3.427,1.605,6.862,2.403,10.294c0.876,3.768,1.754,7.535,2.633,11.302c0.048,0.206,0.116,0.406,0.328,0.609
		c0.352-1.471,0.709-2.941,1.054-4.413c1.393-5.948,2.779-11.898,4.191-17.842c0.056-0.237,0.359-0.59,0.553-0.594
		c2.072-0.04,4.146-0.021,6.219-0.013c0.068,0,0.136,0.045,0.295,0.101c-0.224,0.971-0.443,1.947-0.675,2.92
		c-2.459,10.304-4.925,20.607-7.366,30.915c-0.16,0.674-0.425,0.904-1.134,0.889c-2.369-0.049-4.739-0.034-7.108-0.008
		c-0.565,0.006-0.8-0.147-0.931-0.74c-2.453-11.116-4.934-22.225-7.408-33.336C221.971,69.237,221.946,69.023,221.892,68.692z"/>
	<path fill="#CACCE0" d="M105.815,56.024c0-3.675-0.002-7.349,0.001-11.024c0.001-1.197,0.34-1.539,1.537-1.543
		c1.702-0.006,3.403-0.009,5.105,0c1.461,0.008,2.056,0.614,2.056,2.068c0,7.029,0,14.057-0.001,21.086
		c0,1.458-0.539,1.985-2.019,1.985c-1.702,0-3.403,0.001-5.105-0.001c-1.283-0.001-1.574-0.285-1.574-1.548
		C105.814,63.373,105.815,59.699,105.815,56.024z"/>
	<path fill="#CACCE0" d="M164.457,56.086c0,3.65,0.003,7.299-0.001,10.949c-0.002,1.303-0.264,1.561-1.549,1.562
		c-1.775,0.001-3.551,0.005-5.326-0.001c-1.179-0.004-1.85-0.645-1.851-1.821c-0.007-7.151-0.005-14.302,0.003-21.453
		c0.001-1.136,0.703-1.842,1.853-1.855c1.8-0.022,3.6-0.014,5.4-0.006c1.119,0.005,1.465,0.341,1.468,1.455
		C164.462,48.639,164.456,52.362,164.457,56.086z"/>
	<path fill="#CACCE0" d="M136.789,102.032c0.035-2.056,0.561-3.87,1.602-5.528c2.467-3.929,6.896-5.724,11.301-4.597
		c4.215,1.079,7.405,5.069,7.688,9.553c0.038,0.608-0.263,0.573-0.655,0.572c-3.229-0.002-6.459-0.001-9.688-0.001
		c-3.082,0-6.163,0-9.245,0C137.498,102.032,137.204,102.032,136.789,102.032z"/>
	<path fill="#CACCE0" d="M112.898,101.86c0.124-3.51,1.543-6.33,4.395-8.299c3.47-2.395,7.198-2.611,10.894-0.578
		c3.42,1.88,5.131,4.907,5.329,8.878C126.628,101.86,119.812,101.86,112.898,101.86z"/>
	<path fill="#CACCE0" d="M104.17,67.143c-1.196-0.111-2.153-0.597-3.018-1.265c-2.132-1.648-3.305-3.903-3.853-6.476
		c-0.888-4.166-0.359-8.102,2.236-11.601c0.974-1.313,2.231-2.298,3.846-2.742c0.23-0.063,0.469-0.096,0.789-0.159
		C104.17,52.337,104.17,59.697,104.17,67.143z"/>
	<path fill="#CACCE0" d="M166.101,67.16c0-7.474,0-14.817,0-22.391c0.829,0.33,1.583,0.54,2.247,0.911
		c1.987,1.112,3.257,2.874,4.005,4.963c1.696,4.738,1.428,9.305-1.53,13.524c-0.987,1.407-2.317,2.415-4.012,2.868
		C166.603,67.09,166.385,67.111,166.101,67.16z"/>
	<path fill="#CACCE0" d="M110.383,42.031c13.708-13.827,34.317-14.522,48.811-0.13c-0.233,0.032-0.408,0.072-0.584,0.077
		c-0.468,0.013-0.99-0.12-1.395,0.042c-0.976,0.39-1.577-0.085-2.274-0.65c-4.398-3.563-9.297-6.102-14.909-7.135
		c-5.978-1.101-11.725-0.311-17.261,2.14c-3.11,1.377-5.924,3.228-8.56,5.367c-0.244,0.198-0.648,0.262-0.983,0.276
		C112.344,42.056,111.458,42.031,110.383,42.031z"/>
	<path fill="#CACCE0" d="M123.246,103.589c3.403,0.001,6.805-0.001,10.208,0.002c0.927,0.001,1.032,0.106,1.039,1.007
		c0.004,0.493,0.003,0.986,0.001,1.479c-0.004,1.283-0.568,1.866-1.831,1.874c-1.356,0.009-2.712,0.004-4.068,0.004
		c-4.882,0-9.764,0.001-14.646,0c-1.51,0-2.056-0.543-2.06-2.04c-0.001-0.444-0.005-0.888,0.001-1.331
		c0.012-0.837,0.163-0.993,1-0.993C116.342,103.587,119.794,103.589,123.246,103.589z"/>
	<path fill="#CACCE0" d="M147.144,103.588c3.406,0,6.813-0.002,10.219,0.001c0.911,0.001,0.984,0.076,0.989,0.964
		c0.004,0.592,0.009,1.185,0,1.777c-0.016,1.005-0.595,1.589-1.615,1.618c-0.592,0.017-1.185,0.006-1.777,0.006
		c-5.727,0.001-11.453,0.001-17.18,0.001c-1.408,0-1.976-0.555-2.006-1.958c-0.009-0.444-0.009-0.889-0.002-1.333
		c0.015-0.92,0.169-1.075,1.078-1.076C140.282,103.587,143.713,103.589,147.144,103.588z"/>
	<path fill="#CACCE0" d="M156.265,42h3.138c0,0,0.196-0.039-0.784-0.824S154.617,41,156.265,42z"/>
</g>
<g id="Layer_2">
</g>
</svg>
