<?xml version="1.0" encoding="utf-8"?>
<!-- Generator: Adobe Illustrator 17.1.0, SVG Export Plug-In . SVG Version: 6.00 Build 0)  -->
<!DOCTYPE svg PUBLIC "-//W3C//DTD SVG 1.1//EN" "http://www.w3.org/Graphics/SVG/1.1/DTD/svg11.dtd">
<svg version="1.1" id="Layer_1" xmlns="http://www.w3.org/2000/svg" xmlns:xlink="http://www.w3.org/1999/xlink" x="0px" y="0px"
	 viewBox="0 0 140 36" enable-background="new 0 0 140 36" xml:space="preserve">
<path fill-rule="evenodd" clip-rule="evenodd" fill="#8A51C2" d="M13.705,2.595h8.222v8.222c0,1.513-1.228,2.738-2.742,2.738h-8.222
	V5.337C10.963,3.823,12.191,2.595,13.705,2.595z M13.705,24.779h8.222v8.222c0,1.513-1.228,2.738-2.742,2.738h-8.222v-8.219
	C10.963,26.007,12.191,24.779,13.705,24.779z M2.742,13.556h8.222v8.222c0,1.513-1.228,2.742-2.742,2.742H0v-8.222
	C0,14.784,1.228,13.556,2.742,13.556z M24.668,13.819h8.222v8.219c0,1.513-1.228,2.742-2.742,2.742h-8.222v-8.222
	C21.927,15.044,23.155,13.819,24.668,13.819z"/>
<g>
	<path fill-rule="evenodd" clip-rule="evenodd" fill="#535763" d="M122.212,28.386c0-1.284,0.378-2.36,1.132-3.235
		c0.763-0.859,1.715-1.29,2.853-1.29c1.203,0,2.183,0.425,2.937,1.278c0.754,0.871,1.132,1.982,1.132,3.322
		c0,1.343-0.378,2.45-1.132,3.322c-0.754,0.844-1.743,1.265-2.968,1.265c-1.147,0-2.1-0.437-2.853-1.309
		C122.581,30.877,122.212,29.76,122.212,28.386z M120.757,23.036c-1.284,1.433-1.926,3.216-1.926,5.35
		c0,2.186,0.642,4.01,1.926,5.468c1.293,1.433,2.918,2.146,4.878,2.146c1.647,0,3.123-0.636,4.426-1.907v1.498h3.322V13.689h-3.322
		v9.245c-1.324-1.371-2.822-2.056-4.497-2.056C123.632,20.878,122.029,21.597,120.757,23.036z M107.36,26.507
		c0.105-0.412,0.264-0.782,0.468-1.104c0.208-0.323,0.453-0.599,0.741-0.831c0.288-0.229,0.611-0.406,0.965-0.527
		s0.732-0.183,1.132-0.183c1.765,0,2.875,0.881,3.337,2.645H107.36z M105.564,22.95c-1.253,1.399-1.879,3.235-1.879,5.496
		c0,2.283,0.645,4.115,1.938,5.496c1.296,1.374,3.008,2.059,5.145,2.059c0.744,0,1.436-0.078,2.072-0.233
		c0.639-0.158,1.231-0.406,1.78-0.744c0.546-0.338,1.061-0.769,1.541-1.293c0.481-0.524,0.937-1.154,1.368-1.889l-2.794-1.557
		c-0.673,1.058-1.275,1.783-1.808,2.174c-0.537,0.391-1.216,0.589-2.041,0.589c-1.058,0-1.926-0.344-2.602-1.03
		c-0.676-0.698-1.058-1.631-1.144-2.81h10.256l0.016-0.775c0-2.363-0.608-4.209-1.824-5.542c-1.225-1.343-2.89-2.013-4.996-2.013
		C108.504,20.878,106.829,21.566,105.564,22.95z M98.369,13.689v21.902h3.306V13.689H98.369z M84.94,28.433
		c0-1.352,0.378-2.45,1.132-3.294c0.766-0.853,1.755-1.278,2.968-1.278c1.138,0,2.084,0.44,2.838,1.321
		c0.747,0.862,1.116,1.979,1.116,3.353c0,1.293-0.381,2.373-1.144,3.235c-0.754,0.85-1.706,1.278-2.853,1.278
		c-1.216,0-2.196-0.428-2.94-1.278C85.312,30.935,84.94,29.822,84.94,28.433z M81.826,13.689v21.902h3.306v-1.498
		C86.435,35.364,87.914,36,89.57,36c1.96,0,3.582-0.713,4.866-2.146c1.29-1.439,1.938-3.263,1.938-5.468
		c0-2.134-0.642-3.917-1.923-5.35c-1.287-1.439-2.894-2.159-4.823-2.159c-1.678,0-3.173,0.685-4.497,2.056v-9.245H81.826z
		 M38.131,26.507c0.105-0.412,0.264-0.782,0.468-1.104c0.208-0.323,0.453-0.599,0.741-0.831c0.292-0.229,0.611-0.406,0.965-0.527
		c0.35-0.121,0.732-0.183,1.132-0.183c1.762,0,2.875,0.881,3.337,2.645H38.131z M39.055,32.018c-0.676-0.698-1.058-1.631-1.144-2.81
		H48.17l0.012-0.775c0-2.363-0.605-4.209-1.82-5.542c-1.225-1.343-2.894-2.013-4.999-2.013c-2.087,0-3.762,0.689-5.027,2.072
		c-1.253,1.399-1.879,3.235-1.879,5.496c0,2.283,0.645,4.115,1.941,5.496C37.691,35.315,39.403,36,41.54,36
		c0.744,0,1.436-0.078,2.072-0.233c0.639-0.158,1.231-0.406,1.78-0.744s1.061-0.769,1.544-1.293
		c0.478-0.524,0.934-1.154,1.365-1.889l-2.791-1.557c-0.676,1.058-1.278,1.783-1.808,2.174c-0.54,0.391-1.219,0.589-2.044,0.589
		C40.6,33.048,39.731,32.703,39.055,32.018z M59.292,35.591h3.318v-8.777c0-2.016-0.4-3.47-1.203-4.367
		c-0.93-1.045-2.23-1.569-3.895-1.569c-1.451,0-2.754,0.571-3.911,1.718v-1.324h-3.322v14.319h3.322V28.69
		c0-1.78,0.226-3.027,0.679-3.743c0.459-0.723,1.237-1.085,2.335-1.085c1.008,0,1.703,0.273,2.084,0.822
		c0.394,0.54,0.592,1.513,0.592,2.918V35.591z M76.039,28.461c0,1.343-0.375,2.45-1.132,3.322c-0.754,0.844-1.743,1.265-2.968,1.265
		c-1.144,0-2.1-0.437-2.853-1.309c-0.732-0.862-1.101-1.979-1.101-3.353c0-1.284,0.378-2.36,1.132-3.235
		c0.763-0.859,1.715-1.29,2.853-1.29c1.203,0,2.183,0.425,2.937,1.278C75.664,26.011,76.039,27.121,76.039,28.461z M75.834,22.934
		c-1.324-1.371-2.819-2.056-4.485-2.056c-1.929,0-3.539,0.713-4.82,2.143c-1.284,1.433-1.926,3.219-1.926,5.365
		c0,2.186,0.642,4.01,1.926,5.468C67.824,35.287,69.458,36,71.437,36c1.569,0,3.033-0.636,4.398-1.907v1.498h3.322V21.272h-3.322
		V22.934z"/>
</g>
</svg>
