<?xml version="1.0" encoding="utf-8"?>
<!-- Generator: Adobe Illustrator 17.1.0, SVG Export Plug-In . SVG Version: 6.00 Build 0)  -->
<!DOCTYPE svg PUBLIC "-//W3C//DTD SVG 1.1//EN" "http://www.w3.org/Graphics/SVG/1.1/DTD/svg11.dtd">
<svg version="1.1" xmlns="http://www.w3.org/2000/svg" xmlns:xlink="http://www.w3.org/1999/xlink" x="0px" y="0px"
	 viewBox="0 0 360 140" enable-background="new 0 0 360 140" xml:space="preserve">
<g id="Layer_1">
	<g>
		<polygon fill="#CACCE0" points="113.871,29.974 107.279,71.35 91.994,71.35 98.44,29.974 		"/>
		<polygon fill="#CACCE0" points="95.557,29.974 88.962,71.35 73.74,71.35 80.123,29.974 		"/>
		<path fill="#CACCE0" d="M140.968,40.94l1.503-10.395c-1.697-0.767-3.492-1.179-5.43-1.179c-10.474,0-20.017,10.488-20.017,26.786
			c0,10.514,7.321,15.447,14.339,15.447c0,0,2.585,0,4.803-1.106l1.257-8.869c-1.257,0-2.136,0.043-3.011,0.062
			c-4.156,0.088-6.004-2.646-6.004-8.556c0-8.505,5.045-13.043,9.407-13.043C138.932,40.088,139.902,40.293,140.968,40.94"/>
		<path fill="#CACCE0" d="M206.592,58.163c0,0-1.646,11.102-1.646,11.107c-0.069,0.464,2.541,1.577,2.905,1.726
			c1.194,0.489,2.372,0.762,3.652,0.87c2.922,0.247,5.907,0.062,8.715-0.825c3.328-1.051,6.392-3.141,8.236-6.104
			c1.799-2.89,2.338-6.534,1.453-9.821c-0.667-2.479-2.136-4.728-4.108-6.368c-1.935-1.61-3.887-3.288-4.535-5.899
			c-0.195-0.785-0.182-1.643,0.169-2.371c1.509-3.125,7.614-0.41,9.414,1.135l1.36-10.274c-2.666-1.658-7.017-2.218-9.974-2.218
			c-7.326,0-12.929,7.756-12.929,12.927c0,4.194,1.297,6.725,4.063,9.974c1.854,2.152,6.676,4.489,4.552,8.023
			C215.708,63.725,208.756,60.352,206.592,58.163"/>
		<path fill="#CACCE0" d="M197.484,30.227h-14.775l-6.775,41.045l11.209,0.033l2.013-13.431c0.435,0,0.873,0.058,1.308,0.058
			c9.116,0,16.737-3.288,17.362-13.668C208.565,32.077,201.18,30.599,197.484,30.227z M192.125,48.485c-0.192,0-0.534,0-0.922-0.057
			l1.512-8.965h0.333c2.181,0,4.067,0.368,4.067,3.696C197.115,46.485,194.889,48.485,192.125,48.485z"/>
		<path fill="#CACCE0" d="M220.23,100.212l-1.062,2.878c-0.437-0.415-0.881-0.626-1.328-0.626c-0.405,0-0.755,0.14-1.05,0.415
			c-0.297,0.275-0.58,0.784-0.852,1.526v3.512h-2.875v-8.148h2.875v1.965c0.18-0.483,0.5-0.953,0.958-1.414
			c0.459-0.457,0.997-0.688,1.617-0.688c0.324,0,0.607,0.048,0.849,0.143C219.606,99.871,219.896,100.017,220.23,100.212"/>
		<path fill="#CACCE0" d="M211.664,103.96c0-1.024-0.198-1.859-0.595-2.501c-0.398-0.65-0.906-1.114-1.522-1.399
			c-0.617-0.285-1.256-0.428-1.917-0.428c-1.004,0-1.857,0.18-2.561,0.538c-0.704,0.361-1.232,0.856-1.581,1.488
			c-0.348,0.63-0.524,1.346-0.524,2.146c0,0.81,0.175,1.534,0.524,2.174c0.35,0.641,0.878,1.145,1.581,1.519
			c0.704,0.371,1.559,0.559,2.561,0.559c0.929,0,1.692-0.089,2.293-0.268c0.6-0.178,1.113-0.378,1.533-0.597v-1.784
			c-1.176,0.545-2.249,0.817-3.22,0.817c-0.558,0-1.055-0.157-1.492-0.471c-0.437-0.316-0.713-0.723-0.825-1.22h5.744V103.96z
			 M205.839,103.116c0-0.511,0.149-0.923,0.446-1.237c0.3-0.32,0.688-0.476,1.172-0.476c0.486,0,0.859,0.154,1.121,0.467
			c0.26,0.31,0.391,0.726,0.391,1.246H205.839z"/>
		<path fill="#CACCE0" d="M198.614,96.836v3.419c-0.258-0.181-0.551-0.328-0.882-0.446c-0.331-0.119-0.766-0.178-1.298-0.178
			c-0.861,0-1.587,0.205-2.177,0.609c-0.595,0.405-1.029,0.933-1.308,1.58c-0.279,0.646-0.416,1.341-0.416,2.08
			c0,0.944,0.184,1.726,0.552,2.347c0.37,0.621,0.839,1.077,1.41,1.372c0.572,0.293,1.154,0.437,1.747,0.437
			c0.599,0,1.067-0.081,1.406-0.245c0.34-0.166,0.663-0.374,0.967-0.627v0.735h2.874V96.836H198.614z M198.614,105.335
			c-0.198,0.164-0.406,0.302-0.62,0.411c-0.212,0.11-0.493,0.164-0.842,0.164c-0.422,0-0.793-0.163-1.111-0.493
			c-0.32-0.327-0.477-0.854-0.477-1.574c0-0.661,0.151-1.183,0.453-1.567c0.303-0.386,0.681-0.579,1.135-0.579
			c0.258,0,0.481,0.044,0.672,0.122c0.187,0.081,0.453,0.214,0.79,0.401V105.335z"/>
		<rect x="188.011" y="99.769" fill="#CACCE0" width="2.872" height="8.148"/>
		<path fill="#CACCE0" d="M190.293,97.039c-0.238-0.239-0.522-0.361-0.849-0.361c-0.335,0-0.62,0.122-0.852,0.361
			c-0.234,0.242-0.351,0.525-0.351,0.856c0,0.224,0.054,0.428,0.16,0.61c0.105,0.184,0.251,0.328,0.435,0.435
			c0.183,0.109,0.384,0.161,0.609,0.161c0.327,0,0.612-0.116,0.849-0.353c0.239-0.234,0.36-0.519,0.36-0.854
			C190.652,97.564,190.532,97.281,190.293,97.039"/>
		<path fill="#CACCE0" d="M186.455,103.96c0-1.024-0.201-1.859-0.596-2.501c-0.398-0.65-0.905-1.114-1.522-1.399
			c-0.616-0.285-1.254-0.428-1.917-0.428c-1.004,0-1.857,0.18-2.561,0.538c-0.704,0.361-1.232,0.856-1.581,1.488
			c-0.348,0.63-0.522,1.346-0.522,2.146c0,0.81,0.174,1.534,0.522,2.174c0.35,0.641,0.878,1.145,1.581,1.519
			c0.704,0.371,1.557,0.559,2.561,0.559c0.93,0,1.693-0.089,2.293-0.268c0.6-0.178,1.113-0.378,1.532-0.597v-1.784
			c-1.174,0.545-2.247,0.817-3.22,0.817c-0.556,0-1.053-0.157-1.491-0.471c-0.439-0.316-0.713-0.723-0.825-1.22h5.746V103.96z
			 M180.629,103.116c0-0.511,0.149-0.923,0.447-1.237c0.297-0.32,0.685-0.476,1.171-0.476c0.487,0,0.861,0.154,1.123,0.467
			c0.259,0.31,0.389,0.726,0.389,1.246H180.629z"/>
		<path fill="#CACCE0" d="M176.37,103.136c0-2.336-0.975-3.505-2.923-3.505c-0.559,0-1.067,0.099-1.522,0.293
			c-0.456,0.195-0.909,0.534-1.362,1.021v-1.175h-2.872v8.148h2.872v-4.782c0.103-0.143,0.201-0.279,0.297-0.406
			c0.095-0.127,0.212-0.265,0.355-0.402c0.14-0.139,0.3-0.251,0.478-0.338c0.178-0.089,0.385-0.132,0.62-0.132
			c0.494,0,0.817,0.164,0.963,0.497c0.147,0.336,0.221,0.726,0.221,1.175v0.167v4.221h2.872V103.136z"/>
		<path fill="#CACCE0" d="M165.952,107.918h-2.872v-4.221c0-0.033,0-0.064,0.003-0.093c0.003-0.027,0.004-0.091,0.004-0.187
			c0-0.391-0.082-0.746-0.248-1.07c-0.166-0.328-0.48-0.488-0.943-0.488c-0.362,0-0.682,0.122-0.958,0.362
			c-0.277,0.243-0.542,0.549-0.791,0.916v4.782h-2.874V96.836h2.874v4.108c0.473-0.505,0.941-0.852,1.404-1.038
			c0.464-0.181,0.956-0.276,1.478-0.276c1.949,0,2.923,1.099,2.923,3.287V107.918z"/>
		<path fill="#CACCE0" d="M155.863,105.277c-0.527,0.159-0.975,0.283-1.343,0.367c-0.367,0.088-0.695,0.127-0.982,0.127
			c-0.304,0-0.607-0.068-0.912-0.205c-0.304-0.142-0.555-0.358-0.752-0.653c-0.198-0.299-0.297-0.661-0.297-1.094
			c0-0.65,0.2-1.13,0.596-1.44c0.398-0.311,0.852-0.464,1.365-0.464c0.528,0,1.26,0.149,2.197,0.446v-2.256
			c-0.388-0.146-0.772-0.259-1.149-0.345c-0.379-0.084-0.871-0.129-1.472-0.129c-0.9,0-1.659,0.15-2.275,0.449
			s-1.086,0.668-1.411,1.111c-0.326,0.442-0.553,0.902-0.684,1.373c-0.132,0.474-0.197,0.893-0.197,1.256s0.065,0.781,0.194,1.254
			c0.126,0.474,0.357,0.941,0.691,1.396c0.334,0.457,0.807,0.832,1.423,1.135c0.616,0.302,1.369,0.45,2.259,0.45
			c0.395,0,0.759-0.024,1.091-0.076c0.334-0.048,0.633-0.113,0.899-0.188c0.268-0.079,0.52-0.163,0.76-0.255V105.277z"/>
		<path fill="#CACCE0" d="M147.089,104.7c0,0.691-0.177,1.29-0.531,1.792c-0.353,0.504-0.847,0.892-1.479,1.162
			c-0.633,0.269-1.359,0.401-2.177,0.401c-0.228,0-0.51-0.013-0.842-0.044c-0.331-0.03-0.773-0.108-1.324-0.241
			c-0.551-0.133-1.124-0.331-1.719-0.589v-2.715c0.556,0.347,1.104,0.634,1.642,0.864c0.539,0.231,1.115,0.344,1.731,0.344
			c0.569,0,0.934-0.095,1.101-0.283c0.168-0.19,0.252-0.365,0.252-0.531c0-0.3-0.143-0.551-0.43-0.757
			c-0.286-0.205-0.702-0.418-1.249-0.636c-0.606-0.255-1.135-0.535-1.591-0.837c-0.456-0.303-0.83-0.678-1.12-1.131
			c-0.289-0.456-0.433-0.992-0.433-1.608c0-0.6,0.147-1.14,0.44-1.622c0.29-0.481,0.738-0.869,1.339-1.156
			c0.6-0.287,1.333-0.433,2.2-0.433c0.617,0,1.188,0.062,1.711,0.18c0.522,0.119,0.956,0.256,1.295,0.405
			c0.34,0.151,0.575,0.266,0.702,0.354v2.599c-0.453-0.323-0.957-0.616-1.513-0.871c-0.558-0.255-1.151-0.384-1.785-0.384
			c-0.415,0-0.715,0.082-0.902,0.241c-0.187,0.16-0.279,0.358-0.279,0.592c0,0.218,0.092,0.406,0.277,0.568
			c0.185,0.16,0.517,0.354,0.995,0.585c0.852,0.398,1.533,0.76,2.046,1.08c0.512,0.321,0.915,0.689,1.205,1.108
			C146.944,103.553,147.089,104.076,147.089,104.7"/>
		<path fill="#CACCE0" d="M129.186,110.055c0.279-0.178,0.518-0.378,0.712-0.597c0.197-0.219,0.358-0.444,0.483-0.678
			c0.126-0.238,0.235-0.464,0.32-0.679l2.915-7.631c0.011-0.033-0.02-0.082-0.091-0.149c-0.071-0.067-0.164-0.137-0.279-0.214
			c-0.113-0.075-0.246-0.14-0.399-0.194c-0.153-0.057-0.311-0.085-0.476-0.085c-0.251,0-0.491,0.079-0.721,0.241
			c-0.229,0.156-0.415,0.467-0.556,0.924l-1.539,4.553l-1.736-4.571c-0.153-0.457-0.338-0.762-0.556-0.917
			c-0.218-0.151-0.463-0.229-0.738-0.229c-0.174,0-0.341,0.031-0.498,0.092c-0.159,0.059-0.296,0.125-0.411,0.197
			c-0.115,0.072-0.204,0.146-0.27,0.221c-0.065,0.076-0.092,0.132-0.079,0.163l2.749,6.386c0.076,0.166,0.174,0.283,0.294,0.361
			c0.12,0.078,0.273,0.127,0.459,0.147c0.011,0.045,0,0.11-0.033,0.197c-0.021,0.067-0.067,0.15-0.132,0.253
			c-0.065,0.103-0.159,0.226-0.279,0.369c-0.218,0.229-0.481,0.357-0.793,0.385c-0.313,0.028-0.619,0.013-0.926-0.04
			c-0.35-0.068-0.713-0.183-1.097-0.345c-0.273,0.304-0.425,0.582-0.459,0.837c-0.031,0.251,0.016,0.467,0.14,0.655
			c0.125,0.184,0.313,0.338,0.565,0.467c0.252,0.122,0.521,0.215,0.81,0.278c0.29,0.058,0.582,0.091,0.876,0.098
			c0.293,0.006,0.545-0.02,0.753-0.074C128.578,110.376,128.908,110.235,129.186,110.055"/>
		<path fill="#CACCE0" d="M124.627,102.197c-0.186-0.517-0.44-0.957-0.769-1.319c-0.328-0.357-0.718-0.636-1.171-0.834
			c-0.454-0.195-0.947-0.294-1.484-0.294c-0.569,0-1.07,0.118-1.508,0.351c-0.436,0.236-0.797,0.556-1.081,0.961l-0.006-2.671
			c0-0.369-0.044-0.677-0.13-0.914c-0.088-0.242-0.2-0.429-0.337-0.566c-0.134-0.137-0.289-0.231-0.456-0.287
			c-0.17-0.055-0.341-0.081-0.514-0.081c-0.231,0-0.43,0.034-0.606,0.099c-0.174,0.065-0.26,0.12-0.26,0.163v10.078
			c0,0.426,0.093,0.715,0.286,0.866c0.19,0.153,0.443,0.229,0.76,0.229h0.243c0.294,0,0.537-0.079,0.728-0.234
			c0.19-0.159,0.286-0.443,0.286-0.854v-0.13c0.218,0.381,0.544,0.705,0.975,0.972c0.432,0.269,0.96,0.402,1.583,0.402
			c0.558,0,1.066-0.103,1.525-0.31c0.459-0.21,0.854-0.495,1.182-0.861c0.327-0.365,0.582-0.807,0.763-1.325
			c0.18-0.521,0.269-1.09,0.269-1.71C124.906,103.291,124.814,102.717,124.627,102.197z M122.116,105.65
			c-0.377,0.433-0.879,0.646-1.503,0.646c-0.285,0-0.546-0.047-0.788-0.137c-0.241-0.093-0.45-0.222-0.631-0.393
			c-0.183-0.17-0.324-0.371-0.429-0.604c-0.102-0.236-0.154-0.496-0.154-0.78v-1.472c0.174-0.405,0.433-0.723,0.771-0.958
			c0.34-0.234,0.756-0.351,1.25-0.351c0.623,0,1.121,0.214,1.493,0.639c0.372,0.425,0.559,0.998,0.559,1.717
			C122.684,104.653,122.493,105.219,122.116,105.65z"/>
		<path fill="#CACCE0" d="M284.115,30.319c-1.468,0-2.718,1.196-2.718,2.814c0,1.636,1.25,2.835,2.718,2.835
			c1.458,0,2.705-1.199,2.705-2.835C286.82,31.515,285.573,30.319,284.115,30.319z M284.115,35.494
			c-1.223,0-2.179-1.001-2.179-2.361c0-1.338,0.956-2.344,2.179-2.344c1.209,0,2.167,1.006,2.167,2.344
			C286.282,34.493,285.323,35.494,284.115,35.494z"/>
		<path fill="#CACCE0" d="M286.77,106.482v1.212c-0.621,0.229-1.227,0.343-1.823,0.343c-0.978,0-1.758-0.289-2.341-0.869
			c-0.582-0.579-0.873-1.356-0.873-2.327c0-0.981,0.285-1.774,0.854-2.377c0.569-0.602,1.317-0.903,2.247-0.903
			c0.32,0,0.612,0.033,0.868,0.091c0.258,0.062,0.573,0.178,0.953,0.345v1.315c-0.631-0.405-1.216-0.61-1.754-0.61
			c-0.563,0-1.025,0.198-1.384,0.592c-0.362,0.392-0.542,0.895-0.542,1.506c0,0.641,0.194,1.149,0.583,1.529
			c0.389,0.378,0.913,0.566,1.573,0.566C285.605,106.894,286.152,106.757,286.77,106.482"/>
		<path fill="#CACCE0" d="M276.574,99.302c-0.144,0.144-0.218,0.313-0.218,0.504c0,0.194,0.074,0.364,0.218,0.511
			c0.144,0.146,0.311,0.219,0.501,0.219c0.204,0,0.377-0.072,0.522-0.217c0.143-0.144,0.217-0.314,0.217-0.514
			c0-0.204-0.074-0.375-0.217-0.514c-0.146-0.142-0.319-0.212-0.522-0.212C276.885,99.08,276.718,99.154,276.574,99.302"/>
		<rect x="276.455" y="101.697" fill="#CACCE0" width="1.24" height="6.22"/>
		<path fill="#CACCE0" d="M269.615,101.697v1.416l0.067-0.109c0.6-0.961,1.199-1.444,1.796-1.444c0.469,0,0.956,0.236,1.462,0.706
			l-0.653,1.086c-0.43-0.406-0.828-0.61-1.196-0.61c-0.399,0-0.746,0.19-1.039,0.57c-0.292,0.378-0.437,0.827-0.437,1.348v3.257
			h-1.24v-6.22H269.615z"/>
		<path fill="#CACCE0" d="M260.184,102.8h1.08v2.768c0,0.565,0.027,0.947,0.079,1.149c0.052,0.202,0.115,0.364,0.191,0.488
			c0.076,0.123,0.173,0.236,0.29,0.335c0.372,0.33,0.838,0.496,1.401,0.496c0.556,0,1.07-0.132,1.542-0.396v-1.138
			c-0.487,0.289-0.948,0.43-1.384,0.43c-0.583,0-0.878-0.357-0.878-1.072V102.8h1.949v-1.103h-1.949v-1.298l-2.322,2.281V102.8z"/>
		<path fill="#CACCE0" d="M257.031,106.482v1.212c-0.62,0.229-1.229,0.343-1.823,0.343c-0.978,0-1.76-0.289-2.343-0.869
			c-0.58-0.579-0.873-1.356-0.873-2.327c0-0.981,0.285-1.774,0.855-2.377c0.568-0.602,1.315-0.903,2.247-0.903
			c0.32,0,0.61,0.033,0.866,0.091c0.258,0.062,0.575,0.178,0.954,0.345v1.315c-0.631-0.405-1.216-0.61-1.754-0.61
			c-0.563,0-1.025,0.198-1.386,0.592c-0.361,0.392-0.542,0.895-0.542,1.506c0,0.641,0.195,1.149,0.583,1.529
			c0.389,0.378,0.913,0.566,1.574,0.566C255.865,106.894,256.411,106.757,257.031,106.482"/>
		<path fill="#CACCE0" d="M248.392,104.752c0-0.973-0.246-1.747-0.739-2.324c-0.49-0.578-1.151-0.868-1.975-0.868
			c-0.858,0-1.554,0.297-2.091,0.893c-0.536,0.593-0.804,1.366-0.804,2.315c0,0.634,0.125,1.191,0.379,1.67
			c0.255,0.483,0.596,0.866,1.018,1.152c0.425,0.283,0.977,0.425,1.66,0.425c0.501,0,0.937-0.054,1.308-0.159
			c0.372-0.109,0.747-0.285,1.125-0.536v-1.193c-0.682,0.498-1.427,0.747-2.238,0.747c-0.579,0-1.053-0.177-1.416-0.532
			c-0.368-0.355-0.566-0.834-0.597-1.435h4.369V104.752z M244.042,104.178c0.085-0.497,0.27-0.879,0.552-1.151
			c0.282-0.268,0.643-0.403,1.084-0.403c0.443,0,0.793,0.136,1.055,0.403c0.26,0.272,0.408,0.654,0.439,1.151H244.042z"/>
		<rect x="116.962" y="84.001" fill="#CACCE0" width="169.827" height="0.905"/>
		<rect x="237.445" y="98.47" fill="#CACCE0" width="1.242" height="9.448"/>
		<polygon fill="#CACCE0" points="228.024,98.471 233.377,98.471 233.377,99.67 229.382,99.67 229.382,102.564 233.259,102.564 
			233.259,103.784 229.382,103.784 229.382,106.717 233.514,106.717 233.514,107.918 228.024,107.918 		"/>
		<path fill="#CACCE0" d="M255.848,30.599H242.83L227.7,71.602l10.785-0.003l2.215-5.91h7.019l0.024,5.542h10.948L255.848,30.599z
			 M243.584,57.049l3.395-13.155l0.076,13.152L243.584,57.049z"/>
		<polygon fill="#CACCE0" points="260.426,71.307 280.972,71.232 282.441,61.994 273.21,61.994 278.305,30.599 267.276,30.599 		"/>
		<polygon fill="#CACCE0" points="167.933,29.857 179.754,29.857 172.735,71.304 161.652,71.304 		"/>
		<polygon fill="#CACCE0" points="139.047,71.229 159.437,71.229 161.283,60.887 152.42,60.887 157.222,30.082 145.929,30.082 		"/>
		<path fill="#CACCE0" d="M284.546,33.337c0.454-0.061,0.8-0.316,0.8-0.9c0-0.64-0.36-0.922-1.09-0.922h-1.175v3.254h0.467v-1.41
			h0.537l0.814,1.41h0.527L284.546,33.337z M283.548,32.94V31.93h0.637c0.327,0,0.674,0.076,0.674,0.477
			c0,0.504-0.358,0.534-0.75,0.534H283.548z"/>
	</g>
</g>
<g id="Layer_2">
</g>
</svg>
