<?xml version="1.0" encoding="utf-8"?>
<!-- Generator: Adobe Illustrator 17.1.0, SVG Export Plug-In . SVG Version: 6.00 Build 0)  -->
<!DOCTYPE svg PUBLIC "-//W3C//DTD SVG 1.1//EN" "http://www.w3.org/Graphics/SVG/1.1/DTD/svg11.dtd">
<svg version="1.1" id="Layer_1" xmlns="http://www.w3.org/2000/svg" xmlns:xlink="http://www.w3.org/1999/xlink" x="0px" y="0px"
	 viewBox="0 0 140 36" enable-background="new 0 0 140 36" xml:space="preserve">
<g>
	<path fill-rule="evenodd" clip-rule="evenodd" fill="#8A51C2" d="M13.647,1.737h8.187v8.187c0,1.507-1.223,2.727-2.73,2.727h-8.187
		V4.467C10.917,2.96,12.14,1.737,13.647,1.737z M13.647,23.827h8.187v8.187c0,1.507-1.223,2.727-2.73,2.727h-8.187v-8.184
		C10.917,25.05,12.14,23.827,13.647,23.827z M2.73,12.65h8.187v8.187c0,1.507-1.223,2.73-2.73,2.73H0V15.38
		C0,13.873,1.223,12.65,2.73,12.65z M24.564,12.913h8.187v8.184c0,1.507-1.223,2.73-2.73,2.73h-8.187V15.64
		C21.834,14.133,23.057,12.913,24.564,12.913z"/>
	<path fill-rule="evenodd" clip-rule="evenodd" fill="#535763" d="M122.312,27.418c0-1.279,0.377-2.35,1.127-3.221
		c0.76-0.855,1.708-1.285,2.841-1.285c1.198,0,2.174,0.423,2.925,1.272c0.75,0.868,1.127,1.973,1.127,3.307
		c0,1.337-0.377,2.44-1.127,3.307c-0.75,0.84-1.736,1.26-2.956,1.26c-1.143,0-2.091-0.435-2.841-1.303
		C122.68,29.898,122.312,28.786,122.312,27.418z M120.864,22.091c-1.279,1.427-1.918,3.203-1.918,5.327
		c0,2.177,0.639,3.993,1.918,5.445C122.152,34.29,123.77,35,125.722,35c1.64,0,3.11-0.633,4.407-1.899v1.492h3.307V12.783h-3.307
		v9.206c-1.319-1.365-2.81-2.047-4.478-2.047C123.727,19.942,122.13,20.658,120.864,22.091z M106.905,25.547
		c0.105-0.411,0.263-0.778,0.466-1.099c0.207-0.321,0.451-0.596,0.738-0.828c0.287-0.229,0.608-0.405,0.96-0.525
		c0.352-0.12,0.729-0.182,1.127-0.182c1.757,0,2.863,0.877,3.323,2.634H106.905z M105.117,22.005
		c-1.248,1.393-1.871,3.221-1.871,5.472c0,2.273,0.642,4.098,1.93,5.472c1.291,1.368,2.995,2.051,5.123,2.051
		c0.741,0,1.43-0.077,2.063-0.232c0.636-0.158,1.226-0.405,1.773-0.741c0.544-0.337,1.056-0.766,1.535-1.288
		c0.479-0.522,0.933-1.149,1.362-1.881l-2.782-1.55c-0.67,1.053-1.269,1.776-1.8,2.165c-0.534,0.389-1.211,0.587-2.032,0.587
		c-1.053,0-1.918-0.343-2.591-1.025c-0.673-0.695-1.053-1.624-1.14-2.798h10.213l0.015-0.772c0-2.353-0.605-4.191-1.816-5.519
		c-1.22-1.337-2.878-2.004-4.975-2.004C108.045,19.942,106.377,20.627,105.117,22.005z M97.952,12.783v21.809h3.292V12.783H97.952z
		 M84.58,27.465c0-1.346,0.377-2.44,1.127-3.28c0.763-0.849,1.748-1.272,2.955-1.272c1.133,0,2.075,0.438,2.826,1.316
		c0.744,0.859,1.112,1.97,1.112,3.338c0,1.288-0.38,2.362-1.14,3.221c-0.751,0.846-1.699,1.272-2.841,1.272
		c-1.211,0-2.186-0.426-2.928-1.272C84.951,29.957,84.58,28.848,84.58,27.465z M81.48,12.783v21.809h3.292v-1.492
		C86.069,34.367,87.542,35,89.191,35c1.952,0,3.567-0.71,4.845-2.137c1.285-1.433,1.93-3.249,1.93-5.445
		c0-2.125-0.639-3.9-1.915-5.327c-1.282-1.433-2.881-2.149-4.802-2.149c-1.671,0-3.159,0.682-4.478,2.047v-9.206H81.48z
		 M37.97,25.547c0.105-0.411,0.263-0.778,0.466-1.099c0.207-0.321,0.451-0.596,0.738-0.828c0.29-0.229,0.608-0.405,0.96-0.525
		c0.349-0.12,0.729-0.182,1.127-0.182c1.754,0,2.863,0.877,3.323,2.634H37.97z M38.89,31.035c-0.673-0.695-1.053-1.624-1.14-2.798
		h10.216l0.012-0.772c0-2.353-0.602-4.191-1.813-5.519c-1.22-1.337-2.881-2.004-4.978-2.004c-2.078,0-3.746,0.686-5.006,2.063
		c-1.248,1.393-1.871,3.221-1.871,5.472c0,2.273,0.642,4.098,1.933,5.472C37.531,34.317,39.236,35,41.364,35
		c0.741,0,1.43-0.077,2.063-0.232c0.636-0.158,1.226-0.405,1.773-0.741c0.547-0.337,1.056-0.766,1.538-1.288
		c0.476-0.522,0.929-1.149,1.359-1.881l-2.779-1.55c-0.673,1.053-1.272,1.776-1.8,2.165c-0.537,0.389-1.214,0.587-2.035,0.587
		C40.428,32.06,39.563,31.717,38.89,31.035z M59.041,34.592h3.304v-8.74c0-2.007-0.398-3.456-1.198-4.348
		c-0.926-1.041-2.22-1.563-3.879-1.563c-1.445,0-2.742,0.568-3.894,1.711v-1.319h-3.307v14.258h3.307v-6.871
		c0-1.773,0.225-3.014,0.676-3.727c0.457-0.72,1.232-1.081,2.325-1.081c1.004,0,1.695,0.272,2.075,0.818
		c0.392,0.537,0.59,1.507,0.59,2.906V34.592z M75.717,27.493c0,1.337-0.374,2.44-1.127,3.307c-0.75,0.84-1.736,1.26-2.956,1.26
		c-1.14,0-2.091-0.435-2.841-1.303c-0.729-0.858-1.096-1.97-1.096-3.338c0-1.279,0.377-2.35,1.127-3.221
		c0.76-0.855,1.708-1.285,2.841-1.285c1.198,0,2.174,0.423,2.925,1.272C75.344,25.053,75.717,26.158,75.717,27.493z M75.513,21.989
		c-1.319-1.365-2.807-2.047-4.466-2.047c-1.921,0-3.524,0.71-4.799,2.134c-1.278,1.427-1.918,3.206-1.918,5.343
		c0,2.177,0.639,3.993,1.918,5.445C67.536,34.29,69.164,35,71.134,35c1.563,0,3.02-0.633,4.379-1.899v1.492h3.307V20.334h-3.307
		V21.989z"/>
</g>
</svg>
