<?xml version="1.0" encoding="utf-8"?>
<!-- Generator: Adobe Illustrator 17.1.0, SVG Export Plug-In . SVG Version: 6.00 Build 0)  -->
<!DOCTYPE svg PUBLIC "-//W3C//DTD SVG 1.1//EN" "http://www.w3.org/Graphics/SVG/1.1/DTD/svg11.dtd">
<svg version="1.1" xmlns="http://www.w3.org/2000/svg" xmlns:xlink="http://www.w3.org/1999/xlink" x="0px" y="0px"
	 viewBox="0 0 360 140" enable-background="new 0 0 360 140" xml:space="preserve">
<g id="Layer_1">
	<g>
		<path fill="#CACCE0" d="M141.806,99.237l0.466,0.197l0.466-0.197c17.516-7.414,26.398-20.948,26.398-40.22
			c0-0.002-0.007-24.544-0.007-24.544h-53.721v24.544C115.408,78.293,124.29,91.826,141.806,99.237z M146.842,42.854l1.384-0.147
			l0.818-1.124l0.817,1.124l1.381,0.144l-0.559,1.27l0.559,1.268l-1.381,0.149l-0.817,1.118l-0.818-1.118l-1.384-0.147l0.567-1.27
			L146.842,42.854z M146.129,47.978l0.772,1.379l1.551,0.307l-1.076,1.161l0.194,1.574l-1.441-0.666l-1.438,0.666l0.189-1.574
			l-1.076-1.161l1.551-0.307L146.129,47.978z M140.047,36.738l1.501,0.131l0.842-1.257l0.837,1.257l1.499-0.131l-0.457,1.442
			l1.032,1.097l-1.401,0.532l-0.214,1.499l-1.297-0.771l-1.302,0.771l-0.21-1.499l-1.411-0.532l1.04-1.097L140.047,36.738z
			 M141.569,49.296l-0.582,2.383l2.093,1.269l-2.093,1.274l0.582,2.378l-2.377-0.577l-1.275,2.089l-1.273-2.089L134.27,56.6
			l0.574-2.378l-2.089-1.274l2.089-1.269l-0.574-2.383l2.374,0.581l1.273-2.091l1.275,2.091L141.569,49.296z M131.93,41.241
			l1.86,0.157l1.033-1.547l1.034,1.547l1.856-0.157l-0.569,1.773l1.283,1.354l-1.744,0.664l-0.26,1.849l-1.6-0.949l-1.603,0.949
			l-0.264-1.849l-1.744-0.664l1.282-1.35L131.93,41.241z M166.742,59.391c-0.113,17.845-8.349,30.432-24.47,37.432
			c-16.12-6.998-24.357-19.586-24.47-37.432H166.742z"/>
		<path fill="#CACCE0" d="M126.319,102.254c-0.03-0.007-0.06-0.016-0.091-0.021l-0.254,0.843c0.019,0.005,0.035,0.01,0.055,0.017
			c0.336,0.101,0.541,0.017,0.634-0.289C126.74,102.545,126.622,102.347,126.319,102.254z"/>
		<path fill="#CACCE0" d="M160.192,92.398l-0.16-0.032l2.269,5.069c-4.52,2.232-10.867,3.91-19.41,3.91h-0.3
			c-8.597,0-14.962-1.7-19.49-3.956l2.096-4.867l0.11-0.197c-3.228-2.888-8.384-5.213-14.678-6.579l0.012,8.032
			c3.003,1.005,4.944,1.754,6.598,3.249l-0.75,1.496l-1.52,2.968h0.03l-0.281,0.561c5.27,4.714,15.834,8.072,27.874,8.072h0.3
			c12.04,0,22.59-3.357,27.86-8.072l-2.517-5.038c1.646-1.486,3.585-2.235,6.575-3.235l0.01-8.032
			c-6.279,1.365-11.443,3.69-14.667,6.579L160.192,92.398z M120.91,100.59c-0.019,0.036-0.044,0.071-0.064,0.105l-0.719-0.388
			c0.007-0.013,0.014-0.027,0.022-0.041c0.161-0.301,0.149-0.507-0.028-0.603c-0.147-0.079-0.31-0.027-0.41,0.161
			c-0.136,0.252,0.021,0.453,0.213,0.805c0.175,0.318,0.331,0.567,0.353,0.843c0.014,0.204-0.04,0.433-0.171,0.675
			c-0.372,0.688-0.947,0.872-1.607,0.514c-0.695-0.375-0.853-0.918-0.474-1.62c0.033-0.062,0.071-0.122,0.111-0.182l0.735,0.396
			c-0.022,0.036-0.039,0.068-0.056,0.1c-0.193,0.356-0.209,0.553,0.013,0.671c0.17,0.093,0.34,0.026,0.451-0.18
			c0.153-0.281,0.01-0.465-0.155-0.778c-0.186-0.354-0.331-0.62-0.36-0.859c-0.025-0.227,0.028-0.469,0.162-0.716
			c0.323-0.6,0.887-0.761,1.493-0.432C121.083,99.418,121.252,99.956,120.91,100.59z M123.591,103.311
			c-0.148,0.371-0.281,0.669-0.516,0.864c-0.312,0.259-0.69,0.27-1.198,0.064c-0.471-0.19-0.717-0.44-0.772-0.831
			c-0.048-0.355,0.114-0.782,0.355-1.378l0.785-1.944l0.845,0.341l-0.912,2.264c-0.203,0.499-0.297,0.761-0.004,0.879
			c0.278,0.113,0.384-0.134,0.57-0.595c0.006-0.015,0.014-0.035,0.019-0.047l0.912-2.265l0.847,0.341l-0.821,2.034
			C123.663,103.134,123.628,103.225,123.591,103.311z M127.535,102.979c-0.097,0.321-0.289,0.524-0.643,0.676
			c0.281,0.27,0.363,0.61,0.239,1.016c-0.103,0.342-0.319,0.612-0.58,0.756c-0.312,0.175-0.639,0.109-1.1-0.03l-1.036-0.312
			l1.126-3.732l0.937,0.283c0.392,0.121,0.689,0.214,0.887,0.432C127.587,102.308,127.644,102.618,127.535,102.979z
			 M132.948,104.494c-0.003,0.015-0.005,0.027-0.006,0.037l-0.873-0.161c0.087-0.496,0.039-0.725-0.242-0.777
			c-0.373-0.069-0.445,0.299-0.599,1.144c-0.004,0.024-0.007,0.045-0.013,0.069c-0.165,0.898-0.236,1.291,0.14,1.361
			c0.296,0.054,0.4-0.144,0.489-0.622c0.009-0.052,0.019-0.108,0.03-0.168l0.882,0.162c-0.006,0.068-0.018,0.128-0.031,0.194
			c-0.17,0.928-0.651,1.308-1.5,1.152c-0.501-0.091-0.822-0.319-0.979-0.695c-0.136-0.327-0.07-0.825,0.062-1.549
			c0.133-0.724,0.25-1.212,0.491-1.467c0.275-0.293,0.657-0.396,1.146-0.307C132.787,103.021,133.118,103.568,132.948,104.494z
			 M136.572,104.651c-0.053,0.442-0.237,0.718-0.588,0.873c0.399,0.237,0.374,0.494,0.336,0.95
			c-0.044,0.499-0.122,0.831,0.097,1.054l-1.06-0.126c-0.027-0.17-0.026-0.349-0.002-0.543c0.02-0.171,0.044-0.297,0.057-0.396
			c0.053-0.448-0.014-0.628-0.355-0.667l-0.184-0.023l-0.183,1.549l-0.896-0.107l0.46-3.868l1.018,0.12
			c0.514,0.062,0.859,0.122,1.067,0.337C136.544,104.016,136.615,104.291,136.572,104.651z M140.079,106.066
			c-0.004,0.103-0.011,0.199-0.018,0.293c-0.023,0.398-0.053,0.724-0.214,0.984c-0.213,0.346-0.568,0.474-1.115,0.444
			c-0.508-0.031-0.82-0.191-0.996-0.543c-0.159-0.323-0.141-0.776-0.103-1.419l0.125-2.093l0.909,0.054l-0.145,2.438
			c-0.031,0.535-0.037,0.817,0.279,0.834c0.3,0.018,0.321-0.25,0.35-0.746c0.002-0.016,0.003-0.038,0.003-0.052l0.145-2.435
			l0.91,0.054L140.079,106.066z M143.822,105.281l-0.885-0.002c-0.005-0.503-0.091-0.72-0.376-0.723
			c-0.378,0-0.385,0.373-0.388,1.232c0,0.027,0,0.049,0,0.074c-0.003,0.911-0.005,1.309,0.378,1.312c0.301,0,0.368-0.21,0.371-0.699
			c0-0.051,0-0.108,0-0.17l0.897,0.002c0.005,0.067,0.005,0.13,0.002,0.198c-0.002,0.941-0.406,1.402-1.272,1.399
			c-0.508-0.003-0.865-0.17-1.087-0.512c-0.19-0.296-0.214-0.797-0.213-1.535c0.003-0.736,0.031-1.237,0.225-1.533
			c0.217-0.334,0.576-0.504,1.073-0.504c0.856,0.003,1.278,0.481,1.275,1.423C143.822,105.26,143.822,105.271,143.822,105.281z
			 M145.112,107.778l-0.198-3.891l2.115-0.108l0.039,0.755l-1.209,0.063l0.034,0.712l1.119-0.057l0.04,0.782l-1.118,0.057
			l0.044,0.849l1.211-0.062l0.041,0.791L145.112,107.778z M150.516,107.354l-0.531-3.859l0.904-0.125l0.423,3.08l1.084-0.149
			l0.107,0.78L150.516,107.354z M155.784,106.037c-0.116,0.389-0.427,0.604-0.966,0.712c-0.497,0.101-0.839,0.027-1.102-0.27
			c-0.234-0.268-0.333-0.714-0.462-1.345l-0.415-2.055l0.895-0.183l0.483,2.394c0.106,0.527,0.172,0.8,0.481,0.737
			c0.296-0.058,0.247-0.326,0.147-0.811c-0.002-0.018-0.005-0.036-0.009-0.052l-0.482-2.392l0.892-0.181l0.435,2.149
			c0.021,0.1,0.04,0.198,0.059,0.289C155.818,105.421,155.874,105.744,155.784,106.037z M159.922,105.345l-0.787-2.906l0.27,3.059
			l-0.666,0.199l-1.451-2.708l0.935,2.863l-0.825,0.245l-1.114-3.732l1.221-0.365l0.806,1.489c0.028,0.057,0.152,0.339,0.38,0.838
			c-0.078-0.55-0.126-0.859-0.131-0.93l-0.142-1.67l1.21-0.362l1.115,3.734L159.922,105.345z M164.233,99.277l1.866,1.696
			c-0.439-0.637-0.766-1.136-0.98-1.504l-0.309-0.527l0.704-0.41l1.963,3.365l-0.825,0.481l-1.905-1.754
			c0.373,0.507,0.708,1.011,1.004,1.517l0.332,0.568l-0.708,0.413l-1.962-3.365L164.233,99.277z M162.841,100.863l-1.119,0.471
			l0.28,0.659l1.031-0.436l0.302,0.72l-1.031,0.435l0.33,0.783l1.119-0.47l0.306,0.73l-1.952,0.823l-1.512-3.59l1.951-0.823
			L162.841,100.863z"/>
		<path fill="#CACCE0" d="M125.837,103.739c-0.02-0.007-0.039-0.013-0.06-0.018l-0.291,0.969c0.023,0.005,0.05,0.015,0.074,0.023
			c0.368,0.111,0.604-0.008,0.705-0.346C126.361,104.049,126.226,103.856,125.837,103.739z"/>
		<path fill="#CACCE0" d="M135.182,104.132c-0.035-0.005-0.071-0.004-0.113-0.009l-0.111,0.94c0.04,0.005,0.077,0.015,0.113,0.018
			c0.369,0.047,0.53-0.071,0.573-0.43C135.682,104.317,135.554,104.175,135.182,104.132z"/>
		<path fill="#CACCE0" d="M139.502,84.725c0.457,1.042,1.497,1.772,2.713,1.772c1.214,0,2.257-0.73,2.719-1.772h13.588v-4.48h0.463
			v-2.217h-0.463v-7.34h0.463v-2.22h-0.463V65.9h-1.048v-2.173h-0.529h-1.538v-1.929h-0.53h-1.538v-1.895l-0.94,0.347
			c-1.288,0.487-2.402,0.9-5.022,0.9c-3.11,0-4.528,0.725-5.168,1.263c-0.632-0.538-2.038-1.263-5.139-1.263
			c-2.622,0-3.737-0.414-5.027-0.9l-0.946-0.35v0.766v1.132h-2.064v1.929h-2.063V65.9h-1.013v2.569h-0.411v2.22h0.411v7.34h-0.411
			v2.217h0.411v4.48H139.502z M155.405,81.73V64.788c0.437,0,0.803,0,1.006,0c0,0.975,0,16.94,0,17.913c-0.865,0-4.885,0-4.885,0
			c-0.824,0-2.69-0.192-3.928-0.32l-1.336-0.122c-0.932,0-1.969-0.289-2.995,0.097l-0.009-0.025c0.989-0.82,2.019-1.044,3.004-1.044
			l1.223,0.118c1.341,0.139,3.161,0.325,4.042,0.325H155.405z M142.595,63.58l0.083-0.136c0.005-0.013,0.759-1.232,4.698-1.232
			c2.465,0,3.734-0.36,4.904-0.784c0,1.361,0,16.077,0,17.033c-0.369,0-0.755,0-0.755,0c-0.824,0-2.69-0.193-3.928-0.32
			l-1.336-0.123c-1.135,0-2.425,0.204-3.666,1.204V63.58z M142.595,80.893l0.057-0.059c1.168-1.306,2.423-1.755,3.61-1.755
			l1.223,0.117c1.341,0.139,3.161,0.332,4.042,0.332h1.812V62.86c0.383,0,0.756,0,1.008,0c0,0.977,0,16.837,0,17.809
			c-0.751,0-2.82,0-2.82,0c-0.824,0-2.69-0.194-3.928-0.32l-1.336-0.122c-1.135,0-2.429-0.184-3.666,0.748V80.893z M132.162,61.427
			c1.171,0.424,2.441,0.784,4.908,0.784c3.926,0,4.654,1.214,4.662,1.224l0.068,0.126v15.624c-1.227-0.973-2.499-1.168-3.615-1.168
			l-1.34,0.123c-1.237,0.127-3.101,0.32-3.922,0.32c0,0-0.395,0-0.76,0C132.162,77.505,132.162,62.788,132.162,61.427z
			 M130.098,62.86c0.249,0,0.621,0,0.998,0v16.667h1.825c0.875,0,2.699-0.193,4.032-0.332l1.231-0.117
			c1.181,0,2.435,0.449,3.609,1.755l0.006,0.01v0.095c-1.225-0.892-2.496-0.713-3.615-0.713l-1.34,0.122
			c-1.237,0.126-3.101,0.32-3.922,0.32c0,0-2.073,0-2.824,0C130.098,79.697,130.098,63.837,130.098,62.86z M128.031,64.788
			c0.204,0,0.566,0,1.001,0V81.73h3.889c0.875,0,2.699-0.186,4.032-0.325l1.231-0.118c0.937,0,1.921,0.208,2.875,0.942l-0.032,0.078
			c-0.974-0.306-1.961-0.049-2.843-0.049l-1.34,0.122c-1.237,0.128-3.101,0.32-3.922,0.32c0,0-4.025,0-4.891,0
			C128.031,81.729,128.031,65.763,128.031,64.788z"/>
		<path fill="#CACCE0" d="M138.36,67.633c0.931,0.054,1.663,0.185,2.243,0.393v-0.555c-0.598-0.193-1.32-0.316-2.216-0.371
			l-1.022-0.015c-1.68,0.019-3.044-0.093-4.067-0.335v0.545c1.048,0.231,2.415,0.34,4.075,0.317L138.36,67.633z"/>
		<path fill="#CACCE0" d="M137.439,69.735c0-0.005,0.882,0,0.882,0c0.98,0.048,1.692,0.175,2.272,0.408l0.002-0.563
			c-0.598-0.21-1.312-0.326-2.249-0.376h-0.93c-1.778,0.05-3.219-0.005-4.119-0.149v0.54
			C134.475,69.769,136.163,69.769,137.439,69.735z"/>
		<path fill="#CACCE0" d="M137.503,71.869c0.002,0,0.772-0.018,0.772-0.018c0.728,0.028,1.554,0.105,2.311,0.429v-0.573
			c-0.77-0.284-1.577-0.358-2.29-0.383l-0.819,0.016c-1.424,0.063-3.143,0.123-4.18,0.031v0.534
			C134.377,71.992,136.082,71.932,137.503,71.869z"/>
		<path fill="#CACCE0" d="M137.105,74.122l0.464-0.034l0.672-0.028c0.763,0.016,1.567,0.088,2.331,0.44l0.001-0.576
			c-0.789-0.311-1.601-0.381-2.322-0.398l-0.72,0.035l-0.461,0.034c-1.203,0.082-2.81,0.197-3.772,0.179v0.53
			C134.299,74.321,135.899,74.206,137.105,74.122z"/>
		<path fill="#CACCE0" d="M138.205,76.263c0.714,0,1.537,0.061,2.355,0.459l0.004-0.581c-0.85-0.352-1.692-0.407-2.359-0.407
			l-1.308,0.122c-1.086,0.111-2.662,0.275-3.6,0.311v0.532c0.956-0.037,2.553-0.202,3.65-0.315L138.205,76.263z"/>
		<path fill="#CACCE0" d="M140.614,65.908V65.36c-0.89-0.257-1.998-0.396-3.309-0.396c-1.385,0-2.341-0.118-3.086-0.28V63.32
			c-0.303-0.054-0.582-0.116-0.91-0.249v1.926c0.891,0.268,2.028,0.496,3.996,0.496C138.642,65.493,139.744,65.635,140.614,65.908z"
			/>
		<path fill="#CACCE0" d="M151.18,65.06v-0.554c-0.874,0.277-1.989,0.526-4.011,0.526c-0.858,0-1.616,0.063-2.303,0.172v-1.561
			c-0.185,0.037-0.354,0.081-0.517,0.127c-0.152,0.038-0.299,0.085-0.43,0.13v2.059c0.863-0.258,1.949-0.398,3.249-0.398
			C149.146,65.56,150.283,65.33,151.18,65.06z"/>
		<path fill="#CACCE0" d="M147.109,67.682c1.656,0.02,3.023-0.088,4.071-0.322v-0.542c-1.023,0.239-2.383,0.355-4.063,0.331
			l-1.031,0.021c-0.859,0.049-1.57,0.167-2.165,0.347v0.559c0.577-0.197,1.296-0.324,2.194-0.38L147.109,67.682z"/>
		<path fill="#CACCE0" d="M147.042,69.801c1.277,0.036,2.964,0.031,4.138-0.14v-0.532c-0.9,0.14-2.342,0.189-4.119,0.143h-0.929
			c-0.913,0.045-1.617,0.161-2.212,0.361V70.2c0.581-0.226,1.281-0.347,2.244-0.399H147.042z"/>
		<path fill="#CACCE0" d="M146.978,71.937c1.42,0.063,3.122,0.122,4.202,0.037v-0.535c-1.036,0.093-2.753,0.034-4.177-0.035
			l-0.822-0.016c-0.703,0.03-1.498,0.1-2.262,0.38v0.568c0.746-0.314,1.566-0.387,2.281-0.416L146.978,71.937z"/>
		<path fill="#CACCE0" d="M146.91,74.157c0.002,0,0.472,0.032,0.472,0.032c1.204,0.083,2.808,0.199,3.799,0.179v-0.529
			c-0.963,0.018-2.559-0.093-3.765-0.18l-0.463-0.031c-0.004,0-0.725-0.034-0.725-0.034c-0.71,0.016-1.515,0.086-2.307,0.394v0.573
			c0.779-0.35,1.605-0.419,2.32-0.437L146.91,74.157z"/>
		<path fill="#CACCE0" d="M147.525,76.449c1.102,0.113,2.699,0.278,3.655,0.318v-0.533c-0.938-0.036-2.513-0.204-3.595-0.314
			l-1.31-0.121c-0.666,0-1.508,0.054-2.355,0.407v0.577c0.823-0.392,1.648-0.454,2.355-0.454L147.525,76.449z"/>
		<path fill="#CACCE0" d="M176.595,43.838h4.79l0.892,2.953h1.768l-4.034-12.395h-2.009l-3.932,12.395h1.597L176.595,43.838z
			 M178.929,35.856h0.035l1.992,6.609h-3.966L178.929,35.856z"/>
		<path fill="#CACCE0" d="M192.147,45.195c0.516-0.825,0.756-2.352,0.756-4.996c0-0.394-0.051-2.866-0.549-3.914
			c-0.619-1.322-1.751-1.889-3.33-1.889h-3.811v12.395h2.85C190.225,46.791,191.479,46.259,192.147,45.195z M186.792,35.77h2.076
			c1.649,0,2.421,0.927,2.421,3.433v2.506c0,2.884-0.807,3.708-3.005,3.708h-1.492V35.77z"/>
		<polygon fill="#CACCE0" points="201.47,45.418 196.559,45.418 196.559,41.126 201.024,41.126 201.024,39.753 196.559,39.753 
			196.559,35.77 201.367,35.77 201.367,34.397 194.98,34.397 194.98,46.791 201.47,46.791 		"/>
		<polygon fill="#CACCE0" points="209.693,45.418 205.144,45.418 205.144,34.397 203.564,34.397 203.564,46.791 209.693,46.791 		
			"/>
		<path fill="#CACCE0" d="M212.576,43.838h4.79l0.892,2.953h1.769l-4.035-12.395h-2.008l-3.931,12.395h1.597L212.576,43.838z
			 M214.911,35.856h0.035l1.992,6.609h-3.965L214.911,35.856z"/>
		<rect x="221.537" y="34.397" fill="#CACCE0" width="1.58" height="12.395"/>
		<path fill="#CACCE0" d="M232.731,45.195c0.515-0.825,0.755-2.352,0.755-4.996c0-0.394-0.052-2.866-0.549-3.914
			c-0.617-1.322-1.751-1.889-3.33-1.889h-3.811v12.395h2.851C230.809,46.791,232.061,46.259,232.731,45.195z M227.375,35.77h2.077
			c1.649,0,2.421,0.927,2.421,3.433v2.506c0,2.884-0.807,3.708-3.005,3.708h-1.493V35.77z"/>
		<polygon fill="#CACCE0" points="242.225,45.418 237.315,45.418 237.315,41.126 241.779,41.126 241.779,39.753 237.315,39.753 
			237.315,35.77 242.122,35.77 242.122,34.397 235.735,34.397 235.735,46.791 242.225,46.791 		"/>
		<path fill="#CACCE0" d="M175.152,51.087v7.863c0,3.434,1.271,4.79,3.898,4.79c2.627,0,3.896-1.356,3.896-4.79v-7.863h-1.579v7.931
			c0,2.713-0.825,3.4-2.317,3.4c-1.494,0-2.319-0.687-2.319-3.4v-7.931H175.152z"/>
		<polygon fill="#CACCE0" points="194.105,63.482 194.105,51.087 192.698,51.087 192.698,61.697 192.663,61.697 187.838,51.087 
			185.607,51.087 185.607,63.482 187.015,63.482 187.015,52.735 187.049,52.735 191.942,63.482 		"/>
		<rect x="197.006" y="51.087" fill="#CACCE0" width="1.579" height="12.395"/>
		<polygon fill="#CACCE0" points="203.65,63.482 205.539,63.482 209.161,51.087 207.547,51.087 204.646,61.989 204.612,61.989 
			201.779,51.087 200.062,51.087 		"/>
		<polygon fill="#CACCE0" points="212.183,57.817 216.646,57.817 216.646,56.443 212.183,56.443 212.183,52.46 216.989,52.46 
			216.989,51.087 210.602,51.087 210.602,63.482 217.092,63.482 217.092,62.109 212.183,62.109 		"/>
		<path fill="#CACCE0" d="M223.959,57.044V57.01c1.46-0.257,2.266-1.373,2.266-2.832c0-1.546-0.771-3.091-2.969-3.091h-4.276v12.395
			h1.58v-5.699h1.854c0.531,0,1.75,0.069,1.871,1.579c0.137,1.649,0.033,3.262,0.481,4.121h1.647
			c-0.24-0.772-0.411-2.712-0.428-3.245C225.899,57.748,225.384,57.268,223.959,57.044z M222.929,56.409h-2.369V52.46h2.386
			c1.219,0,1.665,0.996,1.665,1.888C224.611,55.43,224.062,56.409,222.929,56.409z"/>
		<path fill="#CACCE0" d="M229.933,54.022c0-1.339,0.962-1.819,1.906-1.819c1.494,0,1.923,0.892,1.906,2.249h1.648
			c0.103-2.523-1.168-3.622-3.433-3.622c-2.078,0-3.64,1.168-3.64,3.364c0,3.726,5.563,3.417,5.563,6.163
			c0,1.476-0.962,2.009-2.214,2.009c-1.013,0-2.078-0.533-2.078-2.214v-0.361h-1.562c-0.034,1.184-0.034,3.983,3.623,3.948
			c2.043,0,3.846-0.841,3.846-3.451C235.496,56.358,229.933,56.752,229.933,54.022z"/>
		<rect x="237.796" y="51.087" fill="#CACCE0" width="1.579" height="12.395"/>
		<polygon fill="#CACCE0" points="240.697,52.46 243.96,52.46 243.96,63.482 245.539,63.482 245.539,52.46 248.801,52.46 
			248.801,51.087 240.697,51.087 		"/>
		<polygon fill="#CACCE0" points="255.873,51.087 253.367,57.078 250.946,51.087 249.178,51.087 252.508,58.761 252.508,63.482 
			254.089,63.482 254.089,58.761 257.47,51.087 		"/>
		<path fill="#CACCE0" d="M176.481,68.345l-2.505,7.895h1.018l0.589-1.881h3.051l0.568,1.881h1.126l-2.569-7.895H176.481z
			 M175.836,73.484l1.236-4.21h0.022l1.27,4.21H175.836z"/>
		<path fill="#CACCE0" d="M185.306,73.397c0,1.728-0.526,2.165-1.476,2.165c-0.952,0-1.476-0.437-1.476-2.165v-5.052h-1.007v5.008
			c0,2.187,0.809,3.051,2.483,3.051c1.673,0,2.481-0.863,2.481-3.051v-5.008h-1.005V73.397z"/>
		<path fill="#CACCE0" d="M189.046,70.214c0-0.853,0.612-1.159,1.214-1.159c0.952,0,1.224,0.569,1.214,1.433h1.049
			c0.066-1.607-0.743-2.307-2.187-2.307c-1.323,0-2.317,0.744-2.317,2.143c0,2.373,3.543,2.176,3.543,3.926
			c0,0.941-0.612,1.28-1.411,1.28c-0.645,0-1.323-0.339-1.323-1.411v-0.23h-0.995c-0.022,0.754-0.022,2.537,2.307,2.515
			c1.301,0,2.45-0.536,2.45-2.198C192.588,71.701,189.046,71.953,189.046,70.214z"/>
		<polygon fill="#CACCE0" points="193.409,69.219 195.487,69.219 195.487,76.239 196.492,76.239 196.492,69.219 198.571,69.219 
			198.571,68.345 193.409,68.345 		"/>
		<path fill="#CACCE0" d="M202.758,72.139v-0.022c0.93-0.164,1.443-0.875,1.443-1.804c0-0.984-0.491-1.968-1.892-1.968h-2.723v7.895
			h1.006v-3.63h1.182c0.338,0,1.115,0.044,1.192,1.006c0.087,1.05,0.022,2.078,0.306,2.625h1.05
			c-0.153-0.492-0.263-1.728-0.274-2.066C203.994,72.588,203.666,72.281,202.758,72.139z M202.103,71.734h-1.509v-2.515h1.52
			c0.777,0,1.061,0.634,1.061,1.203C203.174,71.111,202.824,71.734,202.103,71.734z"/>
		<path fill="#CACCE0" d="M207.471,68.345l-2.504,7.895h1.017l0.59-1.881h3.05l0.57,1.881h1.126l-2.571-7.895H207.471z
			 M206.826,73.484l1.236-4.21h0.022l1.269,4.21H206.826z"/>
		<polygon fill="#CACCE0" points="213.376,68.345 212.37,68.345 212.37,76.239 216.275,76.239 216.275,75.365 213.376,75.365 		"/>
		<rect x="217.357" y="68.345" fill="#CACCE0" width="1.005" height="7.895"/>
		<path fill="#CACCE0" d="M222.048,68.345l-2.505,7.895h1.017l0.59-1.881h3.052l0.568,1.881h1.127l-2.569-7.895H222.048z
			 M221.403,73.484l1.235-4.21h0.022l1.268,4.21H221.403z"/>
	</g>
</g>
<g id="Layer_2">
</g>
</svg>
