<?xml version="1.0" encoding="utf-8"?>
<!-- Generator: Adobe Illustrator 17.1.0, SVG Export Plug-In . SVG Version: 6.00 Build 0)  -->
<!DOCTYPE svg PUBLIC "-//W3C//DTD SVG 1.1//EN" "http://www.w3.org/Graphics/SVG/1.1/DTD/svg11.dtd">
<svg version="1.1" xmlns="http://www.w3.org/2000/svg" xmlns:xlink="http://www.w3.org/1999/xlink" x="0px" y="0px"
	 viewBox="0 0 360 140" enable-background="new 0 0 360 140" xml:space="preserve">
<g id="Layer_1">
	<g>
		<g id="g3225" transform="translate(285.8074,107.805)">
			<path id="path3227" fill="#CACCE0" d="M-112.085,0.319c0.155,0.292,0.586,0.85,1.304,0.85c0.382,0,0.674-0.171,0.674-0.497
				c0-0.297-0.279-0.474-0.733-0.604l-0.109-0.035c-0.609-0.186-1.283-0.453-1.283-0.991c0-0.568,0.601-1.032,1.751-1.032
				c0.227,0,0.462,0.021,0.674,0.061c0.17,0.03,0.286,0.05,0.382,0.071c0.029,0.195,0.08,0.442,0.161,0.783l-0.323,0.036
				c-0.161-0.332-0.417-0.689-0.995-0.689c-0.374,0-0.638,0.195-0.638,0.438c0,0.251,0.279,0.401,0.754,0.542l0.162,0.05
				c0.673,0.208,1.251,0.468,1.251,1.057c0,0.618-0.724,1.071-1.86,1.071c-0.292,0-0.594-0.041-0.792-0.086
				c-0.22-0.05-0.373-0.089-0.46-0.12c-0.059-0.232-0.155-0.503-0.242-0.841"/>
		</g>
		<g id="g3229" transform="translate(289.0429,107.6521)">
			<path id="path3231" fill="#CACCE0" d="M-110.42,0.704c-0.015,0.544,0.059,0.579,0.579,0.609v0.195h-2.286V1.313
				c0.476-0.03,0.535-0.065,0.535-0.609v-1.66c0-0.542-0.059-0.579-0.571-0.607v-0.197h2.286v0.197
				c-0.483,0.029-0.542,0.065-0.542,0.607v0.785c0.535-0.412,0.982-0.785,1.406-1.166c0.103-0.091,0.185-0.191-0.014-0.206
				l-0.279-0.02v-0.197h1.963v0.197c-0.417,0.029-0.644,0.055-1.025,0.311c-0.395,0.262-0.762,0.518-1.069,0.765
				c0.454,0.477,0.938,0.941,1.4,1.363c0.395,0.362,0.527,0.412,0.829,0.438v0.195h-1.686c-0.279-0.321-0.974-1.06-1.51-1.609
				h-0.014"/>
		</g>
		<g id="g3233" transform="translate(293.6229,108.6283)">
			<path id="path3235" fill="#CACCE0" d="M-108.062-1.751c-0.22-0.663-0.829-0.8-1.304-0.8c-0.777,0-1.422,0.529-1.422,1.387
				c0,0.78,0.485,1.51,1.495,1.51c0.183,0,0.3-0.041,0.3-0.277v-0.483c0-0.336-0.029-0.373-0.797-0.412v-0.226h2.446v0.226
				c-0.374,0.045-0.403,0.061-0.403,0.412v0.362c0,0.182,0.008,0.342,0.044,0.457c-0.454,0.086-1.048,0.201-1.656,0.201
				c-1.751,0-2.792-0.648-2.792-1.675c0-1.151,1.333-1.745,2.893-1.745c0.565,0,1.144,0.086,1.4,0.132
				c0.023,0.171,0.059,0.432,0.118,0.915"/>
		</g>
		<path id="path3237" fill="#CACCE0" d="M111.837,107.697h60.152v-0.33h-60.152V107.697z"/>
		<path id="path3239" fill="#CACCE0" d="M187.594,107.691h60.152v-0.33h-60.152V107.691z"/>
		<g id="g3241" transform="translate(263.8153,101.7962)">
			<path id="path3243" fill="#CACCE0" d="M-123.405,15.43c0.445,0.792,1.695,2.308,3.772,2.308c1.101,0,1.949-0.464,1.949-1.353
				c0-0.806-0.806-1.283-2.119-1.639l-0.318-0.095c-1.759-0.506-3.708-1.23-3.708-2.69c0-1.545,1.737-2.801,5.064-2.801
				c0.657,0,1.334,0.055,1.949,0.164c0.488,0.082,0.827,0.136,1.101,0.191c0.085,0.533,0.233,1.203,0.467,2.131l-0.932,0.095
				c-0.467-0.901-1.207-1.871-2.883-1.871c-1.08,0-1.843,0.532-1.843,1.188c0,0.683,0.806,1.094,2.183,1.475l0.467,0.136
				c1.949,0.56,3.623,1.271,3.623,2.869c0,1.68-2.098,2.91-5.382,2.91c-0.848,0-1.716-0.109-2.289-0.232
				c-0.635-0.136-1.08-0.247-1.334-0.329c-0.17-0.627-0.445-1.365-0.7-2.281"/>
		</g>
		<g id="g3245" transform="translate(277.3073,105.8057)">
			<path id="path3247" fill="#CACCE0" d="M-116.46,5.347c0.039,0.624,0.144,1.578,0.23,2.413l-0.932,0.041
				c-0.318-0.821-0.551-1.175-0.868-1.407c-0.361-0.247-1.06-0.329-2.077-0.329h-0.509v5.983c0,1.475,0.17,1.572,1.949,1.654v0.532
				h-7.416v-0.532c1.695-0.082,1.865-0.179,1.865-1.654V6.065h-0.361c-1.419,0-1.99,0.165-2.33,0.41
				c-0.254,0.204-0.509,0.56-0.785,1.325h-0.889c0.073-0.982,0.167-1.798,0.221-2.454"/>
		</g>
		<g id="g3249" transform="translate(281.8836,105.8167)">
			<path id="path3251" fill="#CACCE0" d="M-114.105,5.319v0.533c-1.398,0.082-1.568,0.177-1.568,1.653v2.787
				c0,1.939,1.059,3.046,2.945,3.046c2.162,0,3.348-1.203,3.348-3.457V9.062c0-1.339-0.083-2.09-0.168-2.513
				c-0.108-0.479-0.679-0.656-2.077-0.697V5.319h5.361v0.533c-1.018,0.027-1.569,0.218-1.675,0.697
				c-0.083,0.423-0.17,1.174-0.17,2.513v1.053c0,1.174-0.338,2.418-1.524,3.264c-0.933,0.656-2.543,1.024-4.026,1.024
				c-1.525,0-2.966-0.177-4.005-0.738c-1.122-0.588-1.61-1.571-1.61-3.169V7.505c0-1.475-0.17-1.571-1.653-1.653V5.319"/>
		</g>
		<g id="g3253" transform="translate(290.4599,101.3722)">
			<path id="path3255" fill="#CACCE0" d="M-109.69,16.496c0,1.215,0.467,1.448,1.483,1.448c1.822,0,3.666-1.298,3.666-3.716
				c0-2.937-2.31-3.757-4.111-3.757c-0.488,0-0.763,0.041-0.91,0.095c-0.106,0.027-0.127,0.341-0.127,0.683V16.496z M-108.653,9.789
				c2.607,0,4.767,0.327,6.188,1.215c0.995,0.615,1.822,1.627,1.822,2.801c0,3.402-4.005,4.864-8.899,4.864h-5.467v-0.533
				c1.547-0.082,1.716-0.177,1.716-1.653v-4.508c0-1.475-0.17-1.571-1.547-1.653V9.789"/>
		</g>
		<g id="g3257" transform="translate(299.0619,101.3895)">
			<path id="path3259" fill="#CACCE0" d="M-105.263,16.453c0,1.475,0.17,1.571,1.631,1.653v0.533h-6.865v-0.533
				c1.462-0.082,1.631-0.177,1.631-1.653v-4.508c0-1.475-0.17-1.571-1.631-1.653V9.759h6.865v0.533
				c-1.462,0.082-1.631,0.177-1.631,1.653"/>
		</g>
		<g id="g3261" transform="translate(302.0018,103.0947)">
			<path id="path3263" fill="#CACCE0" d="M-103.749,12.165c0,2.472,1.441,4.276,3.517,4.276c1.822,0,2.817-1.135,2.817-3.607
				c0-2.746-1.525-4.262-3.348-4.262C-102.394,8.572-103.749,9.774-103.749,12.165z M-93.473,12.396
				c0,2.923-3.093,4.755-7.162,4.755c-4.279,0-7.056-2.009-7.056-4.521c0-2.213,2.289-4.768,7.353-4.768
				C-96.46,7.861-93.473,9.693-93.473,12.396"/>
		</g>
		<g id="g3265" transform="translate(309.1591,101.7962)">
			<path id="path3267" fill="#CACCE0" d="M-100.065,15.43c0.445,0.792,1.695,2.308,3.772,2.308c1.101,0,1.949-0.464,1.949-1.353
				c0-0.806-0.806-1.283-2.119-1.639l-0.318-0.095c-1.759-0.506-3.708-1.23-3.708-2.69c0-1.545,1.737-2.801,5.065-2.801
				c0.656,0,1.334,0.055,1.948,0.164c0.488,0.082,0.827,0.136,1.103,0.191c0.085,0.533,0.232,1.203,0.465,2.131l-0.932,0.095
				c-0.467-0.901-1.207-1.871-2.883-1.871c-1.08,0-1.842,0.532-1.842,1.188c0,0.683,0.804,1.094,2.181,1.475l0.467,0.136
				c1.949,0.56,3.623,1.271,3.623,2.869c0,1.68-2.098,2.91-5.382,2.91c-0.847,0-1.716-0.109-2.289-0.232
				c-0.635-0.136-1.08-0.247-1.334-0.329c-0.17-0.627-0.445-1.365-0.698-2.281"/>
		</g>
		<g id="g3269" transform="translate(286.0531,136.1547)">
			<path id="path3271" fill="#CACCE0" d="M-111.959-70.972c0.073,0.155,0.373,0.925,0.397,1.056c0.026,0.133,0.891,0.286,0.709-0.33
				c-0.182-0.615-0.404-1.1-0.404-1.1"/>
		</g>
		<g id="g3273" transform="translate(284.668,126.8924)">
			<path id="path3275" fill="#CACCE0" d="M-112.672-47.68c0,0-0.394,0.577-0.754,0.977c-0.362,0.398-0.474,0.607-0.22,0.754
				c0.256,0.147,0.474,0.321,1.021,0.686c-0.15,0.868-0.765,2.198-1.169,2.989c-0.404,0.789-0.879,1.622-1.275,2.022
				c-0.397,0.398-1.318,1.191-1.898,1.771c-0.582,0.58-1.257,1.006-1.659,1.074c-0.727,0.12-0.95-0.427-1.048-0.294
				c-0.448,0.613-0.212,1.245,0.621,1.359c0.277,0.038,0.447,0.324,0.956,0.542c0.51,0.217,1.283,0.035,1.715-0.182
				c0.433-0.217,1.384-0.786,2.078-1.144c0.694-0.357,1.403-0.329,2.204-0.398c0.665-0.056,0.736-1.183,0.495-1.736
				c-0.354-0.833-0.079-1.448,0.339-2.434c0.418-0.986,1.503-2.065,1.503-2.065s0.291-0.145,0.779,0.203
				c0.468,0.336,0.565-0.201,1.166-0.921c0.489-0.582,1.012-1.209,0.707-1.489c-0.367-0.336-0.27-0.477-0.27-0.477
				s0.362-0.465,0.736-0.765"/>
		</g>
		<g id="g3277" transform="translate(297.354,135.8856)">
			<path id="path3279" fill="#CACCE0" d="M-106.142-70.296c0,0,4.597-3.416,6.385-13.045c1.078-5.818,0.623-11.447-1.959-17.044
				c-3.797-8.236-12.948-14.026-21.708-14.966c14.613-3.314,27.773,5.247,32.794,15.993c4.885,10.456,4.467,21.406-3.095,31.634
				c-1.559,2.11-10.538,12.33-26.471,11.794c-1.124,0.2-3.906-0.353-4.765-0.683c0,0-1.444-0.551-3.193-1.312
				c-1.774-0.771-5.947-3.054-8.376-5.27c2.037,1.21,5.694,2.53,9.157,2.839C-125.192-60.621-113.746-62.631-106.142-70.296"/>
		</g>
		<g id="g3281" transform="translate(293.4371,135.3502)">
			<path id="path3283" fill="#CACCE0" d="M-108.158-68.949c0.236-0.383,0.165-0.527,0.282-1.295
				c0.047-1.078-0.326-1.915-0.326-1.915l-1.721,0.486C-109.409-70.975-108.802-69.552-108.158-68.949z M-116.034-64.301
				c0,0-0.214,1.038-0.011,1.925c0.582-0.148,1.041-0.61,1.48-0.792c0.439-0.182,1.645-0.48,2.461-0.885
				c0,0,0.009-0.158-0.282-0.592c-0.22-0.321-0.692-1.907-1.153-3.604c0,0-0.17-1.195-0.35-1.118
				c-0.123,0.051-0.164,1.465-0.221,2.074c-0.071,0.748-0.036,0.494-0.036,0.494s0.47,0.074,0.398,0.327
				c-0.091,0.314-0.412,2.087-0.527,2.38c-0.094,0.235-0.136,0.141-0.553,0.053C-115.338-64.145-116.034-64.301-116.034-64.301z
				 M-108.035-78.671c0.132-0.327-0.829,0.12-1.009,0.211c-0.563,0.282-0.944-0.186-0.853-0.442
				c0.111-0.314,0.038-0.521-0.194-0.488c-0.191,0.029-0.233-0.224-0.127-0.368c-0.192,0-0.279-0.147-0.321-0.25
				c0.277-0.103,0.023-0.397-0.091-0.441c-0.114-0.045-0.362-0.091-0.385-0.292c-0.023-0.201,0.183-0.46,0.388-0.594
				c0.203-0.133,0.288-0.368,0.058-0.785c-0.191-0.348-0.294-0.972-0.114-1.198c-0.407,0.045-0.61,0.539-0.61,0.539
				c-0.273-0.494-0.115-0.986-0.024-1.231c-0.135,0.133-0.362,0.536-0.362,0.536c0.294-2.596,3.351-3.682,4.167-3.861
				c1.512-0.332,3.876-0.401,3.513,0.783c0,0,0.476-0.939-0.407-1.185c0.498-0.024,0.906,0.536,0.703,0.894
				c0.248-0.156,0.703-0.268,0.86-0.044c-0.248,0.023-0.748,0.291-0.771,0.492c0.453-0.089,0.921,0.176,1.269,1.703
				c0.159,0.692,0.432,2.931-0.544,3.67c0,0,0.045-0.133,0.068-0.312c0,0-0.136,0.536-0.883,0.536c0,0-0.061,0.235-0.015,0.368
				c0,0,0.898-0.345,1.26-0.211c0,0-0.407,0.806-0.589,1.118c0.589,0,2.369,1.148,2.486,3.808c0.273,0.447,0.589,3.031,0.273,4.196
				c-2.516,7.992-20.825,12.586-23.952,11.579c0,0-0.88-0.671-0.15-1.078c0.245-0.136,0.073,0.073,0.609,0.221
				c0.353,0.098,0.623-0.006,1.047-0.241c0.471-0.261,1.421-0.482,2.08-0.95c0.659-0.47,1.16-0.576,1.86-1.889
				c0.147-0.276,0.229-0.654,0.283-1.121c0.014-0.098-0.047-0.053-0.691-0.285c-0.371-0.135-0.659,0.041-0.659-0.61
				c0-0.651,0.262-1.689,0.332-1.942c0.071-0.251,0.304-0.286,0.963-0.251c0.283-0.606,0.526-1.678,0.7-2.268
				c0,0-0.183,0.035-0.591,0.035c-0.418,0-0.589,0.289-1.269,0.513c-0.68,0.226-1.045,0.161-1.178-0.268
				c-0.182-0.582-0.182-0.851-0.364-1.253c-0.132-0.295-0.589-0.27-0.498-0.583c0.091-0.314,0.227-0.447,0.409-0.536
				c0.226-0.224,0.769-0.18,1.268-0.629c0.5-0.447,0.789,0.027,0.953,0.359c0.138,0.282,0.188,0.321,0.498,0.716
				c0.159,0.201,0.726,0.067,1.088,0l0.318-1.298c-0.227-0.045-1.178-0.224-2.222-0.76c-1.042-0.538-1.813-1.032-2.221-0.986
				c-1.459,0.161-1.083-0.112-1.768-1.165c-0.407-0.627-0.318-0.671-0.815-0.895c-0.647-0.291-0.227-0.941,0.044-0.895
				c0.268,0.044,0.726-0.224,1.133-0.314c-0.129-0.638,0.055-1.004,0.635-0.941c-0.136,0.403,0.454,1.254,1.133,1.478
				c0.68,0.223,0.953,1.342,0.953,1.566c0.635,0.627,3.587,0.583,4.222,0.583c0.327-0.504,0.441-0.639,1.68-0.639
				c0.786,0,1.431,0.188,2.019,0.874c0.553,0.176,0.097-0.33,1.047-0.435s1.413-0.513,1.818-0.626
				c0.403-0.112,0.397-0.351,0.691-0.598c0.171-0.142,0.315-0.482,0.554-0.601c0.239-0.118,0.212-0.894,0.301-1.041"/>
		</g>
		<g id="g3285" transform="translate(264.0921,154.5325)">
			<path id="path3287" fill="#CACCE0" d="M-123.263-117.188c10.379,1.256,32.594,20.349,32.792,26.164l-0.794,0.132
				c-2.446-8.722-25.917-25.7-31.999-25.635"/>
		</g>
		<g id="g3289" transform="translate(264.7175,154.3577)">
			<path id="path3291" fill="#CACCE0" stroke="#CACCE0" d="M-122.941-116.748v54.309"/>
		</g>
		<g id="g3293" transform="scale(-1.00034,0.99966)">
			<g id="g3295" transform="translate(-264.6286,154.4095)">
				<path id="path3297" fill="#CACCE0" stroke="#CACCE0" d="M122.898-116.786v54.327"/>
			</g>
		</g>
		<g id="g3299" transform="scale(-1.00034,0.99966)">
			<g id="g3301" transform="translate(-314.8267,114.3548)">
				<path id="path3303" fill="#CACCE0" d="M97.06-16.059c0.403,0.189,0.912,0.23,1.59,0.23h0.297v-3.104
					c0-0.541-0.064-0.679-0.956-0.679c-0.826,0-2.119,0.529-2.119,1.827C95.872-17.124,96.19-16.491,97.06-16.059z M72.192-16.923
					l0.471-0.135c1.391-0.379,2.202-0.782,2.202-1.459c0-0.645-0.769-1.172-1.86-1.172c-1.689,0-2.437,0.957-2.908,1.849
					l-0.941-0.095c0.235-0.918,0.385-1.578,0.471-2.105c0.277-0.053,0.62-0.108,1.112-0.188c0.62-0.108,1.303-0.164,1.966-0.164
					c3.357,0,5.111,1.244,5.111,2.767c0,1.444-1.968,2.16-3.741,2.658l-0.321,0.094c-1.325,0.351-2.139,0.823-2.139,1.621
					c0,0.876,0.856,1.334,1.968,1.334c2.096,0,3.357-1.498,3.805-2.281l0.942,0.176c-0.23,0.807-0.476,1.474-0.647,2.049
					c0.707-0.085,1.274-0.292,2.272-1.145c1.327-1.133,2.716-2.374,4.022-3.657c-0.885-0.662-1.937-1.35-3.075-2.051
					c-1.094-0.688-1.746-0.854-2.948-0.935v-0.429h5.644v0.429l-0.801,0.053c-0.568,0.041-0.336,0.409-0.041,0.653
					c1.221,1.025,2.505,2.024,4.043,3.131v-2.105c0-1.457-0.17-1.651-1.559-1.731v-0.429h6.569v0.429
					c-1.474,0.08-1.642,0.274-1.642,1.731v4.452c0,0.859,0.061,1.344,0.388,1.531c0.489,0.224,0.841,0.08,1.204-0.189
					c0.339-0.271,0.804-0.829,1.525-1.544c0.615-0.621,1.4-1.553,1.697-1.93c-1.569-0.391-2.734-1.094-2.734-2.281
					c0-0.795,0.635-1.403,1.483-1.74c0.827-0.336,1.93-0.459,3.582-0.459h6.739l-0.123,0.429c-1.422,0.08-1.466,0.274-1.466,1.731
					v4.452c0,1.457,0.17,1.651,1.675,1.733v0.427h-6.825v-0.427c1.465-0.082,1.634-0.276,1.634-1.733v-1.618H98.67
					c-0.403,0-0.698,0.201-0.889,0.485c-0.53,0.756-1.125,1.592-1.76,2.174c-0.848,0.782-1.536,1.286-4.487,1.227
					c-0.223,0-1.063-0.059-1.256-0.108h-5.144v-0.427c1.495-0.082,1.707-0.276,1.665-1.733v-2.158h-0.042
					c-1.537,1.471-3.735,3.454-4.537,4.319h-4.843v-0.28c-0.264,0.07-0.629,0.153-1.1,0.254c-0.579,0.12-1.454,0.227-2.31,0.227
					c-3.314,0-5.432-1.213-5.432-2.873C68.536-15.667,70.226-16.368,72.192-16.923"/>
			</g>
		</g>
		<g id="g3305" transform="scale(-1.00034,0.99966)">
			<g id="g3307" transform="translate(-306.7063,111.6199)">
				<path id="path3309" fill="#CACCE0" d="M101.24-9.182c2.119,0,3.588-1.78,3.588-4.223c0-2.36-1.384-3.548-3.048-3.548
					c-1.86,0-3.416,1.497-3.416,4.209C98.365-10.301,99.381-9.182,101.24-9.182z M152.262-11.925l-1.284-2.611h-0.064l-1.306,2.611
					H152.262z M170.384-13.129c0.395,0.192,0.895,0.233,1.562,0.233h0.292v-3.146c0-0.547-0.064-0.686-0.938-0.686
					c-0.812,0-2.083,0.536-2.083,1.849C169.218-14.209,169.531-13.565,170.384-13.129z M186.833-9.423
					c1.431,0,2.089-0.409,2.089-2.039v-7.025c0-0.456-0.03-0.879-0.179-0.915c-0.211-0.073-0.598-0.127-1.285-0.127
					c-2.537,0-5.789,1.098-5.789,5.032C181.669-11.258,184.265-9.423,186.833-9.423L186.833-9.423z M94.345-13.175
					c0-2.672,3.048-4.481,7.003-4.481c3.11,0,5.194,0.913,6.359,2.119c-0.713-1.384-1.189-2.265-1.254-2.371
					c-1.006-1.628-1.272-1.783-2.929-1.931v-0.624h7.074v0.624l-1.124,0.073c-1.272,0.076-1.362,0.377-0.977,1.433
					c0.415,1.092,1.509,3.704,2.546,5.871l0.058-0.1l4.499-7.889h2.072l3.878,7.889l0.059,0.1l2.813-6.223
					c0.354-0.76,0.267-0.988-0.83-1.082l-0.947-0.073v-0.624h9.235v0.624c-1.362,0.111-1.895,0.285-2.693,1.821l-0.362,0.704h4.409
					l3.299,5.415l3.773-5.415h5.068v0.433c-1.704,0.095-1.877,0.345-1.725,2.068l0.238,2.764c0.108,1.244,0.236,1.968,0.344,2.392
					c0.036,0.144,0.061,0.32,0.189,0.348c0.147,0.023,0.474-0.488,0.754-0.991c0.788-1.395,1.678-3.008,2.57-4.635l1.409-2.586
					l1.431,0.192l4.144,7.069c0.048,0.082,0.094,0.155,0.139,0.226c0.158,0.208,0.32,0.474,0.482,0.583
					c0.462,0.329,1.662,0.412,2.504,0.412c0.651,0,1.136-0.014,1.472-0.123c0.379-0.124,0.421-0.565,0.421-1.277v-2.228h-1.051
					c-1.812,0-1.874,0.082-2.084,1.286h-0.927v-3.228h0.927c0.211,1.041,0.273,1.121,2.084,1.121h1.051v-2.639
					c0-0.479-0.042-0.577-0.841-0.577h-0.359c-1.115,0-1.81,0.082-2.146,0.314c-0.336,0.22-0.57,0.701-0.78,1.371l-0.926-0.041
					c0.106-1.025,0.211-2.024,0.232-2.255h9.978v0.433c-1.41,0.083-1.578,0.277-1.578,1.754v4.512c0,1.3,0.132,1.53,1.269,1.622
					c0.204-0.097,0.389-0.214,0.583-0.364c0.333-0.274,0.792-0.739,1.5-1.463c0.604-0.63,1.374-1.572,1.666-1.957
					c-1.54-0.395-2.687-1.106-2.687-2.31c0-0.806,0.626-1.421,1.459-1.765c0.812-0.342,1.895-0.464,3.519-0.464h6.371
					c0.46-0.598,1.071-1.112,1.739-1.504c1.999-1.189,5.044-1.628,8.714-1.628h8.716v0.713c-1.94,0.111-2.18,0.238-2.18,2.216v6.038
					c0,1.977,0.239,2.204,2.418,2.313v0.613h-7.699c-6.895,0-12.536-1.959-12.536-6.513c0-0.636,0.192-1.235,0.512-1.778
					c-0.988,0.111-1.118,0.415-1.118,1.718v4.512c0,1.477,0.165,1.672,1.645,1.753v0.436h-6.582v-0.436
					c1.437-0.08,1.604-0.276,1.604-1.753v-1.64h-0.271c-0.395,0-0.688,0.206-0.874,0.492c-0.521,0.765-1.104,1.613-1.728,2.202
					c-0.833,0.792-1.521,1.201-4.478,1.244c-0.43-0.015-0.701-0.064-0.848-0.109h-7.26h-2.38h-2.448v-0.436l0.6-0.039
					c0.954-0.07,0.974-0.303,0.685-0.892l-0.623-1.313h-3.399l-0.745,1.395c-0.27,0.492-0.229,0.727,0.539,0.797l0.621,0.053v0.436
					h-3.825h-2.683h-2.645v-0.436c1.403-0.067,1.877-0.289,1.963-0.795c0.086-0.424,0.108-1.08,0.042-2.257l-0.151-3.034h-0.042
					l-3.946,6.371h-1.165l-4.161-6.851h-0.086l-0.065,4.814c-0.021,1.516,0.044,1.659,1.66,1.753v0.436h-6.748v-0.436
					c1.551-0.094,1.595-0.236,1.66-1.753l0.215-4.581c0.056-1.242-0.003-1.524-1.077-1.64l-4.394,8.54h-2.278l-3.967-7.519h-0.059
					l-4.35,7.519h-2.278c-0.853-1.839-1.692-3.566-2.425-5.035c0.015,0.129,0.024,0.256,0.024,0.385
					c0,2.483-2.831,4.465-7.198,4.465C97.5-8.479,94.345-10.289,94.345-13.175"/>
			</g>
		</g>
		<g id="g3311" transform="scale(-1.00034,0.99966)">
			<g id="g3313" transform="translate(-334.5743,116.6982)">
				<path id="path3315" fill="#CACCE0" d="M86.895-21.952c-0.133,0-0.211-0.027-0.211-0.18c0-0.142,0.153-0.153,0.265-0.153h0.206
					v0.333H86.895z M87.156-21.136h0.297v-1.383h-0.518c-0.356,0-0.567,0.1-0.567,0.417c0,0.254,0.15,0.347,0.332,0.361
					l-0.351,0.606h0.35l0.318-0.582h0.139V-21.136z M86.942-22.813c0.51,0,0.921,0.394,0.921,0.986c0,0.591-0.41,0.989-0.921,0.986
					v0.003c-0.497,0-0.918-0.398-0.918-0.989C86.024-22.419,86.445-22.813,86.942-22.813z M86.942-20.542
					c0.683,0,1.291-0.471,1.291-1.284c0-0.812-0.607-1.284-1.291-1.284c-0.68,0-1.288,0.473-1.288,1.284
					C85.654-21.013,86.262-20.542,86.942-20.542"/>
			</g>
		</g>
	</g>
</g>
<g id="Layer_2">
</g>
</svg>
