<?xml version="1.0" encoding="utf-8"?>
<!-- Generator: Adobe Illustrator 17.1.0, SVG Export Plug-In . SVG Version: 6.00 Build 0)  -->
<!DOCTYPE svg PUBLIC "-//W3C//DTD SVG 1.1//EN" "http://www.w3.org/Graphics/SVG/1.1/DTD/svg11.dtd">
<svg version="1.1" xmlns="http://www.w3.org/2000/svg" xmlns:xlink="http://www.w3.org/1999/xlink" x="0px" y="0px"
	 viewBox="0 0 360 140" enable-background="new 0 0 360 140" xml:space="preserve">
<g id="Layer_1">
	<g>
		<path fill="#CACCE0" d="M93.206,41.815v30.715c0,2.502,2.032,4.533,4.532,4.533c0.334,0,0.603-0.269,0.603-0.606v-38.57
			c0-0.333-0.269-0.604-0.603-0.604C95.238,37.284,93.206,39.277,93.206,41.815L93.206,41.815z M163.417,63.074
			c-1.634-0.536-4.19,0.204-5.242,2.521c0,0-0.007,0-0.007,0.002c-1.897,4.27-6.177,6.922-11.169,6.922
			c-7.569,0-13.725-6.887-13.725-15.35c0-8.466,6.156-15.352,13.725-15.352c4.992,0,9.272,2.652,11.169,6.923
			c0.915,2.004,3.119,3.064,5.246,2.523c0,0,0.128-0.016,0.431-0.14c0.286-0.109,0.399-0.346,0.364-0.634
			c-0.005-0.022-0.083-0.607-0.398-1.476c-0.461-1.266-0.854-2.13-0.966-2.365c-2.719-6.146-8.795-9.966-15.846-9.966
			c-10.399,0-18.864,9.191-18.864,20.488s8.465,20.486,18.864,20.486c7.051,0,13.127-3.818,15.863-9.971
			c0.06-0.158,0.467-1.039,0.949-2.359c0.314-0.868,0.404-1.23,0.404-1.528C164.215,63.522,163.958,63.253,163.417,63.074
			L163.417,63.074z M158.168,48.738c0.915,2.004,3.08,3.048,5.246,2.523c0.177-0.042,0.355-0.106,0.431-0.14L158.168,48.738z
			 M124.945,41.815v30.715c0,2.518-2.034,4.533-4.532,4.533c-0.333,0-0.602-0.269-0.602-0.606v-16.97l-16.515,0.003l-0.005-0.003
			h-0.003c-0.04,0-0.077-0.001-0.112-0.011c-0.009-0.002-0.017-0.005-0.027-0.008c-0.027-0.007-0.054-0.015-0.078-0.028
			c-0.01-0.006-0.02-0.009-0.031-0.016c-0.025-0.013-0.048-0.028-0.071-0.046c-0.004-0.002-0.007-0.006-0.012-0.009
			c-0.027-0.022-0.054-0.048-0.076-0.075c0,0-0.002-0.001-0.002-0.003l-2.925-3.521c-0.102-0.096-0.165-0.232-0.165-0.381
			c0-0.271,0.204-0.492,0.465-0.527c0.032-0.004,0.064-0.008,0.098-0.008l19.461-0.001V37.888c0-0.333,0.269-0.604,0.602-0.604
			C122.914,37.284,124.945,39.317,124.945,41.815L124.945,41.815z"/>
	</g>
	<path fill="#CACCE0" d="M198.686,76.018c-0.003-0.007-0.008-0.012-0.011-0.018c-0.006-0.022-0.01-0.044-0.018-0.066l-1.386-3.826
		l-0.005,0.002l-12.325-32.251c-0.311-0.874-0.754-1.624-1.333-2.235c-0.618-0.65-1.494-0.969-2.53-0.966
		c-1.038-0.004-1.913,0.315-2.528,0.965c-0.582,0.61-1.027,1.361-1.338,2.243L164.889,72.11l-0.005-0.002l-1.386,3.826
		c-0.007,0.022-0.013,0.044-0.019,0.066c-0.002,0.005-0.006,0.011-0.009,0.018c-0.104,0.287,0.043,0.606,0.328,0.709
		c0.005,0.001,0.014,0.001,0.018,0.002c0.021,0.011,0.044,0.022,0.068,0.03c2.463,0.867,5.165-0.346,6.125-2.749l0.01,0.004
		l2.109-5.761h17.902l2.117,5.779l0.009-0.003c0.967,2.391,3.66,3.595,6.116,2.73c0.024-0.009,0.048-0.019,0.069-0.03
		c0.003-0.001,0.011-0.001,0.018-0.002C198.641,76.624,198.787,76.305,198.686,76.018z M173.906,63.344l7.172-19.786l7.175,19.786
		H173.906z"/>
	<g>
		<path fill="#CACCE0" d="M95.915,99.816c0,0.325-0.112,0.607-0.337,0.843c-0.225,0.236-0.51,0.355-0.854,0.355
			c-0.345,0-0.637-0.12-0.877-0.356c-0.24-0.237-0.359-0.519-0.359-0.844V85.807c0-0.34,0.119-0.629,0.359-0.866
			c0.24-0.238,0.532-0.355,0.877-0.355c0.344,0,0.629,0.119,0.854,0.355c0.224,0.238,0.337,0.528,0.337,0.869v5.722h8.014V85.81
			c0-0.341,0.118-0.631,0.356-0.869c0.237-0.236,0.526-0.355,0.868-0.355c0.326,0,0.608,0.118,0.846,0.355
			c0.237,0.237,0.356,0.526,0.356,0.866v14.008c0,0.325-0.119,0.607-0.356,0.844c-0.237,0.236-0.534,0.356-0.89,0.356
			c-0.312,0-0.587-0.12-0.824-0.355c-0.238-0.236-0.356-0.518-0.356-0.843v-6.148h-8.014V99.816z"/>
		<path fill="#CACCE0" d="M111.476,97.475c0.534,0.993,1.454,1.491,2.76,1.491c0.876,0,1.606-0.214,2.193-0.644
			c0.587-0.428,0.954-0.68,1.102-0.757c0.149-0.074,0.312-0.112,0.49-0.112c0.282,0,0.519,0.098,0.712,0.292
			c0.193,0.193,0.289,0.432,0.289,0.715c0,0.33-0.141,0.621-0.423,0.874c-0.519,0.524-1.18,0.942-1.981,1.255
			c-0.801,0.314-1.625,0.47-2.471,0.47c-1.707,0-3.102-0.571-4.185-1.714c-1.083-1.142-1.625-2.627-1.625-4.452
			c0-1.753,0.526-3.221,1.58-4.409c1.053-1.187,2.359-1.781,3.918-1.781c0.846,0,1.632,0.185,2.36,0.555
			c0.727,0.369,1.288,0.836,1.681,1.398c0.393,0.562,0.716,1.216,0.969,1.963c0.252,0.747,0.379,1.388,0.379,1.92
			c0,0.43-0.094,0.73-0.281,0.9c-0.187,0.17-0.528,0.255-1.022,0.255h-7.023C111.045,96.421,111.238,97.015,111.476,97.475z
			 M110.852,94.024h5.944c-0.34-2.255-1.324-3.383-2.95-3.383c-0.961,0-1.638,0.289-2.03,0.868
			c-0.392,0.579-0.632,1.005-0.721,1.281C111.007,93.062,110.926,93.475,110.852,94.024z"/>
		<path fill="#CACCE0" d="M128.974,89.75c0-0.297,0.115-0.546,0.345-0.745c0.23-0.201,0.5-0.301,0.813-0.301
			c0.325,0,0.596,0.1,0.812,0.3c0.215,0.199,0.323,0.448,0.323,0.744v10.088c0,0.311-0.11,0.587-0.331,0.822
			c-0.22,0.236-0.493,0.356-0.816,0.356c-0.323,0-0.595-0.11-0.815-0.33c-0.22-0.22-0.331-0.499-0.331-0.836V99.3
			c-0.566,0.697-1.056,1.158-1.473,1.38c-0.417,0.222-1.012,0.334-1.786,0.334c-1.503,0-2.753-0.58-3.75-1.738
			c-0.997-1.157-1.496-2.618-1.496-4.384c0-1.782,0.497-3.258,1.492-4.431c0.994-1.172,2.241-1.758,3.74-1.758
			c0.712,0,1.28,0.096,1.703,0.289c0.423,0.194,0.946,0.595,1.569,1.203V89.75z M122.852,94.87c0,1.232,0.282,2.226,0.846,2.983
			c0.564,0.758,1.306,1.135,2.226,1.135c0.964,0,1.715-0.361,2.249-1.09c0.534-0.727,0.801-1.759,0.801-3.095
			c0-0.696-0.059-1.271-0.178-1.724c-0.119-0.454-0.382-0.954-0.79-1.504c-0.408-0.548-1.072-0.823-1.992-0.823
			c-0.95,0-1.714,0.374-2.293,1.123C123.141,92.625,122.852,93.623,122.852,94.87z"/>
		<path fill="#CACCE0" d="M134.984,101.015c-0.327,0-0.605-0.116-0.835-0.345c-0.231-0.23-0.345-0.515-0.345-0.857V84.605
			c0-0.326,0.115-0.604,0.345-0.833c0.23-0.229,0.508-0.345,0.835-0.345c0.312,0,0.582,0.116,0.813,0.345
			c0.23,0.229,0.345,0.508,0.345,0.833v15.186c0,0.341-0.111,0.631-0.334,0.868C135.585,100.895,135.311,101.015,134.984,101.015z"
			/>
		<path fill="#CACCE0" d="M138.4,90.952c-0.308,0-0.561-0.1-0.759-0.302c-0.198-0.199-0.296-0.448-0.296-0.745
			c0-0.267,0.104-0.504,0.312-0.713c0.208-0.208,0.468-0.312,0.779-0.312h0.802v-2.492c0-0.326,0.11-0.608,0.329-0.847
			c0.221-0.238,0.493-0.356,0.816-0.356c0.324,0,0.596,0.112,0.816,0.335c0.221,0.223,0.331,0.513,0.331,0.868v2.492h1.023
			c0.297,0,0.55,0.097,0.757,0.289c0.207,0.194,0.311,0.447,0.311,0.758c0,0.297-0.104,0.542-0.311,0.735
			c-0.208,0.192-0.467,0.289-0.779,0.289h-1.001v8.882c0,0.311-0.112,0.586-0.334,0.823c-0.223,0.237-0.489,0.357-0.801,0.357
			c-0.327,0-0.602-0.112-0.824-0.334c-0.223-0.223-0.334-0.504-0.334-0.846v-8.882H138.4z"/>
		<path fill="#CACCE0" d="M147.406,89.63c0.311-0.255,0.726-0.474,1.247-0.655c0.52-0.181,1.01-0.272,1.469-0.272
			c1.247,0,2.271,0.4,3.072,1.203c0.802,0.804,1.203,1.889,1.203,3.256v6.736c0,0.312-0.107,0.584-0.322,0.814
			c-0.216,0.231-0.494,0.346-0.835,0.346c-0.327,0-0.598-0.115-0.813-0.346c-0.216-0.23-0.323-0.502-0.323-0.814V93.34
			c0-0.744-0.245-1.369-0.735-1.876c-0.49-0.505-1.091-0.757-1.804-0.757c-0.712,0-1.327,0.253-1.848,0.761
			c-0.519,0.507-0.778,1.117-0.778,1.833v6.618c0,0.314-0.112,0.583-0.334,0.805c-0.222,0.224-0.49,0.336-0.801,0.336
			c-0.326,0-0.609-0.111-0.846-0.335c-0.237-0.223-0.356-0.491-0.356-0.804V84.655c0-0.342,0.111-0.625,0.334-0.848
			c0.223-0.224,0.512-0.335,0.868-0.335c0.312,0,0.579,0.111,0.801,0.335c0.223,0.223,0.334,0.506,0.334,0.849v5.45L147.406,89.63z"
			/>
		<path fill="#CACCE0" d="M164.411,98.209c0.267,0,0.503,0.108,0.704,0.321c0.201,0.214,0.302,0.46,0.302,0.74
			c0,0.486-0.326,0.898-0.98,1.236c-0.653,0.339-1.462,0.509-2.426,0.509c-1.647,0-2.991-0.571-4.03-1.711
			c-1.039-1.141-1.559-2.615-1.559-4.423c0-1.806,0.527-3.288,1.58-4.443c1.054-1.156,2.405-1.733,4.052-1.733
			c0.95,0,1.75,0.156,2.404,0.466c0.653,0.312,0.98,0.691,0.98,1.136c0,0.326-0.101,0.597-0.302,0.812
			c-0.2,0.216-0.451,0.323-0.748,0.323c-0.104,0-0.201-0.008-0.29-0.022c-0.089-0.015-0.343-0.114-0.76-0.301
			c-0.417-0.185-0.842-0.279-1.274-0.279c-0.952,0-1.727,0.363-2.322,1.088c-0.596,0.726-0.893,1.68-0.893,2.864
			c0,1.168,0.298,2.131,0.893,2.886c0.596,0.755,1.355,1.131,2.278,1.131c0.268,0,0.465-0.014,0.592-0.042
			c0.127-0.029,0.361-0.107,0.704-0.236l0.469-0.172C164.01,98.26,164.217,98.209,164.411,98.209z"/>
		<path fill="#CACCE0" d="M175.122,89.75c0-0.297,0.115-0.546,0.346-0.745c0.229-0.201,0.5-0.301,0.812-0.301
			c0.326,0,0.598,0.1,0.812,0.3c0.216,0.199,0.323,0.448,0.323,0.744v10.088c0,0.311-0.11,0.587-0.331,0.822
			c-0.22,0.236-0.492,0.356-0.816,0.356c-0.322,0-0.595-0.11-0.814-0.33c-0.222-0.22-0.332-0.499-0.332-0.836V99.3
			c-0.566,0.697-1.057,1.158-1.474,1.38c-0.416,0.222-1.011,0.334-1.785,0.334c-1.504,0-2.753-0.58-3.75-1.738
			c-0.997-1.157-1.496-2.618-1.496-4.384c0-1.782,0.497-3.258,1.492-4.431c0.994-1.172,2.241-1.758,3.739-1.758
			c0.713,0,1.28,0.096,1.703,0.289c0.423,0.194,0.946,0.595,1.57,1.203V89.75z M169,94.87c0,1.232,0.281,2.226,0.846,2.983
			c0.563,0.758,1.306,1.135,2.226,1.135c0.964,0,1.714-0.361,2.248-1.09c0.534-0.727,0.801-1.759,0.801-3.095
			c0-0.696-0.059-1.271-0.178-1.724c-0.119-0.454-0.382-0.954-0.789-1.504c-0.408-0.548-1.073-0.823-1.994-0.823
			c-0.949,0-1.714,0.374-2.293,1.123C169.29,92.625,169,93.623,169,94.87z"/>
		<path fill="#CACCE0" d="M182.955,89.527c0.457-0.549,0.988-0.823,1.592-0.823c0.339,0,0.63,0.114,0.875,0.344
			c0.243,0.23,0.365,0.516,0.365,0.855c0,0.253-0.067,0.464-0.202,0.635c-0.135,0.17-0.358,0.315-0.672,0.433l-0.605,0.267
			c-0.09,0.031-0.21,0.089-0.36,0.178c-0.148,0.09-0.466,0.326-0.95,0.711c-0.486,0.386-0.729,1.192-0.729,2.422v5.312
			c0,0.296-0.112,0.563-0.332,0.799c-0.223,0.236-0.491,0.356-0.803,0.356c-0.326,0-0.605-0.116-0.834-0.346
			c-0.23-0.229-0.345-0.499-0.345-0.812V89.727c0-0.281,0.113-0.524,0.342-0.723c0.228-0.201,0.51-0.301,0.848-0.301
			c0.309,0,0.573,0.098,0.795,0.293c0.22,0.197,0.33,0.444,0.33,0.744v0.788L182.955,89.527z"/>
		<path fill="#CACCE0" d="M189.079,97.475c0.536,0.993,1.456,1.491,2.762,1.491c0.875,0,1.605-0.214,2.192-0.644
			c0.586-0.428,0.954-0.68,1.102-0.757c0.147-0.074,0.311-0.112,0.489-0.112c0.281,0,0.518,0.098,0.713,0.292
			c0.192,0.193,0.289,0.432,0.289,0.715c0,0.33-0.141,0.621-0.423,0.874c-0.521,0.524-1.179,0.942-1.981,1.255
			c-0.802,0.314-1.625,0.47-2.471,0.47c-1.707,0-3.103-0.571-4.186-1.714c-1.083-1.142-1.625-2.627-1.625-4.452
			c0-1.753,0.527-3.221,1.581-4.409c1.052-1.187,2.36-1.781,3.919-1.781c0.845,0,1.632,0.185,2.358,0.555
			c0.728,0.369,1.289,0.836,1.682,1.398c0.391,0.562,0.715,1.216,0.968,1.963c0.252,0.747,0.379,1.388,0.379,1.92
			c0,0.43-0.095,0.73-0.281,0.9c-0.188,0.17-0.529,0.255-1.022,0.255h-7.023C188.648,96.421,188.843,97.015,189.079,97.475z
			 M188.457,94.024h5.944c-0.341-2.255-1.325-3.383-2.95-3.383c-0.961,0-1.638,0.289-2.029,0.868
			c-0.392,0.579-0.632,1.005-0.722,1.281C188.611,93.062,188.529,93.475,188.457,94.024z"/>
		<path fill="#CACCE0" d="M205.552,100.51c-0.164,0.351-0.413,0.526-0.744,0.526c-0.468,0-0.699-0.237-0.699-0.713
			c0-0.178,0.029-0.326,0.089-0.444l5.298-14.271c0.148-0.393,0.298-0.662,0.446-0.806c0.148-0.145,0.355-0.217,0.624-0.217
			c0.355,0,0.608,0.059,0.756,0.178c0.148,0.119,0.304,0.394,0.468,0.826l5.296,14.29l0.069,0.444c0,0.476-0.223,0.713-0.669,0.713
			c-0.343,0-0.596-0.177-0.759-0.532l-1.234-3.252h-7.705L205.552,100.51z M207.203,95.938h6.835l-3.411-9.351L207.203,95.938z"/>
		<path fill="#CACCE0" d="M226.927,99.772c-0.847,0.813-1.975,1.22-3.385,1.22c-1.424,0-2.459-0.307-3.106-0.921
			c-0.645-0.612-1.05-1.153-1.214-1.619c-0.162-0.464-0.244-1.135-0.244-2.006v-6.878c0-0.221,0.078-0.409,0.234-0.564
			c0.155-0.155,0.345-0.234,0.568-0.234c0.192,0,0.359,0.079,0.5,0.234c0.14,0.155,0.211,0.343,0.211,0.564v6.895
			c0,1.078,0.271,1.877,0.813,2.394c0.542,0.518,1.286,0.776,2.237,0.776c0.904,0,1.632-0.246,2.181-0.742
			c0.55-0.496,0.824-1.305,0.824-2.428v-6.895c0-0.221,0.07-0.409,0.213-0.564c0.14-0.155,0.308-0.234,0.5-0.234
			c0.207,0,0.392,0.081,0.558,0.244c0.162,0.163,0.243,0.347,0.243,0.554v6.878c0,0.871-0.077,1.534-0.233,1.984
			C227.67,98.881,227.371,99.328,226.927,99.772z"/>
		<path fill="#CACCE0" d="M230.62,92.007c0-0.916,0.374-1.685,1.125-2.305c0.749-0.621,1.688-0.932,2.817-0.932
			c0.933,0,1.823,0.209,2.669,0.63c0.846,0.419,1.27,0.841,1.27,1.268c0,0.192-0.067,0.361-0.202,0.509
			c-0.133,0.146-0.303,0.219-0.512,0.219c-0.118,0-0.23-0.021-0.333-0.065c-0.104-0.044-0.411-0.248-0.925-0.612
			c-0.513-0.365-1.176-0.547-1.992-0.547c-0.683,0-1.236,0.16-1.658,0.477c-0.423,0.319-0.635,0.73-0.635,1.234
			c0,0.252,0.026,0.433,0.077,0.544c0.053,0.111,0.189,0.248,0.413,0.411c0.222,0.164,0.475,0.315,0.756,0.455
			c0.283,0.14,0.936,0.403,1.961,0.789c1.023,0.384,1.835,0.855,2.436,1.41c0.6,0.556,0.903,1.24,0.903,2.055
			c0,0.962-0.417,1.778-1.249,2.444c-0.831,0.666-1.863,1-3.095,1c-0.518,0-0.997-0.061-1.435-0.178
			c-0.439-0.119-1.024-0.386-1.759-0.801c-0.734-0.417-1.102-0.846-1.102-1.292c0-0.208,0.075-0.393,0.223-0.557
			c0.149-0.162,0.312-0.244,0.49-0.244c0.148,0,0.286,0.04,0.413,0.122c0.126,0.08,0.447,0.358,0.968,0.834
			c0.518,0.477,1.29,0.714,2.317,0.714c0.74,0,1.368-0.197,1.88-0.588c0.512-0.392,0.768-0.882,0.768-1.475
			c0-0.754-0.677-1.411-2.027-1.973l-1.091-0.421c-1.38-0.577-2.305-1.076-2.772-1.496C230.855,93.215,230.62,92.673,230.62,92.007z
			"/>
		<path fill="#CACCE0" d="M240.407,90.262c-0.19,0-0.354-0.064-0.493-0.19c-0.14-0.126-0.21-0.278-0.21-0.455
			c0-0.194,0.071-0.353,0.213-0.48c0.14-0.126,0.314-0.189,0.522-0.189h0.981v-2.849c0-0.238,0.073-0.437,0.218-0.602
			c0.145-0.163,0.322-0.245,0.526-0.245c0.203,0,0.383,0.079,0.536,0.235c0.156,0.155,0.232,0.351,0.232,0.59v2.871h1.024
			c0.178,0,0.341,0.067,0.489,0.201c0.148,0.133,0.224,0.297,0.224,0.489c0,0.178-0.071,0.326-0.213,0.446
			c-0.14,0.118-0.315,0.178-0.524,0.178h-1.001v9.951c0,0.223-0.074,0.409-0.224,0.555c-0.147,0.149-0.326,0.223-0.533,0.223
			c-0.209,0-0.386-0.074-0.535-0.223c-0.148-0.147-0.221-0.325-0.221-0.532v-9.975H240.407z"/>
		<path fill="#CACCE0" d="M249.189,88.948c0.263-0.148,0.511-0.222,0.746-0.222c0.265,0,0.484,0.082,0.658,0.244
			c0.175,0.164,0.263,0.364,0.263,0.601c0,0.223-0.062,0.398-0.188,0.523c-0.124,0.127-0.466,0.289-1.027,0.49
			c-0.561,0.202-1.01,0.631-1.349,1.291c-0.34,0.661-0.508,1.644-0.508,2.95l-0.045,5.455c0,0.207-0.069,0.386-0.202,0.534
			c-0.138,0.148-0.303,0.222-0.497,0.222c-0.21,0-0.399-0.074-0.566-0.222c-0.165-0.148-0.248-0.326-0.248-0.534V89.571
			c0-0.223,0.078-0.404,0.233-0.545c0.157-0.14,0.346-0.211,0.568-0.211c0.208,0,0.386,0.082,0.534,0.244
			c0.149,0.164,0.223,0.357,0.223,0.58l-0.045,1.269c0.263-0.579,0.497-1.001,0.703-1.269
			C248.647,89.371,248.897,89.141,249.189,88.948z"/>
		<path fill="#CACCE0" d="M259.807,89.561c0-0.219,0.075-0.406,0.229-0.56c0.154-0.153,0.341-0.23,0.56-0.23
			c0.205,0,0.377,0.071,0.516,0.211c0.137,0.141,0.207,0.322,0.207,0.545v10.755c0,0.206-0.071,0.384-0.215,0.532
			c-0.145,0.148-0.318,0.222-0.52,0.222c-0.215,0-0.4-0.083-0.551-0.252c-0.152-0.169-0.226-0.37-0.226-0.606V99.1
			c-0.553,0.742-1.072,1.251-1.556,1.524c-0.485,0.275-1.115,0.413-1.892,0.413c-1.477,0-2.696-0.576-3.659-1.728
			c-0.961-1.152-1.444-2.622-1.444-4.404c0-1.77,0.477-3.235,1.43-4.394c0.952-1.16,2.158-1.739,3.614-1.739
			c0.746,0,1.356,0.11,1.831,0.334c0.476,0.223,1.034,0.66,1.675,1.314V89.561z M252.906,94.88c0,1.489,0.31,2.671,0.935,3.548
			c0.624,0.878,1.469,1.316,2.537,1.316c2.329,0,3.496-1.658,3.496-4.975c0-0.907-0.059-1.606-0.178-2.097
			c-0.119-0.491-0.417-1.053-0.891-1.685c-0.473-0.633-1.239-0.949-2.292-0.949c-1.113,0-1.993,0.435-2.638,1.306
			C253.227,92.215,252.906,93.394,252.906,94.88z"/>
		<path fill="#CACCE0" d="M265.171,101.036c-0.222,0-0.409-0.074-0.557-0.222c-0.149-0.148-0.222-0.349-0.222-0.601V84.229
			c0-0.207,0.073-0.385,0.222-0.534c0.148-0.149,0.326-0.223,0.534-0.223c0.207,0,0.386,0.074,0.534,0.223
			c0.148,0.149,0.222,0.326,0.222,0.534v15.941c0,0.236-0.069,0.442-0.21,0.612C265.555,100.95,265.378,101.036,265.171,101.036z"/>
		<path fill="#CACCE0" d="M269.824,85.186c0.252,0,0.473,0.104,0.668,0.312c0.193,0.209,0.289,0.461,0.289,0.758
			c0,0.282-0.089,0.52-0.267,0.712c-0.178,0.192-0.417,0.289-0.714,0.289c-0.295,0-0.547-0.097-0.755-0.289
			c-0.209-0.192-0.314-0.43-0.314-0.712c0-0.297,0.104-0.549,0.314-0.758C269.252,85.289,269.51,85.186,269.824,85.186z
			 M269.779,100.992c-0.223,0-0.409-0.074-0.555-0.223c-0.149-0.147-0.223-0.332-0.223-0.555v-10.71
			c0-0.207,0.074-0.385,0.223-0.533c0.147-0.147,0.34-0.222,0.576-0.222c0.209,0,0.38,0.075,0.513,0.222
			c0.135,0.148,0.201,0.326,0.201,0.533v10.71c0,0.223-0.066,0.408-0.201,0.555C270.179,100.918,270.002,100.992,269.779,100.992z"
			/>
		<path fill="#CACCE0" d="M281.535,89.561c0-0.219,0.075-0.406,0.229-0.56c0.154-0.153,0.339-0.23,0.56-0.23
			c0.204,0,0.376,0.071,0.516,0.211c0.137,0.141,0.206,0.322,0.206,0.545v10.755c0,0.206-0.07,0.384-0.214,0.532
			c-0.144,0.148-0.318,0.222-0.521,0.222c-0.214,0-0.399-0.083-0.55-0.252c-0.152-0.169-0.226-0.37-0.226-0.606V99.1
			c-0.553,0.742-1.072,1.251-1.556,1.524c-0.485,0.275-1.116,0.413-1.892,0.413c-1.477,0-2.696-0.576-3.66-1.728
			c-0.96-1.152-1.442-2.622-1.442-4.404c0-1.77,0.477-3.235,1.43-4.394c0.952-1.16,2.156-1.739,3.614-1.739
			c0.746,0,1.356,0.11,1.83,0.334c0.477,0.223,1.035,0.66,1.677,1.314V89.561z M274.632,94.88c0,1.489,0.311,2.671,0.936,3.548
			c0.623,0.878,1.469,1.316,2.537,1.316c2.329,0,3.496-1.658,3.496-4.975c0-0.907-0.061-1.606-0.178-2.097
			c-0.119-0.491-0.417-1.053-0.891-1.685c-0.474-0.633-1.239-0.949-2.294-0.949c-1.112,0-1.992,0.435-2.636,1.306
			C274.955,92.215,274.632,93.394,274.632,94.88z"/>
	</g>
</g>
<g id="Layer_2">
</g>
</svg>
