<?xml version="1.0" encoding="utf-8"?>
<!-- Generator: Adobe Illustrator 17.1.0, SVG Export Plug-In . SVG Version: 6.00 Build 0)  -->
<!DOCTYPE svg PUBLIC "-//W3C//DTD SVG 1.1//EN" "http://www.w3.org/Graphics/SVG/1.1/DTD/svg11.dtd">
<svg version="1.1" xmlns="http://www.w3.org/2000/svg" xmlns:xlink="http://www.w3.org/1999/xlink" x="0px" y="0px"
	 viewBox="0 0 360 140" enable-background="new 0 0 360 140" xml:space="preserve">
<g id="Layer_1">
	<path fill="#CACCE0" d="M105.8,55.293c-0.02,0.074-0.153,0.166-0.469,0.278c-3.453,1.225-5.917,4.499-5.917,8.344
		c0,0.091,0.011,0.179,0.016,0.266c1.765,0.374,3.274,0.997,4.552,1.785c1.221,0.755,2.22,1.686,2.993,2.762
		c0.06,0.084,0.12,0.168,0.175,0.252c0.567,0.842,1.001,1.768,1.303,2.767c0.297,0.977,0.463,2.025,0.503,3.128
		c0.004,0.142,0.007,0.281,0.007,0.421c0,1.836-0.432,3.637-1.256,5.248c-0.534,1.052-1.236,2.022-2.091,2.873
		c-0.314,0.312-0.647,0.607-0.995,0.882c-1.218,0.959-2.62,1.661-4.111,2.073c-1.048,0.288-2.142,0.432-3.243,0.416
		c-0.41-0.007-0.817-0.033-1.221-0.084c-0.627-0.075-1.245-0.204-1.85-0.379c-1.987-0.574-3.823-1.668-5.314-3.188
		c-0.598-0.609-1.125-1.269-1.577-1.971c-0.691-1.077-1.214-2.251-1.568-3.478c-0.026-0.095-0.053-0.188-0.075-0.281
		c-0.186-0.698-0.317-1.411-0.397-2.133c-0.077-0.738-0.102-1.484-0.071-2.228c0.002-0.075,0.004-0.151,0.009-0.226
		c0.062-1.07,0.219-2.107,0.465-3.103c0.981-3.99,3.329-7.356,6.078-9.682c1.832-1.573,3.907-2.694,5.917-3.469
		c0.598-0.228,1.19-0.43,1.77-0.6c0.377-0.109,0.744-0.208,1.103-0.297c0.988-0.241,1.914-0.399,2.734-0.49
		c0.709-0.078,1.338-0.106,1.861-0.095c0.099,0.002,0.192,0.01,0.28,0.021c-2.708-1.244-5.709-1.956-8.881-1.956
		c-11.784,0-21.361,9.578-21.361,21.361c0,11.787,9.576,21.361,21.361,21.361c11.785,0,21.361-9.574,21.361-21.361
		C117.889,66.052,112.943,58.752,105.8,55.293z"/>
	<polygon fill="#CACCE0" points="136.329,66.244 141.329,79.433 146.167,66.244 152.429,66.244 144.242,86.466 138.308,86.466 
		129.79,66.244 	"/>
	<path fill="#CACCE0" d="M163.091,86.961c-6.484,0-10.551-4.561-10.551-10.606c0-6.045,4.067-10.606,10.551-10.606
		c6.539,0,10.606,4.561,10.606,10.606C173.697,82.4,169.63,86.961,163.091,86.961 M163.091,70.365c-3.132,0-4.672,2.749-4.672,6.045
		c0,3.243,1.54,5.934,4.672,5.934c3.132,0,4.67-2.691,4.67-5.934C167.76,73.114,166.223,70.365,163.091,70.365"/>
	<path fill="#CACCE0" d="M196.225,58.001v28.081c-2.417,0.496-5.219,0.879-8.626,0.879c-6.98,0-11.486-3.682-11.486-10.717
		c0-5.934,4.067-10.495,10.165-10.495c1.759,0,3.462,0.385,4.397,0.769v-8.517H196.225z M190.676,71.3
		c-0.879-0.494-2.253-0.935-3.956-0.935c-3.021,0-4.725,2.583-4.725,5.879c0,4.012,2.583,6.047,5.713,6.047
		c1.101,0,2.2-0.058,2.968-0.221V71.3z"/>
	<path fill="#CACCE0" d="M198.809,76.797c0-6.375,4.725-11.047,11.483-11.047c3.354,0,6.761,0.824,8.683,1.593v19.126h-4.946
		l-0.383-1.761c-1.154,1.32-2.804,2.255-5.443,2.255C202.874,86.962,198.809,83.059,198.809,76.797 M213.372,70.916
		c-0.605-0.166-1.814-0.385-3.188-0.385c-2.694,0-5.496,2.089-5.496,6.045c0,3.901,2.197,5.77,4.672,5.77
		c1.867,0,3.352-0.988,4.012-2.089V70.916z"/>
	<path fill="#CACCE0" d="M229.691,57.507c1.484,0,3.298,0.277,4.286,0.496v4.833c-0.879-0.108-2.364-0.219-3.132-0.219
		c-1.318,0-1.814,0.219-2.253,0.605c-0.385,0.385-0.496,0.935-0.496,1.814v1.209h5.113v4.889h-5.113v15.333h-5.549V64.595
		c0-2.361,0.771-4.12,2.034-5.33C225.79,58.111,227.658,57.507,229.691,57.507"/>
	<path fill="#CACCE0" d="M244.308,86.961c-6.539,0-10.606-4.561-10.606-10.606c0-6.045,4.067-10.606,10.606-10.606
		c6.539,0,10.551,4.561,10.551,10.606C254.859,82.4,250.847,86.961,244.308,86.961 M244.308,70.365
		c-3.132,0-4.672,2.749-4.672,6.045c0,3.243,1.54,5.934,4.672,5.934c3.132,0,4.672-2.691,4.672-5.934
		C248.98,73.114,247.44,70.365,244.308,70.365"/>
	<path fill="#CACCE0" d="M271.728,75.367c0-3.021-1.537-4.561-4.616-4.561c-1.537,0-3.241,0.275-4.12,0.494v15.167h-5.549V67.344
		c2.527-0.879,6.154-1.595,9.725-1.595c6.431,0,10.167,3.188,10.167,8.517v12.201h-5.607V75.367z"/>
	<path fill="#CACCE0" d="M279.917,76.244c0-6.428,4.067-10.548,9.946-10.548c5.934,0,9.397,4.614,9.397,10.276
		c0,0.769-0.055,1.812-0.111,2.253h-13.572c0.275,2.857,2.142,4.395,5.824,4.395c3.132,0,5.66-0.658,7.091-1.099v3.684
		c-1.814,0.877-4.178,1.701-7.31,1.701C284.037,86.905,279.917,83.115,279.917,76.244 M294.149,74.157
		c-0.166-2.089-1.648-3.792-4.286-3.792c-2.638,0-3.956,1.429-4.175,3.792H294.149z"/>
</g>
<g id="Layer_2">
</g>
</svg>
