<?xml version="1.0" encoding="utf-8"?>
<!-- Generator: Adobe Illustrator 17.1.0, SVG Export Plug-In . SVG Version: 6.00 Build 0)  -->
<!DOCTYPE svg PUBLIC "-//W3C//DTD SVG 1.1//EN" "http://www.w3.org/Graphics/SVG/1.1/DTD/svg11.dtd">
<svg version="1.1" xmlns="http://www.w3.org/2000/svg" xmlns:xlink="http://www.w3.org/1999/xlink" x="0px" y="0px"
	 viewBox="0 0 360 140" enable-background="new 0 0 360 140" xml:space="preserve">
<g id="Layer_1">
	<path fill="#CACCE0" d="M157.636,71.538c-0.042-1.329-0.101-3.521-0.159-4.778c-0.06-1.255-0.175-3.44-0.24-4.437
		c-0.064-0.999-0.266-4.092-0.346-5.288c-0.082-1.194-0.265-3.334-0.288-3.555c-0.024-0.222-0.066-0.23-0.115-0.23
		c-0.053,0-0.049,0.005-0.108,0.082s-0.462,0.707-0.807,1.328c-0.345,0.616-1.652,3.193-2.089,4.093
		c-0.439,0.897-2.357,5.313-2.533,5.727c-0.173,0.408-1.879,4.745-2.092,5.31c0.023,0.064,1.064,2.351,1.413,3.09
		c0.347,0.744,1.684,3.539,2.354,4.932c0.667,1.395,1.386,2.79,2.003,4.001c0.621,1.212,1.365,2.591,1.911,3.629
		c0.545,1.038,0.881,1.559,0.881,1.559s0.077-0.916,0.091-1.462c0.022-0.717,0.127-3.909,0.141-5.244
		c0.018-1.336,0.043-3.697,0.051-4.9C157.706,74.191,157.677,72.864,157.636,71.538 M135.214,67.878
		c-0.254-0.563-0.892-1.917-1.274-2.733c-0.381-0.816-0.943-2.019-1.351-2.875c-0.411-0.853-1.305-2.699-1.658-3.421
		c-0.351-0.719-0.746-1.524-1.187-2.387c-0.439-0.863-1.279-2.45-1.505-2.847c-0.226-0.394-1.214-2.015-1.4-2.335
		c-0.19-0.319-0.394-0.674-0.428-0.674c-0.032,0-0.16,0.144-0.239,0.247c-0.076,0.1-0.478,0.567-0.684,0.88
		c-0.209,0.316-0.786,1.189-1.059,1.618c-0.272,0.428-0.98,1.559-1.183,1.899c-0.204,0.344-0.812,1.376-0.98,1.686
		c-0.169,0.307-0.715,1.267-1.013,1.87c-0.301,0.604-0.837,1.668-1.179,2.416c-0.347,0.748-0.731,1.554-1.017,2.201
		c-0.284,0.645-0.925,2.065-1.156,2.615c-0.232,0.549-0.595,1.365-0.797,1.87c-0.204,0.507-0.576,1.442-0.826,2.035
		c0,0,1.883,4.399,2.375,5.463c0.492,1.066,1.559,3.429,2.034,4.392c0.479,0.962,1.615,3.27,2.234,4.401
		c0.613,1.128,1.434,2.609,1.764,3.125c0.328,0.516,1.119,1.718,1.309,1.972c0.188,0.255,0.337,0.454,0.381,0.454
		c0.042,0,0.595-0.892,0.879-1.365c0.285-0.471,1.168-1.924,1.371-2.275c0.204-0.352,0.974-1.661,1.363-2.375
		c0.386-0.712,1.123-2.041,1.374-2.552c0.253-0.512,0.735-1.52,1.058-2.266c0.322-0.75,0.822-1.872,1.106-2.558
		c0.286-0.684,0.807-1.869,1.09-2.607c0.286-0.739,0.958-2.433,1.145-2.997c0.188-0.563,0.276-0.795,0.319-0.983
		C136.049,69.668,135.47,68.443,135.214,67.878z M102.007,65.715c-0.513-1.209-1.84-4.385-2.183-5.177
		c-0.347-0.789-2.095-4.864-2.662-6.131c-0.569-1.267-0.636-1.326-0.7-1.326c-0.067,0-0.114,0.083-0.132,0.245
		c-0.014,0.158-0.099,1.29-0.188,2.558c-0.093,1.266-0.263,4.828-0.308,5.692c-0.04,0.865-0.114,4.535-0.139,5.941
		c-0.026,1.407,0.025,4.717,0.042,5.693c0.015,0.978,0.142,4.75,0.169,5.879c0.036,1.127,0.15,3.446,0.191,4.416
		c0.044,0.973,0.207,3.507,0.224,3.613c0.576-1.068,2.354-4.739,2.957-6.088c0.599-1.348,2.101-4.79,2.542-5.868
		c0.448-1.077,1.831-4.65,2.012-5.11C103.643,69.626,102.516,66.926,102.007,65.715z M170.029,77.784
		c-0.217,3.006-0.424,5.97-0.812,8.459c-0.388,2.491-0.93,5.232-1.341,6.564c-0.403,1.29-0.839,2.81-1.525,3.969
		c-0.684,1.162-3.394,4.992-9.009,4.992c-5.614,0-7.86-3.687-8.403-4.412c-0.52-0.688-2.478-3.816-3.136-5.038
		c-0.658-1.227-2.66-5.031-3.02-5.765c-0.194,0.334-2.027,3.945-2.813,5.274c-0.788,1.325-2.532,4.124-3.653,5.336
		c-1.121,1.216-4.815,4.63-9.964,4.63c-5.151,0-9.035-3.598-9.823-4.437c-0.944-1.006-2.492-3.221-3.201-4.396
		c-0.708-1.174-2.621-4.526-3.02-5.312c-0.077,0.156-1.625,2.953-2.478,4.347c-0.852,1.393-2.531,4.049-3.758,5.297
		c-1.302,1.33-3.993,4.522-8.751,4.522c-6.064,0-8.103-4.739-8.826-6.389c-0.687-1.569-1.047-3.249-1.213-4.051
		c-0.168-0.798-0.867-4.11-1.045-5.221c-0.182-1.109-0.698-4.86-0.815-6.047c-0.115-1.184-0.308-4.217-0.373-5.609
		c-0.064-1.392-0.182-4.898-0.157-6.6c0.028-1.701,0.106-4.422,0.209-6.075c0.103-1.649,0.308-4.614,0.49-5.967
		c0.18-1.354,0.711-5.351,1.148-7.067c0.44-1.713,0.839-3.48,1.601-4.821c0.76-1.341,1.961-3.403,4.104-4.718
		c2.141-1.315,3.847-1.471,5.434-1.471c1.491,0,4.516,0.337,7.304,3.249c1.759,1.839,3.692,5.48,4.33,6.735
		c0.641,1.26,2.602,5.355,2.602,5.355s2.329-4.384,3.575-6.423c1.084-1.778,2.882-4.932,6.157-7.117
		c2.333-1.559,5.032-1.837,6.136-1.819c1.104,0.019,4.041,0.028,6.919,1.819c2.505,1.561,4.072,4.119,5.253,5.977
		c1.18,1.856,2.924,4.833,4.065,7.012c0.736-1.3,2.311-3.931,3.356-5.549c1.084-1.676,3.281-4.793,4.13-5.609
		c0.947-0.911,2.67-2.773,6.066-3.379c2.459-0.438,4.966-0.282,6.887,0.947c2.169,1.39,3.149,2.967,3.896,4.36
		c0.749,1.392,1.622,4.248,2.016,5.841c0.41,1.676,0.799,3.468,1.084,6.485c0.283,3.016,0.426,5.094,0.476,5.984
		c0.053,0.888,0.144,5.467,0.144,7.541C170.275,71.26,170.249,74.782,170.029,77.784z"/>
	<g>
		<rect x="184.309" y="39.635" fill="#CACCE0" width="0.959" height="60.534"/>
		<path fill="#CACCE0" d="M200.544,73.365h3.194l-1.57-4.163L200.544,73.365 M201.771,68.43h0.866l3.181,8.119h-0.829l-0.989-2.525
			h-3.695l-0.979,2.525h-0.829L201.771,68.43z"/>
		<path fill="#CACCE0" d="M211.402,76.548h-0.659v-1.058h-0.021c-0.376,0.786-1.149,1.229-2.026,1.229
			c-1.479,0-2.058-0.863-2.058-2.23v-3.808h0.716v3.821c0.036,1.056,0.434,1.614,1.57,1.614c1.228,0,1.762-1.16,1.762-2.353v-3.082
			h0.716V76.548"/>
		<path fill="#CACCE0" d="M216.5,72.398c-0.036-0.887-0.717-1.284-1.537-1.284c-0.639,0-1.389,0.251-1.389,1.011
			c0,0.638,0.728,0.865,1.218,0.989l0.956,0.217c0.818,0.123,1.67,0.602,1.67,1.625c0,1.276-1.264,1.763-2.353,1.763
			c-1.366,0-2.3-0.637-2.411-2.069h0.716c0.057,0.965,0.773,1.466,1.728,1.466c0.672,0,1.604-0.296,1.604-1.114
			c0-0.68-0.637-0.911-1.286-1.068l-0.922-0.204c-0.932-0.251-1.638-0.569-1.638-1.57c0-1.193,1.173-1.649,2.208-1.649
			c1.172,0,2.104,0.614,2.148,1.888H216.5"/>
		<path fill="#CACCE0" d="M219.818,70.681h1.196v0.6h-1.196v3.96c0,0.467,0.07,0.739,0.58,0.773c0.206,0,0.409-0.011,0.616-0.033
			v0.614c-0.218,0-0.421,0.024-0.638,0.024c-0.954,0-1.286-0.32-1.274-1.321v-4.017h-1.022v-0.6h1.022v-1.764h0.716V70.681"/>
		<path fill="#CACCE0" d="M222.274,70.681h0.663v1.375h0.021c0.362-0.943,1.161-1.5,2.217-1.456v0.716
			c-1.299-0.067-2.184,0.888-2.184,2.105v3.126h-0.717V70.681"/>
		<path fill="#CACCE0" d="M229.837,73.342h-0.023c-0.091,0.171-0.41,0.228-0.604,0.261c-1.218,0.216-2.728,0.203-2.728,1.352
			c0,0.716,0.634,1.16,1.307,1.16c1.091,0,2.058-0.694,2.048-1.842L229.837,73.342 M226.016,72.478
			c0.069-1.376,1.037-1.967,2.379-1.967c1.031,0,2.158,0.318,2.158,1.888v3.117c0,0.273,0.139,0.43,0.421,0.43
			c0.078,0,0.17-0.021,0.227-0.043v0.601c-0.159,0.033-0.273,0.044-0.467,0.044c-0.727,0-0.843-0.409-0.843-1.022h-0.021
			c-0.5,0.762-1.011,1.193-2.137,1.193c-1.083,0-1.967-0.534-1.967-1.717c0-1.648,1.601-1.705,3.15-1.888
			c0.591-0.068,0.922-0.147,0.922-0.796c0-0.967-0.695-1.204-1.537-1.204c-0.885,0-1.546,0.409-1.568,1.364L226.016,72.478
			L226.016,72.478z"/>
		<rect x="232.223" y="68.43" fill="#CACCE0" width="0.716" height="8.119"/>
		<path fill="#CACCE0" d="M234.556,70.681h0.718v5.867h-0.718V70.681z M234.556,68.43h0.718v1.148h-0.718V68.43z"/>
		<path fill="#CACCE0" d="M240.63,73.342h-0.026c-0.089,0.171-0.406,0.228-0.6,0.261c-1.217,0.216-2.731,0.203-2.731,1.352
			c0,0.716,0.638,1.16,1.309,1.16c1.091,0,2.058-0.694,2.049-1.842L240.63,73.342 M236.807,72.478
			c0.068-1.376,1.033-1.967,2.376-1.967c1.037,0,2.162,0.318,2.162,1.888v3.117c0,0.273,0.136,0.43,0.418,0.43
			c0.081,0,0.174-0.021,0.23-0.043v0.601c-0.16,0.033-0.275,0.044-0.469,0.044c-0.728,0-0.838-0.409-0.838-1.022h-0.024
			c-0.5,0.762-1.013,1.193-2.139,1.193c-1.081,0-1.968-0.534-1.968-1.717c0-1.648,1.604-1.705,3.152-1.888
			c0.591-0.068,0.922-0.147,0.922-0.796c0-0.967-0.696-1.204-1.537-1.204c-0.887,0-1.545,0.409-1.57,1.364L236.807,72.478
			L236.807,72.478z"/>
		<path fill="#CACCE0" d="M242.995,70.681h0.716v1.013h0.021c0.261-0.704,1.047-1.182,1.878-1.182c1.649,0,2.148,0.863,2.148,2.263
			v3.774h-0.716v-3.661c0-1.015-0.331-1.774-1.49-1.774c-1.14,0-1.82,0.864-1.841,2.012v3.422h-0.716L242.995,70.681"/>
		<path fill="#CACCE0" d="M200.167,87.716h2.663c1.148,0.011,2.137-0.375,2.137-1.671c0-1.033-0.784-1.57-2.137-1.57h-2.663V87.716
			 M200.167,83.816h2.663c1.24,0,1.83-0.613,1.83-1.377c0-1.009-0.626-1.522-1.83-1.522h-2.663V83.816z M199.395,80.255h3.436
			c1.364,0,2.603,0.479,2.603,1.989c0,0.853-0.569,1.639-1.41,1.82v0.022c1.048,0.139,1.716,0.924,1.716,1.98
			c0,0.773-0.271,2.309-2.91,2.309h-3.436V80.255z"/>
		<path fill="#CACCE0" d="M207.07,82.509h0.66v1.375h0.021c0.367-0.944,1.161-1.503,2.219-1.456v0.716
			c-1.296-0.068-2.183,0.888-2.183,2.104v3.128h-0.716V82.509"/>
		<path fill="#CACCE0" d="M211.099,85.443c0,1.25,0.683,2.501,2.058,2.501c1.376,0,2.058-1.25,2.058-2.501
			c0-1.251-0.681-2.503-2.058-2.503C211.782,82.94,211.099,84.191,211.099,85.443 M215.932,85.443c0,1.682-0.98,3.103-2.775,3.103
			c-1.799,0-2.777-1.421-2.777-3.103c0-1.684,0.978-3.105,2.777-3.105C214.952,82.338,215.932,83.759,215.932,85.443z"/>
		<path fill="#CACCE0" d="M220.981,85.169h-0.024c-0.091,0.171-0.41,0.227-0.601,0.263c-1.215,0.213-2.73,0.203-2.73,1.351
			c0,0.718,0.637,1.16,1.307,1.16c1.091,0,2.058-0.694,2.048-1.841L220.981,85.169 M217.159,84.304
			c0.069-1.374,1.034-1.966,2.376-1.966c1.037,0,2.162,0.317,2.162,1.888v3.116c0,0.272,0.134,0.431,0.419,0.431
			c0.079,0,0.173-0.022,0.23-0.046v0.604c-0.163,0.033-0.277,0.045-0.469,0.045c-0.729,0-0.841-0.41-0.841-1.023h-0.024
			c-0.5,0.762-1.011,1.193-2.137,1.193c-1.081,0-1.967-0.534-1.967-1.717c0-1.648,1.602-1.705,3.149-1.887
			c0.591-0.069,0.922-0.147,0.922-0.797c0-0.966-0.694-1.205-1.535-1.205c-0.889,0-1.548,0.409-1.57,1.364L217.159,84.304
			L217.159,84.304z"/>
		<path fill="#CACCE0" d="M225.746,87.943c1.523,0,2.058-1.284,2.058-2.501c0-1.217-0.535-2.503-2.058-2.503
			c-1.368,0-1.923,1.286-1.923,2.503C223.822,86.659,224.378,87.943,225.746,87.943 M228.518,88.376h-0.657V87.26h-0.024
			c-0.307,0.762-1.239,1.285-2.09,1.285c-1.787,0-2.64-1.442-2.64-3.103c0-1.661,0.853-3.105,2.64-3.105
			c0.875,0,1.728,0.441,2.034,1.283h0.024v-3.366h0.714V88.376z"/>
		<path fill="#CACCE0" d="M234.251,84.35c-0.192-0.876-0.728-1.41-1.66-1.41c-1.376,0-2.058,1.251-2.058,2.503
			c0,1.25,0.683,2.501,2.058,2.501c0.886,0,1.616-0.694,1.705-1.673h0.716c-0.192,1.413-1.114,2.276-2.421,2.276
			c-1.798,0-2.775-1.421-2.775-3.103c0-1.684,0.976-3.105,2.775-3.105c1.25,0,2.217,0.671,2.376,2.013h-0.716"/>
		<path fill="#CACCE0" d="M239.994,85.169h-0.021c-0.092,0.171-0.41,0.227-0.604,0.263c-1.218,0.213-2.73,0.203-2.73,1.351
			c0,0.718,0.636,1.16,1.308,1.16c1.093,0,2.058-0.694,2.047-1.841L239.994,85.169 M236.173,84.304
			c0.068-1.374,1.036-1.966,2.375-1.966c1.037,0,2.162,0.317,2.162,1.888v3.116c0,0.272,0.138,0.431,0.423,0.431
			c0.08,0,0.169-0.022,0.226-0.046v0.604c-0.16,0.033-0.272,0.045-0.467,0.045c-0.726,0-0.84-0.41-0.84-1.023h-0.022
			c-0.501,0.762-1.015,1.193-2.139,1.193c-1.081,0-1.967-0.534-1.967-1.717c0-1.648,1.603-1.705,3.149-1.887
			c0.592-0.069,0.922-0.147,0.922-0.797c0-0.966-0.694-1.205-1.535-1.205c-0.887,0-1.546,0.409-1.568,1.364L236.173,84.304
			L236.173,84.304z"/>
		<path fill="#CACCE0" d="M246.602,84.226c-0.048-1.275-0.979-1.888-2.15-1.888c-1.037,0-2.207,0.456-2.207,1.649
			c0,0.999,0.704,1.317,1.637,1.569l0.922,0.205c0.649,0.159,1.285,0.387,1.285,1.068c0,0.819-0.933,1.115-1.604,1.115
			c-0.954,0-1.67-0.501-1.729-1.466h-0.718c0.117,1.432,1.05,2.068,2.414,2.068c1.091,0,2.353-0.487,2.353-1.762
			c0-1.022-0.852-1.501-1.673-1.625l-0.954-0.216c-0.491-0.125-1.217-0.353-1.217-0.99c0-0.761,0.751-1.012,1.386-1.012
			c0.821,0,1.504,0.396,1.536,1.286H246.602"/>
		<path fill="#CACCE0" d="M249.204,82.509h1.195v0.601h-1.195v3.958c0,0.467,0.068,0.739,0.582,0.773
			c0.203,0,0.408-0.012,0.613-0.033v0.613c-0.216,0-0.422,0.022-0.636,0.022c-0.957,0-1.285-0.317-1.276-1.318V83.11h-1.023v-0.601
			h1.023v-1.763h0.717L249.204,82.509"/>
		<path fill="#CACCE0" d="M251.674,88.376h0.716v-5.869h-0.716V88.376z M251.674,81.405h0.716v-1.149h-0.716V81.405z"/>
		<path fill="#CACCE0" d="M253.982,88.376h0.716v-3.423c0.021-1.149,0.704-2.013,1.843-2.013c1.159,0,1.489,0.762,1.489,1.774v3.662
			h0.716v-3.774c0-1.399-0.501-2.264-2.15-2.264c-0.827,0-1.613,0.477-1.877,1.182h-0.021v-1.012h-0.716L253.982,88.376"/>
		<path fill="#CACCE0" d="M264.569,85.375c0-1.149-0.535-2.435-1.888-2.435c-1.366,0-1.933,1.217-1.933,2.435
			c0,1.182,0.613,2.329,1.933,2.329C263.921,87.705,264.569,86.568,264.569,85.375 M265.285,87.899
			c-0.012,1.753-0.683,2.819-2.604,2.819c-1.172,0-2.333-0.523-2.435-1.773h0.718c0.161,0.864,0.92,1.172,1.717,1.172
			c1.317,0,1.888-0.785,1.888-2.217v-0.795h-0.022c-0.331,0.716-1.023,1.205-1.865,1.205c-1.876,0-2.649-1.342-2.649-3.013
			c0-1.616,0.954-2.957,2.649-2.957c0.852,0,1.58,0.534,1.865,1.182h0.022v-1.012h0.717L265.285,87.899L265.285,87.899z"/>
		<path fill="#CACCE0" d="M205.331,94.538c-0.274-1.25-1.308-1.966-2.491-1.966c-2.15,0-3.061,1.797-3.061,3.57
			c0,1.774,0.912,3.571,3.061,3.571c1.503,0,2.456-1.16,2.602-2.605h0.776c-0.216,1.992-1.479,3.267-3.378,3.267
			c-2.559,0-3.834-2.015-3.834-4.232c0-2.216,1.276-4.231,3.834-4.231c1.535,0,3.059,0.922,3.263,2.628h-0.772"/>
		<path fill="#CACCE0" d="M207.911,97.27c0,1.25,0.681,2.503,2.058,2.503c1.376,0,2.058-1.252,2.058-2.503
			c0-1.252-0.682-2.503-2.058-2.503C208.593,94.767,207.911,96.017,207.911,97.27 M212.744,97.27c0,1.681-0.977,3.105-2.774,3.105
			c-1.795,0-2.775-1.424-2.775-3.105c0-1.684,0.979-3.105,2.775-3.105C211.767,94.165,212.744,95.585,212.744,97.27z"/>
		<path fill="#CACCE0" d="M214.041,94.334h0.66v1.376h0.026c0.362-0.944,1.156-1.504,2.214-1.455v0.716
			c-1.293-0.068-2.183,0.885-2.183,2.103v3.128h-0.716L214.041,94.334"/>
		<path fill="#CACCE0" d="M220.626,94.767c-1.58,0-2.058,1.172-2.058,2.503c0,1.215,0.534,2.503,2.058,2.503
			c1.364,0,1.923-1.287,1.923-2.503C222.548,96.051,221.99,94.767,220.626,94.767 M217.85,94.334h0.661v1.115h0.023
			c0.331-0.796,1.148-1.285,2.091-1.285c1.788,0,2.636,1.445,2.636,3.105s-0.849,3.105-2.636,3.105
			c-0.877,0-1.727-0.444-2.037-1.285h-0.02v3.284h-0.718V94.334z"/>
		<path fill="#CACCE0" d="M225.027,97.27c0,1.25,0.684,2.503,2.058,2.503c1.374,0,2.058-1.252,2.058-2.503
			c0-1.252-0.684-2.503-2.058-2.503C225.711,94.767,225.027,96.017,225.027,97.27 M229.86,97.27c0,1.681-0.98,3.105-2.775,3.105
			c-1.798,0-2.775-1.424-2.775-3.105c0-1.684,0.976-3.105,2.775-3.105C228.881,94.165,229.86,95.585,229.86,97.27z"/>
		<path fill="#CACCE0" d="M231.157,94.334h0.659v1.376h0.022c0.361-0.944,1.161-1.504,2.218-1.455v0.716
			c-1.299-0.068-2.183,0.885-2.183,2.103v3.128h-0.716V94.334"/>
		<path fill="#CACCE0" d="M238.719,96.996h-0.024c-0.09,0.17-0.409,0.227-0.603,0.262c-1.217,0.215-2.727,0.203-2.727,1.352
			c0,0.717,0.634,1.161,1.307,1.161c1.092,0,2.058-0.696,2.048-1.843L238.719,96.996 M234.898,96.131
			c0.069-1.375,1.035-1.967,2.375-1.967c1.034,0,2.162,0.317,2.162,1.888v3.117c0,0.272,0.137,0.431,0.421,0.431
			c0.078,0,0.17-0.021,0.226-0.043v0.601c-0.159,0.033-0.274,0.047-0.467,0.047c-0.726,0-0.839-0.409-0.839-1.023h-0.023
			c-0.5,0.76-1.013,1.194-2.138,1.194c-1.083,0-1.966-0.536-1.966-1.719c0-1.648,1.601-1.706,3.149-1.888
			c0.591-0.068,0.922-0.146,0.922-0.794c0-0.968-0.695-1.206-1.537-1.206c-0.885,0-1.544,0.408-1.568,1.365L234.898,96.131
			L234.898,96.131z"/>
		<path fill="#CACCE0" d="M242.231,94.334h1.193v0.601h-1.193v3.959c0,0.468,0.068,0.738,0.583,0.771
			c0.203,0,0.407-0.011,0.611-0.033v0.614c-0.213,0-0.421,0.024-0.635,0.024c-0.954,0-1.284-0.318-1.275-1.321v-4.014h-1.021v-0.601
			h1.021v-1.762h0.717V94.334"/>
		<path fill="#CACCE0" d="M244.7,94.334h0.716v5.868H244.7V94.334z M244.7,92.082h0.716v1.149H244.7V92.082z"/>
		<path fill="#CACCE0" d="M247.44,97.27c0,1.25,0.681,2.503,2.058,2.503c1.376,0,2.058-1.252,2.058-2.503
			c0-1.252-0.682-2.503-2.058-2.503C248.121,94.767,247.44,96.017,247.44,97.27 M252.273,97.27c0,1.681-0.98,3.105-2.775,3.105
			c-1.798,0-2.774-1.424-2.774-3.105c0-1.684,0.976-3.105,2.774-3.105C251.293,94.165,252.273,95.585,252.273,97.27z"/>
		<path fill="#CACCE0" d="M253.559,94.334h0.718v1.013h0.02c0.26-0.705,1.045-1.182,1.877-1.182c1.647,0,2.15,0.864,2.15,2.262
			v3.776h-0.718V96.54c0-1.013-0.331-1.774-1.492-1.774c-1.136,0-1.817,0.865-1.837,2.013v3.424h-0.718V94.334"/>
		<path fill="#CACCE0" d="M219.354,63.934l-9.555-24.336h-1.109l-9.725,24.348h1.386l3.137-7.828h9.413l3.126,7.817L219.354,63.934
			 M212.417,54.887h-8.44l4.273-10.71L212.417,54.887z"/>
		<path fill="#CACCE0" d="M232.999,52.016c1.681,0,2.996,0.481,3.945,1.438c0.952,0.954,1.429,2.258,1.429,3.921
			c0,1.812-0.457,3.148-1.378,4.003c-0.926,0.861-2.343,1.286-4.269,1.286h-3.331c-0.665,0-1.122-0.108-1.375-0.326
			c-0.256-0.222-0.382-0.545-0.382-0.982v-9.34H232.999 M227.202,63.914h5.859c1.89,0,3.592-0.326,5.081-0.971
			c1.492-0.644,2.559-1.435,3.196-2.366c0.643-0.933,0.964-2.003,0.964-3.202c0-1.584-0.564-2.888-1.689-3.921
			c-1.126-1.04-2.817-1.795-5.066-2.28c1.823-0.558,3.193-1.318,4.106-2.275c0.903-0.968,1.359-2.13,1.359-3.504
			c0-1.647-0.651-3.017-1.949-4.11c-1.3-1.087-3.173-1.632-5.621-1.632h-6.241l-2.966,0.012v24.209L227.202,63.914z M227.638,42.187
			c0-0.482,0.154-0.812,0.469-0.998c0.313-0.196,1.124-0.291,2.436-0.291c1.862,0,3.585,0.154,4.344,0.449
			c0.751,0.298,1.328,0.769,1.726,1.423c0.393,0.653,0.592,1.553,0.592,2.715c0,1.873-0.416,3.223-1.242,4.045
			c-0.833,0.829-1.945,1.24-3.349,1.24h-4.976L227.638,42.187L227.638,42.187z"/>
		<path fill="#CACCE0" d="M265.26,56.656c-0.459,1.906-1.227,3.378-2.318,4.412c-1.314,1.244-2.937,1.864-4.871,1.864
			c-2.216,0-3.942-0.793-5.163-2.391c-1.442-1.885-2.164-5.16-2.164-8.751c0-3.588,0.722-6.859,2.164-8.742
			c1.221-1.601,2.947-2.395,5.163-2.395c1.933,0,3.557,0.625,4.871,1.866c1.03,0.978,1.774,2.345,2.239,4.101h1.232
			c-0.469-2.103-1.345-3.778-2.662-5.021c-1.617-1.528-3.658-2.292-6.118-2.292c-1.995,0-3.832,0.502-5.495,1.503
			c-1.666,0.995-3.002,2.437-3.999,4.308c-0.999,1.88-1.498,4.435-1.498,6.673c0,2.241,0.499,4.798,1.498,6.676
			c0.997,1.879,2.333,3.315,3.999,4.318c1.663,0.997,3.501,1.501,5.495,1.501c2.46,0,4.502-0.767,6.119-2.293
			c1.377-1.303,2.281-3.083,2.733-5.334h-1.224"/>
	</g>
</g>
<g id="Layer_2">
</g>
</svg>
