<?xml version="1.0" encoding="utf-8"?>
<!-- Generator: Adobe Illustrator 17.1.0, SVG Export Plug-In . SVG Version: 6.00 Build 0)  -->
<!DOCTYPE svg PUBLIC "-//W3C//DTD SVG 1.1//EN" "http://www.w3.org/Graphics/SVG/1.1/DTD/svg11.dtd">
<svg version="1.1" xmlns="http://www.w3.org/2000/svg" xmlns:xlink="http://www.w3.org/1999/xlink" x="0px" y="0px"
	 viewBox="0 0 360 140" enable-background="new 0 0 360 140" xml:space="preserve">
<g id="Layer_1">
	<g>
		<path fill="#CACCE0" d="M241.888,58.712c5.559,0.555,10.004,2.612,12.628,3.925c2.291,1.146-3.674-5.292-14.163-7.116
			C240.866,56.589,241.379,57.656,241.888,58.712"/>
		<path fill="#CACCE0" d="M230.953,55.218c-24.806,2.08-34.62,23.211-49.682,23.211c-3.867,0,1.937,0.762,3.244,0.762
			c20.101,0,26.434-17.288,48.17-20.203L230.953,55.218z"/>
		<path fill="#CACCE0" d="M218.156,44.793c-1.954,3.177-7.564,14.554-8.186,14.364c-0.772-0.238,0.577-2.924,0.577-2.924
			l11.491-25.179c1.115-2.451,2.221-2.897,3.175-2.897c1.008,0,2.182,0.369,3.296,2.674c1.392,2.825,15.98,33.519,21.644,44.815
			c3.347,6.614,6.041,7.804,7.992,8.248c1.392,0.372,2.786,0.45,3.716,0.45c0.557,0,0.931,0.072,0.931,0.441
			c0,0.448-0.837,0.597-1.86,0.597c-1.394,0-10.484-0.253-16.969-0.149c-1.765,0.029-4.504,0.374-4.504-0.07
			c0-0.299,0.278-0.448,0.652-0.522c0.557-0.149,3.788-1.265,3.231-2.456l-19.616-42.708
			C222.727,37.089,222.307,38.036,218.156,44.793"/>
		<path fill="#CACCE0" d="M240.322,62.808c-23.263,0-31.565,20.965-53.706,20.965c-15.463,0-26.169-12.744-26.177-26.6
			c-0.003-7.547,1.837-13.881,7.28-19.398c2.612-2.679,6.663-5.633,16.592-5.984c6.566-0.231,12.61,1.322,14.52,3.503
			c1.424,1.597,2.083,4.737,1.11,7.609c-0.347,1.032-0.448,1.545,0.082,1.527c0.458-0.015,0.76-0.463,1.208-1.568
			c0.448-1.107,2.469-5.158,3.445-7.591c1.048-2.655,1.573-3.546,1.773-4.135c0.151-0.443,0.097-0.733-0.71-0.778
			c-2.38-0.064-5.307-0.426-8.022-0.845c-3.496-0.537-9.902-0.805-12.89-0.701c-11.494,0.393-19.809,3.548-25.06,8.253
			c-7.783,6.98-9.795,15.911-9.79,20.987c0.003,7.203,2.112,15.783,10.605,22.121c6.493,4.858,14.698,6.634,24.788,6.604h0.005
			c27.069,0,35.98-20.492,58.029-20.492c7.896,0,13.688,2.644,15.983,4.083C261.418,71.638,254.532,62.808,240.322,62.808"/>
		<path fill="#CACCE0" d="M152.491,78.314c-5.301,3.108-11.169,5.458-18.553,5.458c-15.463,0-26.169-12.744-26.177-26.6
			c-0.003-7.549,1.835-13.881,7.28-19.398c2.612-2.679,6.663-5.633,16.59-5.984c6.567-0.231,12.611,1.322,14.52,3.503
			c1.426,1.597,2.083,4.737,1.112,7.609c-0.349,1.032-0.448,1.543,0.082,1.527c0.456-0.015,0.758-0.463,1.206-1.568
			c0.45-1.107,2.473-5.158,3.446-7.592c1.048-2.654,1.575-3.544,1.775-4.133c0.149-0.443,0.097-0.733-0.711-0.778
			c-2.379-0.064-5.306-0.426-8.02-0.845c-3.496-0.537-9.902-0.805-12.89-0.701c-11.492,0.393-19.809,3.548-25.06,8.253
			c-7.785,6.98-9.795,15.909-9.79,20.987c0.002,7.203,2.11,15.783,10.605,22.121c6.492,4.858,14.698,6.634,24.788,6.604h0.005
			c8.198-0.035,16.194-2.11,22.544-5.514C154.229,80.311,153.315,79.328,152.491,78.314"/>
		<path fill="#CACCE0" d="M147.476,69.265c-6.483,4.892-12.192,9.164-18.96,9.164c-3.867,0,1.937,0.763,3.244,0.763
			c7.262,0,12.724-2.263,17.764-5.286C148.69,72.375,148.009,70.822,147.476,69.265"/>
		<path fill="#CACCE0" d="M106.498,100.478c0.018-0.795-0.039-1.59-0.408-2.036c-0.367-0.445-1.201-0.601-1.57-0.601
			c-1.473,0-2.055,0.892-2.112,1.085c-0.059,0.154-0.408,0.505-0.408,2.909v3.741c0,3.43,1.124,3.838,2.501,3.838
			c0.542,0,2.189-0.193,2.209-2.926h1.842c0.077,4.418-3.043,4.418-3.955,4.418c-1.745,0-4.418-0.116-4.418-5.544v-3.955
			c0-3.954,1.745-5.078,4.496-5.078c2.773,0,3.84,1.434,3.665,4.148H106.498z"/>
		<path fill="#CACCE0" d="M110.864,105.498v-4.595c0-2.791,1.434-4.574,4.4-4.574s4.4,1.783,4.4,4.574v4.595
			c0,3.877-1.434,5.408-4.4,5.408S110.864,109.375,110.864,105.498 M117.842,105.575v-4.73c0-2.927-2.016-3.023-2.578-3.023
			s-2.578,0.096-2.578,3.023v4.73c0,3.063,0.891,3.84,2.578,3.84C116.95,109.415,117.842,108.638,117.842,105.575"/>
		<path fill="#CACCE0" d="M128.74,100.478c0.02-0.795-0.039-1.59-0.408-2.036c-0.367-0.445-1.201-0.601-1.57-0.601
			c-1.473,0-2.055,0.892-2.112,1.085c-0.059,0.154-0.408,0.505-0.408,2.909v3.741c0,3.43,1.124,3.838,2.501,3.838
			c0.542,0,2.189-0.193,2.209-2.926h1.842c0.077,4.418-3.043,4.418-3.955,4.418c-1.745,0-4.418-0.116-4.418-5.544v-3.955
			c0-3.954,1.745-5.078,4.496-5.078c2.773,0,3.84,1.434,3.665,4.148H128.74z"/>
		<path fill="#CACCE0" d="M136.711,96.619h2.268l4.556,13.997h-1.998l-1.008-3.335h-5.408l-1.047,3.335h-1.802L136.711,96.619z
			 M137.796,98.268h-0.039l-2.191,7.463h4.479L137.796,98.268z"/>
		<rect x="144.333" y="103.16" fill="#CACCE0" width="4.266" height="1.493"/>
		<path fill="#CACCE0" d="M157.633,100.478c0.02-0.795-0.039-1.59-0.408-2.036c-0.367-0.445-1.201-0.601-1.57-0.601
			c-1.473,0-2.055,0.892-2.112,1.085c-0.059,0.154-0.408,0.505-0.408,2.909v3.741c0,3.43,1.124,3.838,2.501,3.838
			c0.542,0,2.189-0.193,2.209-2.926h1.842c0.077,4.418-3.043,4.418-3.955,4.418c-1.745,0-4.418-0.116-4.418-5.544v-3.955
			c0-3.954,1.745-5.078,4.496-5.078c2.773,0,3.84,1.434,3.665,4.148H157.633z"/>
		<path fill="#CACCE0" d="M161.999,105.498v-4.595c0-2.791,1.434-4.574,4.4-4.574c2.966,0,4.4,1.783,4.4,4.574v4.595
			c0,3.877-1.434,5.408-4.4,5.408C163.433,110.906,161.999,109.375,161.999,105.498 M168.977,105.575v-4.73
			c0-2.927-2.016-3.023-2.578-3.023c-0.562,0-2.578,0.096-2.578,3.023v4.73c0,3.063,0.891,3.84,2.578,3.84
			C168.084,109.415,168.977,108.638,168.977,105.575"/>
		<polygon fill="#CACCE0" points="173.71,110.616 173.71,96.619 175.493,96.619 175.493,109.064 180.631,109.064 180.631,110.616 		
			"/>
		<path fill="#CACCE0" d="M186.449,96.619h2.27l4.553,13.997h-1.996l-1.006-3.335h-5.41l-1.047,3.335h-1.802L186.449,96.619z
			 M187.535,98.268h-0.039l-2.191,7.463h4.479L187.535,98.268z"/>
		<path fill="#CACCE0" d="M202.99,96.619h2.268l4.556,13.997h-1.998l-1.006-3.335h-5.408l-1.048,3.335h-1.802L202.99,96.619z
			 M204.077,98.268h-0.039l-2.192,7.463h4.479L204.077,98.268z"/>
		<polygon fill="#CACCE0" points="213.559,110.616 211.89,110.616 211.89,96.619 214.779,96.619 218.308,108.367 218.347,108.367 
			221.913,96.619 224.86,96.619 224.86,110.616 223.077,110.616 223.077,98.171 223.039,98.171 219.12,110.616 217.436,110.616 
			213.598,98.171 213.559,98.171 		"/>
		<path fill="#CACCE0" d="M231.38,96.619h2.266l4.556,13.997h-1.996l-1.008-3.335h-5.408l-1.048,3.335h-1.802L231.38,96.619z
			 M232.466,98.268h-0.039l-2.192,7.463h4.479L232.466,98.268z"/>
		<polygon fill="#CACCE0" points="246.677,96.619 246.677,98.171 242.995,98.171 242.995,110.616 241.21,110.616 241.21,98.171 
			237.528,98.171 237.528,96.619 		"/>
		<rect x="248.95" y="96.62" fill="#CACCE0" width="1.781" height="13.997"/>
		<polygon fill="#CACCE0" points="254.301,110.616 254.301,96.619 256.083,96.619 256.083,109.064 261.222,109.064 261.222,110.616 
					"/>
	</g>
</g>
<g id="Layer_2">
</g>
</svg>
