<?xml version="1.0" encoding="utf-8"?>
<!-- Generator: Adobe Illustrator 17.1.0, SVG Export Plug-In . SVG Version: 6.00 Build 0)  -->
<!DOCTYPE svg PUBLIC "-//W3C//DTD SVG 1.1//EN" "http://www.w3.org/Graphics/SVG/1.1/DTD/svg11.dtd">
<svg version="1.1" xmlns="http://www.w3.org/2000/svg" xmlns:xlink="http://www.w3.org/1999/xlink" x="0px" y="0px"
	 viewBox="0 0 360 140" enable-background="new 0 0 360 140" xml:space="preserve">
<g id="Layer_1">
	<g>
		<path fill="#CACCE0" d="M187.422,70.519c0.835,0,1.774-0.99,2.816-2.971c0.98-1.867,1.47-3.368,1.47-4.503
			c0-1.176-0.351-1.764-1.052-1.764c-0.743,0-1.522,0.743-2.337,2.228c-0.609,1.104-1.063,2.228-1.361,3.373
			c-0.042,0.155-0.104,0.402-0.186,0.743c-0.145,0.681-0.216,1.217-0.216,1.609C186.556,70.091,186.845,70.519,187.422,70.519z"/>
		<path fill="#CACCE0" d="M206.951,73.298c-0.827,0-1.886,1.285-3.177,3.856c-0.927,1.842-1.715,3.745-2.366,5.709
			c-0.022,0.066-0.044,0.188-0.066,0.364c0.055-0.011,0.629-0.447,1.721-1.307c0.684-0.54,1.566-1.748,2.647-3.624
			c1.147-1.997,1.721-3.447,1.721-4.352C207.431,73.514,207.271,73.298,206.951,73.298z"/>
		<path fill="#CACCE0" d="M180.359,78.362c0.596-0.949,0.893-1.859,0.893-2.73c0-1.478-0.81-2.217-2.432-2.217
			c-0.232,0-1.01,0.16-2.333,0.48c-1.457,0.353-3.056,1.401-4.799,3.144c-1.655,1.655-2.672,3.288-3.367,4.898
			c-0.32,0.739-0.322,1.197-0.322,1.373v0.165c0,0.199,1.177,0.298,2.324,0.298C174.858,83.773,178.098,81.969,180.359,78.362z"/>
		<path fill="#CACCE0" d="M180.32,61.281c-0.743,0-1.521,0.743-2.336,2.228c-0.609,1.104-1.063,2.228-1.362,3.373
			c-0.041,0.155-0.103,0.402-0.186,0.743c-0.144,0.681-0.216,1.217-0.216,1.609c0,0.856,0.289,1.284,0.867,1.284
			c0.835,0,1.774-0.99,2.816-2.971c0.98-1.867,1.47-3.368,1.47-4.503C181.372,61.869,181.021,61.281,180.32,61.281z"/>
		<path fill="#CACCE0" d="M160.992,54.767c0-0.536-0.176-0.805-0.526-0.805c-0.619,0-1.093,0.583-1.423,1.748
			c-0.238,0.846-0.356,1.697-0.356,2.553c0,0.423,0.01,0.784,0.031,1.083c0.502-0.505,0.994-1.222,1.476-2.151
			C160.726,56.186,160.992,55.376,160.992,54.767z"/>
		<path fill="#CACCE0" d="M168.886,65.892c0.165,0.021,0.325,0.015,0.479-0.016c0.557-0.103,1.135-0.387,1.733-0.851
			c0.639-0.485,1.042-0.98,1.207-1.485c0.186-0.557,0.278-1,0.278-1.331c0-0.577-0.176-0.866-0.526-0.866
			c-0.939,0-1.898,1.217-2.878,3.652C168.973,65.501,168.875,65.8,168.886,65.892z"/>
		<path fill="#CACCE0" d="M216.434,61.761c-0.918,0-1.816,0.985-2.693,2.955c-0.784,1.764-1.176,3.28-1.176,4.549
			c0,0.877,0.278,1.315,0.835,1.315c0.815,0,1.712-0.949,2.693-2.847c0.907-1.764,1.361-3.192,1.361-4.286
			C217.455,62.324,217.115,61.761,216.434,61.761z"/>
		<path fill="#CACCE0" d="M213.769,37.115c-8.56-8.513-20.38-13.778-33.442-13.778s-24.883,5.265-33.442,13.778
			c-8.559,8.515-13.851,20.27-13.851,33.261c0,12.99,5.291,24.746,13.851,33.26c8.56,8.514,20.38,13.778,33.442,13.779
			c13.062-0.001,24.883-5.265,33.442-13.779c8.559-8.515,13.85-20.271,13.85-33.26C227.619,57.385,222.327,45.629,213.769,37.115z
			 M198.238,57.784c0.248-0.474,0.567-0.712,0.96-0.712c0.505,0,0.758,0.289,0.758,0.867c0,0.392-0.119,0.774-0.356,1.145
			c-0.268,0.413-0.588,0.619-0.959,0.619c-0.454,0-0.68-0.325-0.68-0.975C197.96,58.45,198.052,58.135,198.238,57.784z
			 M198.996,62.615c0,0.661-0.387,1.953-1.16,3.875c-0.774,1.922-1.16,3.084-1.16,3.487c0,0.392,0.165,0.589,0.495,0.589
			c0.372,0,0.753-0.127,1.145-0.626c0.093-0.125,0.346-0.939,0.758-0.939h0.294c0.041,0,0.062-0.066,0.062,0.017
			c0,0.062-0.098,0.197-0.294,0.527c-0.64,1.062-1.372,1.563-2.197,1.563c-1.042,0-1.563-0.619-1.563-1.826
			c0-0.753,0.379-2.009,1.137-3.752c0.758-1.743,1.137-2.876,1.137-3.392c0-0.371-0.13-0.559-0.387-0.559
			c-0.206,0-0.459,0.356-0.758,0.711c-0.299,0.356-0.459,0.712-0.479,0.712h-0.264c-0.041,0-0.062-0.23-0.062-0.302
			c0-0.124,0.144-0.448,0.433-0.793c0.288-0.346,0.5-0.594,0.634-0.656c0.32-0.155,0.593-0.254,0.82-0.254
			C198.527,60.994,198.996,61.52,198.996,62.615z M188.089,61.792c0.867-0.65,1.636-0.975,2.306-0.975
			c0.795,0,1.404,0.537,1.826,1.61l3.333-9.411l1.461,0.002c0,0.01,0.005,0.015,0.015,0.015c0.031,0.041,0.047,0.098,0.047,0.17
			c0-0.206-1.856,5.168-5.57,16.123c-0.073,0.217-0.109,0.449-0.109,0.696c0,0.423,0.16,0.726,0.48,0.726
			c0.361,0,0.944-0.75,1.749-1.75H194v0.003c0,0.062-0.13,0.222-0.295,0.48c-0.733,1.166-1.422,1.748-2.082,1.748
			c-0.506,0-0.909-0.263-1.219-0.789c-0.278-0.464-0.411-0.959-0.401-1.485c-0.103,0.041-0.257,0.211-0.463,0.511
			c-0.258,0.371-0.438,0.603-0.541,0.696c-0.691,0.609-1.295,0.913-1.81,0.913c-0.773,0-1.356-0.423-1.748-1.269
			c-0.278-0.608-0.417-1.248-0.417-1.918C185.024,65.351,186.045,63.319,188.089,61.792z M173.899,62.55
			c0,1.62-1.289,2.832-3.868,3.636c-0.268,0.083-0.552,0.16-0.851,0.232c-0.103,0.01-0.23,0.049-0.379,0.116
			c-0.15,0.067-0.266,0.297-0.348,0.689c-0.155,0.691-0.232,1.248-0.232,1.671c0,1.145,0.428,1.595,1.284,1.595
			c0.794,0,1.754-0.489,2.878-2.489h0.356c-0.258,1-0.707,1.432-1.346,2.01c-0.702,0.64-1.383,1.02-2.043,1.02
			c-1.361,0-2.233-0.893-2.615-2.739c-0.042-0.196-0.062-0.335-0.062-0.449c0-1.485,0.541-2.984,1.624-4.51
			c1.166-1.65,2.466-2.472,3.899-2.472C173.331,60.86,173.899,61.426,173.899,62.55z M159.011,70.534
			c-0.052,0.382-0.139,0.944-0.263,1.686c-0.176,0.959-0.459,1.439-0.851,1.439c-0.289,0-0.433-0.248-0.433-0.743
			c0-0.598,0.309-1.465,0.928-2.6c0-0.856-0.278-3.667-0.835-8.433c-2.703,2.857-4.838,5.452-6.406,7.783
			c-0.021,0.052-0.114,0.495-0.278,1.331c-0.227,1.145-0.583,1.718-1.068,1.718c-0.258,0-0.387-0.186-0.387-0.557
			c0-0.733,0.469-1.753,1.408-3.064c0.288-0.856,0.609-2.223,0.959-4.1c0.423-2.259,0.635-4.09,0.635-5.493
			c0-4.033-1.3-6.05-3.9-6.05c-1.702,0-3.208,0.8-4.518,2.398c-1.197,1.465-1.795,2.961-1.795,4.487
			c0,0.733,0.201,1.346,0.604,1.841c0.443,0.526,1.021,0.789,1.733,0.789c0.897,0,1.73-0.418,2.432-1.253
			c0.66-0.794,1.024-1.65,1.024-2.568c0-0.155,0-0.31,0-0.464c0,0.083,0.4,0.397,0.4,0.944c0,0.908-0.427,1.762-1.247,2.561
			c-0.82,0.799-1.693,1.199-2.6,1.199c-0.887,0-1.592-0.304-2.108-0.913c-0.475-0.578-0.714-1.315-0.714-2.213
			c0-2.012,0.77-3.773,2.313-5.284c1.542-1.511,3.318-2.267,5.33-2.267c2.909,0,4.363,2.017,4.363,6.05
			c0,1.537-0.258,3.172-0.774,4.905l-1.071,4.58c2.342-3.28,4.109-5.72,6.109-7.319v-1.547c0-0.794-0.173-1.671,0.125-2.63
			c0.37-1.186,0.741-2.073,1.419-2.661c0.422-0.361,0.756-0.542,1.157-0.542c0.812,0,1.18,0.598,1.18,1.795
			c0,1.114-0.452,2.223-1.319,3.327c-0.155,0.206-0.758,0.892-1.789,2.058c0,0.32,0.016,0.784,0.057,1.392
			c0.041,0.64,0.06,1.109,0.06,1.408l0.061,5.942c1.609-2.558,3.192-4.74,4.75-6.545c1.691-1.96,2.795-3.301,3.311-4.023
			c1.248-1.743,1.872-3.193,1.872-4.348c0-0.505-0.142-0.931-0.426-1.276c-0.284-0.346-0.673-0.518-1.168-0.518
			c-0.516,0-0.975,0.196-1.377,0.588c-0.402,0.392-0.603,0.846-0.603,1.362c0,0.34,0.211,0.588,0.634,0.743
			c0.041,0.289-0.01,0.547-0.155,0.774c-0.154,0.258-0.377,0.387-0.665,0.387c-0.547,0-0.82-0.377-0.82-1.13
			c0-0.846,0.312-1.589,0.936-2.228c0.624-0.639,1.359-0.959,2.205-0.959c0.774,0,1.372,0.299,1.795,0.897
			c0.361,0.526,0.542,1.197,0.542,2.011c0,1.455-0.433,2.791-1.299,4.007c-0.506,0.722-1.553,1.831-3.141,3.327
			c-1.651,1.558-2.93,2.925-3.838,4.1c-0.526,0.681-1.124,1.527-1.795,2.538C159.533,69.431,159.3,69.884,159.011,70.534z
			 M179.151,86.719c-0.221,1.578-0.447,3.028-0.679,4.352c-0.132,0.772-0.507,1.842-1.125,3.21
			c-0.518,1.158-1.354,2.256-2.507,3.293c-1.153,1.037-2.325,1.738-3.516,2.101c-0.949,0.287-1.705,0.491-2.267,0.612
			c-1.037,0.209-1.952,0.314-2.747,0.314c-1.224,0-2.388-0.276-3.491-0.827c-1.49-0.75-2.234-1.804-2.234-3.161
			c0-0.684,0.218-1.288,0.654-1.812c0.436-0.524,0.99-0.786,1.663-0.786c0.474,0,0.88,0.135,1.217,0.406
			c0.336,0.27,0.504,0.631,0.504,1.084c0,0.265-0.107,0.515-0.322,0.753c-0.215,0.237-0.455,0.356-0.72,0.356
			c-0.221,0-0.428-0.096-0.621-0.29c-0.193-0.193-0.289-0.4-0.289-0.621c0-0.165,0.115-0.436,0.347-0.811
			c-0.132-0.132-0.265-0.199-0.397-0.199c-0.464,0-0.822,0.209-1.076,0.629c-0.22,0.353-0.331,0.772-0.331,1.258
			c0,1.18,0.574,2.063,1.721,2.648c0.849,0.43,1.831,0.645,2.946,0.645c2.251,0,4.446-0.827,6.586-2.482
			c1.821-1.412,3.254-3.094,4.303-5.047c0.121-0.221,0.38-0.783,0.778-1.688c0.088-0.199,0.028-0.651,0.26-1.357
			c0.275-0.838,0.194-1.34,0.194-1.506v-0.331l0.104-0.099c-0.938,0.916-1.914,1.666-3.149,2.251
			c-1.346,0.651-2.56,0.976-3.751,0.976c-1.732,0-3.122-0.507-4.225-1.523c-1.125-1.059-1.674-2.449-1.674-4.17
			c0-0.419,0.04-0.855,0.106-1.307c-2.846-1.368-4.266-3.116-4.266-5.246c0-1.611,0.686-2.94,2.054-3.988
			c1.213-0.927,2.566-1.39,4.055-1.39c0.938,0,1.589,0.271,1.953,0.811l-0.083,0.248c-0.485-0.298-1.087-0.447-1.803-0.447
			c-1.401,0-2.637,0.43-3.707,1.291c-1.159,0.927-1.738,2.074-1.738,3.442c0,2.019,1.213,3.541,3.641,4.567
			c0.055-0.066,0.094-0.121,0.116-0.165c0.783-2.604,2.642-4.948,5.577-7.033c2.758-1.963,5.295-2.945,7.612-2.945
			c0.894,0,1.605,0.231,2.135,0.694c0.574,0.485,0.861,1.162,0.861,2.032c0,1.311-0.469,2.611-1.407,3.899
			c-2.416,3.305-5.891,4.957-10.425,4.957c-0.805,0-1.875-0.033-2.758-0.099c-0.011,0.099-0.226,0.353-0.226,0.761
			c0,0.276,0,0.458,0,0.546c0,2.902,1.561,4.352,4.231,4.352c2.681,0,5.171-1.186,7.245-3.558c0.1-0.121,0.299-0.568,0.487-1.34
			c0.121-0.485,0.497-1.053,1.071-1.704c0.618-0.684,1.167-1.026,1.619-1.026c0.398,0,0.603,0.21,0.603,0.629
			C182.255,83.806,181.225,85.086,179.151,86.719z M181.295,71.23c-0.506,0-0.913-0.263-1.222-0.789
			c-0.279-0.464-0.413-0.959-0.402-1.485c-0.103,0.041-0.258,0.211-0.464,0.511c-0.258,0.371-0.439,0.603-0.541,0.696
			c-0.691,0.609-1.295,0.913-1.811,0.913c-0.774,0-1.356-0.423-1.749-1.269c-0.278-0.608-0.417-1.248-0.417-1.918
			c0-2.538,1.021-4.57,3.065-6.097c0.867-0.65,1.635-0.975,2.306-0.975c0.794,0,1.404,0.537,1.826,1.61l3.333-9.411l1.461,0.002
			c0,0.01,0.005,0.015,0.015,0.015c0.031,0.041,0.047,0.098,0.047,0.17c0-0.206-1.857,5.168-5.57,16.123
			c-0.073,0.217-0.109,0.449-0.109,0.696c0,0.423,0.16,0.726,0.479,0.726c0.361,0,0.944-0.75,1.749-1.75H184v0.003
			c0,0.062-0.298,0.222-0.463,0.48C182.804,70.648,181.955,71.23,181.295,71.23z M187.343,91.087
			c-0.684,1.137-1.467,1.705-2.35,1.705c-1.115,0-1.672-0.645-1.672-1.936c0-0.805,0.405-2.14,1.217-4.005
			c0.81-1.864,1.216-3.072,1.216-3.624c0-0.397-0.138-0.596-0.414-0.596c-0.221,0-0.491,0.304-0.811,0.685
			c-0.32,0.38-0.491,0.684-0.513,0.684h-0.281c-0.044,0-0.066-0.169-0.066-0.246c0-0.132,0.154-0.44,0.463-0.81
			c0.309-0.369,0.535-0.616,0.678-0.682c0.342-0.165,0.635-0.263,0.877-0.263c1.003,0,1.506,0.579,1.506,1.75
			c0,0.707-0.414,2.085-1.241,4.14c-0.827,2.055-1.241,3.297-1.241,3.727c0,0.42,0.177,0.629,0.53,0.629
			c0.397,0,0.805-0.422,1.224-0.956c0.1-0.134,0.369-1.29,0.811-1.29h0.314c0.044,0,0.066,0.216,0.066,0.304
			C187.657,90.37,187.552,90.734,187.343,91.087z M187.839,79.967c-0.287,0.441-0.629,0.662-1.026,0.662
			c-0.486,0-0.728-0.347-0.728-1.043c0-0.298,0.099-0.634,0.298-1.009c0.264-0.507,0.607-0.761,1.026-0.761
			c0.54,0,0.81,0.309,0.81,0.927C188.219,79.162,188.092,79.57,187.839,79.967z M197.386,85.825
			c-0.463,0.618-0.992,0.927-1.588,0.927c-0.695,0-1.042-0.32-1.042-0.96c0-0.287,0.107-0.557,0.322-0.811
			c0.215-0.254,0.466-0.381,0.753-0.381c0.21,0,0.375,0.094,0.496,0.281c0.121,0.188,0.221,0.282,0.298,0.282
			c0.485,0,0.728-0.403,0.728-1.208c0-0.331-0.122-0.607-0.364-0.827c-0.243-0.221-0.535-0.331-0.877-0.331
			c-1.225,0-2.527,1.44-3.905,4.319c-0.486,1.004-0.91,2.03-1.274,3.078l-0.877,2.449c-0.055,0.088-0.254,0.132-0.595,0.132
			c-0.121,0-0.306-0.011-0.554-0.033c-0.249-0.022-0.433-0.033-0.555-0.033c-0.044-0.011-0.066-0.055-0.066-0.132l1.655-4.633
			c0.176-0.474,0.447-1.191,0.81-2.151c0.497-1.346,0.745-2.212,0.745-2.598c0-0.342-0.144-0.513-0.43-0.513
			c-0.298,0-0.588,0.207-0.869,0.621c-0.281,0.414-0.466,0.621-0.555,0.621c-0.099,0-0.193-0.044-0.281-0.132
			c0.585-1.181,1.251-1.771,2.002-1.771c1.048,0,1.533,0.861,1.456,2.582c1.302-1.61,2.41-2.416,3.326-2.416
			c0.563,0,1.018,0.182,1.365,0.546c0.348,0.364,0.521,0.828,0.521,1.39C198.032,84.683,197.817,85.251,197.386,85.825z
			 M207.746,76.065c-0.408,1.347-1.164,2.744-2.267,4.19c-1.247,1.634-2.554,2.799-3.922,3.494
			c-0.133,0.066-0.271,0.188-0.414,0.364c-0.762,2.385-1.142,4.373-1.142,5.963c0,1.446,0.447,2.288,1.341,2.288
			c0.938,0,1.787-1.364,2.548-2.364h0.431c-0.243,0-0.613,1.321-1.109,1.884c-0.607,0.684-1.263,0.967-1.969,0.967
			c-0.607,0-1.172-0.275-1.696-0.766c-0.524-0.491-0.835-1.055-0.935-1.661c-0.132-0.838-0.198-1.392-0.198-1.645
			c0-1.986,0.601-4.449,1.804-7.384c1.191-2.901,2.482-5.082,3.872-6.538c1.335-1.401,2.327-2.102,2.978-2.102
			c0.695,0,1.043,0.469,1.043,1.407C208.11,74.624,207.988,75.259,207.746,76.065z M207.011,71.153c-0.98,0-1.47-0.624-1.47-1.872
			c0-0.753,0.402-1.988,1.207-3.706c0.805-1.718,1.207-2.782,1.207-3.195c0-0.485-0.191-0.727-0.573-0.727
			c-0.495,0-1.12,0.459-1.872,1.377c-1.269,1.537-2.393,3.642-3.373,6.313c-0.124,0.289-0.345,0.83-0.665,1.625
			c-0.021,0.052-0.728,0.077-1.212,0.077c-0.331,0-0.259-0.021-1.259-0.062v-0.171c0-0.207,0.962-1.576,1.979-4.107
			c1.016-2.531,1.751-4.04,1.751-4.526c0-0.351,0-0.411-0.227-0.411c-0.351,0-0.639,0.231-1.093,1.231H201v-0.45
			c0-0.175,0.21-0.431,0.561-0.766c0.35-0.335,0.6-0.523,0.713-0.565c0.206-0.083,0.416-0.124,0.612-0.124
			c0.856,0,1.289,0.578,1.289,1.733c0-0.062-0.019,0.31-0.06,1.114c1.537-1.939,2.755-2.909,3.653-2.909
			c1.041,0,1.563,0.589,1.563,1.767c0,0.703-0.43,1.992-1.291,3.867c-0.862,1.875-1.292,2.993-1.292,3.355
			c0,0.413,0.201,0.62,0.604,0.62c0.454,0,0.913-0.496,1.377-1.181c0.175-0.291,0.449-0.462,0.82-1.462h0.232
			c0.052,0,0.077,0.267,0.077,0.339c0,0.278-0.258,0.809-0.774,1.438C208.373,70.644,207.682,71.153,207.011,71.153z
			 M217.007,70.674c-1.475,4.828-3.136,7.839-4.982,9.036c-0.681,0.443-1.259,0.665-1.733,0.665c-0.907,0-1.361-0.552-1.361-1.656
			c0-1.547,0.676-3.028,2.027-4.441c1.135-1.197,2.516-2.135,4.147-2.816c0.103-0.041,0.319-0.645,0.65-1.81
			c0.134-0.474,0.201-0.696,0.201-0.665c-1.145,1.403-2.074,2.104-2.785,2.104c-0.753,0-1.315-0.417-1.687-1.251
			c-0.268-0.597-0.402-1.236-0.402-1.916c0-2.554,1.165-4.568,3.495-6.041c0.587-0.371,1.134-0.556,1.639-0.556
			c0.763,0,1.33,0.454,1.701,1.362c0.093-0.021,0.175-0.15,0.248-0.388c0.062-0.206,0.109-0.371,0.139-0.495l1.411,0.001
			c-0.237,0.732-0.655,2.058-1.253,3.976C218.203,66.671,217.718,68.301,217.007,70.674z"/>
		<path fill="#CACCE0" d="M180.189,20.271c-28.154,0-50.978,22.365-50.978,49.953c0,27.588,22.824,49.952,50.978,49.952
			c28.154,0,50.978-22.364,50.978-49.952C231.167,42.636,208.344,20.271,180.189,20.271z M180.326,118.554
			c-26.747-0.001-48.432-21.568-48.432-48.179c0-26.61,21.686-48.178,48.432-48.178s48.431,21.568,48.433,48.178
			C228.757,96.986,207.072,118.554,180.326,118.554z"/>
		<path fill="#CACCE0" d="M211.344,74.743c-1.258,1.588-1.888,2.965-1.888,4.131c0,0.722,0.253,1.083,0.758,1.083
			c0.516,0,0.975-0.248,1.377-0.743c1.279-1.558,2.393-3.915,3.342-7.071C213.798,72.288,212.602,73.154,211.344,74.743z"/>
	</g>
</g>
<g id="Layer_2">
</g>
</svg>
