<?xml version="1.0" encoding="utf-8"?>
<!-- Generator: Adobe Illustrator 17.1.0, SVG Export Plug-In . SVG Version: 6.00 Build 0)  -->
<!DOCTYPE svg PUBLIC "-//W3C//DTD SVG 1.1//EN" "http://www.w3.org/Graphics/SVG/1.1/DTD/svg11.dtd">
<svg version="1.1" xmlns="http://www.w3.org/2000/svg" xmlns:xlink="http://www.w3.org/1999/xlink" x="0px" y="0px"
	 viewBox="0 0 360 140" enable-background="new 0 0 360 140" xml:space="preserve">
<g id="Layer_1">
	<g>
		<path fill="#CACCE0" d="M122.808,73.631c-2.333-1.036-3.723-1.437-5.09-1.437c-1.437,0-2.356,0.517-2.356,1.318
			c0,2.428,8.176,1.745,8.176,7.353c0,3.086-2.592,4.878-6.174,4.878c-2.805,0-4.194-0.732-5.796-1.556v-3.465
			c2.309,1.533,3.722,2.075,5.49,2.075c1.532,0,2.357-0.543,2.357-1.486c0-2.639-8.177-1.672-8.177-7.445
			c0-2.781,2.404-4.619,6.127-4.619c1.792,0,3.417,0.377,5.443,1.25V73.631z"/>
		<path fill="#CACCE0" d="M131.217,82.892c-0.566,0.519-1.25,0.825-1.886,0.825c-0.612,0-1.108-0.519-1.108-1.156
			c0-1.084,0.966-1.555,2.994-2.284V82.892z M135.199,83.459c-0.353,0-0.565-0.213-0.565-0.756v-4.947
			c0-2.38-1.862-3.299-4.595-3.299c-1.721,0-3.299,0.448-4.713,1.32v2.781c1.083-1.108,2.638-1.816,4.005-1.816
			c1.485,0,1.956,0.801,1.886,1.816c-4.548,1.412-6.457,1.932-6.457,4.525c0,1.366,1.296,2.662,3.039,2.662
			c1.178,0,2.262-0.329,3.582-1.225c0.236,0.873,0.777,1.225,1.909,1.225c0.919,0,2.262-0.424,3.205-0.99v-1.908
			C135.693,83.411,135.434,83.459,135.199,83.459"/>
		<polygon fill="#CACCE0" points="136.064,74.668 139.717,74.668 142.026,80.654 144.36,74.668 147.988,74.668 142.992,85.744 
			141.085,85.744 		"/>
		<path fill="#CACCE0" d="M154.392,76.482c1.32,0,2.216,0.897,2.357,2.381h-4.713C152.178,77.355,153.05,76.482,154.392,76.482
			 M151.966,80.655h7.8c0.164-3.96-2.451-6.198-5.608-6.198c-3.347,0-5.727,2.356-5.727,5.678c0,3.394,2.474,5.609,6.292,5.609
			c0.848,0,2.898,0,4.854-1.437v-2.145c-1.602,1.154-2.663,1.554-4.03,1.554C153.403,83.717,152.083,82.586,151.966,80.655"/>
		<path fill="#CACCE0" d="M175.379,77.002h-3.958v4.477c0,1.061,0.612,1.744,1.672,1.744c0.707,0,1.368-0.165,2.286-0.636v2.474
			c-1.201,0.495-2.097,0.684-3.158,0.684c-2.261,0-4.217-1.038-4.217-4.077v-4.666h-1.556v-0.66l4.548-5.091h0.424v3.418h3.958
			V77.002z"/>
		<path fill="#CACCE0" d="M180.134,76.271h0.048c0.989-1.25,2.097-1.814,3.439-1.814c1.98,0,3.983,1.201,3.983,4.147v6.928h-3.418
			v-6.198c0-1.626-0.707-2.38-1.768-2.38c-0.8,0-1.483,0.495-2.285,1.649v6.928h-3.418V69.461h3.418V76.271z"/>
		<path fill="#CACCE0" d="M195.351,76.482c1.32,0,2.216,0.897,2.356,2.381h-4.711C193.136,77.355,194.008,76.482,195.351,76.482
			 M192.924,80.655h7.8c0.165-3.96-2.45-6.198-5.608-6.198c-3.346,0-5.726,2.356-5.726,5.678c0,3.394,2.474,5.609,6.292,5.609
			c0.847,0,2.897,0,4.853-1.437v-2.145c-1.601,1.154-2.661,1.554-4.029,1.554C194.361,83.717,193.041,82.586,192.924,80.655"/>
		<path fill="#CACCE0" d="M223.902,84.142c-2.238,1.155-3.935,1.602-6.315,1.602c-6.245,0-9.356-4.055-9.356-8.201
			c0-4.289,3.511-8.295,9.661-8.295c2.239,0,4.242,0.471,5.821,1.413v3.583c-1.769-0.99-3.559-1.65-5.538-1.65
			c-3.418,0-5.822,2.026-5.822,4.878c0,2.875,2.381,4.925,5.727,4.925c2.097,0,3.51-0.66,5.82-1.766V84.142z"/>
		<path fill="#CACCE0" d="M229.7,76.271h0.047c0.989-1.25,2.097-1.814,3.441-1.814c1.98,0,3.983,1.201,3.983,4.147v6.928h-3.418
			v-6.198c0-1.626-0.708-2.38-1.768-2.38c-0.801,0-1.484,0.495-2.285,1.649v6.928h-3.418V69.461h3.418V76.271z"/>
		<rect x="239.568" y="74.669" fill="#CACCE0" width="3.417" height="10.863"/>
		<path fill="#CACCE0" d="M243.15,71.134c0,1.036-0.849,1.885-1.885,1.885c-1.038,0-1.886-0.849-1.886-1.885
			c0-1.037,0.848-1.885,1.886-1.885C242.301,69.249,243.15,70.097,243.15,71.134"/>
		<rect x="245.482" y="69.462" fill="#CACCE0" width="3.418" height="16.071"/>
		<path fill="#CACCE0" d="M258.843,82.563c-0.708,0.636-1.296,0.896-2.028,0.896c-1.601,0-2.614-1.32-2.614-3.299
			c0-2.168,1.013-3.418,2.733-3.418c0.613,0,1.414,0.284,1.909,0.638V82.563z M258.843,69.461v5.679
			c-0.92-0.449-1.838-0.683-2.828-0.683c-3.11,0-5.278,2.309-5.278,5.631c0,3.251,2.168,5.655,5.09,5.655
			c1.153,0,2.05-0.305,3.016-1.084v0.872h3.418V69.461H258.843z"/>
		<path fill="#CACCE0" d="M268.099,77.779h0.048c1.013-2.262,2.145-3.322,3.463-3.322c0.684,0,1.273,0.259,2.262,0.989l-0.942,3.017
			c-0.896-0.565-1.485-0.801-2.026-0.801c-1.249,0-2.05,1.177-2.805,3.181v4.69h-3.417V74.668h3.417V77.779z"/>
		<path fill="#CACCE0" d="M280.094,76.482c1.319,0,2.214,0.897,2.356,2.381h-4.714C277.878,77.355,278.75,76.482,280.094,76.482
			 M277.667,80.655h7.8c0.164-3.96-2.451-6.198-5.608-6.198c-3.346,0-5.726,2.356-5.726,5.678c0,3.394,2.473,5.609,6.291,5.609
			c0.848,0,2.898,0,4.855-1.437v-2.145c-1.604,1.154-2.663,1.554-4.03,1.554C279.104,83.717,277.784,82.586,277.667,80.655"/>
		<path fill="#CACCE0" d="M290.622,76.224c1.084-1.249,2.145-1.768,3.535-1.768c1.696,0,3.958,0.966,3.958,4.17v6.905h-3.417V78.91
			c0-1.531-0.731-2.169-1.696-2.169c-0.849,0-1.486,0.449-2.381,1.792v6.999h-3.418V74.668h3.418V76.224z"/>
		<path fill="#CACCE0" d="M97.336,57.517c-5.085,4.456-9.748,6.74-13.85,6.768c-3.157,0.022-6.417-1.143-9.692-3.461
			c-2.708-1.917-4.748-4.124-5.966-5.443l-0.126-0.135c2.504-2.334,5.592-3.969,8.957-4.734v-0.002l0.004,0.001l-0.004,0.001
			c-0.44,1.267-0.598,2.644-0.475,4.041c0.219,2.505,1.345,4.783,3.09,6.247c1.364,1.145,3.018,1.697,4.655,1.553
			c1.637-0.143,3.17-0.974,4.315-2.338c1.463-1.745,2.177-4.183,1.958-6.689c-0.04-0.461-0.113-0.919-0.213-1.366l0.001,0.002
			c2.315,1.069,4.423,2.545,6.254,4.376c0.372,0.372,0.74,0.769,1.095,1.18H97.336z M73.573,75.178
			c-0.696,2.878-1.647,6.813-1.449,12.871l-0.002-0.001c-1.547-0.923-2.992-2.038-4.271-3.317
			c-3.489-3.489-5.695-8.062-6.211-12.874c-0.496-4.626,0.583-9.231,3.041-13.013h0.001h-0.001c0.772,0.927,1.711,1.996,2.695,3.114
			c2.406,2.738,5.134,5.838,6.414,8C74.531,71.207,74.171,72.701,73.573,75.178 M102.296,58.754c2.166-2.228,3.129-3.26,2.977-3.869
			c-0.115-0.458-0.554-0.883-1.238-1.199c-0.734-0.338-1.76-0.54-2.301-0.272c-0.182,0.09-0.485,0.387-1.214,1.109l-0.683,0.671
			h-0.002c-0.375-0.441-0.777-0.88-1.172-1.277c-2.879-2.879-6.514-4.875-10.515-5.783c-1.509-1.843-3.578-2.794-5.693-2.608
			c-1.775,0.154-3.392,1.097-4.565,2.655c-4.195,0.969-8.078,3.069-11.245,6.087l-0.001-0.002c-0.644-0.243-2.107-0.085-3.047,0.349
			c-0.538,0.248-0.857,0.559-0.949,0.925c-0.069,0.277,0.014,0.725,1.052,2.085l-0.002,0.002c-3.21,4.412-4.839,9.782-4.578,15.127
			c0.267,5.48,2.51,10.592,6.314,14.395c1.349,1.35,2.851,2.502,4.489,3.442c2.362,1.358,5.001,2.372,7.856,2.956
			c5.998,1.225,11.933,0.335,16.915-2.132l0.008-0.006c0.635-0.295,0.907-1.024,0.649-1.733l-0.078-0.213
			c-1.053-2.874-4.255-11.621-1.616-19.219c1.105-3.18,3.886-6.457,6.271-9.013l0.001-0.001c2.09,3.796,2.987,8.2,2.522,12.432
			c-0.441,4.012-2.023,7.662-4.598,10.643v0.001c-0.077,0.083-0.125,0.193-0.125,0.315l0.024,0.145l0.202,0.576
			c0.066,0.173,0.232,0.297,0.43,0.297c0.132,0,0.25-0.058,0.334-0.146l0.007,0.001C105.482,78.039,106.964,67.24,102.296,58.754z"
			/>
		<path fill="#CACCE0" d="M303.568,81.948v-0.056V81.83c0-0.096-0.03-0.178-0.085-0.247c-0.057-0.067-0.131-0.102-0.217-0.102h-0.21
			h-0.242v0.828h0.452c0.105,0,0.181-0.029,0.229-0.086C303.544,82.164,303.568,82.073,303.568,81.948 M303.493,84.077v-0.552
			c0-0.22-0.042-0.41-0.127-0.566c-0.084-0.157-0.196-0.235-0.339-0.235h-0.212v1.353h-0.365h-0.374V80.98h1.207
			c0.327,0,0.571,0.062,0.732,0.188c0.162,0.125,0.242,0.286,0.242,0.483v0.139v0.128c0,0.169-0.045,0.308-0.138,0.417
			c-0.093,0.108-0.208,0.18-0.351,0.21c0.216,0.115,0.364,0.268,0.444,0.465c0.08,0.195,0.121,0.383,0.121,0.559v0.509H303.493z
			 M305.336,82.567c0-0.608-0.217-1.141-0.649-1.6c-0.434-0.46-0.953-0.689-1.562-0.689c-0.61,0-1.129,0.229-1.56,0.689
			c-0.428,0.459-0.643,0.992-0.643,1.6c0,0.608,0.216,1.144,0.643,1.601c0.431,0.459,0.951,0.687,1.56,0.687
			c0.608,0,1.128-0.229,1.562-0.687C305.119,83.711,305.336,83.175,305.336,82.567 M306.026,82.566c0,0.804-0.283,1.484-0.849,2.047
			c-0.566,0.564-1.248,0.844-2.046,0.844c-0.801,0-1.484-0.28-2.05-0.844c-0.566-0.563-0.849-1.243-0.849-2.047
			c0-0.806,0.283-1.492,0.849-2.062c0.566-0.568,1.249-0.853,2.05-0.853c0.798,0,1.479,0.285,2.046,0.853
			C305.743,81.073,306.026,81.76,306.026,82.566"/>
	</g>
</g>
<g id="Layer_2">
</g>
</svg>
