<?xml version="1.0" encoding="utf-8"?>
<!-- Generator: Adobe Illustrator 17.1.0, SVG Export Plug-In . SVG Version: 6.00 Build 0)  -->
<!DOCTYPE svg PUBLIC "-//W3C//DTD SVG 1.1//EN" "http://www.w3.org/Graphics/SVG/1.1/DTD/svg11.dtd">
<svg version="1.1" xmlns="http://www.w3.org/2000/svg" xmlns:xlink="http://www.w3.org/1999/xlink" x="0px" y="0px"
	 viewBox="0 0 360 140" enable-background="new 0 0 360 140" xml:space="preserve">
<g id="Layer_1">
	<g>
		<polygon fill="#CACCE0" points="132.288,57.885 135.576,57.885 135.576,65.248 144.217,65.248 144.217,57.885 147.505,57.885 
			147.505,76.366 144.217,76.366 144.217,68.223 135.576,68.223 135.576,76.366 132.288,76.366 		"/>
		<path fill="#CACCE0" d="M158.221,68.848c-0.026-1.826-1.227-2.976-3.185-2.976c-1.855,0-3.002,1.176-3.238,2.976H158.221z
			 M151.799,71.198c0.209,1.852,1.619,2.976,3.368,2.976c1.566,0,2.583-0.731,3.368-1.696l2.244,1.696
			c-1.46,1.802-3.315,2.506-5.299,2.506c-3.784,0-6.812-2.636-6.812-6.579c0-3.94,3.028-6.577,6.812-6.577
			c3.5,0,5.874,2.454,5.874,6.812v0.861H151.799z"/>
		<path fill="#CACCE0" d="M170.564,70.754h-0.652c-1.725,0-4.698,0.13-4.698,1.932c0,1.15,1.174,1.645,2.191,1.645
			c2.141,0,3.158-1.123,3.158-2.872V70.754z M170.747,74.644h-0.079c-0.888,1.41-2.348,2.035-4.02,2.035
			c-2.324,0-4.568-1.277-4.568-3.757c0-4.072,4.751-4.361,7.883-4.361h0.784v-0.339c0-1.539-1.2-2.348-2.872-2.348
			c-1.304,0-2.504,0.522-3.341,1.304l-1.643-1.643c1.383-1.41,3.341-2.011,5.326-2.011c5.35,0,5.35,3.863,5.35,5.638v7.204h-2.819
			V74.644z"/>
		<rect x="175.512" y="56.631" fill="#CACCE0" width="3.132" height="19.734"/>
		<path fill="#CACCE0" d="M180.188,66.5v-2.663h2.114v-3.63h3.132v3.63h3.445V66.5h-3.445v5.482c0,1.251,0.366,2.035,1.749,2.035
			c0.548,0,1.306-0.103,1.696-0.392v2.636c-0.652,0.315-1.749,0.419-2.48,0.419c-3.315,0-4.097-1.487-4.097-4.438V66.5H180.188z"/>
		<path fill="#CACCE0" d="M193.744,65.585h0.053c0.496-1.044,1.749-2.061,3.683-2.061c3.365,0,4.566,2.374,4.566,4.934v7.909h-3.132
			v-6.343c0-1.383-0.103-3.68-2.297-3.68c-2.061,0-2.872,1.515-2.872,3.185v6.839h-3.13V56.632h3.13V65.585z"/>
		<polygon fill="#CACCE0" points="201.609,57.885 205.212,57.885 208.683,71.199 208.736,71.199 212.888,57.885 216.123,57.885 
			220.196,71.199 220.249,71.199 223.876,57.885 227.217,57.885 221.839,76.366 218.707,76.366 214.425,62.296 214.375,62.296 
			210.093,76.366 207.064,76.366 		"/>
		<path fill="#CACCE0" d="M232.359,73.86c2.297,0,3.68-1.799,3.68-3.757c0-1.958-1.383-3.76-3.68-3.76s-3.68,1.802-3.68,3.76
			C228.679,72.061,230.062,73.86,232.359,73.86 M232.359,63.524c3.784,0,6.812,2.636,6.812,6.579c0,3.94-3.028,6.577-6.812,6.577
			c-3.786,0-6.815-2.636-6.815-6.577C225.545,66.16,228.573,63.524,232.359,63.524"/>
		<path fill="#CACCE0" d="M240.788,63.837h3.132v1.985h0.053c0.678-1.436,2.064-2.297,3.707-2.297c0.392,0,0.758,0.077,1.121,0.183
			v3.028c-0.52-0.132-1.017-0.236-1.513-0.236c-2.949,0-3.368,2.48-3.368,3.158v6.709h-3.132V63.837z"/>
		<polygon fill="#CACCE0" points="249.638,56.633 252.77,56.633 252.77,69.033 257.6,63.837 261.619,63.837 256.241,69.528 
			261.958,76.367 257.807,76.367 252.823,69.971 252.77,69.971 252.77,76.367 249.638,76.367 		"/>
		<path fill="#CACCE0" d="M264.202,66.5h-2.583v-2.663h2.583v-1.775c0-3.471,0.782-5.744,4.671-5.744
			c0.678,0,1.333,0.053,1.984,0.185l-0.209,2.663c-0.443-0.106-0.861-0.183-1.304-0.183c-1.751,0-2.011,1.2-2.011,2.584v2.271h2.896
			V66.5h-2.896v9.867h-3.132V66.5z"/>
		<path fill="#CACCE0" d="M277.148,73.86c2.297,0,3.68-1.799,3.68-3.757c0-1.958-1.383-3.76-3.68-3.76
			c-2.297,0-3.68,1.802-3.68,3.76C273.468,72.061,274.851,73.86,277.148,73.86 M277.148,63.524c3.786,0,6.815,2.636,6.815,6.579
			c0,3.94-3.028,6.577-6.815,6.577c-3.784,0-6.812-2.636-6.812-6.577C270.336,66.16,273.365,63.524,277.148,63.524"/>
		<path fill="#CACCE0" d="M285.058,63.837h3.132v1.985h0.051c0.681-1.436,2.061-2.297,3.707-2.297c0.392,0,0.758,0.077,1.123,0.183
			v3.028c-0.522-0.132-1.018-0.236-1.515-0.236c-2.949,0-3.365,2.48-3.365,3.158v6.709h-3.132V63.837z"/>
		<path fill="#CACCE0" d="M302.002,67.596c-0.731-0.758-1.539-1.253-2.374-1.253c-2.297,0-3.683,1.802-3.683,3.76
			c0,1.958,1.386,3.76,3.683,3.76c0.965,0,1.852-0.419,2.427-1.176l2.088,2.247c-1.28,1.277-3.421,1.749-4.515,1.749
			c-3.786,0-6.812-2.636-6.812-6.579c0-3.943,3.026-6.579,6.812-6.579c1.592,0,3.341,0.575,4.542,1.905L302.002,67.596z"/>
		<path fill="#CACCE0" d="M313.121,68.848c-0.024-1.826-1.227-2.976-3.185-2.976c-1.855,0-3.002,1.176-3.235,2.976H313.121z
			 M306.7,71.198c0.209,1.852,1.619,2.976,3.365,2.976c1.568,0,2.586-0.731,3.368-1.696l2.247,1.696
			c-1.463,1.802-3.317,2.506-5.299,2.506c-3.786,0-6.815-2.636-6.815-6.579c0-3.94,3.028-6.577,6.815-6.577
			c3.498,0,5.874,2.454,5.874,6.812v0.861H306.7z"/>
		<path fill="#CACCE0" d="M136.329,88.027l-1.239-3.274l-1.263,3.274H136.329z M134.51,83.047h1.239l3.469,8.051h-1.638l-0.75-1.843
			h-3.488l-0.729,1.843h-1.604L134.51,83.047z"/>
		<path fill="#CACCE0" d="M149.345,88.14c0,1.946-1.4,3.161-3.24,3.161c-1.843,0-3.24-1.215-3.24-3.161v-5.092h1.434v5.047
			c0,0.796,0.431,1.843,1.806,1.843c1.376,0,1.807-1.046,1.807-1.843v-5.047h1.434V88.14z"/>
		<path fill="#CACCE0" d="M158.098,84.777c-0.308-0.433-0.852-0.637-1.41-0.637c-0.659,0-1.318,0.296-1.318,1.034
			c0,1.614,3.82,0.693,3.82,3.558c0,1.73-1.364,2.569-2.944,2.569c-1.001,0-1.98-0.306-2.639-1.09l1.08-1.046
			c0.351,0.534,0.955,0.842,1.592,0.842c0.659,0,1.41-0.363,1.41-1.104c0-1.761-3.82-0.751-3.82-3.625
			c0-1.66,1.477-2.434,2.966-2.434c0.842,0,1.684,0.24,2.309,0.83L158.098,84.777z"/>
		<polygon fill="#CACCE0" points="165.629,84.344 163.164,84.344 163.164,83.048 169.528,83.048 169.528,84.344 167.06,84.344 
			167.06,91.096 165.629,91.096 		"/>
		<path fill="#CACCE0" d="M176.225,86.459c0.806,0,1.751-0.067,1.751-1.114c0-0.957-0.888-1.07-1.626-1.07h-1.239v2.184H176.225z
			 M173.677,83.048h2.798c1.547,0,3,0.5,3,2.307c0,1.159-0.669,2.011-1.864,2.184l2.138,3.558h-1.727l-1.867-3.409h-1.044v3.409
			h-1.434V83.048z"/>
		<path fill="#CACCE0" d="M188.845,88.027l-1.241-3.274l-1.26,3.274H188.845z M187.024,83.047h1.239l3.469,8.051h-1.638
			l-0.748-1.843h-3.49l-0.729,1.843h-1.602L187.024,83.047z"/>
		<polygon fill="#CACCE0" points="195.849,83.048 197.283,83.048 197.283,89.8 200.704,89.8 200.704,91.099 195.849,91.099 		"/>
		<rect x="204.863" y="83.048" fill="#CACCE0" width="1.434" height="8.051"/>
		<path fill="#CACCE0" d="M215.631,88.027l-1.239-3.274l-1.263,3.274H215.631z M213.81,83.047h1.239l3.469,8.051h-1.636
			l-0.753-1.843h-3.488l-0.726,1.843h-1.604L213.81,83.047z"/>
		<path fill="#CACCE0" d="M81.255,72.83C68.973,61.2,61.696,48.232,66.976,45.324c5.607-3.089,21.695,6.86,33.749,20.316
			c10.394,11.604,13.336,21.048,8.029,22.402C103.688,89.334,91.99,82.993,81.255,72.83 M102.079,65.14
			C88.404,49.687,69.858,38.107,63.519,41.79c-5.915,3.44,2.672,18.351,16.629,31.449c12.006,11.262,24.952,18.231,30.609,16.85
			C116.716,88.636,113.642,78.206,102.079,65.14"/>
		<path fill="#CACCE0" d="M94.539,61.309c-11.19,3.921-22.318,10.009-29.722,15.996c0.813,0.354,1.657,0.698,2.535,1.032
			c6.129-5.646,16.583-11.722,27.333-15.616c14.029-5.08,22.938-4.258,22.602,0.539c-0.315,4.462-8.636,12.119-20.617,18.431
			c-14.976,7.887-31.966,11.845-34.396,6.343c-0.955-2.165,0.572-5.174,3.822-8.482c-0.936-0.334-1.845-0.678-2.73-1.029
			c-5.412,4.693-8.159,9.069-6.663,12.02c3.149,6.208,23.138,1.224,40.073-7.847c13.199-7.07,22.258-15.481,22.683-20.415
			C119.922,56.941,110.273,55.801,94.539,61.309"/>
		<path fill="#CACCE0" d="M115.143,68.41c-0.565,0.7-1.21,1.417-1.927,2.151c1.828,1.919,2.653,3.887,2.179,5.788
			c-1.621,6.471-18.25,8.292-35.637,4.59c-15.883-3.38-27.401-10.37-26.922-16.015c0.498-5.807,13.54-8.737,30.47-6.182
			c12.621,1.905,23.747,6.288,28.954,10.906c0.649-0.726,1.205-1.431,1.655-2.105c-6.603-4.443-17.897-8.45-30.374-10.283
			c-19.027-2.793-33.491,0.568-33.992,7.065c-0.483,6.293,12.285,14.091,29.998,17.928c19.604,4.248,38.622,2.292,40.554-5.044
			C120.868,74.303,118.944,71.26,115.143,68.41"/>
		<path fill="#CACCE0" d="M96.812,99.398c-1.171-1.087-1.951-3.856-2.285-7.755c-0.269-0.161-0.539-0.325-0.811-0.491
			c0.284,5.282,1.208,9.032,2.67,10.418c1.811,1.713,4.335-0.291,6.853-5.273c-0.325-0.149-0.649-0.303-0.979-0.459
			C100.259,99.394,98.285,100.767,96.812,99.398 M109.075,36.835c-5.061-2.422-11.763,16.588-14.377,35.911
			c-0.524,3.875-0.847,7.524-0.989,10.837l0.705,0.002c0.132-3.141,0.447-6.625,0.972-10.315
			c2.389-16.877,8.212-32.75,12.528-30.511c2.134,1.107,3.098,6.411,3.007,13.545c0.503-0.043,0.996-0.077,1.47-0.099
			C112.955,46.105,111.943,38.208,109.075,36.835"/>
	</g>
</g>
<g id="Layer_2">
</g>
</svg>
