<?xml version="1.0" encoding="utf-8"?>
<!-- Generator: Adobe Illustrator 17.1.0, SVG Export Plug-In . SVG Version: 6.00 Build 0)  -->
<!DOCTYPE svg PUBLIC "-//W3C//DTD SVG 1.1//EN" "http://www.w3.org/Graphics/SVG/1.1/DTD/svg11.dtd">
<svg version="1.1" xmlns="http://www.w3.org/2000/svg" xmlns:xlink="http://www.w3.org/1999/xlink" x="0px" y="0px"
	 viewBox="0 0 360 140" enable-background="new 0 0 360 140" xml:space="preserve">
<g id="Layer_1">
	<g>
		<path fill="#CACCE0" d="M231.728,88.53c-0.537,0-1.01,0.191-1.384,0.564c-0.388,0.388-0.605,0.899-0.605,1.424
			c0,0.524,0.198,1.016,0.572,1.389c0.38,0.388,0.886,0.605,1.41,0.605c0.52,0,1.018-0.208,1.41-0.583
			c0.375-0.361,0.585-0.86,0.585-1.372c0-0.569-0.191-1.049-0.564-1.429C232.764,88.733,232.28,88.53,231.728,88.53z
			 M232.201,91.796l-0.506-1.082h-0.314v1.082h-0.644v-2.643v-0.001v0.001h1.038c0.755,0,1.128,0.255,1.128,0.761
			c0,0.347-0.215,0.61-0.577,0.703l0.59,1.179H232.201z"/>
		<path fill="#CACCE0" d="M231.662,89.56h-0.281v0.767h0.314c0.368,0,0.545-0.111,0.545-0.373
			C232.241,89.678,232.049,89.56,231.662,89.56z"/>
		<path fill="#CACCE0" d="M180.5,31.612c-37.728,0-68.313,16.963-68.313,37.888s30.585,37.888,68.313,37.888
			s68.313-16.963,68.313-37.888S218.228,31.612,180.5,31.612z M180.498,34.21c31.054,0,56.224,15.799,56.225,35.29
			c0,1.919-0.247,3.803-0.716,5.636h-3.98c0.472-1.827,0.724-3.704,0.724-5.619c0-15.302-15.727-28.221-37.298-32.382v3.76h-1.501
			v-4.032c-2.584-0.445-5.244-0.767-7.967-0.948v7.869h-1.504v-7.959c-1.313-0.064-2.641-0.096-3.983-0.096
			c-1.341,0-2.668,0.032-3.984,0.096v7.958h-1.501v-7.869c-2.723,0.182-5.383,0.504-7.967,0.948v4.032h-1.501v-3.76
			c-21.571,4.16-37.299,17.08-37.299,32.382c0,1.441,0.141,2.86,0.411,4.247l-2.694,4.345c-1.102-2.756-1.688-5.64-1.688-8.61
			C124.276,50.01,149.449,34.21,180.498,34.21z M231.728,69.517c0,1.921-0.273,3.796-0.795,5.619h-9.196l-2.497-19.499l5.265-2.475
			C229.09,57.949,231.728,63.54,231.728,69.517z M197.898,64.655h3.938l1.977,25.865h15.264
			c-9.391,6.698-23.187,10.928-38.578,10.928c-16.32,0-30.854-4.76-40.235-12.171L142,84.9h11.988l1.123,5.612h31.039V77.844h12.449
			L197.898,64.655z M168.927,42.762v-4.352c1.382-0.199,2.785-0.363,4.209-0.491v7.726h5.258v-8.023
			c0.698-0.018,1.399-0.031,2.106-0.031c0.706,0,1.405,0.014,2.106,0.031v8.022h5.254v-7.726c1.424,0.129,2.83,0.291,4.212,0.491
			v4.352h5.256v-3.406c8.973,1.946,16.813,5.403,22.733,9.882h-51.727l-0.599,21.107l-6.869-21.121h-19.916
			c5.918-4.475,13.751-7.921,22.719-9.867v3.406H168.927z M140.237,55.096l-10.752,17.339c-0.141-0.962-0.213-1.934-0.213-2.918
			c0-5.907,2.58-11.444,7.072-16.191L140.237,55.096z M142.733,55.533h4.266l-9.099-4.186h20.931l10.513,31.364h0.427l1.021-31.364
			h30.09l0.652,8.486H182.89v5.746h12.365l0.41,7.633H182.89v12.829h-25.796l-1.264-5.536h-15.446l-2.81,5.536h-13.755
			L142.733,55.533z M180.498,104.789c-18.473,0-34.864-5.595-45.112-14.229h4.23c9.575,7.769,24.33,12.746,40.882,12.746
			c16.584,0,31.363-4.994,40.934-12.786h4.229C215.416,99.176,199.002,104.789,180.498,104.789z M233.408,92.212
			c-0.465,0.451-1.07,0.693-1.686,0.693c-0.636,0-1.233-0.256-1.691-0.721c-0.446-0.451-0.683-1.042-0.683-1.66
			c0-0.426,0.111-0.839,0.347-1.24c0.425-0.721,1.167-1.148,2.027-1.148c0.656,0,1.252,0.25,1.712,0.716
			c0.439,0.446,0.676,1.037,0.676,1.673C234.109,91.18,233.859,91.771,233.408,92.212z M206.192,86.042l-2.723-34.702h19.057
			l-9.769,4.197h3.976l2.782,21.756h16.093l2.073,8.749H206.192z"/>
		
			<line fill="none" stroke="#FFFFFF" stroke-width="0" stroke-linecap="round" stroke-linejoin="round" x1="230.737" y1="89.154" x2="230.737" y2="89.153"/>
		<path fill="#EDEEF9" d="M186.15,90.511h-31.039l-1.123-5.612H142l-1.737,4.377c9.381,7.411,23.916,12.171,40.235,12.171
			c15.39,0,29.187-4.23,38.578-10.928h-15.264l-1.977-25.865h-3.938l0.701,13.188H186.15V90.511z"/>
		<path fill="#EDEEF9" d="M140.952,49.223h19.916l6.869,21.121l0.599-21.107h51.727c-5.92-4.479-13.76-7.936-22.733-9.882v3.406
			h-5.256v-4.352c-1.382-0.2-2.788-0.363-4.212-0.491v7.726h-5.254v-8.022c-0.701-0.017-1.4-0.031-2.106-0.031
			c-0.707,0-1.408,0.014-2.106,0.031v8.023h-5.258v-7.726c-1.424,0.129-2.827,0.292-4.209,0.491v4.352h-5.256v-3.406
			C154.703,41.301,146.869,44.748,140.952,49.223z"/>
		<path fill="#EDEEF9" d="M219.239,55.637l2.497,19.499h9.196c0.523-1.823,0.795-3.699,0.795-5.619
			c0-5.977-2.638-11.568-7.224-16.354L219.239,55.637z"/>
		<path fill="#EDEEF9" d="M129.485,72.435l10.752-17.339l-3.894-1.769c-4.492,4.747-7.072,10.283-7.072,16.191
			C129.271,70.501,129.344,71.473,129.485,72.435z"/>
		<polygon fill="#CACCE0" points="151.24,60.38 150.55,60.38 143.614,74.178 154.38,74.178 		"/>
	</g>
</g>
<g id="Layer_2">
</g>
</svg>
