<?xml version="1.0" encoding="utf-8"?>
<!-- Generator: Adobe Illustrator 20.0.0, SVG Export Plug-In . SVG Version: 6.00 Build 0)  -->
<svg version="1.1" id="Layer_1" xmlns="http://www.w3.org/2000/svg" xmlns:xlink="http://www.w3.org/1999/xlink" x="0px" y="0px"
	 viewBox="0 0 70 70" enable-background="new 0 0 70 70" xml:space="preserve">
<symbol  id="google__x2B_" viewBox="-8.915 -8.831 17.83 17.661">
	<path fill="#FFFFFF" d="M8.915,5.253h-2.46V2.92H5.261v2.333h-2.46v1.178h2.46v2.333h1.193V6.431h2.46V5.253z M-0.416,7.986
		c0.179-0.114,0.345-0.247,0.497-0.395c0.194-0.203,0.368-0.425,0.518-0.663C0.774,6.651,0.919,6.355,1.03,6.046
		C1.139,5.66,1.191,5.259,1.185,4.858c0.022-0.705-0.172-1.399-0.557-1.99C0.459,2.633,0.274,2.41,0.073,2.201
		C-0.144,1.998-0.374,1.79-0.62,1.58c-0.144-0.149-0.274-0.312-0.387-0.486c-0.14-0.189-0.214-0.419-0.21-0.655
		c-0.008-0.22,0.069-0.435,0.216-0.6c0.11-0.139,0.229-0.271,0.355-0.396L0.15-1.202C0.633-1.591,1.07-2.034,1.45-2.524
		c0.374-0.57,0.566-1.241,0.549-1.922C1.976-5.618,1.424-6.716,0.497-7.433C-0.794-8.411-2.39-8.902-4.008-8.819
		c-1.31-0.085-2.609,0.282-3.68,1.04C-8.441-7.267-8.899-6.421-8.915-5.51c0.02,0.502,0.156,0.993,0.4,1.434
		c0.321,0.59,0.809,1.072,1.402,1.386c0.742,0.422,1.552,0.712,2.393,0.857c0.683,0.107,1.371,0.174,2.062,0.203
		c-0.17,0.222-0.321,0.458-0.452,0.705c-0.16,0.263-0.24,0.567-0.231,0.874c-0.006,0.175,0.024,0.349,0.088,0.512
		c0.051,0.144,0.099,0.276,0.143,0.399c-0.25-0.029-0.501-0.044-0.753-0.045c-1.078-0.057-2.125,0.37-2.856,1.164
		c-0.663,0.653-1.034,1.546-1.029,2.477c0.024,1.193,0.554,2.319,1.458,3.098c0.602,0.51,1.314,0.873,2.079,1.063
		c0.658,0.138,1.328,0.21,2.001,0.215h4.691L1.033,7.994h-1.452L-0.416,7.986z M-3.467-2.313c-0.504-0.072-1.002-0.182-1.49-0.328
		c-0.12-0.045-0.288-0.114-0.504-0.204c-0.237-0.111-0.46-0.251-0.662-0.418C-6.347-3.462-6.533-3.7-6.672-3.965
		C-6.851-4.29-6.939-4.657-6.928-5.028c0.001-0.819,0.424-1.58,1.118-2.013c0.861-0.572,1.881-0.857,2.913-0.814
		c0.901-0.047,1.791,0.208,2.531,0.724c0.548,0.423,0.863,1.082,0.848,1.774C0.491-4.79,0.285-4.24-0.095-3.819
		c-0.597,0.564-1.242,1.075-1.927,1.527C-2.172-2.277-2.347-2.27-2.549-2.27C-2.856-2.262-3.163-2.276-3.467-2.313z M-1.515,6.549
		C-1.72,6.974-2.02,7.346-2.391,7.637c-0.372,0.264-0.815,0.41-1.271,0.419c-0.615-0.006-1.196-0.284-1.586-0.759
		C-5.6,6.794-5.779,6.19-5.757,5.576c0.023-0.921,0.279-1.821,0.744-2.616c0.236-0.417,0.552-0.782,0.931-1.075
		c0.371-0.292,0.831-0.448,1.303-0.442C-2.198,1.449-1.643,1.685-1.235,2.1c0.19,0.272,0.321,0.581,0.384,0.907
		c0.031,0.26,0.048,0.521,0.051,0.782C-0.816,4.752-1.061,5.699-1.515,6.549z"/>
</symbol>
<g>
	<path fill="#E5E5E5" d="M41.509,27.928c0.696,1.424,1.363,2.872,1.983,4.33c0.22,0.517,0.434,1.031,0.644,1.543
		c9.947-1.251,19.831,0.754,20.817,0.962c-0.066-7.056-2.587-13.536-6.751-18.623C57.572,16.993,52.562,23.415,41.509,27.928z"/>
	<path fill="#E5E5E5" d="M33.435,25.28c-4.953-8.806-10.296-16.209-11.084-17.29C13.987,11.936,7.736,19.646,5.797,28.923
		C7.134,28.94,19.451,28.994,33.435,25.28z"/>
	<path fill="#E5E5E5" d="M28.055,5.981c0.826,1.107,6.256,8.501,11.155,17.501c10.63-3.984,15.131-10.033,15.668-10.799
		C49.599,7.999,42.657,5.15,35.061,5.15C32.649,5.15,30.303,5.439,28.055,5.981z"/>
	<path fill="#E5E5E5" d="M37.151,35.307c0.39-0.126,0.783-0.244,1.178-0.356c-0.751-1.698-1.568-3.399-2.424-5.074
		c-14.929,4.468-29.417,4.281-30.725,4.255c-0.009,0.303-0.015,0.608-0.015,0.913c0,7.678,2.911,14.689,7.685,19.989
		C13.528,53.875,21.733,40.29,37.151,35.307z"/>
	<path fill="#E5E5E5" d="M45.957,38.513c3.91,10.745,5.502,19.496,5.808,21.315c6.707-4.535,11.481-11.719,12.814-20.037
		C63.555,39.468,55.325,37.014,45.957,38.513z"/>
	<path fill="#E5E5E5" d="M46.739,62.565c-0.445-2.623-2.18-11.764-6.378-22.671c-0.066,0.022-0.131,0.044-0.197,0.067
		C23.302,45.837,17.249,57.53,16.711,58.63c5.069,3.953,11.439,6.311,18.35,6.311C39.202,64.941,43.149,64.094,46.739,62.565z"/>
	<path fill-rule="evenodd" clip-rule="evenodd" fill="#CCCCCC" d="M35.061,0c-19.299,0-35,15.701-35,35c0,19.299,15.701,35,35,35
		c19.299,0,35-15.701,35-35C70.061,15.701,54.36,0,35.061,0z M64.953,34.763c-0.986-0.208-10.869-2.213-20.817-0.962
		c-0.21-0.512-0.424-1.026-0.644-1.543c-0.621-1.458-1.288-2.906-1.983-4.33c11.053-4.513,16.063-10.935,16.693-11.787
		C62.366,21.228,64.887,27.707,64.953,34.763z M39.21,23.482C34.311,14.482,28.882,7.088,28.055,5.981
		c2.248-0.542,4.594-0.831,7.006-0.831c7.596,0,14.538,2.849,19.817,7.533C54.341,13.449,49.841,19.498,39.21,23.482z M22.351,7.991
		c0.788,1.081,6.13,8.484,11.084,17.29c-13.984,3.714-26.301,3.66-27.638,3.642C7.736,19.646,13.987,11.936,22.351,7.991z
		 M5.181,34.132c1.308,0.027,15.795,0.213,30.725-4.255c0.856,1.675,1.673,3.375,2.424,5.074c-0.396,0.111-0.789,0.23-1.178,0.356
		c-15.418,4.984-23.623,18.569-24.3,19.728c-4.775-5.3-7.685-12.311-7.685-19.989C5.166,34.74,5.172,34.436,5.181,34.132z
		 M40.164,39.961c0.066-0.023,0.131-0.044,0.197-0.067c4.197,10.907,5.933,20.048,6.378,22.671
		c-3.589,1.529-7.536,2.376-11.678,2.376c-6.911,0-13.281-2.358-18.35-6.311C17.249,57.53,23.302,45.837,40.164,39.961z
		 M51.765,59.828c-0.306-1.819-1.898-10.57-5.808-21.315c9.368-1.5,17.599,0.955,18.621,1.278
		C63.246,48.109,58.471,55.293,51.765,59.828z"/>
</g>
<polygon fill="#FFFFFF" points="52.929,26.035 52.929,26.035 52.929,26.035 "/>
<polygon fill="#FFFFFF" points="52.929,26.035 52.929,26.035 52.929,26.035 "/>
</svg>
