<?xml version="1.0" encoding="utf-8"?>
<!-- Generator: Adobe Illustrator 17.1.0, SVG Export Plug-In . SVG Version: 6.00 Build 0)  -->
<!DOCTYPE svg PUBLIC "-//W3C//DTD SVG 1.1//EN" "http://www.w3.org/Graphics/SVG/1.1/DTD/svg11.dtd">
<svg version="1.1" xmlns="http://www.w3.org/2000/svg" xmlns:xlink="http://www.w3.org/1999/xlink" x="0px" y="0px"
	 viewBox="0 0 360 140" enable-background="new 0 0 360 140" xml:space="preserve">
<g id="Layer_1">
	<g>
		<path fill-rule="evenodd" clip-rule="evenodd" fill="#CACCE0" d="M263.427,53.323l-1.002-0.721
			c-1.219,1.135-3.503,5.601-6.128,8.048c-1.397,1.303-2.606,1.75-2.606,1.75c-1.141-1.225,0.885-4.062-1.897-4.16
			c-2.456-0.085-4.182,1.247-5.706,2.668c-1.52-0.566-4.738-0.679-6.381-0.223l-11.351,17.789c0,0-7.041,8.069-12.933,7.863
			c-2.044-0.07-3.241-1.014-3.149-3.632c0.091-2.619,1.928-3.62,1.928-3.62s7.912-1.362,13.671-6.73
			c5.503-5.132,6.184-10.515,0.455-10.716c-1.636-0.057-6.077,0.443-12.174,6.129c-3.633,3.389-9.524,10.575-10.223,15.944
			c-1.308,2.248-3.816,3.717-4.717,3.685c-4.785-0.167,8.415-13.428,8.651-20.176c0.073-2.128-2.037-2.693-3.344-2.74
			c-2.714-0.094-5.313,0.83-7.355,1.833l8.235-12.983l-7.419,0.864l-10.565,16.54c0,0-3.943,7.025-9.098,6.845
			c1.178-4.201,0.766-7.799-1.475-9.551c-3.843-3.001-11.632,0.535-17.616,7.897c-1.925,2.229-3.582,4.135-5.549,4.067
			c1.184-4.205,0.749-7.794-1.496-9.548c-3.038-2.374-8.655-0.605-13.786,3.854c-7.451,6.949-7.973,12.5-12.882,12.328
			c3.951-7.962,5.707-15.779,3.579-18.061c-1.895-2.032-7.125-2.379-12.545,2.675c-7.113,6.633-6.406,14.522-6.406,14.522
			s4.412-9.021,8.338-8.884c1.146,0.041,2.929,0.594,2.758,5.502c-0.091,2.593-1.478,6.667-3.71,10.09h-0.002
			c-2.276,3.49-5.429,6.303-8.98,6.179c-3.252-0.114-3.818-3.045-3.7-6.616h-0.017l0.017-0.006l0.002-0.061
			c0.244-6.99,4.581-16.498,10.153-25.695c11.92-1.08,27.554-10.416,38.991-21.084c20.492-19.107,14.462-24.724,10.044-24.879
			c-11.454-0.4-26.751,10.698-37.927,21.121c-4.418,4.12-11.301,11.189-17.452,19.726c-5.968-3.25-8.512-14.038-0.17-21.817
			c4.064-3.789,7.044-4.667,7.044-4.667s-5.863-1.025-10.603,3.397c-10.134,9.45-9.41,23.022,0.932,27.106
			c-5.284,8.114-9.554,17.295-10.437,26.525c-0.072,0.745-0.121,1.486-0.147,2.228c-0.096,2.765,0.31,5.107,1.08,6.972h0.001
			c1.325,3.203,3.733,4.992,6.527,5.089c4.189,0.147,8.25-1.56,11.811-4.446h-0.018l0.018-0.005
			c0.334-0.265,0.664-0.546,0.988-0.837c1.898-1.768,4.714-5.386,7.512-8.029l-0.007-0.001l0.007-0.002
			c1.946-1.836,3.883-3.202,5.494-3.146c-0.286,1.169-0.445,2.287-0.47,3.321v0.003l-0.001,0.005h0.001
			c-0.055,2.43,0.623,4.404,2.109,5.565c3.295,2.574,9.496,0.351,14.969-4.975c0.197-0.191,0.391-0.386,0.585-0.585
			c3.712-3.986,6.896-9.536,8.741-9.471c-1.744,4.017-2.226,7.774-1.258,10.346l0.004,0.001c0.349,0.929,0.885,1.698,1.617,2.27
			c2.541,1.984,6.81,1.117,11.14-1.827l-0.027-0.001l0.027-0.005c1.487-1.005,2.98-2.26,4.415-3.728
			c3.712-3.987,6.538-9.713,10.425-9.577l-8.65,13.521l-4.012,6.271c-38.025,7.432-64.184,18.896-64.184,18.896
			s30.387-8.072,60.509-13.146l-3.782,5.911l7.376-0.81c0,0,1.596-2.515,4.022-6.32c4.072-0.612,8.093-1.151,11.981-1.59
			c32.105-3.616,60.996-0.042,60.996-0.042l5.571-6.911c0,0-27.653-5.111-71.527,2.042c-1.082,0.176-2.15,0.36-3.215,0.544
			c0.945-1.476,1.936-3.022,2.952-4.605h-0.013l0.013-0.006c4.305-6.698,9.036-14.012,12.433-19.124c0,0,4.299-5.829,7.325-5.725
			c4.99,0.175-7.9,12.749-8.123,19.131c-0.248,7.118,11.331,1.666,13.818-1.566c1.009,1.764,3.338,2.903,7.512,3.049
			c3.926,0.138,8.379-2.984,9.181-3.734l-1.662,2.566l6.886-0.785l14.422-22.475c0,0,0.712-0.385,1.106,0.039
			c0.986,1.057-1.083,4.057,2.761,4.192c3.356,0.117,7.906-4.721,7.906-4.721s0.342,0.791,0.296,2.1
			c-0.16,4.582-3.674,10.241-5.686,12.47c-5.798,6.41-9.447,2.936-9.299,2.094c0.294-1.694,1.945-2.005,3.371-1.905
			c-2.387-2.254-6.789-0.56-7.222,2.452c-0.677,4.723,7.709,7.632,16.854,0.63c0.577-0.438,0.673-0.582,1.293-1.16
			c5.064-4.722,6.645-10.4,6.759-13.673c0.155-4.418-0.195-2.629-0.04-7.047C261.098,55.699,263.427,53.323,263.427,53.323
			 M227.536,65.545c1.799,1.928-5.58,8.504-9.603,8.363C218.075,69.843,225.431,63.285,227.536,65.545 M137.338,39.949
			c10.162-9.475,20.219-16.004,23.656-15.885c2.782,0.097-0.349,9.983-12.373,21.193c-9.177,8.558-20.1,14.467-28.706,16.282
			C125.861,52.523,132.655,44.317,137.338,39.949 M147.968,86.831c-1.532,3.008-3.619,5.312-5.607,6.436
			c-1.404,0.796-2.76,1.002-3.836,0.453c-0.299-0.153-0.565-0.357-0.794-0.607h-0.007l0.007-0.007
			c-1.771-1.915-1.495-6.535,0.818-11.077c2.614-5.129,6.842-8.214,9.443-6.888C150.594,76.466,150.583,81.7,147.968,86.831
			 M172.628,84.416c-2.615,5.131-6.842,8.214-9.443,6.89c-2.601-1.327-2.591-6.561,0.024-11.691c2.613-5.13,6.842-8.214,9.442-6.889
			C175.253,74.051,175.242,79.285,172.628,84.416"/>
	</g>
</g>
<g id="Layer_2">
</g>
</svg>
