<?xml version="1.0" encoding="utf-8"?>
<!-- Generator: Adobe Illustrator 17.1.0, SVG Export Plug-In . SVG Version: 6.00 Build 0)  -->
<!DOCTYPE svg PUBLIC "-//W3C//DTD SVG 1.1//EN" "http://www.w3.org/Graphics/SVG/1.1/DTD/svg11.dtd">
<svg version="1.1" xmlns="http://www.w3.org/2000/svg" xmlns:xlink="http://www.w3.org/1999/xlink" x="0px" y="0px"
	 viewBox="0 0 360 140" enable-background="new 0 0 360 140" xml:space="preserve">
<g id="Layer_1">
	<g>
		<path fill="#CACCE0" d="M162.561,92.782c-0.042-0.023-0.085-0.046-0.127-0.069C162.476,92.736,162.518,92.759,162.561,92.782z"/>
		<path fill="#CACCE0" d="M155.253,100.856c-1.281,0-2.396,0.254-3.33,0.762c-1.794,0.967-2.88,2.792-2.88,4.823
			c0,3.253,2.458,5.521,5.983,5.521c1.307,0,2.38-0.243,3.538-0.814l-0.006-2.383l-0.111,0.1c-0.934,0.587-2.095,0.951-3.089,0.951
			c-2.141,0-3.647-1.456-3.647-3.408c0-1.936,1.522-3.422,3.722-3.422c1.082,0,2.299,0.352,3.184,0.918l0.001-2.293
			c-0.146-0.077-0.297-0.138-0.548-0.232C157.047,100.983,156.324,100.856,155.253,100.856z"/>
		<path fill="#CACCE0" d="M169.419,105.761l-0.999-0.56c-0.839-0.435-0.885-0.99-0.855-1.32c0.037-0.395,0.476-0.918,1.215-0.918
			c0.788,0,1.399,0.164,2.36,0.631l-0.003-2.092c-0.791-0.321-1.563-0.508-2.27-0.508c-3.045,0-3.9,1.652-3.9,3.251
			c0,1.029,0.628,2.138,1.713,2.735c1.337,0.739,2.332,0.946,2.332,1.967c0,0.534-0.541,0.832-0.884,0.902
			c-0.676,0.139-1.171,0.105-1.887-0.148c-0.446-0.156-0.772-0.311-1.327-0.656l0.004,2.236c0.494,0.287,1.346,0.692,3.009,0.692
			c2.142,0,3.643-1.488,3.643-3.217C171.571,107.28,170.762,106.495,169.419,105.761z"/>
		<rect x="178.344" y="100.999" fill="#CACCE0" width="2.593" height="10.821"/>
		<path fill="#CACCE0" d="M196.119,111.041l-0.317-0.73l-0.271-0.603l-0.408-0.92c-0.303-0.59-0.793-1.544-1.497-1.993
			c0.346-0.149,0.577-0.3,0.91-0.608c0.56-0.522,0.874-1.286,0.874-2.079c0-1.015-0.528-2.015-1.342-2.571
			c-0.663-0.428-1.205-0.538-2.698-0.538h-0.742h-0.092h-3.115v10.82h2.591v-4.411h0.377c0.452,0,0.512,0,0.739,0.063
			c0.482,0.143,0.979,0.746,1.37,1.682l0.393,0.921l0.3,0.697l0.197,0.492l0.197,0.445l0.059,0.11h2.82l-0.076-0.175
			L196.119,111.041z M191.596,105.501l-0.317,0.016l-0.195,0.016h-1.07v-2.636h0.524h0.092h0.682c0.875,0,1.431,0.482,1.431,1.306
			C192.742,104.902,192.232,105.501,191.596,105.501z"/>
		<path fill="#CACCE0" d="M205.529,100.857v-0.001c-0.009,0-0.017,0.001-0.026,0.001c-0.009,0-0.017-0.001-0.026-0.001v0.001
			c-3.239,0.027-5.724,2.444-5.724,5.567c0,3.092,2.484,5.507,5.678,5.534v0.003c0.01,0,0.019-0.001,0.027-0.001
			c0.009,0,0.019,0.001,0.027,0.001v-0.003c3.266-0.026,5.767-2.411,5.767-5.534C211.253,103.301,208.753,100.885,205.529,100.857z
			 M205.535,109.824c-1.765-0.006-3.181-1.532-3.181-3.352c0-1.841,1.37-3.362,3.151-3.368c1.716,0.006,3.183,1.55,3.183,3.384
			C208.687,108.292,207.22,109.818,205.535,109.824z"/>
		<path fill="#CACCE0" d="M199.979,56.985c0.6,1.844,0.785,3.043,0.139,4.473c-0.105,0.231-0.228,0.496-0.359,0.781v29.071v0.056
			c10.096-6.517,16.78-17.866,16.78-30.776c0-12.911-6.684-24.26-16.78-30.777v0.06v26.531
			C199.842,56.598,199.916,56.791,199.979,56.985z"/>
		<path fill="#CACCE0" d="M165.65,69.33c-1.2-0.092-1.165-1.046-1.165-1.568V54.171c0,0-0.126-1.291,1.38-3.597
			c0.119-0.208,0.367-0.63,0.666-1.119V26.563v-0.05c-1.834,0.723-3.596,1.591-5.27,2.587v0.043v24.253
			c0.263-0.164,0.521-0.27,0.76-0.27c0.888,0,1.2,0.023,1.294,0.924v16.068c-0.132,0.521-0.716,0.809-2.032-0.38l-0.023,22.301
			v0.039c0.381,0.227,0.783,0.422,1.173,0.636c0.042,0.023,0.085,0.046,0.127,0.069c1.284,0.695,2.599,1.342,3.97,1.882v-0.045
			V69.326C166.268,69.356,165.987,69.356,165.65,69.33z"/>
		<path fill="#CACCE0" d="M184.667,67.916c-0.37-0.415-0.877-0.737-0.877-2.537V48.451c0-0.415-0.092-0.969,0.785-1.106l1.158-0.092
			V24.484v-0.043c-1.702-0.271-3.442-0.423-5.214-0.452v0.046v20.115c0.014,0.089,0.027,0.184,0.043,0.29
			c0.185,1.245,1.383,1.983,1.476,2.122c0.329,0.293,0.511,0.564,0.574,1.215v19.238c-0.02,0.578-0.324,1.004-0.99,0.486
			c-0.264-0.207-0.666-0.535-1.103-0.898v30.544v0.042c1.772-0.027,3.513-0.182,5.214-0.452v-0.039V69.197
			C185.237,68.591,184.801,68.066,184.667,67.916z"/>
		<path fill="#CACCE0" d="M158.7,60.567c-1.291-1.538-0.342-4.218,0.247-4.889c0.205-0.227,0.615-0.69,1.152-1.264V29.868v-0.051
			c-10.092,6.519-16.772,17.864-16.772,30.773c0,12.905,6.681,24.253,16.772,30.771v-0.047v-28.26
			C159.791,62.191,159.336,61.323,158.7,60.567z"/>
		<path fill="#CACCE0" d="M172.445,66.486c-0.621,0.207-1.415,0.448-1.537-0.575v-2.009c0.024-4.727,0.01-17.618,0.01-17.618
			c0-0.692,0.835-0.923,1.435-0.6c0.191,0.103,0.4,0.07,0.61-0.043V24.69v-0.042c-1.808,0.349-3.569,0.829-5.27,1.433v0.042v21.52
			c0.281-0.409,0.532-0.74,0.693-0.884c0.554-0.492,1.359-1.322,1.359,1.169c0,2.49,0.003,16.273,0.003,17.15
			c0,1.106,0.23,2.583-0.931,3.236c-0.459,0.258-0.809,0.481-1.123,0.637v26.106v0.038c1.702,0.606,3.462,1.085,5.27,1.435v-0.039
			V66.301C172.774,66.372,172.597,66.435,172.445,66.486z"/>
		<path fill="#CACCE0" d="M178.164,64.641c-0.462-0.369-0.831-0.692-0.831-2.537V44.716c0-1.014,0.416-1.706,0.877-2.029
			c0.254-0.178,0.717-0.606,1.129-0.786V24.035V23.99c-1.772,0.027-3.514,0.181-5.214,0.452v0.04v19.905
			c0.009-0.013,0.017-0.027,0.026-0.04c0.416-0.646,1.108-1.477,1.431-1.522c0.323-0.046,0.597-0.046,0.597,1.154v19.786
			c0,0.877-0.043,1.014-0.966,1.522c-0.343,0.188-0.717,0.37-1.088,0.537v30.876v0.036c1.7,0.271,3.442,0.425,5.214,0.453v-0.041
			V65.619C178.804,65.172,178.348,64.789,178.164,64.641z"/>
		<path fill="#CACCE0" d="M198.599,64.85c-0.319,0.783-0.527,1.446-0.557,1.775c-0.092,1.015-0.184,1.475-0.6,2.675
			c-0.415,1.2-0.783,0.461-0.783-0.185V53.157c0-1.472,1.015-0.162,1.015-0.162s0.469,0.59,0.925,1.286V29.147v-0.052
			c-1.676-0.996-3.437-1.863-5.272-2.584v0.054v22.619c0.637,0.604,1.225,1.129,1.487,1.297c0.646,0.416,0.693,1.753,0.693,2.629
			V67.5c0,1.154,0.092,2.768-1.108,3.782c-0.28,0.237-0.659,0.436-1.072,0.58v1.986c0.035-0.009,0.07-0.017,0.103-0.029
			c0.415-0.139,1.223-0.208,1.2,0.552c-0.017,0.555-0.43,2.706-1.062,3.137c-0.076,0.052-0.158,0.092-0.241,0.125v16.984v0.05
			c1.835-0.722,3.596-1.588,5.272-2.584v-0.048V64.85z"/>
		<path fill="#CACCE0" d="M191.909,77.509c-0.393-0.207-0.647-0.33-0.762-1.152c-0.115-0.831-0.276-1.177-0.552-1.683
			c-0.416-0.762,0.254-1.522,1.175-0.97c0.139,0.056,0.27,0.098,0.398,0.129v-1.738c-1.02,0.054-1.94-0.32-1.962-1.422
			l-0.003-23.466c0.053-0.795,0.42-0.914,0.875-0.323c0.159,0.208,0.581,0.654,1.089,1.165V26.126v-0.047
			c-1.703-0.604-3.464-1.085-5.272-1.432v0.044v16.21c0.227,0.637,0.534,1.271,0.954,1.739c1.245,1.383,1.2,2.537,1.2,4.382v23.845
			c0,0.461-0.092,1.937-1.383,0.692c0,0-0.331-0.406-0.771-0.944v25.875v0.042c1.808-0.349,3.569-0.831,5.272-1.433v-0.043V77.619
			C192.077,77.588,191.988,77.55,191.909,77.509z"/>
	</g>
</g>
<g id="Layer_2">
</g>
</svg>
