<?xml version="1.0" encoding="utf-8"?>
<!-- Generator: Adobe Illustrator 17.1.0, SVG Export Plug-In . SVG Version: 6.00 Build 0)  -->
<!DOCTYPE svg PUBLIC "-//W3C//DTD SVG 1.1//EN" "http://www.w3.org/Graphics/SVG/1.1/DTD/svg11.dtd">
<svg version="1.1" xmlns="http://www.w3.org/2000/svg" xmlns:xlink="http://www.w3.org/1999/xlink" x="0px" y="0px"
	 viewBox="0 0 360 140" enable-background="new 0 0 360 140" xml:space="preserve">
<g id="Layer_1">
	<g>
		<path fill="#CACCE0" d="M320.676,34.466H39.158c-2.894,0-5.241,2.347-5.241,5.241v59.585c0,2.894,2.347,5.241,5.241,5.241h281.518
			c2.894,0,5.241-2.347,5.241-5.241V39.707C325.917,36.813,323.57,34.466,320.676,34.466z M320.676,99.292H39.158V39.707h281.518
			V99.292z"/>
		<polygon fill="none" points="163.433,73.956 162.762,76.086 162.505,81.412 162.937,83.478 166.397,83.094 166.706,81.602 
			166.839,73.932 165.443,73.53 		"/>
		<polygon fill="none" points="279.862,61.172 279.557,63.527 279.615,65.928 282.971,65.539 284.04,63.84 283.837,55.615 
			283.831,55.606 280.066,55.694 		"/>
		<polygon fill="none" points="163.02,58.566 163.186,65.734 166.654,65.627 167.015,64.508 167.162,56.363 163.587,56.489 		"/>
		<polygon fill="#CACCE0" points="231.369,53.252 228.309,52.925 228.033,52.697 227.993,52.963 230.035,54.651 232.83,54.95 
			232.844,54.341 		"/>
		<polygon fill="#CACCE0" points="263.626,53.256 256.159,54.087 255.443,54.673 255.29,60.927 255.341,62.881 256.108,64.884 
			256.824,65.471 257.403,65.484 257.067,64.607 257.016,62.653 257.169,56.399 257.885,55.813 265.352,54.982 266.426,54.249 
			266.375,53.223 265.301,53.272 264.686,52.252 264.7,52.523 		"/>
		<polygon fill="#CACCE0" points="262.45,70.308 255.903,70.699 255.239,72.751 256.057,76.953 255.75,78.907 255.852,81.594 
			256.568,82.18 257.532,82.094 257.476,80.633 257.783,78.679 256.965,74.477 257.629,72.425 264.176,72.034 265.454,71.301 
			266.119,69.054 264.738,67.344 264.39,67.335 263.728,69.575 		"/>
		<polygon fill="#CACCE0" points="245.511,50.621 244.264,49.859 244.116,49.852 244.181,50.039 244.238,51.019 241.914,52.979 
			238.456,53.089 237.833,54.232 238.569,80.427 238.343,87.016 237.606,88.051 236.812,88.868 235.478,88.676 236.27,90.268 
			238.538,90.594 239.332,89.777 240.069,88.742 240.296,82.153 239.559,55.958 240.182,54.815 243.64,54.706 245.964,52.745 
			245.907,51.765 		"/>
		<polygon fill="#CACCE0" points="221.628,78.696 221.072,71.218 219.348,69.512 219.902,76.97 220.68,78.046 220.791,82.81 
			218.68,85.934 215.734,86.959 213.011,87.369 211.621,87.42 209.009,86.498 206.751,84.956 207.735,86.175 210.735,88.224 
			213.348,89.146 214.737,89.095 217.46,88.685 220.406,87.661 222.518,84.536 222.406,79.772 		"/>
		<polygon fill="#CACCE0" points="279.307,70.403 278.34,70.403 277.322,71.478 277.628,85.864 276.966,86.94 276.355,87.554 
			274.791,87.592 275.944,89.332 278.081,89.28 278.692,88.666 279.354,87.591 279.048,73.204 280.066,72.129 281.033,72.129 
			281.059,72.147 280.732,71.427 		"/>
		<polygon fill="#CACCE0" points="302.345,80.993 303.984,81.998 303.811,80.56 302.667,78.916 302.081,78.829 302.085,78.834 		"/>
		<polygon fill="#CACCE0" points="307.442,70.816 302.085,69.89 300.226,68.64 301.366,69.972 303.811,71.617 308.436,72.415 
			308.066,71.535 		"/>
		<polygon fill="#CACCE0" points="314.525,79.738 313.797,78.659 313.277,71.154 310.416,68.122 310.297,68.099 311.551,69.428 
			312.071,76.933 312.799,78.012 312.904,82.792 310.927,85.928 308.17,86.956 305.622,87.367 304.321,87.418 301.877,86.493 
			300.02,85.134 300.794,86.163 303.603,88.219 306.047,89.144 307.348,89.093 309.896,88.682 312.653,87.654 314.63,84.518 		"/>
		<polygon fill="#CACCE0" points="312.279,54.213 311.551,54.984 311.603,56.989 310.875,57.709 310.554,57.737 312.029,59.486 
			312.601,59.435 313.329,58.715 313.277,56.711 314.005,55.939 313.589,54.192 311.821,51.827 311.184,51.558 311.863,52.466 		"/>
		<polygon fill="#CACCE0" points="307.078,54.008 303.541,54.779 302.189,58.891 302.657,62.695 302.709,63.774 304.418,65.14 
			304.383,64.421 303.915,60.617 305.267,56.505 308.627,55.773 307.702,54.676 		"/>
		<polygon fill="#CACCE0" points="279.557,63.527 279.862,61.172 280.066,55.694 283.831,55.606 282.717,53.865 278.34,53.968 
			278.136,59.446 277.831,61.801 277.933,66 279.001,66 279.615,65.928 		"/>
		<polygon fill="#CACCE0" points="211.133,81.945 210.958,80.592 209.735,78.953 209.234,78.883 209.51,81.017 		"/>
		<polygon fill="#CACCE0" points="266.835,83.676 266.643,84.868 265.262,86.285 252.565,86.571 252.567,86.643 253.998,88.304 
			266.988,88.011 268.369,86.594 268.574,85.324 267.602,84.004 		"/>
		<polygon fill="#CACCE0" points="288.311,75.354 287.548,72.641 290.194,68.801 289.94,57.844 288.922,53.441 287.853,52.417 
			287.3,52.167 288.213,56.118 288.468,67.075 285.822,70.914 286.585,73.628 288.824,83.612 289.588,84.533 288.926,86.684 
			286.585,88.066 285.944,87.917 286.988,89.485 288.311,89.792 290.652,88.41 291.314,86.26 290.55,85.338 		"/>
		<polygon fill="#CACCE0" points="139.363,69.794 135.481,71.439 134.904,72.119 135.167,85.838 134.485,88.502 132.701,90.089 
			132.091,89.937 133.063,91.475 134.427,91.816 136.211,90.228 136.893,87.564 136.63,73.845 137.208,73.165 141.089,71.52 
			142.236,72.535 142.248,72.346 		"/>
		<polygon fill="#CACCE0" points="124.326,52.061 123.078,51.298 122.931,51.291 122.996,51.478 123.053,52.458 120.729,54.419 
			117.271,54.528 116.647,55.671 117.384,81.866 117.157,88.455 116.421,89.49 115.627,90.307 114.293,90.115 115.085,91.707 
			117.353,92.034 118.147,91.216 118.884,90.182 119.111,83.592 118.374,57.398 118.997,56.254 122.455,56.145 124.779,54.185 
			124.722,53.204 		"/>
		<polygon fill="#CACCE0" points="98.107,49.489 97.496,54.937 96.192,61.797 94.321,67.126 93.244,71.774 92.62,73.248 
			91.94,76.309 92.734,77.443 93.017,88.781 91.43,90.425 89.698,90.159 89.698,90.224 90.945,91.811 93.156,92.151 94.743,90.507 
			94.46,79.17 93.666,78.036 94.347,74.974 94.97,73.501 96.047,68.852 97.918,63.523 99.222,56.663 99.902,50.598 99.052,49.804 		
			"/>
		<polygon fill="#CACCE0" points="110.184,54.691 107.124,54.364 106.848,54.136 106.808,54.402 108.85,56.091 111.645,56.389 
			111.659,55.78 		"/>
		<polygon fill="#CACCE0" points="214.956,70.875 209.232,69.953 206.954,68.523 208.346,70.04 210.958,71.679 216.03,72.496 
			215.623,71.592 		"/>
		<polygon fill="#CACCE0" points="86.158,55.561 86.838,56.241 88.199,63.044 88.992,64.235 89.389,64.631 89.786,64.575 
			89.846,64.377 88.564,57.967 87.884,57.287 87.43,53.886 85.389,50.484 84.588,50.299 85.704,52.16 		"/>
		<polygon fill="#CACCE0" points="147.7,67.496 148.329,66.702 147.804,54.57 148.381,51.566 147.332,49.752 146.52,49.605 
			146.655,49.84 146.078,52.844 146.603,64.976 145.973,65.77 146.655,79.092 147.39,85.951 146.812,88.559 145.029,89.806 
			143.552,89.516 143.555,89.661 145.024,91.192 146.755,91.532 148.539,90.285 149.116,87.677 148.381,80.818 		"/>
		<polygon fill="#CACCE0" points="161.861,54.763 161.294,56.84 161.501,65.786 163.186,65.734 163.02,58.566 163.587,56.489 
			167.162,56.363 167.17,55.934 166.397,54.603 		"/>
		<polygon fill="#CACCE0" points="134.537,56.189 135.324,62.992 134.957,63.842 135.009,65.032 136.111,66.053 136.702,65.991 
			136.683,65.568 137.05,64.718 136.263,57.915 136.84,54.854 136.106,50.375 134.637,48.845 134.413,48.852 135.114,53.128 		"/>
		<polygon fill="#CACCE0" points="162.505,81.412 162.762,76.086 163.433,73.956 165.443,73.53 166.839,73.932 166.861,72.709 
			163.716,71.804 161.706,72.23 161.036,74.36 160.779,79.686 161.603,83.626 162.937,83.478 		"/>
		<polygon fill="#CACCE0" points="173.947,54.678 172.452,52.282 171.421,51.67 172.221,52.952 171.86,66.479 171.19,68.715 
			172.015,72.283 171.602,84.691 170.675,86.608 167.994,88.739 158.253,89.004 158.213,88.979 158.897,90.039 159.979,90.731 
			169.721,90.465 172.401,88.335 173.329,86.417 173.741,74.009 172.916,70.442 173.586,68.205 		"/>
		<polygon fill="#CACCE0" points="199.085,70.671 199.031,51.153 197.306,49.822 197.359,68.945 196.333,72.247 197.575,77.97 
			196.927,82.028 195.631,84.944 192.77,87.544 190.934,88.354 184.725,88.084 183.567,87.482 185.102,89.108 186.452,89.81 
			192.661,90.08 194.496,89.27 197.358,86.67 198.654,83.754 199.301,79.696 198.06,73.973 		"/>
		<polygon fill="#CACCE0" points="56.035,49.203 56.035,49.203 56.333,49.502 		"/>
		<polygon fill="#CACCE0" points="214.567,54.124 210.788,54.893 209.343,58.991 209.843,62.781 209.899,63.857 211.601,65.126 
			211.569,64.507 211.069,60.717 212.514,56.619 216.208,55.868 215.234,54.79 		"/>
		<polygon fill="#CACCE0" points="220.124,54.33 219.346,55.098 219.402,57.095 218.624,57.813 218.166,57.851 219.739,59.59 
			220.35,59.539 221.128,58.822 221.072,56.824 221.851,56.056 221.406,54.314 219.517,51.958 219.016,51.76 219.68,52.588 		"/>
		<polygon fill="#CACCE0" points="55.952,72.533 55.329,74.121 55.159,84.381 54.818,87.443 54.875,88.52 52.494,90.164 
			51.55,89.763 51.556,90.076 52.35,91.096 54.22,91.89 56.601,90.246 56.545,89.169 56.885,86.108 57.055,75.847 57.145,75.616 
			56.746,73.27 		"/>
		<polygon fill="#CACCE0" points="184.887,61.737 184.24,66.38 185.157,72.157 184.402,73.291 185.211,76.152 185.373,81.173 
			186.777,82.631 187.09,82.597 186.937,77.878 186.128,75.017 186.884,73.883 185.966,68.106 186.614,63.463 186.344,51.909 
			184.562,49.695 184.225,49.695 184.617,50.183 		"/>
		<polygon fill="#CACCE0" points="67.404,72.25 64.569,79.96 63.378,80.81 59.858,80.499 60.173,81.459 61.25,82.196 65.105,82.536 
			66.295,81.686 68.267,76.322 68.14,74.631 		"/>
		<polygon fill="#CACCE0" points="60.828,66.751 61.508,67.884 61.905,68.282 62.249,67.467 59.266,57.593 58.359,51.527 
			56.632,49.8 57.54,55.866 		"/>
		<polygon fill="#CACCE0" points="75.706,51.017 74.232,49.486 73.973,49.467 73.356,67.195 74.093,81.981 73.866,88.86 
			72.279,90.504 71.258,90.504 70.909,90.242 70.944,90.699 72.985,92.23 74.005,92.23 75.592,90.586 75.819,83.708 75.082,68.921 
					"/>
		<g>
			<polygon fill="#CACCE0" points="73.127,81.187 72.901,88.066 71.313,89.71 70.293,89.71 68.252,88.179 67.175,73.837 
				66.438,71.456 63.604,79.166 62.413,80.016 58.558,79.676 57.481,78.939 56.234,75.141 55.781,72.476 54.987,71.739 
				54.363,73.327 54.193,83.588 53.853,86.649 53.91,87.726 51.529,89.37 49.658,88.576 48.864,87.556 48.694,79.109 49.318,73.44 
				49.488,63.122 50.282,62.329 49.431,59.041 49.148,48.78 50.962,47.136 53.343,46.683 55.667,49.007 56.574,55.073 
				59.862,65.957 60.543,67.091 60.939,67.488 62.073,64.804 62.753,60.987 63.774,58.313 64.454,54.43 66.325,48.279 
				67.742,46.683 71.54,46.966 73.014,48.497 72.39,66.401 73.127,81.187 			"/>
			<polygon fill="#CACCE0" points="97.211,48.078 96.53,54.143 95.226,61.003 93.356,66.332 92.278,70.98 91.655,72.454 
				90.974,75.516 91.768,76.649 92.052,87.987 90.464,89.631 88.253,89.291 87.006,87.704 87.119,74.779 83.888,66.162 
				83.378,60.889 81.45,58.282 81.45,57.091 80.6,56.354 80.147,52.953 79.693,49.892 79.636,48.871 81.224,47.624 82.698,47.964 
				84.739,51.366 85.192,54.767 85.873,55.447 87.233,62.25 88.027,63.441 88.424,63.837 88.82,63.781 90.918,56.921 91.258,54.654 
				92.619,50.799 92.959,48.531 95.17,46.887 96.36,47.284 97.211,48.078 			"/>
			<polygon fill="#CACCE0" points="122.088,51.664 119.763,53.625 116.305,53.734 115.682,54.878 116.419,81.072 116.192,87.662 
				115.455,88.696 114.661,89.514 112.393,89.187 111.147,86.682 110.523,62.611 110.693,54.986 109.219,53.897 106.158,53.571 
				104.117,51.882 104.457,49.595 106.668,48.124 120.387,48.778 121.634,49.541 122.031,50.684 122.088,51.664 			"/>
			<polygon fill="#CACCE0" points="146.424,85.157 145.847,87.765 144.063,89.012 142.332,88.672 140.864,87.141 140.706,80.679 
				141.283,71.552 138.398,69 134.516,70.645 133.939,71.325 134.201,85.044 133.519,87.708 131.736,89.296 130.372,88.955 
				128.903,86.631 128.431,64.352 128.641,57.889 129.322,56.302 128.903,52.447 128.798,48.366 130.214,46.381 131.945,46.325 
				133.414,47.855 134.149,52.334 133.571,55.395 134.359,62.198 133.991,63.048 134.044,64.239 135.145,65.259 140.024,64.749 
				141.126,48.082 142.437,46.835 144.64,47.232 145.69,49.046 145.113,52.05 145.637,64.182 145.008,64.976 145.69,78.298 
				146.424,85.157 			"/>
			<path fill="#CACCE0" d="M171.255,52.158l-0.361,13.526l-0.67,2.237l0.825,3.568l-0.412,12.408l-0.928,1.917l-2.68,2.13
				l-9.741,0.266l-1.082-0.692l-1.34-2.077l-0.258-9.266l-0.052-16.348l0.361-9.692l0.67-1.118l1.082-1.012l1.649-0.426l9.02,0.745
				l2.422,1.438L171.255,52.158L171.255,52.158z M166.204,55.141l-0.773-1.331l-4.536,0.16l-0.567,2.077l0.207,8.946l5.154-0.16
				l0.361-1.118L166.204,55.141L166.204,55.141z M165.895,71.915l-3.144-0.905l-2.01,0.426l-0.67,2.13l-0.258,5.325l0.825,3.94
				l4.794-0.532l0.309-1.491L165.895,71.915L165.895,71.915z"/>
			<polygon fill="#CACCE0" points="196.61,77.176 195.962,81.234 194.666,84.15 191.805,86.75 189.969,87.56 183.76,87.29 
				182.41,86.588 179.711,83.727 178.631,81.621 178.307,66.828 178.307,51.657 178.901,48.363 180.737,47.175 181.87,47.175 
				183.652,49.389 183.922,60.943 183.274,65.586 184.192,71.363 183.436,72.497 184.246,75.358 184.408,80.38 185.812,81.837 
				189.807,81.405 190.509,80.218 191.157,75.188 190.671,53.447 190.941,49.173 191.211,48.039 193.046,47.229 194.45,47.175 
				196.34,48.633 196.394,68.151 195.368,71.453 196.61,77.176 			"/>
			<polygon fill="#CACCE0" points="219.826,82.016 217.714,85.14 214.769,86.165 212.045,86.575 210.656,86.626 208.044,85.704 
				205.043,83.655 203.432,81.657 203.32,77.252 204.821,76.125 207.044,76.433 208.266,78.072 208.544,80.223 211.323,81.811 
				213.879,81.401 215.658,78.994 215.936,75.92 215.88,73.513 214.657,70.798 213.991,70.081 208.266,69.159 205.654,67.52 
				203.82,65.522 202.931,62.807 202.764,55.226 204.599,51.845 207.544,49.284 210.489,48.26 214.491,48.516 216.825,49.438 
				218.714,51.794 219.159,53.536 218.381,54.304 218.437,56.302 217.658,57.019 217.047,57.07 214.268,53.997 213.602,53.331 
				209.823,54.099 208.378,58.197 208.878,61.987 208.933,63.063 211.545,65.01 215.324,65.676 218.381,68.698 218.936,76.176 
				219.715,77.252 219.826,82.016 			"/>
			<polygon fill="#CACCE0" points="265.882,82.804 265.678,84.074 264.297,85.491 251.307,85.784 249.875,84.123 249.415,68.097 
				249.875,57.983 249.722,52.755 250.386,50.801 250.949,49.775 252.688,48.7 257.444,49.286 261.637,49.14 262.609,50.752 
				263.683,50.703 263.734,51.729 262.66,52.462 255.194,53.293 254.478,53.879 254.324,60.133 254.375,62.087 255.142,64.091 
				255.859,64.677 262.046,64.823 263.427,66.534 262.763,68.781 261.484,69.514 254.938,69.905 254.273,71.957 255.092,76.159 
				254.784,78.113 254.887,80.8 255.603,81.387 261.075,80.898 263.427,80.849 264.91,81.484 265.882,82.804 			"/>
			<path fill="#CACCE0" d="M288.622,83.739l-0.662,2.151l-2.341,1.382l-1.323-0.307l-1.12-1.681l-0.764-3.78l-0.407-2.347
				l-0.763-2.347l-0.713-4.497l-0.763-1.681l-1.425-1.024h-0.968l-1.018,1.075l0.306,14.387L276,86.146l-0.611,0.614l-2.137,0.051
				l-1.323-1.997V52.56l0.56-2.406l0.356-0.358l2.341-1.024l1.731-0.358l6.209,0.563l2.036,0.922l1.069,1.024l1.018,4.403
				l0.254,10.957l-2.646,3.84l0.763,2.714l2.239,9.984L288.622,83.739L288.622,83.739z M283.074,63.047l-0.203-8.226l-1.12-1.749
				l-4.377,0.103l-0.204,5.478l-0.305,2.355l0.102,4.199h1.069l3.969-0.461L283.074,63.047L283.074,63.047z"/>
			<polygon fill="#CACCE0" points="311.938,81.998 309.961,85.134 307.205,86.162 304.656,86.573 303.356,86.624 300.911,85.699 
				298.103,83.643 296.594,81.638 296.49,77.218 297.894,76.087 299.975,76.396 301.119,78.04 301.379,80.2 303.98,81.793 
				306.373,81.381 308.037,78.966 308.297,75.882 308.245,73.466 307.101,70.742 306.477,70.022 301.119,69.097 298.675,67.452 
				296.958,65.447 296.126,62.723 295.97,55.116 297.687,51.723 300.443,49.153 303.2,48.125 306.945,48.382 309.129,49.307 
				310.898,51.672 311.314,53.419 310.585,54.19 310.637,56.195 309.909,56.915 309.337,56.966 306.737,53.882 306.112,53.214 
				302.575,53.985 301.223,58.097 301.692,61.901 301.743,62.98 304.188,64.933 307.725,65.602 310.585,68.634 311.105,76.139 
				311.834,77.218 311.938,81.998 			"/>
			<polygon fill="#CACCE0" points="243.273,50.225 240.948,52.186 237.49,52.295 236.867,53.438 237.604,79.633 237.377,86.222 
				236.64,87.257 235.846,88.074 233.579,87.747 232.332,85.242 231.708,61.171 231.878,53.547 230.404,52.458 227.343,52.131 
				225.302,50.443 225.642,48.156 227.853,46.685 241.572,47.339 242.819,48.101 243.216,49.245 243.273,50.225 			"/>
		</g>
	</g>
</g>
<g id="Layer_2">
</g>
</svg>
