<?xml version="1.0" encoding="utf-8"?>
<!-- Generator: Adobe Illustrator 17.1.0, SVG Export Plug-In . SVG Version: 6.00 Build 0)  -->
<!DOCTYPE svg PUBLIC "-//W3C//DTD SVG 1.1//EN" "http://www.w3.org/Graphics/SVG/1.1/DTD/svg11.dtd">
<svg version="1.1" xmlns="http://www.w3.org/2000/svg" xmlns:xlink="http://www.w3.org/1999/xlink" x="0px" y="0px"
	 viewBox="0 0 360 140" enable-background="new 0 0 360 140" xml:space="preserve">
<g id="Layer_1">
	<g>
		<path fill="#CACCE0" d="M118.335,29.104l-16.3,16.3h39.438l16.3-16.3H118.335z M162.521,29.104l-16.298,16.3h9.482l16.3-16.3
			H162.521z M186.234,29.104l-16.302,16.3h14.207l16.298-16.3H186.234z"/>
		<path fill="#CACCE0" d="M219.447,83.624l7.797-21.121l7.799,21.121H219.447z M169.197,83.624l7.799-21.121l7.799,21.121H169.197z
			 M125.951,77.647h-7.04V61.401h8.723c4.882,0,9.427,1.347,9.427,7.912C137.061,76.3,130.833,77.647,125.951,77.647
			 M252.455,100.459l-18.018-47.055h-14.21l-18.02,47.055l-18.02-47.055h-14.209l-18.018,47.055l-2.568-6.797
			c-2.251-5.834-4.4-11.366-12.535-12.043v-0.104c7.239-0.59,11.399-5.873,11.399-12.54c0-14.058-9.091-15.571-18.939-15.571H102.13
			v7.996h5.793v39.059h-5.793v7.996h22.6v-7.996h-5.819V85.643h6.777c6.229,0,9.874,2.748,11.755,7.493l5.704,15.32h24.838v-7.996
			h-4.871l3.199-8.84h21.366l3.199,8.84h-4.871v7.996h32.225v-7.996h-4.869l3.197-8.84h21.368l3.197,8.84h-4.871v7.996h21.067
			v-7.996H252.455z"/>
	</g>
</g>
<g id="Layer_2">
</g>
</svg>
