<?xml version="1.0" encoding="utf-8"?>
<!-- Generator: Adobe Illustrator 17.1.0, SVG Export Plug-In . SVG Version: 6.00 Build 0)  -->
<!DOCTYPE svg PUBLIC "-//W3C//DTD SVG 1.1//EN" "http://www.w3.org/Graphics/SVG/1.1/DTD/svg11.dtd">
<svg version="1.1" id="Layer_1" xmlns="http://www.w3.org/2000/svg" xmlns:xlink="http://www.w3.org/1999/xlink" x="0px" y="0px"
	 viewBox="0 0 140 30" enable-background="new 0 0 140 30" xml:space="preserve">
<g>
	<path fill-rule="evenodd" clip-rule="evenodd" fill="#FFFFFF" d="M12.05,0h7.229v7.229c0,1.331-1.08,2.408-2.41,2.408H9.639V2.411
		C9.639,1.08,10.719,0,12.05,0z M12.05,19.505h7.229v7.229c0,1.331-1.08,2.408-2.41,2.408H9.639v-7.226
		C9.639,20.584,10.719,19.505,12.05,19.505z M2.411,9.636h7.229v7.229c0,1.331-1.08,2.411-2.41,2.411H0v-7.229
		C0,10.716,1.08,9.636,2.411,9.636z M21.689,9.868h7.229v7.226c0,1.331-1.08,2.41-2.411,2.41h-7.229v-7.229
		C19.278,10.945,20.358,9.868,21.689,9.868z"/>
	<path fill-rule="evenodd" clip-rule="evenodd" fill="#FFFFFF" d="M107.996,22.676c0-1.129,0.333-2.075,0.995-2.844
		c0.671-0.755,1.508-1.134,2.509-1.134c1.058,0,1.92,0.374,2.582,1.123c0.663,0.766,0.995,1.742,0.995,2.92
		c0,1.181-0.333,2.154-0.995,2.92c-0.663,0.742-1.532,1.113-2.61,1.113c-1.009,0-1.846-0.385-2.509-1.151
		C108.321,24.866,107.996,23.884,107.996,22.676z M106.718,17.972c-1.129,1.26-1.693,2.828-1.693,4.704
		c0,1.922,0.564,3.526,1.693,4.807c1.137,1.26,2.566,1.887,4.289,1.887c1.448,0,2.746-0.559,3.891-1.677v1.317h2.92V9.754h-2.92
		v8.129c-1.164-1.205-2.481-1.808-3.954-1.808C109.245,16.074,107.836,16.707,106.718,17.972z M94.393,21.023
		c0.093-0.363,0.232-0.687,0.412-0.971c0.183-0.284,0.398-0.526,0.652-0.731c0.253-0.202,0.537-0.357,0.848-0.464
		c0.311-0.106,0.643-0.161,0.995-0.161c1.552,0,2.528,0.774,2.934,2.326H94.393z M92.814,17.896
		c-1.102,1.23-1.652,2.844-1.652,4.832c0,2.007,0.567,3.618,1.704,4.832c1.14,1.208,2.645,1.811,4.524,1.811
		c0.654,0,1.262-0.068,1.822-0.205c0.562-0.139,1.082-0.357,1.565-0.655c0.48-0.297,0.933-0.676,1.355-1.137
		c0.423-0.461,0.824-1.014,1.202-1.661l-2.457-1.369c-0.592,0.93-1.121,1.568-1.59,1.911c-0.472,0.344-1.069,0.518-1.794,0.518
		c-0.93,0-1.693-0.303-2.288-0.905c-0.594-0.614-0.93-1.434-1.006-2.47h9.018l0.014-0.682c0-2.078-0.534-3.7-1.603-4.873
		c-1.077-1.181-2.541-1.77-4.393-1.77C95.399,16.074,93.926,16.68,92.814,17.896z M86.488,9.754V29.01h2.907V9.754H86.488z
		 M74.681,22.717c0-1.189,0.333-2.154,0.995-2.896c0.673-0.75,1.543-1.123,2.609-1.123c1.001,0,1.832,0.387,2.495,1.162
		c0.657,0.758,0.982,1.74,0.982,2.948c0,1.137-0.335,2.086-1.006,2.844c-0.663,0.747-1.5,1.123-2.509,1.123
		c-1.069,0-1.93-0.376-2.585-1.123C75.008,24.917,74.681,23.938,74.681,22.717z M71.943,9.754V29.01h2.907v-1.317
		c1.145,1.118,2.446,1.677,3.902,1.677c1.723,0,3.15-0.627,4.278-1.887c1.134-1.265,1.704-2.869,1.704-4.807
		c0-1.876-0.564-3.444-1.691-4.704c-1.132-1.265-2.544-1.898-4.24-1.898c-1.475,0-2.789,0.603-3.954,1.808V9.754H71.943z
		 M33.526,21.023c0.093-0.363,0.232-0.687,0.412-0.971c0.183-0.284,0.398-0.526,0.652-0.731c0.256-0.202,0.537-0.357,0.848-0.464
		c0.308-0.106,0.644-0.161,0.995-0.161c1.549,0,2.528,0.774,2.934,2.326H33.526z M34.338,25.869c-0.594-0.614-0.93-1.434-1.006-2.47
		h9.02l0.011-0.682c0-2.078-0.532-3.7-1.601-4.873c-1.077-1.181-2.544-1.77-4.396-1.77c-1.835,0-3.308,0.605-4.42,1.822
		c-1.102,1.23-1.652,2.844-1.652,4.832c0,2.007,0.567,3.618,1.707,4.832c1.137,1.208,2.642,1.811,4.521,1.811
		c0.655,0,1.263-0.068,1.822-0.205c0.562-0.139,1.083-0.357,1.565-0.655c0.483-0.297,0.933-0.676,1.358-1.137
		c0.42-0.461,0.821-1.014,1.2-1.661l-2.454-1.369c-0.594,0.93-1.123,1.568-1.59,1.911c-0.475,0.344-1.072,0.518-1.797,0.518
		C35.696,26.774,34.933,26.472,34.338,25.869z M52.13,29.01h2.918v-7.717c0-1.772-0.352-3.051-1.058-3.839
		c-0.818-0.919-1.961-1.38-3.425-1.38c-1.276,0-2.421,0.502-3.438,1.511v-1.164h-2.92V29.01h2.92v-6.067
		c0-1.565,0.199-2.661,0.597-3.291c0.404-0.635,1.088-0.954,2.053-0.954c0.886,0,1.497,0.24,1.832,0.723
		c0.346,0.475,0.521,1.331,0.521,2.566V29.01z M66.855,22.741c0,1.181-0.33,2.154-0.995,2.92c-0.663,0.742-1.532,1.113-2.61,1.113
		c-1.006,0-1.846-0.385-2.509-1.151c-0.643-0.758-0.968-1.74-0.968-2.948c0-1.129,0.333-2.075,0.995-2.844
		c0.671-0.755,1.508-1.134,2.509-1.134c1.058,0,1.92,0.374,2.582,1.123C66.525,20.587,66.855,21.563,66.855,22.741z M66.675,17.882
		c-1.164-1.205-2.479-1.808-3.943-1.808c-1.696,0-3.111,0.627-4.237,1.884c-1.129,1.26-1.693,2.83-1.693,4.717
		c0,1.922,0.565,3.526,1.693,4.807c1.137,1.26,2.574,1.887,4.314,1.887c1.38,0,2.667-0.559,3.866-1.677v1.317h2.92V16.421h-2.92
		V17.882z"/>
</g>
</svg>
