<?xml version="1.0" encoding="utf-8"?>
<!-- Generator: Adobe Illustrator 17.1.0, SVG Export Plug-In . SVG Version: 6.00 Build 0)  -->
<!DOCTYPE svg PUBLIC "-//W3C//DTD SVG 1.1//EN" "http://www.w3.org/Graphics/SVG/1.1/DTD/svg11.dtd">
<svg version="1.1" xmlns="http://www.w3.org/2000/svg" xmlns:xlink="http://www.w3.org/1999/xlink" x="0px" y="0px"
	 viewBox="0 0 360 140" enable-background="new 0 0 360 140" xml:space="preserve">
<g id="Layer_1">
	<g>
		<path fill="#CACCE0" d="M88.639,50.321c0.401,0.126,0.822,0.116,1.233,0.184c3.55,0.591,6.476,2.279,8.792,5.016
			c1.268,1.499,2.252,3.263,2.753,4.773c-0.104,0-0.197,0-0.29,0c-2.488,0-4.975-0.003-7.463,0.005
			c-0.22,0.001-0.367-0.073-0.517-0.224c-1.239-1.253-2.659-2.199-4.435-2.484c-2.346-0.376-4.451,0.195-6.237,1.763
			C78.158,63.143,79.51,70,84.253,72.427c3.398,1.739,7.571,0.505,9.585-2.963c0.02-0.035,0.025-0.079,0.047-0.154
			c-0.201,0-0.376,0-0.551,0c-1.963,0-3.927-0.005-5.89,0.007c-0.268,0.002-0.333-0.075-0.331-0.334
			c0.011-1.718,0.011-3.436-0.001-5.153c-0.002-0.258,0.077-0.311,0.321-0.311c4.808,0.007,9.615,0.007,14.423,0
			c0.249,0,0.303,0.065,0.321,0.311c0.146,1.981,0.061,3.944-0.478,5.864c-1.13,4.024-3.617,6.964-7.265,8.932
			c-2.412,1.301-5.009,1.831-7.749,1.732c-7.334-0.265-12.709-5.946-13.791-11.98c-0.652-3.633-0.348-7.133,1.497-10.38
			c2.319-4.082,5.798-6.605,10.442-7.469c0.464-0.086,0.941-0.085,1.399-0.209C87.033,50.321,87.836,50.321,88.639,50.321z"/>
		<path fill="#CACCE0" d="M48.346,61.097c0.161-0.374,0.208-0.784,0.382-1.158c0.759-1.635,2.411-2.482,4.143-2.36
			c1.411,0.099,2.57,0.718,3.557,1.715c1.6,1.617,3.215,3.218,4.822,4.828c0.038,0.038,0.054,0.099,0.08,0.15
			c0.028-0.015,0.056-0.029,0.084-0.044c0.032-0.243,0.052-0.488,0.099-0.728c0.405-2.071,2.137-3.619,4.243-3.714
			c1.572-0.071,2.78,0.689,3.725,1.885c0.698,0.884,1.028,1.903,1.025,3.04c-0.011,3.323-0.003,6.647-0.004,9.971
			c-0.001,2.926-2.126,5.082-5.053,5.094c-3.368,0.014-6.736,0.011-10.104,0.001c-2.376-0.008-4.389-1.703-4.736-3.957
			c-0.34-2.211,1.148-4.455,3.329-5.018c0.335-0.086,0.675-0.141,1.022-0.145c0.026-0.104-0.057-0.142-0.108-0.193
			c-1.561-1.562-3.114-3.131-4.687-4.681c-0.942-0.928-1.591-1.998-1.774-3.324c-0.004-0.031-0.028-0.06-0.042-0.09
			C48.346,61.945,48.346,61.521,48.346,61.097z"/>
		<path fill="#CACCE0" d="M309.247,59.892c-0.468-0.11-0.468-0.11-0.469-0.635c0-0.144,0-0.289-0.044-0.446
			c-0.093,0.28-0.199,0.557-0.273,0.843c-0.038,0.149-0.1,0.196-0.248,0.2c-0.148,0.004-0.19-0.076-0.224-0.189
			c-0.079-0.26-0.162-0.519-0.243-0.778c-0.028,0.003-0.056,0.005-0.083,0.008c0,0.244-0.009,0.489,0.003,0.733
			c0.008,0.172-0.045,0.232-0.224,0.227c-0.166-0.005-0.234-0.037-0.229-0.221c0.013-0.489,0.001-0.979,0.007-1.469
			c0.001-0.106-0.058-0.287,0.149-0.255c0.184,0.029,0.44-0.148,0.541,0.159c0.099,0.299,0.191,0.599,0.314,0.985
			c0.109-0.321,0.217-0.553,0.262-0.796c0.052-0.282,0.177-0.401,0.464-0.356c0.096,0.015,0.198-0.009,0.298-0.015
			C309.247,58.553,309.247,59.223,309.247,59.892z"/>
		<path fill="#CACCE0" d="M145.079,61.042c0.803-0.832,1.609-1.596,2.533-2.232c1.52-1.045,3.21-1.365,5.016-1.233
			c1.278,0.093,2.509,0.359,3.628,1.012c1.651,0.963,2.569,2.449,2.995,4.272c0.191,0.816,0.27,1.646,0.27,2.484
			c-0.002,4.696-0.003,9.391,0.005,14.087c0.001,0.279-0.043,0.373-0.355,0.37c-1.862-0.019-3.725-0.016-5.588-0.003
			c-0.282,0.002-0.345-0.08-0.344-0.353c0.009-3.937,0.009-7.874,0.004-11.812c-0.001-0.825-0.06-1.645-0.338-2.434
			c-0.307-0.871-0.898-1.413-1.814-1.578c-0.978-0.176-1.938-0.122-2.825,0.359c-1.123,0.609-1.544,1.668-1.726,2.857
			c-0.071,0.464-0.074,0.932-0.074,1.401c0.002,3.736-0.002,7.473,0.008,11.209c0.001,0.268-0.048,0.355-0.337,0.352
			c-1.874-0.015-3.748-0.017-5.621,0.002c-0.317,0.003-0.353-0.099-0.352-0.373c0.009-3.792,0.009-7.584,0.004-11.377
			c-0.001-0.869-0.04-1.737-0.265-2.585c-0.31-1.169-1.073-1.795-2.283-1.902c-0.908-0.08-1.782,0.009-2.576,0.49
			c-0.949,0.575-1.361,1.493-1.554,2.536c-0.093,0.505-0.121,1.016-0.121,1.529c0.003,3.77-0.001,7.54,0.008,11.31
			c0.001,0.278-0.043,0.375-0.355,0.372c-1.818-0.018-3.636-0.014-5.454-0.003c-0.244,0.001-0.316-0.047-0.316-0.306
			c0.008-7.082,0.008-14.165-0.001-21.247c0-0.266,0.083-0.3,0.317-0.299c1.74,0.01,3.48,0.011,5.22-0.001
			c0.254-0.002,0.312,0.064,0.307,0.311c-0.016,0.832-0.006,1.665-0.006,2.612c1.431-2.335,3.478-3.359,6.081-3.316
			C141.782,57.594,143.732,58.783,145.079,61.042z"/>
		<path fill="#CACCE0" d="M247.554,60.369c0-0.761,0-1.428,0-2.095c0-2.063,0.004-4.126-0.005-6.19
			c-0.001-0.229,0.048-0.299,0.287-0.297c1.952,0.01,3.903,0.013,5.855-0.002c0.274-0.002,0.297,0.096,0.297,0.324
			c-0.007,2.822-0.005,5.643-0.005,8.465c0,6.268-0.004,12.535,0.009,18.803c0.001,0.362-0.106,0.425-0.439,0.422
			c-1.829-0.016-3.658-0.013-5.487-0.002c-0.245,0.001-0.326-0.053-0.318-0.311c0.02-0.675,0.007-1.35,0.007-2.067
			c-0.39,0.316-0.733,0.61-1.092,0.883c-1.393,1.06-2.989,1.53-4.719,1.607c-2.056,0.092-4.028-0.237-5.8-1.326
			c-2.966-1.824-4.822-4.432-5.353-7.908c-0.465-3.044,0.101-5.877,1.927-8.391c1.74-2.397,4.009-4.04,6.987-4.508
			c2.207-0.347,4.355-0.16,6.284,1.128C246.564,59.286,247.049,59.773,247.554,60.369z M242.633,74.101
			c2.738,0.038,5.055-2.127,5.154-5.022c0.111-3.232-2.138-5.679-5.204-5.751c-2.937-0.069-5.439,2.317-5.507,5.254
			C237.003,71.715,239.339,74.035,242.633,74.101z"/>
		<path fill="#CACCE0" d="M119.809,77.384c-0.447,0.387-0.834,0.734-1.258,1.035c-1.345,0.958-2.86,1.406-4.493,1.485
			c-1.619,0.078-3.212-0.08-4.708-0.741c-3.013-1.331-5.096-3.572-6.091-6.7c-1.128-3.546-0.74-6.96,1.416-10.059
			c1.561-2.244,3.628-3.847,6.337-4.482c1.936-0.454,3.866-0.431,5.744,0.304c0.957,0.375,1.779,0.958,2.465,1.728
			c0.107,0.12,0.219,0.236,0.387,0.415c0-0.746,0.012-1.411-0.006-2.074c-0.007-0.261,0.037-0.354,0.332-0.352
			c1.929,0.016,3.859,0.012,5.788,0.003c0.235-0.001,0.32,0.033,0.32,0.302c-0.008,7.082-0.007,14.164-0.001,21.247
			c0,0.226-0.05,0.304-0.291,0.303c-1.896-0.01-3.792-0.009-5.688,0c-0.211,0.001-0.261-0.061-0.258-0.264
			C119.817,78.844,119.809,78.154,119.809,77.384z M114.685,74.101c2.758,0.037,5.066-2.257,5.153-5.038
			c0.097-3.109-2.093-5.696-5.264-5.728c-3.13-0.032-5.327,2.454-5.456,5.125C108.966,71.607,111.338,74.064,114.685,74.101z"/>
		<path fill="#CACCE0" d="M223.635,60.373c0-0.777,0.006-1.468-0.004-2.158c-0.002-0.185,0.015-0.271,0.243-0.27
			c1.985,0.011,3.97,0.013,5.955-0.002c0.279-0.002,0.239,0.142,0.238,0.309c-0.001,2.32-0.001,4.639-0.001,6.959
			c0,4.74-0.002,9.479,0.006,14.219c0,0.275-0.037,0.375-0.352,0.372c-1.84-0.019-3.68-0.019-5.52-0.001
			c-0.321,0.003-0.381-0.098-0.372-0.389c0.021-0.653,0.007-1.307,0.007-2.012c-0.335,0.28-0.623,0.532-0.923,0.77
			c-1.439,1.143-3.099,1.661-4.916,1.74c-2.213,0.096-4.307-0.314-6.168-1.562c-2.806-1.882-4.54-4.475-4.997-7.855
			c-0.479-3.535,0.435-6.661,2.85-9.312c2.163-2.375,4.84-3.611,8.076-3.543c2.043,0.043,3.873,0.642,5.338,2.138
			C223.263,59.948,223.418,60.134,223.635,60.373z M223.86,68.814c-0.001-3.101-2.305-5.485-5.305-5.489
			c-2.976-0.004-5.415,2.437-5.415,5.42c-0.001,3.062,2.415,5.362,5.625,5.356C221.62,74.095,223.862,71.769,223.86,68.814z"/>
		<path fill="#CACCE0" d="M276.876,73.46c-0.478,1.047-1.044,1.985-1.738,2.845c-1.92,2.377-4.422,3.659-7.45,3.948
			c-2.269,0.216-4.482,0.013-6.529-1.056c-3.151-1.646-5.234-4.204-6.036-7.67c-0.901-3.894-0.075-7.433,2.651-10.42
			c2.15-2.356,4.832-3.671,8.051-3.776c3.028-0.098,5.765,0.701,8.064,2.745c1.824,1.621,2.894,3.692,3.496,6.025
			c0.407,1.574,0.515,3.182,0.525,4.801c0.002,0.279-0.143,0.242-0.31,0.242c-2.008,0-4.015,0-6.023,0
			c-3.268,0-6.536,0.004-9.804-0.007c-0.308-0.001-0.343,0.065-0.254,0.345c0.606,1.911,1.979,2.883,3.918,3.129
			c1.146,0.145,2.269,0.085,3.321-0.457c0.207-0.107,0.434-0.206,0.594-0.366c0.317-0.318,0.688-0.339,1.1-0.336
			c2.03,0.013,4.06,0.007,6.09,0.008C276.641,73.46,276.737,73.46,276.876,73.46z M266.316,66.579c1.606,0,3.212-0.002,4.817,0.003
			c0.192,0.001,0.301-0.01,0.201-0.249c-0.422-1.015-1.039-1.879-2.012-2.417c-1.882-1.041-3.826-1.055-5.77-0.196
			c-1.123,0.496-1.871,1.363-2.247,2.546c-0.08,0.252-0.055,0.321,0.227,0.318C263.127,66.572,264.722,66.578,266.316,66.579z"/>
		<path fill="#CACCE0" d="M166.778,71.157c0.248,1.015,0.704,1.884,1.54,2.512c1.209,0.909,2.607,1.081,4.059,0.974
			c0.98-0.073,1.856-0.435,2.607-1.077c0.1-0.085,0.209-0.109,0.337-0.109c2.208,0.003,4.416,0.003,6.624,0.001
			c0.178,0,0.278,0.002,0.168,0.228c-1.17,2.397-2.815,4.343-5.254,5.528c-1.694,0.823-3.502,1.126-5.372,1.114
			c-2.16-0.014-4.203-0.483-6.008-1.705c-3.128-2.117-4.953-5.037-5.306-8.834c-0.56-6.029,3.618-11.091,8.966-12.195
			c4.155-0.858,7.899,0.091,10.881,3.282c1.47,1.573,2.305,3.493,2.784,5.574c0.339,1.473,0.447,2.968,0.425,4.477
			c-0.004,0.261-0.143,0.217-0.292,0.217c-2.264,0-4.528,0-6.792,0c-3.056,0-6.111,0.001-9.167,0.001
			C166.924,71.145,166.869,71.151,166.778,71.157z M166.572,66.546c0.034,0.013,0.044,0.021,0.055,0.021
			c3.308,0.004,6.617,0.007,9.925,0.013c0.206,0,0.175-0.08,0.119-0.222c-0.277-0.702-0.665-1.33-1.217-1.849
			c-1.036-0.974-2.306-1.345-3.689-1.378c-1.175-0.028-2.302,0.187-3.317,0.821C167.471,64.562,166.832,65.417,166.572,66.546z"/>
		<path fill="#CACCE0" d="M293.219,73.279c0.926,0,1.852,0.004,2.778-0.003c0.172-0.001,0.249,0.02,0.254,0.229
			c0.029,1.143,0.837,1.964,2.01,2.042c0.712,0.048,1.41-0.001,1.975-0.522c0.903-0.834,0.684-2.357-0.421-2.882
			c-0.778-0.37-1.628-0.513-2.452-0.736c-1.506-0.408-2.977-0.897-4.257-1.83c-1.544-1.126-2.31-2.664-2.397-4.556
			c-0.07-1.513,0.208-2.947,1.014-4.249c0.927-1.498,2.281-2.451,3.943-2.958c2.228-0.679,4.474-0.749,6.682,0.06
			c2.447,0.897,3.81,2.708,4.234,5.255c0.037,0.219,0.042,0.444,0.085,0.662c0.036,0.181-0.012,0.237-0.197,0.237
			c-1.796-0.005-3.592-0.006-5.388,0.002c-0.196,0.001-0.239-0.088-0.272-0.25c-0.097-0.483-0.228-0.958-0.596-1.315
			c-0.627-0.608-1.372-0.564-2.122-0.32c-0.745,0.243-1.093,0.821-1.128,1.574c-0.035,0.752,0.329,1.298,0.985,1.648
			c0.881,0.471,1.855,0.674,2.803,0.945c1.327,0.38,2.626,0.825,3.813,1.549c2.193,1.339,2.895,3.359,2.64,5.806
			c-0.354,3.398-2.831,5.724-6.176,6.436c-2.062,0.439-4.117,0.404-6.119-0.325c-2.608-0.95-4.062-2.878-4.607-5.55
			c-0.047-0.229-0.07-0.462-0.119-0.69c-0.042-0.196-0.005-0.269,0.221-0.265C291.344,73.287,292.282,73.278,293.219,73.279z"/>
		<path fill="#CACCE0" d="M183.863,65.787c0-4.549,0.004-9.099-0.008-13.648c-0.001-0.306,0.087-0.354,0.366-0.352
			c1.951,0.013,3.903,0.012,5.854,0c0.25-0.001,0.31,0.059,0.308,0.309c-0.012,1.851-0.001,3.702-0.013,5.553
			c-0.002,0.25,0.057,0.312,0.308,0.309c1.26-0.014,2.52-0.001,3.78-0.012c0.228-0.002,0.299,0.047,0.297,0.287
			c-0.012,1.416-0.012,2.832-0.001,4.248c0.002,0.229-0.048,0.298-0.287,0.295c-1.249-0.013-2.498,0.007-3.746-0.015
			c-0.31-0.006-0.351,0.092-0.35,0.368c0.008,5.43,0.003,10.861,0.013,16.291c0.001,0.301-0.069,0.383-0.377,0.381
			c-1.94-0.016-3.88-0.013-5.82-0.002c-0.262,0.002-0.33-0.065-0.329-0.329C183.865,74.908,183.863,70.348,183.863,65.787z"/>
		<path fill="#CACCE0" d="M284.706,60.846c0.262-0.395,0.44-0.735,0.672-1.041c0.999-1.316,2.35-1.969,3.965-2.121
			c0.271-0.025,0.617-0.177,0.801,0.008c0.163,0.164,0.047,0.51,0.047,0.775c0.005,1.539,0.002,3.078,0.002,4.617
			c0,0.497,0,0.494-0.513,0.498c-0.603,0.005-1.201,0.06-1.79,0.191c-1.514,0.338-2.337,1.218-2.601,2.756
			c-0.129,0.749-0.178,1.505-0.18,2.262c-0.008,3.557-0.006,7.115,0.002,10.672c0.001,0.248-0.044,0.339-0.32,0.337
			c-1.963-0.013-3.925-0.011-5.888-0.002c-0.233,0.001-0.318-0.031-0.318-0.299c0.009-7.081,0.009-14.163,0.001-21.244
			c0-0.248,0.054-0.311,0.307-0.309c1.829,0.012,3.658,0.011,5.487,0.001c0.251-0.001,0.339,0.048,0.333,0.32
			C284.693,59.095,284.706,59.925,284.706,60.846z"/>
		<path fill="#CACCE0" d="M201.895,60.762c0.334-0.486,0.639-0.971,1.033-1.393c0.975-1.043,2.201-1.556,3.601-1.686
			c0.272-0.025,0.624-0.175,0.801,0.003c0.172,0.173,0.05,0.53,0.051,0.806c0.005,1.595-0.003,3.189,0.01,4.784
			c0.002,0.249-0.056,0.319-0.309,0.31c-0.669-0.024-1.333,0.05-1.991,0.182c-1.487,0.297-2.32,1.219-2.597,2.683
			c-0.139,0.736-0.196,1.479-0.196,2.227c-0.003,3.591-0.005,7.182,0.006,10.773c0.001,0.275-0.062,0.35-0.342,0.348
			c-1.951-0.012-3.903-0.011-5.855,0.003c-0.273,0.002-0.322-0.084-0.322-0.336c0.006-7.059,0.007-14.118-0.002-21.177
			c0-0.272,0.057-0.347,0.34-0.345c1.829,0.015,3.658,0.013,5.487,0.002c0.236-0.001,0.295,0.061,0.291,0.293
			C201.886,59.079,201.895,59.921,201.895,60.762z"/>
		<path fill="#CACCE0" d="M187.179,87.224c0-0.736,0.008-1.472-0.004-2.207c-0.004-0.223,0.046-0.318,0.291-0.307
			c0.445,0.019,0.892,0.01,1.337,0.004c0.15-0.002,0.221,0.033,0.219,0.204c-0.02,1.605,0.067,3.212-0.041,4.813
			c-0.11,1.621-1.246,2.59-2.861,2.507c-1.626-0.083-2.543-1.05-2.568-2.759c-0.022-1.505,0-3.01-0.01-4.515
			c-0.001-0.216,0.069-0.26,0.266-0.254c0.423,0.014,0.848,0.024,1.27-0.004c0.27-0.018,0.31,0.091,0.309,0.321
			c-0.009,1.393-0.006,2.787-0.007,4.18c0,0.257,0.018,0.513,0.099,0.759c0.126,0.379,0.38,0.564,0.771,0.571
			c0.384,0.007,0.677-0.178,0.818-0.52c0.091-0.22,0.111-0.452,0.11-0.688C187.178,88.629,187.179,87.926,187.179,87.224z"/>
		<path fill="#CACCE0" d="M210.054,91.55c-1.27,1.061-2.949,0.616-3.756-0.395c-0.925-1.158-0.814-2.872,0.236-3.929
			c0.884-0.889,2.528-1.102,3.453-0.135c0-0.611,0-1.171,0-1.732c0-0.645,0-0.645,0.637-0.645c0.268,0,0.536,0.007,0.803-0.002
			c0.159-0.006,0.238,0.022,0.237,0.213c-0.006,2.331-0.006,4.662,0,6.993c0,0.182-0.065,0.227-0.234,0.222
			c-0.345-0.01-0.693-0.023-1.037,0.004c-0.283,0.022-0.389-0.071-0.342-0.349C210.063,91.73,210.054,91.662,210.054,91.55z
			 M210.054,89.332c0.007-0.797-0.567-1.406-1.33-1.412c-0.767-0.006-1.392,0.594-1.405,1.35c-0.012,0.763,0.605,1.379,1.401,1.398
			C209.445,90.684,210.048,90.08,210.054,89.332z"/>
		<path fill="#CACCE0" d="M225.701,91.515c0,0.748-0.012,1.411,0.006,2.074c0.007,0.266-0.05,0.382-0.343,0.361
			c-0.355-0.026-0.713-0.012-1.069-0.002c-0.174,0.005-0.257-0.027-0.257-0.233c0.007-2.317,0.007-4.635,0-6.952
			c-0.001-0.198,0.065-0.245,0.249-0.237c0.323,0.013,0.649,0.029,0.968-0.002c0.311-0.031,0.397,0.09,0.356,0.37
			c-0.009,0.062,0.004,0.128,0.01,0.249c0.68-0.659,1.468-0.783,2.315-0.597c0.684,0.15,1.202,0.559,1.598,1.128
			c0.834,1.199,0.595,2.895-0.514,3.876C228.123,92.343,226.486,92.432,225.701,91.515z M226.96,87.974
			c-0.713-0.016-1.293,0.562-1.316,1.313c-0.024,0.788,0.543,1.413,1.306,1.438c0.75,0.025,1.428-0.624,1.435-1.375
			C228.392,88.595,227.768,87.992,226.96,87.974z"/>
		<path fill="#CACCE0" d="M236.684,87.063c0.015-0.532,0.015-0.532,0.52-0.532c0.312,0,0.625,0.007,0.937-0.004
			c0.162-0.006,0.212,0.053,0.211,0.211c-0.004,1.729-0.004,3.457,0.001,5.186c0.001,0.187-0.081,0.221-0.245,0.217
			c-0.334-0.01-0.671-0.027-1.003,0.004c-0.311,0.029-0.399-0.091-0.356-0.372c0.008-0.054,0.001-0.111,0.001-0.245
			c-0.643,0.584-1.369,0.725-2.156,0.589c-0.81-0.139-1.405-0.602-1.825-1.287c-0.715-1.164-0.489-2.732,0.508-3.639
			C234.31,86.251,235.53,86.196,236.684,87.063z M236.751,89.323c0.009-0.791-0.566-1.394-1.338-1.402
			c-0.768-0.008-1.39,0.596-1.396,1.357c-0.007,0.771,0.609,1.379,1.407,1.39C236.149,90.677,236.742,90.077,236.751,89.323z"/>
		<path fill="#CACCE0" d="M203.294,89.9c-0.613,0-1.227,0.008-1.84-0.004c-0.251-0.005-0.256,0.089-0.166,0.277
			c0.274,0.573,1.156,0.837,1.774,0.488c0.241-0.136,0.469-0.172,0.728-0.167c0.368,0.007,0.736,0.011,1.104-0.002
			c0.23-0.008,0.237,0.061,0.144,0.245c-0.496,0.988-1.586,1.603-2.73,1.53c-1.548-0.1-2.682-1.2-2.822-2.739
			c-0.129-1.414,0.819-2.76,2.277-3.08c1.721-0.378,3.149,0.525,3.537,2.258c0.068,0.302,0.078,0.617,0.121,0.926
			c0.028,0.2-0.04,0.278-0.252,0.274c-0.624-0.011-1.249-0.004-1.874-0.004C203.294,89.902,203.294,89.901,203.294,89.9z
			 M201.169,88.74c0.794,0,1.581-0.002,2.369,0.001c0.221,0.001,0.169-0.097,0.102-0.226c-0.41-0.783-1.746-0.895-2.296-0.189
			C201.255,88.438,201.169,88.554,201.169,88.74z"/>
		<path fill="#CACCE0" d="M218.07,87.201c0.51-0.637,1.113-0.844,1.822-0.762c1.03,0.118,1.653,0.777,1.671,1.823
			c0.021,1.215,0,2.431,0.008,3.646c0.001,0.204-0.081,0.24-0.257,0.234c-0.357-0.011-0.714-0.02-1.07,0.001
			c-0.256,0.015-0.348-0.049-0.341-0.326c0.019-0.869,0.007-1.739,0.006-2.609c0-0.134-0.004-0.267-0.013-0.401
			c-0.036-0.551-0.232-0.795-0.669-0.841c-0.536-0.056-0.932,0.206-1.047,0.717c-0.041,0.182-0.04,0.376-0.041,0.565
			c-0.004,0.87-0.008,1.74,0.003,2.609c0.003,0.216-0.053,0.297-0.279,0.286c-0.367-0.017-0.736-0.013-1.104-0.001
			c-0.195,0.006-0.27-0.04-0.269-0.257c0.009-1.695,0.009-3.39,0-5.085c-0.001-0.225,0.069-0.285,0.283-0.274
			c0.334,0.017,0.67,0.018,1.003,0c0.237-0.013,0.364,0.031,0.297,0.304C218.052,86.919,218.07,87.019,218.07,87.201z"/>
		<path fill="#CACCE0" d="M191.029,87.186c0.373-0.463,0.798-0.696,1.335-0.754c1.227-0.131,2.119,0.615,2.142,1.857
			c0.022,1.204,0,2.408,0.008,3.612c0.001,0.199-0.071,0.245-0.253,0.239c-0.379-0.011-0.759-0.016-1.137,0.001
			c-0.223,0.01-0.28-0.064-0.277-0.282c0.012-0.903,0.005-1.806,0.005-2.709c0-0.123,0.002-0.246-0.007-0.368
			c-0.041-0.539-0.245-0.776-0.698-0.818c-0.504-0.047-0.89,0.201-1.014,0.673c-0.045,0.17-0.06,0.352-0.061,0.528
			c-0.006,0.892-0.011,1.784,0.001,2.676c0.003,0.234-0.066,0.312-0.301,0.3c-0.367-0.018-0.736-0.012-1.103-0.001
			c-0.171,0.005-0.234-0.042-0.234-0.223c0.005-1.728,0.005-3.456-0.001-5.185c-0.001-0.162,0.05-0.211,0.209-0.207
			c0.356,0.01,0.714,0.015,1.07-0.001c0.232-0.011,0.364,0.022,0.294,0.3C190.985,86.916,191.017,87.019,191.029,87.186z"/>
		<path fill="#CACCE0" d="M238.694,86.531c0.573,0,1.108,0.007,1.643-0.004c0.175-0.004,0.215,0.079,0.262,0.224
			c0.309,0.972,0.63,1.941,0.975,2.996c0.131-0.347,0.236-0.618,0.336-0.892c0.252-0.689,0.507-1.377,0.747-2.07
			c0.063-0.182,0.14-0.266,0.348-0.259c0.498,0.016,0.997,0.005,1.534,0.005c-0.401,1.005-0.788,1.974-1.176,2.943
			c-0.554,1.384-1.113,2.765-1.658,4.152c-0.094,0.24-0.207,0.346-0.481,0.327c-0.421-0.029-0.846-0.008-1.321-0.008
			c0.215-0.557,0.397-1.09,0.626-1.603c0.17-0.38,0.174-0.708,0.011-1.106C239.907,89.694,239.318,88.133,238.694,86.531z"/>
		<path fill="#CACCE0" d="M198.885,89.945c0,0.635-0.011,1.27,0.006,1.905c0.006,0.241-0.075,0.303-0.303,0.293
			c-0.378-0.017-0.758-0.012-1.136-0.001c-0.18,0.005-0.253-0.036-0.253-0.237c0.007-2.317,0.006-4.634,0-6.951
			c0-0.188,0.052-0.249,0.242-0.243c0.401,0.013,0.802,0.013,1.203,0.001c0.187-0.006,0.251,0.051,0.245,0.242
			c-0.013,0.434,0.006,0.869-0.009,1.303c-0.007,0.218,0.061,0.283,0.281,0.278c0.461-0.01,0.462,0.003,0.462,0.48
			c0,0.056,0,0.111,0,0.167c-0.001,0.531,0,0.54-0.527,0.572c-0.188,0.011-0.214,0.095-0.213,0.252
			C198.888,88.653,198.885,89.299,198.885,89.945z"/>
		<path fill="#CACCE0" d="M230.393,88.441c0-1.137,0.006-2.274-0.005-3.41c-0.002-0.235,0.035-0.342,0.304-0.322
			c0.343,0.026,0.692,0.024,1.036,0.001c0.259-0.017,0.312,0.074,0.311,0.319c-0.01,2.106-0.006,4.213-0.006,6.319
			c0,0.79,0,0.79-0.804,0.79c-0.835,0-0.835,0-0.835-0.821C230.393,90.358,230.393,89.399,230.393,88.441z"/>
		<path fill="#CACCE0" d="M216.078,89.323c0,0.847-0.008,1.694,0.005,2.54c0.003,0.221-0.059,0.29-0.28,0.28
			c-0.389-0.017-0.78-0.011-1.17-0.002c-0.16,0.004-0.216-0.054-0.215-0.212c0.003-1.738,0.004-3.476,0.001-5.214
			c0-0.149,0.061-0.189,0.2-0.187c0.412,0.006,0.825,0.015,1.236-0.003c0.214-0.009,0.227,0.087,0.226,0.257
			C216.075,87.629,216.078,88.476,216.078,89.323z"/>
		<path fill="#CACCE0" d="M196.676,89.308c0,0.846-0.008,1.692,0.005,2.538c0.004,0.236-0.068,0.307-0.3,0.296
			c-0.366-0.018-0.735-0.014-1.102-0.001c-0.194,0.007-0.246-0.066-0.246-0.251c0.005-1.714,0.006-3.429,0-5.143
			c-0.001-0.185,0.071-0.223,0.236-0.219c0.389,0.009,0.78,0.013,1.169-0.001c0.192-0.007,0.244,0.054,0.242,0.244
			C196.671,87.616,196.676,88.462,196.676,89.308z"/>
		<path fill="#CACCE0" d="M215.235,85.889c-0.455-0.006-0.813-0.358-0.816-0.801c-0.003-0.447,0.388-0.836,0.834-0.831
			c0.457,0.005,0.824,0.39,0.808,0.848C216.046,85.562,215.695,85.895,215.235,85.889z"/>
		<path fill="#CACCE0" d="M195.856,85.888c-0.463,0.001-0.811-0.332-0.82-0.785c-0.009-0.468,0.347-0.842,0.806-0.847
			c0.448-0.004,0.83,0.381,0.825,0.831C196.663,85.535,196.307,85.887,195.856,85.888z"/>
		<path fill="#CACCE0" d="M306.254,59.092c0-0.166-0.007-0.333,0.001-0.499c0.008-0.154-0.012-0.261-0.209-0.235
			c-0.218,0.029-0.14-0.142-0.151-0.246c-0.012-0.119-0.004-0.218,0.166-0.212c0.288,0.01,0.577,0.01,0.865,0
			c0.154-0.005,0.196,0.061,0.18,0.197c-0.014,0.116,0.062,0.295-0.172,0.261c-0.199-0.029-0.215,0.082-0.212,0.237
			c0.007,0.355-0.007,0.71,0.007,1.065c0.008,0.184-0.085,0.195-0.222,0.189c-0.132-0.006-0.274,0.028-0.257-0.191
			C306.266,59.47,306.254,59.281,306.254,59.092z"/>
	</g>
</g>
<g id="Layer_2">
</g>
</svg>
