<?xml version="1.0" encoding="utf-8"?>
<!-- Generator: Adobe Illustrator 17.1.0, SVG Export Plug-In . SVG Version: 6.00 Build 0)  -->
<!DOCTYPE svg PUBLIC "-//W3C//DTD SVG 1.1//EN" "http://www.w3.org/Graphics/SVG/1.1/DTD/svg11.dtd">
<svg version="1.1" id="Layer_1" xmlns="http://www.w3.org/2000/svg" xmlns:xlink="http://www.w3.org/1999/xlink" x="0px" y="0px"
	 viewBox="0 0 140 36" enable-background="new 0 0 140 36" xml:space="preserve">
<g>
	<path fill-rule="evenodd" clip-rule="evenodd" fill="#8A51C2" d="M13.843,1.833H22v8.396c0,1.529-1.092,2.604-2.621,2.604H11v-8.14
		C11,3.165,12.315,1.833,13.843,1.833z M13.843,24.833H22v7.804c0,1.529-1.092,3.196-2.621,3.196H11v-8.732
		C11,25.573,12.315,24.833,13.843,24.833z M2.769,12.833H11V21.3c0,1.529-1.166,2.533-2.695,2.533H0v-8.069
		C0,14.236,1.241,12.833,2.769,12.833z M24.917,13.833H33v7.73c0,1.529-1.018,3.27-2.547,3.27H22v-8.806
		C22,14.499,23.389,13.833,24.917,13.833z"/>
	<g>
		<path fill-rule="evenodd" clip-rule="evenodd" fill="#535763" d="M123.447,27.976c0-1.297,0.382-2.384,1.143-3.267
			c0.771-0.868,1.732-1.303,2.882-1.303c1.215,0,2.205,0.429,2.967,1.291c0.761,0.88,1.143,2.002,1.143,3.355
			c0,1.356-0.382,2.475-1.143,3.355c-0.761,0.852-1.761,1.278-2.998,1.278c-1.159,0-2.121-0.442-2.882-1.322
			C123.819,30.491,123.447,29.364,123.447,27.976z M121.977,22.572c-1.297,1.447-1.945,3.249-1.945,5.404
			c0,2.209,0.648,4.051,1.945,5.523c1.306,1.447,2.76,2.168,4.74,2.168c1.663,0,3.283-0.642,4.283-1.927v2.093h4v-23h-4v9.635
			c-1-1.385-2.663-2.077-4.355-2.077C124.694,20.392,123.262,21.118,121.977,22.572z M108.444,25.833
			c0.107,0,0.266-0.667,0.473-0.993c0.21-0.326,0.457-0.543,0.749-0.778c0.291-0.232,0.617-0.38,0.974-0.502
			c0.357-0.122,0.739-0.292,1.143-0.292c1.782,0,2.904,1.565,3.371,2.565H108.444z M106.63,22.484
			c-1.266,1.413-1.898,3.267-1.898,5.551c0,2.306,0.652,4.157,1.958,5.551c1.309,1.388,3.039,2.08,5.197,2.08
			c0.752,0,1.45-0.078,2.093-0.235c0.645-0.16,1.244-0.41,1.798-0.752c0.551-0.341,1.071-0.777,1.557-1.306
			c0.486-0.529,0.946-1.165,1.381-1.908l-2.822-1.573c-0.68,1.068-1.287,1.801-1.826,2.196c-0.542,0.395-1.228,0.595-2.061,0.595
			c-1.068,0-1.945-0.334-2.628-1.026c-0.683-0.705-1.068-1.825-1.156-2.825h10.36l0.016-0.797c0-2.387-0.614-4.258-1.842-5.605
			c-1.237-1.356-2.92-2.037-5.047-2.037C109.6,20.395,107.908,21.087,106.63,22.484z M99,12.833v23h4v-23H99z M85.798,28.023
			c0-1.366,0.382-2.475,1.143-3.327c0.774-0.861,1.773-1.291,2.998-1.291c1.15,0,2.105,0.445,2.866,1.334
			c0.755,0.871,1.128,1.999,1.128,3.386c0,1.306-0.385,2.396-1.156,3.267c-0.761,0.858-1.723,1.291-2.882,1.291
			c-1.228,0-2.218-0.432-2.97-1.291C86.174,30.551,85.798,29.426,85.798,28.023z M83,12.833v23h3V33.74
			c1,1.284,2.806,1.927,4.479,1.927c1.98,0,3.616-0.721,4.913-2.168c1.303-1.453,1.957-3.296,1.957-5.523
			c0-2.155-0.649-3.957-1.943-5.404c-1.3-1.454-2.919-2.18-4.868-2.18c-1.695,0-3.539,0.692-4.539,2.077v-9.635H83z M38.516,25.833
			c0.106,0,0.266-0.667,0.473-0.993c0.21-0.326,0.457-0.543,0.749-0.778c0.294-0.232,0.617-0.38,0.974-0.502
			c0.354-0.122,0.739-0.292,1.144-0.292c1.779,0,2.904,1.565,3.371,2.565H38.516z M39.45,31.658
			c-0.683-0.705-1.068-1.825-1.156-2.825h10.363l0.013-0.797c0-2.387-0.611-4.258-1.839-5.605c-1.237-1.356-2.923-2.037-5.05-2.037
			c-2.108,0-3.8,0.694-5.078,2.091c-1.266,1.413-1.898,3.266-1.898,5.55c0,2.306,0.652,4.157,1.961,5.551
			c1.306,1.388,3.036,2.08,5.194,2.08c0.752,0,1.451-0.078,2.093-0.235c0.645-0.16,1.244-0.41,1.798-0.752
			c0.554-0.341,1.071-0.777,1.56-1.306c0.482-0.529,0.943-1.165,1.378-1.908l-2.819-1.573c-0.683,1.068-1.291,1.801-1.826,2.196
			c-0.545,0.395-1.231,0.602-2.064,0.602C41.01,32.691,40.133,32.35,39.45,31.658z M60,35.833h3v-9.446
			c0-2.036-0.283-3.505-1.094-4.411c-0.94-1.056-2.263-1.585-3.945-1.585c-1.466,0-2.961,0.576-3.961,1.736v-1.294h-3v15h3v-7.55
			c0-1.798,0.3-3.057,0.757-3.781c0.464-0.73,1.286-1.096,2.395-1.096c1.018,0,1.792,0.276,2.178,0.83
			C59.727,24.781,60,25.764,60,27.183V35.833z M76.807,28.051c0,1.356-0.379,2.475-1.143,3.355
			c-0.761,0.852-1.761,1.278-2.998,1.278c-1.156,0-2.121-0.442-2.882-1.322c-0.739-0.871-1.112-1.999-1.112-3.386
			c0-1.297,0.382-2.384,1.144-3.267c0.771-0.868,1.732-1.303,2.882-1.303c1.215,0,2.205,0.429,2.967,1.291
			C76.428,25.576,76.807,26.698,76.807,28.051z M77,22.469c-2-1.385-3.047-2.077-4.73-2.077c-1.948,0-3.674,0.72-4.968,2.165
			c-1.297,1.447-1.995,3.252-1.995,5.419c0,2.209,0.624,4.051,1.92,5.523c1.306,1.447,3.145,2.168,5.143,2.168
			c1.585,0,2.629-0.642,4.629-1.927v2.093h3v-15h-3V22.469z"/>
	</g>
</g>
</svg>
