<?xml version="1.0" encoding="utf-8"?>
<!-- Generator: Adobe Illustrator 17.1.0, SVG Export Plug-In . SVG Version: 6.00 Build 0)  -->
<!DOCTYPE svg PUBLIC "-//W3C//DTD SVG 1.1//EN" "http://www.w3.org/Graphics/SVG/1.1/DTD/svg11.dtd">
<svg version="1.1" id="Layer_1" xmlns="http://www.w3.org/2000/svg" xmlns:xlink="http://www.w3.org/1999/xlink" x="0px" y="0px"
	 viewBox="0 0 140 30" enable-background="new 0 0 140 30" xml:space="preserve">
<g>
	<path fill-rule="evenodd" clip-rule="evenodd" fill="#FFFFFF" d="M12.243,0.159h7.345v7.345c0,1.352-1.097,2.446-2.449,2.446H9.794
		V2.608C9.794,1.256,10.891,0.159,12.243,0.159z M12.243,19.976h7.345v7.345c0,1.352-1.097,2.446-2.449,2.446H9.794v-7.342
		C9.794,21.073,10.891,19.976,12.243,19.976z M2.449,9.95h7.345v7.345c0,1.352-1.097,2.449-2.449,2.449H0v-7.345
		C0,11.047,1.097,9.95,2.449,9.95z M22.037,10.185h7.345v7.342c0,1.352-1.097,2.449-2.449,2.449h-7.345v-7.345
		C19.588,11.28,20.685,10.185,22.037,10.185z"/>
	<g>
		<path fill-rule="evenodd" clip-rule="evenodd" fill="#FFFFFF" d="M109.175,23.198c0-1.147,0.338-2.108,1.011-2.89
			c0.682-0.767,1.532-1.153,2.549-1.153c1.075,0,1.95,0.38,2.624,1.141c0.673,0.779,1.011,1.77,1.011,2.967
			c0,1.2-0.338,2.189-1.011,2.967c-0.673,0.754-1.557,1.13-2.651,1.13c-1.025,0-1.876-0.391-2.549-1.169
			C109.505,25.423,109.175,24.426,109.175,23.198z M107.875,18.419c-1.147,1.28-1.72,2.873-1.72,4.779
			c0,1.953,0.573,3.582,1.72,4.884c1.155,1.28,2.607,1.917,4.358,1.917c1.471,0,2.79-0.568,3.954-1.704v1.338h2.967V10.069h-2.967
			v8.259c-1.183-1.225-2.521-1.837-4.017-1.837C110.444,16.491,109.011,17.134,107.875,18.419z M95.907,21.519
			c0.094-0.368,0.235-0.698,0.418-0.986c0.186-0.288,0.404-0.535,0.662-0.742c0.258-0.205,0.546-0.363,0.862-0.471
			c0.316-0.108,0.654-0.163,1.011-0.163c1.576,0,2.568,0.787,2.981,2.363H95.907z M94.303,18.342
			c-1.119,1.25-1.679,2.89-1.679,4.909c0,2.039,0.576,3.676,1.732,4.909c1.158,1.227,2.687,1.84,4.596,1.84
			c0.665,0,1.283-0.069,1.851-0.208c0.571-0.141,1.1-0.363,1.59-0.665c0.488-0.302,0.948-0.687,1.377-1.155
			c0.429-0.468,0.837-1.031,1.222-1.687l-2.496-1.391c-0.601,0.945-1.139,1.593-1.615,1.942c-0.479,0.349-1.086,0.526-1.823,0.526
			c-0.945,0-1.72-0.308-2.324-0.92c-0.604-0.623-0.945-1.457-1.022-2.51h9.162l0.014-0.693c0-2.111-0.543-3.76-1.629-4.951
			c-1.094-1.2-2.582-1.798-4.463-1.798C96.929,16.491,95.433,17.106,94.303,18.342z M87.875,10.069v19.565h2.953V10.069H87.875z
			 M75.879,23.24c0-1.208,0.338-2.189,1.011-2.942c0.684-0.762,1.568-1.141,2.651-1.141c1.017,0,1.862,0.393,2.535,1.18
			c0.668,0.77,0.997,1.768,0.997,2.995c0,1.155-0.341,2.119-1.022,2.89c-0.673,0.759-1.524,1.141-2.549,1.141
			c-1.086,0-1.962-0.382-2.626-1.141C76.211,25.476,75.879,24.481,75.879,23.24z M73.097,10.069v19.565h2.953v-1.338
			C77.214,29.432,78.536,30,80.015,30c1.751,0,3.2-0.637,4.347-1.917c1.153-1.286,1.732-2.915,1.732-4.884
			c0-1.906-0.573-3.499-1.718-4.779c-1.15-1.286-2.585-1.928-4.308-1.928c-1.499,0-2.834,0.612-4.017,1.837v-8.259H73.097z
			 M34.063,21.519c0.094-0.368,0.235-0.698,0.418-0.986c0.186-0.288,0.404-0.535,0.662-0.742c0.26-0.205,0.546-0.363,0.862-0.471
			c0.313-0.108,0.654-0.163,1.011-0.163c1.574,0,2.568,0.787,2.981,2.363H34.063z M34.889,26.443
			c-0.604-0.623-0.945-1.457-1.022-2.51h9.165l0.011-0.693c0-2.111-0.54-3.76-1.626-4.951c-1.094-1.2-2.585-1.798-4.466-1.798
			c-1.865,0-3.361,0.615-4.491,1.851c-1.119,1.25-1.679,2.89-1.679,4.909c0,2.039,0.576,3.676,1.734,4.909
			C33.67,29.388,35.199,30,37.108,30c0.665,0,1.283-0.069,1.851-0.208c0.571-0.141,1.1-0.363,1.59-0.665
			c0.49-0.302,0.948-0.687,1.38-1.155c0.427-0.468,0.834-1.031,1.219-1.687l-2.493-1.391c-0.604,0.945-1.141,1.593-1.615,1.942
			c-0.482,0.349-1.089,0.526-1.826,0.526C36.269,27.362,35.493,27.055,34.889,26.443z M52.967,29.634h2.964v-7.841
			c0-1.801-0.357-3.1-1.075-3.901c-0.831-0.934-1.992-1.402-3.48-1.402c-1.297,0-2.46,0.51-3.494,1.535v-1.183h-2.967v12.791h2.967
			V23.47c0-1.59,0.202-2.704,0.607-3.344c0.41-0.646,1.105-0.97,2.086-0.97c0.9,0,1.521,0.244,1.862,0.734
			c0.352,0.482,0.529,1.352,0.529,2.607V29.634z M67.927,23.265c0,1.2-0.335,2.189-1.011,2.967c-0.673,0.754-1.557,1.13-2.651,1.13
			c-1.022,0-1.876-0.391-2.549-1.169c-0.654-0.77-0.984-1.768-0.984-2.995c0-1.147,0.338-2.108,1.011-2.89
			c0.682-0.767,1.532-1.153,2.549-1.153c1.075,0,1.95,0.38,2.624,1.141C67.592,21.076,67.927,22.068,67.927,23.265z M67.745,18.328
			c-1.183-1.225-2.518-1.837-4.006-1.837c-1.723,0-3.161,0.637-4.305,1.914c-1.147,1.28-1.72,2.876-1.72,4.793
			c0,1.953,0.573,3.582,1.72,4.884C60.588,29.363,62.048,30,63.816,30c1.402,0,2.71-0.568,3.929-1.704v1.338h2.967V16.843h-2.967
			V18.328z"/>
	</g>
</g>
</svg>
