<?xml version="1.0" encoding="utf-8"?>
<!-- Generator: Adobe Illustrator 17.1.0, SVG Export Plug-In . SVG Version: 6.00 Build 0)  -->
<!DOCTYPE svg PUBLIC "-//W3C//DTD SVG 1.1//EN" "http://www.w3.org/Graphics/SVG/1.1/DTD/svg11.dtd">
<svg version="1.1" id="Layer_1" xmlns="http://www.w3.org/2000/svg" xmlns:xlink="http://www.w3.org/1999/xlink" x="0px" y="0px"
	 viewBox="0 0 520 200" enable-background="new 0 0 520 200" xml:space="preserve">
<polygon fill="#4E2F91" points="130.185,32.96 118.473,106.47 91.319,106.47 102.77,32.96 "/>
<polygon fill="#E03A3E" points="97.648,32.96 85.931,106.47 58.888,106.47 70.228,32.96 "/>
<path fill="#FFFFFF" d="M178.325,52.442l2.671-18.467c-3.015-1.363-6.204-2.095-9.647-2.095c-18.608,0-35.561,18.633-35.561,47.588
	c0,18.678,13.007,27.443,25.474,27.443c0,0,4.592,0,8.533-1.964l2.233-15.756c-2.233,0-3.795,0.076-5.349,0.111
	c-7.384,0.156-10.666-4.701-10.666-15.2c0-15.11,8.963-23.173,16.712-23.173C174.708,50.928,176.431,51.293,178.325,52.442"/>
<path fill="#FFFFFF" d="M294.913,83.042c0,0-2.924,19.724-2.925,19.732c-0.122,0.824,4.515,2.802,5.16,3.066
	c2.12,0.868,4.214,1.354,6.489,1.546c5.19,0.439,10.495,0.109,15.483-1.465c5.912-1.867,11.356-5.58,14.631-10.844
	c3.195-5.134,4.154-11.609,2.582-17.448c-1.185-4.405-3.796-8.4-7.298-11.313c-3.438-2.859-6.905-5.841-8.056-10.48
	c-0.346-1.394-0.324-2.919,0.301-4.213c2.68-5.551,13.527-0.729,16.725,2.017l2.417-18.254c-4.736-2.945-12.467-3.941-17.72-3.941
	c-13.015,0-22.969,13.779-22.969,22.967c0,7.452,2.304,11.949,7.218,17.72c3.293,3.824,11.861,7.976,8.088,14.254
	C311.109,92.922,298.758,86.93,294.913,83.042"/>
<path fill="#FFFFFF" d="M278.732,33.409h-26.249l-12.037,72.921l19.914,0.058l3.576-23.862c0.772,0,1.552,0.103,2.324,0.103
	c16.196,0,29.734-5.842,30.846-24.282C298.419,36.696,285.299,34.07,278.732,33.409z M269.211,65.847c-0.342,0-0.948,0-1.637-0.101
	l2.686-15.927h0.591c3.876,0,7.226,0.654,7.226,6.566C278.076,62.293,274.122,65.847,269.211,65.847z"/>
<path fill="#FFFFFF" d="M319.142,157.746l-1.886,5.113c-0.777-0.737-1.564-1.112-2.359-1.112c-0.719,0-1.34,0.249-1.866,0.737
	c-0.528,0.488-1.031,1.393-1.514,2.711v6.24h-5.108v-14.476h5.108v3.491c0.319-0.858,0.888-1.692,1.703-2.512
	c0.815-0.812,1.771-1.222,2.872-1.222c0.576,0,1.079,0.085,1.509,0.254C318.033,157.14,318.549,157.399,319.142,157.746"/>
<path fill="#FFFFFF" d="M303.924,164.403c0-1.818-0.352-3.302-1.056-4.444c-0.707-1.154-1.61-1.979-2.704-2.485
	c-1.096-0.505-2.231-0.76-3.405-0.76c-1.783,0-3.299,0.319-4.549,0.956c-1.25,0.641-2.188,1.521-2.809,2.643
	c-0.619,1.119-0.931,2.392-0.931,3.813c0,1.438,0.312,2.726,0.931,3.863c0.621,1.139,1.559,2.035,2.809,2.699
	c1.25,0.659,2.769,0.993,4.549,0.993c1.65,0,3.005-0.158,4.074-0.475c1.066-0.317,1.977-0.672,2.724-1.061v-3.169
	c-2.09,0.968-3.996,1.451-5.721,1.451c-0.991,0-1.874-0.279-2.651-0.838c-0.777-0.561-1.267-1.285-1.466-2.168h10.206V164.403z
	 M293.575,162.904c0-0.908,0.264-1.64,0.792-2.198c0.533-0.568,1.222-0.845,2.082-0.845c0.863,0,1.527,0.274,1.992,0.83
	c0.463,0.551,0.694,1.29,0.694,2.213H293.575z"/>
<path fill="#FFFFFF" d="M280.739,151.748v6.074c-0.458-0.322-0.978-0.583-1.567-0.792c-0.589-0.211-1.361-0.317-2.306-0.317
	c-1.529,0-2.819,0.365-3.868,1.081c-1.056,0.719-1.828,1.657-2.324,2.807c-0.496,1.147-0.739,2.382-0.739,3.694
	c0,1.678,0.327,3.066,0.981,4.17c0.657,1.104,1.491,1.914,2.505,2.437c1.016,0.521,2.05,0.777,3.103,0.777
	c1.064,0,1.896-0.143,2.497-0.435c0.604-0.294,1.177-0.664,1.718-1.114v1.305h5.105v-19.687H280.739z M280.739,166.847
	c-0.352,0.292-0.722,0.536-1.102,0.729c-0.377,0.196-0.875,0.292-1.496,0.292c-0.75,0-1.408-0.289-1.974-0.875
	c-0.568-0.581-0.847-1.516-0.847-2.797c0-1.174,0.269-2.103,0.805-2.784c0.538-0.686,1.21-1.029,2.017-1.029
	c0.458,0,0.855,0.078,1.195,0.216c0.332,0.143,0.805,0.38,1.403,0.712V166.847z"/>
<rect x="261.902" y="156.959" fill="#FFFFFF" width="5.103" height="14.476"/>
<path fill="#FFFFFF" d="M265.956,152.107c-0.422-0.425-0.928-0.641-1.509-0.641c-0.596,0-1.102,0.216-1.514,0.641
	c-0.415,0.43-0.624,0.933-0.624,1.521c0,0.397,0.096,0.76,0.284,1.084c0.186,0.327,0.445,0.583,0.772,0.772
	c0.324,0.194,0.682,0.287,1.081,0.287c0.581,0,1.086-0.206,1.509-0.626c0.425-0.415,0.639-0.923,0.639-1.516
	C266.595,153.04,266.381,152.537,265.956,152.107"/>
<path fill="#FFFFFF" d="M259.138,164.403c0-1.818-0.357-3.302-1.059-4.444c-0.707-1.154-1.607-1.979-2.704-2.485
	c-1.094-0.505-2.228-0.76-3.405-0.76c-1.783,0-3.3,0.319-4.55,0.956c-1.25,0.641-2.188,1.521-2.809,2.643
	c-0.619,1.119-0.928,2.392-0.928,3.813c0,1.438,0.309,2.726,0.928,3.863c0.621,1.139,1.559,2.035,2.809,2.699
	c1.25,0.659,2.767,0.993,4.55,0.993c1.652,0,3.008-0.158,4.074-0.475c1.066-0.317,1.977-0.672,2.721-1.061v-3.169
	c-2.085,0.968-3.991,1.451-5.721,1.451c-0.988,0-1.871-0.279-2.648-0.838c-0.78-0.561-1.267-1.285-1.466-2.168h10.208V164.403z
	 M248.787,162.904c0-0.908,0.264-1.64,0.795-2.198c0.528-0.568,1.217-0.845,2.08-0.845c0.865,0,1.529,0.274,1.994,0.83
	c0.46,0.551,0.692,1.29,0.692,2.213H248.787z"/>
<path fill="#FFFFFF" d="M241.222,162.939c0-4.15-1.733-6.227-5.193-6.227c-0.993,0-1.896,0.176-2.704,0.521
	c-0.81,0.347-1.615,0.948-2.419,1.813v-2.087h-5.103v14.476h5.103v-8.496c0.184-0.254,0.357-0.495,0.528-0.722
	c0.168-0.226,0.377-0.47,0.631-0.714c0.249-0.246,0.533-0.445,0.85-0.601c0.317-0.158,0.684-0.234,1.102-0.234
	c0.878,0,1.451,0.292,1.71,0.883c0.261,0.596,0.392,1.29,0.392,2.087v0.297v7.5h5.103V162.939z"/>
<path fill="#FFFFFF" d="M222.711,171.435h-5.103v-7.5c0-0.058,0-0.113,0.005-0.166c0.005-0.048,0.008-0.161,0.008-0.332
	c0-0.694-0.146-1.325-0.44-1.901c-0.294-0.583-0.853-0.868-1.675-0.868c-0.644,0-1.212,0.216-1.703,0.644
	c-0.493,0.433-0.963,0.976-1.406,1.627v8.496h-5.105v-19.687h5.105v7.298c0.84-0.898,1.672-1.514,2.495-1.843
	c0.825-0.322,1.698-0.49,2.626-0.49c3.463,0,5.193,1.952,5.193,5.84V171.435z"/>
<path fill="#FFFFFF" d="M204.787,166.744c-0.936,0.282-1.733,0.503-2.387,0.651c-0.651,0.156-1.235,0.226-1.745,0.226
	c-0.541,0-1.079-0.121-1.62-0.365c-0.541-0.252-0.986-0.636-1.335-1.159c-0.352-0.531-0.528-1.175-0.528-1.944
	c0-1.154,0.355-2.007,1.059-2.558c0.707-0.553,1.514-0.825,2.424-0.825c0.938,0,2.238,0.264,3.903,0.792v-4.009
	c-0.689-0.259-1.371-0.46-2.042-0.614c-0.674-0.148-1.547-0.229-2.616-0.229c-1.599,0-2.948,0.266-4.042,0.797
	c-1.094,0.531-1.929,1.187-2.507,1.974c-0.578,0.785-0.983,1.602-1.215,2.439c-0.234,0.843-0.35,1.587-0.35,2.231
	s0.116,1.388,0.345,2.228c0.224,0.843,0.634,1.673,1.227,2.48c0.594,0.812,1.434,1.479,2.528,2.017c1.094,0.536,2.432,0.8,4.014,0.8
	c0.702,0,1.348-0.043,1.939-0.136c0.594-0.085,1.124-0.201,1.597-0.334c0.475-0.141,0.923-0.289,1.351-0.453V166.744z"/>
<path fill="#FFFFFF" d="M189.2,165.718c0,1.227-0.314,2.291-0.943,3.184c-0.626,0.895-1.504,1.584-2.628,2.065
	c-1.124,0.478-2.414,0.712-3.868,0.712c-0.405,0-0.905-0.023-1.496-0.078c-0.589-0.053-1.373-0.191-2.351-0.428
	c-0.978-0.236-1.997-0.589-3.053-1.046v-4.824c0.988,0.616,1.962,1.127,2.917,1.534c0.958,0.41,1.982,0.611,3.076,0.611
	c1.011,0,1.66-0.169,1.957-0.503c0.299-0.337,0.448-0.649,0.448-0.943c0-0.533-0.254-0.978-0.765-1.345
	c-0.508-0.365-1.247-0.742-2.218-1.129c-1.076-0.453-2.017-0.951-2.827-1.486c-0.81-0.538-1.474-1.205-1.989-2.009
	c-0.513-0.81-0.77-1.763-0.77-2.857c0-1.066,0.262-2.025,0.782-2.882c0.516-0.855,1.31-1.544,2.379-2.055
	c1.066-0.511,2.369-0.77,3.908-0.77c1.097,0,2.11,0.111,3.041,0.319c0.928,0.211,1.698,0.455,2.301,0.719
	c0.604,0.269,1.021,0.473,1.247,0.629v4.617c-0.805-0.573-1.7-1.094-2.688-1.547c-0.991-0.453-2.045-0.682-3.171-0.682
	c-0.737,0-1.27,0.146-1.602,0.428c-0.332,0.284-0.495,0.636-0.495,1.051c0,0.387,0.163,0.722,0.493,1.008
	c0.329,0.284,0.918,0.629,1.768,1.039c1.514,0.707,2.724,1.351,3.634,1.919c0.91,0.571,1.625,1.225,2.14,1.969
	C188.943,163.681,189.2,164.609,189.2,165.718"/>
<path fill="#00A651" d="M157.393,175.232c0.495-0.317,0.92-0.671,1.265-1.061c0.35-0.39,0.636-0.79,0.858-1.205
	c0.224-0.422,0.417-0.825,0.568-1.207l5.178-13.558c0.02-0.058-0.035-0.146-0.161-0.264c-0.126-0.118-0.292-0.244-0.495-0.38
	c-0.201-0.133-0.438-0.249-0.709-0.345c-0.272-0.101-0.553-0.151-0.845-0.151c-0.445,0-0.873,0.141-1.28,0.428
	c-0.407,0.277-0.737,0.83-0.988,1.642l-2.734,8.088l-3.083-8.121c-0.272-0.812-0.601-1.353-0.988-1.63
	c-0.387-0.269-0.822-0.407-1.31-0.407c-0.309,0-0.606,0.055-0.885,0.163c-0.282,0.106-0.526,0.221-0.729,0.35
	c-0.204,0.128-0.362,0.259-0.48,0.392c-0.116,0.136-0.163,0.234-0.141,0.289l4.884,11.345c0.136,0.294,0.309,0.503,0.523,0.641
	c0.214,0.138,0.485,0.226,0.815,0.262c0.02,0.08,0,0.196-0.058,0.35c-0.038,0.118-0.118,0.267-0.234,0.45
	c-0.116,0.184-0.282,0.402-0.496,0.656c-0.387,0.407-0.855,0.634-1.408,0.684c-0.556,0.05-1.099,0.023-1.645-0.07
	c-0.621-0.121-1.268-0.325-1.949-0.614c-0.485,0.541-0.755,1.034-0.815,1.486c-0.055,0.445,0.028,0.83,0.249,1.164
	c0.221,0.327,0.556,0.601,1.004,0.83c0.448,0.216,0.925,0.382,1.439,0.493c0.516,0.103,1.034,0.161,1.557,0.173
	c0.521,0.01,0.968-0.035,1.338-0.131C156.314,175.803,156.9,175.552,157.393,175.232"/>
<path fill="#00A651" d="M149.295,161.272c-0.33-0.918-0.782-1.7-1.366-2.344c-0.583-0.634-1.275-1.129-2.08-1.481
	c-0.807-0.347-1.683-0.523-2.636-0.523c-1.011,0-1.901,0.209-2.678,0.624c-0.775,0.42-1.416,0.988-1.921,1.708l-0.01-4.746
	c0-0.656-0.078-1.202-0.231-1.625c-0.156-0.43-0.355-0.762-0.599-1.006c-0.239-0.244-0.513-0.41-0.81-0.511
	c-0.302-0.098-0.606-0.143-0.913-0.143c-0.41,0-0.764,0.06-1.076,0.176c-0.309,0.116-0.463,0.214-0.463,0.289v17.904
	c0,0.757,0.166,1.27,0.508,1.539c0.337,0.272,0.787,0.407,1.351,0.407h0.433c0.523,0,0.953-0.141,1.293-0.415
	c0.337-0.282,0.508-0.787,0.508-1.516v-0.231c0.387,0.676,0.966,1.252,1.733,1.728c0.767,0.478,1.705,0.714,2.812,0.714
	c0.991,0,1.894-0.184,2.709-0.551c0.815-0.372,1.516-0.88,2.1-1.529c0.581-0.649,1.034-1.434,1.356-2.354
	c0.319-0.925,0.478-1.936,0.478-3.038C149.79,163.216,149.627,162.195,149.295,161.272z M144.833,167.406
	c-0.669,0.77-1.562,1.147-2.671,1.147c-0.506,0-0.971-0.083-1.401-0.244c-0.428-0.166-0.8-0.395-1.122-0.699
	c-0.324-0.302-0.576-0.659-0.762-1.074c-0.181-0.42-0.274-0.88-0.274-1.386v-2.615c0.309-0.719,0.77-1.285,1.371-1.703
	c0.604-0.415,1.343-0.624,2.221-0.624c1.107,0,1.992,0.38,2.653,1.134c0.661,0.754,0.993,1.773,0.993,3.051
	C145.842,165.635,145.502,166.641,144.833,167.406z"/>
<path fill="#FFFFFF" d="M432.64,33.572c-2.608,0-4.829,2.125-4.829,5c0,2.907,2.221,5.037,4.829,5.037
	c2.59,0,4.806-2.13,4.806-5.037C437.446,35.697,435.23,33.572,432.64,33.572z M432.64,42.767c-2.173,0-3.871-1.778-3.871-4.195
	c0-2.377,1.698-4.165,3.871-4.165c2.148,0,3.85,1.788,3.85,4.165C436.49,40.989,434.788,42.767,432.64,42.767z"/>
<path fill="#FFFFFF" d="M437.358,168.885v2.153c-1.104,0.407-2.18,0.609-3.239,0.609c-1.738,0-3.124-0.513-4.16-1.544
	c-1.034-1.029-1.552-2.409-1.552-4.135c0-1.743,0.506-3.151,1.517-4.223c1.011-1.069,2.339-1.605,3.991-1.605
	c0.568,0,1.086,0.058,1.542,0.161c0.458,0.111,1.019,0.317,1.693,0.614v2.336c-1.122-0.719-2.16-1.084-3.116-1.084
	c-1.001,0-1.821,0.352-2.46,1.051c-0.644,0.697-0.963,1.589-0.963,2.676c0,1.139,0.345,2.042,1.036,2.716
	c0.692,0.672,1.622,1.006,2.794,1.006C435.288,169.616,436.259,169.373,437.358,168.885"/>
<path fill="#FFFFFF" d="M419.243,156.129c-0.257,0.257-0.387,0.556-0.387,0.895c0,0.345,0.131,0.646,0.387,0.908
	c0.257,0.259,0.553,0.39,0.89,0.39c0.362,0,0.669-0.128,0.928-0.385c0.254-0.257,0.385-0.558,0.385-0.913
	c0-0.362-0.131-0.666-0.385-0.913c-0.259-0.251-0.566-0.377-0.928-0.377C419.796,155.734,419.499,155.865,419.243,156.129"/>
<rect x="419.031" y="160.384" fill="#FFFFFF" width="2.203" height="11.051"/>
<path fill="#FFFFFF" d="M406.879,160.384v2.515l0.118-0.194c1.066-1.708,2.13-2.565,3.192-2.565c0.832,0,1.698,0.42,2.598,1.255
	l-1.159,1.929c-0.765-0.722-1.471-1.084-2.125-1.084c-0.709,0-1.325,0.337-1.846,1.013c-0.518,0.672-0.777,1.469-0.777,2.394v5.787
	h-2.203v-11.051H406.879z"/>
<path fill="#FFFFFF" d="M390.125,162.343h1.919v4.917c0,1.003,0.048,1.683,0.141,2.042c0.093,0.36,0.204,0.646,0.339,0.868
	c0.136,0.219,0.307,0.42,0.516,0.596c0.661,0.586,1.489,0.88,2.49,0.88c0.988,0,1.901-0.234,2.739-0.704v-2.022
	c-0.865,0.513-1.685,0.764-2.46,0.764c-1.036,0-1.559-0.634-1.559-1.904v-5.437h3.463v-1.959h-3.463v-2.306l-4.124,4.052V162.343z"
	/>
<path fill="#FFFFFF" d="M384.524,168.885v2.153c-1.102,0.407-2.183,0.609-3.239,0.609c-1.738,0-3.126-0.513-4.162-1.544
	c-1.031-1.029-1.552-2.409-1.552-4.135c0-1.743,0.506-3.151,1.519-4.223c1.009-1.069,2.336-1.605,3.991-1.605
	c0.568,0,1.084,0.058,1.539,0.161c0.458,0.111,1.021,0.317,1.695,0.614v2.336c-1.122-0.719-2.16-1.084-3.116-1.084
	c-1.001,0-1.821,0.352-2.462,1.051c-0.641,0.697-0.963,1.589-0.963,2.676c0,1.139,0.347,2.042,1.036,2.716
	c0.692,0.672,1.622,1.006,2.797,1.006C382.451,169.616,383.422,169.373,384.524,168.885"/>
<path fill="#FFFFFF" d="M369.175,165.811c0-1.728-0.437-3.103-1.313-4.13c-0.87-1.026-2.045-1.542-3.508-1.542
	c-1.524,0-2.761,0.528-3.715,1.587c-0.953,1.054-1.428,2.427-1.428,4.112c0,1.127,0.221,2.115,0.674,2.968
	c0.453,0.858,1.059,1.539,1.808,2.047c0.754,0.503,1.735,0.754,2.95,0.754c0.89,0,1.665-0.095,2.324-0.282
	c0.661-0.194,1.328-0.505,2-0.953v-2.12c-1.212,0.885-2.535,1.328-3.976,1.328c-1.029,0-1.871-0.314-2.515-0.946
	c-0.654-0.631-1.006-1.481-1.061-2.55h7.761V165.811z M361.447,164.79c0.151-0.883,0.48-1.562,0.981-2.045
	c0.501-0.475,1.142-0.717,1.926-0.717c0.787,0,1.408,0.241,1.874,0.717c0.463,0.483,0.724,1.162,0.78,2.045H361.447z"/>
<rect x="135.676" y="128.945" fill="#FFFFFF" width="301.714" height="1.607"/>
<rect x="349.727" y="154.65" fill="#FFFFFF" width="2.206" height="16.785"/>
<polygon fill="#FFFFFF" points="332.99,154.652 342.499,154.652 342.499,156.783 335.402,156.783 335.402,161.923 342.29,161.923 
	342.29,164.091 335.402,164.091 335.402,169.302 342.743,169.302 342.743,171.435 332.99,171.435 "/>
<path fill="#FFFFFF" d="M382.421,34.07h-23.128l-26.88,72.846l19.161-0.005l3.936-10.5h12.469l0.043,9.846h19.451L382.421,34.07z
	 M360.634,81.062l6.031-23.372l0.136,23.367L360.634,81.062z"/>
<polygon fill="#FFFFFF" points="390.555,106.393 427.057,106.26 429.667,89.847 413.267,89.847 422.319,34.07 402.724,34.07 "/>
<polygon fill="#FFFFFF" points="226.232,32.753 247.232,32.753 234.763,106.388 215.074,106.388 "/>
<polygon fill="#FFFFFF" points="174.912,106.255 211.138,106.255 214.417,87.88 198.671,87.88 207.202,33.152 187.14,33.152 "/>
<path fill="#FFFFFF" d="M433.407,38.934c0.807-0.108,1.421-0.561,1.421-1.6c0-1.137-0.639-1.637-1.937-1.637h-2.087v5.782h0.83
	v-2.505h0.953l1.446,2.505h0.936L433.407,38.934z M431.634,38.23v-1.796h1.132c0.581,0,1.197,0.136,1.197,0.847
	c0,0.895-0.636,0.948-1.333,0.948H431.634z"/>
</svg>
