<?xml version="1.0" encoding="utf-8"?>
<!-- Generator: Adobe Illustrator 17.1.0, SVG Export Plug-In . SVG Version: 6.00 Build 0)  -->
<!DOCTYPE svg PUBLIC "-//W3C//DTD SVG 1.1//EN" "http://www.w3.org/Graphics/SVG/1.1/DTD/svg11.dtd">
<svg version="1.1" xmlns="http://www.w3.org/2000/svg" xmlns:xlink="http://www.w3.org/1999/xlink" x="0px" y="0px"
	 viewBox="0 0 360 140" enable-background="new 0 0 360 140" xml:space="preserve">
<g id="Layer_1">
	<g>
		<path fill="#CACCE0" d="M250.016,38.184c-9.665,3.957-20.943,5.828-26.937-2.013c-2.668-3.588-3.706-8.942-4.09-16.381
			c-2.116,3.483-4.962,8.106-7.043,11.142c-2.677-1.785-3.786,0.039-5.441-0.579c-4.462-1.602-14.24-3.199-23.467,4.654
			c-4.218,3.591-6.98,7.93-8.401,13.922c-0.364,1.644-2.633,2.474-2.134,5.946c-11.223,1.533-27.154-2.98-43.753-9.375
			c4.135,33.311-8.495,47.4-14.963,57.248c14.949,0.387,30.552,11.3,35.651,17.227c26.949-26.2,58.037-36.812,100.024-30.446
			C235.632,69.425,244.111,48.797,250.016,38.184z M195.975,48.28c8.96-6.048,15.894-16.088,15.894-16.088
			c1.044,19.339-11.016,27.872-22.735,28.447c-5.421,0.266-12.22-0.434-14.317-4.613C174.817,56.027,187.015,54.328,195.975,48.28z
			 M149.397,95.868c-3.913,3.248-9.46,4.401-13.778,4.403c-1.094,0.003-1.51-0.125-2.658-0.278l1.789-6.428l-0.526-1.732
			c2.778,2.556,6.714,2.59,9.5,1.051c0.03-0.01,0.03-0.01,0.057-0.02c0.754-0.303,2.75-1.599,3.502-3.049
			c2.291-4.483-0.561-7.161-3.435-9.015c-3.045-1.957-4.433-4.762-3.746-8.363c0.684-3.627,2.019-5.941,4.657-7.984l0.012-0.016
			c4.469-3.015,10.586-3.643,15.104-2.325l-1.144,5.755c-1.131-1.082-3.286-2.219-5.889-2.187c-0.152,0.002-0.31,0.003-0.461,0.016
			c-1.982,0.158-3.687,1.3-4.482,2.244c0.003-0.004,0.014-0.009,0.02-0.013c-0.321,0.349-0.589,0.773-0.783,1.26
			c-0.659,1.659,0.26,3.75,2.531,5.562c3.886,3.106,6.954,6.944,4.56,13.605C153.14,91.382,151.455,93.875,149.397,95.868z
			 M175.778,77.597c-0.346,1.511-0.977,3.723-2.275,6.06c-2.498,3.947-6.744,6.368-10.502,8.341
			c-0.079,0.088,1.795-2.21,1.787-2.194c4.017-3.498,8.635-17.343,3.693-17.61c-0.453-0.028-1.75,0.084-2.508,0.99
			c0.003,0,0.003,0,0.002-0.007c-0.594,0.623-1.13,1.671-1.427,3.284L160.462,99.8l-6.315,3.217l4.467-23.595
			c1.164-6.378-2.746-6.336-2.746-6.336l11.235-3.978C174.45,66.823,177.02,72.236,175.778,77.597z M185.664,72.114
			c-0.509,1.03-0.869,2.236-1.104,3.625l-1.543,10.242l-6.533,2.353c0,0,2.246-13.693,2.412-14.745
			c0.495-3.472,0.006-5.549-1.217-7.279l-0.854-0.428l4.04-1.16c2.615,1.162,2.839,3.218,2.839,3.218s1.184-1.693,2.543-3.701
			c3.361,0.075,6.424-0.735,6.424-0.735l-0.537,2.919c-2.837,0.796-5.127,2.636-6.487,5.722
			C185.65,72.133,185.657,72.122,185.664,72.114z M198.41,80.721l-6.531,1.212l3.007-18.331l-0.858-0.584
			c4.672-1.447,7.655-3.228,7.655-3.228L198.41,80.721z M213.979,56.42l-2.527,20.817l-6.753,0.868l2.844-20.615l-4.468,1.302
			c8.487-6.26,10.925-14.531,12.358-18.377c0.056-0.147,0.119,0.068,0.119,0.068l-1.017,11.178l6.963-1.749
			c-0.204,1.013-0.587,1.869-1.085,2.594c-1.433,1.591-4.185,2.381-6.306,3.015L213.979,56.42z M217.28,73.787
			c-1.003-1.219-1.96-4.178-0.649-8.845c0.723-2.569,2.041-5.589,3.503-7.448c2.66-2.851,5.871-4.456,8.497-4.732
			c3.025-0.325,4.741,1.646,4.121,4.764c-0.294,1.451-0.96,2.718-1.832,3.798c-1.78,2.147-4.966,3.291-7.092,4.21l1.872-2.171
			c1.139-1.14,2.639-3.01,3.308-5.224c1.156-3.829-1.889-3.234-2.681-2.287c-0.001-0.007,0.006-0.008,0.012-0.013
			c-1.278,0.999-2.93,3.952-4.05,10.013c-0.681,3.283,0.354,5.567,2.223,5.826c1.869,0.259,4.878-1.214,7.641-6.131l0.663,0.722
			c-0.741,1.814-1.671,3.38-2.713,4.713C227.349,74.134,220.873,78.102,217.28,73.787z M236.102,78.273
			c-0.061,0.499-0.327,0.942-0.736,1.259c-0.887,0.614-2.114,0.416-2.729-0.47c-0.316-0.409-0.438-0.942-0.377-1.441
			c0.082-0.523,0.372-0.945,0.782-1.261c0.432-0.296,0.921-0.415,1.443-0.333c0.523,0.083,0.99,0.37,1.286,0.803
			C236.086,77.238,236.207,77.772,236.102,78.273z"/>
		<path fill="#CACCE0" d="M233.284,76.66c-0.713,0.514-0.858,1.491-0.344,2.204c0.491,0.692,1.491,0.858,2.183,0.367
			c0.713-0.514,0.858-1.491,0.343-2.203C234.951,76.315,233.975,76.169,233.284,76.66z M235.141,77.631
			c-0.094,0.298-0.29,0.423-0.604,0.441l0.177,0.71l-0.428,0.003l-0.111-0.737l-0.293-0.005l-0.251,0.713l-0.338-0.003l0.555-1.675
			l0.834,0.018C235.088,77.117,235.275,77.241,235.141,77.631z"/>
		<path fill="#CACCE0" d="M234.495,77.354l-0.362-0.024l-0.153,0.459l0.451,0.018c0.204,0.01,0.335-0.043,0.415-0.227
			C234.922,77.352,234.653,77.367,234.495,77.354z"/>
	</g>
</g>
<g id="Layer_2">
</g>
</svg>
