<?xml version="1.0" encoding="utf-8"?>
<!-- Generator: Adobe Illustrator 17.1.0, SVG Export Plug-In . SVG Version: 6.00 Build 0)  -->
<!DOCTYPE svg PUBLIC "-//W3C//DTD SVG 1.1//EN" "http://www.w3.org/Graphics/SVG/1.1/DTD/svg11.dtd">
<svg version="1.1" id="Layer_1" xmlns="http://www.w3.org/2000/svg" xmlns:xlink="http://www.w3.org/1999/xlink" x="0px" y="0px"
	 viewBox="0 0 140 30" enable-background="new 0 0 140 30" xml:space="preserve">
<path fill-rule="evenodd" clip-rule="evenodd" fill="#FFFFFF" d="M12.215,0h7.197v7.408c0,1.349-0.964,2.298-2.313,2.298H9.706
	V2.524C9.706,1.175,10.866,0,12.215,0z M12.215,20.294h7.197v6.886c0,1.349-0.964,2.82-2.313,2.82H9.706v-7.704
	C9.706,20.947,10.866,20.294,12.215,20.294z M2.444,9.706h7.262v7.471c0,1.349-1.029,2.235-2.378,2.235H0v-7.119
	C0,10.943,1.095,9.706,2.444,9.706z M21.986,10.588h7.132v6.821c0,1.349-0.899,2.885-2.248,2.885h-7.458v-7.77
	C19.412,11.176,20.637,10.588,21.986,10.588z"/>
<path fill-rule="evenodd" clip-rule="evenodd" fill="#FFFFFF" d="M108.923,23.067c0-1.144,0.337-2.103,1.009-2.883
	c0.68-0.766,1.529-1.15,2.543-1.15c1.072,0,1.946,0.379,2.618,1.139c0.672,0.777,1.009,1.766,1.009,2.96
	c0,1.197-0.337,2.184-1.009,2.96c-0.672,0.752-1.553,1.128-2.645,1.128c-1.023,0-1.871-0.39-2.543-1.167
	C109.252,25.287,108.923,24.291,108.923,23.067z M107.627,18.299c-1.144,1.277-1.717,2.866-1.717,4.768
	c0,1.949,0.572,3.574,1.717,4.873c1.153,1.277,2.435,1.913,4.182,1.913c1.468,0,2.896-0.567,3.779-1.7V30h3.529V9.706h-3.529v8.502
	c-0.882-1.222-2.35-1.833-3.842-1.833C110.024,16.375,108.76,17.016,107.627,18.299z M95.686,21.176
	c0.094,0,0.235-0.589,0.417-0.876c0.185-0.287,0.404-0.48,0.661-0.687c0.257-0.205,0.544-0.335,0.86-0.443
	c0.315-0.108,0.652-0.257,1.009-0.257c1.573,0,2.562,1.381,2.974,2.264H95.686z M94.086,18.221
	c-1.117,1.247-1.675,2.883-1.675,4.898c0,2.034,0.575,3.668,1.728,4.898c1.155,1.224,2.681,1.835,4.586,1.835
	c0.663,0,1.28-0.069,1.846-0.207c0.569-0.141,1.097-0.362,1.587-0.664c0.487-0.301,0.945-0.685,1.374-1.153
	c0.428-0.467,0.835-1.028,1.219-1.683l-2.49-1.388c-0.6,0.943-1.136,1.589-1.611,1.938c-0.478,0.348-1.084,0.525-1.819,0.525
	c-0.942,0-1.717-0.295-2.319-0.906c-0.603-0.622-0.943-1.61-1.02-2.492h9.141l0.014-0.703c0-2.106-0.542-3.757-1.625-4.945
	c-1.092-1.197-2.576-1.797-4.453-1.797C96.706,16.378,95.213,16.989,94.086,18.221z M87.353,9.706V30h3.529V9.706H87.353z
	 M75.704,23.108c0-1.205,0.337-2.184,1.009-2.935c0.683-0.76,1.564-1.139,2.645-1.139c1.014,0,1.858,0.392,2.529,1.177
	c0.666,0.768,0.995,1.764,0.995,2.988c0,1.153-0.34,2.115-1.02,2.883c-0.672,0.757-1.52,1.139-2.543,1.139
	c-1.084,0-1.957-0.382-2.62-1.139C76.036,25.339,75.704,24.347,75.704,23.108z M73.235,9.706V30h2.647v-1.847
	c0.882,1.133,2.476,1.7,3.952,1.7c1.747,0,3.191-0.636,4.335-1.913c1.15-1.282,1.727-2.908,1.727-4.873
	c0-1.902-0.573-3.491-1.714-4.768c-1.147-1.283-2.576-1.924-4.295-1.924c-1.495,0-3.122,0.611-4.005,1.833V9.706H73.235z
	 M33.985,21.176c0.094,0,0.235-0.589,0.417-0.876c0.185-0.287,0.404-0.48,0.661-0.687c0.26-0.205,0.545-0.335,0.86-0.443
	c0.312-0.108,0.652-0.257,1.009-0.257c1.57,0,2.562,1.381,2.974,2.264H33.985z M34.809,26.316c-0.603-0.622-0.943-1.61-1.02-2.492
	h9.144l0.011-0.703c0-2.106-0.539-3.757-1.623-4.945c-1.092-1.197-2.579-1.797-4.456-1.797c-1.86,0-3.353,0.612-4.481,1.845
	c-1.117,1.247-1.675,2.882-1.675,4.897c0,2.034,0.575,3.668,1.73,4.898c1.153,1.224,2.678,1.835,4.583,1.835
	c0.664,0,1.28-0.069,1.846-0.207c0.569-0.141,1.097-0.362,1.587-0.664c0.489-0.301,0.945-0.686,1.377-1.153
	c0.426-0.467,0.832-1.028,1.216-1.683l-2.488-1.388c-0.603,0.943-1.139,1.589-1.612,1.938c-0.481,0.348-1.086,0.531-1.822,0.531
	C36.185,27.228,35.411,26.927,34.809,26.316z M52.941,30h2.647v-8.334c0-1.797-0.249-3.093-0.965-3.892
	c-0.829-0.932-1.997-1.399-3.481-1.399c-1.294,0-2.612,0.509-3.495,1.531v-1.142H45V30h2.647v-6.662
	c0-1.587,0.265-2.698,0.668-3.336c0.409-0.644,1.134-0.967,2.113-0.967c0.898,0,1.581,0.243,1.921,0.732
	c0.351,0.481,0.592,1.349,0.592,2.601V30z M67.771,23.133c0,1.197-0.334,2.184-1.009,2.96c-0.672,0.752-1.553,1.128-2.645,1.128
	c-1.02,0-1.871-0.39-2.543-1.167c-0.652-0.768-0.981-1.763-0.981-2.988c0-1.144,0.337-2.103,1.009-2.883
	c0.68-0.766,1.529-1.15,2.543-1.15c1.072,0,1.946,0.379,2.618,1.139C67.437,20.95,67.771,21.939,67.771,23.133z M67.941,18.208
	c-1.765-1.222-2.689-1.833-4.173-1.833c-1.719,0-3.242,0.636-4.384,1.91c-1.144,1.277-1.761,2.869-1.761,4.782
	c0,1.949,0.55,3.574,1.694,4.873c1.153,1.277,2.775,1.913,4.538,1.913c1.399,0,2.32-0.567,4.085-1.7V30h2.647V16.765h-2.647V18.208z
	"/>
</svg>
