<?xml version="1.0" encoding="utf-8"?>
<!-- Generator: Adobe Illustrator 17.1.0, SVG Export Plug-In . SVG Version: 6.00 Build 0)  -->
<!DOCTYPE svg PUBLIC "-//W3C//DTD SVG 1.1//EN" "http://www.w3.org/Graphics/SVG/1.1/DTD/svg11.dtd">
<svg version="1.1" xmlns="http://www.w3.org/2000/svg" xmlns:xlink="http://www.w3.org/1999/xlink" x="0px" y="0px"
	 viewBox="0 0 360 140" enable-background="new 0 0 360 140" xml:space="preserve">
<g id="Layer_1">
	<path fill="#CACCE0" d="M157.141,39.203c0.002-1.498-0.794-2.527-2.202-2.53c-1.443,0-2.237,1.029-2.237,2.527v0.766l4.439,0.003
		V39.203z"/>
	<path fill="#CACCE0" d="M143.731,84.025h-2.439v2.399h2.439c0.867,0,1.333-0.401,1.333-1.214
		C145.064,84.371,144.557,84.025,143.731,84.025z"/>
	<path fill="#CACCE0" d="M176.677,60.831c-2.636,0-3.308,1.815-3.308,5.982c0,4.164,0.673,5.947,3.308,5.947
		c2.635,0,3.309-1.748,3.309-5.947C179.987,62.612,179.312,60.831,176.677,60.831z"/>
	<path fill="#CACCE0" d="M186.406,46.435c1.646,0.002,2.322-1.792,2.323-4.673c0.004-2.879-0.67-4.703-2.315-4.705
		c-1.647,0-2.327,1.824-2.327,4.702C184.085,44.641,184.76,46.432,186.406,46.435z"/>
	<path fill="#CACCE0" d="M170.343,46.612c1.764,0.003,2.385-1.497,2.386-4.969c0.004-3.466-0.614-4.966-2.379-4.967
		c-1.764-0.003-2.386,1.5-2.386,4.966C167.96,45.113,168.578,46.611,170.343,46.612z"/>
	<path fill="#CACCE0" d="M139.514,46.435c1.645,0.002,2.321-1.792,2.323-4.673c0.003-2.879-0.671-4.703-2.317-4.705
		c-1.646,0-2.326,1.824-2.326,4.702C137.192,44.641,137.866,46.432,139.514,46.435z"/>
	<path fill="#CACCE0" d="M161.658,84.025h-0.986v5.705h0.92c1.96,0,2.853-1.146,2.853-2.852
		C164.444,84.972,163.631,84.025,161.658,84.025z"/>
	<path fill="#CACCE0" d="M230.715,19.963H119.568v99.972l17.139-18.962h94.008c5.905,0,10.686-4.787,10.686-10.688V30.648
		C241.401,24.748,236.62,19.963,230.715,19.963z M228.566,35.66l0.32-0.798h2.058v4.327h-2.231c-0.295-0.853-0.823-1.412-1.5-1.824
		c-0.676-0.414-1.471-0.589-2.319-0.591c-0.679,0-2.264,0.147-2.267,1.147c0,2.527,9.112,0.621,9.112,6.354
		c-0.007,3.559-3.268,4.791-6.296,4.787c-1.826,0-3.648-0.266-5.175-1.326l-0.467,1.055h-2.175v-5.114l2.408,0.002
		c0.234,1.735,2.351,3.031,3.996,3.032c0.855,0,2.503,0,2.503-1.295c0.001-2.466-9.117-0.973-9.112-6.354
		c0.001-3.526,3.647-4.641,6.589-4.639C225.568,34.424,227.218,34.895,228.566,35.66z M209.361,34.422
		c1.974,0.002,3.583,0.589,4.8,1.591c1.25-0.352,2.267-0.853,2.442-2.285c-0.293,0.206-0.646,0.205-0.97,0.205
		c-1.117,0-1.823-0.823-1.823-1.91c0-1.617,0.885-2.588,2.532-2.586c1.676,0.002,2.645,1.441,2.644,3.001
		c-0.002,2.534-1.551,4.08-3.707,4.753c1.013,1.379,1.548,3.187,1.546,5.231h-9.702c0,2.057,0.466,4.109,2.938,4.11
		c1.029,0.003,2.705-0.787,2.97-2.524h3.411c-0.473,3.529-3.911,5.054-7.091,5.054c-5.026-0.004-7.435-2.799-7.432-7.328
		C201.923,37.18,205.16,34.419,209.361,34.422z M193.202,29.295l7.293,0.004l-0.013,15.868c0,0.825,0.205,1.267,1.056,1.268
		l1.266,0.002l-0.002,2.356h-9.525v-2.358l1.265,0.002c0.853,0,1.055-0.442,1.057-1.266l0.008-12.257c0-0.823-0.2-1.262-1.055-1.265
		l-1.352-0.001L193.202,29.295z M194.668,54.164c0,1.638-1.323,2.957-2.956,2.957c-1.679,0-2.957-1.286-2.957-2.957
		c0-1.639,1.323-2.955,2.957-2.955C193.345,51.209,194.668,52.525,194.668,54.164z M176.909,34.862h6.85v2.143h0.056
		c0.854-1.792,2.383-2.584,4.267-2.584c4.435,0.005,5.756,3.739,5.756,7.324c-0.006,3.586-1.33,7.32-5.768,7.317
		c-1.765-0.002-3.41-0.678-4.026-1.973l-0.059,0.06l-0.005,2.994c-0.001,0.825,0.205,1.266,1.058,1.266l1.132,0.001v2.35h-9.261
		v-2.35h1.132c0.853,0.001,1.059-0.438,1.059-1.263l0.01-11.675c0-0.821-0.204-1.262-1.059-1.262h-1.142V34.862z M170.254,34.422
		c4.38,0.004,7.582,2.621,7.579,7.325c-0.006,4.704-3.208,7.32-7.589,7.316c-4.381-0.001-7.585-2.622-7.583-7.327
		C162.667,37.034,165.876,34.419,170.254,34.422z M154.783,34.422c4.795,0.001,7.465,3.411,7.462,8h-9.704
		c0,2.055,0.468,4.11,2.941,4.111c1.031,0,2.703-0.791,2.973-2.528l3.408,0.002c-0.474,3.529-3.913,5.054-7.089,5.054
		c-5.03-0.003-7.436-2.798-7.433-7.326C147.343,37.179,150.581,34.417,154.783,34.422z M130.016,51.411h1.132
		c0.853,0.001,1.059-0.438,1.059-1.263l0.009-11.675c0-0.821-0.203-1.262-1.058-1.262h-1.142v-2.348h6.85v2.143h0.056
		c0.854-1.792,2.383-2.584,4.266-2.584c4.436,0.005,5.757,3.739,5.757,7.324c-0.006,3.586-1.33,7.32-5.768,7.317
		c-1.765-0.002-3.41-0.678-4.027-1.973l-0.059,0.06l-0.004,2.994c-0.001,0.825,0.205,1.266,1.058,1.266l1.132,0.001v2.35h-9.261
		V51.411z M133.435,89.935c0.84,0,1.333-0.36,1.826-1.186l1.572,0.933c-0.639,1.319-1.759,2.107-3.452,2.107
		c-2.44,0-4.079-1.866-4.079-4.813c0-2.839,1.707-4.812,4.146-4.812c1.759,0,2.826,0.853,3.412,2.067l-1.733,0.799
		c-0.333-0.64-0.867-1.013-1.706-1.013c-1.4,0-2.199,1.227-2.199,2.959C131.223,88.656,132.035,89.935,133.435,89.935z
		 M128.898,66.878c0-5.558,3.386-9.009,8.868-9.009c4.596,0,7.407,2.419,7.407,5.802c0,2.205-1.386,3.63-3.594,3.63
		c-1.779,0-2.956-1.103-2.956-2.815c0-1.634,0.999-2.634,2.671-2.634h0.07c-0.678-0.675-1.426-0.992-2.385-0.992
		c-2.526,0-3.81,1.956-3.81,5.834c0,4.029,1.036,5.949,3.275,5.949c1.784,0,2.745-1.101,2.851-3.239h3.74
		c-0.215,4.128-2.851,6.516-7.373,6.516C132.066,75.92,128.898,72.573,128.898,66.878z M146.885,91.642h-2.146l-1.665-3.359h-1.88
		v3.359h-1.866v-9.331h4.345c1.76,0,3.213,0.973,3.213,2.958c0,1.4-0.6,2.28-1.787,2.746L146.885,91.642z M156.122,91.641h-6.678
		v-9.331h6.478v1.826h-4.612v1.612h2.679v1.813h-2.679v2.253h4.812V91.641z M161.493,91.642h-2.786v-9.331h2.919
		c2.666,0,4.639,1.253,4.639,4.665C166.265,90.255,163.892,91.642,161.493,91.642z M167.178,75.313h-10.502v-2.882h0.391
		c1.386,0,1.674-0.321,1.674-1.676v-6.656c0-2.028-0.822-3.025-2.456-3.025c-2.064,0-2.881,1.425-2.881,4.377v5.304
		c0,1.355,0.28,1.676,1.669,1.676h0.393v2.882h-10.541v-2.882h0.861c1.379,0,1.67-0.321,1.67-1.676V55.981
		c0-1.351-0.291-1.675-1.67-1.675h-0.861v-2.882h8.229v9.33c1.675-1.924,3.633-2.885,5.909-2.885c4.304,0,5.627,1.887,5.627,6.23
		v6.656c0,1.355,0.283,1.676,1.669,1.676h0.82V75.313z M170.729,91.641h-1.865v-9.331h1.865V91.641z M180.486,84.15h-2.678v7.491
		h-1.866V84.15h-2.68V82.31h7.225V84.15z M176.579,75.919c-6.055,0-9.721-3.419-9.721-9.008c0-5.592,3.666-9.042,9.721-9.042
		c6.05,0,9.759,3.45,9.759,9.042C186.338,72.5,182.63,75.919,176.579,75.919z M195.376,87.522c0,2.706-1.413,4.266-3.785,4.266
		c-2.253,0-3.773-1.52-3.773-4.239v-5.238h1.866v5.211c0,1.493,0.719,2.439,1.906,2.439c1.186,0,1.919-0.92,1.919-2.412v-5.238
		h1.866V87.522z M197.551,75.313h-11.252v-2.882h1.072c1.419,0,1.669-0.321,1.669-1.676v-7.192v-0.213
		c0-1.497-0.039-1.884-1.605-1.884h-1.136v-2.957h8.759v12.246c0,1.388,0.249,1.676,1.6,1.676h0.893V75.313z M205.865,91.641h-1.666
		l-3.426-5.092c-0.226-0.347-0.533-0.813-0.653-1.053c0,0.347,0.026,1.52,0.026,2.04v4.105h-1.839v-9.331h1.787l3.306,4.931
		c0.226,0.347,0.533,0.813,0.653,1.054c0-0.348-0.026-1.521-0.026-2.041v-3.945h1.838V91.641z M210.863,91.641h-1.865v-9.331h1.865
		V91.641z M206.127,75.92c-5.593,0-8.755-3.347-8.755-9.042c0-5.558,3.378-9.009,8.866-9.009c4.591,0,7.399,2.419,7.399,5.802
		c0,2.205-1.381,3.63-3.594,3.63c-1.776,0-2.95-1.103-2.95-2.815c0-1.634,0.996-2.634,2.666-2.634h0.072
		c-0.674-0.675-1.42-0.992-2.385-0.992c-2.529,0-3.808,1.956-3.808,5.834c0,4.029,1.037,5.949,3.279,5.949
		c1.778,0,2.735-1.101,2.843-3.239h3.742C213.283,73.532,210.651,75.92,206.127,75.92z M217.555,91.788
		c-2.547,0-4.053-1.972-4.053-4.812c0-2.839,1.506-4.812,4.053-4.812c2.546,0,4.053,1.973,4.053,4.812
		C221.608,89.816,220.101,91.788,217.555,91.788z M231.67,91.641h-1.667l-3.425-5.092c-0.227-0.347-0.534-0.813-0.654-1.053
		c0,0.347,0.026,1.52,0.026,2.04v4.105h-1.838v-9.331h1.786l3.306,4.931c0.226,0.347,0.533,0.813,0.653,1.054
		c0-0.348-0.026-1.521-0.026-2.041v-3.945h1.839V91.641z M232.07,67.611h-11.644v0.286c0,3.118,1.187,4.656,3.477,4.656
		c2.111,0,3.405-1.077,3.62-2.97h4.257c-1.072,4.187-3.974,6.336-8.558,6.336c-5.477,0-9.058-3.579-9.058-8.881
		c0-5.657,3.438-9.168,8.916-9.168c5.656,0,8.99,3.365,8.99,9.097V67.611z"/>
	<path fill="#CACCE0" d="M211.722,39.206c0.002-1.5-0.79-2.53-2.203-2.532c-1.438,0-2.233,1.03-2.236,2.529v0.767h4.439V39.206z"/>
	<path fill="#CACCE0" d="M217.654,83.918c-1.508,0-2.133,1.293-2.133,2.959c0,1.666,0.626,2.959,2.133,2.959
		c1.506,0,2.132-1.293,2.132-2.959C219.786,85.211,219.159,83.918,217.654,83.918z"/>
	<path fill="#CACCE0" d="M223.32,60.85c-1.684,0-2.686,1.289-2.716,3.762h5.508V64.47C226.112,62.103,225.148,60.85,223.32,60.85z"
		/>
</g>
<g id="Layer_2">
</g>
</svg>
