<?xml version="1.0" encoding="utf-8"?>
<!-- Generator: Adobe Illustrator 17.1.0, SVG Export Plug-In . SVG Version: 6.00 Build 0)  -->
<!DOCTYPE svg PUBLIC "-//W3C//DTD SVG 1.1//EN" "http://www.w3.org/Graphics/SVG/1.1/DTD/svg11.dtd">
<svg version="1.1" xmlns="http://www.w3.org/2000/svg" xmlns:xlink="http://www.w3.org/1999/xlink" x="0px" y="0px"
	 viewBox="0 0 360 140" enable-background="new 0 0 360 140" xml:space="preserve">
<g id="Layer_1">
	<g>
		<path fill="#CACCE0" d="M100.918,59.038c-0.701-1.98-2.499-3.687-7.77-3.687c-2.925,0-5.88,0.732-5.88,2.773
			c0,0.945,0.547,1.949,4.964,2.499l5.243,0.791c4.968,0.762,7.891,2.683,7.891,6.401c0,5.241-4.997,7.19-10.908,7.19
			c-9.508,0-11.823-4.692-12.341-6.368l4.173-1.31c0.793,1.615,2.439,3.96,8.289,3.96c3.536,0,6.461-1.158,6.461-3.077
			c0-1.433-1.646-2.378-4.815-2.773l-5.303-0.732c-5.12-0.701-7.981-2.925-7.981-6.307c0-6.643,8.621-6.643,10.328-6.643
			c9.537,0,11.183,4.417,11.732,5.942L100.918,59.038z"/>
		<polygon fill="#CACCE0" points="109.058,52.304 128.925,52.304 128.925,56.022 113.385,56.022 113.385,61.171 126.761,61.171 
			126.761,64.889 113.385,64.889 113.385,70.738 129.29,70.738 129.29,74.457 109.058,74.457 		"/>
		<polygon fill="#CACCE0" points="132.77,52.304 152.635,52.304 152.635,56.022 137.096,56.022 137.096,61.171 150.473,61.171 
			150.473,64.889 137.096,64.889 137.096,70.738 153.004,70.738 153.004,74.457 132.77,74.457 		"/>
		<polygon fill="#CACCE0" points="156.48,52.304 160.807,52.304 160.807,70.617 176.866,70.617 176.866,74.457 156.48,74.457 		"/>
		<polygon fill="#CACCE0" points="180.192,52.304 200.061,52.304 200.061,56.022 184.521,56.022 184.521,61.171 197.895,61.171 
			197.895,64.889 184.521,64.889 184.521,70.738 200.426,70.738 200.426,74.457 180.192,74.457 		"/>
		<polygon fill="#CACCE0" points="212.648,65.589 201.83,52.303 207.132,52.303 214.81,61.689 222.462,52.303 227.793,52.303 
			216.977,65.589 216.977,74.456 212.648,74.456 		"/>
		<rect x="84.398" y="79.516" fill="#CACCE0" width="1.966" height="10.072"/>
		<polygon fill="#CACCE0" points="88.872,79.516 90.951,79.516 97.682,86.788 97.682,79.516 99.566,79.516 99.566,89.588 
			97.766,89.588 90.756,82.052 90.756,89.588 88.872,89.588 		"/>
		<polygon fill="#CACCE0" points="105.541,81.208 101.04,81.208 101.04,79.517 112.01,79.517 112.01,81.208 107.509,81.208 
			107.509,89.587 105.541,89.587 		"/>
		<polygon fill="#CACCE0" points="113.483,79.516 122.516,79.516 122.516,81.207 115.448,81.207 115.448,83.548 121.532,83.548 
			121.532,85.237 115.448,85.237 115.448,87.897 122.682,87.897 122.682,89.588 113.483,89.588 		"/>
		<path fill="#CACCE0" d="M124.264,79.516h6.053c2.382,0,4.101,0.541,4.101,3.007c0,1.855-1.332,2.88-2.812,2.964l3.089,4.101
			h-2.425l-2.923-3.96h-3.118v3.96h-1.966V79.516z M130.026,83.99c1.607,0,2.423-0.234,2.423-1.427c0-1.177-0.816-1.41-2.423-1.41
			h-3.796v2.837H130.026z"/>
		<polygon fill="#CACCE0" points="136.583,79.516 138.661,79.516 145.394,86.788 145.394,79.516 147.278,79.516 147.278,89.588 
			145.474,89.588 138.467,82.052 138.467,89.588 136.583,89.588 		"/>
		<path fill="#CACCE0" d="M153.544,79.517h2.244l4.889,10.072H158.6l-1.054-2.316h-5.805l-1.066,2.316h-2.093L153.544,79.517z
			 M156.772,85.584l-2.107-4.489l-2.105,4.489H156.772z"/>
		<polygon fill="#CACCE0" points="163.786,81.208 159.283,81.208 159.283,79.517 170.253,79.517 170.253,81.208 165.752,81.208 
			165.752,89.587 163.786,89.587 		"/>
		<rect x="171.851" y="79.516" fill="#CACCE0" width="1.966" height="10.072"/>
		<path fill="#CACCE0" d="M181.673,79.268c4.431,0,5.999,2.603,5.999,5.36c0,2.091-1.234,5.208-5.999,5.208
			c-4.766,0-5.999-3.118-5.999-5.208C175.674,81.871,177.242,79.268,181.673,79.268 M185.705,84.517c0-2.425-1.732-3.56-4.032-3.56
			c-2.3,0-4.03,1.136-4.03,3.56c0,2.855,2.146,3.63,4.03,3.63C183.559,88.147,185.705,87.373,185.705,84.517"/>
		<polygon fill="#CACCE0" points="189.408,79.516 191.484,79.516 198.22,86.788 198.22,79.516 200.103,79.516 200.103,89.588 
			198.302,89.588 191.292,82.052 191.292,89.588 189.408,89.588 		"/>
		<path fill="#CACCE0" d="M206.368,79.517h2.244l4.891,10.072h-2.08l-1.051-2.316h-5.805l-1.066,2.316h-2.091L206.368,79.517z
			 M209.595,85.584l-2.105-4.489l-2.105,4.489H209.595z"/>
		<polygon fill="#CACCE0" points="214.809,79.516 216.779,79.516 216.779,87.842 224.075,87.842 224.075,89.588 214.809,89.588 		
			"/>
		<path fill="#CACCE0" d="M275.69,73.555l-0.078-0.215v-0.178v-0.215l-0.217-0.451l-0.135-0.275l-0.178-0.256l-0.193-0.254
			l-0.18-0.197l-0.176-0.102l-0.178-0.078l-0.215-0.039l-0.254,0.117l-0.078,0.178l-0.08,0.178l-0.039,0.197l0.078,0.277l0.18,0.156
			h0.193l0.215,0.254l0.039,0.217v0.256l0.059,0.215l0.334,0.139l0.334,0.039l0.254,0.389l0.102,0.201l0.176,0.037l0.078-0.238
			v-0.174L275.69,73.555z M273.885,76.722l-0.043-0.732l-0.115-0.687l-0.098-0.666l-0.256,0.213l-0.176,0.297l-0.158,0.332
			l-0.098,0.336l-0.334,0.609l-0.215,0.078l-0.137-0.195l-0.119-0.178l-0.178-0.256l-0.115-0.318l-0.141-0.328l-0.174-0.254
			l-0.293,0.037l-0.338,0.258l-0.213,0.137l-0.217,0.15l-0.215,0.139l-0.178,0.121l-0.215,0.137l-0.215,0.135l-0.238,0.158
			l-0.271,0.215l-0.197,0.219l-0.355,0.176l-0.336,0.178l-0.309,0.215l-0.297,0.234l-0.338,0.217l-0.312,0.213l-0.336,0.219
			l-0.35,0.174l-0.238,0.121l-0.254,0.135l-0.215,0.178l-0.135,0.256v0.213l0.035,0.258l0.043,0.256l-0.078,0.371l-0.125,0.215
			l-0.213,0.137l-0.053,0.133l-0.043,0.123l-0.084,0.256l-0.131,0.432v0.33l0.252,0.18l0.318,0.08l0.33,0.037l0.338-0.037
			l0.174-0.041l0.217-0.078l0.213-0.098l0.178-0.117l0.217-0.121l0.197-0.094l0.213-0.121l0.217-0.023h0.215l0.256,0.219
			l0.256,0.312l0.178,0.223l0.133,0.289l0.158,0.297l0.139,0.293l0.158,0.277l0.217,0.234l0.215,0.098l0.275,0.041l0.256-0.219
			l0.219-0.33l0.33-0.217l0.334-0.215l0.291-0.215l0.318-0.256l0.332-0.217l0.297-0.254l0.314-0.215l0.336-0.258l0.316-0.295
			l0.213-0.299l0.037-0.053l0.219-0.432l0.119-0.512l0.078-0.586l0.037-0.551l0.025-0.533l-0.025-0.547L273.885,76.722z
			 M269.912,73.809l0.219-0.213l0.219-0.117l0.074-0.18l-0.217-0.174h-0.215h-0.293l-0.256,0.098l-0.041,0.195l0.258,0.215
			L269.912,73.809z M269.523,83.91l-0.219,0.018l-0.115,0.199l0.158,0.213l0.217,0.137l0.172-0.039l0.076-0.215l-0.076-0.355
			L269.523,83.91z M264.024,91.586l-0.102-0.135l-0.174-0.332l-0.215-0.273l-0.178-0.297l-0.154-0.215l-0.178-0.195h-0.176
			l-0.297,0.252l-0.18,0.197l-0.176,0.139l-0.213,0.139l-0.199,0.113l-0.314-0.213l-0.197-0.08l-0.174-0.041h-0.178l-0.174,0.041
			l-0.178,0.08l-0.199,0.174l-0.254,0.039l-0.277-0.293l-0.295-0.137l-0.287,0.059l-0.26,0.158l-0.215,0.1l-0.254,0.113h-0.219
			l-0.176-0.039h-0.197l-0.176-0.074l-0.178-0.221l-0.119-0.172l-0.271-0.18h-0.332l-0.336,0.098l-0.494,0.217l-0.373,0.078
			l-0.351-0.041l-0.375-0.096l-0.334-0.176l-0.355-0.256l-0.338-0.295l-0.309-0.373l-0.197-0.135l-0.176-0.037l-0.178,0.037
			l-0.174,0.096l-0.256,0.254l-0.258,0.236l-0.254,0.18l-0.256,0.178l-0.334,0.035l-0.314-0.078l-0.334-0.076l-0.291,0.154
			l-0.258,0.18l-0.215,0.115l-0.256,0.057l-0.215,0.121l-0.176,0.174l-0.178,0.219l-0.176,0.217l-0.199,0.195l-0.178,0.176
			l-0.213,0.137l-0.176,0.039l-0.215-0.08l-0.197-0.096l-0.176-0.176l-0.18-0.195l-0.176-0.18l-0.193-0.217l-0.178-0.213
			l-0.135-0.217l-0.178-0.215l-0.199-0.195l-0.174-0.059h-0.178l-0.176,0.059l-0.215,0.076l-0.199,0.158l-0.215,0.1l-0.176,0.135
			l-0.135,0.238h-0.334l-0.217,0.094l-0.135,0.338l-0.041,0.529h-0.201h-0.172l-0.178-0.016l-0.176-0.043l-0.197-0.043l-0.172-0.035
			h-0.18l-0.178,0.035v-0.174l-0.174-0.037l-0.082,0.254l-0.037,0.215l-0.215,0.139l-0.18-0.096l-0.334-0.199l-0.215,0.199
			l-0.117,0.174l-0.049,0.178c-1.58-0.781-3.079-1.732-4.464-2.851c-3.948-3.189-6.778-7.596-8.07-12.468
			c1.326,0.418,2.638,0.881,4.009,1.381c1.656,0.605,3.446,1.256,5.528,1.888v0.004l-0.029,0.271l-0.053,0.476l-0.016,0.73
			l0.254,0.412l0.275,0.394l0.256,0.391l0.297,0.412l0.293,0.391l0.254,0.394l0.256,0.453l0.213,0.432l0.221,0.43l0.174,0.471
			l0.178,0.476l0.197,0.471l0.014,0.02l0.24,0.314l0.178,0.055l0.174,0.084l0.213,0.039l0.221,0.037l0.215,0.055l0.199,0.078
			l-0.045-0.332l-0.074-0.312l-0.006-0.018l-0.111-0.314l-0.098-0.316l-0.18-0.197l-0.197-0.217l-0.137-0.865l-0.037-0.847
			l0.158-0.826l0.394-0.724l0.174-0.217l0.217-0.154l0.174-0.176l0.197-0.141l0.178-0.176l0.172-0.158
			c3.161,0.691,6.932,1.277,11.603,1.621c0.047,0.471,0.213,2.027,0.213,2.027l8.781-4.729l-7.338-2.148l0.006-0.031l0.041-0.217
			l0.1-0.219l0.215-0.289l0.252-0.297l0.219-0.336l0.154-0.35l0.137-0.59l0.041-0.572v-0.588l-0.07-0.512
			c0.713,0.035,1.439,0.068,2.187,0.09c0.057,0.51,0.236,2.197,0.236,2.197l8.219-4.427l0.016,0.043l0.119,0.195l0.254,0.234
			l0.137-0.314l0.039-0.176l-0.039-0.197l-0.016-0.061l0.051-0.027l-0.068-0.023l-0.068-0.244l-0.076-0.375l-0.139-0.314
			l-0.158-0.193l-0.059-0.215l-0.254-0.178l-0.195,0.158l-0.055,0.236l0.211,0.623l0.119,0.303l-8.709-2.544l0.023-0.053
			l0.141-0.316l0.039-0.256l0.076-0.176l0.217-0.256l0.139-0.334l0.08-0.334v-0.314l-0.123-0.176l-0.174-0.078l-0.254-0.039
			l-0.215-0.043l-0.219-0.133l-0.215-0.176l-0.215-0.219l-0.217-0.236l-0.215-0.215l-0.049-0.049l-0.185-0.166l-0.217-0.254
			l-0.217-0.258l-0.178-0.059l-0.215,0.178l-0.174,0.215l-0.16,0.256l-0.129,0.088l-0.185,0.127l-0.334,0.039l-0.178-0.039
			l-0.303-0.127l-0.029-0.01l-0.174-0.078l-0.217-0.215l-0.119-0.336v-0.355c1.539,0.111,3.177,0.197,4.929,0.252l0.117,0.476
			l0.074,0.266l0.086,0.305l0.137,0.59l0.137,0.547l0.193,0.527l0.238,0.082l0.117-0.291l0.08-0.18l0.135-0.586l0.078-0.574
			l0.074-0.42l0.027-0.166l0.199-0.512l0.016-0.018c0.527,0.01,1.07,0.016,1.619,0.023l0.168,0.115l0.26,0.355l0.049,0.205
			l0.127,0.519l0.16,0.769l0.135,0.803l0.137,0.826h0.258l0.248,0.435l0.16,0.291l0.176,0.295l0.215,0.217l0.053,0.076l0.084,0.141
			l0.043-0.141l0.037-0.115l-0.117-0.613l-0.1-0.506l-0.076-0.512l-0.039-0.553l0.252,0.121l0.299,0.121l0.252,0.057h0.295v-0.65
			l0.039-0.685l-0.004-0.078c2.353-1.265,7.617-4.099,7.647-4.118c0.998,2.628,1.568,5.46,1.568,8.432
			C275.942,79.719,271.142,87.438,264.024,91.586 M258.838,70.815l0.057-0.088l0.174-0.51l0.08-0.219l0.063-0.172l0.172-0.334
			l0.068-0.139c0.041,0.383,0.125,1.158,0.16,1.494C259.348,70.837,259.094,70.827,258.838,70.815 M241.094,67.601l-0.295-0.211
			l-0.178-0.119l-0.295-0.217l-0.174-0.137l-0.178-0.078l-0.176-0.078l-0.236-0.021l-0.176,0.021l-0.217,0.035l-0.176,0.121
			l-0.176,0.137l-0.195,0.156l-0.215,0.021l-0.061-0.215l-0.076-0.176l-0.334,0.117l-0.299,0.254h-0.312l-0.252-0.254l-0.221-0.375
			l-0.039-0.394l0.039-0.33l0.023-0.09l0.014-0.088l0.139-0.215l-0.076-0.178v-0.197l-0.063-0.215l-0.289,0.037l-0.178-0.174v-0.394
			l0.096-0.414l0.043-0.394l-0.082-0.389l-0.172-0.119l-0.18-0.039l-0.178,0.119l-0.197,0.135l-0.219,0.178l-0.209,0.078
			l-0.215,0.078l-0.178,0.178l-0.041-0.256V63.2v-0.213l0.041-0.18l0.078-0.289l0.016-0.297l0.084-0.275l0.076-0.197l0.178-0.137
			l0.168-0.074l0.002-0.006l0.219-0.057h0.219l0.252-0.039l0.236-0.039l0.221-0.078l0.059-0.031
			c0.061,0.021,0.123,0.041,0.182,0.059l0.031,0.146l0.018,0.045l0.103,0.191l0.133,0.238l0.119,0.234l0.096,0.178h0.195
			l0.178-0.119l0.178-0.217V61.79l0.059-0.086c2.531,0.787,5.479,1.545,9.162,2.142l-0.225,0.734l-0.135,0.33l-0.178,0.375
			l-0.115,0.394v0.088v0.305l0.115,0.293l0.178,0.256l0.135,0.256l0.119,0.293l0.084,0.275l0.016,0.291l0.039,0.26l0.078,0.215
			l0.215,0.295l0.217,0.295l0.256,0.217l0.254,0.176l0.295,0.156l0.291,0.098l0.277,0.117l0.297,0.059l0.215,0.039l0.195-0.039
			l0.18-0.059l0.174-0.117l0.178-0.139l0.199-0.156l0.172-0.135l0.176-0.18l0.178-0.076l0.215,0.076l0.199,0.18l0.096,0.25
			l0.041,0.221v0.254v0.252v0.004v0.215l0.016,0.064c-3.702-0.404-6.754-0.965-9.369-1.597l-0.059-0.057l-0.219-0.197l-0.174-0.137
			l-0.174-0.137l-0.215-0.158l-0.246-0.285L241.094,67.601z M233.252,65.851c-1.453-0.531-2.843-1.027-4.255-1.463
			c0.498-1.775,1.203-3.486,2.107-5.1c0.141,0.049,0.342,0.123,0.562,0.203v0.018h0.057c0.043,0.016,0.08,0.029,0.123,0.043
			l0.035,0.428l-0.078,0.432l-0.08,0.43l0.043,0.476v0.174l0.002,0.045l0.035,0.152l0.078,0.316l0.178,0.428l0.096,0.453
			l0.197,0.432l0.217,0.353l0.059-0.275l0.035-0.291v0.213v0.215l0.119,0.357l0.219,0.295l0.178,0.254l0.213,0.295l0.254,0.256
			l0.217,0.215l0.252,0.215l0.258,0.219l0.273,0.125l0.1,0.049l0.178,0.195l0.215,0.02l0.217,0.115l0.213,0.139l0.217,0.158
			l0.254,0.178l0.297,0.256l0.109,0.107C235.314,66.603,234.256,66.217,233.252,65.851 M267.512,60.441l-0.035-0.285l-0.094-0.297
			l-0.139-0.211l-0.197-0.217l-0.178-0.176l-0.176-0.178l-0.156-0.254l-0.098-0.297v-0.371l0.078-0.174h0.176l0.215,0.115
			l0.176,0.178l0.176,0.252l0.217,0.178l0.197,0.158h0.215l-0.078-0.551l-0.213-0.41l-0.258-0.357l-0.217-0.471l-0.039-0.176
			l0.039-0.295l0.121-0.213l0.016-0.215l0.039-0.219l0.041-0.215l0.176-0.197l0.158-0.277l-0.076-0.234l-0.141-0.314l-0.117-0.334
			l-0.135-0.318l-0.158-0.332l-0.217-0.391l-0.215-0.217l0.359-0.197l-0.699-0.203l-0.266-0.268l-0.199-0.037l-0.176-0.02
			l-0.096-0.197l0.039-0.219l0.178-0.213l0.172-0.139l0.156-0.057c3.718,2.726,6.629,6.493,8.285,10.874
			C274.331,62.434,270.324,61.261,267.512,60.441 M244.96,78.3l0.086-0.248l0.234-0.137h0.355l0.293-0.154l0.176-0.256l0.117-0.312
			l0.021-0.373v-0.318l-0.021-0.334l0.021-0.334l0.158-0.389l0.139-0.359l0.156-0.412l0.178-0.353l0.035-0.088l0.059-0.125
			l0.119-0.258l0.1-0.217l0.117-0.252v-0.064c1.595,0.256,3.322,0.482,5.218,0.67l0.01,0.121l-0.01,0.125l-0.033,0.441l-0.096,0.594
			l-0.121,0.426l-0.094,0.394l-0.082,0.432v0.453l0.119,0.394l0.135,0.334l0.139,0.35l0.119,0.396l0.078,0.709l0.006,0.258
			C249.741,79.126,247.196,78.745,244.96,78.3 M233.252,74.867c-1.72-0.623-3.351-1.211-5.05-1.697
			c-0.074-0.752-0.119-1.515-0.119-2.271c0-1.023,0.082-2.048,0.213-3.064c1.541,0.457,3.042,0.992,4.618,1.568
			c0.648,0.236,1.31,0.473,1.996,0.719l-0.203,0.174l-0.256,0.215l-0.156,0.215l-0.059,0.295v0.355l0.059,0.373l0.121,0.355
			l0.135,0.254l0.119,0.293l0.096,0.258l0.16,0.215l0.094-0.178l0.084-0.193l-0.043,0.252l0.043,0.217l0.037,0.215l0.039,0.195
			l0.139,0.394l0.082,0.207l0.074,0.184l0.135,0.375l0.215,0.355l0.182,0.371l0.25,0.355l0.072,0.096
			C235.254,75.603,234.24,75.23,233.252,74.867 M253.517,61.009l-0.086-0.379l-0.059-0.435l-0.193,0.041h-0.217l-0.18-0.119
			l-0.037-0.176v-0.258l-0.1-0.293l-0.156-0.254l-0.096-0.178l-0.158-0.213l-0.139-0.178l-0.297-0.156l-0.172-0.039l-0.217,0.117
			l-0.297,0.295l-0.254,0.256l-0.291,0.293l-0.279,0.236l-0.33-0.059l-0.178-0.078l-0.334-0.041l-0.336,0.08l-0.314,0.178
			l-0.412,0.469l-0.139,0.266c-3.333-0.502-6.069-1.131-8.434-1.806l0.006-0.131l0.197-0.174l0.258-0.039h0.215l0.178-0.18
			l0.174-0.332l0.217-0.215l0.217-0.219l0.215-0.353V56.74l0.117-0.254l0.041,0.293l0.137,0.215l0.295,0.078l0.176-0.039
			l0.295-0.137l0.293-0.117l0.254-0.254l0.041-0.215l-0.078-0.297l-0.078-0.178h0.172l0.199,0.041l0.174,0.039l0.178,0.039h0.33
			l0.303-0.195l0.174-0.059l-0.039-0.295l-0.135-0.865l-0.041-0.334l0.018-0.084c0.951,0.191,1.97,0.381,3.06,0.553l-0.113,0.178
			l-0.139,0.178l-0.178,0.195l-0.195,0.178l-0.135,0.176l-0.121,0.254l-0.057,0.396l-0.039,0.451l0.039,0.51v0.476l0.057,0.174
			l0.199,0.293l0.018,0.217l0.234,0.02l0.24,0.039h0.236l0.213-0.1l0.037-0.176l0.285-0.293l0.213-0.334l0.195-0.394l0.135-0.412
			l0.213-0.061l0.219-0.215l0.219-0.252l0.215-0.123l0.295,0.338l0.174,0.213l0.16,0.256l0.055,0.391l0.256,0.16l0.24-0.041
			l0.172,0.1l0.137,0.291l0.158,0.18l0.215,0.115l0.217,0.08l0.057-0.254l0.158-0.199l0.176-0.137l0.178,0.178l0.254,0.295
			l0.121,0.256l0.055,0.293l0.121,0.217l0.176,0.078l0.217-0.078l0.217-0.039l0.213,0.687v0.586l0.158,0.256l0.176,0.18l0.215-0.041
			l-0.043-0.217h0.301l0.25,0.041l0.297,0.059l0.295,0.08l0.277,0.037h0.293l0.256-0.078l0.254-0.178l0.078,0.394l0.059,0.449
			l0.041,0.219C255.335,61.157,254.411,61.089,253.517,61.009 M255.259,47.41l-0.217,0.195l-0.195,0.098l-0.219,0.117l-0.213,0.098
			l-0.215,0.076l-0.219,0.08l-0.213,0.061l-0.26,0.117l-0.213,0.178l-0.215,0.213l-0.174,0.217l-0.26,0.039l-0.215,0.373
			l-0.252-0.295l-0.219-0.394l-0.232-0.371l-0.279-0.176l-0.217-0.08l-0.195-0.174l-0.178-0.178l-0.174-0.215l-0.254,0.135
			l-0.18,0.08l-0.197,0.137l-0.176,0.176l-0.178,0.199l-0.176,0.135l-0.154,0.217l-0.1,0.254l-0.076,0.334l-0.1,0.275l-0.117,0.295
			l-0.141,0.258l-0.154,0.211l-0.137,0.178l-0.176,0.197l-0.213,0.096l-0.121,0.258l-0.119,0.215l0.045,0.098
			c-0.742-0.113-1.474-0.238-2.187-0.371l-0.018-0.16l-0.117-0.295l-0.18-0.217l-0.174-0.211l-0.234-0.18l-0.18-0.211l-0.174-0.18
			l-0.217-0.197l-0.217-0.139l-0.221-0.154l-0.289-0.02l-0.219,0.137l-0.252,0.295l-0.215,0.291l-0.176,0.219l-0.158,0.277h-0.176
			l-0.18-0.238l-0.195-0.121l-0.059,0.18l-0.174,0.041h-0.238l-0.098-0.359l-0.059-0.137c3.247-1.582,6.827-2.417,10.47-2.417
			c1.14,0,2.255,0.082,3.357,0.238L255.259,47.41z M250.338,51.472c-0.254-0.029-0.512-0.064-0.763-0.1l0.004-0.072l0.082-0.318
			l0.074-0.297l0.178-0.193l0.213,0.193l0.18,0.357l0.121,0.41L250.338,51.472z M262.583,48.361l-0.289-0.148l-0.615-0.295
			l-0.584-0.256l-0.607-0.252l-0.631-0.219l-0.605-0.215l-0.182-0.039l-0.158,0.037c-0.537-0.156-1.086-0.291-1.634-0.412
			l-0.037-0.018l-0.254-0.1l-0.215-0.076l-0.178-0.041l-0.215,0.041l-0.043,0.008c-1.404-0.242-2.847-0.373-4.321-0.373
			c-4.446,0-8.803,1.187-12.616,3.423L238.425,50l1.088,0.31c5.448,1.56,11.361,2.445,18.611,2.792l0.566,0.025
			c0,0-0.119-1.131-0.17-1.66c0.963,0.283,4.427,1.299,5.905,1.732c-1.359,0.732-4.534,2.441-5.421,2.915
			c-0.047-0.441-0.137-1.308-0.137-1.308l-0.418-0.023c-10.767-0.49-17.049-2.173-21.315-3.585l-0.248-0.08l-0.203,0.16
			c-1.826,1.431-3.45,3.105-4.811,4.983l-0.379,0.521l1.42,0.519c6.346,2.318,14.229,5.194,32.643,5.161h0.541
			c0,0-0.107-1.01-0.156-1.466c0.965,0.283,4.427,1.295,5.907,1.726c-1.357,0.73-4.534,2.443-5.415,2.921
			c-0.055-0.519-0.16-1.517-0.16-1.517l-0.443,0.002c-18.439,0.066-26.283-2.802-32.58-5.098l-2.603-0.941l-0.203,0.357
			c-1.109,1.925-1.964,3.989-2.527,6.135l-0.115,0.457l0.457,0.135c1.543,0.453,3.058,1.006,4.653,1.591
			c5.618,2.052,12.61,4.602,27.23,5.081l0.555,0.018c0,0-0.105-0.976-0.146-1.39c0.965,0.283,4.423,1.295,5.905,1.73
			c-1.359,0.73-4.534,2.439-5.417,2.919c-0.059-0.549-0.172-1.591-0.172-1.591l-0.42-0.01c-14.653-0.449-21.608-2.993-27.197-5.032
			c-1.787-0.65-3.47-1.267-5.241-1.761l-0.531-0.148l-0.084,0.541c-0.189,1.244-0.285,2.517-0.285,3.778
			c0,0.896,0.049,1.802,0.148,2.691l0.037,0.328l0.318,0.086c1.783,0.49,3.493,1.117,5.3,1.777
			c4.884,1.783,10.956,3.999,22.266,4.823l0.574,0.045c0,0-0.113-1.095-0.164-1.584c0.965,0.285,4.427,1.297,5.907,1.734
			c-1.353,0.732-4.53,2.439-5.421,2.919c-0.049-0.486-0.143-1.392-0.143-1.392l-0.408-0.031
			c-11.347-0.797-17.154-2.917-22.272-4.788c-1.679-0.611-3.265-1.193-4.915-1.664l-0.793-0.23l0.18,0.803
			c1.232,5.417,4.296,10.337,8.639,13.85c4.413,3.568,9.966,5.532,15.651,5.532c13.731,0,24.897-11.171,24.897-24.899
			C276.912,60.948,271.042,52.341,262.583,48.361 M270.07,71.555l0.262,0.252l0.25,0.256l0.311-0.039l0.299-0.176l0.076,0.373v0.213
			l0.037,0.178l0.178,0.098l0.297-0.314l0.096-0.293l0.119-0.514v-0.547l-0.041-0.49l-0.078-0.551l-0.002-0.004l-0.074-0.215
			l-0.178-0.43l-0.098,0.176l-0.078-0.373l-0.039-0.391l-0.102-0.295h-0.291l-0.16,0.174l-0.096,0.238l-0.039,0.316l-0.039,0.332
			l-0.217,0.08v0.174l-0.213,0.215l-0.043,0.043l-0.215,0.256l-0.18,0.277l-0.172,0.33l-0.117,0.217l0.289,0.256L270.07,71.555z"/>
	</g>
</g>
<g id="Layer_2">
</g>
</svg>
