<?xml version="1.0" encoding="UTF-8"?>
<svg width="633px" height="514px" viewBox="0 0 633 514" version="1.1" xmlns="http://www.w3.org/2000/svg" xmlns:xlink="http://www.w3.org/1999/xlink">
    <!-- Generator: Sketch 44.1 (41455) - http://www.bohemiancoding.com/sketch -->
    <title>img_quote_symbol</title>
    <desc>Created with Sketch.</desc>
    <defs>
        <linearGradient x1="0%" y1="95.4827335%" x2="100%" y2="0%" id="linearGradient-1">
            <stop stop-color="#FEED3B" offset="0%"></stop>
            <stop stop-color="#FFFFFF" offset="100%"></stop>
        </linearGradient>
    </defs>
    <g id="Symbols" stroke="none" stroke-width="1" fill="none" fill-rule="evenodd" fill-opacity="0.4">
        <g id="img_Testimonials_V3" transform="translate(-404.000000, -99.000000)" fill="url(#linearGradient-1)">
            <path d="M559.395349,613 C630.120155,613 689.887597,558.213178 689.887597,482.507752 C689.887597,400.825581 630.120155,352.015504 559.395349,352.015504 C530.507752,352.015504 503.612403,362.972868 483.689922,378.910853 C479.705426,366.957364 477.713178,354.007752 477.713178,336.077519 C477.713178,256.387597 549.434109,170.72093 633.108527,135.856589 L614.182171,99 C469.744186,166.736434 404,281.290698 404,413.775194 C404,446.647287 409.976744,503.426357 438.864341,548.251938 C463.767442,587.100775 499.627907,613 559.395349,613 Z M906.046512,613 C977.767442,613 1036.53876,558.213178 1036.53876,482.507752 C1036.53876,400.825581 977.767442,352.015504 906.046512,352.015504 C877.158915,352.015504 851.25969,362.972868 830.341085,378.910853 C826.356589,366.957364 824.364341,354.007752 824.364341,336.077519 C824.364341,256.387597 896.085271,170.72093 979.75969,135.856589 L960.833333,99 C816.395349,166.736434 750.651163,281.290698 750.651163,413.775194 C750.651163,446.647287 756.627907,503.426357 785.515504,548.251938 C810.418605,587.100775 847.275194,613 906.046512,613 Z" id="img_quote_symbol"></path>
        </g>
    </g>
</svg>