<?xml version="1.0" encoding="utf-8"?>
<!-- Generator: Adobe Illustrator 20.0.0, SVG Export Plug-In . SVG Version: 6.00 Build 0)  -->
<svg version="1.1" id="Layer_1" xmlns="http://www.w3.org/2000/svg" xmlns:xlink="http://www.w3.org/1999/xlink" x="0px" y="0px"
	 viewBox="0 0 180 80" enable-background="new 0 0 180 80" xml:space="preserve">
<path fill="#FEE433" d="M16.3,0L0,16.433h39.438L55.738,0H16.3z M60.486,0L44.188,16.433h9.482L69.97,0H60.486z M84.199,0
	L67.897,16.433h14.207L98.402,0H84.199z"/>
<path fill="#202020" d="M117.412,54.965l7.797-21.293l7.799,21.293H117.412z M67.162,54.965l7.799-21.293l7.799,21.293H67.162z
	 M23.916,48.939h-7.04V32.561h8.723c4.882,0,9.427,1.358,9.427,7.977C35.026,47.581,28.798,48.939,23.916,48.939 M150.42,71.938
	l-18.018-47.439h-14.21l-18.02,47.439l-18.02-47.439H67.943L49.925,71.938l-2.568-6.853c-2.251-5.882-4.4-11.459-12.535-12.141
	v-0.105c7.239-0.595,11.399-5.921,11.399-12.642c0-14.173-9.091-15.698-18.939-15.698H0.095v8.061h5.793v39.378H0.095v8.061h22.6
	v-8.061h-5.819V57.001h6.777c6.229,0,9.874,2.77,11.755,7.554L41.112,80H65.95v-8.061h-4.871l3.199-8.912h21.366l3.199,8.912h-4.871
	V80h32.225v-8.061h-4.869l3.197-8.912h21.368l3.197,8.912h-4.871V80h21.067v-8.061L150.42,71.938L150.42,71.938z"/>
</svg>
