<?xml version="1.0" encoding="utf-8"?>
<!-- Generator: Adobe Illustrator 20.1.0, SVG Export Plug-In . SVG Version: 6.00 Build 0)  -->
<svg version="1.1" id="results" xmlns="http://www.w3.org/2000/svg" xmlns:xlink="http://www.w3.org/1999/xlink" x="0px" y="0px"
	 viewBox="0 0 130 130" style="enable-background:new 0 0 130 130;" xml:space="preserve">
<style type="text/css">
	.st0{fill:none;stroke:#593A96;stroke-width:6;stroke-linecap:round;stroke-linejoin:round;stroke-miterlimit:10;}
	.st1{fill:none;stroke:#593A96;stroke-width:8;stroke-linecap:round;stroke-linejoin:round;stroke-miterlimit:10;}
</style>
<path class="st0" d="M94.3,121.7H35.7c-6.6,0-12-5.4-12-12V38.2c0-6.6,5.4-12,12-12h58.5c6.6,0,12,5.4,12,12v71.5
	C106.3,116.3,100.9,121.7,94.3,121.7z"/>
<circle class="st0" cx="64.6" cy="74" r="27.4"/>
<path class="st0" d="M82.5,32.4"/>
<path class="st0" d="M42.4,26.1v-4.4c0-2.8,2.3-5.1,5.1-5.1h35.9c2.8,0,5.1,2.3,5.1,5.1v4.4"/>
<line class="st0" x1="41.6" y1="26.2" x2="87.6" y2="26.2"/>
<circle class="st0" cx="65.2" cy="11" r="5.4"/>
<polyline class="st1" points="52,74 61.2,83.1 76.7,65.9 "/>
</svg>
