<?xml version="1.0" encoding="utf-8"?>
<!-- Generator: Adobe Illustrator 20.1.0, SVG Export Plug-In . SVG Version: 6.00 Build 0)  -->
<svg version="1.1" id="Layer_1" xmlns="http://www.w3.org/2000/svg" xmlns:xlink="http://www.w3.org/1999/xlink" x="0px" y="0px"
	 viewBox="0 0 20 20" style="enable-background:new 0 0 20 20;" xml:space="preserve">
<style type="text/css">
	.st0{fill:#08B093;}
	.st1{fill:#FFFFFF;}
</style>
<g>
	<path class="st0" d="M10,0C4.5,0,0,4.5,0,10s4.5,10,10,10s10-4.5,10-10S15.5,0,10,0z M15.4,7.9l-5.7,6.8c-0.3,0.3-0.7,0.5-1.1,0.5
		c0,0-0.1,0-0.1,0c-0.4,0-0.8-0.2-1-0.4l-2.2-2.1c-0.6-0.6-0.6-1.5,0-2.1c0.6-0.6,1.5-0.6,2.1,0l1,1L13.1,6c0.5-0.6,1.5-0.7,2.1-0.2
		C15.8,6.3,15.9,7.3,15.4,7.9z"/>
</g>
<path class="st1" d="M13.1,6l-4.6,5.6l-1-1c-0.6-0.6-1.5-0.6-2.1,0c-0.6,0.6-0.6,1.5,0,2.1l2.2,2.1c0.3,0.3,0.7,0.4,1,0.4
	c0,0,0.1,0,0.1,0c0.4,0,0.8-0.2,1.1-0.5l5.7-6.8c0.5-0.6,0.4-1.6-0.2-2.1C14.6,5.3,13.6,5.3,13.1,6z"/>
</svg>
