<?xml version="1.0" encoding="utf-8"?>
<!-- Generator: Adobe Illustrator 20.1.0, SVG Export Plug-In . SVG Version: 6.00 Build 0)  -->
<svg version="1.1" id="Layer_1" xmlns="http://www.w3.org/2000/svg" xmlns:xlink="http://www.w3.org/1999/xlink" x="0px" y="0px"
	 viewBox="0 0 324 324" style="enable-background:new 0 0 324 324;" xml:space="preserve">
<style type="text/css">
	.st0{fill:none;stroke:#E6C0FF;stroke-width:12;stroke-miterlimit:10;}
	.st1{fill:#E6C0FF;}
</style>
<title>ic_getjobdone</title>
<path class="st0" d="M107.3,49.7c-31.3,0-56.7,25.3-56.7,56.6c0,0,0,0,0,0v170h170c31.3,0,56.7-25.4,56.7-56.7V49.7H107.3z"/>
<path class="st1" d="M218.8,102.1c-5.9-3.5-13.6-1.6-17.1,4.3c-0.1,0.2-0.2,0.3-0.3,0.5l-48,86.2l-26.7-32.5
	c-4.8-5.6-11.3-8.5-17.3-4.8s-8.6,12.4-4.7,18l37.2,45.2c2.8,3.6,6,5.8,9.3,6.4v0.1h0.3c0.8,0.1,12,2.2,16.8-6.5l55-98.9
	C226.8,113.8,224.8,105.9,218.8,102.1z"/>
</svg>
