<?xml version="1.0" encoding="utf-8"?>
<!-- Generator: Adobe Illustrator 20.1.0, SVG Export Plug-In . SVG Version: 6.00 Build 0)  -->
<svg version="1.1" id="Layer_1" xmlns="http://www.w3.org/2000/svg" xmlns:xlink="http://www.w3.org/1999/xlink" x="0px" y="0px"
	 viewBox="0 0 324 324" style="enable-background:new 0 0 324 324;" xml:space="preserve">
<style type="text/css">
	.st0{fill:none;stroke:#E6C0FF;stroke-width:12;stroke-miterlimit:10;}
	.st1{fill:#E6C0FF;}
</style>
<title>ic_inspire</title>
<path class="st0" d="M107.3,49.7C76,49.7,50.6,75,50.6,106.3l0,0v170h170c31.3,0,56.7-25.4,56.7-56.7V49.7H107.3z"/>
<path class="st1" d="M213.3,137.1c-2.5-23.6-21.3-42.4-44.7-44.9h-0.1c-0.7,0-1.4-0.1-2.1-0.1c-0.7-0.1-1.7-0.1-2.6-0.1
	c-0.9,0-1.8,0.1-2.6,0.1c-0.8,0.1-1.4,0.1-2.1,0.1h-0.1c-23.4,2.7-42.2,21.6-44.7,44.9c-1.8,15.8,3.9,31.5,15.4,42.5
	c5.8,5.6,9.9,12.4,11.4,19.1v28.9c-0.1,1.6,1.2,2.9,2.7,3h3.7l4.3,5.7c1.9,2.6,5,4.2,8.3,4.2h7.4c3.3,0.1,6.4-1.5,8.3-4.2l4.3-5.7
	h3.4c1.6,0.1,2.9-1.2,3-2.7v-29.2c1.2-6.4,5.2-13.1,11.4-19.1C209.4,168.6,215,152.9,213.3,137.1z M180.5,192.5h-32.7
	c-1.9-6.5-6-13-11.9-18.9c-9.5-9.1-14.3-22.2-12.9-35.3c2.3-19.4,18-35.1,37.3-37.4c0.6,0,1.1-0.1,1.7-0.1c0.6-0.1,1.3-0.1,2-0.1
	c0.7,0,1.4,0.1,2,0.1c0.6,0.1,1.2,0.1,1.7,0.1c19.6,2.3,35.3,18,37.3,37.4c1.6,13.1-3.2,26.2-12.7,35.3
	C186.5,179.5,182.3,186.1,180.5,192.5z M170.6,204.7c-0.1,1.5,1.1,2.8,2.6,2.8c0.1,0,0.2,0,0.3,0h6.5v3.6h-13.4
	c-1.6,0-2.8,1.3-2.8,2.8s1.3,2.8,2.8,2.8h13.4v3.6h-31.5v-3.6h6.5c1.6,0,2.8-1.3,2.8-2.8s-1.3-2.8-2.8-2.8h-6.5v-3.6h13.4
	c1.6,0,2.8-1.3,2.8-2.8c0-1.6-1.3-2.8-2.8-2.8h-13.4v-3.6h31.5v3.6h-6.5c-1.5-0.1-2.8,1.1-2.8,2.6
	C170.6,204.5,170.6,204.6,170.6,204.7z M171,228.1c-0.8,1-2,1.6-3.3,1.7h-7c-1.3-0.1-2.5-0.6-3.3-1.6l-1.5-1.9l16.5-0.1L171,228.1z"
	/>
</svg>
