<?xml version="1.0" encoding="utf-8"?>
<!-- Generator: Adobe Illustrator 20.1.0, SVG Export Plug-In . SVG Version: 6.00 Build 0)  -->
<svg version="1.1" id="Layer_1" xmlns="http://www.w3.org/2000/svg" xmlns:xlink="http://www.w3.org/1999/xlink" x="0px" y="0px"
	 viewBox="0 0 1071 217" style="enable-background:new 0 0 1071 217;" xml:space="preserve">
<style type="text/css">
	.st0{fill-rule:evenodd;clip-rule:evenodd;}
	.st1{fill:none;stroke:#000000;stroke-width:4;}
	.st2{fill:none;stroke:#000000;stroke-width:1.3;stroke-miterlimit:5;}
	.st3{fill:none;stroke:#000000;}
	.st4{fill:none;stroke:#000000;stroke-width:1.5;}
	.st5{fill:none;stroke:#000000;stroke-miterlimit:5;}
	.st6{font-family:'MyriadPro-Regular';}
	.st7{font-size:54px;}
	.st8{font-family:'MyriadPro-Bold';}
	.st9{font-size:48px;}
</style>
<g>
	<g>
		<path d="M42.1,220.8"/>
	</g>
	<path d="M20.8,196.9C20.8,196.9,20.8,196.9,20.8,196.9c-0.2,0.1-0.3,0.2-0.1,0.4c0.2,0.3,0.6,0.5,1,0.7c-0.2,0-0.3,0-0.5,0
		c0.2,0,0.4,0.1,0.7,0.1c1.5,0.5,3.7,0.4,5,0.4c0.6,0,1.2-0.1,1.9-0.1c3.4,0,7.3,0,10.5,0.1c6.1,0.2,12.4,0.3,18,0.9
		c0.2-0.3,0.2-0.7,0.6-0.9c0.6-0.2,1.5,0,2.2,0.1c2.4,0.4,5,1.2,7.5,0.8c0.1-0.1-0.5-0.3-0.6-0.5c0.7-0.1,1.3-0.4,2-0.4
		c2.5-0.3,4.9,1,7.3,1.1c1.1,0.1,2.6-0.2,3.6-0.3c1,0,2.4,0,3.4,0c0.3,0,0.7,0,0.9,0c0.4-0.1,0.5-0.5,0.8-0.5c0.4-0.1,0.9,0,1.5,0
		c3.4,0,6.9,0.3,10.1,0.4c5.9,0.3,11.7,0.5,17.3-0.1c1.9-0.2,3.8-0.3,5.6-0.2c3.7,0.3,7.1,1.3,10.5,1.5c0.1-0.1-0.1-0.2-0.2-0.3
		c-0.3-0.3-0.8-0.6-1.1-0.9c5.6,1,10.6,1.1,16.1,1.8c1.8,0.2,4.3,0.5,6.7,0.8c0,0.1,0,2.1,0,3.1c-6.1,0-10.5,0-16,0
		c-8.8,0.1-17,0.4-26.5,0.2c-5.8-0.2-11.3-0.4-16.9-0.7c-8.3-0.5-17-1-25.4-1.3c-16.5-0.6-33.9-1.2-48.6-3.9
		c-0.4-0.3-0.8-0.6-0.8-1.1c0-0.5,0.6-0.7,0.8-1.1c0.8-0.4,1.6-0.7,2.4-1L20.8,196.9"/>
	<path d="M116.6,188.3c-0.8-0.6-1.7-1.2-2.7-1.7c3.3,0.2,6.6,0.2,10.2,0.3c0.8,0,1.7,0.1,2.6,0.1c0.7,0,4.2,0,4.9,0.1
		c2.3,1.9,8.1,5.8,19.6,11.6c0.2,0.1-2.3-0.2-3.5-0.4c-9.8-1.6-18.1-4.4-25.6-8c-1.3-0.6-2.6-1.2-4.4-1.3
		C117.3,188.8,117,188.5,116.6,188.3"/>
	<path d="M282.4,196.9C282.4,196.9,282.4,196.9,282.4,196.9c0.2,0.1,0.3,0.2,0.1,0.4c-0.2,0.3-0.6,0.5-1,0.7c0.2,0,0.3,0,0.5,0
		c-0.2,0-0.4,0.1-0.7,0.1c-1.5,0.5-3.7,0.4-5,0.4c-0.6,0-1.2-0.1-1.9-0.1c-3.4,0-7.3,0-10.5,0.1c-6.1,0.2-12.4,0.3-18,0.9
		c-0.2-0.3-0.2-0.7-0.6-0.9c-0.6-0.2-1.5,0-2.2,0.1c-2.4,0.4-5,1.2-7.5,0.8c-0.1-0.1,0.5-0.3,0.6-0.5c-0.7-0.1-1.3-0.4-2-0.4
		c-2.5-0.3-4.9,1-7.3,1.1c-1.1,0.1-2.6-0.2-3.6-0.3c-1,0-2.4,0-3.4,0c-0.3,0-0.7,0-0.9,0c-0.4-0.1-0.5-0.5-0.8-0.5
		c-0.4-0.1-0.9,0-1.5,0c-3.4,0-6.9,0.3-10.1,0.4c-5.9,0.3-11.7,0.5-17.3-0.1c-1.9-0.2-3.8-0.3-5.6-0.2c-3.7,0.3-7.1,1.3-10.5,1.5
		c-0.1-0.1,0.1-0.2,0.2-0.3c0.3-0.3,0.8-0.6,1.1-0.9c-5.6,1-10.6,1.1-16.1,1.8c-1.8,0.2-4.4,0.5-6.8,0.8c-0.4,1.6-0.4,2.8,0,3.1
		c6.1,0,10.5,0,16,0c8.8,0.1,17,0.4,26.5,0.2c5.8-0.2,11.3-0.4,16.9-0.7c8.3-0.5,17-1,25.4-1.3c16.5-0.6,33.9-1.2,48.6-3.9
		c0.4-0.3,0.8-0.6,0.8-1.1c0-0.5-0.6-0.7-0.8-1.1c-0.8-0.4-1.6-0.7-2.4-1L282.4,196.9"/>
	<path d="M186.5,188.3c0.8-0.6,1.7-1.2,2.7-1.7c-3.3,0.2-6.6,0.2-10.2,0.3c-0.8,0-1.7,0.1-2.6,0.1c-0.7,0-4.2,0-4.9,0.1
		c-2.3,1.9-8.1,5.8-19.6,11.6c-0.2,0.1,2.3-0.2,3.5-0.4c9.8-1.6,18.1-4.4,25.6-8c1.3-0.6,2.6-1.2,4.4-1.3
		C185.8,188.8,186.2,188.5,186.5,188.3"/>
	<path class="st0" d="M134.4,96.8c0,0.2-0.2,0.4-0.4,0.4c-0.2,0-0.4-0.2-0.4-0.4c0-0.2,0.2-0.4,0.4-0.4
		C134.3,96.4,134.4,96.6,134.4,96.8"/>
	<path class="st0" d="M187.9,138.1c0,0.1-0.1-0.5-0.2-0.5c-0.2-0.1-0.6,0.8-0.7,0.9c-0.7,1-1.6,1.7-2.6,2.4c0.1-0.1-0.2,0.3-0.3,0.2
		c0,0,0.2-0.7,0.2-0.8c0-0.3,0.1-0.6,0.1-0.9c0-0.3,0.1-1.2-0.1-1.2c-0.1,0-0.4,0.6-0.6,0.7c-0.2,0.1-0.4,0.3-0.7,0.4
		c-0.1,0.1-0.6,0.4-0.7,0.4c-0.1-0.1,0.2-0.5,0.2-0.7c0.1-0.7-0.1-1.3-0.2-1.8c-0.1-0.3-0.3-0.9-0.6-1.1c0,0-0.3-0.2-0.4-0.2
		c-0.1,0.1-0.1,0.5-0.1,0.5c-0.2,0.6-0.8,1.2-1.1,1.6c-0.3,0.3,0-0.5,0-0.8c0-1.7-0.7-2.5-1.5-3.4c-0.4-0.4-0.2-0.1-0.3,0.4
		c-0.1,0.7-0.5,1.8-0.9,2.3c0,0-0.2,0.3-0.2,0.2c-0.1-0.1,0-0.8,0-0.9c0-0.3-0.1-0.7-0.2-0.9c0-0.1-0.4-0.8-0.6-0.7
		c0,0-0.1,0.4-0.1,0.5c-0.1,0.1-0.3,0.5-0.4,0.5c0,0,0-0.4,0-0.6c-0.1-1.4-0.6-2.2-1.5-3c-0.2-0.2-0.7-0.9-1-0.7
		c-0.2,0.1-0.1,0.6-0.1,0.9c0,0.2,0,0.3-0.1,0.6c0,0.1-0.1,0.7-0.2,0.4c-0.1-0.3-0.5-0.5-0.8-0.6c-0.2,0-0.8,0.2-0.8,0.2
		c0,0,0.3-0.8,0.3-0.9c0.1-1.1-0.4-2.4-0.9-3c0,0-0.7-0.7-0.7-0.7c-0.1,0-0.3,0.6-0.3,0.7c-0.2,0.5-0.4,1-0.6,1.4
		c0,0.1-0.4,0.6-0.4,0.5c-0.1-0.1,0-0.7-0.1-0.9c-0.3-1.5-1.6-2.8-3-3c-0.1,0-0.6-0.1-0.6,0c-0.1,0.1,0.3,0.5,0.3,0.7
		c0.3,0.9-0.3,2-0.9,2.3c0,0-0.5,0.3-0.7,0.2c-0.1,0-0.1-0.4-0.2-0.5c-0.5-0.8-1.7-1.8-3.2-1.7c0,0-0.4,0-0.4,0.1
		c0,0.1,0.4,0.2,0.5,0.3c0.6,0.7-0.5,1.9-0.7,2.1c-0.8,0.6-2.1,0.9-3,1.2c-3.3,1.1-6.1,2.4-8.3,4.5c-2.2,2-4,4.7-5.5,7.3
		c-1,1.8-2.4,4.1-5.2,3.5c-1.9-0.4-3.1-2.1-3.2-4.1c-0.1-2,0.5-3.8,1-5.5c1.2-4.3,2.6-8.4,3.8-12.4c1.2-3.9,2.3-9.7,2.9-12.5
		c2.2-10.8-0.2-15.1-1.5-16.8c-0.7-0.8-1.9-1.7-3.2-1.7c-3-0.1-4.7,1.6-5.7,3.6c-0.1,0.2-0.4,0.7-0.4,0.8c0,0.2,0.5,0.3,0.7,0.5
		c0.5,0.5,0.1,1.1,0.2,1.9c0,0.2,0.4,1,0.4,0.9c-0.2,0-0.4-0.5-0.4-0.5c-0.2-0.6-0.1-1.4-0.3-1.9c-0.1-0.2-0.4-0.7-0.7-0.7
		c-0.1,0-0.2,0.5-0.3,0.6c-0.5,0.7-1.3,1.4-2,1.9c-1.1,0.8-2.4,1.3-2.6,2.8c0,0.2,0,0.8,0.1,0.9c0.2,0.1,0.3-0.2,0.7-0.3
		c0.3-0.1,0.6-0.2,0.8-0.3c1.3-0.4,2.4-1,3.5-1.6c0.6-0.3,1.3-0.8,2.2-0.9c0.5,0,1.2-0.1,2.2-0.3c0.6-0.2,1.4-0.7,1.5-0.7
		c0.7-0.1,1.1,0.7,1.2,1.2c0.2,0.6,0.2,1.2,0.2,1.7c0,0.9-0.1,1.8-0.2,2.7c-0.1,0.9-0.2,1.8-0.4,2.6c-2,9.7-4.9,17.9-8.7,25.5
		c-1.6,3.2-3.6,6.5-4.2,10.7c-0.2,1.7-0.2,3.6,0.2,5.2c2.5,0.1,5.4,0.7,8.8,1.8c1,0.4,2,0.5,3,0.5c4.2,0,8.1-3,14.2-3.1c0,0,0,0,0,0
		c6.1,0,10,3.1,14.2,3.1c0.9,0,1.9-0.1,3-0.5c2.9-1,5.4-1.5,7.6-1.7c-0.3-0.2-0.6-0.4-0.9-0.4c-0.6,0-1,0.2-1.5,0.3
		c-0.6,0.2-1.2,0-2,0.1c0.4-0.2,0.7-0.4,1-0.6c0.3-0.2,0.7-0.6,1-0.7c0.9-0.4,3.3-0.1,3.8,0.5c0.1,0.1,0.3,0.4,0.4,0.6
		c0.3,0,0.5,0,0.8,0c1.3,0,2.5,0.1,3.5,0.3c0.1,0,0.1,0,0.2-0.1c0.5-0.3,1-0.8,1.5-1.3c0.5-0.6,1-1.2,1.5-1.9c0.5-0.7,0.7-1.4,1-2.3
		c0.2-0.5,0.6-0.9,0.8-1.5c0.2-0.6,0.5-1.1,0.6-1.8C188.3,140.4,188.2,139.1,187.9,138.1 M128.7,103.2c-0.1,0-0.6-0.8-0.7-0.9
		c0,0-0.1-0.1-0.2-0.2c-0.1-0.1,0.8-0.6,1-0.7c0.2,0,1.1,0.9,1.1,1.1C129.8,102.6,128.9,103.2,128.7,103.2z M134.3,97.7
		c-1.3,0.2-1.7-1.6-0.4-1.8C135.2,95.6,135.3,97.5,134.3,97.7z M174.9,137.2c0.2,0,0.5,0,0.6,0.1c0.1,0.2,0.2,1,0,1.1
		c-0.1,0.1-0.5-0.3-0.6-0.4c-0.4-0.1-1.2,0.5-1.5,0.8c-0.1,0.1-0.4,0.3-0.4,0.3c-0.1-0.1,0.4-0.7,0.4-0.8
		C173.8,137.7,174.2,137.3,174.9,137.2z M173.3,135.5c0.4-0.5,0.7-1,0.9-1.5c-0.1,0.7-0.3,2.2-0.9,2.4c0,0-0.5,0-0.6-0.1
		C172.6,136.1,173.3,135.5,173.3,135.5z M173.1,137.1c-0.1,0-0.7,0.8-0.9,1.1c-0.2,0.2-0.4,0.8-0.5,0.8c0,0-0.9,0-0.9,0
		c-0.1-0.1,0.4-0.6,0.5-0.6c0.2-0.2,0.3-0.4,0.5-0.6C172.1,137.6,172.7,137.1,173.1,137.1z M171.4,141.8c-0.2,0.2-0.1-0.4-0.2-0.7
		c-0.2-0.3-0.7-0.5-1-0.5c-0.1,0-0.7,0.1-0.6-0.2c0-0.2,0.5-0.2,0.6-0.2c0.5-0.1,1.1,0,1.4,0.3C172,140.9,171.8,141.4,171.4,141.8z
		 M170.9,134.9c0.4-0.4,0.9-1.1,1.3-1.5c0,0,0,0,0,0c-0.1,0.5-0.4,0.8-0.6,1.2c-0.2,0.3-0.4,1.1-0.8,1c-0.1,0-0.3-0.3-0.3-0.4
		C170.4,135.1,170.7,135.1,170.9,134.9z M169.4,131.7c0.3-0.2,0.7-0.6,0.9-0.8c0.1-0.1,0-0.2,0.1-0.3c0,0-0.3,1.2-0.6,1.6
		c-0.2,0.3-0.6,0.9-0.8,0.9c0,0-0.6-0.4-0.6-0.6C168.4,132.2,169.2,131.9,169.4,131.7z M167.9,140.7c-0.2-0.2-0.6-0.4-0.9-0.4
		c-0.1,0-0.2,0.1-0.3,0.1c-0.1,0-0.3-0.5-0.3-0.5c0.3-0.4,2,0.1,2.2,0.4c0.4,0.6-0.5,1.2-0.7,1.4c-0.1,0.1-0.1,0.1-0.1,0.1
		C167.8,141.5,168.2,141.2,167.9,140.7z M167.6,135.8c-0.1-0.1-0.4-0.1-0.1-0.2c0.2-0.1,0.9,0.1,0.9,0.2c0.7,0.6,0.2,2.4-0.3,2.9
		c-0.2,0.2,0.1-0.4,0.1-0.7C168.2,137,167.9,136.1,167.6,135.8z M168.5,134.4c0.2,0.2,0.4,1,0.1,0.6c-0.3-0.4-1.2-0.8-1.9-0.5
		c-0.1,0-0.7-0.3-0.7-0.4c0-0.2,0.9-0.2,1-0.3C167.7,133.9,168.1,133.9,168.5,134.4z M165.4,138.9c-0.1-0.1,0-0.2,0-0.3
		c0.1-0.7-0.2-1.5-0.9-1.6c-0.1,0-0.3,0-0.4,0c0,0,0.1-0.5,0.1-0.5c0.1-0.1,0.4,0,0.4,0c1.4,0,1.5,0.9,1.1,2c0,0.1-0.1,0.2-0.1,0.3
		C165.6,138.7,165.5,139,165.4,138.9z M165.8,135.2c-0.4-0.4-1.4-0.7-2-1c-0.2-0.1,0.1-0.1,0.3-0.1c0.4,0,0.8,0,1.2,0.1
		c0.3,0.1,0.9,0.7,1,0.9c0,0.1,0,0.6,0,0.6C166.2,135.8,165.8,135.2,165.8,135.2z M162.2,135.1c-0.6-0.2-1-0.2-1.5-0.4
		c-0.4-0.2-0.1-0.2,0.3-0.3c1-0.1,1.9,0.2,2.4,0.9c0.1,0.2,0.4,0.7,0.3,0.7c0,0-0.4-0.3-0.4-0.3
		C163.1,135.6,162.6,135.2,162.2,135.1z M163.2,138.2c0,0.4-0.1,1.1-0.3,0.5c-0.1-0.4-0.4-0.8-1-0.9c-0.4,0-0.8,0.2-1,0.2
		c-0.1,0-0.3-0.3-0.3-0.4c0.1-0.2,1.1-0.3,1.4-0.4C162.7,137.3,163.2,137.5,163.2,138.2z M165.9,130.8c0.4-0.4,0.9-1.3,1-2.1
		c0-0.1-0.1-0.4,0-0.5c0,0,0.3,1.2,0.2,1.6c-0.2,0.6-0.6,1.5-0.9,1.6c-0.1,0-0.6,0-0.7-0.1C165.4,131.2,165.9,130.8,165.9,130.8z
		 M165.4,132.8c-0.7,0.3-1.4,0.5-2.2,0.7c-0.9,0.2-1.6,0.6-2.9,0.4C161.7,133.2,163.4,132.9,165.4,132.8z M161.4,129.8
		c0.1-0.3,0.2-0.8,0.2-0.9c0-0.1-0.1-0.2,0-0.3c0.1-0.1,0.4,0.5,0.4,0.8c0,0.3-0.1,0.8-0.2,0.9c0,0-0.6,0.1-0.7,0.1
		C161.1,130.4,161.4,129.9,161.4,129.8z M158.5,131.9c1.7-0.7,4-0.9,6.2-0.5c-0.6,0-1.4,0.6-2.2,0.4c-0.1,0-0.2-0.2-0.3-0.2
		c-0.7-0.2-1.3,0.3-1.9,0.4c-0.3,0-0.7,0-1.2,0c-0.1,0-0.8,0.1-0.8,0C158.3,132,159.4,131.5,158.5,131.9z M155.3,132.9
		c0.2-0.2,0.9-0.8,1.1-0.8c0.5,0-0.8,0.7,0.1,0.8c0.2,0,1.1,0.3,1.5,0.3c0.2,0-0.3,0.1-0.6,0.1c-0.8,0.1-1.1,0-1.7,0
		C155.2,133.4,154.9,133.4,155.3,132.9z M151.5,134.7c0.2-0.2,0.9-1.1,1.3-1.2c0.1,0-0.5,0.6-0.4,0.8c0.2,0.3,1.3,0.1,1.6,0
		c0.1,0,0.5-0.2,0.6-0.1c0,0-0.3,0.3-0.4,0.3c-0.4,0.2-1.4,0.4-1.9,0.5c-0.2,0-1.1,0.2-1.2,0.1C151.2,135.1,151.5,134.7,151.5,134.7
		z M148.8,136.8c0.1-0.2,0.1-0.5,0.3-0.7c0.1-0.2,0.7-0.7,0.8-0.7c0.1,0-0.9,1.5-0.1,1.3c0.4-0.1,1.2-0.6,1.7-0.8
		c0.3-0.1,0.8-0.3,0.4-0.1c-0.7,0.6-1.6,1-2.5,1.3c-0.2,0.1-0.8,0.2-0.8,0.2C148.5,137.4,148.7,136.9,148.8,136.8z M146.5,139.3
		c0.2-0.7,0.7-1.3,1.2-1.8c0.1-0.1-0.2,0.5-0.3,0.7c-0.1,0.3-0.4,0.9-0.1,1c0.2,0.1,1.3-0.6,1.5-0.7c0.6-0.3,1.1-0.6,1.7-0.8
		c-0.7,0.8-1.6,1.3-2.8,1.8c-0.2,0.1-1,0.5-1.2,0.3C146.4,139.9,146.5,139.5,146.5,139.3z M144.9,141.5c0.1-0.7,0.4-1.1,0.7-1.6
		c0.1,0.4-0.4,1.3-0.1,1.5c0.2,0.2,0.5-0.1,0.7-0.2c0.6-0.3,1.2-0.6,1.8-0.9c0.5-0.3-0.3,0.4-0.5,0.6c-0.7,0.5-1.4,0.8-2.2,1.2
		c0,0-0.4,0.3-0.5,0.2C144.8,142.2,144.9,141.7,144.9,141.5z M144.4,144c-0.1,0.1-0.8,0.5-0.8,0.5c-0.3-0.1,0.1-1.3,0.1-1.4
		c0.1-0.2,0.1,0.5,0.3,0.5c0.3,0.1,0.8-0.5,1.2-0.7c0.2-0.1,0.8-0.6,0.9-0.6c0,0-0.7,1-0.9,1.2C145.1,143.6,144.7,143.8,144.4,144z
		 M148.1,146.7c0,0-0.4,0.2-0.4,0.2c-0.1,0-0.1-0.6-0.2-0.7c-0.4-0.6-1.5-0.6-2.2-0.3c0.5-0.6,2.1-0.9,2.6-0.2
		C148.1,145.9,148.3,146.5,148.1,146.7z M149.2,144.5c0,0-0.2-0.4-0.2-0.4c-0.8-0.7-2.1,0.3-2.6,0.6c-0.3,0.1-0.6,0.3-0.5,0
		c0.6-1.5,1.3-3.1,2.7-3.9c0.3-0.2,0.7-0.2,1-0.3c0.2-0.1,0.4-0.7,0.6-0.9c0.4-0.5,0.9-0.9,1.5-1.2c0.3-0.1,0.3-0.1,0.5-0.4
		c0.4-0.7,1.2-1.4,2-1.7c0.4-0.2,0.9,0.1,1.4-0.1c0.2-0.1,0.5-0.6,0.7-0.8c0.5-0.4,1.3-0.7,2.1-0.7c0.9-0.1,1.7,0.2,2.2,0.6
		c0.2,0.2,0.7,0.6,0.6,0.9c0,0.1-0.8-0.5-0.9-0.5c-0.8-0.3-2.1-0.1-2.8,0.1c-0.3,0.1-0.9,0.3-0.9,0.5c0,0.1,0.9,1,0.9,1
		c-0.2,0.1-0.9-0.3-1.2-0.3c-0.9-0.1-1.8,0.2-2.4,0.5c-0.1,0.1-0.8,0.5-0.8,0.6c0,0.1,0.9,0.5,1,0.5c0,0,0.4,0.1,0.4,0.1
		c0,0.2-0.7,0-0.9,0c-0.8,0.1-2,0.5-2.5,1.1c-0.1,0.1-0.4,0.5-0.4,0.6c0.1,0.1,0.1,0,0.3,0c0.1,0,0.6,0.3,0.7,0.5
		c0,0,0.2,0.4,0.1,0.4c0,0-0.4-0.1-0.5-0.1c-1.3-0.2-2.3,0.4-3,1c-0.3,0.2-1.3,0.9-0.7,1.1c0.2,0.1,0.5-0.1,0.8,0
		c0.3,0.1,0.9,0.3,0.9,0.6C149.3,144,149.3,144.5,149.2,144.5z M158.5,138.3c-0.6,0-0.7,0.4-1.2,0.2c-0.1-0.1-0.3-0.1-0.3-0.1
		c-0.1-0.1,0.8-0.6,1-0.7c0.1,0,0.4,0,0.5,0c1.3-0.1,2.3,0.8,1.7,1.9c0,0-0.2,0.5-0.3,0.5c0,0,0.1-0.6,0.1-0.6
		C160,138.8,159.5,138.3,158.5,138.3z M155.8,139.3c-0.7,0-0.8,0.6-1.5,0.5c-0.5,0-0.6,0-0.4-0.2c0.5-0.4,0.9-0.8,1.8-0.9
		c1.2-0.1,2,0.7,1.6,1.7c0,0.1-0.2,0.5-0.2,0.5c-0.1,0,0-0.4,0-0.3C157.2,139.8,156.6,139.2,155.8,139.3z M154.7,142
		c-0.1,0.2-0.1,0.2-0.1-0.1c-0.1-0.4-0.3-0.9-0.7-1c-0.5-0.2-0.9,0.2-1.3,0.1c0.1,0-0.7-0.3-0.7-0.4c0-0.1,0.9-0.4,1-0.4
		C154,140.1,155.2,140.9,154.7,142z M149.4,143c0-0.2,1-0.4,1.3-0.4c0.5,0,1.2,0.2,1.5,0.6c0.1,0.2,0.3,0.8-0.1,0.5
		c-0.3-0.3-0.9-0.6-1.6-0.5c-0.4,0.1-0.5,0.3-0.8,0C149.6,143.2,149.3,143,149.4,143z M152.7,146.5c0,0-0.8-0.3-0.9-0.3
		c-0.6-0.1-1.6,0.3-2.1,0.5c-0.3,0.1,0.4-0.6,0.4-0.6c0.3-0.2,0.6-0.4,1-0.4c0.7-0.1,1.3,0.2,1.5,0.5
		C152.6,146.1,152.7,146.4,152.7,146.5z M155.3,144.8c-0.1,0-0.6-0.5-0.8-0.6c-0.9-0.2-1.8,0.7-2.2,0.8c0,0-0.5-0.1-0.5-0.1
		c0,0,0.4-0.5,0.4-0.6c0.5-0.5,1.4-0.8,2.3-0.8c0.4,0,1.1,0.1,1,0.7C155.6,144.3,155.4,144.8,155.3,144.8z M158.2,143.2
		c-0.2,0.3-0.1,0.1-0.2-0.2c-0.2-0.7-1.1-0.7-1.6-0.4c-0.3,0.1-0.7,0.5-0.9,0.5c0,0-0.6-0.1-0.6-0.1c0,0,0.2-0.2,0.2-0.2
		c0.5-0.4,1.3-0.9,2.2-1C158.3,141.6,158.7,142.4,158.2,143.2z M160.8,142.7c-0.1,0-0.2-0.5-0.1-0.4c-0.1-0.3-0.5-0.5-1-0.6
		c-0.3,0-0.6,0.2-0.7,0.1c0,0-0.4-0.4-0.4-0.4c0,0,0.5-0.2,0.6-0.2c0.2-0.1,0.3-0.1,0.6-0.2c0.8-0.1,1.4,0.2,1.3,1.1
		C161,142.3,160.9,142.7,160.8,142.7z M162.9,142.5c-0.1,0.1,0-0.6-0.1-0.8c-0.1-0.3-0.7-0.5-1.1-0.4c-0.3,0-0.2,0.1-0.4-0.1
		c-0.1-0.1-0.4-0.2-0.4-0.3c0-0.1,0.6-0.3,0.7-0.3C163.3,140.2,163.9,141.6,162.9,142.5z M163.4,140.4c0-0.1,0.5-0.3,0.7-0.3
		c0.2,0,0.4,0,0.6,0c0.7,0,1.4,0,1.6,0.6c0.1,0.4-0.1,0.5-0.3,0.7c0,0-0.3,0.3-0.4,0.2c0,0-0.1-0.5,0-0.4c-0.2-0.7-1.2-0.3-1.8-0.5
		C163.7,140.6,163.4,140.4,163.4,140.4z M178.1,144.6c-0.1,0.2-0.7,0.6-0.9,0.7c-0.6,0.2-1.5,0.1-2.3,0.2c-0.5,0.1-0.3,0.3,0.1,0.3
		c0.3,0,0.8,0.1,1.2,0c0,0,0.3-0.1,0.4-0.1c0.1,0-0.5,0.5-0.5,0.5c-0.6,0.2-1.7,0.1-2.7,0.1c-0.8,0.1,0.3,0.4,0.6,0.4
		c0.2,0,1.3,0.1,0.9,0.2c-0.4,0.2-1.1,0.4-1.5,0.3c-0.9-0.1-2,0-2.8,0.2c-0.4,0.1-0.7,0.5-1.1,0.7c-0.8,0.4-2.1,0.5-3,0.1
		c-0.6-0.2-1.3-0.6-2-0.4c1.3-0.3,2-1,3.1-1.5c0.7-0.3,1.5-0.8,2.3-0.7c0.2,0,0.4,0.2,0.6,0.2c0.1,0,0.2-0.2,0.3-0.3
		c0.7-0.6,2.2-1,3.2-1c1.3-0.1,2.9,0.2,3.9-0.2C178,144.7,178.2,144.5,178.1,144.6z M177.4,142.5c-0.7,0.4-1.3,0.6-2.2,0.9
		c-0.2,0.1-1,0.4-1.2,0.3c-0.1,0,0.4-0.5,0.5-0.6c0.5-0.6,1.1-1.5,1.5-2c0.1-0.1,0.4-0.3,0.4-0.5c-0.1-0.2-0.8,0-1,0
		c-1,0.3-1.8,0.5-2.7,0.9c-0.2,0.1-0.1-0.3,0-0.4c0.2-0.2,1.4-0.7,1.7-0.8c0.3-0.1,0.5-0.1,0.7-0.1c0.5-0.1,1.3-0.3,1.8-0.2
		c0.2,0,0.2,0,0,0.3c-0.3,0.6-0.6,1.1-1.1,1.6c-0.1,0.1-0.5,0.4-0.5,0.6c0.1,0.2,0.6,0.1,0.7,0.1c0.7-0.1,1.4-0.4,2-0.7
		C178.4,141.8,177.5,142.4,177.4,142.5z M178.5,137.9c-0.1,0.4-0.6,1.1-0.8,1.2c-0.1,0-0.4,0.1-0.5,0.1c-0.1,0,0.4-0.7,0.5-0.8
		c0.4-0.5,0.5-0.9,0.9-1.4c0,0,0-0.1,0-0.1C178.8,137,178.6,137.8,178.5,137.9z M183,141.3c0,0.4-0.3,0.9-0.7,1.3
		c-0.5,0.5-1,1-1.4,1.2c-0.1,0,0.1-0.1,0.1-0.1c0.7-0.9,1.4-2.3,2.2-3.2C183.5,140.2,183,141.2,183,141.3z M186.3,141.3
		c-0.3,0.5-1.1,1.3-1.5,1.9c-0.2,0.3,0.1-0.2,0.2-0.4c0.1-0.2,0.6-1,0.7-1.3c0-0.1,0-0.4,0.1-0.4c0.1-0.2,0.7-0.6,0.9-0.5
		C186.5,140.5,186.4,141,186.3,141.3z M178.4,150.9c-0.2,0.1-0.9,0.3-1.1,0.3c-0.1,0-0.1-0.1-0.2-0.2c-2.3,0.2-5,0.7-8.1,1.8
		c-1.1,0.4-2.2,0.5-3.3,0.5c-4.7,0-8.5-3.1-14.2-3.1c0,0,0,0,0,0c-5.7,0-9.5,3-14.2,3.1c-1,0-2.1-0.2-3.3-0.5
		c-3.2-1.1-5.9-1.6-8.2-1.8c0.1,0.3,0.2,0.6,0.3,0.9c0.2,0.4,0.5,0.5,1,0.6c1.6,0.2,3,0.8,4.4,1.2c1.5,0.4,3,0.5,4.6,0.6
		c1,0.1,2.2,0.1,3.4,0c0.9-0.1,1.9-0.2,2.6-0.4c0.7-0.2,1.3-0.4,2-0.5c1.4-0.3,2.8-0.7,4.2-1.1c1.5-0.4,3-0.6,4.6-0.7
		c0.8-0.1,1.7-0.1,2.5,0.1c1.3,0.2,2.8,0.4,4.1,0.8c0.6,0.2,1.2,0.5,1.8,0.6c2.1,0.5,4.6,1,7,0.7c2.8-0.4,5.3-0.7,7.8-1.6
		c1.3-0.4,2.6-0.9,3.9-1.1c-0.4,0-0.8,0-1.2,0C178.8,150.9,178.6,150.9,178.4,150.9z"/>
	<path d="M113,154.4c2.9-1.7,8.1-6.1,21.3-1.6c1.3,0.5,3.5,0.8,6.7-0.2c5.6-1.7,9.6-3.6,16.6-1.3c7.6,2.5,8,2.5,13.9,0.6
		c0.8-0.2,10.6-3.2,18.2,2.3c0.3,0.2-3,7-3.3,7.3c-0.2,0.3-5.4-4.9-18-0.8c-2.7,0.9-4.1,1.1-9.2-0.6c-3.7-1.2-6.8-2.5-13.5-0.7
		c-2.1,0.6-7,3.1-11.4,1.2c-1.3-0.5-6-1.9-11.6-1.3c-3.6,0.3-6.3,2.4-6.4,2.2c-0.1-0.2-1.8-3.6-2-4.1C114.2,157,113,154.4,113,154.4
		"/>
	<path d="M120.6,168.6c0.3-0.1,4-2.8,14.5,0.1c0.6,0.2,3.2,2.1,8.4,0.1c4.3-1.7,8-2.9,14.3-0.7c1.4,0.5,5.8,2.7,10,0.8
		c3.8-1.7,10.9-2.2,14.8-0.4c0.1,0.1-9.9,16.4-31,29c-0.2,0.1-18.9-11.1-29.4-26.6C121.7,170.3,120.6,168.6,120.6,168.6"/>
	<path class="st1" d="M196.9,103.2c0,3.4,0,7.3,0,12.3c0,51.6-30,72.3-45.4,82c-15.4-9.7-45.4-30.3-45.4-82c0-4.9,0-9.5,0-12.8"/>
	<path d="M196,99.1v-0.6c0,0,0-0.2,0-1.3h1.9c0,0.6,0,0.9,0,1.1c0,0-0.6,0.2-0.6,0.2C197.1,98.7,196,99.2,196,99.1"/>
	<path class="st1" d="M106.1,95.3c0-3.9,0-8.7,0-11.3c0-1,0-1,0-1h90.8c0,0,0,0,0,1c0,2.6,0,7,0,10.8"/>
	<path d="M105.4,98.4c-0.2-0.2-0.3-0.6-0.3-0.7c0,0,0,0,0-0.5h1.9c0,0.5,0,0.9,0,0.9l0,0.9c0,0.2-0.7-0.5-1-0.5L105.4,98.4"/>
	<path class="st2" d="M186.6,161.6c-2.5-1.6-8.2-4.2-18.6-0.7c-5.7,1.9-9.5-2.4-16.4-2.4c-6.8,0-10.7,4.3-16.4,2.4
		c-10.5-3.6-16.2-0.8-18.7,0.8 M182.6,168.5c-2.6-1.1-7.7-2.1-16.1,0.8c-5.2,1.7-8.8-2.4-15-2.4c-6.2,0-9.6,4.1-14.8,2.4
		c-8.6-2.9-13.7-1.8-16.2-0.7"/>
	<path class="st0" d="M88.8,75.5C88.8,75.5,88.8,75.5,88.8,75.5"/>
	<path d="M69.8,43.9c0-0.1,0-0.2,0-0.3c0,0,0-0.1,0-0.1c0,0,0.1,0,0.1,0c0,0.1,0,0.2,0,0.3C69.9,43.9,69.9,43.9,69.8,43.9
		C69.8,43.9,69.8,43.9,69.8,43.9C69.8,43.9,69.8,43.9,69.8,43.9"/>
	<path d="M83.8,51.8C83.8,51.8,83.8,51.8,83.8,51.8L83.8,51.8c0-0.1,0-0.1,0-0.1C83.9,51.7,83.9,51.7,83.8,51.8c0.1-0.1,0.1,0,0.1,0
		C84,51.8,83.9,51.8,83.8,51.8C83.9,51.8,83.9,51.8,83.8,51.8C83.9,51.8,83.8,51.8,83.8,51.8"/>
	<path d="M83.1,87.2c0,0,0-0.1-0.1-0.1c0,0,0-0.1,0-0.1c0,0,0.1,0,0.1,0c0,0,0,0.1,0,0.1h0c0,0,0,0.1,0,0.1
		C83.2,87.2,83.1,87.2,83.1,87.2C83.1,87.2,83.1,87.2,83.1,87.2"/>
	<path d="M95.8,99.2c-0.1,0-0.2-0.1-0.3-0.1c0,0-0.1,0-0.1-0.1c0,0,0-0.1,0.1-0.1c0.1,0,0.2,0.1,0.3,0.1
		C95.8,99.1,95.9,99.1,95.8,99.2C95.8,99.2,95.8,99.2,95.8,99.2C95.8,99.2,95.8,99.2,95.8,99.2"/>
	<path d="M103.2,97.9C103.2,97.9,103.3,97.9,103.2,97.9c0.1-0.1,0.1-0.1,0.1-0.1v0c0,0,0.1,0,0.1,0c0,0,0,0.1,0,0.1
		C103.4,98,103.3,98,103.2,97.9C103.3,98,103.3,98,103.2,97.9C103.3,98,103.2,98,103.2,97.9"/>
	<path d="M103.2,96.2C103.2,96.2,103.2,96.2,103.2,96.2c0.1-0.1,0.1-0.1,0.2-0.2l0,0c0,0,0,0,0,0c0,0,0,0,0,0
		C103.4,96.2,103.3,96.2,103.2,96.2C103.2,96.2,103.2,96.2,103.2,96.2C103.2,96.2,103.2,96.2,103.2,96.2"/>
	<path d="M101.7,95.2C101.7,95.2,101.7,95.2,101.7,95.2c0.1-0.1,0.2-0.1,0.3-0.1c0,0,0,0,0,0c0,0,0,0,0,0
		C101.9,95.2,101.9,95.2,101.7,95.2L101.7,95.2C101.7,95.2,101.7,95.2,101.7,95.2C101.7,95.2,101.7,95.2,101.7,95.2"/>
	<path d="M87.6,89.1C87.6,89.1,87.6,89.1,87.6,89.1c0-0.1,0-0.1,0-0.1C87.6,89,87.6,89,87.6,89.1C87.7,89.1,87.7,89.1,87.6,89.1
		C87.7,89.1,87.7,89.1,87.6,89.1C87.6,89.2,87.6,89.2,87.6,89.1C87.6,89.2,87.6,89.1,87.6,89.1"/>
	<path d="M94.7,187.1L94.7,187.1c0,0-0.1-0.1,0-0.1c0,0,0.1-0.1,0.1,0c0,0,0,0,0,0c0,0,0,0,0,0c0,0,0.1,0,0.1,0.1c0,0,0,0.1-0.1,0.1
		c0,0,0,0,0,0C94.8,187.2,94.8,187.1,94.7,187.1"/>
	<path d="M104,187.5C104,187.5,104,187.5,104,187.5C104,187.4,104,187.4,104,187.5c0.1-0.1,0.1-0.1,0.2-0.1c0,0,0,0,0,0c0,0,0,0,0,0
		C104.2,187.5,104.1,187.5,104,187.5"/>
	<path d="M103.6,186.6C103.6,186.6,103.6,186.6,103.6,186.6c-0.1,0-0.1,0-0.1,0v0c0,0-0.1,0-0.1-0.1c0,0,0-0.1,0.1-0.1
		c0,0,0,0,0.1,0c0,0,0.1,0,0.1,0C103.7,186.4,103.7,186.5,103.6,186.6C103.7,186.5,103.7,186.6,103.6,186.6
		C103.6,186.6,103.6,186.6,103.6,186.6"/>
	<path d="M88.3,157.6C88.3,157.6,88.3,157.5,88.3,157.6c0-0.1,0-0.2,0-0.2c0,0,0,0,0,0c0,0,0,0,0,0
		C88.4,157.4,88.4,157.5,88.3,157.6C88.4,157.5,88.4,157.5,88.3,157.6C88.4,157.6,88.4,157.6,88.3,157.6
		C88.4,157.6,88.4,157.6,88.3,157.6C88.4,157.6,88.3,157.6,88.3,157.6"/>
	<path d="M88.7,132.3C88.6,132.3,88.6,132.2,88.7,132.3c0-0.1,0-0.2,0-0.3c0,0,0,0,0.1,0c0,0,0,0,0,0.1
		C88.8,132,88.8,132.1,88.7,132.3C88.7,132.2,88.7,132.3,88.7,132.3C88.7,132.3,88.7,132.3,88.7,132.3"/>
	<path d="M82.6,191.3C82.6,191.2,82.6,191.2,82.6,191.3c0.1-0.1,0.2-0.1,0.2-0.1h0c0,0,0.1,0,0.1,0.1c0,0,0,0.1-0.1,0.1
		c0,0-0.1,0-0.1,0C82.7,191.4,82.7,191.4,82.6,191.3L82.6,191.3C82.6,191.4,82.6,191.3,82.6,191.3"/>
	<path d="M69.4,151.3L69.4,151.3C69.4,151.3,69.4,151.2,69.4,151.3c-0.1-0.1,0-0.2,0-0.1c0,0,0,0,0,0c0,0,0.1,0,0.1,0
		c0,0,0.1,0,0.1,0.1c0,0,0,0.1-0.1,0.1C69.6,151.3,69.5,151.3,69.4,151.3C69.5,151.3,69.5,151.3,69.4,151.3"/>
	<path d="M42.8,196.6C42.8,196.6,42.8,196.6,42.8,196.6C42.8,196.6,42.8,196.6,42.8,196.6C42.8,196.5,42.8,196.5,42.8,196.6
		c0.1-0.1,0.1-0.1,0.1,0c0,0,0,0,0,0c0,0,0,0,0,0C42.9,196.6,42.9,196.7,42.8,196.6C42.9,196.7,42.9,196.7,42.8,196.6
		C42.8,196.7,42.8,196.6,42.8,196.6"/>
	<path d="M42.6,196.6C42.6,196.6,42.6,196.6,42.6,196.6C42.6,196.6,42.6,196.5,42.6,196.6c0.1-0.1,0.1-0.1,0.1,0c0,0,0,0,0,0
		C42.7,196.7,42.7,196.7,42.6,196.6C42.6,196.7,42.6,196.7,42.6,196.6"/>
	<path class="st0" d="M117.9,62.8c-1-0.7-3-0.1-4.1,0.2c-7.2,2.2-14.2,5.2-19.4,9.1c-1.3,1-2.5,2.7-2.7,4.4
		c-0.1,0.4-0.2,1.4-0.2,1.2c-0.3-0.8-0.6-1.2-0.9-1.7c-0.4-0.6-0.7-1.2-1.1-1.6c-0.9-1.1-1.9-1.8-2.7-2.8c-0.8-0.9-1-2-1.6-3.2
		c-0.5-1.1-1.2-2.4-1.4-3.9c0-0.3-0.2-1.3,0-1.4c0.3-0.2,0.6,0.2,0.8,0.2c0.5,0.1,1,0,1.4-0.2c0.4-0.1,0.8-0.4,1.1-0.5
		c0.3,0,0.3,0.2,0.7,0.2c1.7,0,2.5-1.8,2.5-3.2c0-0.5-0.2-1-0.2-1.5c0-0.1,0.1-0.3,0.1-0.4c-0.1-0.5-0.8-0.7-1.3-1.1
		c-1-0.6-1.9-2.3-2.8-3.2c-0.3-0.3-1.1-0.7-0.6-1.2c0.2-0.2,1-0.2,0.8-0.5c-0.1-0.2-0.6,0-0.7-0.1c-0.1-0.1,0-0.3,0-0.5
		c-0.1-0.4-0.8-1.3-1.4-1.5c-0.3-0.1-0.6,0.1-0.9,0c-0.1,0-0.7-0.7-0.8-0.8c0-0.1,0-2.1,0-2.3c0.3-1.7,1.3-3.8,1.1-6
		c-0.1-1.1-0.9-2.9-1.7-3.2c-0.1-0.1-0.6-0.1-0.7-0.1c0,0,0,0.1,0,0c-0.3,0.7-0.6,1.2-0.9,1.9c-1.1,2.8-1.6,5.5-3.8,7.3
		c-0.2,0.2-0.9,0.7-1.1,0.6c0,0-0.1-0.4-0.2-0.5c-0.3-1.2-0.3-2.3-0.7-3.5c-0.6-1.8-2.3-3.1-3.3-4.4c-0.2-0.2-0.2-0.5-0.5-0.6
		c-0.6-0.3-1.3,0.4-1.4,0.7c-0.6,1.3-1,3.8-0.9,5.6c0.1,1.7,0.5,3,1.1,4c0.2,0.3,0.9,1.2,1,1.6c0,0.2-0.2,0.4-0.2,0.5
		c-0.4,1.8-0.1,4,0.2,6.1c0.2,1.1,0.3,2.2,0.6,3.2c0.3,1,0.7,2,0.7,3c0,0.5,0,1,0,1.5c0.1,1.7,0.5,3.1,0.6,4.7
		c0.1,1.4-0.2,3-0.4,4.5c-0.3,2.9-1.2,5.6-1.2,8.8c0,2.3,0.2,4.6,0.3,6.7c0.1,1,0.3,2.1,0.2,3c-0.2,1.5-0.8,3.3-1.4,4.9
		c-1.2,3.3-2,6.4-3,9.5c-0.5,1.6-1.2,3.1-1.8,4.6c-1.1,2.8-1.9,6.4-3,9.3c-1.2,3.1-2.3,5.9-2.8,9.1c-0.2,1-0.4,2-0.5,2.9
		c-0.1,1.4-0.3,2.5-0.4,3.8c-0.2,2.4,0,4.9,0.2,7.8c0.1,1.4,0.5,2.8,0.6,4.2c0.4,4.2,0.6,8.6,0.5,11.9c0,1.2-0.2,2.4-0.1,3.7
		c0,0.2,0,0.8,0,1.1c0,0.3,0,0.5,0,0.7c0,0.5,0.1,1.1,0,1.6c-0.2,2.8,0.2,5.6-0.2,8.4c-0.2,1.3-0.3,2.6-0.5,4
		c-0.4,2.2-0.8,4.5-1.9,6.5c-2.6,4.5-9,5.7-14.8,6.8c-0.9,0.2-1.8,0.2-2.8,0.2c-3,0.2-5.9,0.3-9,0.5c-2.4,0.1-4.9,0.7-7.4,1.2
		c-0.7,0.1-2.2,0.3-2.2,0.8c0,0.6,1.6,1.5,2.3,1.6c1,0.3,2.1,0.2,3.3,0.2c3.5,0,7,0.2,10,0.3c6.4,0.1,13.8-0.1,19.2-1.7
		c0.6-0.2,1.3-0.7,1.7-0.7c0.4-0.1,1.1,0,1.7,0c3.7-0.3,7-0.4,10.7-0.4c0.4,0,0.8,0,1.1,0c0.5,0,0.7,0.5,1.1,0.7
		c0.2,0.1,0.8,0.2,1.4,0.3c2.2,0.3,4.1,0.1,6.3,0c3.6-0.2,7,0.3,10.7,0.6c3,0.2,5.4,0.3,8.5,0.5c0.8,0.1,1.6,0.3,2.3,0.4
		c0.9,0.1,1.5-0.1,2.1-0.2c0.8-0.1,1.6,0.1,2.2-0.1c0.2-0.1,0.4-0.2,0.6-0.3c0.4,0,1.1,0,1.6,0.2c0.2,0,0.6,0.4,0.7,0.3
		c0.4-0.2-0.5-1.1-0.7-1.2c-0.1-0.1-0.7-0.2-0.4-0.3c0.2,0,0.6-0.3,0.8-0.3c0.6-0.2,2,0.3,2.1,0.2c0.1-0.1-0.7-0.8-0.8-0.9
		c-0.5-0.3-1.5-0.3-1.8-0.5c-0.6-0.3,0.1-0.3,0.4-0.3c0.4,0,1.4,0.2,1.5,0c0.1-0.2-1.2-0.8-1.4-0.8c-0.3-0.1-0.3,0-0.4,0
		c-0.1-0.1-0.2-0.3-0.4-0.4c-0.8-0.3-1.9-1.1-2.9-1.2c-1.2-0.2-2.4,0.1-3.6-0.2c-1-0.2-1.6-0.5-2.6-0.6c-1.4-0.1-2.7,0.2-4,0.3
		c-0.5,0-1.1-0.1-1.6-0.2c-1.3-0.1-2.7-0.2-4-0.4c-1.7-0.2-3.4-0.2-4.7-0.6c0,0-1.7-0.6-1.7-0.7c0-0.2,0.7-0.2,0.9-0.2
		c0.6,0,0.7,0.1,1.2,0.1c1.4,0,2.7-0.3,4.1-0.2c1.3,0,2.7,0,4,0.1c3,0.1,7,0.7,10.2,0.8c0.8,0,1.4,0.2,2,0.1c0.3,0,0.6-0.2,0.9-0.3
		c1.3-0.2,3.2,0.7,4.4,0.4c0.6-0.1,1.1-0.5,1.5-0.6c0.3-0.1,1.4,0.3,1.6,0.2c0.2-0.2-0.7-0.7-0.9-0.8c-0.8-0.4,0.1-0.1,0.7-0.2
		c0.2,0,0.3-0.1,0.6-0.2c0.6-0.1,2.1,0.3,2.2,0.1c0,0,0.1,0-0.1-0.2c-0.4-0.3-1.1-0.8-1.5-0.9c-0.2,0-0.4,0-0.5,0
		c-0.1,0-0.2-0.5-0.2-0.5c0.1-0.1,0.6,0.3,0.7,0.1c0.1-0.2-0.4-0.4-0.6-0.6c-0.7-0.4-1.1-0.6-1.8-0.9c-0.7-0.3-1.9-0.7-2.5-0.8
		c-0.9-0.1-1.8,0.2-2.3,0.2c-0.6,0.1-1.5-0.1-2.2-0.2c-1.5-0.3-3.3-0.5-4.6-0.5c-4-0.2-8.4-1-11.7-2.5c-1.6-0.8-1.7-3.3-1.4-5.1
		c0.4-2.5,0.7-5.6,0.9-8.2c0.1-1,0.1-2,0.3-2.8c0.2-0.6,0.3-1.7,0.4-2.6c0.1-0.9,0.3-1.6,0.4-2.4c0.5-3.3,0.5-6.9,1.5-9.8
		c0.5-1.4,1.3-2.7,1.9-4.1c0.1-0.3,0.2-0.5,0.3-0.7c0.1-0.2,0.2-0.5,0.2-0.7c0.3-0.9,0.6-1.7,0.8-2.6c0.2-0.8,0.4-1.7,0.4-2.5
		c0.3-3.7,0.4-8.1-0.5-11.6c-0.5-1.9-1.1-4.1-1.9-5.8c-0.2-0.4-0.7-0.7-0.7-1.1c-0.1-0.4,0.1-1.2,0.2-1.8c0.6-5.7,0.1-11.1,1-16.7
		c0-0.3,0.2-2.6,0.4-2.7c0,0,0.7-0.1,0.7-0.1c1.1-0.1,2.5,0.1,3.7-0.1c1.7-0.2,3.8,0,5.1,0.7c0.8,0.4,1.2,1.3,2.1,1.7
		c0.7,0.3,0.7,0.4,1.1,0.9c0.9,1.1,2.9,1.3,3.5-0.2c0.4-0.9-0.1-1.6-0.2-2.4c0-0.2,0.1-0.3,0.1-0.5c-0.1-0.8-1.5-1.2-1.9-1.8
		c0.1,0.1-0.2-0.6-0.2-0.6c0,0,0.6,0,0.6,0c0.8,0,1.1,0.6,1.2,1.2c0.1,0.2,0,0.7,0.3,0.7c0.1,0,0.4-0.5,0.4-0.6
		c0.2-0.6-0.1-1.3-0.1-1.7c0-0.2,0.2-0.2,0.2-0.6c0-0.6-0.3-1-0.5-1.2c-0.3-0.3-0.9-0.2-1.1-0.5c-0.2-0.4-0.1-0.7-0.4-0.9
		c-0.3-0.3-0.9-0.5-1.2-0.5c-0.1,0-0.6,0.1-0.7,0c0,0-0.1-0.3-0.1-0.4c-0.2-0.3-0.7-0.5-1.1-0.5c-0.1,0-0.4,0.1-0.5,0
		c-0.2-0.1-0.6-0.9-0.8-1.2c-0.3-0.6-0.4-0.9-0.7-1.4c-0.1-0.2-0.4-0.4-0.3-0.6c0-0.1,0.8-0.5,0.9-0.6c0.3-0.2,0.7-0.4,1-0.5
		c0.3-0.1,2.6-1.1,2.6-1.5c0-0.5-1.6,0.2-1.8,0.3c-0.9,0.4-1.4,0.5-2.1,1c-0.1,0.1-0.8,0.6-1.1,0.5c-0.1-0.1-0.3-0.6-0.3-0.7
		c-0.1-0.3-0.2-0.5-0.3-0.8c-0.1-0.2-0.6-1.4-0.5-1.6c0,0,0.7-0.2,0.7-0.2c1-0.3,2.2-0.8,2.8-1.2c0.2-0.1,0.8-1,0.9-1
		c0.2,0,0.4,0.6,0.4,0.6c0.8,0.9,1.9,0,2.4-0.5c0.1-0.1,0.7-0.9,0.9-0.9c0.1,0,0.4,0.5,0.6,0.6c0.2,0.1,0.4,0,0.5,0.1
		c0.2,0.2-0.3,0.8-0.2,1c0.2,0.3,1.3-0.8,1.4-1.1c0-0.1,0-0.5,0.2-0.5c-0.1,0,0.8,0.7,0.7,0.7c0.1,0.3-0.4,0.8-0.2,0.9
		c0.2,0.1,0.8-0.3,0.9-0.5c0.2-0.1,0.7-0.9,0.8-0.8c0.2,0.1-0.1,0.8-0.2,0.9c-0.1,0.3-0.5,0.6-0.4,0.7c0.3,0.4,1.6-0.6,1.8-0.7
		c1.1-0.6,2.4-1.3,2.4-2.6c0-0.4-0.2-1-0.6-1.1c-0.2-0.1-1,0-0.9,0.1c-0.1-0.1,0.1-0.7,0-0.8c-0.1-0.7-0.6-1.3-1.4-1.2
		c-0.3,0-0.4,0.3-0.5,0.3c-0.2,0-0.4-0.9-0.6-1.1c-0.7-0.7-1.7-0.5-2.3,0.1c-0.1,0.1-0.4,0.7-0.5,0.7c0,0-0.3-0.3-0.4-0.3
		c-0.9-0.6-1.8,0.1-2.1,1c-0.1,0.3,0,0.8-0.1,1.1c-0.1,0.2-0.6,0.3-0.8,0.4c-0.2,0.2-0.3,0.5-0.5,0.7c-0.3,0.3-0.7,0.4-0.9,0.6
		c-0.3,0.3-0.4,0.5-0.7,0.7c-0.4,0.3-0.6,0.8-0.9,1.1c-0.4,0.3-1,0.6-1.7,0.9c-0.2,0.1-1.6,0.8-1.9,0.7c-0.1-0.1-0.2-0.6-0.3-0.9
		c-0.3-0.9-0.6-1.8-0.8-2.6c-0.6-2.6,0.8-4.9,2.2-5.9c3.4-2.7,7.4-5.3,11.5-7.4c1.4-0.7,2.9-1.3,4.1-2.2
		C117.4,65.8,119.4,63.9,117.9,62.8 M113.5,79.5c0.1-0.2,0.2-0.2,0.3-0.2c0.1,0,0.2-0.1,0.3,0c0.3,0.1,0.7,1.4,0.2,1
		C114,80,113.3,80,113.5,79.5z M110.8,78.5c0.1-0.2,0.6-0.4,0.9-0.4c0.4,0,0.8,0.4,1,0.9c0.1,0.4,0.4,1.5,0,0.7
		c-0.3-0.5-0.7-1-1.5-0.8c0,0-0.6,0.4-0.7,0.3C110.4,79.2,110.6,78.7,110.8,78.5z M108.4,78.8c0.1-0.1,0.2-0.2,0.3-0.2
		c0,0,0.3,0,0.4,0.1c0.1,0.1,0.9,1,0.8,1.1c0,0-0.5-0.2-0.4-0.2c-0.3-0.1-0.7,0-0.9,0c0,0-0.6,0.6-0.7,0.5
		C107.8,80,108.3,78.9,108.4,78.8z M94.1,92.6c0.3-1.2,0.7-2.7,0.6-4.5c0,0-0.1-0.3-0.1-0.3c0.1-0.1,0.2,0.4,0.2,0.3
		c0.2,0.5,0.6,0.9,1,1.6c0.2,0.3,0.9,1.3,0.9,1.6c0,0.4-1.1,0.9-1.3,1.1c-0.3,0.2-0.8,0.6-1.2,0.9C93.8,93.6,94,92.9,94.1,92.6z
		 M94.2,94.2c1-0.6,2-1.1,2.8-1.8c0,0,0-0.1,0.1-0.1c0.3,0,1.4,1.9,1.7,2.4c0.1,0.2-0.2,0.2-0.7,0.2c-1.3,0-3.2,0.1-4.5-0.2
		C93.3,94.6,94,94.3,94.2,94.2z M89.3,59.4c0,0,0.1,0.1,0.2,0.2c0.1,0.9-0.7,2.4-1.4,2.7c-0.8,0.3-0.2-0.2,0-0.4
		c0.5-0.5,1-1.1,1.2-2C89.2,59.8,89.2,59.5,89.3,59.4z M82.9,50.5c0.7-0.3,2,1,1.1,1.2l0,0.1l-0.1,0c-0.1,0.4,0.4,0.5,0.4,0.9
		c0,0.2-0.2,0.3-0.2,0.5c0,0.3,0.7,0.6,1,0.9c0.7,0.6,1.1,1.2,1.6,1.9c0.1,0.1,0.6,0.9,0.2,0.5c-0.4-0.4-0.9-0.8-1.2-1.1
		c-0.6-0.6-1.1-1.3-1.6-2c-0.3-0.5-0.8-0.8-0.9-1.1C82.7,51.7,82.6,50.6,82.9,50.5z M82.7,53.3c0.6,0.3,1.1,1,1.8,1.7
		c0.6,0.6,1.3,1,1.7,1.4c0.2,0.2,0,0.2,0.3,0.3c0.1,0,0.2,0.3,0.4,0.4c0.5,0.3,1.2,0.4,1.3,0.5c0.1,0.1,0.3,0.8,0.1,0.9
		c0,0-1.1-0.5-1.1-0.5c-0.1,0-0.2,0-0.2,0c-0.4,0-0.6-0.6-0.9-0.7c-0.2,0-0.7,0-0.9,0.2c-0.5,0.4,0.1,1.2,0.4,1.4
		c0.8,0.5,1.5,0,1.7,1.1c0,0.2,0.2,0.8,0.4,1c0.2,0.2-1.2,1.1-1.5,1.3c-0.5,0.2-1.5,0.2-2.1,0.1c-0.5-0.1-1.1-0.9-1.8-0.5
		c-0.3,0.1-0.2,0.6-0.4,0.7c-0.4,0.2-1.6-0.1-1.9-0.2c-1.1-0.1-2.2,0-3.2-0.3c-1-0.3-2.1-1.1-2.6-1.7c-0.4-0.6-0.8-1.4-0.9-1.9
		c-0.1-0.5-0.3-1.6-0.4-2.1c0-0.1,0.6,0.8,0.7,1.1c0.2,0.5,0.4,0.9,0.7,1.2c0.8,0.9,1.7,1.7,2.6,2.4c1,0.8,3.5,0.8,4.9,0.6
		c0.4-0.1,0.6,0,0.3-0.4c-0.3-0.3-1.3-0.8-1.6-1.2c-0.1-0.1,0.6-0.1,1.1,0c0.9,0.2,1.8,1.4,2.6,1.7c0.1,0.1,1.4,0.2,1.4-0.1
		c0-0.2-0.5-0.2-0.7-0.3c-0.2-0.1-0.7-0.5-0.8-0.6c-0.2-0.2-1-1.2-0.4-0.9c0.6,0.2,0.4-0.2,0.9-0.2c0.2,0,0.9,0.5,0.9,0.1
		c0-0.2-0.4-0.2-0.5-0.2c-0.2-0.1-0.9-0.7-1.1-1.1c-0.1-0.2-0.4-0.9-0.2-1.1c0.1-0.2,0.6,0,0.8-0.3c0.2-0.2,0.1-0.8,0-1.1
		c-0.3-1.4-2.7-2.1-3.3-3.1c0,0-0.4-0.7-0.3-0.8c0,0,0,0,0,0C81.8,52.1,82.2,53,82.7,53.3z M76,52.4c-0.1-0.1,0.3-0.4,0.5-0.5
		c0.4-0.1,0.8-0.2,1.1-0.3c0.3-0.1,0.8,0,1,0.2c0.3,0.5-0.6,0.1-0.7,0.1C77.7,52,76.2,52.6,76,52.4z M77.4,53c0,0.1-0.2,0.3-0.4,0.3
		c-0.2,0-0.4-0.1-0.4-0.3c0-0.1,0.2-0.3,0.4-0.3C77.2,52.8,77.4,52.9,77.4,53z M76,52.9c0,0,0.2-0.1,0.2,0c0.1,0.2,0.1,0.8,0.6,0.9
		c0.7,0.1,1.4-0.4,1.1-1.2c-0.1-0.1-0.1-0.1,0.2-0.1c0.7-0.1,0.6,1.1,0.3,1.4c-0.4,0.5-1.4,0.5-1.9,0C76.2,53.7,75.6,52.8,76,52.9z
		 M79,45.6c0.1-0.4,0.1-1.1,0.2-1.5c0.2-0.5,0.5-1.1,0.7-1.7c0.2-0.6,0.3-1.3,0.5-1.8c0.4-0.8,0.8-1.5,0.9-2.2c0,0,0-0.1,0-0.1
		c0.1-0.1,0.5,0.5,0.5,0.7c0.1,0.4,0.1,0.8,0.2,1.1c0.1,0.9-0.3,2.2-0.8,3.1c-0.5,0.9-0.7,1.4-0.9,2.3c-0.2,0.6-0.8,1.7-1.4,1.1
		C78.4,46.2,78.9,45.9,79,45.6z M76.3,47.8c0.5-0.1,1.3-0.3,2.2-0.2c0.9,0,1.9,0.5,2.5,1.2c0.1,0.1,0.5,0.7,0.5,0.7
		c0,0.1-0.7-0.3-0.6-0.3c-1.3-0.6-3-1.1-4.9-1.1c0,0-0.7,0.2-0.7,0C75.4,47.8,76.2,47.8,76.3,47.8z M76,51c0.4-0.3,0.5-0.4,0.9-0.5
		c0.2,0,0.8-0.1,1.2,0c-0.1,0,0.7,0.4,0.9,0.5c0.5,0.5-0.4,0.1-0.7,0c-0.8-0.1-1.5,0.2-2,0.5c-0.1,0-0.6,0.2-0.7,0.2
		c0.2,0-0.3-0.3-0.3-0.2C75.2,51.4,75.8,51.1,76,51z M77.8,57.5c-0.8,0-1.8-0.1-2.6-0.5c-0.5-0.2-1.1-0.7-1.3-0.9
		c-0.2-0.2-0.3-1.1-0.4-1.4c0-0.1-0.1-0.2-0.1-0.2c0-0.1,0-0.1,0,0c0,0,0.1,0.1,0.1,0.2c0.2,0.3,0.6,0.4,0.9,0.7
		C75.2,56.2,76.3,57.3,77.8,57.5z M69.1,45.7c-0.6-2.6,0.1-5,0.9-6.7c0.2-0.3,0.2,0,0.3,0.1c0.1,0.2,0.3,0.4,0.5,0.6
		c0.7,0.8,1.7,1.6,2.2,2.5c0.7,1.1,0.8,2.8,1,4c0,0.3,0.3,1.1,0.2,1.3c-0.1,0.2-0.3,0-0.4,0c-0.4,0.3-0.3,1.3-0.4,2
		c-0.4-0.4-0.4-1.6-0.4-2.1c0-1.6,0.4-3.6-0.4-5.1c-0.2-0.4-0.9-1.2-1.1-1.4c-0.1-0.1-0.8-0.7-0.9-0.6c-0.2,0.1,0.2,0.8,0.3,1
		c0.3,0.6,0.4,1.1,0.5,1.5c0.1,0.3,0.3,0.6,0.3,0.9c0,0.5-0.2,2.5-0.4,2.6c-0.1,0-0.2-0.3-0.3-0.4c-0.4-0.7-0.7-1.5-1.1-1.9l0,0.1
		l-0.1,0c0.2,2,0.4,4,1.5,5.1c0.2,0.2,0.7,0.5,0.7,0.6c0,0.2-0.6,0.6-0.7,0.5c0,0-0.3-0.4-0.3-0.5C70.2,48.5,69.4,47,69.1,45.7z
		 M71.2,55.2c0,0,0.1-0.5,0.1-0.4c0-0.2-0.4-0.6-0.2-0.9c0,0,0.5,0.6,0.6,0.9C71.7,55.3,71.3,56,71.2,55.2z M71.8,53.9
		C71.7,54.2,71,52.6,71,52c0-0.7,0.7,0,0.8-0.7c0.1-0.3-0.2-0.3,0.1-0.5c0.2-0.1,0.4-0.6,0.7-0.5c0.2,0,0.5,0.7,0.3,1.1
		C72.6,52,71.9,53.3,71.8,53.9z M65.7,147c0.3-0.1,1.1,0,1.4,0.2c0,0,0.1,0.3,0.1,0.3c0.1,0.1,0.3,0,0.4,0.1
		c0.2,0.2,0.3,0.5,0.5,0.7c0.5,0.4,1.4,0.3,1.8,0.8c0,0.1,0.3,0.4,0.2,0.6c0,0.1-1.5,0.4-1.6,0.3c-0.1,0-0.9-0.8-1.2-1
		c-0.6-0.5-1.1-1.1-1.7-1.7C65.6,147.2,65.4,147.1,65.7,147z M75.3,170.1c-0.3-0.1-0.3-1.4-0.2-1.9c0.1-2.4,0.5-4.9,0.2-7.2
		c-0.1-0.5-0.1-1.3-0.2-1.6c-0.1-0.2-0.2-0.3-0.3-0.7c-0.2-0.6-1.1-1.9-1.6-2.5c-0.2-0.2,0.5-0.3,0.9-0.4c0.4-0.1,0.6-0.2,0.9-0.2
		c1.3-0.1,2.1,0.9,2.2,2.3c0.1,1.5-0.4,3.5-0.7,5.1c-0.2,0.9-0.2,1.7-0.3,2.6c-0.1,0.9-0.3,1.8-0.3,2.5c-0.1,0.5,0,1.7-0.3,1.9
		C75.7,170,75.3,170.1,75.3,170.1z M74.6,154c-0.2,0.4-1.5,1.2-2,1c-0.2-0.1-0.5-0.8-0.7-1c-0.8-1-1.6-2-2.4-2.7l0-0.1l0-0.1
		c0,0,0.1,0,0.1,0l0.1,0l0,0.1c0.7,0.3,1.3-0.6,2.1-0.3c0.4,0.2,0.5,0.8,0.9,1c0.2,0.1,0.6,0.4,0.9,0.4c0.3,0.1,1-0.1,1.2,0
		C74.9,152.7,74.7,153.7,74.6,154z M65.7,151.6c0-0.6,0.3-1.6,0.2-2.1c0,0,0-0.1,0-0.1c0,0,0.1,0,0.1,0c0.3,0.5,0.2,1.7,0.3,2.5
		c0.1,1,0.4,2.1,0.2,2.8c-0.1,0.3-0.4,0.9-0.6,1.3c-0.3,0.6-0.2-0.7-0.2-1C65.8,154.1,65.7,152.7,65.7,151.6z M41.3,194.7
		c-1.3,0.4-6.7,0.3-8.3,0.5c1-0.1,5.3-0.6,6.5-0.7c1-0.1,1.9-0.3,2.6-0.4C42.8,194,41.6,194.6,41.3,194.7z M43.2,196.6
		C43.3,196.7,43.2,196.5,43.2,196.6z M50.3,192.4c3.7-1.3,6.8-2.9,8.8-6c0,0,0.2-0.2,0.2-0.1c0,0.5,0.1,0.7-1.1,2.4
		c-1.7,2.5-4,3.5-7,4.6c-0.6,0.2-1.5,0.4-2.2,0.5c-2,0.5-3.4,0.4-5.7,0.5C45.3,193.3,47.7,193.3,50.3,192.4z M59.7,192.3
		c-1,0.9-1.9,1.7-3.1,2.3c-3.7,1.7-8,1.7-13,2c3.7-0.7,7.1-1.3,10.2-2.6c0.8-0.4,2-0.9,2.6-1.5c0.1-0.1,0.4-0.3,0.5-0.4
		c0.2-0.2,0.4-0.3,0.6-0.5c1.7-1.5,3.1-3.8,4-6c0.4-0.8,0.6-1.7,0.9-2.6c0.3-1.1,0.5-2.3,0.7-3.4c0.4-2.2,0.9-4,1.3-6.5
		c0.6-4.1,0.5-9.1,1.1-13.1c0.1-0.4,0-1,0.1-1.4c0.1-0.4,0.3-0.8,0.5-1.3c0.2-0.6,0.6-2,0.5-0.6c0,2.8-0.5,5.4-0.7,8.1
		c-0.1,1.1-0.2,2.4-0.3,3.5c-0.1,0.7-0.1,1.4-0.1,2c-0.1,1.6-0.3,3.3-0.5,5.1c0,0,0,0.5,0.1,0.3c0.2-0.3,0.3-0.7,0.3-0.7
		c0.2-0.9,0.3-1.6,0.4-2.6c0.1-1.5,0.2-2.9,0.4-4.1c0.1-0.5,0.1-1.2,0.2-1.7c0-0.2,0.1-0.6,0.1-0.8c0.1-0.8,0.1-1.6,0.3-2.5
		c0.4-2.3,1-4.7,1.5-6.7c0.1-0.4,0.6-1.5,0.8-1.9c0,0,0.1-0.2,0.1-0.1c-0.2,2.1-0.9,4.1-1.1,6.1c-1.1,8.3-1.2,17.8-4,25.1
		C63,188.4,61.6,190.6,59.7,192.3z M70.4,191.8c0,0.1,0.1,0.5,0,0.6c-0.1,0.1-1,0.1-1.2,0.1c-2.3,0.1-4,0.3-6.1,0.5
		c-0.6,0.1-2.1,0.4-2.4,0.3c0,0,0.9-1.1,1.1-1.2c0.3-0.4,0.8-1.2,1.1-1.3c0.3-0.1,1.2-0.1,1.7-0.1c1.7-0.1,3.4-0.3,4.8-0.3
		c0,0,1.5-0.1,1.6,0.1C70.9,190.5,70.4,191.6,70.4,191.8z M71.6,186.5c-0.1,0.5-0.1,1.1-0.3,1.2c-0.2,0.2-0.4-0.1-0.6-0.1
		c-1.3-0.1-3.6,0.2-5,0.3c-0.2,0-0.5,0-0.8,0.1c-0.3,0-0.9,0.3-0.7-0.1c1.8-4.4,3.1-9.7,3.5-14.9c0.2-2.9,0.3-5.8,0.7-8.4
		c0.6-3.2,1.1-6.1,2.7-8.1c0,0,0-0.1,0.1-0.1c0.2-0.1,0.2,0.3,0.6,0.5c0.2,0.1,0.5,0.1,0.6,0.2c0.2,0.3,0.3,1.1,0.5,1.4
		c0.5,0.8,1.1,1,1.2,2.3c0.2,2.3,0,5.2-0.2,7.8c-0.3,3.2-0.4,6.1-0.8,8.9c-0.2,1.7-0.6,3.3-0.9,5.2
		C72.2,183.9,71.8,185.1,71.6,186.5z M84.4,190.9c1.3,0.3,3,0.5,4.6,0.7c4.5,0.5,9.2,0.5,13.5,0.7c0.2,0,1.7,0.1,1,0.2
		c-0.7,0.1-1.1,0.3-1.6,0.4c-0.3,0.1-1.1,0-1.2,0.2c0,0.2,1.7,0.5,1.8,0.5c0.2,0.1-0.1,0.4,0.5,0.3c-0.4,0.1-0.2,0.2-0.4,0.2
		c-0.7,0.1-2,0.1-2.9,0.2c-0.2,0-0.9,0.1-0.8,0.4c0,0.1,0.8,0.2,0.9,0.2c0.8,0.1,1.1,0,2,0.1c0.6,0.1,2,0.4,2.8,0.6
		c0.8,0.2-0.3,0.2-0.7,0.2c-1.1,0.1-2.3-0.1-3.5-0.1c-1.7,0.1-3-0.4-4.6-0.5c-1.2-0.1-2.5,0-3.7-0.1c-1.7-0.2-3.4-0.4-5.1-0.6
		c-1.7-0.2-3.5-0.5-5.1-0.4c-0.3,0-2.5,0-2.6,0.1c-0.1,0.2,1,0.5,1.4,0.4c-1.2,0.3-2.4,0.5-3.6,0.5c-0.8,0-3.5,0.3-4.1-0.2
		c-0.2-0.1-0.3-0.7-0.5-1.1c-0.2-0.4-0.5-0.7-0.5-1.1c-0.4-1.4,0.2-3,0.5-4.4c0.4-2.3,0.7-5.1,1.1-7.5c0.1-0.4,0.2-1.4,0.2-1.5
		c0,0,0.6,0.1,0.5,0.1c0.9,0.3,0.7,0.8,0.5,1.9c-0.1,0.5-0.1,0.7-0.2,1.3c-0.2,1.6-0.8,4.6-1.1,6.2c0,0-0.2,0.7-0.2,0.7
		c0.3,0.3,0.5-0.5,0.4-0.4c1.5-5.3,2.4-10.7,3.1-16.3c0.2,1-0.2,2.8-0.3,4.2c-0.1,2.3-0.4,4.8-0.7,6.8c-0.5,3-1.8,5.3-1.8,8.6
		c0,0.6,0.2,1.3,0.4,1.7c0.3,0.5,1.3,0.4,2.2,0.3c0.4,0,1.9,0.2,2-0.2c0.1-0.2-0.7-0.2-0.8-0.3c-0.4-0.1-1.2-0.4-1.4-0.5
		c-1.3-0.9-1.1-3.3-0.7-5.2c0.5-2.3,0.8-5.3,1.1-7.5c0.3-2.3,0.6-4.4,0.8-6.8c0.3-3,0.4-6.1,0.4-8.8c0-1.9,0.2-3.9,0.5-5.6
		c0.4-2,0.8-3.2,1.4-4.9c0.1-0.3,0.1-0.6,0.3-1c0-0.1,0.4-0.8,0.5-0.8c0.1,0-0.2,0.8-0.3,1c-0.9,2.8-1.1,6.2-1.1,9.4
		c0,0.9-0.2,1.7-0.2,2.7c0,4.1-0.2,8.7-0.6,12.3c-0.1,1.5-0.4,3.3-0.6,5.1c0,0.3-0.3,0.8,0.1,0.5c0.4-0.3,0.3-1.7,0.5-2.4
		c0.2-0.5,0.4-0.9,0.5-1.7c0.1-1.1,0.2-2.4,0.2-3.2c0-1.6,0.3-3.2,0.5-4.9c0.1-1.1,0.2-2.2,0.4-3.3c0.1-0.5,0.5-0.7,0.7-1.1
		c0.3-0.7,0.3-2.1,0.4-3.1c0.1-2.3,0.5-4.2,0.8-6.2c0.4-2.1,0.6-3.5,1.1-5.5c0.2-0.7,0.5-1.3,0.8-2c0.1-0.2,0.6-1.1,0.6-1.5
		c0-0.1,0.1-0.5-0.2-0.5c-0.1,0-0.5,0.9-0.7,1.1c-0.5,0.9-0.8,1.4-1.3,2.3c-0.1,0.1-0.7,1.1-0.7,1.1c0,0,0.4-1.4,0.4-1.4
		c0.5-1.5,1.2-2.9,1.7-4.1c0.7-1.5,0.8-3.3,1.2-5c0.3-0.9,0.5-2.2,0.5-3.4c0-1.2,0.3-2.3,0.2-3.4c0-0.2-0.1-0.9-0.3-0.8
		c-0.1,0.1-0.1,1-0.1,1.1c-0.2,2.4-0.7,4.7-1.4,6.8c0,0.2-0.4,1.3-0.4,0.9c0.1-1,0.3-1.7,0.4-2.7c0.1-2.2,0.5-3.9,0.4-6
		c0-0.8,0-1.7-0.2-2.5c-0.3-1.2-1-2-1.6-3c-0.6-1-0.7-2.3-1-3.6c-0.3-1.2-1-1.9-1.8-2.8c-0.4-0.5-0.7-1.1-1.1-1.5
		c-0.8-0.8-1.9-1.1-2.9-1.4c-0.8-0.2-1.4-0.7-2.5-1.1c-0.5-0.2-1.8-0.4-2.5-0.5c-0.9-0.1,0.1-0.1,0.4-0.2c1.6-0.2,2.8,0.6,4.1,0.7
		c1.1,0.1,1.5,0.2,2.3,0.5c0.7,0.3,1.7,0.4,2.1,0.9c1.8,1.9,2.7,4.5,4.2,6.9c1.5,2.5,2.9,4.8,3.1,8.1c0.1,1.9,0.2,3.2,0.1,4.6
		c0,0.5-0.2,1.1-0.2,1.7c0.1,0.9,0,1.9-0.1,2.8c-0.1,2.4-0.8,5.1-1.5,7.3c-0.5,1.7-1.1,3.1-1.4,4.7c-0.3,1.5-0.6,3.2-0.8,5
		c-0.2,2.6-0.7,5.1-1,7.6c-0.6,5.9-1.7,10.8-2.2,16.4c0,0.3,0,0.6,0,0.7c-0.1,0.3-0.6,0.2-0.8,0.4c-0.1,0.1,0,0.4-0.1,0.5
		c-0.2,0.9-0.7,2.3-0.5,3.2c0.1,0.5,0.6,0.6,1.1,0.7c0.8,0.2,2,0,2.9-0.1l0-0.1l0-0.1c-0.7-0.3-1.7-0.7-2.1-1.3
		c-0.2-0.3-0.8-1.6-0.7-1.8c0.3-0.5,0.8,0.4,0.9,0.6C81.5,189.8,82.8,190.5,84.4,190.9z M91.4,102.2c-0.3,1.7-0.5,3.9-0.7,5.8
		c-0.3,4.5-0.3,8.9-0.7,13.2c-0.4,3.8-0.7,7.2-1.3,10.8l0.1,0l0,0.1c0.8-2.3,1.1-5.3,1.5-7.9c0-0.2,0.1-1.1,0.2-1.2
		c0.1,0,0.3,0.6,0.4,0.7c0.8,1.6,1.2,3.6,1.5,5.5c0.4,2.6,0.6,5.6,0.5,8.5c-0.1,2.1-0.2,4.1-0.7,6c-0.3,1.1-1,2.2-1.2,3.3
		c-0.4,1.7-1.4,3.1-1.8,5c-0.4,1.7-0.6,3.7-0.8,5.5l0.1,0l0,0.1c0,0,0,0,0,0l0,0.1l-0.1,0c-0.8,6.1-1.5,11.7-2.1,17.5
		c-0.1,1.4-0.3,2.9-0.2,4.2c0.1,1.6,0.8,2.4,1.9,3c5.2,2.8,13.2,2.5,19.5,3.9c-1.2,0.1-2.5,0.2-3.8,0.3l0,0.1l-0.1,0.1
		c1.4,0.4,3.3,0,4.6,0.4c-1.4,0-2.8,0.2-4,0.4l0.1,0l-0.1,0c0.4,0.1,1.4,0.6,1.2,0.9c0,0-0.7,0.2-0.9,0.3c-1.6,0.3-3.7-0.1-5.4-0.3
		c-3.3-0.4-7-0.7-10.3-0.4c-1.9,0.2-3.7-0.1-5.3,0.1c-0.3,0-0.6,0-0.8,0c-0.1,0-0.6,0.2-0.9,0.1c-0.3-0.1-0.7-1.5-0.5-1.9
		c0.1-0.1,0.6-0.4,0.6-0.4c0.1,0,0.1,0.6,0.2,0.7c0.2,0.3,0.6,0.6,1,0.6c0.8,0,1.7-0.5,2.6-0.6c3-0.3,6.4,0.7,9.1,0.5v-0.1l0.1-0.1
		c-2.7-0.7-5.6-0.9-8.8-1.1c-0.4,0-2.2,0-2.4-0.3c-0.2-0.4,0.3-1.2,0.3-1.5c0-0.1,0-0.2,0-0.3c0-0.2,0-0.2-0.1-0.4
		c-0.2-0.8-0.2-2.4-0.2-3.5c0.2-5.5,0.4-10.7,0.8-16.3c0.2-2.1,0.4-4,0.5-6.2c0.1-1.3,0.5-2.3,0.9-3.2c0.2-0.5,0.4-1.1,0.5-1.6
		c0.9-3.3,1.5-6.7,1.8-10.6c0.2-3.3,0.2-7.7-0.9-10.5c-0.1-0.2-0.3-0.4-0.4-0.6c-0.7-2.3-1.7-3.8-2.9-5.5c-0.5-0.6-0.7-1.3-1.2-2
		c-0.4-0.7-1.1-1.4-1.7-2.1c-0.5-0.7-1.1-1.6-1.8-2.1c-0.8-0.6-2.1-0.7-3.1-0.8c-1-0.1-2.3-0.7-3.5-0.8c-0.4,0-0.7,0-1.3,0.1
		c-0.3,0-1.5,0.3-1.1,0.1c1.8-0.9,4.1-0.9,6.1-0.2c0.7,0.2,1.5,0.3,2.2,0.4c1.9,0.4,2.7,1.7,3.7,3c0.2,0.2,0.8,1,0.8,1
		c0.3,0,0.5-1.1,0.5-1.5c-0.1-2.2-2.4-3.4-3.1-5.1c-0.4-0.9,0.4-0.7,1.1-0.5c1.1,0.4,3.4,0.8,3.3-0.7c0-0.4-0.3-0.7-0.3-1.1
		c0-0.3,0.3-0.9,0.5-1c0.2-0.1,0.5,0,0.8-0.2c2.5-1.2,1.9-5.7,2.4-8.9c0.1-0.9,0.4-1.8,0.5-2.5c0.1-0.2,1-0.1,1.3-0.1
		c0.2,0,1.2-0.1,1.3,0C91.7,100.4,91.4,101.9,91.4,102.2z M102.9,93.3c0,0-0.6,1.6-1,1.7l0.1,0l0,0.1c0.8-0.1,1.2-0.4,1.9-0.7
		c0.3-0.1,1-0.5,1.2-0.4c0.3,0.2-0.5,0.9-0.7,1.1c-0.4,0.4-0.9,0.5-1.1,0.8l0.1,0l0,0.1c0.9,0.1,2.8-0.8,3.7-0.4
		c0.1,0,0.7,0.7,0.7,0.8c-0.1,0.1-1.5,0.3-1.7,0.4c-1.2,0.3-1.9,0.6-2.8,1l0.1,0l0,0.1c1.4,0.2,3,0.7,3.7,1.8c0.1,0.2,0.6,1,0.2,0.7
		c-0.8-0.5-2.1-1-3-1.2c-0.1,0-1.8-0.3-1.8-0.2c-0.1,0.2,0.3,0.3,0.2,0.2c0.7,0.4,1.3,0.6,1.8,1.1c0.1,0.1,0.7,0.8,0.7,0.9
		c0,0.2-0.6,0.5-0.6,0.5c-0.8,0.1-1.5-1.1-2-1.4c-1.1-0.6-2.9-0.9-4.5-0.9c-2.3,0-5,0.2-7.4,0.1c-2-0.1-3.9-0.3-5.8-0.5
		c-2.1-0.1-4.2-0.5-6.3-0.5c-1,0-1.7,0.2-2.5-0.1c-1.8-0.7-1.6-3.2-1.8-5.3c-0.2-2.5-0.4-4.5-0.7-7c0.4,0.8,0.5,1.6,0.9,2.4
		c0.3,0.7,0.9,1.2,1.2,1.8c0.4,0.8,0.1,1.7,0.1,2.7c0,2,0.2,4,2.1,4.2c0.2,0,0.3-0.1,0.5,0c0.2,0,0.4,0.2,0.6,0.3
		c0.7,0.1,1.5-0.1,2.3,0c0.9,0.1,1.7,0.3,2.6,0.3c0.7,0,1.4,0.2,2.2,0.3c3,0.4,6.4,0.8,9.3,0.9l0-0.1l0.1-0.1
		c-1.1-0.2-2.3-0.6-3.5-1c-0.9-0.3-2-0.2-3-0.5c-0.7-0.2-1.4-0.6-1.9-0.6c-0.2,0-0.4-0.1-0.6-0.2c-1.5-0.4-3.5-0.4-5-0.8
		c-1-0.3-1.7-1.1-2.6-1.5c-0.1,0-0.2,0-0.3-0.1c-0.3-0.2-1.1-1.2-1.3-1.8c-0.2-0.5-0.1-2,0.3-2.5c0.3-0.4,0.9-0.4,1.4-0.6
		c1.1-0.5,2-1.7,2-3.1c0-0.3-0.2-1.2,0-1.4c0.2-0.2,1.1,0.3,1.2,0.5c0.4,0.5,0.3,1.2,0.7,1.6l0.1-0.1l0.1,0c0.1-0.6-0.3-1.4-0.4-1.9
		c-0.1-0.6,0-1.2-0.2-1.8c-0.1-0.3-0.3-0.6-0.5-0.7c-0.2-0.2-0.5-0.3-0.6-0.5c-0.2-0.4,0.1-1,0-1.6c0-0.4-0.2-0.8-0.4-1.1
		c-0.2-0.2-0.6-0.4-0.7-0.7c-0.1-0.2-0.1-0.6-0.1-0.8c-0.1-0.4-0.3-1.2-0.4-1.8c-0.1-0.7,0.3-0.1,0.5,0.1c0.8,0.6,1.2,1.4,1.5,2.6
		c0.2,0.6,0.5,1.2,0.8,1.8c0.1,0.3,0.5,0.8,0.4,0.1c-0.1-0.5-0.1-1-0.2-1.5c0-0.9,0.4-1.9,0.3-3c-0.1-1-0.7-1.4-0.5-2.5
		c0.1-0.5,0.6-0.9,0.5-1.6c-0.1-0.8-0.6-1.5-0.8-2.5c0-0.3,0-0.6,0-0.9c-0.1-1.1-0.3-2.9,0-4.1c0.2-0.7,0.2,0.6,0.2,0.7
		c0.4,2.2,1.4,5.1,2.8,6.5c1.2,1.1,2.4,2,3.3,3.5c2,2.4,3,5.6,4.1,8.6c0.4,1,0.8,3,0.8,4.3c0,1.7-0.6,3.3-1,4.7c0,0.1-0.2,1-0.3,1
		c-0.1,0.1-0.8-0.8-0.8-0.8c-0.1-0.4,0-1.1,0-1.5c0.1-2.1,0-3.6-0.4-5.4c-0.5-2.2-1.5-4.2-2.5-5.9c-0.2-0.3-0.6-1.2-0.8-1.1
		c-0.2,0.1,0.3,0.8,0.3,0.8c1.6,2.8,2.6,6.2,2.5,10.3c0,0.2-0.1,1.2-0.2,1.3c-0.2,0.2-0.9-0.4-1.2-0.6c-0.6-0.5-1.2-1.5-1.8-2.2l0,0
		l0,0c-0.2,0.7,0.3,3.3-0.5,3.5c-0.3,0.1-0.7-0.3-1-0.3c-0.4-0.1-0.8-0.3-1.1-0.3c-0.9-0.2-0.6-0.3-1-1c-0.1-0.2-0.3-0.2-0.4-0.4
		c-0.1-0.1,0-0.3-0.1-0.5c-0.3-0.6-0.9-1-1-1.4c-0.1-0.2,0.1-0.4,0-0.7c-0.1-0.3-0.6-1.2-0.6-1.2c-0.3,0-0.4,1.1-0.5,1.4
		c-0.2,0.9-0.4,1.6-0.4,2.6c0,0.4,0,1.2,0.2,1.4c0.3,0.3,0.9,0.2,1.4,0.3c0.9,0.1,1.8,0.6,2.8,0.9c2,0.6,4.2,1.3,6.3,1.6
		c1.1,0.2,2.2,0.5,3.3,0.5c1.3,0,3.1,0.3,4.2-0.1c0.6-0.2,1.2-0.7,1.8-1.1C101.3,94.2,102.5,93.2,102.9,93.3z M102.2,72.5
		c-0.7,0.4-1.3,1-2,1.5c-0.5,0.4-1.2,1.2-1.5,1.7c-0.7,1.2-1.4,3.2-1.3,4.8c0.2,4.2,2,7.8,3.5,11.2c0.2,0.4,0.7,1.3,0.7,1.4
		c-0.2,0.4-0.6-0.1-0.7-0.2c-0.9-1.2-2.1-3.3-2.8-4.8c-0.9-1.9-1.7-4.3-2.1-6.6c-0.4-2.6,0.2-4.9,1.6-6.6c1-1.2,2.7-2.3,4.2-3.2
		c1.6-1,3-1.8,4.5-2.5c0.3-0.1,0.7-0.4,0.7-0.4c-0.2,0.2-1.3,1.1-1.6,1.4C104.4,71.1,103.3,71.7,102.2,72.5z M108.2,68.8
		c-0.1,0.1-1.2,0.8-1.3,0.8c-0.1,0,0.8-0.7,0.6-0.6c0.5-0.4,0.6-0.6,1.3-0.9c1.1-0.5,1.8-0.8,2.6-1.1
		C110.2,67.7,109.3,68.2,108.2,68.8z M112.2,66.7C112,66.8,112.3,66.5,112.2,66.7z"/>
	<path class="st0" d="M214.3,75.5C214.3,75.5,214.3,75.5,214.3,75.5"/>
	<path d="M233.4,43.9c0-0.1,0-0.2,0-0.3c0,0,0-0.1,0-0.1c0,0-0.1,0-0.1,0c0,0.1,0,0.2,0,0.3C233.2,43.9,233.3,43.9,233.4,43.9
		C233.3,43.9,233.3,43.9,233.4,43.9C233.3,43.9,233.4,43.9,233.4,43.9"/>
	<path d="M219.3,51.8C219.3,51.8,219.3,51.8,219.3,51.8L219.3,51.8c0-0.1,0-0.1,0-0.1C219.2,51.7,219.2,51.7,219.3,51.8
		c-0.1-0.1-0.1,0-0.1,0C219.2,51.8,219.2,51.8,219.3,51.8C219.2,51.8,219.2,51.8,219.3,51.8C219.3,51.8,219.3,51.8,219.3,51.8"/>
	<path d="M220.1,87.2c0,0,0-0.1,0.1-0.1c0,0,0-0.1,0-0.1c0,0-0.1,0-0.1,0c0,0,0,0.1,0,0.1h0c0,0,0,0.1,0,0.1
		C220,87.2,220,87.2,220.1,87.2C220,87.2,220.1,87.2,220.1,87.2"/>
	<path d="M207.4,99.2c0.1,0,0.2-0.1,0.3-0.1c0,0,0.1,0,0.1-0.1c0,0,0-0.1-0.1-0.1c-0.1,0-0.2,0.1-0.3,0.1
		C207.3,99.1,207.3,99.1,207.4,99.2C207.3,99.2,207.3,99.2,207.4,99.2C207.3,99.2,207.4,99.2,207.4,99.2"/>
	<path d="M199.9,97.9C199.9,97.9,199.9,97.9,199.9,97.9c-0.1-0.1-0.1-0.1-0.1-0.1v0c0,0-0.1,0-0.1,0c0,0,0,0.1,0,0.1
		C199.7,98,199.8,98,199.9,97.9C199.8,98,199.8,98,199.9,97.9C199.9,98,199.9,98,199.9,97.9"/>
	<path d="M199.9,96.2C199.9,96.2,200,96.2,199.9,96.2c-0.1-0.1-0.1-0.1-0.2-0.2v0c0,0,0,0,0,0c0,0,0,0,0,0
		C199.8,96.2,199.9,96.2,199.9,96.2C199.9,96.2,199.9,96.2,199.9,96.2C199.9,96.2,199.9,96.2,199.9,96.2"/>
	<path d="M201.4,95.2C201.4,95.2,201.4,95.2,201.4,95.2c-0.1-0.1-0.2-0.1-0.3-0.1c0,0,0,0,0,0c0,0,0,0,0,0
		C201.2,95.2,201.3,95.2,201.4,95.2L201.4,95.2C201.4,95.2,201.4,95.2,201.4,95.2C201.4,95.2,201.4,95.2,201.4,95.2"/>
	<path d="M215.5,89.1C215.5,89.1,215.5,89.1,215.5,89.1c0-0.1,0-0.1,0-0.1C215.5,89,215.5,89,215.5,89.1
		C215.5,89.1,215.5,89.1,215.5,89.1C215.5,89.1,215.5,89.1,215.5,89.1C215.5,89.2,215.5,89.2,215.5,89.1
		C215.5,89.2,215.5,89.1,215.5,89.1"/>
	<path d="M208.4,187.1L208.4,187.1c0,0,0.1-0.1,0-0.1c0,0-0.1-0.1-0.1,0c0,0,0,0,0,0c0,0,0,0,0,0c0,0-0.1,0-0.1,0.1
		c0,0,0,0.1,0.1,0.1c0,0,0,0,0,0C208.3,187.2,208.4,187.1,208.4,187.1"/>
	<path d="M199.1,187.5C199.1,187.5,199.1,187.5,199.1,187.5C199.1,187.4,199.1,187.4,199.1,187.5c-0.1-0.1-0.1-0.1-0.2-0.1
		c0,0,0,0,0,0c0,0,0,0,0,0C198.9,187.5,199,187.5,199.1,187.5"/>
	<path d="M199.5,186.6C199.5,186.6,199.6,186.6,199.5,186.6c0.1,0,0.1,0,0.1,0v0c0,0,0.1,0,0.1-0.1c0,0,0-0.1-0.1-0.1c0,0,0,0-0.1,0
		c0,0-0.1,0-0.1,0C199.4,186.4,199.4,186.5,199.5,186.6C199.4,186.5,199.4,186.6,199.5,186.6C199.5,186.6,199.5,186.6,199.5,186.6"
		/>
	<path d="M214.8,157.6C214.8,157.6,214.8,157.5,214.8,157.6c0-0.1,0-0.2,0-0.2c0,0,0,0,0,0c0,0,0,0,0,0
		C214.8,157.4,214.8,157.5,214.8,157.6C214.8,157.5,214.8,157.5,214.8,157.6C214.7,157.6,214.7,157.6,214.8,157.6
		C214.8,157.6,214.8,157.6,214.8,157.6C214.8,157.6,214.8,157.6,214.8,157.6"/>
	<path d="M214.5,132.3C214.5,132.3,214.5,132.2,214.5,132.3c0-0.1,0-0.2,0-0.3c0,0,0,0-0.1,0c0,0,0,0,0,0.1
		C214.4,132,214.4,132.1,214.5,132.3C214.4,132.2,214.4,132.3,214.5,132.3C214.5,132.3,214.5,132.3,214.5,132.3"/>
	<path d="M220.6,191.3C220.6,191.2,220.5,191.2,220.6,191.3c-0.1-0.1-0.2-0.1-0.2-0.1h0c0,0-0.1,0-0.1,0.1c0,0,0,0.1,0.1,0.1
		c0,0,0.1,0,0.1,0C220.5,191.4,220.5,191.4,220.6,191.3C220.5,191.4,220.5,191.4,220.6,191.3C220.5,191.4,220.6,191.3,220.6,191.3"
		/>
	<path d="M233.7,151.3L233.7,151.3C233.7,151.3,233.8,151.2,233.7,151.3c0.1-0.1,0-0.2,0-0.1c0,0,0,0,0,0c0,0-0.1,0-0.1,0
		c0,0-0.1,0-0.1,0.1c0,0,0,0.1,0.1,0.1C233.5,151.3,233.6,151.3,233.7,151.3C233.7,151.3,233.7,151.3,233.7,151.3"/>
	<path d="M260.3,196.6C260.3,196.6,260.3,196.6,260.3,196.6C260.3,196.6,260.3,196.6,260.3,196.6
		C260.3,196.5,260.3,196.5,260.3,196.6c-0.1-0.1-0.1-0.1-0.1,0c0,0,0,0,0,0c0,0,0,0,0,0C260.2,196.6,260.2,196.7,260.3,196.6
		C260.3,196.7,260.3,196.7,260.3,196.6C260.3,196.7,260.3,196.6,260.3,196.6"/>
	<path d="M260.6,196.6C260.6,196.6,260.6,196.6,260.6,196.6C260.6,196.6,260.5,196.5,260.6,196.6c-0.1-0.1-0.1-0.1-0.1,0
		c0,0,0,0,0,0C260.4,196.7,260.5,196.7,260.6,196.6C260.5,196.7,260.6,196.7,260.6,196.6"/>
	<path class="st0" d="M280.2,194.9c-2.4-0.5-5-1-7.4-1.2c-3.1-0.2-6-0.3-9-0.5c-1.1-0.1-1.9-0.1-2.8-0.2c-5.8-1.1-12.2-2.2-14.8-6.8
		c-1.2-2-1.5-4.3-1.9-6.5c-0.2-1.3-0.4-2.7-0.5-4c-0.3-2.8,0-5.6-0.2-8.4c0-0.5,0.1-1.1,0-1.6c0-0.2,0-0.4,0-0.7c0-0.3,0-0.9,0-1.1
		c0.1-1.3-0.1-2.4-0.1-3.7c0-3.4,0.2-7.7,0.5-11.9c0.1-1.4,0.5-2.8,0.6-4.2c0.2-2.9,0.4-5.3,0.2-7.8c-0.1-1.3-0.3-2.4-0.4-3.8
		c-0.1-0.9-0.3-1.9-0.5-2.9c-0.6-3.3-1.6-6.1-2.8-9.1c-1.1-2.8-1.9-6.5-3-9.3c-0.6-1.5-1.2-3-1.8-4.6c-1-3.1-1.8-6.2-3-9.5
		c-0.6-1.6-1.2-3.4-1.4-4.9c-0.1-0.9,0.1-2,0.2-3c0.1-2.1,0.3-4.4,0.3-6.7c0-3.1-0.9-5.9-1.2-8.8c-0.2-1.5-0.4-3.1-0.4-4.5
		c0.1-1.6,0.5-3,0.6-4.7c0-0.5,0-1,0-1.5c0.1-1,0.5-2,0.7-3c0.3-1.1,0.4-2.2,0.6-3.2c0.4-2.1,0.6-4.3,0.2-6.1c0-0.1-0.2-0.3-0.2-0.5
		c0-0.4,0.8-1.2,1-1.6c0.6-1.1,1-2.3,1.1-4c0.1-1.8-0.3-4.3-0.9-5.6c-0.1-0.3-0.8-1-1.4-0.7c-0.2,0.1-0.3,0.4-0.5,0.6
		c-1,1.3-2.7,2.6-3.3,4.4c-0.4,1.2-0.3,2.3-0.7,3.5c0,0.1-0.1,0.5-0.2,0.5c-0.2,0.1-0.9-0.4-1.1-0.6c-2.2-1.7-2.7-4.5-3.8-7.3
		c-0.3-0.7-0.6-1.2-0.9-1.9c0,0-0.1,0,0,0c-0.1-0.1-0.5,0-0.7,0.1c-0.8,0.4-1.6,2.2-1.7,3.2c-0.2,2.2,0.8,4.3,1.1,6
		c0,0.2,0,2.2,0,2.3c0,0.1-0.6,0.8-0.8,0.8c-0.3,0.1-0.6-0.1-0.9,0c-0.6,0.2-1.2,1.1-1.4,1.5c0,0.1,0,0.4,0,0.5
		c-0.2,0.2-0.6-0.1-0.7,0.1c-0.3,0.4,0.6,0.4,0.8,0.5c0.5,0.5-0.2,0.9-0.6,1.2c-0.9,0.9-1.9,2.6-2.8,3.2c-0.5,0.3-1.2,0.5-1.3,1.1
		c0,0.1,0.1,0.3,0.1,0.4c0,0.5-0.3,1-0.2,1.5c0.1,1.3,0.9,3.1,2.5,3.2c0.3,0,0.4-0.2,0.7-0.2c0.3,0,0.6,0.3,1.1,0.5
		c0.4,0.1,0.9,0.2,1.4,0.2c0.2,0,0.6-0.4,0.8-0.2c0.2,0.1,0,1.1,0,1.4c-0.2,1.5-0.9,2.8-1.4,3.9c-0.6,1.1-0.8,2.3-1.6,3.2
		c-0.8,1-1.9,1.7-2.7,2.8c-0.4,0.5-0.7,1-1.1,1.6c-0.3,0.5-0.6,0.9-0.9,1.7c-0.1,0.2-0.2-0.9-0.2-1.2c-0.3-1.7-1.4-3.4-2.7-4.4
		c-5.3-4-12.2-7-19.4-9.1c-1.1-0.3-3.1-1-4.1-0.2c-1.5,1,0.5,3,1.2,3.5c1.2,0.9,2.8,1.5,4.1,2.2c4.2,2.1,8.1,4.7,11.5,7.4
		c1.3,1,2.8,3.3,2.2,5.9c-0.2,0.8-0.6,1.7-0.8,2.6c-0.1,0.2-0.1,0.8-0.3,0.9c-0.3,0.1-1.7-0.6-1.9-0.7c-0.7-0.3-1.3-0.5-1.7-0.9
		c-0.2-0.2-0.5-0.7-0.9-1.1c-0.3-0.2-0.4-0.4-0.7-0.7c-0.2-0.3-0.6-0.4-0.9-0.6c-0.2-0.2-0.3-0.5-0.5-0.7c-0.2-0.1-0.7-0.2-0.8-0.4
		c-0.2-0.3,0-0.8-0.1-1.1c-0.3-0.9-1.2-1.6-2.1-1c0,0-0.4,0.3-0.4,0.3c-0.1,0-0.4-0.5-0.5-0.7c-0.6-0.6-1.6-0.8-2.3-0.1
		c-0.2,0.2-0.4,1-0.6,1.1c-0.2,0-0.3-0.2-0.5-0.3c-0.8-0.1-1.3,0.5-1.4,1.2c0,0.1,0.1,0.7,0,0.8c0,0-0.7-0.2-0.9-0.1
		c-0.4,0.2-0.6,0.7-0.6,1.1c0,1.4,1.3,2.1,2.4,2.6c0.2,0.1,1.6,1.1,1.8,0.7c0.1-0.1-0.3-0.5-0.4-0.7c0,0-0.4-0.7-0.2-0.9
		c0.2-0.1,0.7,0.7,0.8,0.8c0.2,0.1,0.8,0.6,0.9,0.5c0.2-0.2-0.3-0.7-0.2-0.9c0,0,0.8-0.7,0.7-0.7c0.1,0,0.1,0.5,0.2,0.5
		c0.1,0.2,1.2,1.3,1.4,1.1c0.1-0.2-0.3-0.8-0.2-1c0.1-0.1,0.3,0,0.5-0.1c0.2-0.1,0.5-0.6,0.6-0.6c0.1,0,0.8,0.8,0.9,0.9
		c0.5,0.5,1.6,1.4,2.4,0.5c0,0,0.2-0.6,0.4-0.6c0.1,0,0.7,0.9,0.9,1c0.7,0.4,1.9,0.8,2.8,1.2c0,0,0.7,0.2,0.7,0.2
		c0.1,0.2-0.5,1.4-0.5,1.6c-0.1,0.3-0.2,0.5-0.3,0.8c0,0.1-0.2,0.7-0.3,0.7c-0.2,0.1-0.9-0.5-1-0.5c-0.7-0.5-1.2-0.6-2.1-1
		c-0.2-0.1-1.8-0.9-1.8-0.4c0,0.4,2.4,1.5,2.7,1.6c0.2,0.1,0.6,0.3,1,0.5c0.1,0.1,0.9,0.5,0.9,0.6c0.1,0.2-0.3,0.4-0.3,0.6
		c-0.2,0.4-0.4,0.8-0.7,1.4c-0.2,0.3-0.5,1.1-0.8,1.2c-0.2,0.1-0.4,0-0.5,0c-0.4,0.1-0.9,0.3-1.1,0.5c0,0,0,0.3-0.1,0.4
		c-0.1,0.1-0.7,0-0.7,0c-0.3,0-0.9,0.2-1.2,0.5c-0.3,0.3-0.1,0.6-0.4,0.9c-0.3,0.4-0.8,0.3-1.1,0.5c-0.2,0.1-0.5,0.6-0.5,1.2
		c0,0.4,0.2,0.4,0.2,0.6c0,0.4-0.3,1.1-0.1,1.7c0,0.1,0.3,0.6,0.4,0.6c0.2,0,0.2-0.4,0.3-0.7c0.2-0.7,0.4-1.2,1.2-1.2
		c0,0,0.6,0,0.6,0c0,0-0.2,0.7-0.2,0.6c-0.4,0.6-1.7,1-1.9,1.8c0,0.1,0.1,0.3,0.1,0.5c-0.1,0.8-0.6,1.4-0.2,2.4
		c0.6,1.5,2.6,1.3,3.5,0.2c0.4-0.5,0.4-0.6,1.1-0.9c0.9-0.3,1.3-1.3,2.1-1.7c1.3-0.6,3.4-0.8,5.1-0.7c1.2,0.1,2.6,0,3.7,0.1
		c0.1,0,0.7,0,0.7,0.1c0.1,0.1,0.3,2.4,0.4,2.7c0.9,5.6,0.4,11,1,16.7c0.1,0.5,0.3,1.3,0.2,1.8c-0.1,0.3-0.5,0.7-0.7,1.1
		c-0.8,1.7-1.5,3.9-1.9,5.8c-0.9,3.5-0.8,7.8-0.5,11.6c0.1,0.9,0.2,1.7,0.4,2.5c0.2,0.9,0.5,1.7,0.8,2.6c0.1,0.2,0.2,0.5,0.2,0.7
		c0.1,0.3,0.2,0.5,0.3,0.7c0.5,1.4,1.4,2.7,1.9,4.1c1,2.9,1,6.5,1.5,9.8c0.1,0.8,0.3,1.5,0.4,2.4c0.1,0.9,0.2,2,0.4,2.6
		c0.2,0.8,0.2,1.8,0.3,2.8c0.2,2.6,0.5,5.7,0.9,8.2c0.3,1.9,0.3,4.4-1.4,5.1c-3.3,1.5-7.7,2.3-11.7,2.5c-1.2,0.1-3,0.2-4.6,0.5
		c-0.7,0.1-1.5,0.2-2.2,0.2c-0.5,0-1.4-0.3-2.3-0.2c-0.7,0.1-1.8,0.5-2.5,0.8c-0.7,0.3-1.1,0.5-1.8,0.9c-0.3,0.1-0.7,0.4-0.6,0.6
		c0.1,0.2,0.6-0.2,0.7-0.1c0,0-0.2,0.4-0.2,0.5c-0.1,0.1-0.4,0-0.5,0c-0.4,0.1-1.1,0.6-1.5,0.9c-0.2,0.2-0.1,0.1-0.1,0.2
		c0.1,0.2,1.6-0.2,2.2-0.1c0.3,0,0.4,0.1,0.6,0.2c0.6,0,1.5-0.2,0.7,0.2c-0.2,0.1-1.1,0.6-0.9,0.8c0.2,0.2,1.2-0.2,1.6-0.2
		c0.4,0.1,1,0.5,1.5,0.6c1.2,0.3,3.1-0.7,4.4-0.4c0.3,0.1,0.6,0.2,0.9,0.3c0.7,0.1,1.2,0,2-0.1c3.2-0.2,7.1-0.7,10.2-0.8
		c1.3,0,2.7,0,4-0.1c1.4,0,2.7,0.2,4.1,0.2c0.5,0,0.6-0.1,1.2-0.1c0.2,0,1-0.1,0.9,0.2c0,0.2-1.7,0.7-1.7,0.7
		c-1.3,0.4-3.1,0.4-4.7,0.6c-1.3,0.2-2.7,0.3-4,0.4c-0.5,0-1.1,0.2-1.6,0.2c-1.3,0-2.6-0.4-4-0.3c-1.1,0.1-1.6,0.4-2.6,0.6
		c-1.2,0.2-2.4,0-3.6,0.2c-1,0.1-2.1,0.9-2.9,1.2c-0.2,0.1-0.3,0.3-0.4,0.4c-0.1,0-0.1-0.1-0.4,0c-0.2,0.1-1.4,0.6-1.4,0.8
		c0.1,0.2,1.1-0.1,1.5,0c0.3,0,1,0,0.4,0.3c-0.4,0.2-1.3,0.2-1.8,0.5c-0.2,0.1-0.9,0.8-0.8,0.9c0.1,0.1,1.6-0.4,2.1-0.2
		c0.2,0.1,0.5,0.3,0.8,0.3c0.3,0.1-0.2,0.2-0.4,0.3c-0.2,0.1-1.1,1-0.7,1.2c0.1,0.1,0.6-0.2,0.7-0.3c0.5-0.1,1.2-0.2,1.6-0.2
		c0.2,0,0.4,0.2,0.6,0.3c0.7,0.2,1.4,0,2.2,0.1c0.6,0.1,1.2,0.4,2.1,0.2c0.7-0.1,1.5-0.3,2.3-0.4c3.1-0.2,5.4-0.3,8.5-0.5
		c3.7-0.3,7.1-0.8,10.7-0.6c2.3,0.1,4.2,0.3,6.3,0c0.5-0.1,1.1-0.2,1.4-0.3c0.4-0.2,0.5-0.7,1.1-0.7c0.3,0,0.7,0,1.1,0
		c3.7,0,7,0,10.7,0.4c0.6,0.1,1.3,0,1.7,0c0.4,0.1,1.1,0.6,1.7,0.7c5.4,1.6,12.8,1.8,19.2,1.7c3-0.1,6.4-0.3,10-0.3
		c1.2,0,2.3,0,3.3-0.2c0.7-0.2,2.4-1,2.3-1.6C282.4,195.2,280.9,195.1,280.2,194.9 M188.8,80.3c-0.5,0.4-0.1-0.9,0.2-1
		c0.1,0,0.2,0,0.3,0c0.1,0,0.2,0,0.3,0.2C189.8,80,189.1,80,188.8,80.3z M192.7,79.3c0,0-0.6-0.3-0.7-0.3c-0.8-0.2-1.2,0.3-1.5,0.8
		c-0.4,0.7-0.2-0.3,0-0.7c0.2-0.5,0.5-0.9,1-0.9c0.3,0,0.8,0.3,0.9,0.4C192.5,78.7,192.8,79.2,192.7,79.3z M195.2,80.2
		c-0.1,0-0.6-0.5-0.7-0.5c-0.2-0.1-0.7-0.1-0.9,0c0.1,0-0.3,0.2-0.4,0.2c-0.1-0.1,0.6-1,0.8-1.1c0.1-0.1,0.4-0.1,0.4-0.1
		c0.1,0,0.3,0.2,0.4,0.2C194.8,78.9,195.4,80,195.2,80.2z M233.2,149c0.4-0.5,1.3-0.4,1.8-0.8c0.2-0.2,0.3-0.5,0.5-0.7
		c0.1-0.1,0.3,0,0.4-0.1c0,0,0-0.2,0.1-0.3c0.3-0.2,1-0.3,1.4-0.2c0.3,0.1,0.2,0.2,0.1,0.3c-0.5,0.6-1.1,1.1-1.7,1.7
		c-0.3,0.2-1.1,1-1.2,1c-0.1,0-1.5-0.3-1.6-0.3C232.9,149.4,233.2,149.1,233.2,149z M237.4,151.6c0,1.1,0,2.6,0,3.3
		c0,0.3,0.1,1.6-0.2,1c-0.2-0.4-0.5-1-0.6-1.3c-0.2-0.7,0.1-1.7,0.2-2.8c0.1-0.7,0-2,0.3-2.5c0,0,0,0,0.1,0c0,0,0,0.1,0,0.1
		C237.1,149.9,237.4,150.9,237.4,151.6z M228,168.2c0,0.5,0.1,1.8-0.2,1.9c0,0-0.4-0.1-0.3-0.1c-0.3-0.2-0.2-1.4-0.3-1.9
		c-0.1-0.8-0.3-1.6-0.4-2.5c0-0.9-0.1-1.7-0.3-2.6c-0.3-1.7-0.8-3.6-0.7-5.1c0.1-1.4,0.9-2.4,2.2-2.3c0.3,0,0.5,0.1,0.9,0.2
		c0.4,0.1,1,0.2,0.9,0.4c-0.5,0.6-1.4,1.9-1.6,2.5c-0.1,0.3-0.3,0.5-0.3,0.7c-0.1,0.3-0.2,1.1-0.2,1.6
		C227.5,163.4,227.9,165.8,228,168.2z M228.6,154c-0.2-0.3-0.4-1.4,0-1.6c0.2-0.1,0.9,0,1.2,0c0.3-0.1,0.7-0.3,0.9-0.4
		c0.4-0.3,0.5-0.9,0.9-1c0.7-0.4,1.3,0.6,2.1,0.3l0-0.1l0.1,0c0,0,0.1,0,0.1,0l0,0.1l0,0.1c-0.8,0.8-1.6,1.7-2.4,2.7
		c-0.2,0.2-0.5,1-0.7,1C230,155.2,228.8,154.5,228.6,154z M231.4,53.9c-0.1-0.6-0.8-1.9-1.1-2.5c-0.2-0.5,0.1-1.1,0.3-1.1
		c0.3,0,0.5,0.5,0.7,0.5c0.3,0.1,0,0.2,0.1,0.5c0.1,0.6,0.8,0,0.8,0.7C232.1,52.6,231.4,54.2,231.4,53.9z M231.9,54.8
		c0-0.1,0.1,0.4,0.1,0.4c-0.1,0.8-0.5,0.1-0.4-0.4c0.1-0.3,0.6-0.9,0.6-0.9C232.3,54.2,231.9,54.7,231.9,54.8z M229.2,46.1
		c0.2-1.2,0.3-2.9,1-4c0.6-0.9,1.5-1.6,2.2-2.5c0.1-0.2,0.4-0.4,0.5-0.6c0.1-0.1,0.2-0.4,0.3-0.1c0.8,1.7,1.5,4.1,0.9,6.7
		c-0.3,1.4-1.1,2.8-1.9,3.9c0,0.1-0.3,0.5-0.3,0.5c0,0-0.7-0.3-0.7-0.5c0-0.1,0.6-0.5,0.7-0.6c1.1-1.1,1.4-3.1,1.5-5.1l-0.1,0l0-0.1
		c-0.4,0.4-0.7,1.2-1.1,1.9c-0.1,0.1-0.2,0.5-0.3,0.4c-0.2-0.1-0.4-2-0.3-2.6c0-0.3,0.2-0.6,0.3-0.9c0.1-0.4,0.2-0.9,0.5-1.5
		c0.1-0.2,0.5-0.8,0.3-1c-0.1-0.1-0.8,0.5-0.9,0.6c-0.3,0.3-0.9,1-1.1,1.4c-0.8,1.5-0.5,3.5-0.4,5.1c0,0.6-0.1,1.8-0.4,2.1
		c-0.1-0.7,0.1-1.7-0.4-2c-0.1-0.1-0.3,0.1-0.4,0C228.9,47.2,229.1,46.4,229.2,46.1z M228.8,55.3c0.3-0.2,0.6-0.4,0.9-0.7
		c0.1-0.1,0.1-0.1,0.1-0.2c0-0.1,0-0.1,0,0c0,0-0.1,0.1-0.1,0.2c-0.1,0.3-0.3,1.2-0.4,1.4c-0.2,0.2-0.9,0.7-1.3,0.9
		c-0.7,0.4-1.8,0.5-2.6,0.5C226.8,57.3,227.9,56.2,228.8,55.3z M225.3,52c-0.1,0-1,0.3-0.7-0.1c0.1-0.2,0.7-0.3,1-0.2
		c0.3,0.1,0.7,0.1,1.1,0.3c0.2,0.1,0.6,0.4,0.5,0.5C226.9,52.6,225.4,52,225.3,52z M226.5,53c0,0.1-0.2,0.3-0.4,0.3
		c-0.2,0-0.4-0.1-0.4-0.3c0-0.1,0.2-0.3,0.4-0.3C226.4,52.8,226.5,52.9,226.5,53z M225.1,52.4c0.3,0,0.2,0,0.2,0.1
		c-0.3,0.8,0.4,1.3,1.1,1.2c0.5-0.1,0.5-0.7,0.6-0.9c0,0,0.2,0,0.2,0c0.4-0.1-0.2,0.9-0.3,1c-0.6,0.5-1.5,0.5-1.9,0
		C224.5,53.5,224.4,52.3,225.1,52.4z M227.9,51.6c0-0.1-0.4,0.2-0.3,0.2c-0.1,0-0.6-0.2-0.7-0.2c-0.5-0.2-1.2-0.6-2-0.5
		c-0.3,0-1.2,0.5-0.7,0c0.1-0.1,0.9-0.6,0.9-0.5c0.3-0.1,0.9,0,1.2,0c0.4,0.1,0.5,0.2,0.9,0.5C227.3,51.1,227.9,51.4,227.9,51.6z
		 M226.8,47.8c0.1,0,0.9,0,0.9,0.2c0,0.3-0.6,0-0.7,0c-1.9,0-3.6,0.4-4.9,1.1c0.1,0-0.5,0.4-0.6,0.3c0,0,0.5-0.6,0.5-0.7
		c0.6-0.7,1.6-1.1,2.5-1.2C225.5,47.5,226.3,47.7,226.8,47.8z M221.2,40.1c0-0.3,0-0.7,0.2-1.1c0.1-0.1,0.4-0.7,0.5-0.7
		c0,0,0,0.1,0,0.1c0.1,0.7,0.5,1.4,0.9,2.2c0.2,0.5,0.4,1.2,0.5,1.8c0.2,0.6,0.5,1.2,0.7,1.7c0.1,0.4,0.1,1.1,0.2,1.5
		c0.1,0.3,0.5,0.7,0.2,1c-0.6,0.6-1.3-0.5-1.4-1.1c-0.2-0.9-0.4-1.3-0.9-2.3C221.5,42.3,221.1,41,221.2,40.1z M216.6,55.8
		c0.5-0.6,0.9-1.3,1.6-1.9c0.3-0.2,0.9-0.6,1-0.9c0-0.2-0.2-0.3-0.2-0.5c0-0.4,0.5-0.5,0.4-0.9l-0.1,0l0-0.1
		c-0.9-0.2,0.4-1.5,1.1-1.2c0.2,0.1,0.1,1.2-0.2,1.6c-0.2,0.3-0.6,0.6-0.9,1.1c-0.5,0.7-1,1.4-1.6,2c-0.4,0.3-0.8,0.8-1.2,1.1
		C216,56.7,216.5,55.9,216.6,55.8z M215.1,62.3c-0.7-0.3-1.5-1.8-1.4-2.7c0-0.1,0.1-0.3,0.2-0.2c0.1,0.1,0.1,0.5,0.1,0.5
		c0.2,0.9,0.6,1.5,1.2,2C215.3,62.1,215.8,62.6,215.1,62.3z M219,62.5c-0.6,0.2-1.5,0.2-2.1-0.1c-0.3-0.1-1.7-1.1-1.5-1.3
		c0.2-0.2,0.3-0.8,0.4-1c0.2-1.2,0.9-0.7,1.7-1.1c0.3-0.2,0.8-1,0.4-1.4c-0.2-0.1-0.7-0.2-0.9-0.2c-0.3,0.1-0.4,0.6-0.9,0.7
		c-0.1,0-0.2-0.1-0.2,0c0,0-1,0.5-1.1,0.5c-0.2-0.1,0-0.9,0.1-0.9c0.2-0.2,0.8-0.2,1.3-0.5c0.2-0.1,0.3-0.3,0.4-0.4
		c0.3-0.1,0.1,0,0.3-0.3c0.4-0.4,1.1-0.8,1.7-1.4c0.7-0.7,1.2-1.4,1.8-1.7c0.6-0.3,0.9-1.2,1.8-1.2c0,0,0,0,0,0
		c0.1,0.1-0.3,0.8-0.3,0.8c-0.6,1-3,1.6-3.3,3.1c-0.1,0.3-0.1,0.8,0,1.1c0.2,0.3,0.7,0.1,0.8,0.3c0.2,0.3-0.1,0.9-0.2,1.1
		c-0.2,0.4-0.9,0.9-1.1,1.1c-0.1,0.1-0.5,0-0.5,0.2c0,0.4,0.8-0.1,0.9-0.1c0.4,0.1,0.3,0.5,0.9,0.2c0.6-0.2-0.2,0.7-0.4,0.9
		c-0.1,0.1-0.6,0.5-0.8,0.6c-0.2,0.1-0.7,0-0.7,0.3c0,0.3,1.3,0.1,1.4,0.1c0.8-0.3,1.7-1.5,2.6-1.7c0.5-0.1,1.2-0.1,1.1,0
		c-0.3,0.4-1.3,0.9-1.6,1.2c-0.3,0.4-0.1,0.3,0.3,0.4c1.5,0.2,3.9,0.2,4.9-0.6c1-0.7,1.9-1.4,2.6-2.4c0.3-0.3,0.5-0.7,0.7-1.2
		c0.1-0.3,0.7-1.2,0.7-1.1c-0.1,0.6-0.3,1.7-0.4,2.1c-0.1,0.5-0.5,1.4-0.9,1.9c-0.5,0.6-1.7,1.5-2.6,1.7c-1,0.3-2.1,0.2-3.2,0.3
		c-0.4,0-1.6,0.3-1.9,0.2c-0.3-0.1-0.2-0.6-0.4-0.7C220.1,61.6,219.6,62.4,219,62.5z M208.5,87.7c0,0-0.1,0.3-0.1,0.3
		c-0.1,1.8,0.3,3.3,0.6,4.5c0.1,0.3,0.3,1-0.1,0.7c-0.4-0.3-0.9-0.7-1.2-0.9c-0.2-0.2-1.3-0.7-1.3-1.1c0-0.3,0.7-1.4,0.9-1.6
		c0.3-0.6,0.8-1.1,1-1.6C208.3,88.2,208.4,87.6,208.5,87.7z M209.5,94.7c-1.3,0.3-3.3,0.3-4.5,0.2c-0.5,0-0.8,0-0.7-0.2
		c0.3-0.4,1.4-2.4,1.7-2.4c0.1,0,0,0.1,0.1,0.1c0.8,0.7,1.8,1.2,2.8,1.8C209.2,94.3,209.8,94.6,209.5,94.7z M191,66.7
		C190.8,66.5,191.1,66.8,191,66.7z M194.9,68.8c-1.1-0.6-2-1.1-3.2-1.8c0.8,0.3,1.5,0.7,2.6,1.1c0.7,0.3,0.8,0.5,1.3,0.9
		c-0.2-0.2,0.7,0.6,0.6,0.6C196.1,69.6,195.1,68.9,194.9,68.8z M202.2,91.7c1.5-3.4,3.3-7,3.5-11.2c0.1-1.6-0.6-3.6-1.3-4.8
		c-0.3-0.5-1-1.3-1.5-1.7c-0.7-0.5-1.3-1.1-2-1.5c-1.1-0.7-2.2-1.4-3.2-2.2c-0.4-0.3-1.4-1.1-1.6-1.4c0,0,0.4,0.2,0.7,0.4
		c1.5,0.7,2.9,1.5,4.5,2.5c1.5,0.9,3.3,2.1,4.2,3.2c1.4,1.7,2,4,1.6,6.6c-0.4,2.3-1.2,4.7-2.1,6.6c-0.7,1.5-1.8,3.6-2.8,4.8
		c-0.1,0.1-0.5,0.6-0.7,0.2C201.5,93,202,92.1,202.2,91.7z M205,99.3c-1.6,0-3.4,0.3-4.5,0.9c-0.5,0.3-1.2,1.5-2,1.4
		c0,0-0.6-0.3-0.6-0.5c0-0.1,0.7-0.8,0.7-0.9c0.4-0.4,1.1-0.7,1.8-1.1c-0.1,0.1,0.3,0,0.2-0.2c0,0-1.8,0.2-1.8,0.2
		c-0.9,0.2-2.2,0.7-3,1.2c-0.5,0.3,0.1-0.5,0.2-0.7c0.7-1,2.3-1.5,3.7-1.8l0-0.1l0.1,0c-0.9-0.4-1.6-0.7-2.8-1
		c-0.2-0.1-1.7-0.2-1.7-0.4c0-0.1,0.6-0.8,0.7-0.8c0.9-0.4,2.8,0.5,3.7,0.4l0-0.1l0.1,0c-0.2-0.3-0.6-0.4-1.1-0.8
		c-0.2-0.2-1-0.9-0.7-1.1c0.2-0.1,0.9,0.3,1.2,0.4c0.8,0.3,1.1,0.5,1.9,0.7l0-0.1l0.1,0c-0.3-0.1-1-1.7-1-1.7c0.4-0.1,1.6,0.8,1.9,1
		c0.6,0.4,1.2,0.9,1.8,1.1c1.2,0.3,2.9,0.1,4.2,0.1c1.1,0,2.2-0.3,3.3-0.5c2.2-0.3,4.3-1,6.3-1.6c1-0.3,1.9-0.7,2.8-0.9
		c0.5-0.1,1.1,0,1.4-0.3c0.2-0.2,0.1-1,0.2-1.4c0-1-0.2-1.8-0.4-2.6c-0.1-0.4-0.2-1.5-0.5-1.4c0,0-0.5,1-0.6,1.2
		c-0.1,0.3,0.1,0.5,0,0.7c-0.1,0.4-0.7,0.7-1,1.4c-0.1,0.2,0,0.3-0.1,0.5c-0.1,0.2-0.3,0.2-0.4,0.4c-0.4,0.6-0.1,0.8-1,1
		c-0.2,0-0.7,0.2-1.1,0.3c-0.2,0.1-0.7,0.4-1,0.3c-0.8-0.2-0.4-2.8-0.5-3.5l0,0l0,0c-0.6,0.7-1.2,1.7-1.8,2.2
		c-0.2,0.2-0.9,0.8-1.2,0.6c-0.1-0.1-0.2-1.1-0.2-1.3c-0.1-4.1,0.9-7.5,2.5-10.3c0-0.1,0.5-0.7,0.3-0.8c-0.3-0.1-0.6,0.7-0.8,1.1
		c-1,1.6-2,3.7-2.5,5.9c-0.4,1.7-0.5,3.3-0.4,5.4c0,0.5,0.1,1.1,0,1.5c0,0.1-0.6,0.9-0.8,0.8c0,0-0.2-0.9-0.3-1c-0.4-1.4-1-3-1-4.7
		c0-1.3,0.4-3.3,0.8-4.3c1.2-3,2.2-6.2,4.1-8.6c0.9-1.5,2.1-2.4,3.3-3.5c1.4-1.4,2.5-4.2,2.8-6.5c0-0.1,0.1-1.4,0.2-0.7
		c0.3,1.1,0.1,3,0,4.1c0,0.3,0,0.6,0,0.9c-0.1,1-0.6,1.7-0.8,2.5c-0.1,0.7,0.4,1,0.5,1.6c0.2,1.1-0.4,1.5-0.5,2.5
		c-0.1,1.1,0.3,2.1,0.3,3c0,0.4-0.1,1-0.2,1.5c-0.1,0.6,0.3,0.2,0.4-0.1c0.2-0.6,0.6-1.2,0.8-1.8c0.4-1.2,0.7-1.9,1.5-2.6
		c0.2-0.1,0.6-0.7,0.5-0.1c-0.1,0.5-0.3,1.3-0.4,1.8c0,0.2,0,0.6-0.1,0.8c-0.1,0.3-0.5,0.4-0.7,0.7c-0.2,0.3-0.4,0.7-0.4,1.1
		c-0.1,0.6,0.2,1.2,0,1.6c-0.1,0.3-0.5,0.4-0.6,0.5c-0.2,0.2-0.4,0.5-0.5,0.7c-0.2,0.5,0,1.1-0.2,1.8c-0.1,0.5-0.4,1.3-0.4,1.9
		l0.1,0l0.1,0.1c0.4-0.4,0.3-1.2,0.7-1.6c0.1-0.2,1-0.7,1.2-0.5c0.2,0.2,0,1.1,0,1.4c0,1.4,0.9,2.6,2,3.1c0.4,0.2,1.1,0.2,1.4,0.6
		c0.4,0.5,0.5,2,0.3,2.5c-0.2,0.6-1,1.6-1.3,1.8c-0.1,0.1-0.2,0-0.3,0.1c-0.8,0.4-1.5,1.2-2.6,1.5c-1.5,0.5-3.5,0.4-5,0.8
		c-0.2,0.1-0.4,0.2-0.6,0.2c-0.5,0-1.1,0.4-1.9,0.6c-0.9,0.3-2,0.2-3,0.5c-1.1,0.4-2.3,0.7-3.5,1l0.1,0.1l0,0.1
		c3-0.1,6.3-0.5,9.3-0.9c0.7-0.1,1.5-0.3,2.2-0.3c0.9,0,1.7-0.3,2.6-0.3c0.8-0.1,1.6,0.1,2.3,0c0.2,0,0.4-0.2,0.6-0.3
		c0.2,0,0.3,0.1,0.5,0c1.9-0.3,2.2-2.2,2.1-4.2c0-1-0.3-2,0.1-2.7c0.3-0.6,0.9-1.1,1.2-1.8c0.3-0.8,0.4-1.6,0.9-2.4
		c-0.3,2.5-0.5,4.5-0.7,7c-0.2,2.1,0,4.6-1.8,5.3c-0.7,0.3-1.5,0.1-2.5,0.1c-2,0.1-4.1,0.4-6.3,0.5c-1.9,0.1-3.8,0.4-5.8,0.5
		C210,99.5,207.3,99.3,205,99.3z M220.5,188c-0.2,0-0.5,0-0.8,0c-1.6-0.2-3.3,0.1-5.3-0.1c-3.4-0.3-7.1,0-10.3,0.4
		c-1.7,0.2-3.8,0.7-5.4,0.3c-0.1,0-0.9-0.3-0.9-0.3c-0.2-0.3,0.8-0.8,1.2-0.9l-0.1,0l0.1,0c-1.2-0.3-2.6-0.4-4-0.4
		c1.3-0.5,3.2-0.1,4.6-0.4l-0.1-0.1l0-0.1c-1.3-0.1-2.6-0.2-3.8-0.3c6.3-1.4,14.3-1.1,19.5-3.9c1.1-0.6,1.8-1.4,1.9-3
		c0.1-1.3-0.1-2.8-0.2-4.2c-0.6-5.8-1.3-11.4-2.1-17.5l-0.1,0l0-0.1c0,0,0,0,0,0l0-0.1l0.1,0c-0.2-1.8-0.4-3.8-0.8-5.5
		c-0.4-1.9-1.4-3.3-1.8-5c-0.2-1-0.9-2.1-1.2-3.3c-0.5-1.8-0.6-3.8-0.7-6c-0.1-2.9,0.1-5.9,0.5-8.5c0.3-1.9,0.7-3.9,1.5-5.5
		c0,0,0.3-0.7,0.4-0.7c0.1,0,0.2,0.9,0.2,1.2c0.4,2.6,0.7,5.5,1.5,7.9l0-0.1l0.1,0c-0.6-3.5-0.9-7-1.3-10.8
		c-0.5-4.3-0.5-8.7-0.7-13.2c-0.1-1.9-0.4-4-0.7-5.8c-0.1-0.3-0.3-1.9-0.2-1.9c0.1-0.1,1.1,0,1.3,0c0.3,0,1.3-0.2,1.3,0.1
		c0.2,0.8,0.4,1.6,0.5,2.5c0.5,3.3-0.1,7.7,2.4,8.9c0.3,0.1,0.6,0,0.8,0.2c0.3,0.1,0.5,0.7,0.5,1c0,0.4-0.3,0.8-0.3,1.1
		c-0.1,1.5,2.2,1.2,3.3,0.7c0.7-0.2,1.4-0.4,1.1,0.5c-0.7,1.6-3,2.9-3.1,5.1c0,0.4,0.2,1.5,0.5,1.5c0,0,0.6-0.8,0.8-1
		c1-1.3,1.8-2.5,3.7-3c0.7-0.2,1.5-0.2,2.2-0.4c2-0.7,4.2-0.7,6.1,0.2c0.4,0.2-0.8,0-1.1-0.1c-0.6-0.1-0.9-0.1-1.3-0.1
		c-1.3,0.1-2.5,0.7-3.5,0.8c-1,0.1-2.3,0.2-3.1,0.8c-0.7,0.5-1.2,1.3-1.8,2.1c-0.5,0.7-1.3,1.4-1.7,2.1c-0.4,0.7-0.7,1.3-1.2,2
		c-1.2,1.7-2.2,3.2-2.9,5.5c-0.1,0.3-0.3,0.4-0.4,0.6c-1.2,2.8-1.2,7.2-0.9,10.5c0.3,3.9,0.9,7.3,1.8,10.6c0.2,0.5,0.3,1.1,0.5,1.6
		c0.4,0.9,0.8,1.9,0.9,3.2c0.1,2.2,0.4,4.1,0.5,6.2c0.4,5.6,0.6,10.8,0.8,16.3c0,1.1,0,2.7-0.2,3.5c0,0.1,0,0.2-0.1,0.4
		c0,0.1,0,0.3,0,0.3c0,0.3,0.6,1.1,0.3,1.5c-0.2,0.3-1.9,0.3-2.4,0.3c-3.2,0.2-6.1,0.5-8.8,1.1l0.1,0.1v0.1c2.8,0.1,6.1-0.9,9.1-0.5
		c0.9,0.1,1.7,0.6,2.6,0.6c0.4,0,0.8-0.3,1-0.6c0.1-0.1,0.1-0.7,0.2-0.7c0,0,0.6,0.2,0.6,0.4c0.2,0.4-0.2,1.7-0.5,1.9
		C221.1,188.2,220.6,188,220.5,188z M231.1,192.8c-0.1,0.4-0.4,0.7-0.5,1.1c-0.2,0.4-0.3,0.9-0.5,1.1c-0.7,0.4-3.3,0.2-4.1,0.2
		c-1.3,0-2.5-0.3-3.6-0.5c0.3,0.1,1.5-0.2,1.4-0.4c-0.1-0.2-2.3-0.1-2.6-0.1c-1.6,0-3.4,0.2-5.1,0.4c-1.7,0.2-3.3,0.4-5.1,0.6
		c-1.2,0.1-2.5,0-3.7,0.1c-1.7,0.1-2.9,0.6-4.6,0.5c-1.2-0.1-2.5,0.1-3.5,0.1c-0.4,0-1.5,0-0.7-0.2c0.8-0.2,2.1-0.6,2.8-0.6
		c0.9-0.1,1.3,0,2-0.1c0.1,0,0.9-0.1,0.9-0.2c0.1-0.3-0.5-0.4-0.8-0.4c-0.9-0.1-2.2,0-2.9-0.2c-0.2,0,0-0.1-0.4-0.2
		c0.6,0.1,0.4-0.1,0.5-0.3c0.1-0.1,1.8-0.3,1.8-0.5c0-0.2-0.9-0.1-1.2-0.2c-0.4-0.1-0.9-0.3-1.6-0.4c-0.7-0.1,0.8-0.2,1-0.2
		c4.3-0.2,9-0.3,13.5-0.7c1.6-0.2,3.2-0.3,4.6-0.7c1.6-0.4,3-1.1,3.8-2.2c0.1-0.1,0.6-1.1,0.9-0.6c0.1,0.2-0.5,1.5-0.7,1.8
		c-0.4,0.6-1.3,1-2.1,1.3l0,0.1l0,0.1c0.9,0.1,2.1,0.2,2.9,0.1c0.5-0.1,0.9-0.2,1.1-0.7c0.2-0.9-0.2-2.3-0.5-3.2
		c0-0.2,0-0.5-0.1-0.5c-0.1-0.2-0.6-0.1-0.8-0.4c-0.1-0.1,0-0.4,0-0.7c-0.4-5.6-1.5-10.5-2.2-16.4c-0.3-2.5-0.8-5-1-7.6
		c-0.2-1.8-0.5-3.5-0.8-5c-0.4-1.6-1-3.1-1.4-4.7c-0.6-2.3-1.3-4.9-1.5-7.3c-0.1-1-0.1-1.9-0.1-2.8c0-0.6-0.2-1.2-0.2-1.7
		c0-1.3,0-2.6,0.1-4.6c0.2-3.3,1.6-5.6,3.1-8.1c1.5-2.5,2.4-5,4.2-6.9c0.4-0.4,1.4-0.6,2.1-0.9c0.7-0.3,1.2-0.4,2.3-0.5
		c1.3-0.2,2.5-0.9,4.1-0.7c0.2,0,1.3,0.1,0.4,0.2c-0.8,0.1-2,0.3-2.5,0.5c-1,0.3-1.6,0.8-2.5,1.1c-1,0.3-2.1,0.6-2.9,1.4
		c-0.4,0.4-0.7,1-1.1,1.5c-0.7,0.9-1.4,1.6-1.8,2.8c-0.3,1.3-0.4,2.6-1,3.6c-0.6,1-1.3,1.9-1.6,3c-0.2,0.8-0.2,1.7-0.2,2.5
		c-0.1,2.1,0.3,3.8,0.4,6c0.1,1,0.3,1.7,0.4,2.7c0,0.4-0.3-0.8-0.4-0.9c-0.7-2.1-1.3-4.5-1.4-6.8c0-0.1,0-1-0.1-1.1
		c-0.2-0.1-0.3,0.6-0.3,0.8c-0.1,1.1,0.1,2.2,0.2,3.4c0,1.3,0.3,2.5,0.5,3.4c0.5,1.8,0.5,3.5,1.2,5c0.5,1.2,1.2,2.6,1.7,4.1
		c0,0,0.4,1.4,0.4,1.4c-0.1,0-0.7-1-0.7-1.1c-0.5-0.8-0.8-1.4-1.3-2.3c-0.1-0.3-0.6-1.1-0.7-1.1c-0.2,0-0.2,0.4-0.2,0.5
		c0.1,0.4,0.6,1.3,0.6,1.5c0.3,0.7,0.6,1.4,0.8,2c0.5,2,0.8,3.4,1.1,5.5c0.3,2,0.7,3.9,0.8,6.2c0,0.9,0,2.3,0.4,3.1
		c0.2,0.4,0.6,0.6,0.7,1.1c0.2,1,0.2,2.2,0.4,3.3c0.2,1.7,0.4,3.3,0.5,4.9c0,0.8,0.1,2.2,0.2,3.2c0.1,0.8,0.3,1.2,0.5,1.7
		c0.2,0.7,0.1,2.1,0.5,2.4c0.4,0.2,0.1-0.2,0.1-0.5c-0.2-1.8-0.4-3.7-0.6-5.1c-0.4-3.6-0.6-8.2-0.6-12.3c0-0.9-0.2-1.8-0.2-2.7
		c0-3.2-0.2-6.6-1.1-9.4c0-0.1-0.4-0.9-0.3-1c0,0,0.4,0.7,0.5,0.8c0.2,0.4,0.2,0.7,0.3,1c0.5,1.8,1,2.9,1.4,4.9
		c0.3,1.8,0.5,3.7,0.5,5.6c0.1,2.8,0.1,5.9,0.4,8.8c0.2,2.3,0.5,4.5,0.8,6.8c0.3,2.2,0.6,5.2,1,7.5c0.4,1.8,0.6,4.2-0.7,5.2
		c-0.2,0.1-0.9,0.4-1.4,0.5c-0.1,0-0.9,0-0.8,0.3c0.1,0.3,1.6,0.2,2,0.2c0.9,0,1.9,0.1,2.2-0.3c0.3-0.4,0.4-1.1,0.4-1.7
		c0-3.3-1.3-5.6-1.8-8.6c-0.3-2-0.5-4.5-0.7-6.8c-0.1-1.4-0.5-3.2-0.3-4.2c0.7,5.7,1.6,11,3.1,16.3c0-0.1,0.1,0.8,0.4,0.4
		c0.1-0.1-0.2-0.8-0.2-0.7c-0.3-1.6-0.9-4.5-1.1-6.2c-0.1-0.6-0.1-0.8-0.2-1.3c-0.2-1.1-0.4-1.6,0.5-1.9c-0.1,0,0.5-0.1,0.5-0.1
		c0.1,0,0.2,1.1,0.2,1.5c0.4,2.4,0.6,5.2,1.1,7.5C230.9,189.8,231.5,191.4,231.1,192.8z M231.8,187.7c-0.1-0.1-0.2-0.8-0.3-1.2
		c-0.2-1.4-0.6-2.6-0.8-3.8c-0.3-1.9-0.6-3.5-0.9-5.2c-0.4-2.8-0.5-5.7-0.8-8.9c-0.2-2.6-0.4-5.5-0.2-7.8c0.1-1.3,0.7-1.4,1.2-2.3
		c0.2-0.3,0.3-1.1,0.5-1.4c0.1-0.1,0.4-0.1,0.6-0.2c0.4-0.2,0.4-0.6,0.6-0.5c0,0,0.1,0,0.1,0.1c1.6,2,2.1,4.9,2.7,8.1
		c0.5,2.7,0.5,5.5,0.7,8.4c0.4,5.1,1.7,10.5,3.5,14.9c0.2,0.4-0.4,0.2-0.7,0.1c-0.3,0-0.6-0.1-0.8-0.1c-1.4-0.1-3.7-0.5-5-0.3
		C232.2,187.7,232,187.9,231.8,187.7z M240.1,193c-2.2-0.2-3.9-0.4-6.1-0.5c-0.2,0-1.1,0-1.2-0.1c-0.1-0.1,0-0.5,0-0.6
		c0-0.2-0.5-1.3-0.4-1.4c0.1-0.2,1.6-0.1,1.6-0.1c1.4,0,3.2,0.2,4.8,0.3c0.4,0,1.4,0,1.7,0.1c0.3,0.1,0.7,0.9,1.1,1.3
		c0.1,0.1,1.1,1.2,1,1.2C242.2,193.4,240.7,193,240.1,193z M246.5,194.6c-1.2-0.6-2.1-1.3-3.1-2.3c-1.8-1.7-3.3-3.8-4.2-6.4
		c-2.7-7.2-2.9-16.7-4-25.1c-0.3-2-0.9-4-1.1-6.1c0-0.1,0.1,0.1,0.1,0.1c0.2,0.4,0.7,1.5,0.8,1.9c0.5,2,1.1,4.3,1.5,6.7
		c0.2,0.9,0.2,1.7,0.3,2.5c0,0.3,0.1,0.6,0.1,0.8c0.1,0.5,0.1,1.2,0.2,1.7c0.2,1.2,0.3,2.6,0.4,4.1c0.1,1,0.2,1.7,0.3,2.6
		c0,0,0.1,0.4,0.3,0.7c0.1,0.2,0.1-0.4,0.1-0.3c-0.2-1.8-0.4-3.5-0.5-5.1c0-0.6,0-1.3-0.1-2c-0.1-1.1-0.2-2.3-0.3-3.5
		c-0.2-2.7-0.7-5.3-0.7-8.1c0-1.4,0.3,0.1,0.5,0.6c0.2,0.5,0.4,0.9,0.5,1.3c0.1,0.4,0.1,1,0.1,1.4c0.6,4,0.5,9,1.1,13.1
		c0.4,2.4,0.9,4.2,1.3,6.5c0.2,1.1,0.4,2.3,0.7,3.4c0.3,0.8,0.5,1.7,0.9,2.6c1,2.1,2.4,4.5,4,6c0.2,0.2,0.4,0.3,0.6,0.5
		c0.1,0.1,0.4,0.3,0.5,0.4c0.6,0.6,1.7,1.1,2.6,1.5c3,1.4,6.5,2,10.2,2.6C254.4,196.2,250.2,196.3,246.5,194.6z M254.2,193.9
		c-0.6-0.1-1.5-0.3-2.2-0.5c-3-1.1-5.3-2.1-7-4.6c-1.2-1.7-1.1-1.8-1.1-2.4c0-0.1,0.2,0.1,0.2,0.1c2,3,5.1,4.7,8.8,6
		c2.6,0.9,5,0.8,7,2C257.5,194.3,256.1,194.4,254.2,193.9z M259.9,196.6C259.9,196.5,259.8,196.7,259.9,196.6z M261.8,194.7
		c-0.2-0.1-1.4-0.7-0.8-0.6c0.6,0.1,1.6,0.3,2.6,0.4c1.2,0.1,5.6,0.6,6.5,0.7C268.5,195,263.1,195.1,261.8,194.7z"/>
	<path class="st0" d="M82.6,50.2c0.6-0.1,2,0,2,1.1c0,1.1,0.1,2.1-1.2,1.7C82.1,52.5,82,50.2,82.6,50.2"/>
	<path class="st0" d="M220.5,50.2c-0.6-0.1-2,0-2,1.1c0,1.1-0.1,2.1,1.2,1.7C221,52.5,221.1,50.2,220.5,50.2"/>
	<path d="M163.9,43.4c-0.4-0.6-2.6,3-2.3,6.1c-0.6-2.4-6.5-1.6-3.3,3.5c1.1,1.1-0.2-3.1,1.6-2.5c1.8,0.6,1,1.6,0.4,1.7
		c-0.1,0-1,0.8,0.2,1.7c0.7,0.5-3.2,2.2-5.3,0.9c-2.4-1.5-2.9-3.3-2.3-3.5c0.5-0.2,1.8,0.7,3.2,2.2c0.1-0.8,0.3-3.4,0.1-5.9
		c0-0.7-3.5,2.3-3.5,1.9c-0.1-1.8,2.9-4,2.9-4.1c-0.2-0.4-0.9,0.2-0.9-0.2c0-1.3,0.3-3.8,0.3-3.9c0.2-0.4,2.6-2.6,6.1-1.9
		c3.6,0.7,3,0.7,3.3,0.4c0.3-0.2,4.9-2.3,8-1.1c0.6,0.2,2,0.8,2.2,1.4c0.1,0.6,0.1,3.7-1.5,7.3c-0.3,0.7-0.9,0.2-2.1-0.2
		c-0.1,0,1.8,4.1,1.8,4.4c0.1,0.8-0.4,0.5-0.7,0.2c-0.5-0.5-1.3-1.7-2-2.8c-0.2-0.4-1.3,5.1-1.8,5.9c-0.3,0.4,3.4-1.3,3.9-1.1
		c0.8,0.3-1.5,3.4-4.6,2.8c-3.6-0.7-3.5-2.4-3-2.3c0.6,0.1,1.3-1.1,0.4-1.5c-0.8-0.3,0-1.8,1.1-1.5c2,0.4,0,3.5,0.4,3.2
		c4.8-3.1,0-7-1.8-4.7C164.9,48.5,165.6,45.8,163.9,43.4"/>
	<path d="M139.2,43.4c0.4-0.6,2.6,3,2.3,6.1c0.6-2.4,6.5-1.6,3.3,3.5c-1.1,1.1,0.2-3.1-1.6-2.5c-1.8,0.6-1,1.6-0.4,1.7
		c0.1,0,1,0.8-0.2,1.7c-0.7,0.5,3.2,2.2,5.3,0.9c2.4-1.5,2.9-3.3,2.3-3.5c-0.5-0.2-1.8,0.7-3.2,2.2c-0.1-0.8-0.3-3.4-0.1-5.9
		c0-0.7,3.5,2.3,3.5,1.9c0.1-1.8-2.9-4-2.9-4.1c0.2-0.4,0.9,0.2,0.9-0.2c0-1.3-0.3-3.8-0.3-3.9c-0.2-0.4-2.6-2.6-6.1-1.9
		c-3.6,0.7-3,0.7-3.3,0.4c-0.3-0.2-4.7-2.4-8.6-1c-0.6,0.2-1.4,0.6-1.6,1.2c-0.1,0.6-0.1,3.7,1.5,7.3c0.3,0.7,0.9,0.2,2.1-0.2
		c0.1,0-1.8,4.1-1.8,4.4c-0.1,0.8,0.4,0.5,0.7,0.2c0.5-0.5,1.3-1.7,2-2.8c0.2-0.4,1.3,5.1,1.8,5.9c0.3,0.4-3.4-1.3-3.9-1.1
		c-0.8,0.3,1.5,3.4,4.6,2.8c3.6-0.7,3.5-2.4,3-2.3c-0.6,0.1-1.3-1.1-0.4-1.5c0.8-0.3,0-1.8-1.1-1.5c-2,0.4,0,3.5-0.4,3.2
		c-4.8-3.1,0-7,1.8-4.7C138.2,48.5,137.5,45.8,139.2,43.4"/>
	<path d="M143.9,59.1c0.1,0.7-1,1.4-2.4,1.5c-1.4,0.1-2.5-0.4-2.6-1.1c-0.1-0.7,1-1.4,2.4-1.5C142.7,57.8,143.8,58.3,143.9,59.1"/>
	<polyline points="130.5,60.3 131.6,61.9 134.4,59.7 131.1,58.5 130.5,60.3 	"/>
	<path class="st3" d="M137.8,53.5c0.1,0.4,0.5,0.8,1,0.7l3.7-0.4c0.5-0.1,0.8-0.5,0.8-0.9c-0.1-0.4-0.5-0.8-1-0.7l-3.7,0.4
		C138.1,52.7,137.8,53.1,137.8,53.5z M138.4,52.6c0.3-1.5-1-1.5-1.4-1.4c-1.5,0.6-0.1,3.1-0.1,3.1c-5.1-2.4-0.1-7.8,1.9-4.4
		c0.2,0.3-1.8-2.5,0.5-6.9c3.3,3.8,2,7,2.1,6.6c1.2-3.8,7.3,0.2,2.9,3.8c0,0,0.7-2.8-0.8-3c-0.5-0.1-1.6,0.3-1,1.6 M134.4,59.7
		l-3.9,0.6"/>
	<path class="st4" d="M129.9,47.9c-4.7-10.6,2.2-13.2,4.8-13.1c5.6,0.2,5.5,3.5,12.6,3.8"/>
	<path class="st3" d="M142.3,53.9c0.9,1,2.4,1.6,4,1.4c2.4-0.3,4.2-2.1,4-4.2 M130.8,53.8c0.5,1.6,2.4,2.8,4.5,2.7
		c1.8-0.1,3.3-1,3.9-2.3 M150.1,45.2c0,0-0.2-3.2-0.5-5.6c-0.4-2.5-1.7-5.5-1.7-5.5h-2.2c0,0,1.4,2.9,2,5.5c0.5,2.2,0.7,5.6,0.7,5.6
		 M146.2,35.4c-5.9-0.1-4.9-3.2-11.6-3.3c-4.4-0.1-12.9,2.8-7.2,16.5"/>
	<path class="st4" d="M131.5,61.5c0,0.3,0.1,1,0.1,1.4"/>
	<path class="st3" d="M130.4,52.2c1.1-0.3,2.7-3.3,2.7-3.3l1.9,6.2c0,0-3-1.6-4.1-1.3 M130.3,52.3c-0.4-1.3,1.8-5,1.8-5l-5.1,1.5"/>
	<path class="st5" d="M151.6,55.8l-0.7-2.4c-0.2,1.2-1.9,2.4-4.2,2.8c-2.4,0.5-4.6-0.1-5-1.3l-0.6,1.9l-1-1.6c-0.2,1-2,2-4.3,2.1
		c-2.2,0.2-4-0.4-4.5-1.3l-0.5,1.9"/>
	<path class="st3" d="M130.5,60.3l1.1,1.6l2.8-2.2l-3.3-1.3L130.5,60.3z M139,59.4c0,0.7,1.2,1.3,2.5,1.2c1.4-0.1,2.4-0.7,2.4-1.5
		c0-0.7-1.2-1.3-2.5-1.2C140,58,139,58.6,139,59.4z"/>
	<path d="M130.5,16c0.2-0.8,0.9-1.2,0.8-2.5c0-0.4-0.1-1-0.1-1.2c-0.1-0.3,0-1.4,0.4-1.7c0.2-0.2,0.3-1,0.4-0.7
		c0.1,0.2,0.4,1.1,0.6,1.4c0.3,0.8,0.1,2-0.2,2.7c-0.2,0.3-1,1.5-1,2.1"/>
	<path d="M123.8,18.4c0-0.4,0.3-4.4-0.2-5.4c-0.2-0.3-1.7-1.8-1.8-2c-0.1-0.2-0.1-0.4-0.4-0.6c-0.2-0.2,0.3-0.1,0.7-0.2
		c0.4,0,2.4,0.3,3.1,2c0.2,0.4,0.1,1.9-0.1,2.3c-0.2,0.3-0.1,2.1-0.3,2.8c-0.1,0.3-0.1,0.7-0.3,1"/>
	<path d="M119.8,21.5c-0.3,0.9,0-3.9-0.2-4.9c-0.2-1.4-0.4-1.7-0.5-1.9c-0.2-0.5-0.1-0.9-0.9-1.3c-0.6-0.3-0.7-0.8-1-0.9
		c-0.2-0.1,0.6-0.1,0.9-0.1c0.2,0,2.3,0,3,2.3c0.1,0.3,0.1,1.6,0,2.3c0,0.2,0,0.5,0,0.7c0,0.2-0.3,2.9-0.4,3.3
		C120.7,21.2,120,20.9,119.8,21.5"/>
	<path d="M118,24c0-0.3-0.7-3-0.7-3.5c0.1-1.8-0.4-6.5-4.6-6c-1.1,0.1-1.8,1-1.4,1.2c0.4,0.2,0.3-0.8,1.9,0c0.4,0.2,2.5,2.7,3.1,4.9
		c0.1,0.2,0.7,3.1,0.8,3.7"/>
	<path d="M115,30.9c-0.2-0.5-0.7-1.4-1.1-2.6c-0.4-1.2-1.2-2.7-1.8-3.2c-1.2-0.9-1.9-4.1-3.7-4.3c-0.4-0.1-1.9,0.2-1.4-0.2
		c0.2-0.2,1.6-1.6,4.2-0.2c0.4,0.2,3.4,2.9,3.5,6.3c0,0.3,0.3,2.4,1,2.7"/>
	<path d="M134.5,15.7c1.7-1,1.7-2.2,1.6-2.8c0-0.4-0.4-1.3-0.7-1.8c0-0.1-0.4,0.1-0.6,0.4c-0.2,0.3-0.4,1.3-0.3,2.4
		c0,0.2-1,0.9-1,1.4"/>
	<path d="M130.5,66.4c-0.3-0.2-0.5-0.5-0.7-0.8c-3.5-3.5-8.5-13.6-9.8-13.9c-1.9-0.4-1.9-1.5-1.9-1.7c0-0.2-0.1-0.4-0.1-0.6
		c-0.1-0.2,1-1.1,1.2-1c0.5,0.1,0.7-0.1,0.5-0.3c-0.9-1-2.4-6-2.9-6.3c-1.8-1.1-1.5-2.5-1.4-2.7c0.1-0.3,0.9-0.6,1.2-0.7
		c0.3-0.2,0.3-0.1,0.4,0.1c0,0.1,0.5,0.5,0.5,0.2c-0.8-3.6-0.3-6.1-0.5-6.1c-1.9-0.6-1.8-1.4-1.8-1.8c0-0.2,0.1-0.7,0.2-0.9
		c0.3-0.5,0.5-0.6,0.7-0.6c1-0.1,1.4,0.5,1.4,0.6c0,0.1,0.4,0.3,0.4,0c0-0.6,0.2-2.2,0.2-2.5c0.1-0.2-0.2-1.3-0.4-1.3
		c-0.8-0.1-0.7-1.2-0.7-1.5c0-0.4,0.1-0.5,0.2-0.7c0.1-0.1,0.4-0.3,0.8-0.3c0.8,0,0.8,1.7,0.8,1.8c0,0.1,0.2,0.2,0.3,0.3
		c0.1,0.1,0.4,0.2,0.4,0c0-0.5,0.9-2.3,0.8-2.5c-0.6-1.1-0.5-2.3-0.3-2.4c0.2-0.1,0.3-0.2,0.6-0.2c0.3,0,0.2,0.1,0.5,0.2
		c0.3,0.1,0.4,0.9,0.4,1.1c0,0.2,0.2,0.2,0.2,0c0.3-0.7,1.6-1.6,1.6-1.8c0-0.5,0.1-1.3,0.1-1.4c0-0.2,0.2-0.3,0.2-0.5
		c0-0.2,1.1-0.4,1.2,0c0.1,0.3,0,1.3,0,1.4c0.6,0.2,1.5-0.9,1.8-1.2c0.3-0.3,0.2-0.9,0.2-1.6c0-0.7,0.9-0.4,1.4-0.4
		c0.3,0,0.1,1-0.1,1.3c-0.1,0.3,0.9-0.2,1.3-0.4c0.4-0.2,0.6-0.8,0.7-1.2c0.1-0.4,0.7-0.2,1.3-0.2c0.3,0,0,0.8-0.2,1.1
		c-0.2,0.3,1-0.2,1.5-0.5c0.5-0.3,0.7-0.6,0.7-1c0-0.3,0.3-0.6,1-0.3c0.7,0.2,0,0.7-0.1,0.9c0,0.1,1.3,0.4,1.5,0
		c0.2-0.3,0.5-0.7,1.1-0.5c0.6,0.2-0.2,0.8,0.1,0.9c2.6,0.3,3.1,1.2,2.2,0.9c-1.7-0.6-5.7-0.2-6.4,0c-23.6,6.6-10.6,34.7-0.9,45.4
		c0,0-0.6-0.1-0.8,0.5c-0.2,0.5-1,1.6-0.8,2.1C130.5,66,130.6,66.6,130.5,66.4"/>
	<path d="M134.4,15.7C134.4,15.7,134.4,15.7,134.4,15.7"/>
	<path d="M106.2,49.4c0-0.3,0.1-0.6,0.1-0.8C106.3,48.8,106.3,49,106.2,49.4 M106.8,47.2C106.7,47.1,106.7,47.1,106.8,47.2
		c-0.1,0.1-0.2,0.3-0.2,0.4C106.6,47.5,106.7,47.4,106.8,47.2C106.7,47.2,106.8,47.2,106.8,47.2z M106.2,50.2c0,0.3,0,0.7,0,1.3
		C106.1,51.4,106.2,50.8,106.2,50.2z M107.1,56.1c-0.3,0.1-0.6,0.1-0.7,0.2C106.6,56.2,106.8,56.1,107.1,56.1z M103.6,49.2
		c-0.1-0.1-0.1-0.1-0.1,0.1c0,0.2,0.3,0.9,0.6,1.5C103.7,49.8,103.6,49.4,103.6,49.2z M104.6,55.4c0.1,0.4,0.4,0.7,0.9,0.8
		c0.1,0,0.2,0,0.2,0C105.2,56.1,104.8,55.8,104.6,55.4z M116.8,44c-0.3-0.1-1.7,0-1.9-0.1c-0.2-0.1-1.2-0.4-2.2,0.1
		c-0.6,0.3-1.7,1-2.3,4.3c-0.1,0.3-0.7,0.3-2.1,2.1c-0.1,0.1-0.1,0.2-0.2,0.2c0,0,0.1,0,0.1,0c0.4-0.7,2-2.2,2-2
		c0,1.4-0.8,2.8-0.9,2.9c-0.1,0.3-0.3,0.4-0.1,0.3c0.5-0.4,1.7-1.7,2.9-1.9c0.3-0.1-0.3,0.7-0.4,0.8c-0.8,0.8-1.5,3.5-1.4,4
		c0.1,2.1,1.3,1.5,1.4,1.5c0.7-0.6,1.5-1.8,1.6-4.3c0.2-4.1,1.4-6.8,1.6-6.7c0.7,0.5,2.1,2.5,3.1,4.1l0.8-0.8
		C118.7,48.1,118.2,44.7,116.8,44z M117.8,47.4c-0.6-0.1-2.3-2-2.8-2.3c-0.5-0.4,0.9-1.1,1.3-1.1c1.3-0.1,1.5,1.5,1.6,2
		C117.9,46.1,118,47.4,117.8,47.4z M110.3,56.5c-0.1-0.1-0.2-0.1-0.4-0.1c0.2,0.1,0.5,0.2,0.9,0.2c0.1,0,0.3-0.1,0.5-0.2
		C111,56.6,110.5,56.6,110.3,56.5z"/>
	<path d="M108.6,41.1c-0.8,0.1-1.6,0.1-1.9,0.1C107.6,41.3,108,41.2,108.6,41.1 M106,40.8c0.2,0.2,0.4,0.4,0.6,0.4
		C106.3,41.2,106.1,41,106,40.8z M114.1,32.2c0.2,0.3,0.4,0.6,0.5,0.7c0.1,0.2,1.2,4.5,0.8,4.3c-1-0.4-2.8-2.3-3-2.6
		c0-0.1-0.1-0.2-0.2-0.3c0.1,0.4,0.3,1.4,1.2,2.7c0.3,0.5,1.6,1.9,1.8,2.2l1.5-0.6C116.6,38.3,115.8,34,114.1,32.2z M111.6,33.9
		c-0.3-0.2,0.2-1.7,1-2.2c0.1-0.1,0.3-0.1,0.4-0.1c-0.2,0-0.4-0.1-0.6,0c-0.6,0.1-1.7,0.1-1.8,0c-0.1-0.1-0.8-0.5-1.7,0.2
		c-0.8,0.8-2.2,2.1-2.2,4.3c0,0.5,0,1.8-0.6,1.1c0,0-0.1-0.1-0.2-0.2c0.6,0.7,0.9,1.5,1,1.8c-0.1-0.5,0.2-2.2,0.4-2.4
		c0.1-0.2,0.5-1.4,0.5-1.1c0,0.2,0.2,0.9,0.5,1.2c0.6,0.6,0.7,2.2,0.7,1.8c0-0.5,1-1.1,1.1-1.3c0.1-0.3,0.3-1.1,0.6-1.1
		c0.1,0,0.3,1.3,0.3,1.7c0,1.4-0.9,1.9-1,2.4c-0.3,1.1,1.1,0.5,0.9,0.7c-0.1,0.1-0.3,0.2-0.4,0.2c0.3-0.1,0.7-0.3,0.9-0.9
		C111.9,38.9,111.6,34.7,111.6,33.9C111.5,33.9,111.5,33.9,111.6,33.9z M110.2,41c0,0,0.1,0,0.1,0C110.3,41,110.3,41,110.2,41
		C110.2,41,110.2,41,110.2,41z M110.1,41.1c0,0,0.1,0,0.1,0c-0.1,0-0.2,0-0.4,0C109.9,41,110,41,110.1,41.1z"/>
	<path d="M130.4,16.1c0.2-0.9,1-1.3,0.8-2.6c0-0.4-0.1-1-0.1-1.2c-0.2-0.8,0.6-2.7,0.7-2.4c0.1,0.2,0.4,1.1,0.6,1.4
		c0.3,0.8,0.1,2-0.2,2.7c-0.2,0.3-1,1.5-1,2.1"/>
	<path d="M118,24c0-0.3-0.7-3-0.7-3.5c0.1-1.8-0.4-6.5-4.6-6c-1.1,0.1-1.8,1-1.4,1.2c0.4,0.2,0.8-0.9,1.9,0c3.1,2.6,3.9,8.1,4,8.7"
		/>
	<path d="M115,30.8c-0.2-0.5-0.6-1.3-1.1-2.5c-0.4-1.2-1.2-2.7-1.8-3.2c-1.2-0.9-1.9-4.1-3.7-4.3c-0.4-0.1-1.9,0.2-1.4-0.2
		c0.2-0.2,1.6-1.6,4.2-0.2c0.4,0.2,3.4,2.9,3.5,6.3c0,0.3,0.3,2.4,1,2.7"/>
	<path class="st3" d="M108.4,56c-0.1,0.2,0,2.1,0.1,2.3c0.1,0.3,0.9,3.9-0.3,5c-0.3,0.2-1.2,0.5-0.7-1 M107.6,56c0,0.1,0.1,3-0.9,3
		 M108.9,56.1c0,0.1-0.3,2.6,0.8,2.8 M109.9,56.4c0,0.1-0.4,2.1,0.8,2.4 M105.7,56.2c0.1,0.5-0.3,2.1-1,1.9 M106.6,56.2
		c0.1,0.6-0.2,2.7-1.1,2.5 M108.1,41.2c0,0.1,0.2,0.9,0.3,1.1c0.1,0.2,0.3,1,0.1,1.4c-0.2,0.3-0.1,1.4,0.1,1.7
		c0.3,0.5,0.4,2.7-0.3,2.3c-0.3-0.1-0.3-0.4-0.3-0.8 M106.8,41.3c0.2,0.7,0.1,1.3-0.1,1.9c-0.1,0.3-0.2,0.5-0.4,0.5 M107.5,41.2
		c0.2,0.7,0.2,1.3,0.1,1.9c-0.1,0.3-0.2,0.5-0.4,0.5 M109.1,41c0,0.1,0,0.5,0.1,0.7c0.1,0.2,0.3,0.7,0.2,1.4
		c-0.1,0.4-0.1,0.4-0.4,0.4 M106.4,41.2c-0.1,0.1-0.2,0.3-0.1,0.5c0,0.2,0.1,1.5-0.2,1.7c-0.3,0.2-0.5,0.1-0.6,0 M109.9,41
		c0,0.1,0,0.4,0,0.5c0.1,0.2,0.6,1.3,0.4,1.6c-0.2,0.3-0.5,0.3-0.6,0.3 M114.9,45c0.9,0.6,2.4,2.5,3,2.4 M117.6,44.8
		c0.6,1.2,0,3.9,0.4,4.4 M116.4,43.9c-1,0.1-1.5,0.8-2.1,2.4 M112.2,34.2c0.6,1,2.4,3,3.3,3.1 M114.5,32.6c0.4,1,1,2.6,1.1,6.3
		 M112.9,31.5c-0.3,0-1.8,0.5-1.3,3.1 M111.3,40.6c-0.6,0.6-1.5,0-1.1-0.7c0.4-0.7,1.3-1.6,0.7-3.8c-0.2-0.6-0.4,0.5-0.6,0.9
		c-0.2,0.4-1.1,0.6-1.1,1.6c0,0.1,0-1.3-0.5-1.8c-0.2-0.2-0.7-1-0.7-1.5c0-0.4-0.3,1-0.6,1.3c-0.2,0.3-0.3,1.6-0.2,2.5
		c0,0.3-0.4-1.4-1.1-2 M111.8,56c-1.2,0.6-1.6-0.3-1.5-1.4c0.1-1.1,0.7-3.4,1.3-3.9c1.4-1.2,0.3-0.9-0.9-0.1c-0.7,0.4-2,1.9-1.5,1.1
		c0.5-0.8,1-2,1.1-3.1 M118.9,48.6c-0.2-0.3-0.7-3.9-2.1-4.6c-0.3-0.1-1.7,0-1.9-0.1c-0.2-0.1-1.2-0.4-2.2,0.1
		c-0.6,0.3-1.7,1-2.3,4.3c-0.1,0.3-0.7,0.2-2,2.1c-0.1,0.1-0.3,0.7-0.5-0.2c0-0.2-1-3.6-1.2-3.2c0,0.1-0.4,1.5-0.5,2.6
		c0,0.6-0.1,1,0,2c0,0.4-0.1-0.2-1.5-1.6c-0.2-0.3-1.4-1.3-1.1-0.6c0.2,0.3,0.7,1.7,0.9,2.1c0.2,0.3,0.3,1,0.2,1.2
		c-0.1,1.1-0.8,3.2,0.8,3.4c1.2,0.2,1.1-0.3,2.5-0.2c1.9,0.1,1.7,0.7,2.7,0.6c0.4,0,2.3-0.8,2.5-4.8c0.2-4.1,1.4-6.8,1.6-6.7
		c0.7,0.5,2.2,2.6,3.3,4.2 M116.9,39c-0.1-0.4-1.5-7.7-4.4-7.4c-0.6,0.1-1.7,0.1-1.8,0c-0.1-0.1-0.8-0.5-1.7,0.2
		c-0.8,0.8-2.2,2.1-2.2,4.3c0,0.5,0,1.8-0.6,1.1c-0.3-0.3-2-1.8-1.3-0.7c0.5,0.8,0.6,1.4,0.6,1.9c0,0.6,0,2.7,1.1,2.7
		c1.7,0.1,1.9-0.3,3.5-0.2c0.4,0,1.1-0.1,1.4-1c0.4-1.2,0.1-5.4,0-6.1c0-0.3,0.5,0.1,0.6,0.3c0.2,0.3,0.2,1.3,1.2,2.9
		c0.3,0.5,1.9,2.3,2.2,2.6"/>
	<path d="M134.4,15.7C134.4,15.7,134.4,15.7,134.4,15.7"/>
	<path d="M134.5,15.7c1.7-1,1.7-2.2,1.6-2.8c0-0.4-0.4-1.3-0.7-1.8c0-0.1-0.4,0.1-0.6,0.4c-0.2,0.3-0.4,1.3-0.3,2.4
		c0,0.2-1,0.9-1,1.4"/>
	<path class="st3" d="M151.6,55.8l-0.7-2.4c-0.2,1.2-1.9,2.4-4.2,2.8c-2.4,0.5-4.6-0.1-5-1.3l-0.6,1.9l-1-1.6c-0.2,1-2,2-4.3,2.1
		c-2.2,0.2-4-0.4-4.5-1.3l-0.5,1.9"/>
	<path class="st4" d="M145.1,34.4c0.8-0.7,0.9-1.9,0.2-2.7c-0.7-0.8-1.9-0.9-2.7-0.2c-0.8,0.7-0.9,1.9-0.2,2.7
		C143.1,35,144.3,35.1,145.1,34.4z M145.1,34.4c0.8-0.7,0.9-1.9,0.2-2.7c-0.7-0.8-1.9-0.9-2.7-0.2c-0.8,0.7-0.9,1.9-0.2,2.7
		C143.1,35,144.3,35.1,145.1,34.4z M141.3,32.5c0.8-0.7,0.9-1.9,0.2-2.7s-1.9-0.9-2.7-0.2c-0.8,0.7-0.9,1.9-0.2,2.7
		C139.3,33.1,140.5,33.2,141.3,32.5z M141.3,32.5c0.8-0.7,0.9-1.9,0.2-2.7s-1.9-0.9-2.7-0.2c-0.8,0.7-0.9,1.9-0.2,2.7
		C139.3,33.1,140.5,33.2,141.3,32.5z M137.2,31.6c0.8-0.7,0.9-1.9,0.2-2.7c-0.7-0.8-1.9-0.9-2.7-0.2c-0.8,0.7-0.9,1.9-0.2,2.7
		C135.2,32.1,136.4,32.2,137.2,31.6z M137.2,31.6c0.8-0.7,0.9-1.9,0.2-2.7c-0.7-0.8-1.9-0.9-2.7-0.2c-0.8,0.7-0.9,1.9-0.2,2.7
		C135.2,32.1,136.4,32.2,137.2,31.6z M133,31.8c0.8-0.7,0.9-1.9,0.2-2.7s-1.9-0.9-2.7-0.2c-0.8,0.7-0.9,1.9-0.2,2.7
		C131,32.4,132.2,32.5,133,31.8z M133,31.8c0.8-0.7,0.9-1.9,0.2-2.7s-1.9-0.9-2.7-0.2c-0.8,0.7-0.9,1.9-0.2,2.7
		C131,32.4,132.2,32.5,133,31.8z M129.1,33.4c0.8-0.7,0.9-1.9,0.2-2.7c-0.7-0.8-1.9-0.9-2.7-0.2c-0.8,0.7-0.9,1.9-0.2,2.7
		C127.1,33.9,128.3,34,129.1,33.4z M129.1,33.4c0.8-0.7,0.9-1.9,0.2-2.7c-0.7-0.8-1.9-0.9-2.7-0.2c-0.8,0.7-0.9,1.9-0.2,2.7
		C127.1,33.9,128.3,34,129.1,33.4z M126.1,36.4c0.8-0.7,0.9-1.9,0.2-2.7s-1.9-0.9-2.7-0.2c-0.8,0.7-0.9,1.9-0.2,2.7
		C124.1,37,125.3,37.1,126.1,36.4z M126.1,36.4c0.8-0.7,0.9-1.9,0.2-2.7s-1.9-0.9-2.7-0.2c-0.8,0.7-0.9,1.9-0.2,2.7
		C124.1,37,125.3,37.1,126.1,36.4z M124.9,40.5c0.8-0.7,0.9-1.9,0.2-2.7c-0.7-0.8-1.9-0.9-2.7-0.2c-0.8,0.7-0.9,1.9-0.2,2.7
		C122.9,41,124.1,41.2,124.9,40.5z M124.9,40.5c0.8-0.7,0.9-1.9,0.2-2.7c-0.7-0.8-1.9-0.9-2.7-0.2c-0.8,0.7-0.9,1.9-0.2,2.7
		C122.9,41,124.1,41.2,124.9,40.5z M125,44.7c0.8-0.7,0.9-1.9,0.2-2.7c-0.7-0.8-1.9-0.9-2.7-0.2c-0.8,0.7-0.9,1.9-0.2,2.7
		C123,45.3,124.2,45.4,125,44.7z M125,44.7c0.8-0.7,0.9-1.9,0.2-2.7c-0.7-0.8-1.9-0.9-2.7-0.2c-0.8,0.7-0.9,1.9-0.2,2.7
		C123,45.3,124.2,45.4,125,44.7z M126,48.8c0.8-0.7,0.9-1.9,0.2-2.7c-0.7-0.8-1.9-0.9-2.7-0.2c-0.8,0.7-0.9,1.9-0.2,2.7
		C124,49.4,125.2,49.5,126,48.8z M126,48.8c0.8-0.7,0.9-1.9,0.2-2.7c-0.7-0.8-1.9-0.9-2.7-0.2c-0.8,0.7-0.9,1.9-0.2,2.7
		C124,49.4,125.2,49.5,126,48.8z"/>
	<path d="M124.6,45c0.6-0.4,1.1-1.7,1.2-1.1c0.2,0.6,1.1,2.5,0.2,2C125.2,45.3,124.4,45.1,124.6,45"/>
	<path d="M124,40.8c0.6-0.2,1.6-1.4,1.6-0.8c-0.1,0.6,0.5,2.5-0.4,2C124.3,41.5,123.7,40.9,124,40.8"/>
	<path d="M124.4,36.8c0.7,0.1,2-0.4,1.9-0.1c-0.1,0.3-0.6,2-0.9,1.6C125.2,37.9,124.2,36.8,124.4,36.8"/>
	<path d="M126.6,33.5c0.6,0.1,2,0.3,1.8,0.4c-0.2,0.2-1.7,1.8-1.6,1.4C126.9,34.9,126.4,33.5,126.6,33.5"/>
	<path d="M129.9,31.3c0.5,0.1,1,1.1,1.5,1c0.6,0-1.6,0.8-2,1.1C129.1,33.6,129.8,31.2,129.9,31.3"/>
	<path d="M132.7,32c0.5-0.4,1-1.9,1.4-1.4c0.4,0.5,1.3,1.6,0.6,1.5C133.9,32,132.4,32.2,132.7,32"/>
	<path d="M136.3,32c0.5,0,1.7-1.7,1.8-1.2c0.1,0.5,0.8,1.8,0.3,1.6C137.8,32.3,135.9,32.1,136.3,32"/>
	<path d="M140,33.1c0.6,0.1,2.2-1.2,2.2-0.8c-0.1,0.4,0.3,2.3-0.1,2.1C141.5,34.2,139.6,33,140,33.1"/>
	<path d="M144.3,35c0.4-0.1,1.3-1,1.5-0.6c0.2,0.4,0.6,1,0.1,0.9C145.2,35.2,144,35,144.3,35"/>
	<path d="M157.6,34.3c0.6,0.1,1.4,0.7,0.9,0.8c-0.5,0.1-1.8,0.4-1.6,0.1C157.2,34.9,157.4,34.2,157.6,34.3"/>
	<path d="M161.3,32.2c0.7,0.4,2.2,0.8,1.6,1.2c-0.6,0.3-2.4,1.6-2.2,1.1C160.9,33.9,161.1,32.1,161.3,32.2"/>
	<path d="M164.6,32.4c0.2-0.5,0.4-2.2,0.8-1.7c0.4,0.5,1.5,1.4,0.8,1.5C165.4,32.3,164.5,32.6,164.6,32.4"/>
	<path d="M168,32c0.4-0.2,1.2-1.9,1.5-1.2c0.3,0.7,1,1.4,0.4,1.3C169.2,32,167.6,32.1,168,32"/>
	<path d="M171.5,32.3c0.6-0.1,1.9-1.5,1.9-0.6c0,0.9,0.4,1.6-0.2,1.4C172.6,32.8,171.2,32.4,171.5,32.3"/>
	<path d="M174.7,33.9c0.6,0.2,2.1-0.7,2-0.1c-0.2,0.6-0.1,1.7-0.6,1.4C175.6,34.9,174.4,33.8,174.7,33.9"/>
	<path d="M176.9,36.5c0.5,0.2,2,0.3,1.6,0.8c-0.4,0.4-0.9,1.5-1.1,1.1C177.2,38.1,176.7,36.4,176.9,36.5"/>
	<path d="M177.7,40.1c0.5,0.3,2,0.9,1.2,1.2c-0.8,0.3-1.5,1.3-1.3,0.8C177.7,41.6,177.6,40,177.7,40.1"/>
	<path d="M177.4,43.7c0.4,0.5,1.6,1.6,1.1,1.6c-0.5,0-1.8,1.2-1.7,0.6C176.9,45.4,177.2,43.6,177.4,43.7"/>
	<g>
		<path d="M172.7,16.1c-0.2-0.8-1-1.3-0.8-2.6c0-0.4,0.1-1,0.1-1.2c0.1-0.3,0-1.4-0.4-1.7c-0.2-0.2-0.3-1-0.4-0.7
			c-0.1,0.2-0.4,1.1-0.6,1.4c-0.3,0.8-0.1,2,0.2,2.7c0.2,0.3,1,1.5,1,2.1"/>
		<path d="M176.1,16.6c-0.1-0.4-0.8-0.8-0.7-2.1c0-0.6,0.2-1.9,0.3-2.5c0.1-0.5,0.2-1.7-0.1-2.5c-0.1-0.2-0.5-0.9-0.6-0.4
			c-0.1,0.3-0.4,1.8-0.8,2.5c-0.5,0.8-0.3,1.8-0.1,2.3c0.2,0.5,0.7,1.3,1,2.6"/>
	</g>
	<path d="M179.4,18.3c0-0.4-0.3-4.3,0.2-5.3c0.2-0.3,1.7-1.8,1.8-2c0.1-0.2,0.1-0.4,0.4-0.6c0.2-0.2-0.3-0.1-0.7-0.2
		c-0.4,0-2.4,0.3-3.1,2c-0.2,0.4-0.1,1.9,0.1,2.3c0.2,0.3,0.1,2.1,0.3,2.8c0.1,0.3,0.2,0.8,0.3,1.1"/>
	<path d="M183.4,21.5c0.3,0.9,0-3.8,0.1-4.8c0.2-1.4,0.4-1.7,0.5-1.9c0.2-0.5,0.1-0.9,0.9-1.3c0.6-0.3,0.7-0.8,1-0.9
		c0.2-0.1-0.6-0.1-0.9-0.1c-0.2,0-2.3,0-3,2.3c-0.1,0.3-0.1,1.6,0,2.3c0,0.2,0,0.5,0,0.7c0,0.2,0.2,2.8,0.3,3.3
		C182.4,21.1,183.2,20.9,183.4,21.5"/>
	<path d="M185.1,24c0-0.3,0.7-3,0.7-3.5c-0.1-1.8,0.4-6.5,4.6-6c1.1,0.1,1.8,1,1.4,1.2c-0.4,0.2-0.3-0.8-1.9,0
		c-0.4,0.2-2.5,2.7-3.1,4.9c-0.1,0.2-0.8,3.2-0.8,3.8"/>
	<path d="M188.1,30.9c0.2-0.5,0.7-1.4,1.1-2.6c0.4-1.2,1.2-2.7,1.8-3.2c1.2-0.9,1.9-4.1,3.7-4.3c0.4-0.1,1.9,0.2,1.4-0.2
		c-0.2-0.2-1.6-1.6-4.2-0.2c-0.4,0.2-3.4,2.9-3.5,6.3c0,0.3-0.3,2.4-1,2.7"/>
	<path d="M168.7,15.7c-1.7-1-1.7-2.2-1.6-2.8c0-0.4,0.4-1.3,0.7-1.8c0-0.1,0.4,0.1,0.6,0.4c0.2,0.3,0.4,1.3,0.3,2.4
		c0,0.2,1,0.9,1,1.4"/>
	<path d="M196.9,49.4c0-0.3-0.1-0.6-0.1-0.8C196.8,48.7,196.9,49,196.9,49.4 M196.8,56.2c-0.1,0-0.4-0.1-0.7-0.2
		C196.3,56.1,196.5,56.2,196.8,56.2z M196.4,47.2c0.1,0.1,0.1,0.2,0.1,0.4C196.5,47.4,196.5,47.3,196.4,47.2
		C196.4,47.1,196.4,47.1,196.4,47.2C196.4,47.2,196.4,47.2,196.4,47.2z M192.7,48.3c-0.6-3.3-1.7-4.1-2.3-4.3c-1-0.4-2-0.2-2.2-0.1
		c-0.2,0.1-1.6-0.1-1.9,0.1c-1.4,0.7-1.8,4.1-2,4.5l0.8,0.8c1-1.6,2.4-3.6,3.1-4.1c0.2-0.1,1.4,2.6,1.6,6.7c0.1,2.5,1,3.8,1.6,4.3
		c0.1,0,1.3,0.5,1.4-1.5c0-0.5-0.6-3.1-1.4-4c-0.2-0.2-0.7-0.9-0.4-0.8c1.2,0.3,2.3,1.5,2.9,1.9c0.2,0.1,0,0-0.1-0.3
		c0-0.1-0.9-1.5-0.9-2.9c0-0.2,1.5,1.2,2,2c0,0.1,0.1,0.1,0.1,0c-0.1,0-0.1-0.1-0.2-0.2C193.4,48.6,192.8,48.6,192.7,48.3z
		 M188.1,45.1c-0.5,0.4-2.2,2.2-2.8,2.3c-0.2,0-0.1-1.3,0-1.5c0.1-0.4,0.3-2,1.6-2C187.2,44,188.7,44.7,188.1,45.1z M197,51.6
		c0-0.6,0-1,0-1.3C197,50.8,197,51.4,197,51.6z M197.3,56.2c0.1,0,0.2,0,0.2,0c0.5-0.1,0.8-0.4,0.9-0.8
		C198.3,55.8,198,56.1,197.3,56.2z M199.7,49.3c0-0.1,0-0.1-0.1-0.1c0,0.2-0.1,0.6-0.5,1.5C199.3,50.2,199.6,49.5,199.7,49.3z
		 M191.8,56.4c0.2,0.1,0.4,0.2,0.5,0.2c0.4,0,0.6-0.1,0.9-0.2c-0.1,0-0.2,0.1-0.4,0.1C192.7,56.6,192.2,56.6,191.8,56.4z"/>
	<path d="M187.7,37.3c-0.4,0.1,0.7-4.2,0.8-4.3c0.1-0.2,0.3-0.5,0.6-0.8c-1.8,1.7-2.6,6-2.6,6.3l1.5,0.8c0.3-0.3,1.5-1.7,1.8-2.2
		c0.9-1.3,1-2.3,1.2-2.7c-0.1,0.1-0.2,0.2-0.2,0.3C190.6,35,188.8,36.9,187.7,37.3 M195.2,35.4c0-0.2,0.4,0.9,0.5,1.1
		c0.1,0.2,0.4,1.8,0.4,2.4c0.1-0.3,0.5-1.1,1-1.8c-0.1,0.1-0.1,0.1-0.2,0.2c-0.6,0.7-0.6-0.7-0.6-1.1c0-2.3-1.4-3.6-2.2-4.3
		c-0.8-0.8-1.5-0.3-1.7-0.2s-1.2,0.1-1.8,0c-0.2,0-0.4,0-0.6,0c0.2,0,0.3,0,0.4,0.1c0.8,0.5,1.3,2,1,2.2c0,0,0,0,0,0.1
		c-0.1,0.7-0.4,4.9,0,6.1c0.2,0.6,0.6,0.8,0.9,0.9c-0.2-0.1-0.3-0.1-0.4-0.2c-0.2-0.2,1.2,0.4,0.9-0.7c-0.1-0.5-1-1-1-2.4
		c0-0.4,0.2-1.7,0.3-1.7c0.2,0,0.4,0.8,0.6,1.1c0.1,0.3,1.1,0.9,1.1,1.3c0,0.4,0.1-1.3,0.7-1.8C195,36.3,195.2,35.6,195.2,35.4z
		 M193,41.1c0.1,0,0.2,0,0.3,0c-0.2,0-0.3,0-0.4,0C192.9,41,193,41.1,193,41.1z M192.9,41C192.9,41,192.9,41,192.9,41
		c0,0-0.1,0-0.1,0C192.8,41,192.9,41.1,192.9,41z M196.5,41.2c-0.3,0-1.1-0.1-1.9-0.1C195.1,41.2,195.6,41.3,196.5,41.2z
		 M196.6,41.2c0.3,0,0.5-0.2,0.6-0.4C197,41,196.8,41.2,196.6,41.2z"/>
	<path d="M172.6,66.4c0.4-0.2,0.6-0.5,0.9-0.7c3.5-3.5,8.5-13.6,9.8-13.9c1.9-0.4,1.9-1.5,1.9-1.7c0-0.2,0.1-0.4,0.1-0.6
		c0.1-0.2-1-1.1-1.2-1c-0.5,0.1-0.7-0.1-0.5-0.3c0.9-1,2.4-6,2.9-6.3c1.8-1.1,1.5-2.5,1.4-2.7c-0.1-0.3-0.9-0.6-1.2-0.7
		c-0.3-0.2-0.3-0.1-0.4,0.1c0,0.1-0.5,0.5-0.5,0.2c0.8-3.6,0.3-6.1,0.5-6.1c1.9-0.6,1.8-1.4,1.8-1.7c0-0.2,0-1.5-1-1.5
		c-1-0.1-1.3,0.5-1.4,0.6c0,0.1-0.4,0.3-0.4,0c0-0.6-0.2-2.2-0.2-2.5c-0.1-0.2,0.2-1.3,0.4-1.3c0.8-0.1,0.7-1.2,0.7-1.5
		c0-0.4-0.1-0.5-0.2-0.7c-0.1-0.1-0.4-0.3-0.8-0.3c-0.8,0-0.8,1.7-0.8,1.8c0,0.1-0.2,0.2-0.3,0.3c-0.1,0.1-0.4,0.2-0.4,0
		c0-0.5-0.9-2.3-0.8-2.5c0.6-1.1,0.5-1.4,0.5-1.7c0-0.4-0.2-1.3-1.2-0.7c-0.3,0.2-0.4,0.9-0.5,1.1c0,0.2-0.2,0.2-0.2,0
		c-0.3-0.7-1.7-1.6-1.6-1.8c0-0.5,0-1.1,0-1.2c0-0.2,0-0.4-0.1-0.6c-0.1-0.3-1-0.6-1.3,0c-0.2,0.3,0,1.3,0,1.3
		c-0.6,0.2-1.5-0.9-1.8-1.2c-0.3-0.3-0.2-0.9-0.2-1.6c0-0.7-0.9-0.4-1.4-0.4c-0.3,0-0.1,1,0.1,1.3c0.1,0.3-0.9-0.2-1.3-0.4
		c-0.4-0.2-0.6-0.8-0.7-1.2c-0.1-0.4-0.7-0.2-1.3-0.2c-0.3,0,0,0.8,0.2,1.1c0.2,0.3-1-0.2-1.5-0.5c-0.5-0.3-0.7-0.6-0.7-1
		c0-0.3-0.3-0.6-1-0.3c-0.7,0.2,0,0.7,0.1,0.9c0,0.1-1.3,0.4-1.5,0c-0.2-0.3-0.5-0.7-1.1-0.5c-0.6,0.2,0.2,0.8-0.1,0.9
		c-2.6,0.3-3.1,1.2-2.2,0.9c1.7-0.6,5.7-0.2,6.4,0c23.7,6.7,10.5,35.1,0.7,45.6c0,0,0.2,0.2,0.3,0.2c0.1,0,0.6,0.1,0.9,0.7
		c0.1,0.2,0.5,1.1,0.3,2.2C172.6,66.3,172.6,66.4,172.6,66.4"/>
	<path class="st3" d="M194.7,56c0.1,0.2,0,2.1-0.1,2.3c-0.1,0.3-0.9,3.9,0.3,5c0.3,0.2,1.2,0.5,0.7-1 M195.5,56c0,0.1-0.1,3,0.9,3
		 M194.2,56.1c0,0.1,0.3,2.6-0.8,2.8 M193.2,56.4c0,0.1,0.4,2.1-0.8,2.4 M197.5,56.2c-0.1,0.5,0.3,2.1,1,1.9 M196.6,56.2
		c-0.1,0.6,0.2,2.7,1.1,2.5 M195,41.2c0,0.1-0.2,0.9-0.3,1.1c-0.1,0.2-0.3,1-0.1,1.4c0.2,0.3,0.1,1.4-0.1,1.7
		c-0.3,0.5-0.4,2.7,0.3,2.3c0.3-0.1,0.3-0.4,0.3-0.8 M196.3,41.3c-0.2,0.7-0.1,1.3,0.1,1.9c0.1,0.3,0.2,0.5,0.4,0.5 M195.6,41.2
		c-0.2,0.7-0.2,1.3-0.1,1.9c0.1,0.3,0.2,0.5,0.4,0.5 M194,41c0,0.1,0,0.5-0.1,0.7c-0.1,0.2-0.3,0.7-0.2,1.4c0.1,0.4,0.1,0.4,0.4,0.4
		 M196.8,41.2c0.1,0.1,0.2,0.3,0.1,0.5c0,0.2-0.1,1.5,0.2,1.7c0.3,0.2,0.5,0.1,0.6,0 M193.2,41c0,0.1,0,0.4,0,0.5
		c-0.1,0.2-0.6,1.3-0.4,1.6c0.2,0.3,0.5,0.3,0.6,0.3 M188.2,45c-0.9,0.6-2.4,2.5-3,2.4 M185.5,44.8c-0.6,1.2,0,3.9-0.4,4.4
		 M186.8,43.9c1,0.1,1.5,0.8,2.1,2.4 M191,34.2c-0.6,1-2.4,3-3.3,3.1 M188.7,32.6c-0.4,1-1,2.6-1.1,6.3 M190.2,31.5
		c0.3,0,1.8,0.5,1.3,3.1 M191.9,40.6c0.6,0.6,1.5,0,1.1-0.7c-0.4-0.7-1.3-1.6-0.7-3.8c0.2-0.6,0.4,0.5,0.6,0.9
		c0.2,0.4,1.1,0.6,1.1,1.6c0,0.1,0-1.3,0.5-1.8c0.2-0.2,0.7-1,0.7-1.5c0-0.4,0.3,1,0.6,1.3c0.2,0.3,0.3,1.6,0.2,2.5
		c0,0.3,0.4-1.4,1.1-2 M191.3,56c1.2,0.6,1.6-0.3,1.5-1.4c-0.1-1.1-0.7-3.4-1.3-3.9c-1.4-1.2-0.3-0.9,0.9-0.1c0.7,0.4,2,1.9,1.5,1.1
		c-0.5-0.8-1-2-1.1-3.1 M184.1,48.8c0.4-0.4,0.8-4.1,2.2-4.8c0.3-0.1,1.7,0,1.9-0.1c0.2-0.1,1.2-0.4,2.2,0.1c0.6,0.3,1.7,1,2.3,4.3
		c0.1,0.3,0.7,0.2,2,2.1c0.1,0.1,0.3,0.7,0.5-0.2c0-0.2,1-3.6,1.2-3.2c0,0.1,0.4,1.5,0.5,2.6c0,0.6,0.1,1,0,2c0,0.4,0.1-0.2,1.5-1.6
		c0.2-0.3,1.4-1.3,1.1-0.6c-0.2,0.3-0.7,1.7-0.9,2.1c-0.2,0.3-0.3,1-0.2,1.2c0.1,1.1,0.8,3.2-0.8,3.4c-1.2,0.2-1.1-0.3-2.5-0.2
		c-1.9,0.1-1.7,0.7-2.7,0.6c-0.4,0-2.3-0.8-2.5-4.8c-0.2-4.1-1.4-6.8-1.6-6.7c-0.7,0.5-2.3,2.8-3.3,4.4 M186.3,39.1
		c0.1-0.4,1.5-7.9,4.4-7.6c0.6,0.1,1.7,0.1,1.8,0s0.8-0.5,1.7,0.2c0.8,0.8,2.2,2.1,2.2,4.3c0,0.5,0,1.8,0.6,1.1
		c0.3-0.3,2-1.8,1.3-0.7c-0.5,0.8-0.6,1.4-0.6,1.9c0,0.6,0,2.7-1.1,2.7c-1.7,0.1-1.9-0.3-3.5-0.2c-0.4,0-1.1-0.1-1.4-1
		c-0.4-1.2-0.1-5.4,0-6.1c0-0.3-0.5,0.1-0.6,0.3c-0.2,0.3-0.2,1.3-1.2,2.9c-0.3,0.5-1.7,2.1-2,2.3"/>
	<path d="M159.3,59.1c-0.1,0.7,1,1.4,2.4,1.5c1.4,0.1,2.5-0.4,2.6-1.1c0.1-0.7-1-1.4-2.4-1.5C160.5,57.8,159.3,58.3,159.3,59.1"/>
	<rect x="148.2" y="57" width="6.8" height="2.5"/>
	<polyline points="172.6,60.3 171.5,61.9 168.7,59.7 172.1,58.5 172.6,60.3 	"/>
	<path class="st3" d="M165.3,53.5c-0.1,0.4-0.5,0.8-1,0.7l-3.7-0.4c-0.5-0.1-0.8-0.5-0.8-0.9c0.1-0.4,0.5-0.8,1-0.7l3.7,0.4
		C165,52.7,165.4,53.1,165.3,53.5z M164.7,52.6c-0.3-1.5,1-1.5,1.4-1.4c1.5,0.6,0.1,3.1,0.1,3.1c5.1-2.4,0.1-7.8-1.9-4.4
		c-0.2,0.3,1.8-2.5-0.5-6.9c-3.3,3.8-2,7-2.1,6.6c-1.2-3.8-7.3,0.2-2.9,3.8c0,0-0.7-2.8,0.8-3c0.5-0.1,1.6,0.3,1,1.6 M168.8,59.7
		l3.9,0.6"/>
	<path class="st4" d="M173.2,47.9c4.7-10.6-2.2-13.2-4.8-13.1c-5.6,0.2-5.5,3.5-12.6,3.8"/>
	<path class="st3" d="M156.9,35.4c5.9-0.1,4.9-3.2,11.6-3.3c4.4-0.1,12.9,2.8,7.2,16.5"/>
	<path class="st4" d="M152.7,28.5v2.8h2.8 M150.6,28.5l0,2.8h-2.8 M147.7,33.2h7.8 M150.4,36.2c-1.6-0.5-2.8-2-2.8-3.8
		c0-2.2,1.8-4,4-4c2.2,0,4,1.8,4,4c0,1.8-1.2,3.3-2.8,3.8 M153.1,24.7c1.3,0.4,3,1.6,3,1.6v-4.6c0,0-1.8,1.2-3.1,1.6 M150.2,24.7
		c-1.3,0.4-3.1,1.6-3.1,1.6v-4.6c0,0,1.8,1.2,3.1,1.6 M154.8,30c0,0-1.9-2.9-2.3-4.7 M150.7,25.4c-0.4,1.8-2.3,4.6-2.3,4.6
		 M150.9,22.6c-0.4-1.3-1.6-3.1-1.6-3.1h4.6c0,0-1.2,1.8-1.6,3.1"/>
	<path class="st3" d="M172.6,60.3l-1.1,1.6l-2.8-2.2l3.3-1.3L172.6,60.3z M148.2,57h6.8v2.5h-6.8V57z M164.1,59.4
		c0,0.7-1.2,1.3-2.5,1.2c-1.4-0.1-2.4-0.7-2.4-1.5c0-0.7,1.2-1.3,2.5-1.2C163.1,58,164.2,58.6,164.1,59.4z M172.9,52.3
		C172.9,52.2,172.8,52.2,172.9,52.3c-1.1-0.4-2.8-3.4-2.8-3.4l-1.9,6.2c0,0,3-1.6,4.1-1.3c0.1,0,0.1,0,0.1-0.1 M172.8,52.3
		c0.4-1.3-1.8-5-1.8-5l5.1,1.5c-0.5,1.1-1.1,2.3-1.6,3.5 M173.4,54.8c-0.5,1.2-0.9,2.5-1.2,3.9 M160.8,53.9c-0.9,1-2.4,1.6-4,1.4
		c-2.4-0.3-4.2-2.1-4-4.2 M172.4,53.8c-0.5,1.6-2.4,2.8-4.5,2.7c-1.8-0.1-3.3-1-3.9-2.3 M153.1,45.2c0,0,0.2-3.2,0.5-5.6
		c0.4-2.5,1.7-5.5,1.7-5.5h2.2c0,0-1.4,2.9-2,5.5c-0.5,2.2-0.7,5.6-0.7,5.6 M150.5,49.5c-1.1,0-3.5-2.4-3.5-2.4v6.5
		c0,0,2.4-2.4,3.5-2.4 M152.7,49.5c1.1,0,3.5-2.4,3.5-2.4v6.5c0,0-2.4-2.4-3.5-2.4 M150.5,49.3c-0.3-1.4-3.1-4.1-3.1-4.1h8.4
		c0,0-2.7,2.6-3.1,4"/>
	<path class="st5" d="M130.8,58l0.5-1.9c0.4,0.9,2.3,1.5,4.5,1.3c2.3-0.2,4.2-1.1,4.3-2.1l1,1.6l0.6-1.9c0.4,1.2,2.6,1.8,5,1.3
		c2.3-0.4,4-1.6,4.2-2.8l0.7,2.4l0.7-2.4c0.2,1.2,1.9,2.4,4.2,2.8c2.4,0.5,4.6-0.1,5-1.3l0.6,1.9l1-1.6c0.2,1,2,2,4.3,2.1
		c2.2,0.2,4-0.4,4.5-1.3l0.5,1.9"/>
	<path class="st4" d="M158,34.4c-0.8-0.7-0.9-1.9-0.2-2.7c0.7-0.8,1.9-0.9,2.7-0.2c0.8,0.7,0.9,1.9,0.2,2.7
		C160,35,158.8,35.1,158,34.4z M158,34.4c-0.8-0.7-0.9-1.9-0.2-2.7c0.7-0.8,1.9-0.9,2.7-0.2c0.8,0.7,0.9,1.9,0.2,2.7
		C160,35,158.8,35.1,158,34.4z M161.8,32.5c-0.8-0.7-0.9-1.9-0.2-2.7c0.7-0.8,1.9-0.9,2.7-0.2c0.8,0.7,0.9,1.9,0.2,2.7
		C163.8,33.1,162.6,33.2,161.8,32.5z M161.8,32.5c-0.8-0.7-0.9-1.9-0.2-2.7c0.7-0.8,1.9-0.9,2.7-0.2c0.8,0.7,0.9,1.9,0.2,2.7
		C163.8,33.1,162.6,33.2,161.8,32.5z M170.2,31.8c-0.8-0.7-0.9-1.9-0.2-2.7c0.7-0.8,1.9-0.9,2.7-0.2c0.8,0.7,0.9,1.9,0.2,2.7
		C172.2,32.4,171,32.5,170.2,31.8z M170.2,31.8c-0.8-0.7-0.9-1.9-0.2-2.7c0.7-0.8,1.9-0.9,2.7-0.2c0.8,0.7,0.9,1.9,0.2,2.7
		C172.2,32.4,171,32.5,170.2,31.8z M174.1,33.4c-0.8-0.7-0.9-1.9-0.2-2.7c0.7-0.8,1.9-0.9,2.7-0.2c0.8,0.7,0.9,1.9,0.2,2.7
		C176.1,33.9,174.9,34,174.1,33.4z M174.1,33.4c-0.8-0.7-0.9-1.9-0.2-2.7c0.7-0.8,1.9-0.9,2.7-0.2c0.8,0.7,0.9,1.9,0.2,2.7
		C176.1,33.9,174.9,34,174.1,33.4z M177,36.4c-0.8-0.7-0.9-1.9-0.2-2.7s1.9-0.9,2.7-0.2c0.8,0.7,0.9,1.9,0.2,2.7
		C179,37,177.8,37.1,177,36.4z M177,36.4c-0.8-0.7-0.9-1.9-0.2-2.7s1.9-0.9,2.7-0.2c0.8,0.7,0.9,1.9,0.2,2.7
		C179,37,177.8,37.1,177,36.4z M178.2,40.5c-0.8-0.7-0.9-1.9-0.2-2.7s1.9-0.9,2.7-0.2c0.8,0.7,0.9,1.9,0.2,2.7
		C180.3,41,179,41.2,178.2,40.5z M178.2,40.5c-0.8-0.7-0.9-1.9-0.2-2.7s1.9-0.9,2.7-0.2c0.8,0.7,0.9,1.9,0.2,2.7
		C180.3,41,179,41.2,178.2,40.5z M178.1,44.7c-0.8-0.7-0.9-1.9-0.2-2.7c0.7-0.8,1.9-0.9,2.7-0.2c0.8,0.7,0.9,1.9,0.2,2.7
		C180.2,45.3,179,45.4,178.1,44.7z M178.1,44.7c-0.8-0.7-0.9-1.9-0.2-2.7c0.7-0.8,1.9-0.9,2.7-0.2c0.8,0.7,0.9,1.9,0.2,2.7
		C180.2,45.3,179,45.4,178.1,44.7z M177.1,48.8c-0.8-0.7-0.9-1.9-0.2-2.7c0.7-0.8,1.9-0.9,2.7-0.2c0.8,0.7,0.9,1.9,0.2,2.7
		C179.1,49.4,177.9,49.5,177.1,48.8z M177.1,48.8c-0.8-0.7-0.9-1.9-0.2-2.7c0.7-0.8,1.9-0.9,2.7-0.2c0.8,0.7,0.9,1.9,0.2,2.7
		C179.1,49.4,177.9,49.5,177.1,48.8z M150.7,25.2c-0.6-0.5-0.7-1.5-0.2-2.1c0.5-0.6,1.5-0.7,2.1-0.2c0.6,0.5,0.7,1.5,0.2,2.1
		C152.2,25.6,151.3,25.7,150.7,25.2z M150.7,25.2c-0.6-0.5-0.7-1.5-0.2-2.1c0.5-0.6,1.5-0.7,2.1-0.2c0.6,0.5,0.7,1.5,0.2,2.1
		C152.2,25.6,151.3,25.7,150.7,25.2z"/>
	<path class="st3" d="M150.7,51.5c-0.6-0.5-0.7-1.5-0.2-2.1c0.5-0.6,1.5-0.7,2.1-0.2c0.6,0.5,0.7,1.5,0.2,2.1
		C152.2,51.9,151.3,52,150.7,51.5z M150.7,51.5c-0.6-0.5-0.7-1.5-0.2-2.1c0.5-0.6,1.5-0.7,2.1-0.2c0.6,0.5,0.7,1.5,0.2,2.1
		C152.2,51.9,151.3,52,150.7,51.5z M150.7,44.8c-0.6-0.5-0.7-1.5-0.2-2.1c0.5-0.6,1.5-0.7,2.1-0.2c0.6,0.5,0.7,1.5,0.2,2.1
		C152.2,45.3,151.3,45.3,150.7,44.8z M150.7,44.8c-0.6-0.5-0.7-1.5-0.2-2.1c0.5-0.6,1.5-0.7,2.1-0.2c0.6,0.5,0.7,1.5,0.2,2.1
		C152.2,45.3,151.3,45.3,150.7,44.8z M150.6,42.5c-0.5-0.5-0.6-1.4-0.1-2c0.5-0.6,1.5-0.7,2.1-0.2c0.6,0.5,0.7,1.5,0.2,2.1
		c0,0-0.1,0.1-0.1,0.1 M150.6,40.4c-0.5-0.5-0.6-1.4-0.1-2c0.5-0.6,1.5-0.7,2.1-0.2c0.6,0.5,0.7,1.5,0.2,2.1c0,0-0.1,0.1-0.1,0.1
		 M150.6,38.2c-0.5-0.5-0.6-1.4-0.1-2c0.5-0.6,1.5-0.7,2.1-0.2c0.6,0.5,0.7,1.5,0.2,2.1c0,0-0.1,0.1-0.1,0.1 M150.6,36
		c-0.5-0.5-0.6-1.4-0.1-2c0.5-0.6,1.5-0.7,2.1-0.2c0.6,0.5,0.7,1.5,0.2,2.1c0,0-0.1,0.1-0.1,0.1 M172.4,53.3
		c0.1-0.8,0.7-1.5,1.3-1.4c0.6,0,1.1,0.7,1,1.5c-0.1,0.8-0.7,1.5-1.3,1.4C172.7,54.7,172.3,54.1,172.4,53.3z M172.4,53.3
		c0.1-0.8,0.7-1.5,1.3-1.4c0.6,0,1.1,0.7,1,1.5c-0.1,0.8-0.7,1.5-1.3,1.4C172.7,54.7,172.3,54.1,172.4,53.3z"/>
	<path class="st4" d="M166,31.5c-0.8-0.7-0.9-1.9-0.2-2.7c0.7-0.8,1.9-0.9,2.7-0.2c0.8,0.7,0.9,1.9,0.2,2.7
		C168,32.1,166.8,32.2,166,31.5z M166,31.5c-0.8-0.7-0.9-1.9-0.2-2.7c0.7-0.8,1.9-0.9,2.7-0.2c0.8,0.7,0.9,1.9,0.2,2.7
		C168,32.1,166.8,32.2,166,31.5z"/>
	<path class="st3" d="M131,66.6c-0.7-0.7-0.8-1.1-0.5-2.2c0.1-0.4,1-1.6,1.6-1.6c0.2,0,0.6-0.1,0.9,0c0.4,0.1,0.6-0.4,1.6-0.1
		c0.1,0,0.3,0.1,0.4,0.2c0.1,0.1,1-0.9,2.2-0.5c0.1,0,0.4,0.1,0.4,0.2c0.1,0.1,0.8-0.7,2-0.4c0.1,0,0.4,0.1,0.5,0.2
		c0.1,0.1,0.8-0.6,1.9-0.3c0.1,0,0.3,0.1,0.5,0.2c0.1,0.1,0.8-0.6,1.9-0.3c0.1,0,0.4,0.2,0.5,0.2c0.1,0,0.6-0.5,2-0.3
		c0.1,0,0.3,0.1,0.4,0.2c0.1,0.1,0.8-0.5,2-0.2c0.1,0,0.4,0.1,0.6,0.2c0.1,0.1,0.8-0.5,1.8-0.2c0.1,0,0.4,0.1,0.5,0.2
		c0.1,0.1,0.6-0.5,2-0.2c0.1,0,0.3,0.1,0.4,0.2c0.1,0.1,0.9-0.6,2.1-0.1c0.1,0.1,0.3,0.1,0.3,0.2c0.1,0.1,1-0.5,2.1-0.1
		c0.1,0,0.3,0.1,0.4,0.2c0.1,0.1,0.9-0.5,2-0.1c0.1,0.1,0.3,0.2,0.4,0.2c0.1,0,0.8-0.5,1.9-0.1c0.1,0.1,0.3,0.2,0.4,0.3
		c0.1,0.1,0.9-0.5,1.9,0c0.1,0.1,0.4,0.2,0.5,0.2c0.1,0.1,0.9-0.5,2,0c0.1,0.1,0.3,0.2,0.4,0.2c0.1,0.1,1-0.5,2.1,0
		c0.2,0.1,0.3,0.2,0.5,0.3c0.1,0.1,0.4,0,0.7,0.3c0.1,0.1,1,1.3,0.4,3.2"/>
	<path d="M165.9,67.1c0.1-0.1,1.4-1.2,4-0.5c0.2,0.1,1.2,0.3,1.8,0.1c0.2-0.1,2.4-0.7,3.7,0.1c0.2,0.2,2.2,1.6,2.3,3.8
		c0,0.3-0.1,1.2-0.1,1.3c0,0.1-8.9-0.7-8.9-0.8c0-0.1-0.9-1.8-1-1.9c-0.1-0.2-1-1.6-1.6-1.9C166,67.2,165.9,67.1,165.9,67.1"/>
	<path d="M149,66.7c0.1-0.1,1.7-1,4.1-0.2c0,0,0.7,0.1,1.4-0.1c0.2-0.1,2.1-0.6,3.8,0.6c0.1,0.1,1,0.7,1.7,2.1
		c0.1,0.1,0.9,1.6,0.9,1.6c0.1,0.1-9.5-0.1-9.5-0.2c-0.1-0.1-0.3-0.8-0.4-1.2c0-0.2-0.6-1.5-1.4-2.2C149.4,66.9,149,66.7,149,66.7"
		/>
	<path d="M131.7,67c0.1-0.1,1.6-1.1,4.2-0.5c0.1,0,0.9,0,1.1-0.1c0.3-0.1,2-0.6,3.3,0.2c0.2,0.1,1.3,0.7,2.1,2.3
		c0.1,0.1,0.8,1.5,0.9,1.6c0.1,0.1-9.2,0.5-9.2,0.4c-0.2-0.3-0.5-1.5-1.3-2.8c-0.1-0.1-0.5-0.7-0.9-1C131.7,67,131.7,67,131.7,67"/>
	<path d="M134.1,70.9c0.1,0,7.7-0.5,9.2-0.4c0.1,0,0.8,1.4,2.2,2.3c0.1,0-1.5,1.1-3.7,0.6c-0.1,0-1.6-0.6-2.6-0.1
		c-0.1,0.1-1.8,0.9-3.5-0.4c-0.1-0.1-1.2-1.1-1.4-1.7C134.3,71.2,134.1,70.9,134.1,70.9"/>
	<path d="M151.3,70.4c0.1,0,7.2,0.1,9.5,0.2c0.1,0,0.7,1.3,1.9,2.3c0.1,0-1.6,1.2-4,0.4c-0.2-0.1-0.9-0.5-2.5-0.2
		c-0.2,0-2.5,0.5-3.9-1c-0.2-0.2-0.6-0.7-1-1.4C151.3,70.5,151.3,70.4,151.3,70.4"/>
	<path d="M168.7,71.1c0.1,0,5.9,0.4,8.9,0.8c0.1,0-0.6,2.2-2.4,1.9c-0.2,0-1.1-0.4-2.9-0.1c-0.1,0-1.1,0.4-2.2-0.5
		c-0.2-0.2-0.7-0.7-1-1.4C168.9,71.5,168.7,71.1,168.7,71.1"/>
	<path class="st4" d="M158.1,66.9c0.1-0.1,1.4-1.2,4.1-0.1c1,0.4,2.5-0.6,3.9,0.5c2.4,2,2.8,6.3,5.3,6.5c0.8,0,1.9-0.5,3.6,0
		c2.2,0.6,4.3-3.4,0.8-6.6c-0.5-0.4-1.4-1.2-4.1-0.5c-0.4,0.1-1,0.2-2.3-0.2c-0.4-0.1-2.3-0.4-3.5,0.6 M149,66.7
		c0.1-0.1,1.6-0.9,3.9-0.2c0.2,0.1,0.8,0.2,1.7-0.1c0.2-0.1,3-0.8,4.7,1.8c1.3,1.9,2.4,5.7,5.6,5.3c0.2,0,1.5-0.2,2.4,0.2
		c0.3,0.1,1.9,0.6,3.1-0.1 M140.3,66.7c0.3,0,0.4,0.2,1.8-0.4c0.4-0.2,1.4-0.5,2.8,0.1c0.5,0.2,1.1,0,1.4-0.1c0.2-0.1,3.2-0.8,4.5,3
		c0.1,0.3,0.9,3.8,3.8,4c1.6,0.1,2.5-0.5,4,0.1c0.3,0.1,2.6,0.8,4-0.4 M131.7,67c0.2-0.1,1.6-1.1,4.2-0.5c0.2,0,0.7,0,1.3-0.1
		c1.2-0.3,2.9-0.5,4.6,1.5c1.2,1.4,1.2,3.2,3.7,4.9c0.2,0.1,1.5,0.8,3.1,0.2c0.2-0.1,0.8-0.2,1.4,0c0.7,0.2,2.4,0.2,3.2-0.2
		 M135.9,73.1c-0.2,0.1-1.6,0.9-3.7,0.4c-1.4-0.3-3.1,1.6-5.4-0.7c-2.2-2.2-0.6-6.5,3.2-6.5c0.1,0,2.2-0.3,3.8,3.8
		c0.1,0.3,1.8,4.8,5.6,3c0.2-0.1,0.7-0.4,2.3,0.1c1.2,0.4,2.9,0.1,3.8-0.6"/>
	<path d="M127,68.6c-0.1,0.2-0.8,2.8,2.1,4.4c0.2,0.1-0.5-0.3-0.3-3.5c0-0.2,1.3,2.7,4.8,2.5c0,0-0.7-0.4-1-1.5
		c-0.1-0.2-1.2-2.7-2.9-3.7c-0.1,0,0.9,0.8,1.3,2.4c0.1,0.3,0.3,1,0.4,1.1c0.1,0.1-1.4-0.4-2.8-1.8c0,0-0.5,2.1-0.2,2.8
		c0.1,0.2-1.1-1-1.3-2.3C127,68.7,127,68.6,127,68.6"/>
	<path d="M142.4,67.4c1.7,0.4,2.6,2.4,3.5,2.9c0.1,0.1-0.9-1.4-0.9-3c0-0.1,2.2,1.5,2.6,1.9c0.1,0.1,1.3,1.2,1.5,1
		c0.1-0.1-1.1-2.2-2.1-3.2c-0.1-0.1,1.2,0.1,3.4,3.7c0.2,0.3,0.6,1,0.8,1.1c0,0-2.7,0.1-5.4-3c-0.1-0.1,0.5,1.6,2,3.2
		c0.1,0.1-2.3,0.1-4.1-2.8c-0.1-0.2-0.7-1.3-1.3-1.7C142.6,67.4,142.4,67.4,142.4,67.4"/>
	<path d="M159.9,67.5c1.7,0.6,2.5,2.4,3.4,3.4c0.1,0.1-0.9-0.8-0.5-3.1c0-0.1,0.6,1,1.8,2.1c0.1,0.1,1.5,1.2,1.7,1.1
		c0.2-0.1-0.7-2.2-1.7-3.3c-0.1-0.2,1.2,0.2,3.1,3.8c0.1,0.3,0.8,1,1,1.2c0,0-2.4,0.6-5.4-3.4c-0.1-0.1,0.2,1.5,1.6,3.2
		c0.1,0.1-2.2,0.1-3.8-3c-0.1-0.2-0.6-1.4-1.1-1.8C160,67.6,159.9,67.5,159.9,67.5"/>
	<path d="M148.5,64.2c1.6,0.1,1.7,0.9,3.8,0.9c1.1,0,1.9-0.4,1.7-0.4c-0.8,0-1.9,0.3-3-0.5c-0.1-0.1,1.9,0,2.9-0.2
		c-1-0.2-3-0.1-2.9-0.2c1.1-0.8,2.2-0.5,3-0.5c0.3,0-0.6-0.4-1.7-0.4c-2.1,0-2.2,0.8-3.8,0.9V64.2"/>
	<path d="M157,64.2c1.6,0.2,1.6,1,3.7,1.2c1.1,0.1,2-0.2,1.7-0.2c-0.8-0.1-1.9,0.2-3-0.7c-0.1-0.1,1.9,0.1,2.9,0
		c-1-0.2-2.9-0.3-2.9-0.4c1.1-0.7,2.2-0.3,3-0.2c0.3,0-0.5-0.4-1.6-0.5c-2.1-0.1-2.3,0.7-3.8,0.7L157,64.2"/>
	<path d="M164.9,64.6c1.6,0.3,1.6,1.1,3.7,1.3c1.1,0.1,2-0.2,1.7-0.2c-0.8-0.1-2,0.2-2.9-0.7c-0.1-0.1,1.9,0.2,2.9,0.1
		c-1-0.3-2.9-0.4-2.9-0.4c1.1-0.7,2.2-0.3,3-0.2c0.3,0-0.5-0.4-1.6-0.5c-2.1-0.2-2.3,0.6-3.8,0.6L164.9,64.6"/>
	<path d="M140.3,64.5c1.6,0,1.7,0.8,3.8,0.7c1.1-0.1,1.9-0.5,1.6-0.5c-0.8,0.1-1.9,0.5-3-0.2c-0.1,0,1.9-0.1,2.9-0.4
		c-1-0.1-3,0.1-2.9,0c1-0.9,2.1-0.6,3-0.7c0.3,0-0.6-0.3-1.7-0.2c-2.1,0.2-2.1,1-3.7,1.2L140.3,64.5"/>
	<path d="M132.5,65c1.6,0,1.7,0.8,3.8,0.6c1.1-0.1,1.9-0.5,1.6-0.5c-0.8,0.1-1.9,0.5-3-0.2c-0.1,0,1.9-0.2,2.9-0.4
		c-1-0.1-3,0.1-2.9,0.1c1-0.9,2.1-0.6,2.9-0.7c0.3,0-0.6-0.3-1.7-0.2c-2.1,0.2-2.1,1-3.7,1.3L132.5,65"/>
	<path class="st4" d="M126.9,48.5c0.5,1.2,1.1,2.4,1.7,3.7 M129.7,54.7c0.5,1.3,1,2.8,1.4,4.3"/>
	<path d="M126.5,48.4c0.4-0.3,0.3-1,0.7-0.6c0.6,0.7-0.5,0.9-0.7,0.8C126.3,48.5,126.4,48.4,126.5,48.4"/>
	<path d="M176.6,48.4c-0.4-0.3-0.3-1-0.7-0.6c-0.6,0.7,0.5,0.9,0.7,0.8C176.8,48.5,176.7,48.4,176.6,48.4"/>
	<path class="st3" d="M130.8,53.3c-0.1-0.8-0.7-1.5-1.3-1.4c-0.6,0-1.1,0.7-1,1.5c0.1,0.8,0.7,1.5,1.3,1.4
		C130.4,54.7,130.9,54.1,130.8,53.3z"/>
	<path class="st4" d="M174.4,52c0.4,0.3,0.6,0.8,0.4,1.6c-0.2,0.8-0.8,1.4-1.4,1.4 M176.2,48.5c-0.5,1.2-1.1,2.4-1.7,3.7
		 M173.4,54.7c-0.5,1.3-1,2.8-1.4,4.3 M171.6,61.5c0,0.3-0.1,1.5-0.2,1.8 M128.8,52c-0.4,0.3-0.6,0.8-0.4,1.6
		c0.2,0.8,0.8,1.4,1.4,1.4"/>
	<path class="st3" d="M148,41.1c-0.9-0.8-3.1-2.2-6-1.7c-3.6,0.7-3,0.7-3.3,0.4c-0.3-0.2-3.8-2.1-7.5-1.3c-0.6,0.1-2.6,1-2.7,1.6
		 M155.2,41.1c0.8-0.8,3.1-2.2,6-1.7c3.6,0.7,3,0.7,3.3,0.4c0.3-0.2,3.8-2.1,7.5-1.3c0.6,0.1,2.6,1,2.7,1.6 M172.4,53.3
		c0.1-0.8,0.7-1.5,1.3-1.4c0.6,0,1.1,0.7,1,1.5c-0.1,0.8-0.7,1.5-1.3,1.4C172.7,54.7,172.3,54.1,172.4,53.3z"/>
</g>
<text transform="matrix(1 0 0 1 293.6605 100.0678)"><tspan x="0" y="0" class="st6 st7">Government of </tspan><tspan x="342.8" y="0" class="st8 st7">Western Australia </tspan><tspan x="0" y="57.6" class="st6 st9">Department of</tspan><tspan x="286.5" y="57.6" class="st8 st9"> Housing</tspan></text>
</svg>
