<svg id="Layer_1" data-name="Layer 1" xmlns="http://www.w3.org/2000/svg" xmlns:xlink="http://www.w3.org/1999/xlink" viewBox="0 0 24 24"><defs><style>.cls-1{fill:url(#linear-gradient);}</style><linearGradient id="linear-gradient" x1="12" y1="23.15" x2="12" y2="0.85" gradientUnits="userSpaceOnUse"><stop offset="0" stop-color="#a68f3e"/><stop offset="1" stop-color="#ffe083"/></linearGradient></defs><title>ic_award_winner</title><path class="cls-1" d="M22.57,1.35A2.75,2.75,0,0,0,20,1a14.51,14.51,0,0,0-1.52.68h-13A14.57,14.57,0,0,0,4,1a2.77,2.77,0,0,0-2.58.34q-1.2,1-.85,3.3C1.12,8.17,5.68,9.74,7,10.14a10.2,10.2,0,0,0,2.86,2.78v2.37a4.42,4.42,0,0,0-1.64,3H7.7a1.62,1.62,0,0,0-1.42,1.59v3.22H17.84V19.93a1.67,1.67,0,0,0-1.48-1.59h-.61a5.7,5.7,0,0,0-1.52-3V12.92A10,10,0,0,0,17,10.13c1.36-.4,5.85-2,6.39-5.47C23.66,3.11,23.37,2,22.57,1.35ZM1.81,4.47c-.12-.74-.14-1.72.4-2.15a1.57,1.57,0,0,1,1.35-.17c.46.18,1.24.51,1.66.69a12.85,12.85,0,0,0,.9,5.68C4.5,7.86,2.13,6.57,1.81,4.47ZM16.22,19.54c.11,0,.41.15.41.39v2H7.48v-2a.38.38,0,0,1,.29-.39Zm-3-7.45-.39.15V15.9l.35.19a3.45,3.45,0,0,1,1.36,2.25h-5a3.49,3.49,0,0,1,1.3-2.25l.29-.19V12.23l-.33-.15c-4.31-2.63-4.4-7.48-4.3-9.16H17.53C17.64,4.61,17.48,9.45,13.17,12.08Zm9-7.61c-.33,2.1-2.69,3.39-4.31,4a12.85,12.85,0,0,0,.9-5.68c.41-.18,1.19-.52,1.66-.69a1.57,1.57,0,0,1,1.35.17C22.33,2.75,22.3,3.73,22.19,4.47Z"/></svg>