<?xml version="1.0" encoding="utf-8"?>
<!-- Generator: Adobe Illustrator 20.1.0, SVG Export Plug-In . SVG Version: 6.00 Build 0)  -->
<svg version="1.1" id="Layer_1" xmlns="http://www.w3.org/2000/svg" xmlns:xlink="http://www.w3.org/1999/xlink" x="0px" y="0px"
	 viewBox="0 0 672 672" style="enable-background:new 0 0 672 672;" xml:space="preserve">
<style type="text/css">
	.st0{fill:#FFCD73;}
	.st1{fill:#BFAACE;}
	.st2{fill:#D1BEE5;}
	.st3{fill:#7A5899;}
	.st4{fill:#8C6AA5;}
	.st5{fill:none;}
	.st6{fill:none;stroke:#D1BEE5;stroke-width:20;stroke-linecap:round;stroke-linejoin:round;stroke-miterlimit:10;}
</style>
<g>
	<path class="st0" d="M165.7,256.3c0.3-1,0.6-2.1,0.9-3.1C166.3,254.2,166,255.3,165.7,256.3z"/>
</g>
<g>
	<path class="st1" d="M397.4,502.9c0-69.7,87.6-88.8,87.6-204.5c0-83.8-67.9-151.7-151.7-151.7c-83.8,0-151.7,67.9-151.7,151.7
		c0,115.7,87.6,134.8,87.6,204.5H397.4z"/>
	<path class="st2" d="M357.6,508.9c-3.3,0-6-2.7-6-6c0-45.3,16.2-68.8,31.8-91.6c13-18.9,25.4-36.9,28.1-67.5l-16.9,13.7
		c-2.4,2-6,1.7-8.1-0.5l-23.1-24.4L342,356.9c-1.1,1.3-2.8,2-4.5,2c-1.7,0-3.3-0.7-4.5-2l-21.5-24.3L288.4,357
		c-2.1,2.3-5.7,2.5-8.1,0.5l-16.9-13.7c2.7,30.6,15.1,48.6,28.1,67.5c15.6,22.7,31.8,46.2,31.8,91.6c0,3.3-2.7,6-6,6
		c-3.3,0-6-2.7-6-6c0-41.6-14.4-62.6-29.7-84.8c-15.1-22-30.8-44.7-30.8-87.2c0-2.3,1.3-4.4,3.4-5.4c2.1-1,4.5-0.7,6.3,0.7
		l22.9,18.5l23.8-25.1c1.2-1.2,2.8-1.9,4.4-1.9c1.7,0,3.3,0.8,4.4,2l21.4,24.1l21.4-24.1c1.1-1.3,2.7-2,4.4-2c1.8,0,3.3,0.7,4.4,1.9
		l23.8,25.1l22.9-18.5c1.8-1.4,4.3-1.7,6.3-0.7c2.1,1,3.4,3.1,3.4,5.4c0,42.5-15.7,65.3-30.8,87.2c-15.3,22.2-29.7,43.1-29.7,84.8
		C363.6,506.2,360.9,508.9,357.6,508.9z"/>
	<path class="st3" d="M261,529.3c0,40,32.4,72.4,72.4,72.4s72.4-32.4,72.4-72.4H261z"/>
	<path class="st4" d="M418.9,523.1c0-11.1-9.1-20.2-20.2-20.2H268.1c-11.1,0-20.2,9.1-20.2,20.2v28.1c0,11.1,9.1,20.2,20.2,20.2
		h130.6c11.1,0,20.2-9.1,20.2-20.2V523.1z"/>
</g>
<line class="st5" x1="165.7" y1="477.5" x2="108.8" y2="529.3"/>
<line class="st6" x1="153.7" y1="174" x2="85.8" y2="97.3"/>
<line class="st6" x1="178.3" y1="433.8" x2="112" y2="511.9"/>
<line class="st6" x1="485" y1="157.1" x2="545.3" y2="74.3"/>
<line class="st6" x1="515.2" y1="447.5" x2="588.7" y2="518.9"/>
<line class="st6" x1="137.2" y1="315.8" x2="63" y2="315.8"/>
<line class="st6" x1="609.9" y1="322.8" x2="551.9" y2="322.8"/>
<line class="st6" x1="321" y1="96.8" x2="321" y2="28"/>
</svg>
