<?xml version="1.0" encoding="utf-8"?>
<!-- Generator: Adobe Illustrator 20.1.0, SVG Export Plug-In . SVG Version: 6.00 Build 0)  -->
<svg version="1.1" id="Capa_1" xmlns="http://www.w3.org/2000/svg" xmlns:xlink="http://www.w3.org/1999/xlink" x="0px" y="0px"
	 viewBox="0 0 290 274" style="enable-background:new 0 0 290 274;" xml:space="preserve">
<style type="text/css">
	.st0{fill:#D1BEE5;}
	.st1{fill:#7A5899;}
	.st2{fill:#9E79B5;}
	.st3{fill:#8C6AA5;}
</style>
<polygon class="st0" points="142.3,153.1 62.7,107.6 14,135.3 142.3,208.6 270.6,135.3 221.9,107.6 "/>
<g>
	<polygon class="st1" points="142.3,208.6 62.7,163.1 14,190.7 142.3,264 270.6,190.7 221.9,163.1 	"/>
</g>
<g>
	<circle class="st2" cx="215.6" cy="112.8" r="5"/>
	<circle class="st2" cx="230.7" cy="127.9" r="5"/>
	<circle class="st2" cx="64.4" cy="112.8" r="5"/>
	<circle class="st2" cx="200.5" cy="127.9" r="5"/>
	<circle class="st2" cx="49.3" cy="127.9" r="5"/>
	<circle class="st2" cx="79.6" cy="127.9" r="5"/>
	<circle class="st2" cx="64.4" cy="143.1" r="5"/>
	<circle class="st2" cx="94.7" cy="143.1" r="5"/>
	<circle class="st2" cx="94.7" cy="173.3" r="5"/>
	<circle class="st2" cx="79.6" cy="158.2" r="5"/>
	<circle class="st2" cx="109.8" cy="158.2" r="5"/>
	<circle class="st2" cx="124.9" cy="173.3" r="5"/>
	<circle class="st2" cx="155.1" cy="173.3" r="5"/>
	<circle class="st2" cx="140" cy="158.2" r="5"/>
	<circle class="st2" cx="170.3" cy="158.2" r="5"/>
	<circle class="st2" cx="140" cy="188.4" r="5"/>
	<circle class="st2" cx="185.4" cy="143.1" r="5"/>
	<circle class="st2" cx="215.6" cy="143.1" r="5"/>
	<circle class="st2" cx="185.4" cy="173.3" r="5"/>
	<circle class="st2" cx="200.5" cy="158.2" r="5"/>
	<circle class="st2" cx="245.8" cy="143.1" r="5"/>
</g>
<polygon class="st3" points="270.6,79.8 142.3,153.1 14,79.8 142.3,7 "/>
</svg>
