<svg id="Layer_1" data-name="Layer 1" xmlns="http://www.w3.org/2000/svg" viewBox="0 0 118 162"><defs><style>.cls-1{fill:none;stroke:#96caff;stroke-miterlimit:10;stroke-width:4px;}</style></defs><title>4_omnichannel</title><polygon class="cls-1" points="89.06 45.77 114.22 45.77 114.22 159 3.51 159 3.51 45.77 28.67 45.77 89.06 45.77"/><path class="cls-1" d="M33.7,60.87V28.16a25.16,25.16,0,0,1,50.32,0V60.87"/><path class="cls-1" d="M66.13,121.26H76.48c4.75,0,7.55-2.52,7.55-7.55,0-2.52-2.52-7.55-7.55-7.55,0-9.07-8.25-15.1-17.61-15.1-8.29,0-16.14,7.49-17.61,15.1h0c-5,0-7.55,5-7.55,7.55q0,7.55,7.55,7.55H67.51"/></svg>