<svg id="human" xmlns="http://www.w3.org/2000/svg" width="324" height="324" viewBox="0 0 324 324">
  <defs>
    <style>
      .cls-1 {
        fill: #0ea6d2;
        opacity: 0.7;
      }

      .cls-2 {
        font-size: 40px;
        font-family: "Roboto Slab";
        font-weight: 300;
      }

      .cls-2, .cls-3 {
        fill: #fff;
      }

      .cls-3 {
        fill-rule: evenodd;
      }
    </style>
  </defs>
  <circle class="cls-1" cx="162" cy="162" r="162"/>
  <text id="Human-2" data-name="Human" class="cls-2" x="90" y="213.086">Human</text>
  <path class="cls-3" d="M187.02,161.984H136.977a6.284,6.284,0,0,1-5.206-3.192,6.448,6.448,0,0,1,.028-6.108l2.764-5.75c1.95-3.943,6.864-6.391,10.5-6.7a51.957,51.957,0,0,0,6.014-1.095,25.927,25.927,0,0,0,3.3-.94,4.451,4.451,0,0,0-.767-1.518,18.785,18.785,0,0,1-6.751-14.839c0-9.832,6.814-17.83,15.187-17.83s15.187,8,15.187,17.83a18.773,18.773,0,0,1-6.753,14.837,4.615,4.615,0,0,0-.759,1.5,28.137,28.137,0,0,0,3.252.916,50.284,50.284,0,0,0,5.956,1.054c3.753,0.325,8.564,2.7,10.495,6.6l2.772,5.6a7.087,7.087,0,0,1,.028,6.439A6.293,6.293,0,0,1,187.02,161.984Zm-24.972-55.157c-6.817,0-12.362,6.735-12.362,15.012a15.922,15.922,0,0,0,5.794,12.72,1.328,1.328,0,0,1,.273.272,6.844,6.844,0,0,1,1.569,4.139,1.413,1.413,0,0,1-.5,1.1c-0.251.211-1.01,0.856-5.107,1.808a56.1,56.1,0,0,1-6.414,1.157c-2.907.249-6.77,2.233-8.2,5.127l-2.764,5.749a3.8,3.8,0,0,0-.169,3.389,3.608,3.608,0,0,0,2.806,1.861H187.02a3.615,3.615,0,0,0,2.806-1.863,4.456,4.456,0,0,0-.16-3.7l-2.773-5.6c-1.4-2.836-5.272-4.792-8.2-5.045a54.164,54.164,0,0,1-6.359-1.116c-4.1-.957-4.825-1.588-5.065-1.794a1.407,1.407,0,0,1-.488-1.1,6.825,6.825,0,0,1,1.586-4.148,1.448,1.448,0,0,1,.254-0.253,15.9,15.9,0,0,0,5.793-12.711C174.41,113.562,168.865,106.827,162.048,106.827Z"/>
</svg>
