<svg id="Layer_1" data-name="Layer 1" xmlns="http://www.w3.org/2000/svg" viewBox="0 0 176 176"><defs><style>.cls-1{fill:#ded2f0;}</style></defs><title>ic_doscover</title><path class="cls-1" d="M176,43.79v56.42s-11.4,2.37-13.75,2.69-9.7,2.82-15-2.6c-8.22-8.35-37.45-39.12-37.45-39.12s-5-5.23-13.13-.7c-7.39,4.13-18.36,10.18-23,12.57A9.67,9.67,0,0,1,67.85,75c-5.59,0-10.12-4.8-10.12-10.72a10.69,10.69,0,0,1,6.68-10.07c10.54-6.75,32.51-19.81,41.67-25,5.6-3.14,9.63-3.41,17.31,3.42,9.46,8.44,17.87,16.11,17.87,16.11s3.94,1.92,7.12,1.45C155,49.2,176,43.79,176,43.79ZM59.7,139.39a10.78,10.78,0,0,0-1.77-11.11,9.4,9.4,0,0,0-9.39-2.53,10.58,10.58,0,0,0-2-10,9.42,9.42,0,0,0-9.39-2.52,10.64,10.64,0,0,0-2-10c-3.84-4.17-10.49-4-14.85.42S13.11,116,17,120.68s8.31,1.84,11.7,1c-.94,3.56-3.77,6.87-.29,11.53s8.31,1.84,11.7,1c-.95,3.55-3.65,7.2-.3,11.53s8.9,2,12.54.82c-1.41,3.84-4.42,8-.55,12.62s12.8,2.48,17.18-1.92,4.78-11.39.95-15.57A9.52,9.52,0,0,0,59.7,139.39Zm79.54-29.5c-31.39-33.24-16.61-17.59-33.57-35.57,0,0-5.11-5.39-11.84-2.26C89.12,74.24,83,77.23,78.46,79.5a28.71,28.71,0,0,1-10.35,3.64c-9.72,0-17.6-8.34-17.6-18.62a18.84,18.84,0,0,1,8.33-15.77C65.85,43.62,82,34.51,82,34.51s-4.91-6.6-15.69-6.6S33,43.53,33,43.53s-6.39,4.33-15.49.43L0,37.5V102s5,1.54,9.5,3.48a21.36,21.36,0,0,1,4.94-8.24c7.46-7.53,19.83-7.61,26.63-.21a18.21,18.21,0,0,1,4.2,7.9,16.89,16.89,0,0,1,7.21,4.65,18.08,18.08,0,0,1,4.21,7.89,16.91,16.91,0,0,1,7.21,4.66,18.58,18.58,0,0,1,4.46,8.66,17,17,0,0,1,7.53,4.78,19.5,19.5,0,0,1,4.64,16.26h0l0,0c.15.18,2.54,3,4.06,4.63a7.44,7.44,0,0,0,10.93,0,8.55,8.55,0,0,0,0-11.58c-.1-.1-.22-.18-.32-.28l0-.07C85.1,133.87,84.57,133.09,85.58,132s2.49,1.28,13.86,13.33a.64.64,0,0,0,.21.14,7.25,7.25,0,0,0,.74,1,7.44,7.44,0,0,0,10.93,0,8.55,8.55,0,0,0,0-11.58c-.16-.17-.34-.3-.51-.45s-.3-.37-.48-.55c-10.37-11-11.55-13.06-10.76-13.9s5.73,4.66,16.05,15.58h.07a7.42,7.42,0,0,0,10.65-.25,8.53,8.53,0,0,0,.51-10.92,1.09,1.09,0,0,0-.26-.54c-13.06-13.84-12.5-14-11.71-14.89s.85-.89,13.56,12.56c0,.05.08.12.13.18a7.44,7.44,0,0,0,10.94,0,8.56,8.56,0,0,0,0-11.58C139.42,110,139.33,110,139.24,109.89Z"/></svg>