<svg id="Layer_1" data-name="Layer 1" xmlns="http://www.w3.org/2000/svg" viewBox="0 0 176 176"><defs><style>.cls-1{fill:#da5653;}</style></defs><title>ic_grow</title><path class="cls-1" d="M57.35,125.47H81.06v5.4H57.35v4.45h74.56v-4.45H104.27v-5.4H135V108.13H57.35ZM41.7,50.23h103V95.87h14.68V37.66H27v33.9H41.7ZM3.67,150.5H54.23V74.56H3.67ZM30,146.28a3.95,3.95,0,1,1,4-3.95A4,4,0,0,1,30,146.28ZM14,84.78H43.92v49.29H14Zm124.47,14v53.76h35.22V98.75Zm18.33,2.5a1.08,1.08,0,1,1-1.1,1.08A1.08,1.08,0,0,1,156.77,101.25Zm-6.48,3.59h12.95v1H150.29Zm6.17,45.06a2.47,2.47,0,1,1,2.5-2.47A2.49,2.49,0,0,1,156.46,149.9ZM166.57,142c-8.24,0-16.94.08-21,0V108.79h21Z"/></svg>