<svg id="Layer_1" data-name="Layer 1" xmlns="http://www.w3.org/2000/svg" viewBox="0 0 176 176"><defs><style>.cls-1{fill:#4ac3e2;}</style></defs><title>ic_ideate</title><path class="cls-1" d="M77.82,78.94h0s0,0,0-.07A.32.32,0,0,0,77.82,78.94Zm0-.07a3.15,3.15,0,0,0-.07-.31A2,2,0,0,1,77.8,78.87Zm58.78.07h0Zm16.54-46c-12.82-15.75-49-26.87-79.51-18C41.48,24.36,25.32,45,23.2,81.44a21,21,0,0,1-2,7.83l-8.16,17a5.3,5.3,0,0,0-.12,4.29A5.13,5.13,0,0,0,16,113.52l2.66.92a5.63,5.63,0,0,1,3.78,5.5c-.72,32.61.93,40.93,34.64,40.93,35.93,0,31.32-27,74.74-32.33C163.91,124.62,175.12,60,153.12,32.94Zm-8.75,42.35h0a3.61,3.61,0,0,1-3.66,3.65h-4.11a.11.11,0,0,0,0,0,31.79,31.79,0,0,1-3.37,8.36l2.87,3a3.81,3.81,0,0,1,0,5.33l-5.28,5.42a3.61,3.61,0,0,1-5.2,0l-2.88-3a29.37,29.37,0,0,1-8,3.4s0,2.14,0,4.18A3.7,3.7,0,0,1,111,109.4h-7.48a3.63,3.63,0,0,1-2.61-1.11,3.77,3.77,0,0,1-1.07-2.68l0-4.06a30,30,0,0,1-8.23-3.47l-2.87,3a3.61,3.61,0,0,1-5.2,0L78.3,95.64a3.85,3.85,0,0,1,0-5.32l2.88-2.94A31.11,31.11,0,0,1,77.82,79a.51.51,0,0,1,0-.09h-4a3.6,3.6,0,0,1-3.64-3.65V67.63a3.71,3.71,0,0,1,3.66-3.76h4a30.94,30.94,0,0,1,3.33-8.23l-2.89-3a3.84,3.84,0,0,1,0-5.32l5.3-5.42a3.64,3.64,0,0,1,5.21,0l2.87,2.95a26.77,26.77,0,0,1,8.24-3.48l-.05-4.11A3.76,3.76,0,0,1,101,34.61a3.62,3.62,0,0,1,2.61-1.1H111a3.71,3.71,0,0,1,3.68,3.73c0,2.08,0,4.25,0,4.25a29.35,29.35,0,0,1,8,3.4l2.89-3a3.63,3.63,0,0,1,5.2,0l5.3,5.42a3.84,3.84,0,0,1,0,5.32l-2.89,3a31.15,31.15,0,0,1,3.34,8.27s0,.07,0,.07h4.14a3.61,3.61,0,0,1,3.65,3.66ZM107.2,60.91a10.58,10.58,0,1,0,10.33,10.58A10.46,10.46,0,0,0,107.2,60.91Z"/></svg>