<svg id="Layer_1" data-name="Layer 1" xmlns="http://www.w3.org/2000/svg" viewBox="0 0 20 20"><defs><style>.cls-1{fill:#4ac3e2;}.cls-2{fill:#fff;}</style></defs><title>ic_tick_discover</title><path class="cls-1" d="M10,0A10,10,0,1,0,20,10,10,10,0,0,0,10,0Zm5.4,7.9L9.71,14.71a1.5,1.5,0,0,1-1.08.54H8.56a1.5,1.5,0,0,1-1-.43L5.33,12.69a1.5,1.5,0,1,1,2.1-2.15l1,1L13.09,6A1.5,1.5,0,0,1,15.4,7.9Z"/><path class="cls-2" d="M13.09,6,8.45,11.54l-1-1a1.5,1.5,0,1,0-2.1,2.15l2.18,2.13a1.5,1.5,0,0,0,1,.43h.08a1.5,1.5,0,0,0,1.08-.54L15.4,7.9A1.5,1.5,0,0,0,13.09,6Z"/></svg>