<svg xmlns="http://www.w3.org/2000/svg" width="342" height="80" viewBox="0 0 342 80">
  <defs>
    <style>
      .cls-1 {
        fill: #56bd56;
      }

      .cls-2 {
        font-size: 40px;
        font-family: "Roboto Slab";
        font-weight: 300;
      }

      .cls-2, .cls-3 {
        fill: #fff;
      }

      .cls-3 {
        fill-rule: evenodd;
      }
    </style>
  </defs>
  <rect id="Rounded_Rectangle_4" data-name="Rounded Rectangle 4" class="cls-1" width="342" height="80" rx="40" ry="40"/>
  <text id="Innovation" class="cls-2" x="95.781" y="55.086">Innovation</text>
  <path id="Shape_4_copy" data-name="Shape 4 copy" class="cls-3" d="M58.522,54.893c-1.18,0-2.366.072-3.536-.033a2.755,2.755,0,0,1-1.492-.706,5.025,5.025,0,0,1-1.452-3.318,6.625,6.625,0,0,0-1.561-3.391A18.193,18.193,0,0,1,47.969,43.8a9.656,9.656,0,0,1-.559-5.283,11.188,11.188,0,0,1,11.328-9.6c7.864,0.1,13.23,7.96,10.232,15.089a13.312,13.312,0,0,1-2.055,3.046,7.876,7.876,0,0,0-1.93,4.322,4.767,4.767,0,0,1-1.525,2.987,1.988,1.988,0,0,1-1.214.507C61.008,54.935,59.763,54.893,58.522,54.893Zm1.354-1.91c2.544,0.393,2.984.105,3.415-2.188a10.163,10.163,0,0,1,2.515-5.152,8.113,8.113,0,0,0,1.934-8.076,8.856,8.856,0,0,0-7.423-6.7,9.109,9.109,0,0,0-9.657,3.951,8.354,8.354,0,0,0,.034,10.038c1.552,2.049,3.04,4.024,3.3,6.7a2.213,2.213,0,0,0,1.164,1.468,5.728,5.728,0,0,0,2.12.057m2.2-33.072q0,1.945,0,3.891c0,0.643-.159,1.261-0.91,1.257s-0.9-.626-0.9-1.265q0-3.845,0-7.69a0.969,0.969,0,0,1,.861-1.2c0.781-.03.941,0.567,0.944,1.208C59.476,17.478,59.472,18.744,59.472,20.011ZM41.618,21.862a5.069,5.069,0,0,1,.839.531c1.879,1.843,3.743,3.7,5.612,5.556a0.93,0.93,0,0,1,.215,1.445c-0.523.539-1.011,0.229-1.442-.2-1.865-1.857-3.743-3.7-5.58-5.59a1.475,1.475,0,0,1-.352-1.053A1.966,1.966,0,0,1,41.618,21.862Zm27.841,7.912a1.776,1.776,0,0,1-.711-0.548,1.415,1.415,0,0,1,.166-1.075c0.568-.687,1.246-1.283,1.881-1.914,1.249-1.242,2.5-2.477,3.743-3.729,0.44-.444.9-0.726,1.436-0.218s0.245,1-.188,1.428c-1.838,1.833-3.67,3.672-5.515,5.5A5.792,5.792,0,0,1,69.459,29.774ZM39.081,40.47c-1.334,0-2.668-.013-4,0.007A0.872,0.872,0,0,1,34,39.619a0.912,0.912,0,0,1,1.088-.876c2.606,0.014,5.212.009,7.818,0.006a0.9,0.9,0,0,1,1.117.926,0.885,0.885,0,0,1-1.126.8C41.625,40.459,40.353,40.47,39.081,40.47Zm38.97,0c-1.3,0-2.609-.005-3.913,0a0.842,0.842,0,0,1-1.028-.809,0.869,0.869,0,0,1,1.034-.917q3.913-.005,7.826.005A0.863,0.863,0,0,1,83,39.67a0.851,0.851,0,0,1-1.036.8C80.659,40.464,79.355,40.47,78.05,40.47ZM58.565,56.611c-1.15,0-2.3.04-3.448-.03a2.26,2.26,0,0,1-.86-0.592,2.092,2.092,0,0,1,.814-0.674q3.495-.081,6.992,0a2.088,2.088,0,0,1,.812.678,2.286,2.286,0,0,1-.862.59C60.868,56.654,59.715,56.612,58.565,56.611Zm0,0.491c1.149,0,2.3-.041,3.446.03a2.266,2.266,0,0,1,.866.587,2.114,2.114,0,0,1-.821.676q-3.493.083-6.988,0a2.092,2.092,0,0,1-.813-0.679,2.287,2.287,0,0,1,.864-0.587C56.266,57.061,57.418,57.1,58.567,57.1Zm0,3.051c-0.958,0-1.921.052-2.872-.029a2.255,2.255,0,0,1-.843-0.626,2.15,2.15,0,0,1,.842-0.645q2.872-.087,5.748,0a2.123,2.123,0,0,1,.83.645,2.218,2.218,0,0,1-.833.624C60.487,60.2,59.525,60.151,58.566,60.153ZM58.52,61.966a4.481,4.481,0,0,1-1.284-.029,2.619,2.619,0,0,1-.784-0.7,2.05,2.05,0,0,1,.77-0.568,16.625,16.625,0,0,1,2.675,0,2.1,2.1,0,0,1,.781.561,2.5,2.5,0,0,1-.78.7A5.35,5.35,0,0,1,58.52,61.966Z"/>
</svg>
