<?xml version="1.0" encoding="utf-8"?>
<!-- Generator: Adobe Illustrator 20.1.0, SVG Export Plug-In . SVG Version: 6.00 Build 0)  -->
<svg version="1.1" id="Objects" xmlns="http://www.w3.org/2000/svg" xmlns:xlink="http://www.w3.org/1999/xlink" x="0px" y="0px"
	 viewBox="0 0 253.9 106" style="enable-background:new 0 0 253.9 106;" xml:space="preserve">
<style type="text/css">
	.st0{fill:url(#SVGID_1_);}
	.st1{fill:url(#SVGID_2_);}
</style>
<g>
	<linearGradient id="SVGID_1_" gradientUnits="userSpaceOnUse" x1="46.511" y1="84.4466" x2="46.511" y2="4.8818">
		<stop  offset="0" style="stop-color:#A68F3E"/>
		<stop  offset="1" style="stop-color:#FFE083"/>
	</linearGradient>
	<path class="st0" d="M92,82.8c-10.5-1.5-20.6-3.7-30.2-7.3c1-2.8,0.7-6.4-0.4-9.1c-1-2.3-3.5-3.1-4.8-0.6c-1.2,2.3-0.5,5.3,0.6,7.7
		c-1.7-0.8-3.4-1.6-5.1-2.5c1.5-3.6,0.9-13.5-3.9-12.5c-3.6,0.7-2.8,6.1-1.1,9.8c-2.4-1.4-4.7-3-6.9-4.7c1-2.2,0.9-5.1,0.5-7.4
		c-0.3-1.6-1.3-5.5-3.8-4.8c-1.9,0.5-1.8,3.8-1.7,5.3c0.1,1.2,0.3,2.4,0.8,3.5c-1.2-1-2.3-2-3.4-3.1c0-0.1,0.1-0.2,0.1-0.3
		c0.2-2.2,0.2-4.5,0.2-6.7c0-1.3,0.1-2.7-0.1-4c-0.4-1.8-1.6-3.6-3.7-3.2c-3.9,0.7-3.5,4.8-2.1,8.3c-2.1-2.4-4.1-4.9-5.9-7.5
		c0.1-0.1,0.3-0.2,0.4-0.4c2.6-4.2,2.5-9.5,0.3-13.8c-0.4-0.7-1.3-0.6-1.7,0c-2,2.6-2.8,5.9-2.3,9.1c-1.7-2.8-3.3-5.6-4.8-8.5
		c1.6-1.9,8.7-12,3.4-13.3c-2-0.5-3.8,1.3-4.6,2.9c-1,2-1.2,4.3-0.7,6.5C10,23.8,8.9,21.3,8,18.8c0.3-0.2,0.4-0.7,0.1-1
		c0.3-4.1,0.1-15.2-5-12.5C0.9,6.5,1.8,10.2,2.4,12c0.8,2.5,2.3,4.5,4.3,6.2c-0.1,0.1-0.1,0.3,0,0.5c0.6,2.3,1.4,4.5,2.2,6.8
		c-2.8-2.2-6.9-4.1-8.2-1.1c-1,2.3,1.9,4.1,3.7,4.9c2.1,0.9,4.3,1.2,6.5,0.9c1.2,2.7,2.5,5.3,4,7.8c-3.1-2.1-6.9-3.4-7.5,0.1
		C7,40.4,9,41.8,10.9,42.5c2.4,0.9,5,1.7,7.5,1c2.1,3.1,4.3,6,6.7,8.8c-4.3-1.3-9.5-1.9-9,2.1c0.3,2.3,3.6,3.4,5.4,3.8
		c2.7,0.6,5.5,0.3,7.9-1.2c1.6,1.6,3.3,3.2,5.1,4.8c-1.4-0.2-2.9-0.2-4.3,0c-1.5,0.2-5,0.9-4.1,3.3c0.8,2,4.9,2,6.6,1.9
		c2.1-0.1,4.2-0.7,6-1.7c2.1,1.6,4.3,3.2,6.5,4.6c-3.9,0.4-8.6,1.7-6.3,5c1.2,1.8,4.1,1.8,6,1.4c2.3-0.4,4.3-1.5,5.8-3.1
		c1.9,1.1,3.8,2.1,5.8,3c-2.6,0.8-5.1,2.2-7.1,3.7c-0.6,0.5-0.5,1.3,0.2,1.6c4,1.6,9.7,0.7,12.6-2.8c9.8,3.9,20.2,6.1,30.3,5.7
		C92.5,84,92.7,82.9,92,82.8z M4.5,13.6c-0.4-0.7-2.1-4.7-1.3-5.5C5.4,5.6,5.6,9.4,5.6,10c0.1,1,0.1,2,0.2,2.9c0.1,1,0.1,2,0.2,3
		C5.4,15.2,4.9,14.4,4.5,13.6z M6.4,28.1c-0.8-0.2-5.6-2.7-3.7-3.3c1.2-0.4,3.1,1.1,4,1.7c1,0.7,1.9,1.5,3,2.1
		C8.6,28.5,7.5,28.4,6.4,28.1z M12.3,22.3c0.2-0.8,0.6-1.7,1.1-2.4c0.7-0.9,2.5-2.5,2.6,0.3c0,1.4-1.4,3.5-2.1,4.7
		c-0.5,0.9-1,1.7-1.5,2.5C11.9,25.7,11.8,24,12.3,22.3z M12.5,41.2c-0.7-0.3-1.4-0.5-2.1-0.9c-0.4-0.2-0.8-0.4-1.2-0.7
		c-0.7-0.6-0.7-1,0.1-1.3c1-0.8,1.6-0.1,2.7,0.4c0.6,0.3,1.2,0.7,1.8,1.1c1,0.7,1.9,1.5,2.9,2.2C15.3,42,13.9,41.7,12.5,41.2z
		 M19.8,41.4c-1-3.3-1-6.5,0.6-9.3C21.5,35.2,21.2,38.3,19.8,41.4z M23.3,56.3c-0.9,0-5.2-0.7-5.3-1.8l2.1-1.3
		c0.6,0.1,1.1,0.3,1.7,0.4c0.8,0.2,1.7,0.5,2.5,0.7c1,0.3,2,0.7,3,0.9c0.1,0.2,0.3,0.3,0.4,0.5C26.4,56.2,24.9,56.4,23.3,56.3z
		 M30.7,51c0,1.4-0.1,2.9-0.1,4.3l-0.1-0.1c-0.9-1.4-1.8-2.9-2.2-4.6c-0.2-0.7-0.4-1.5-0.5-2.3c-0.1-0.7-0.1-1.4,0-2
		c1.7-1.1,2.6-1.1,2.8,0C31.2,47.4,30.7,49.7,30.7,51z M34.2,64.6c-1.3,0.2-5,0.8-6-0.3c-1.2-1.3,4-1.3,4.7-1.2
		c1.3,0.1,2.5,0.4,3.7,0.8C35.9,64.2,35.1,64.5,34.2,64.6z M38.6,62.2c-0.6-1-1.1-2.1-1.4-3.2c-0.2-0.7-0.9-5-0.1-5.3
		c0.8-0.3,1.4,1.9,1.5,2.3c0.2,0.9,0.4,1.9,0.4,2.8C39.1,60,38.8,61.1,38.6,62.2z M45.7,73.7c-1.2,0.4-3.7,1.1-4.9,0.3
		c-0.3-0.5-0.6-1-0.9-1.5c0.5-0.4,1.1-0.7,1.8-0.8c0.9-0.3,2-0.4,3-0.5c0.8-0.1,1.5-0.1,2.3-0.2c0.6,0.4,1.2,0.7,1.7,1
		C47.8,72.8,46.8,73.4,45.7,73.7z M50.3,70.1c-0.2-0.1-0.4-0.2-0.6-0.3c-0.4-1.1-1.1-2.2-1.4-3.4c-0.2-0.8-1.4-4.9-0.3-5.5
		c2-1.2,2.5,4.1,2.6,4.9C50.8,67.4,50.5,68.7,50.3,70.1z M51.1,79.9c1.4-1,2.9-1.7,4.6-2.3c0.9-0.3,1.8-0.5,2.7-0.6
		c0.4,0.2,0.9,0.4,1.3,0.6C57.1,79.5,54.3,80.5,51.1,79.9z M59.9,74.7c-0.1,0-0.2-0.1-0.3-0.1c-1.5-2.7-2.6-9.1-0.3-7.7
		c0.8,0.5,0.9,3.7,0.9,4.4C60.2,72.5,60,73.6,59.9,74.7z"/>
	<linearGradient id="SVGID_2_" gradientUnits="userSpaceOnUse" x1="207.8139" y1="84.1466" x2="207.8139" y2="4.5818">
		<stop  offset="0" style="stop-color:#A68F3E"/>
		<stop  offset="1" style="stop-color:#FFE083"/>
	</linearGradient>
	<path class="st1" d="M253.9,24.1c-1.2-3-5.4-1.1-8.2,1.1c0.8-2.2,1.6-4.5,2.2-6.8c0.1-0.2,0-0.3,0-0.5c2-1.6,3.5-3.7,4.3-6.2
		c0.6-1.8,1.5-5.5-0.7-6.7c-5.2-2.7-5.4,8.4-5,12.5c-0.3,0.3-0.2,0.7,0.1,1c-1,2.5-2,5-3.1,7.4c0.5-2.2,0.3-4.4-0.7-6.5
		c-0.8-1.6-2.6-3.4-4.6-2.9c-5.3,1.4,1.8,11.4,3.4,13.3c-1.5,2.9-3.1,5.8-4.8,8.5c0.6-3.1-0.3-6.5-2.3-9.1c-0.4-0.6-1.3-0.7-1.7,0
		c-2.3,4.3-2.3,9.6,0.3,13.8c0.1,0.2,0.2,0.3,0.4,0.4c-1.9,2.6-3.8,5.1-5.9,7.5c1.4-3.6,1.8-7.7-2.1-8.3c-2.1-0.4-3.3,1.4-3.7,3.2
		c-0.3,1.3-0.2,2.7-0.1,4c0,2.2-0.1,4.5,0.2,6.7c0,0.1,0.1,0.2,0.1,0.3c-1.1,1.1-2.3,2.1-3.4,3.1c0.4-1.1,0.7-2.2,0.8-3.5
		c0.1-1.5,0.2-4.8-1.7-5.3c-2.5-0.7-3.5,3.2-3.8,4.8c-0.5,2.3-0.5,5.1,0.5,7.4c-2.3,1.7-4.6,3.3-6.9,4.7c1.7-3.7,2.5-9-1.1-9.8
		c-4.8-1-5.4,8.9-3.9,12.5c-1.7,0.9-3.4,1.7-5.1,2.5c1.1-2.4,1.8-5.4,0.6-7.7c-1.3-2.5-3.8-1.7-4.8,0.6c-1.2,2.6-1.4,6.2-0.4,9.1
		c-9.5,3.6-19.6,5.8-30.2,7.3c-1.4,0.4-1.2,1.5-0.5,1.6c10.1,0.4,20.6-1.8,30.3-5.7c2.8,3.5,8.6,4.5,12.6,2.8
		c0.7-0.3,0.8-1.1,0.2-1.6c-2-1.5-4.5-2.9-7.1-3.7c2-0.9,3.9-1.9,5.8-3c1.5,1.7,3.6,2.7,5.8,3.1c1.9,0.3,4.8,0.3,6-1.4
		c2.2-3.3-2.4-4.6-6.3-5c2.3-1.5,4.5-3,6.5-4.6c1.8,1.1,3.9,1.6,6,1.7c1.7,0.1,5.8,0.1,6.6-1.9c0.9-2.4-2.6-3.1-4.1-3.3
		c-1.4-0.2-2.9-0.2-4.3,0c1.7-1.5,3.4-3.1,5.1-4.8c2.4,1.5,5.2,1.8,7.9,1.2c1.9-0.4,5.2-1.5,5.4-3.8c0.5-4-4.8-3.5-9-2.1
		c2.4-2.8,4.6-5.7,6.7-8.8c2.5,0.8,5.1,0,7.5-1c1.9-0.7,3.9-2.1,3.5-4.4c-0.6-3.5-4.4-2.2-7.5-0.1c1.4-2.5,2.8-5.1,4-7.8
		c2.2,0.3,4.4,0.1,6.5-0.9C251.9,28.2,254.8,26.5,253.9,24.1z M248.1,12.9c0.1-1,0.1-2,0.2-2.9c0.1-0.6,0.3-4.4,2.4-1.9
		c0.8,0.9-0.9,4.8-1.3,5.5c-0.4,0.8-0.9,1.6-1.5,2.3C248,14.9,248,13.9,248.1,12.9z M193.8,71.2c0-0.7,0.1-3.9,0.9-4.4
		c2.2-1.3,1.1,5.1-0.3,7.7c-0.1,0-0.2,0.1-0.3,0.1C193.9,73.5,193.7,72.4,193.8,71.2z M198.2,77.6c1.7,0.5,3.2,1.3,4.6,2.3
		c-3.2,0.6-6-0.4-8.6-2.3c0.4-0.2,0.9-0.4,1.3-0.6C196.4,77.2,197.3,77.3,198.2,77.6z M204.2,69.9c-0.2,0.1-0.4,0.2-0.6,0.3
		c-0.2-1.5-0.5-2.8-0.3-4.3c0.1-0.8,0.6-6.1,2.6-4.9c1.1,0.6-0.1,4.7-0.3,5.5C205.3,67.7,204.6,68.7,204.2,69.9z M212.2,71.8
		c0.6,0.1,1.2,0.4,1.8,0.8c-0.3,0.5-0.6,1-0.9,1.5c-1.2,0.7-3.7,0.1-4.9-0.3c-1.1-0.4-2.1-1-3-1.7c0.6-0.3,1.2-0.7,1.7-1
		c0.8,0,1.5,0.1,2.3,0.2C210.2,71.4,211.3,71.5,212.2,71.8z M215.3,62.2c-0.2-1.1-0.5-2.2-0.4-3.4c0-1,0.1-1.9,0.4-2.8
		c0.1-0.4,0.8-2.6,1.5-2.3c0.9,0.4,0.1,4.6-0.1,5.3C216.4,60.2,215.9,61.2,215.3,62.2z M220.9,63.2c0.8-0.1,5.9-0.1,4.7,1.2
		c-1,1.1-4.7,0.5-6,0.3c-0.8-0.2-1.6-0.5-2.4-0.7C218.4,63.6,219.6,63.3,220.9,63.2z M223.4,55.1l-0.1,0.1c0-1.4-0.1-2.9-0.1-4.3
		c0-1.2-0.5-3.5,0.1-4.7c0.1-1.1,1.1-1.1,2.8,0c0.1,0.7,0.1,1.4,0,2c-0.1,0.8-0.2,1.5-0.5,2.3C225.1,52.2,224.3,53.6,223.4,55.1z
		 M231.9,53.7c0.6-0.1,1.1-0.3,1.7-0.4l2.1,1.3c0,1.1-4.4,1.8-5.3,1.8c-1.4,0-2.9-0.2-4.4-0.6c0.1-0.2,0.3-0.3,0.4-0.5
		c1-0.2,2-0.6,3-0.9C230.2,54.1,231.1,53.9,231.9,53.7z M234.1,41.3c-1.4-3-1.6-6.2-0.6-9.3C235.1,34.9,235.1,38.1,234.1,41.3z
		 M240.1,39.8c0.6-0.4,1.2-0.7,1.8-1.1c1-0.6,1.7-1.2,2.7-0.4c0.8,0.3,0.9,0.7,0.1,1.3c-0.4,0.3-0.7,0.5-1.2,0.7
		c-0.7,0.3-1.4,0.6-2.1,0.9c-1.4,0.5-2.8,0.8-4.2,0.8C238.2,41.3,239.1,40.5,240.1,39.8z M241.6,27.3c-0.5-0.8-1.1-1.6-1.5-2.5
		c-0.7-1.2-2.1-3.3-2.1-4.7c0.1-2.8,1.9-1.2,2.6-0.3c0.5,0.7,0.9,1.6,1.1,2.4C242.1,24,242,25.7,241.6,27.3z M247.5,28
		c-1,0.4-2.2,0.5-3.3,0.5c1.1-0.6,2-1.4,3-2.1c0.9-0.6,2.8-2.1,4-1.7C253,25.3,248.3,27.8,247.5,28z"/>
</g>
</svg>
