<svg id="Layer_1" data-name="Layer 1" xmlns="http://www.w3.org/2000/svg" xmlns:xlink="http://www.w3.org/1999/xlink" viewBox="0 0 24 24"><defs><style>.cls-1{fill:url(#linear-gradient);}.cls-2{fill:url(#linear-gradient-2);}.cls-3{fill:url(#linear-gradient-3);}</style><linearGradient id="linear-gradient" x1="31.36" y1="10.18" x2="31.36" y2="0.63" gradientTransform="matrix(-1, 0, 0.64, 1, 36.2, -0.04)" gradientUnits="userSpaceOnUse"><stop offset="0" stop-color="#a68f3e"/><stop offset="1" stop-color="#ffe083"/></linearGradient><linearGradient id="linear-gradient-2" x1="8.4" y1="22.42" x2="15.19" y2="11.78" gradientTransform="matrix(1, 0, 0, 1, 0, 0)" xlink:href="#linear-gradient"/><linearGradient id="linear-gradient-3" x1="41.67" y1="10.76" x2="41.67" y2="0.63" gradientTransform="matrix(1, 0, -0.64, 1, -23.31, -0.04)" xlink:href="#linear-gradient"/></defs><title>ic_award_commendation</title><polygon class="cls-1" points="8.49 0.59 2.49 0.59 7.52 9.24 10.49 4.55 8.49 0.59"/><path class="cls-2" d="M11.8,12.78A4.31,4.31,0,1,1,7.49,17.1a4.32,4.32,0,0,1,4.31-4.31m0-2a6.31,6.31,0,1,0,6.31,6.31,6.32,6.32,0,0,0-6.31-6.31Z"/><path class="cls-3" d="M15.35,10.37,21.51.59H14.33L8.12,10.44a7.47,7.47,0,0,1,7.23-.07Z"/></svg>