<?xml version="1.0" encoding="utf-8"?>
<!-- Generator: Adobe Illustrator 19.2.1, SVG Export Plug-In . SVG Version: 6.00 Build 0)  -->
<svg version="1.1" id="Layer_1" xmlns="http://www.w3.org/2000/svg" xmlns:xlink="http://www.w3.org/1999/xlink" x="0px" y="0px"
	 viewBox="0 0 165.3 121" style="enable-background:new 0 0 165.3 121;" xml:space="preserve">
<style type="text/css">
	.st0{fill:none;stroke:#9F7AB7;stroke-width:2;stroke-linecap:round;stroke-linejoin:round;stroke-miterlimit:10;}
	.st1{fill:#794C9E;stroke:#794C9E;stroke-width:3;stroke-linecap:round;stroke-linejoin:round;stroke-miterlimit:10;}
	.st2{fill:#794C9E;stroke:#794C9E;stroke-width:2;stroke-linecap:round;stroke-linejoin:round;stroke-miterlimit:10;}
	.st3{fill:#794C9E;}
</style>
<polygon class="st0" points="34.9,57.7 34.9,111.1 84.8,111.1 "/>
<polygon class="st1" points="47.2,83.1 47.2,101.6 64.3,101.6 "/>
<line class="st0" x1="34.9" y1="105.1" x2="38.1" y2="105.1"/>
<line class="st0" x1="34.9" y1="100.8" x2="40.3" y2="100.8"/>
<line class="st0" x1="34.9" y1="96.4" x2="38.1" y2="96.4"/>
<line class="st0" x1="34.9" y1="92" x2="40.3" y2="92"/>
<line class="st0" x1="34.9" y1="87.6" x2="38.1" y2="87.6"/>
<line class="st0" x1="34.9" y1="83.2" x2="40.3" y2="83.2"/>
<line class="st0" x1="34.9" y1="78.9" x2="38.1" y2="78.9"/>
<line class="st0" x1="34.9" y1="74.5" x2="40.3" y2="74.5"/>
<line class="st0" x1="34.9" y1="70.1" x2="38.1" y2="70.1"/>
<line class="st0" x1="84.5" y1="89" x2="78.4" y2="95.3"/>
<line class="st2" x1="87.8" y1="97.2" x2="89.9" y2="99.2"/>
<polygon class="st0" points="50.4,64.4 78.4,95.3 87.8,97.2 85.5,89 56.5,58.5 "/>
<polygon class="st1" points="52.8,67.1 59.2,61.4 56.5,58.5 50.4,64.4 "/>
<line class="st0" x1="59.2" y1="68.2" x2="79.3" y2="89"/>
<g>
	<polyline class="st0" points="111.6,21.3 134.3,36.4 113.8,93.4 	"/>
	<polygon class="st0" points="94.6,111.3 136.3,111.3 120.2,101.2 108.2,101.2 	"/>
	<rect x="108.2" y="94" class="st0" width="11.3" height="7.2"/>
	<circle class="st3" cx="114.5" cy="91.4" r="4.6"/>
	<circle class="st3" cx="132.3" cy="36.4" r="4.9"/>
	<polygon class="st0" points="92.4,13.1 97.8,6.9 108.6,13.4 104.6,20.3 	"/>
	<polygon class="st0" points="92.5,13.1 70,23.3 102.4,45.6 106.5,22.9 	"/>
	<circle class="st3" cx="108.6" cy="18.5" r="4.9"/>
	<path class="st3" d="M90.9,38.4c-1.6,2.2-4.6,2.7-6.8,1.1c-2.2-1.6-2.7-4.6-1.1-6.8"/>
</g>
</svg>
