<?xml version="1.0" encoding="utf-8"?>
<!-- Generator: Adobe Illustrator 20.1.0, SVG Export Plug-In . SVG Version: 6.00 Build 0)  -->
<svg version="1.1" id="Layer_1" xmlns="http://www.w3.org/2000/svg" xmlns:xlink="http://www.w3.org/1999/xlink" x="0px" y="0px"
	 viewBox="0 0 512 512" style="enable-background:new 0 0 512 512;" xml:space="preserve">
<style type="text/css">
	.st0{fill:#D1BEE5;}
	.st1{fill:#7A5899;}
	.st2{fill:#AC91BF;}
</style>
<g>
	<path class="st0" d="M50.1,357.8c-2.3-0.9-4.8-1.3-7.1-1.3c-8,0-15.6,4.9-18.7,12.8c-3.9,10.3,1.2,21.9,11.5,25.8
		c10.3,3.9,21.9-1.2,25.8-11.5S60.4,361.7,50.1,357.8z"/>
	<path class="st0" d="M181.9,53.3c3.6-4,5.4-9.1,5.1-14.4c-0.3-5.3-2.6-10.2-6.6-13.8c-4-3.6-9.1-5.5-14.4-5.1
		c-5.3,0.3-10.2,2.6-13.8,6.6c-3.6,4-5.4,9.1-5.1,14.4c0.3,5.3,2.6,10.2,6.6,13.8C161.9,62.2,174.5,61.5,181.9,53.3z"/>
</g>
<g>
	<path class="st0" d="M397.1,76.6c4.6,2.8,10,3.6,15.1,2.3h0c5.2-1.3,9.5-4.5,12.3-9.1c2.8-4.6,3.6-10,2.3-15.1
		c-1.3-5.2-4.5-9.5-9.1-12.3c-3.1-1.9-6.7-2.9-10.3-2.9c-1.6,0-3.3,0.2-4.9,0.6c-5.2,1.3-9.5,4.5-12.3,9.1
		c-2.8,4.6-3.6,9.9-2.3,15.1S392.5,73.9,397.1,76.6z"/>
	<path class="st0" d="M481.6,456.5c-3.6-2.9-8-4.5-12.6-4.5c-0.7,0-1.4,0-2.1,0.1c-5.3,0.6-10.1,3.2-13.4,7.3l0,0
		c-6.9,8.6-5.6,21.2,3,28.1c8.6,6.9,21.2,5.6,28.1-3c3.4-4.1,4.9-9.4,4.3-14.7C488.4,464.6,485.8,459.9,481.6,456.5z"/>
	<path class="st1" d="M157.5,247.2c-3.3-2.1-7-3.2-10.8-3.2c-1.4,0-2.8,0.1-4.2,0.4c-5.2,1.1-9.7,4.2-12.6,8.7
		c-2.9,4.5-3.9,9.8-2.8,15c1.1,5.2,4.2,9.7,8.7,12.6c4.5,2.9,9.8,3.9,15,2.8c5.2-1.1,9.7-4.2,12.6-8.7c2.9-4.5,3.9-9.8,2.8-15
		C165,254.6,162,250.1,157.5,247.2z"/>
</g>
<g>
	<path class="st1" d="M92.1,197.1l-1-20l-35.8,1.9l93.4-103.8c5.8,3,12,4.6,18.4,4.6c10.9,0,21.8-4.5,29.7-13.2
		c7.1-7.9,10.8-18.2,10.2-28.8c-0.6-10.7-5.2-20.5-13.2-27.6C185.9,3.1,175.6-0.4,165,0c-10.7,0.6-20.5,5.2-27.6,13.2
		S126.6,31.4,127.2,42c0.4,7.2,2.8,14,6.7,19.9L40.4,165.7l-1.9-35.8l-20,1.1l3.7,69.8L92.1,197.1z M152.2,26.6
		c3.6-4,8.5-6.3,13.8-6.6c5.3-0.4,10.5,1.5,14.4,5.1c4,3.6,6.3,8.5,6.6,13.8c0.3,5.3-1.5,10.4-5.1,14.4c-7.4,8.2-20,8.9-28.2,1.5
		c-4-3.6-6.3-8.5-6.6-13.8C146.8,35.7,148.6,30.6,152.2,26.6z"/>
	<path class="st2" d="M386.8,93.8c6.2,3.7,13.2,5.7,20.3,5.7l33.7,135.3l-30.7-18.5l-10.3,17.1l60,36l36-60l-17.1-10.3L460.2,230
		L426.4,94.5c6.2-3.4,11.5-8.2,15.2-14.4c5.5-9.2,7.1-19.9,4.5-30.3c-2.6-10.4-9-19.1-18.2-24.6c-9.2-5.5-19.9-7.1-30.3-4.5
		c-10.4,2.6-19.1,9-24.6,18.2c-5.5,9.1-7.1,19.9-4.5,30.3C371.2,79.5,377.6,88.3,386.8,93.8z M390.3,49.2c2.7-4.6,7.1-7.8,12.3-9.1
		c1.6-0.4,3.2-0.6,4.9-0.6c3.6,0,7.1,1,10.3,2.9c4.6,2.8,7.8,7.1,9.1,12.3c1.3,5.2,0.5,10.5-2.3,15.1c-2.7,4.6-7.1,7.8-12.3,9.1h0
		c-5.2,1.3-10.5,0.5-15.1-2.3c-4.6-2.8-7.8-7.1-9.1-12.3S387.5,53.8,390.3,49.2z"/>
	<path class="st1" d="M508.8,467.9c-1.1-10.6-6.3-20.2-14.6-26.9c-8.3-6.7-18.7-9.8-29.3-8.7c-7.2,0.8-13.8,3.5-19.5,7.7
		l-108.5-87.9l35.6-3.7l-2.1-19.9l-69.6,7.3l7.3,69.6l19.9-2.1l-3.7-35.7l108.5,87.9c-7.3,16.2-3.3,35.9,11.1,47.6
		c7.4,6,16.3,8.9,25.1,8.9c11.7,0,23.2-5.1,31.1-14.8C506.8,488.9,509.9,478.5,508.8,467.9z M484.6,484.6c-6.9,8.6-19.5,9.9-28.1,3
		c-8.6-6.9-9.9-19.5-3-28.1l0,0c3.4-4.1,8.1-6.7,13.4-7.3c0.7-0.1,1.4-0.1,2.1-0.1c4.6,0,9,1.5,12.6,4.5c4.1,3.4,6.7,8.1,7.3,13.4
		C489.5,475.3,488,480.5,484.6,484.6z"/>
	<path class="st0" d="M182.2,246.1c-3.1-6.3-7.8-11.8-13.9-15.7c-9-5.8-19.6-7.8-30.1-5.6c-10.4,2.2-19.4,8.4-25.2,17.3
		c-5.8,8.9-7.8,19.6-5.6,30.1c2.2,10.4,8.4,19.4,17.3,25.2c6.6,4.3,14,6.5,21.7,6.5c2.8,0,5.6-0.3,8.4-0.9
		c10.4-2.2,19.4-8.4,25.2-17.3c3.9-6.1,6-13,6.3-20l136.6-29l-19.5,30.1l16.8,10.9l38.1-58.7l-58.7-38.1l-10.9,16.8l30.1,19.5
		L182.2,246.1z M163.4,274.8c-2.9,4.5-7.4,7.6-12.6,8.7c-5.2,1.1-10.6,0.1-15-2.8c-4.5-2.9-7.6-7.4-8.7-12.6
		c-1.1-5.2-0.1-10.6,2.8-15c2.9-4.5,7.4-7.6,12.6-8.7c1.4-0.3,2.8-0.4,4.2-0.4c3.8,0,7.6,1.1,10.8,3.2c4.5,2.9,7.6,7.4,8.7,12.6
		C167.3,265,166.3,270.4,163.4,274.8z"/>
	<path class="st2" d="M198.3,398.2l14.6,32.7l-130.3-50c0.8-7-0.1-14.1-3.1-20.8c-4.3-9.8-12.2-17.2-22.2-21.1
		c-10-3.8-20.8-3.5-30.6,0.8c-9.8,4.3-17.2,12.2-21.1,22.2s-3.5,20.8,0.8,30.6c4.3,9.8,12.2,17.2,22.2,21.1
		c4.7,1.8,9.5,2.7,14.3,2.7c5.5,0,11-1.2,16.2-3.5c6.6-2.9,12.1-7.6,16.2-13.4l130.3,50L173,464.2l8.1,18.2L245,454l-28.5-63.9
		L198.3,398.2z M35.8,395.1c-10.3-4-15.4-15.5-11.5-25.8c3-7.9,10.6-12.8,18.7-12.8c2.4,0,4.8,0.4,7.1,1.3
		c10.3,4,15.4,15.5,11.5,25.8C57.7,393.9,46.1,399,35.8,395.1z"/>
</g>
</svg>
