<?xml version="1.0" encoding="utf-8"?>
<!-- Generator: Adobe Illustrator 19.2.1, SVG Export Plug-In . SVG Version: 6.00 Build 0)  -->
<svg version="1.1" id="Layer_1" xmlns="http://www.w3.org/2000/svg" xmlns:xlink="http://www.w3.org/1999/xlink" x="0px" y="0px"
	 viewBox="0 0 165.3 121" style="enable-background:new 0 0 165.3 121;" xml:space="preserve">
<style type="text/css">
	.st0{fill:none;stroke:#9F7AB7;stroke-width:2;stroke-linecap:round;stroke-linejoin:round;stroke-miterlimit:10;}
	.st1{fill:#794C9F;}
</style>
<line class="st0" x1="34.9" y1="105.1" x2="101.3" y2="105.1"/>
<line class="st0" x1="34.9" y1="97.6" x2="40.3" y2="97.6"/>
<line class="st0" x1="34.9" y1="89.9" x2="38.1" y2="89.9"/>
<line class="st0" x1="34.9" y1="82.3" x2="40.3" y2="82.3"/>
<line class="st0" x1="34.9" y1="74.6" x2="38.1" y2="74.6"/>
<line class="st0" x1="34.9" y1="66.9" x2="40.3" y2="66.9"/>
<line class="st0" x1="34.9" y1="59.4" x2="38.1" y2="59.4"/>
<line class="st0" x1="34.9" y1="51.8" x2="40.3" y2="51.8"/>
<line class="st0" x1="34.9" y1="44.1" x2="38.1" y2="44.1"/>
<line class="st0" x1="34.9" y1="105.1" x2="34.9" y2="105.1"/>
<polyline class="st0" points="44.3,97.6 94.6,37.5 88.6,38.5 "/>
<line class="st0" x1="94.6" y1="37.5" x2="94.6" y2="44.1"/>
<rect x="55" y="89.9" class="st1" width="7.3" height="9.3"/>
<rect x="64.4" y="82.3" class="st1" width="7.3" height="16.9"/>
<rect x="73.8" y="74.6" class="st1" width="7.3" height="24.6"/>
<rect x="83.5" y="68.5" class="st1" width="7.3" height="30.7"/>
<rect x="94" y="59.4" class="st1" width="7.3" height="39.8"/>
</svg>
