<?xml version="1.0" encoding="utf-8"?>
<!-- Generator: Adobe Illustrator 19.2.1, SVG Export Plug-In . SVG Version: 6.00 Build 0)  -->
<svg version="1.1" id="Layer_1" xmlns="http://www.w3.org/2000/svg" xmlns:xlink="http://www.w3.org/1999/xlink" x="0px" y="0px"
	 viewBox="-133 139 560 492" style="enable-background:new -133 139 560 492;" xml:space="preserve">
<style type="text/css">
	.st0{fill:#7949A3;}
	.st1{fill:none;stroke:#AE78DD;stroke-width:10;stroke-miterlimit:10;}
	.st2{fill:none;stroke:#AE78DD;stroke-width:9;stroke-linecap:round;stroke-linejoin:round;stroke-miterlimit:10;}
</style>
<g>
	<circle class="st0" cx="360.5" cy="202.6" r="7.7"/>
</g>
<path class="st0" d="M373.6,473.8c-12.5-5-18.3,12.9-24.5,20.2c-28,32.9-58.7-30.3-90.9-14.5c-8.1,4-4.9,2.5-9.9,10.1l-24,63.5
	c0,0-21.3,55.4,48.7,45.1l100.6,2.1c0,0,44.9,1,29.4-43.1c-15.6-44.1-1.4-4.5-1.4-4.5L373.6,473.8z"/>
<path class="st0" d="M121,485.2c0.6-8.9-39.5-4.4-44.4-3.8c-22.3,2.9-45.9,19.5-66.1,29.2c-4.7,2.3-9.5,4.5-14.5,5.8
	c-14.4,3.7-29.6-1-43.2-7c-17-7.4-34.2-12.8-51.3-19.7c0,0,0,130.1,145.9,105.3C47.4,595.1,115.2,563.5,121,485.2z"/>
<g>
	<circle class="st0" cx="345.5" cy="231.5" r="4.6"/>
</g>
<path class="st1" d="M-47,284.2l27,28v67.2l-5,1.7c-46.1,13.9-75.7,56.6-75.7,107.3c0,61.9,50.1,112,112,112s112-50.1,112-112
	c0-51-31.1-94.1-77.8-107.6c-1-0.3-1.9-0.5-2.9-0.8l-3.6-0.6v-67.2l27-28"/>
<path class="st2" d="M260.9,255.7l21.8,29.3v113l-55.3,147.3c0,0-24.1,48.1,23.5,55.1h131.8c0,0,38-3.4,15.9-55.1l-51.2-146.1
	l1.8-114.7l21.2-28.7"/>
<path class="st2" d="M315,457V260.9v-28c-2.6-14.3-25-27.7-41.5-22.7c-17,5.1-21.2,10.9-33.5,21.3c-16.2,13.7-38.4,22.5-54,7.5
	c-31-29.6-45.8-1.7-62.7,2c-23.9,5.3-51.6-17.2-64.2-23.8C22.5,198.3,9,238,9,238v204.3"/>
<g>
	<circle class="st0" cx="328.4" cy="181.5" r="13.3"/>
</g>
</svg>
