<?xml version="1.0" encoding="utf-8"?>
<!-- Generator: Adobe Illustrator 20.1.0, SVG Export Plug-In . SVG Version: 6.00 Build 0)  -->
<svg version="1.1" id="solution" xmlns="http://www.w3.org/2000/svg" xmlns:xlink="http://www.w3.org/1999/xlink" x="0px" y="0px"
	 viewBox="0 0 130 130" style="enable-background:new 0 0 130 130;" xml:space="preserve">
<style type="text/css">
	.st0{fill:none;stroke:#593A96;stroke-width:6;stroke-miterlimit:10;}
	.st1{fill:none;stroke:#593A96;stroke-width:6;stroke-linecap:round;stroke-linejoin:round;stroke-miterlimit:10;}
</style>
<path class="st0" d="M41.4,82.1c-5.5-9.9-11.4-19.2-7.7-31.8c3.4-11.6,15-21.1,26.8-23c23.8-3.8,43.8,20.6,34.3,42.8
	c-3.5,8.2-10.7,13.9-12.5,22.8c-1,4.6-1.5,10.2-1.3,15c0.1,3.9,1.3,9.9-2.6,12.5c-2.8,1.9-6.1,1.3-12.6,1.3l-10.7,0
	c-0.1,0-0.3,0-0.4,0c-1.2-0.2-5.9-0.4-6-7c-0.2-6.3,0.7-12.6-1-18.8C46.1,90.9,43.8,86.5,41.4,82.1z"/>
<line class="st0" x1="49" y1="100.7" x2="81.4" y2="100.7"/>
<line class="st1" x1="9.2" y1="59.9" x2="17.5" y2="59.9"/>
<line class="st1" x1="112.5" y1="59.9" x2="120.8" y2="59.9"/>
<line class="st1" x1="106.2" y1="36.3" x2="113.4" y2="32.2"/>
<line class="st1" x1="24.1" y1="36.3" x2="16.9" y2="32.2"/>
<line class="st1" x1="41.4" y1="19" x2="37.4" y2="11.7"/>
<line class="st1" x1="89" y1="19" x2="92.9" y2="11.7"/>
<line class="st1" x1="65.2" y1="4.9" x2="65.2" y2="13.1"/>
<line class="st0" x1="49" y1="110.8" x2="81.4" y2="110.8"/>
</svg>
