<?xml version="1.0" encoding="utf-8"?>
<!-- Generator: Adobe Illustrator 20.1.0, SVG Export Plug-In . SVG Version: 6.00 Build 0)  -->
<svg version="1.1" id="Layer_1" xmlns="http://www.w3.org/2000/svg" xmlns:xlink="http://www.w3.org/1999/xlink" x="0px" y="0px"
	 viewBox="0 0 731 324" style="enable-background:new 0 0 731 324;" xml:space="preserve">
<style type="text/css">
	.st0{fill:#3E55A5;}
	.st1{fill:#F1A91E;}
	.st2{fill:none;stroke:#9166AB;stroke-width:4;stroke-linecap:round;stroke-linejoin:round;}
	.st3{fill:#9166AB;}
	.st4{fill:#3C8BCA;}
	.st5{fill:#FFFFFF;}
</style>
<path class="st0" d="M162,17.4C83.3,17.4,19.4,81.3,19.4,160S83.3,302.6,162,302.6V17.4z"/>
<path class="st1" d="M162,17.4v285.2c78.7,0,142.6-63.8,142.6-142.6S240.7,17.4,162,17.4z"/>
<g>
	<g>
		<path class="st2" d="M308.6,111.7c0,0,84.6-100.8,195.8-15.5"/>
		<g>
			<polygon class="st3" points="486.1,100.6 500.5,93.2 505.1,77.8 522.6,111.7 			"/>
		</g>
	</g>
</g>
<g>
	<g>
		<path class="st2" d="M522.6,225.8c0,0-84.6,100.8-195.8,15.5"/>
		<g>
			<polygon class="st3" points="345,236.9 330.7,244.2 326.1,259.7 308.6,225.8 			"/>
		</g>
	</g>
</g>
<path class="st4" d="M698.5,225.8H557.2c-6.6,0-12-5.4-12-12v-87.3c0-6.6,5.4-12,12-12h141.3c6.6,0,12,5.4,12,12v87.3
	C710.5,220.4,705.1,225.8,698.5,225.8z"/>
<g>
	<path class="st5" d="M45.2,141.4v1.1l-1.4,0.2v11.4H42l-6.2-9.9l-0.1,0v8.5l1.4,0.2v1.1h-4.6v-1.1l1.4-0.2v-10.1l-1.4-0.2v-1.1h1.4
		h1.7l6.2,9.9l0.1,0v-8.5l-1.4-0.2v-1.1h3.2H45.2z"/>
	<path class="st5" d="M52.7,154.2c-0.1-0.3-0.1-0.5-0.1-0.7s0-0.4-0.1-0.6c-0.3,0.4-0.8,0.8-1.3,1.1s-1,0.4-1.6,0.4
		c-1,0-1.7-0.2-2.3-0.7s-0.8-1.2-0.8-2c0-0.9,0.4-1.6,1.1-2.1s1.7-0.7,3-0.7h1.8v-1.1c0-0.6-0.2-1-0.5-1.3s-0.8-0.5-1.5-0.5
		c-0.4,0-0.8,0.1-1.1,0.2s-0.6,0.3-0.8,0.5l-0.2,1H47v-1.8c0.4-0.3,1-0.6,1.6-0.8s1.3-0.3,2-0.3c1.1,0,2,0.3,2.6,0.8s1,1.3,1,2.4
		v4.6c0,0.1,0,0.2,0,0.4s0,0.2,0,0.4l0.7,0.1v1.1H52.7z M49.9,153c0.6,0,1.1-0.1,1.6-0.4s0.8-0.6,1-1V150h-1.8
		c-0.7,0-1.3,0.2-1.7,0.5s-0.6,0.7-0.6,1.2c0,0.4,0.1,0.7,0.4,1S49.4,153,49.9,153z"/>
	<path class="st5" d="M59.4,142.4v2.3h1.8v1.3h-1.8v5.8c0,0.4,0.1,0.8,0.3,0.9s0.4,0.3,0.7,0.3c0.2,0,0.3,0,0.5,0s0.4-0.1,0.5-0.1
		l0.2,1.2c-0.2,0.1-0.4,0.2-0.7,0.3s-0.6,0.1-0.9,0.1c-0.7,0-1.3-0.2-1.7-0.6s-0.6-1.1-0.6-2V146h-1.5v-1.3h1.5v-2.3H59.4z"/>
	<path class="st5" d="M63,153.1l1.4-0.2v-6.8l-1.4-0.2v-1.1h3.2v8.2l1.4,0.2v1.1H63V153.1z M66.2,142.3h-1.7v-1.8h1.7V142.3z"/>
	<path class="st5" d="M72.2,145.8L71,146l2,5.4l0.2,0.7h0.1l0.2-0.7l1.9-5.4l-1.2-0.2v-1.1h3.7v1.1L77,146l-3.2,8.3h-1.3l-3.2-8.3
		l-0.8-0.1v-1.1h3.7V145.8z"/>
	<path class="st5" d="M83.2,154.4c-1.3,0-2.4-0.4-3.2-1.3s-1.2-2-1.2-3.4v-0.4c0-1.4,0.4-2.5,1.2-3.4s1.8-1.3,2.9-1.3
		c1.3,0,2.2,0.4,2.9,1.2s1,1.8,1,3.1v1.1h-6.2l0,0c0,0.9,0.2,1.7,0.7,2.3s1.1,0.9,1.9,0.9c0.6,0,1.1-0.1,1.5-0.3s0.8-0.4,1.1-0.7
		l0.7,1.1c-0.3,0.3-0.8,0.6-1.3,0.8S84,154.4,83.2,154.4z M82.9,145.9c-0.6,0-1.1,0.2-1.5,0.7s-0.7,1.1-0.8,1.8l0,0h4.4v-0.2
		c0-0.7-0.2-1.2-0.5-1.7S83.6,145.9,82.9,145.9z"/>
	<path class="st5" d="M42.5,167h-1.2l-0.3-1.8c-0.3-0.3-0.6-0.5-1-0.7s-0.9-0.3-1.5-0.3c-1.3,0-2.4,0.5-3.1,1.4s-1.1,2.2-1.1,3.7
		v0.2c0,1.5,0.4,2.7,1.1,3.7s1.7,1.5,2.9,1.5c0.6,0,1.1-0.1,1.6-0.3s0.8-0.4,1.1-0.7l0.3-1.8h1.2v2.3c-0.4,0.5-0.9,0.9-1.7,1.3
		s-1.6,0.6-2.6,0.6c-1.7,0-3-0.6-4.1-1.8s-1.6-2.8-1.6-4.6v-0.2c0-1.9,0.5-3.4,1.6-4.7s2.4-1.8,4.1-1.8c1,0,1.8,0.2,2.6,0.6
		s1.3,0.8,1.7,1.3V167z"/>
	<path class="st5" d="M44.4,171c0-1.4,0.4-2.6,1.1-3.5s1.8-1.4,3.1-1.4c1.3,0,2.4,0.5,3.1,1.4s1.1,2.1,1.1,3.5v0.2
		c0,1.4-0.4,2.6-1.1,3.5S50,176,48.7,176c-1.3,0-2.4-0.5-3.1-1.4s-1.1-2.1-1.1-3.5V171z M46.1,171.2c0,1,0.2,1.8,0.6,2.5
		s1.1,1,1.9,1c0.8,0,1.4-0.3,1.9-1s0.6-1.5,0.6-2.5V171c0-1-0.2-1.8-0.6-2.5s-1.1-1-1.9-1s-1.5,0.3-1.9,1s-0.6,1.5-0.6,2.5V171.2z"
		/>
	<path class="st5" d="M54.1,174.7l1.4-0.2v-6.8l-1.4-0.2v-1.1h3l0.1,1.2c0.3-0.5,0.7-0.8,1.2-1s1-0.4,1.7-0.4s1.2,0.1,1.6,0.4
		s0.8,0.7,1,1.3c0.3-0.5,0.7-1,1.2-1.3s1.1-0.5,1.7-0.5c1,0,1.7,0.3,2.3,1s0.8,1.7,0.8,3v4.3l1.4,0.2v1.1h-4.6v-1.1l1.4-0.2v-4.4
		c0-0.9-0.2-1.6-0.5-2s-0.8-0.6-1.4-0.6c-0.6,0-1.1,0.2-1.5,0.6s-0.6,1-0.6,1.6v4.7l1.4,0.2v1.1h-4.6v-1.1l1.4-0.2v-4.4
		c0-0.9-0.2-1.5-0.5-2s-0.8-0.6-1.4-0.6c-0.5,0-1,0.1-1.3,0.3s-0.6,0.5-0.8,0.9v5.7l1.4,0.2v1.1h-4.6V174.7z"/>
	<path class="st5" d="M71.3,178.4l1.4-0.2v-10.4l-1.4-0.2v-1.1h2.9l0.2,1.2c0.3-0.4,0.7-0.8,1.2-1s1-0.3,1.6-0.3
		c1.2,0,2.1,0.5,2.7,1.4s1,2.2,1,3.7v0.2c0,1.4-0.3,2.5-1,3.3s-1.6,1.3-2.7,1.3c-0.6,0-1.1-0.1-1.5-0.3s-0.8-0.5-1.1-0.9v3.3
		l1.4,0.2v1.1h-4.6V178.4z M79.1,171.3c0-1.1-0.2-2-0.6-2.7s-1-1-1.9-1c-0.5,0-0.9,0.1-1.3,0.3s-0.6,0.5-0.9,0.9v4.6
		c0.2,0.4,0.5,0.7,0.8,0.9s0.8,0.3,1.3,0.3c0.8,0,1.4-0.3,1.9-0.9s0.6-1.4,0.6-2.3V171.3z"/>
	<path class="st5" d="M82.4,171c0-1.4,0.4-2.6,1.1-3.5s1.8-1.4,3.1-1.4c1.3,0,2.4,0.5,3.1,1.4s1.1,2.1,1.1,3.5v0.2
		c0,1.4-0.4,2.6-1.1,3.5S88,176,86.7,176c-1.3,0-2.4-0.5-3.1-1.4s-1.1-2.1-1.1-3.5V171z M84.1,171.2c0,1,0.2,1.8,0.6,2.5
		s1.1,1,1.9,1c0.8,0,1.4-0.3,1.9-1s0.6-1.5,0.6-2.5V171c0-1-0.2-1.8-0.6-2.5s-1.1-1-1.9-1s-1.5,0.3-1.9,1s-0.6,1.5-0.6,2.5V171.2z"
		/>
	<path class="st5" d="M92.2,174.7l1.4-0.2v-6.8l-1.4-0.2v-1.1h3l0.1,1.4c0.3-0.5,0.7-0.9,1.2-1.2s1-0.4,1.6-0.4c1,0,1.8,0.3,2.4,0.9
		s0.8,1.5,0.8,2.8v4.6l1.4,0.2v1.1h-4.6v-1.1l1.4-0.2v-4.6c0-0.8-0.2-1.4-0.5-1.8s-0.8-0.5-1.5-0.5c-0.5,0-0.9,0.1-1.3,0.4
		s-0.7,0.6-0.9,1v5.6l1.4,0.2v1.1h-4.6V174.7z"/>
	<path class="st5" d="M108.3,176c-1.3,0-2.4-0.4-3.2-1.3s-1.2-2-1.2-3.4v-0.4c0-1.4,0.4-2.5,1.2-3.4s1.8-1.3,2.9-1.3
		c1.3,0,2.2,0.4,2.9,1.2s1,1.8,1,3.1v1.1h-6.2l0,0c0,0.9,0.2,1.7,0.7,2.3s1.1,0.9,1.9,0.9c0.6,0,1.1-0.1,1.5-0.3s0.8-0.4,1.1-0.7
		l0.7,1.1c-0.3,0.3-0.8,0.6-1.3,0.8S109.1,176,108.3,176z M108.1,167.5c-0.6,0-1.1,0.2-1.5,0.7s-0.7,1.1-0.8,1.8l0,0h4.4v-0.2
		c0-0.7-0.2-1.2-0.5-1.7S108.8,167.5,108.1,167.5z"/>
	<path class="st5" d="M113.4,174.7l1.4-0.2v-6.8l-1.4-0.2v-1.1h3l0.1,1.4c0.3-0.5,0.7-0.9,1.2-1.2s1-0.4,1.6-0.4
		c1,0,1.8,0.3,2.4,0.9s0.8,1.5,0.8,2.8v4.6l1.4,0.2v1.1h-4.6v-1.1l1.4-0.2v-4.6c0-0.8-0.2-1.4-0.5-1.8s-0.8-0.5-1.5-0.5
		c-0.5,0-0.9,0.1-1.3,0.4s-0.7,0.6-0.9,1v5.6l1.4,0.2v1.1h-4.6V174.7z"/>
	<path class="st5" d="M128.3,164v2.3h1.8v1.3h-1.8v5.8c0,0.4,0.1,0.8,0.3,0.9s0.4,0.3,0.7,0.3c0.2,0,0.3,0,0.5,0s0.4-0.1,0.5-0.1
		l0.2,1.2c-0.2,0.1-0.4,0.2-0.7,0.3s-0.6,0.1-0.9,0.1c-0.7,0-1.3-0.2-1.7-0.6s-0.6-1.1-0.6-2v-5.8H125v-1.3h1.5V164H128.3z"/>
	<path class="st5" d="M139.1,169.3h-1.3l-0.3-1.1c-0.2-0.2-0.5-0.4-0.8-0.5s-0.7-0.2-1.1-0.2c-0.6,0-1.1,0.1-1.4,0.4s-0.4,0.6-0.4,1
		c0,0.4,0.1,0.7,0.4,0.9s0.8,0.4,1.6,0.6c1.2,0.3,2.1,0.6,2.7,1.1s0.9,1,0.9,1.8c0,0.8-0.3,1.5-1,2s-1.6,0.8-2.7,0.8
		c-0.7,0-1.4-0.1-1.9-0.3s-1.1-0.4-1.5-0.7l0-2.2h1.3l0.3,1.3c0.2,0.2,0.5,0.3,0.8,0.4s0.7,0.1,1.1,0.1c0.6,0,1.1-0.1,1.4-0.4
		s0.5-0.6,0.5-1c0-0.4-0.1-0.7-0.4-0.9s-0.8-0.5-1.6-0.6c-1.2-0.3-2-0.6-2.6-1s-0.9-1-0.9-1.8c0-0.8,0.3-1.4,1-2s1.5-0.8,2.6-0.8
		c0.7,0,1.4,0.1,1.9,0.3s1.1,0.4,1.4,0.8L139.1,169.3z"/>
</g>
<g>
	<path class="st5" d="M259.3,142.6l-1.3,0.2l1.6,7l0.2,1.6l0.1,0l0.3-1.6l2.4-8.4h1.5l2.4,8.4l0.4,1.6h0.1l0.3-1.6l1.6-7l-1.3-0.2
		v-1.1h4.1v1.1l-1,0.1l-2.8,11.5h-1.5l-2.5-8.9l-0.2-1.2h-0.1l-0.2,1.2l-2.6,8.9h-1.5l-2.8-11.5l-1-0.1v-1.1h4.1V142.6z"/>
	<path class="st5" d="M276.7,154.4c-1.3,0-2.4-0.4-3.2-1.3s-1.2-2-1.2-3.4v-0.4c0-1.4,0.4-2.5,1.2-3.4s1.8-1.3,2.9-1.3
		c1.3,0,2.2,0.4,2.9,1.2s1,1.8,1,3.1v1.1h-6.2l0,0c0,0.9,0.2,1.7,0.7,2.3s1.1,0.9,1.9,0.9c0.6,0,1.1-0.1,1.5-0.3s0.8-0.4,1.1-0.7
		l0.7,1.1c-0.3,0.3-0.8,0.6-1.3,0.8S277.5,154.4,276.7,154.4z M276.4,145.9c-0.6,0-1.1,0.2-1.5,0.7s-0.7,1.1-0.8,1.8l0,0h4.4v-0.2
		c0-0.7-0.2-1.2-0.5-1.7S277.1,145.9,276.4,145.9z"/>
	<path class="st5" d="M290.7,149.8c0,1.4-0.3,2.5-1,3.3s-1.6,1.3-2.7,1.3c-0.6,0-1.2-0.1-1.6-0.4s-0.8-0.6-1.1-1.1l-0.2,1.2h-1.5
		v-12.3l-1.4-0.2v-1.1h3.2v5.3c0.3-0.4,0.7-0.7,1.1-1s1-0.3,1.6-0.3c1.2,0,2.1,0.5,2.7,1.4s1,2.2,1,3.7V149.8z M289,149.7
		c0-1.1-0.2-2-0.6-2.7s-1-1-1.8-1c-0.5,0-1,0.1-1.3,0.4s-0.7,0.6-0.9,1v4.2c0.2,0.4,0.5,0.8,0.9,1s0.8,0.4,1.4,0.4
		c0.8,0,1.4-0.3,1.8-0.9s0.6-1.3,0.6-2.3V149.7z"/>
	<path class="st5" d="M194,167h-1.2l-0.3-1.8c-0.3-0.3-0.6-0.5-1-0.7s-0.9-0.3-1.5-0.3c-1.3,0-2.4,0.5-3.1,1.4s-1.1,2.2-1.1,3.7v0.2
		c0,1.5,0.4,2.7,1.1,3.7s1.7,1.5,2.9,1.5c0.6,0,1.1-0.1,1.6-0.3s0.8-0.4,1.1-0.7l0.3-1.8h1.2v2.3c-0.4,0.5-0.9,0.9-1.7,1.3
		s-1.6,0.6-2.6,0.6c-1.7,0-3-0.6-4.1-1.8s-1.6-2.8-1.6-4.6v-0.2c0-1.9,0.5-3.4,1.6-4.7s2.4-1.8,4.1-1.8c1,0,1.8,0.2,2.6,0.6
		s1.3,0.8,1.7,1.3V167z"/>
	<path class="st5" d="M195.8,171c0-1.4,0.4-2.6,1.1-3.5s1.8-1.4,3.1-1.4c1.3,0,2.4,0.5,3.1,1.4s1.1,2.1,1.1,3.5v0.2
		c0,1.4-0.4,2.6-1.1,3.5s-1.8,1.4-3.1,1.4c-1.3,0-2.4-0.5-3.1-1.4s-1.1-2.1-1.1-3.5V171z M197.6,171.2c0,1,0.2,1.8,0.6,2.5
		s1.1,1,1.9,1c0.8,0,1.4-0.3,1.9-1s0.6-1.5,0.6-2.5V171c0-1-0.2-1.8-0.6-2.5s-1.1-1-1.9-1s-1.5,0.3-1.9,1s-0.6,1.5-0.6,2.5V171.2z"
		/>
	<path class="st5" d="M205.6,174.7l1.4-0.2v-6.8l-1.4-0.2v-1.1h3l0.1,1.2c0.3-0.5,0.7-0.8,1.2-1s1-0.4,1.7-0.4s1.2,0.1,1.6,0.4
		s0.8,0.7,1,1.3c0.3-0.5,0.7-1,1.2-1.3s1.1-0.5,1.7-0.5c1,0,1.7,0.3,2.3,1s0.8,1.7,0.8,3v4.3l1.4,0.2v1.1h-4.6v-1.1l1.4-0.2v-4.4
		c0-0.9-0.2-1.6-0.5-2s-0.8-0.6-1.4-0.6c-0.6,0-1.1,0.2-1.5,0.6s-0.6,1-0.6,1.6v4.7l1.4,0.2v1.1h-4.6v-1.1l1.4-0.2v-4.4
		c0-0.9-0.2-1.5-0.5-2s-0.8-0.6-1.4-0.6c-0.5,0-1,0.1-1.3,0.3s-0.6,0.5-0.8,0.9v5.7l1.4,0.2v1.1h-4.6V174.7z"/>
	<path class="st5" d="M222.7,178.4l1.4-0.2v-10.4l-1.4-0.2v-1.1h2.9l0.2,1.2c0.3-0.4,0.7-0.8,1.2-1s1-0.3,1.6-0.3
		c1.2,0,2.1,0.5,2.7,1.4s1,2.2,1,3.7v0.2c0,1.4-0.3,2.5-1,3.3s-1.6,1.3-2.7,1.3c-0.6,0-1.1-0.1-1.5-0.3s-0.8-0.5-1.1-0.9v3.3
		l1.4,0.2v1.1h-4.6V178.4z M230.5,171.3c0-1.1-0.2-2-0.6-2.7s-1-1-1.9-1c-0.5,0-0.9,0.1-1.3,0.3s-0.6,0.5-0.9,0.9v4.6
		c0.2,0.4,0.5,0.7,0.8,0.9s0.8,0.3,1.3,0.3c0.8,0,1.4-0.3,1.9-0.9s0.6-1.4,0.6-2.3V171.3z"/>
	<path class="st5" d="M233.8,171c0-1.4,0.4-2.6,1.1-3.5s1.8-1.4,3.1-1.4c1.3,0,2.4,0.5,3.1,1.4s1.1,2.1,1.1,3.5v0.2
		c0,1.4-0.4,2.6-1.1,3.5s-1.8,1.4-3.1,1.4c-1.3,0-2.4-0.5-3.1-1.4s-1.1-2.1-1.1-3.5V171z M235.6,171.2c0,1,0.2,1.8,0.6,2.5
		s1.1,1,1.9,1c0.8,0,1.4-0.3,1.9-1s0.6-1.5,0.6-2.5V171c0-1-0.2-1.8-0.6-2.5s-1.1-1-1.9-1s-1.5,0.3-1.9,1s-0.6,1.5-0.6,2.5V171.2z"
		/>
	<path class="st5" d="M243.7,174.7l1.4-0.2v-6.8l-1.4-0.2v-1.1h3l0.1,1.4c0.3-0.5,0.7-0.9,1.2-1.2s1-0.4,1.6-0.4
		c1,0,1.8,0.3,2.4,0.9s0.8,1.5,0.8,2.8v4.6l1.4,0.2v1.1h-4.6v-1.1l1.4-0.2v-4.6c0-0.8-0.2-1.4-0.5-1.8s-0.8-0.5-1.5-0.5
		c-0.5,0-0.9,0.1-1.3,0.4s-0.7,0.6-0.9,1v5.6l1.4,0.2v1.1h-4.6V174.7z"/>
	<path class="st5" d="M259.8,176c-1.3,0-2.4-0.4-3.2-1.3s-1.2-2-1.2-3.4v-0.4c0-1.4,0.4-2.5,1.2-3.4s1.8-1.3,2.9-1.3
		c1.3,0,2.2,0.4,2.9,1.2s1,1.8,1,3.1v1.1h-6.2l0,0c0,0.9,0.2,1.7,0.7,2.3s1.1,0.9,1.9,0.9c0.6,0,1.1-0.1,1.5-0.3s0.8-0.4,1.1-0.7
		l0.7,1.1c-0.3,0.3-0.8,0.6-1.3,0.8S260.5,176,259.8,176z M259.5,167.5c-0.6,0-1.1,0.2-1.5,0.7s-0.7,1.1-0.8,1.8l0,0h4.4v-0.2
		c0-0.7-0.2-1.2-0.5-1.7S260.2,167.5,259.5,167.5z"/>
	<path class="st5" d="M264.8,174.7l1.4-0.2v-6.8l-1.4-0.2v-1.1h3l0.1,1.4c0.3-0.5,0.7-0.9,1.2-1.2s1-0.4,1.6-0.4
		c1,0,1.8,0.3,2.4,0.9s0.8,1.5,0.8,2.8v4.6l1.4,0.2v1.1h-4.6v-1.1l1.4-0.2v-4.6c0-0.8-0.2-1.4-0.5-1.8s-0.8-0.5-1.5-0.5
		c-0.5,0-0.9,0.1-1.3,0.4s-0.7,0.6-0.9,1v5.6l1.4,0.2v1.1h-4.6V174.7z"/>
	<path class="st5" d="M279.7,164v2.3h1.8v1.3h-1.8v5.8c0,0.4,0.1,0.8,0.3,0.9s0.4,0.3,0.7,0.3c0.2,0,0.3,0,0.5,0s0.4-0.1,0.5-0.1
		l0.2,1.2c-0.2,0.1-0.4,0.2-0.7,0.3s-0.6,0.1-0.9,0.1c-0.7,0-1.3-0.2-1.7-0.6s-0.6-1.1-0.6-2v-5.8h-1.5v-1.3h1.5V164H279.7z"/>
	<path class="st5" d="M290.5,169.3h-1.3l-0.3-1.1c-0.2-0.2-0.5-0.4-0.8-0.5s-0.7-0.2-1.1-0.2c-0.6,0-1.1,0.1-1.4,0.4s-0.4,0.6-0.4,1
		c0,0.4,0.1,0.7,0.4,0.9s0.8,0.4,1.6,0.6c1.2,0.3,2.1,0.6,2.7,1.1s0.9,1,0.9,1.8c0,0.8-0.3,1.5-1,2s-1.6,0.8-2.7,0.8
		c-0.7,0-1.4-0.1-1.9-0.3s-1.1-0.4-1.5-0.7l0-2.2h1.3l0.3,1.3c0.2,0.2,0.5,0.3,0.8,0.4s0.7,0.1,1.1,0.1c0.6,0,1.1-0.1,1.4-0.4
		s0.5-0.6,0.5-1c0-0.4-0.1-0.7-0.4-0.9s-0.8-0.5-1.6-0.6c-1.2-0.3-2-0.6-2.6-1s-0.9-1-0.9-1.8c0-0.8,0.3-1.4,1-2s1.5-0.8,2.6-0.8
		c0.7,0,1.4,0.1,1.9,0.3s1.1,0.4,1.4,0.8L290.5,169.3z"/>
</g>
<g>
	<path class="st0" d="M383,176.6v-1.1l1.4-0.2v-10.1l-1.4-0.2v-1.1h1.4h1.7h1.4v1.1l-1.4,0.2v10.1h4.4l0.1-1.5h1.5v2.8H383z"/>
	<path class="st0" d="M393.7,171.7c0-1.4,0.4-2.6,1.1-3.5s1.8-1.4,3.1-1.4c1.3,0,2.4,0.5,3.1,1.4s1.1,2.1,1.1,3.5v0.2
		c0,1.4-0.4,2.6-1.1,3.5s-1.8,1.4-3.1,1.4c-1.3,0-2.4-0.5-3.1-1.4s-1.1-2.1-1.1-3.5V171.7z M395.4,171.9c0,1,0.2,1.8,0.6,2.5
		s1.1,1,1.9,1c0.8,0,1.4-0.3,1.9-1s0.6-1.5,0.6-2.5v-0.2c0-1-0.2-1.8-0.6-2.5s-1.1-1-1.9-1s-1.5,0.3-1.9,1s-0.6,1.5-0.6,2.5V171.9z"
		/>
	<path class="st0" d="M410,176.6c-0.1-0.3-0.1-0.5-0.1-0.7s0-0.4-0.1-0.6c-0.3,0.4-0.8,0.8-1.3,1.1s-1,0.4-1.6,0.4
		c-1,0-1.7-0.2-2.3-0.7s-0.8-1.2-0.8-2c0-0.9,0.4-1.6,1.1-2.1s1.7-0.7,3-0.7h1.8v-1.1c0-0.6-0.2-1-0.5-1.3s-0.8-0.5-1.5-0.5
		c-0.4,0-0.8,0.1-1.1,0.2s-0.6,0.3-0.8,0.5l-0.2,1h-1.3V168c0.4-0.3,1-0.6,1.6-0.8s1.3-0.3,2-0.3c1.1,0,2,0.3,2.6,0.8s1,1.3,1,2.4
		v4.6c0,0.1,0,0.2,0,0.4s0,0.2,0,0.4l0.7,0.1v1.1H410z M407.2,175.3c0.6,0,1.1-0.1,1.6-0.4s0.8-0.6,1-1v-1.6h-1.8
		c-0.7,0-1.3,0.2-1.7,0.5s-0.6,0.7-0.6,1.2c0,0.4,0.1,0.7,0.4,1S406.6,175.3,407.2,175.3z"/>
	<path class="st0" d="M420.1,175.4c-0.3,0.4-0.7,0.8-1.1,1s-1,0.3-1.6,0.3c-1.2,0-2.1-0.4-2.7-1.3s-1-1.9-1-3.3V172
		c0-1.5,0.3-2.8,1-3.7s1.6-1.4,2.7-1.4c0.6,0,1.1,0.1,1.5,0.3s0.8,0.5,1.1,0.9v-3.9l-1.4-0.2v-1.1h1.4h1.7v12.4l1.4,0.2v1.1h-2.9
		L420.1,175.4z M415.4,172.2c0,1,0.2,1.7,0.6,2.3s1,0.9,1.8,0.9c0.5,0,0.9-0.1,1.3-0.4s0.6-0.6,0.9-1v-4.4c-0.2-0.4-0.5-0.7-0.9-0.9
		s-0.8-0.4-1.3-0.4c-0.8,0-1.4,0.3-1.8,1s-0.6,1.6-0.6,2.7V172.2z"/>
	<path class="st0" d="M434.7,163.8c1.4,0,2.4,0.4,3.2,1.1s1.1,1.6,1.1,2.8c0,1.2-0.4,2.1-1.1,2.8s-1.8,1-3.2,1h-2.7v3.8l1.4,0.2v1.1
		h-4.6v-1.1l1.4-0.2v-10.1l-1.4-0.2v-1.1h1.4H434.7z M431.9,170.1h2.7c0.9,0,1.5-0.2,1.9-0.7s0.6-1.1,0.6-1.8s-0.2-1.3-0.6-1.8
		s-1.1-0.7-1.9-0.7h-2.7V170.1z"/>
	<path class="st0" d="M446.5,176.6c-0.1-0.3-0.1-0.5-0.1-0.7s0-0.4-0.1-0.6c-0.3,0.4-0.8,0.8-1.3,1.1s-1,0.4-1.6,0.4
		c-1,0-1.7-0.2-2.3-0.7s-0.8-1.2-0.8-2c0-0.9,0.4-1.6,1.1-2.1s1.7-0.7,3-0.7h1.8v-1.1c0-0.6-0.2-1-0.5-1.3s-0.8-0.5-1.5-0.5
		c-0.4,0-0.8,0.1-1.1,0.2s-0.6,0.3-0.8,0.5l-0.2,1h-1.3V168c0.4-0.3,1-0.6,1.6-0.8s1.3-0.3,2-0.3c1.1,0,2,0.3,2.6,0.8s1,1.3,1,2.4
		v4.6c0,0.1,0,0.2,0,0.4s0,0.2,0,0.4l0.7,0.1v1.1H446.5z M443.7,175.3c0.6,0,1.1-0.1,1.6-0.4s0.8-0.6,1-1v-1.6h-1.8
		c-0.7,0-1.3,0.2-1.7,0.5s-0.6,0.7-0.6,1.2c0,0.4,0.1,0.7,0.4,1S443.2,175.3,443.7,175.3z"/>
	<path class="st0" d="M450.2,172c0-1.5,0.3-2.8,1-3.7s1.6-1.4,2.8-1.4c0.6,0,1.1,0.1,1.6,0.4s0.8,0.6,1.1,1l0.2-1.2h1.5v9.4
		c0,1.2-0.3,2.2-1,2.9s-1.7,1.1-2.9,1.1c-0.5,0-1-0.1-1.5-0.2s-1-0.3-1.4-0.5l0.4-1.3c0.3,0.2,0.7,0.3,1.1,0.4s0.9,0.2,1.3,0.2
		c0.8,0,1.3-0.2,1.7-0.7s0.5-1.1,0.5-1.9v-0.9c-0.3,0.4-0.7,0.7-1.1,0.9s-0.9,0.3-1.5,0.3c-1.2,0-2.1-0.4-2.8-1.3s-1-1.9-1-3.3V172z
		 M451.9,172.2c0,1,0.2,1.7,0.6,2.3s1,0.9,1.8,0.9c0.5,0,1-0.1,1.3-0.4s0.6-0.6,0.9-1v-4.4c-0.2-0.4-0.5-0.7-0.9-1s-0.8-0.4-1.3-0.4
		c-0.8,0-1.4,0.3-1.9,1s-0.6,1.6-0.6,2.7V172.2z"/>
	<path class="st0" d="M464.7,176.8c-1.3,0-2.4-0.4-3.2-1.3s-1.2-2-1.2-3.4v-0.4c0-1.4,0.4-2.5,1.2-3.4s1.8-1.3,2.9-1.3
		c1.3,0,2.2,0.4,2.9,1.2s1,1.8,1,3.1v1.1h-6.2l0,0c0,0.9,0.2,1.7,0.7,2.3s1.1,0.9,1.9,0.9c0.6,0,1.1-0.1,1.5-0.3s0.8-0.4,1.1-0.7
		l0.7,1.1c-0.3,0.3-0.8,0.6-1.3,0.8S465.5,176.8,464.7,176.8z M464.5,168.2c-0.6,0-1.1,0.2-1.5,0.7s-0.7,1.1-0.8,1.8l0,0h4.4v-0.2
		c0-0.7-0.2-1.2-0.5-1.7S465.2,168.2,464.5,168.2z"/>
	<path class="st0" d="M477.3,170.1H476l-0.3-1.1c-0.2-0.2-0.5-0.4-0.8-0.5s-0.7-0.2-1.1-0.2c-0.6,0-1.1,0.1-1.4,0.4s-0.4,0.6-0.4,1
		c0,0.4,0.1,0.7,0.4,0.9s0.8,0.4,1.6,0.6c1.2,0.3,2.1,0.6,2.7,1.1s0.9,1,0.9,1.8c0,0.8-0.3,1.5-1,2s-1.6,0.8-2.7,0.8
		c-0.7,0-1.4-0.1-1.9-0.3s-1.1-0.4-1.5-0.7l0-2.2h1.3l0.3,1.3c0.2,0.2,0.5,0.3,0.8,0.4s0.7,0.1,1.1,0.1c0.6,0,1.1-0.1,1.4-0.4
		s0.5-0.6,0.5-1c0-0.4-0.1-0.7-0.4-0.9s-0.8-0.5-1.6-0.6c-1.2-0.3-2-0.6-2.6-1s-0.9-1-0.9-1.8c0-0.8,0.3-1.4,1-2s1.5-0.8,2.6-0.8
		c0.7,0,1.4,0.1,1.9,0.3s1.1,0.4,1.4,0.8L477.3,170.1z"/>
</g>
<g>
	<path class="st5" d="M609.1,157.4v-1.1h4.6v1.1l-1.4,0.2v4.4h6.2v-4.4l-1.4-0.2v-1.1h1.4h1.7h1.4v1.1l-1.4,0.2v10.1l1.4,0.2v1.1
		h-4.6V168l1.4-0.2v-4.3h-6.2v4.3l1.4,0.2v1.1h-4.6V168l1.4-0.2v-10.1L609.1,157.4z"/>
	<path class="st5" d="M632.9,160.2h-1.2l-0.3-1.8c-0.3-0.3-0.6-0.5-1-0.7s-0.9-0.3-1.5-0.3c-1.3,0-2.4,0.5-3.1,1.4s-1.1,2.2-1.1,3.7
		v0.2c0,1.5,0.4,2.7,1.1,3.7s1.7,1.5,2.9,1.5c0.6,0,1.1-0.1,1.6-0.3s0.8-0.4,1.1-0.7l0.3-1.8h1.2v2.3c-0.4,0.5-0.9,0.9-1.7,1.3
		s-1.6,0.6-2.6,0.6c-1.7,0-3-0.6-4.1-1.8s-1.6-2.8-1.6-4.6v-0.2c0-1.9,0.5-3.4,1.6-4.7s2.4-1.8,4.1-1.8c1,0,1.8,0.2,2.6,0.6
		s1.3,0.8,1.7,1.3V160.2z"/>
	<path class="st5" d="M634.4,168l0.9-0.1l4.5-11.6h1.5l4.4,11.6l0.9,0.1v1.1H643V168l1-0.2l-0.8-2.4H638l-0.9,2.4l1,0.2v1.1h-3.7
		V168z M638.5,164h4.1l-2-5.5h-0.1L638.5,164z"/>
	<path class="st5" d="M610.1,181.7h-1.3l-0.3-1.8c-0.3-0.2-0.6-0.4-1.1-0.6s-0.9-0.2-1.5-0.2c-0.9,0-1.6,0.2-2.1,0.6
		s-0.7,0.9-0.7,1.5c0,0.6,0.2,1,0.8,1.4s1.3,0.7,2.4,1c1.3,0.3,2.4,0.8,3.1,1.5s1.1,1.5,1.1,2.4c0,1-0.4,1.9-1.3,2.5
		s-1.9,0.9-3.3,0.9c-1,0-1.9-0.2-2.6-0.5s-1.4-0.7-1.9-1.3v-2.4h1.3l0.3,1.8c0.3,0.3,0.7,0.5,1.2,0.7s1,0.3,1.7,0.3
		c0.9,0,1.6-0.2,2.1-0.6s0.8-0.9,0.8-1.5c0-0.6-0.2-1.1-0.7-1.5s-1.2-0.7-2.3-1c-1.4-0.3-2.4-0.8-3.2-1.4s-1.1-1.4-1.1-2.4
		c0-1,0.4-1.8,1.3-2.5s2-1,3.3-1c0.9,0,1.7,0.2,2.4,0.5s1.3,0.7,1.8,1.1V181.7z"/>
	<path class="st5" d="M616.3,190.9c-1.3,0-2.4-0.4-3.2-1.3s-1.2-2-1.2-3.4v-0.4c0-1.4,0.4-2.5,1.2-3.4s1.8-1.3,2.9-1.3
		c1.3,0,2.2,0.4,2.9,1.2s1,1.8,1,3.1v1.1h-6.2l0,0c0,0.9,0.2,1.7,0.7,2.3s1.1,0.9,1.9,0.9c0.6,0,1.1-0.1,1.5-0.3s0.8-0.4,1.1-0.7
		l0.7,1.1c-0.3,0.3-0.8,0.6-1.3,0.8S617.1,190.9,616.3,190.9z M616,182.4c-0.6,0-1.1,0.2-1.5,0.7s-0.7,1.1-0.8,1.8l0,0h4.4v-0.2
		c0-0.7-0.2-1.2-0.5-1.7S616.7,182.4,616,182.4z"/>
	<path class="st5" d="M621.6,182.3v-1.1h3l0.2,1.4c0.3-0.5,0.6-0.9,1-1.1s0.8-0.4,1.4-0.4c0.1,0,0.3,0,0.4,0s0.3,0,0.3,0.1l-0.2,1.6
		l-1-0.1c-0.5,0-0.8,0.1-1.2,0.3s-0.6,0.5-0.7,0.9v5.5l1.4,0.2v1.1h-4.6v-1.1l1.4-0.2v-6.8L621.6,182.3z"/>
	<path class="st5" d="M632.5,182.3l-1.1,0.2l2,5.4l0.2,0.7h0.1l0.2-0.7l1.9-5.4l-1.2-0.2v-1.1h3.7v1.1l-0.8,0.1l-3.2,8.3h-1.3
		l-3.2-8.3l-0.8-0.1v-1.1h3.7V182.3z"/>
	<path class="st5" d="M643.5,190.9c-1.3,0-2.4-0.4-3.2-1.3s-1.2-2-1.2-3.4v-0.4c0-1.4,0.4-2.5,1.2-3.4s1.8-1.3,2.9-1.3
		c1.3,0,2.2,0.4,2.9,1.2s1,1.8,1,3.1v1.1h-6.2l0,0c0,0.9,0.2,1.7,0.7,2.3s1.1,0.9,1.9,0.9c0.6,0,1.1-0.1,1.5-0.3s0.8-0.4,1.1-0.7
		l0.7,1.1c-0.3,0.3-0.8,0.6-1.3,0.8S644.3,190.9,643.5,190.9z M643.2,182.4c-0.6,0-1.1,0.2-1.5,0.7s-0.7,1.1-0.8,1.8l0,0h4.4v-0.2
		c0-0.7-0.2-1.2-0.5-1.7S643.9,182.4,643.2,182.4z"/>
	<path class="st5" d="M648.8,182.3v-1.1h3l0.2,1.4c0.3-0.5,0.6-0.9,1-1.1s0.8-0.4,1.4-0.4c0.1,0,0.3,0,0.4,0s0.3,0,0.3,0.1l-0.2,1.6
		l-1-0.1c-0.5,0-0.8,0.1-1.2,0.3s-0.6,0.5-0.7,0.9v5.5l1.4,0.2v1.1h-4.6v-1.1l1.4-0.2v-6.8L648.8,182.3z"/>
</g>
</svg>
