<?xml version="1.0" encoding="utf-8"?>
<!-- Generator: Adobe Illustrator 20.1.0, SVG Export Plug-In . SVG Version: 6.00 Build 0)  -->
<svg version="1.1" id="Layer_1" xmlns="http://www.w3.org/2000/svg" xmlns:xlink="http://www.w3.org/1999/xlink" x="0px" y="0px"
	 viewBox="0 0 290 113" style="enable-background:new 0 0 290 113;" xml:space="preserve">
<style type="text/css">
	.st0{fill:#FFFFFF;}
</style>
<path class="st0" d="M7,17.5V62c0,3.6,2.9,6.6,6.6,6.6c0.5,0,0.9-0.4,0.9-0.9v-56c0-0.5-0.4-0.9-0.9-0.9C9.9,10.9,7,13.8,7,17.5
	 M108.9,48.3c-2.4-0.8-6.1,0.3-7.6,3.7l0,0c-2.8,6.2-9,10-16.2,10c-11,0-19.9-10-19.9-22.3s8.9-22.3,19.9-22.3
	c7.2,0,13.5,3.8,16.2,10c1.3,2.9,4.5,4.4,7.6,3.7c0,0,0.2,0,0.6-0.2s0.6-0.5,0.5-0.9c0,0-0.1-0.9-0.6-2.1c-0.7-1.8-1.2-3.1-1.4-3.4
	C104.1,15.6,95.3,10,85,10c-15,0-27.3,13.4-27.3,29.8C57.7,56.1,70,69.5,85,69.5c10.2,0,19-5.5,23-14.5c0.1-0.2,0.7-1.5,1.4-3.4
	c0.5-1.3,0.6-1.8,0.6-2.2C110,49,109.7,48.6,108.9,48.3 M101.3,27.5c1.3,2.9,4.5,4.4,7.6,3.7c0.3-0.1,0.5-0.2,0.6-0.2 M53,17.5V62
	c0,3.7-3,6.6-6.6,6.6c-0.5,0-0.9-0.4-0.9-0.9V43.1h-24l0,0l0,0c-0.1,0-0.1,0-0.2,0l0,0h-0.1l0,0c0,0-0.1,0-0.1-0.1l0,0L21,42.9l0,0
	l-4.2-5.1c-0.1-0.1-0.2-0.3-0.2-0.6c0-0.4,0.3-0.7,0.7-0.8h0.1h28.2V11.8c0-0.5,0.4-0.9,0.9-0.9C50.1,10.9,53,13.9,53,17.5"/>
<path class="st0" d="M160,67.1L160,67.1C160,67,160,67,160,67.1l-2-5.7l0,0l-17.9-46.8c-0.5-1.3-1.1-2.4-1.9-3.2
	c-0.9-0.9-2.2-1.4-3.7-1.4s-2.8,0.5-3.7,1.4c-0.8,0.9-1.5,2-1.9,3.3L111,61.4l0,0l-2,5.6v0.1l0,0c-0.1,0.4,0.1,0.9,0.5,1l0,0h0.1
	c3.6,1.3,7.5-0.5,8.9-4l0,0l3.1-8.4h26l3.1,8.4l0,0c1.4,3.5,5.3,5.2,8.9,4h0.1l0,0C160,68,160.2,67.5,160,67.1 M124.1,48.7L134.5,20
	l10.4,28.7H124.1z"/>
<path class="st0" d="M10.9,101.6c0,0.5-0.2,0.9-0.5,1.2c-0.3,0.3-0.7,0.5-1.2,0.5s-0.9-0.2-1.3-0.5c-0.3-0.3-0.5-0.8-0.5-1.2V81.3
	c0-0.5,0.2-0.9,0.5-1.3c0.3-0.3,0.8-0.5,1.3-0.5s0.9,0.2,1.2,0.5c0.3,0.3,0.5,0.8,0.5,1.3v8.3h11.6v-8.3c0-0.5,0.2-0.9,0.5-1.3
	c0.3-0.3,0.8-0.5,1.3-0.5s0.9,0.2,1.2,0.5c0.3,0.3,0.5,0.8,0.5,1.3v20.3c0,0.5-0.2,0.9-0.5,1.2c-0.3,0.3-0.8,0.5-1.3,0.5
	s-0.9-0.2-1.2-0.5c-0.3-0.3-0.5-0.8-0.5-1.2v-8.9H10.9V101.6z"/>
<path class="st0" d="M33.5,98.2c0.8,1.4,2.1,2.2,4,2.2c1.3,0,2.3-0.3,3.2-0.9s1.4-1,1.6-1.1c0.2-0.1,0.5-0.2,0.7-0.2
	c0.4,0,0.8,0.1,1,0.4c0.3,0.3,0.4,0.6,0.4,1c0,0.5-0.2,0.9-0.6,1.3c-0.8,0.8-1.7,1.4-2.9,1.8s-2.4,0.7-3.6,0.7
	c-2.5,0-4.5-0.8-6.1-2.5c-1.6-1.7-2.4-3.8-2.4-6.5c0-2.5,0.8-4.7,2.3-6.4c1.5-1.7,3.4-2.6,5.7-2.6c1.2,0,2.4,0.3,3.4,0.8
	c1.1,0.5,1.9,1.2,2.4,2c0.6,0.8,1,1.8,1.4,2.8c0.4,1.1,0.5,2,0.5,2.8c0,0.6-0.1,1.1-0.4,1.3c-0.3,0.2-0.8,0.4-1.5,0.4h-9.9
	C32.9,96.7,33.2,97.6,33.5,98.2 M32.6,93.2h8.6c-0.5-3.3-1.9-4.9-4.3-4.9c-1.4,0-2.4,0.4-2.9,1.3c-0.6,0.8-0.9,1.5-1,1.9
	C32.8,91.8,32.7,92.4,32.6,93.2"/>
<path class="st0" d="M58.9,87c0-0.4,0.2-0.8,0.5-1.1c0.3-0.3,0.7-0.4,1.2-0.4s0.9,0.1,1.2,0.4s0.5,0.7,0.5,1.1v14.6
	c0,0.5-0.2,0.9-0.5,1.2c-0.3,0.3-0.7,0.5-1.2,0.5s-0.9-0.2-1.2-0.5s-0.5-0.7-0.5-1.2v-0.8c-0.8,1-1.5,1.7-2.1,2s-1.5,0.5-2.6,0.5
	c-2.2,0-4-0.8-5.4-2.5s-2.2-3.8-2.2-6.4s0.7-4.7,2.2-6.4c1.4-1.7,3.3-2.5,5.4-2.5c1,0,1.9,0.1,2.5,0.4s1.4,0.9,2.3,1.7V87H58.9z
	 M50,94.5c0,1.8,0.4,3.2,1.2,4.3c0.8,1.1,1.9,1.6,3.2,1.6c1.4,0,2.5-0.5,3.3-1.6s1.2-2.6,1.2-4.5c0-1-0.1-1.8-0.3-2.5
	s-0.6-1.4-1.1-2.2c-0.6-0.8-1.6-1.2-2.9-1.2c-1.4,0-2.5,0.5-3.3,1.6C50.4,91.2,50,92.7,50,94.5"/>
<path class="st0" d="M67.6,103.4c-0.5,0-0.9-0.2-1.2-0.5c-0.3-0.3-0.5-0.7-0.5-1.2V79.6c0-0.5,0.2-0.9,0.5-1.2
	c0.3-0.3,0.7-0.5,1.2-0.5s0.8,0.2,1.2,0.5c0.3,0.3,0.5,0.7,0.5,1.2v22c0,0.5-0.2,0.9-0.5,1.3C68.5,103.2,68.1,103.4,67.6,103.4"/>
<path class="st0" d="M72.6,88.8c-0.4,0-0.8-0.1-1.1-0.4C71.2,88,71,87.7,71,87.3c0-0.4,0.2-0.7,0.5-1s0.7-0.5,1.1-0.5h1.2v-3.6
	c0-0.5,0.2-0.9,0.5-1.2c0.3-0.3,0.7-0.5,1.2-0.5s0.9,0.2,1.2,0.5c0.3,0.3,0.5,0.7,0.5,1.3v3.6h1.5c0.4,0,0.8,0.1,1.1,0.4
	c0.3,0.3,0.5,0.6,0.5,1.1c0,0.4-0.2,0.8-0.5,1.1c-0.3,0.3-0.7,0.4-1.1,0.4h-1.5v12.9c0,0.5-0.2,0.8-0.5,1.2
	c-0.3,0.3-0.7,0.5-1.2,0.5s-0.9-0.2-1.2-0.5c-0.3-0.3-0.5-0.7-0.5-1.2v-13H72.6z"/>
<path class="st0" d="M85.6,86.9c0.5-0.4,1.1-0.7,1.8-1c0.8-0.3,1.5-0.4,2.1-0.4c1.8,0,3.3,0.6,4.5,1.7c1.2,1.2,1.7,2.7,1.7,4.7v9.8
	c0,0.5-0.2,0.8-0.5,1.2c-0.3,0.3-0.7,0.5-1.2,0.5s-0.9-0.2-1.2-0.5c-0.3-0.3-0.5-0.7-0.5-1.2v-9.5c0-1.1-0.4-2-1.1-2.7
	s-1.6-1.1-2.6-1.1s-1.9,0.4-2.7,1.1c-0.8,0.7-1.1,1.6-1.1,2.7v9.6c0,0.5-0.2,0.8-0.5,1.2c-0.3,0.3-0.7,0.5-1.2,0.5s-0.9-0.2-1.2-0.5
	c-0.3-0.3-0.5-0.7-0.5-1.2V79.6c0-0.5,0.2-0.9,0.5-1.2c0.3-0.3,0.7-0.5,1.3-0.5c0.5,0,0.8,0.2,1.2,0.5c0.3,0.3,0.5,0.7,0.5,1.2v7.9
	L85.6,86.9z"/>
<path class="st0" d="M110.3,99.3c0.4,0,0.7,0.2,1,0.5s0.4,0.7,0.4,1.1c0,0.7-0.5,1.3-1.4,1.8s-2.1,0.7-3.5,0.7
	c-2.4,0-4.3-0.8-5.8-2.5s-2.3-3.8-2.3-6.4s0.8-4.8,2.3-6.4c1.5-1.7,3.5-2.5,5.9-2.5c1.4,0,2.5,0.2,3.5,0.7c0.9,0.5,1.4,1,1.4,1.6
	c0,0.5-0.1,0.9-0.4,1.2c-0.3,0.3-0.7,0.5-1.1,0.5c-0.2,0-0.3,0-0.4,0s-0.5-0.2-1.1-0.4c-0.6-0.3-1.2-0.4-1.8-0.4
	c-1.4,0-2.5,0.5-3.4,1.6s-1.3,2.4-1.3,4.2c0,1.7,0.4,3.1,1.3,4.2s2,1.6,3.3,1.6c0.4,0,0.7,0,0.9-0.1c0.2,0,0.5-0.2,1-0.3l0.7-0.2
	C109.7,99.4,110,99.3,110.3,99.3"/>
<path class="st0" d="M125.9,87c0-0.4,0.2-0.8,0.5-1.1c0.3-0.3,0.7-0.4,1.2-0.4c0.5,0,0.9,0.1,1.2,0.4c0.3,0.3,0.5,0.7,0.5,1.1v14.6
	c0,0.5-0.2,0.9-0.5,1.2c-0.3,0.3-0.7,0.5-1.2,0.5c-0.5,0-0.9-0.2-1.2-0.5c-0.3-0.3-0.5-0.7-0.5-1.2v-0.8c-0.8,1-1.5,1.7-2.1,2
	s-1.5,0.5-2.6,0.5c-2.2,0-4-0.8-5.4-2.5s-2.2-3.8-2.2-6.4s0.7-4.7,2.2-6.4c1.4-1.7,3.3-2.5,5.4-2.5c1,0,1.9,0.1,2.5,0.4
	s1.4,0.9,2.3,1.7V87H125.9z M117,94.5c0,1.8,0.4,3.2,1.2,4.3c0.8,1.1,1.9,1.6,3.2,1.6c1.4,0,2.5-0.5,3.3-1.6s1.2-2.6,1.2-4.5
	c0-1-0.1-1.8-0.3-2.5c-0.2-0.7-0.6-1.4-1.1-2.2c-0.6-0.8-1.6-1.2-2.9-1.2c-1.4,0-2.5,0.5-3.3,1.6C117.4,91.2,117,92.7,117,94.5"/>
<path class="st0" d="M137.2,86.7c0.7-0.8,1.4-1.2,2.3-1.2c0.5,0,0.9,0.2,1.3,0.5c0.4,0.3,0.5,0.7,0.5,1.2c0,0.4-0.1,0.7-0.3,0.9
	s-0.5,0.5-1,0.6l-0.9,0.4c-0.1,0-0.3,0.1-0.5,0.3c-0.2,0.1-0.7,0.5-1.4,1c-0.7,0.6-1.1,1.7-1.1,3.5v7.7c0,0.4-0.2,0.8-0.5,1.2
	c-0.3,0.3-0.7,0.5-1.2,0.5s-0.9-0.2-1.2-0.5s-0.5-0.7-0.5-1.2V87c0-0.4,0.2-0.8,0.5-1c0.3-0.3,0.7-0.4,1.2-0.4
	c0.4,0,0.8,0.1,1.2,0.4c0.3,0.3,0.5,0.6,0.5,1.1v1.1L137.2,86.7z"/>
<path class="st0" d="M146.1,98.2c0.8,1.4,2.1,2.2,4,2.2c1.3,0,2.3-0.3,3.2-0.9c0.8-0.6,1.4-1,1.6-1.1c0.2-0.1,0.5-0.2,0.7-0.2
	c0.4,0,0.8,0.1,1,0.4c0.3,0.3,0.4,0.6,0.4,1c0,0.5-0.2,0.9-0.6,1.3c-0.8,0.8-1.7,1.4-2.9,1.8c-1.2,0.5-2.4,0.7-3.6,0.7
	c-2.5,0-4.5-0.8-6.1-2.5s-2.4-3.8-2.4-6.5c0-2.5,0.8-4.7,2.3-6.4c1.5-1.7,3.4-2.6,5.7-2.6c1.2,0,2.4,0.3,3.4,0.8
	c1.1,0.5,1.9,1.2,2.4,2c0.6,0.8,1,1.8,1.4,2.8c0.4,1.1,0.5,2,0.5,2.8c0,0.6-0.1,1.1-0.4,1.3c-0.3,0.2-0.8,0.4-1.5,0.4H145
	C145.5,96.7,145.8,97.6,146.1,98.2 M145.2,93.2h8.6c-0.5-3.3-1.9-4.9-4.3-4.9c-1.4,0-2.4,0.4-2.9,1.3c-0.6,0.8-0.9,1.5-1,1.9
	C145.4,91.8,145.3,92.4,145.2,93.2"/>
<path class="st0" d="M170,102.6c-0.2,0.5-0.6,0.8-1.1,0.8c-0.7,0-1-0.3-1-1c0-0.3,0-0.5,0.1-0.6l7.7-20.7c0.2-0.6,0.4-1,0.6-1.2
	c0.2-0.2,0.5-0.3,0.9-0.3c0.5,0,0.9,0.1,1.1,0.3c0.2,0.2,0.4,0.6,0.7,1.2l7.7,20.7l0.1,0.6c0,0.7-0.3,1-1,1c-0.5,0-0.9-0.3-1.1-0.8
	l-1.8-4.7h-11.2L170,102.6z M172.4,96h9.9l-4.9-13.6L172.4,96z"/>
<path class="st0" d="M201,101.6c-1.2,1.2-2.9,1.8-4.9,1.8c-2.1,0-3.6-0.4-4.5-1.3s-1.5-1.7-1.8-2.3c-0.2-0.7-0.4-1.6-0.4-2.9v-10
	c0-0.3,0.1-0.6,0.3-0.8c0.2-0.2,0.5-0.3,0.8-0.3s0.5,0.1,0.7,0.3c0.2,0.2,0.3,0.5,0.3,0.8v10c0,1.6,0.4,2.7,1.2,3.5s1.9,1.1,3.2,1.1
	s2.4-0.4,3.2-1.1s1.2-1.9,1.2-3.5v-10c0-0.3,0.1-0.6,0.3-0.8c0.2-0.2,0.4-0.3,0.7-0.3s0.6,0.1,0.8,0.4c0.2,0.2,0.4,0.5,0.4,0.8v10
	c0,1.3-0.1,2.2-0.3,2.9C202.1,100.3,201.7,100.9,201,101.6"/>
<path class="st0" d="M206.4,90.3c0-1.3,0.5-2.4,1.6-3.3s2.4-1.4,4.1-1.4c1.4,0,2.6,0.3,3.9,0.9c1.2,0.6,1.8,1.2,1.8,1.8
	c0,0.3-0.1,0.5-0.3,0.7s-0.4,0.3-0.7,0.3c-0.2,0-0.3,0-0.5-0.1s-0.6-0.4-1.3-0.9s-1.7-0.8-2.9-0.8c-1,0-1.8,0.2-2.4,0.7
	c-0.6,0.5-0.9,1.1-0.9,1.8c0,0.4,0,0.6,0.1,0.8c0.1,0.2,0.3,0.4,0.6,0.6s0.7,0.5,1.1,0.7c0.4,0.2,1.4,0.6,2.8,1.1
	c1.5,0.6,2.7,1.2,3.5,2c0.9,0.8,1.3,1.8,1.3,3c0,1.4-0.6,2.6-1.8,3.5c-1.2,1-2.7,1.5-4.5,1.5c-0.8,0-1.4-0.1-2.1-0.3
	c-0.6-0.2-1.5-0.6-2.6-1.2s-1.6-1.2-1.6-1.9c0-0.3,0.1-0.6,0.3-0.8c0.2-0.2,0.5-0.4,0.7-0.4s0.4,0.1,0.6,0.2
	c0.2,0.1,0.6,0.5,1.4,1.2c0.8,0.7,1.9,1,3.4,1c1.1,0,2-0.3,2.7-0.9s1.1-1.3,1.1-2.1c0-1.1-1-2-2.9-2.9l-1.6-0.6
	c-2-0.8-3.3-1.6-4-2.2C206.7,92.1,206.4,91.3,206.4,90.3"/>
<path class="st0" d="M220.6,87.8c-0.3,0-0.5-0.1-0.7-0.3c-0.2-0.2-0.3-0.4-0.3-0.7c0-0.3,0.1-0.5,0.3-0.7s0.5-0.3,0.8-0.3h1.4v-4.1
	c0-0.3,0.1-0.6,0.3-0.9c0.2-0.2,0.5-0.4,0.8-0.4s0.6,0.1,0.8,0.3c0.2,0.2,0.3,0.5,0.3,0.9v4.2h1.5c0.3,0,0.5,0.1,0.7,0.3
	s0.3,0.4,0.3,0.7c0,0.3-0.1,0.5-0.3,0.6c-0.2,0.2-0.5,0.3-0.8,0.3h-1.5v14.4c0,0.3-0.1,0.6-0.3,0.8c-0.2,0.2-0.5,0.3-0.8,0.3
	s-0.6-0.1-0.8-0.3c-0.2-0.2-0.3-0.5-0.3-0.8V87.8H220.6z"/>
<path class="st0" d="M233.3,85.9c0.4-0.2,0.7-0.3,1.1-0.3c0.4,0,0.7,0.1,1,0.4c0.3,0.2,0.4,0.5,0.4,0.9c0,0.3-0.1,0.6-0.3,0.8
	c-0.2,0.2-0.7,0.4-1.5,0.7c-0.8,0.3-1.5,0.9-2,1.9s-0.7,2.4-0.7,4.3l-0.1,7.9c0,0.3-0.1,0.6-0.3,0.8c-0.2,0.2-0.4,0.3-0.7,0.3
	s-0.6-0.1-0.8-0.3c-0.2-0.2-0.4-0.5-0.4-0.8V86.8c0-0.3,0.1-0.6,0.3-0.8c0.2-0.2,0.5-0.3,0.8-0.3s0.6,0.1,0.8,0.4
	c0.2,0.2,0.3,0.5,0.3,0.8l-0.1,1.8c0.4-0.8,0.7-1.5,1-1.8C232.5,86.5,232.9,86.1,233.3,85.9"/>
<path class="st0" d="M248.7,86.8c0-0.3,0.1-0.6,0.3-0.8c0.2-0.2,0.5-0.3,0.8-0.3s0.5,0.1,0.7,0.3c0.2,0.2,0.3,0.5,0.3,0.8v15.6
	c0,0.3-0.1,0.6-0.3,0.8c-0.2,0.2-0.5,0.3-0.8,0.3s-0.6-0.1-0.8-0.4c-0.2-0.2-0.3-0.5-0.3-0.9v-1.6c-0.8,1.1-1.6,1.8-2.3,2.2
	c-0.7,0.4-1.6,0.6-2.7,0.6c-2.1,0-3.9-0.8-5.3-2.5c-1.4-1.7-2.1-3.8-2.1-6.4s0.7-4.7,2.1-6.4c1.4-1.7,3.1-2.5,5.2-2.5
	c1.1,0,2,0.2,2.7,0.5s1.5,1,2.4,1.9v-1.2H248.7z M238.7,94.5c0,2.2,0.5,3.9,1.4,5.1c0.9,1.3,2.1,1.9,3.7,1.9c3.4,0,5.1-2.4,5.1-7.2
	c0-1.3-0.1-2.3-0.3-3s-0.6-1.5-1.3-2.4s-1.8-1.4-3.3-1.4c-1.6,0-2.9,0.6-3.8,1.9C239.2,90.6,238.7,92.3,238.7,94.5"/>
<path class="st0" d="M256.5,103.4c-0.3,0-0.6-0.1-0.8-0.3c-0.2-0.2-0.3-0.5-0.3-0.9V79c0-0.3,0.1-0.6,0.3-0.8
	c0.2-0.2,0.5-0.3,0.8-0.3s0.6,0.1,0.8,0.3c0.2,0.2,0.3,0.5,0.3,0.8v23.1c0,0.3-0.1,0.6-0.3,0.9C257.1,103.3,256.8,103.4,256.5,103.4
	"/>
<path class="st0" d="M263.3,80.4c0.4,0,0.7,0.2,1,0.5s0.4,0.7,0.4,1.1s-0.1,0.8-0.4,1c-0.3,0.3-0.6,0.4-1,0.4s-0.8-0.1-1.1-0.4
	s-0.5-0.6-0.5-1s0.2-0.8,0.5-1.1C262.4,80.6,262.8,80.4,263.3,80.4 M263.2,103.3c-0.3,0-0.6-0.1-0.8-0.3c-0.2-0.2-0.3-0.5-0.3-0.8
	V86.7c0-0.3,0.1-0.6,0.3-0.8c0.2-0.2,0.5-0.3,0.8-0.3s0.6,0.1,0.7,0.3c0.2,0.2,0.3,0.5,0.3,0.8v15.5c0,0.3-0.1,0.6-0.3,0.8
	C263.8,103.2,263.5,103.3,263.2,103.3"/>
<path class="st0" d="M280.3,86.8c0-0.3,0.1-0.6,0.3-0.8c0.2-0.2,0.5-0.3,0.8-0.3s0.5,0.1,0.7,0.3c0.2,0.2,0.3,0.5,0.3,0.8v15.6
	c0,0.3-0.1,0.6-0.3,0.8s-0.5,0.3-0.8,0.3s-0.6-0.1-0.8-0.4c-0.2-0.2-0.3-0.5-0.3-0.9v-1.6c-0.8,1.1-1.6,1.8-2.3,2.2
	c-0.7,0.4-1.6,0.6-2.7,0.6c-2.1,0-3.9-0.8-5.3-2.5s-2.1-3.8-2.1-6.4s0.7-4.7,2.1-6.4c1.4-1.7,3.1-2.5,5.2-2.5c1.1,0,2,0.2,2.7,0.5
	s1.5,1,2.4,1.9L280.3,86.8L280.3,86.8z M270.2,94.5c0,2.2,0.5,3.9,1.4,5.1c0.9,1.3,2.1,1.9,3.7,1.9c3.4,0,5.1-2.4,5.1-7.2
	c0-1.3-0.1-2.3-0.3-3c-0.2-0.7-0.6-1.5-1.3-2.4c-0.7-0.9-1.8-1.4-3.3-1.4c-1.6,0-2.9,0.6-3.8,1.9C270.7,90.6,270.2,92.3,270.2,94.5"
	/>
</svg>
