<?xml version="1.0" encoding="utf-8"?>
<!-- Generator: Adobe Illustrator 20.0.0, SVG Export Plug-In . SVG Version: 6.00 Build 0)  -->
<svg version="1.1" id="Layer_1" xmlns="http://www.w3.org/2000/svg" xmlns:xlink="http://www.w3.org/1999/xlink" x="0px" y="0px"
	 viewBox="0 0 350 350" enable-background="new 0 0 350 350" xml:space="preserve">
<linearGradient id="SVGID_1_" gradientUnits="userSpaceOnUse" x1="175.1477" y1="0.5158" x2="175.1477" y2="244.2426">
	<stop  offset="0" style="stop-color:#FFFFFF"/>
	<stop  offset="1" style="stop-color:#BDBDBD"/>
</linearGradient>
<path fill="url(#SVGID_1_)" d="M97.349,227.846c2.249-1.763,2.635-4.694,2.635-6.497v-0.503c0-3.986-2.2-8.247-8.376-8.247h-9.461
	v31.643h9.674c6.873,0,8.705-5.314,8.705-8.457v-1.045C100.526,233.472,100.264,229.723,97.349,227.846z M85.758,216.165h5.851
	c3.256,0,4.771,1.499,4.771,4.725v0.373c0,4.317-2.286,4.899-4.52,4.899h-6.102V216.165z M96.92,235.662
	c0,4.366-3.172,5.016-5.061,5.016h-6.102v-10.956h6.31c3.264,0,4.852,1.655,4.852,5.059V235.662z M128.365,222.474v-1.5
	c0-3.11-1.816-8.374-8.626-8.374h-9.462v31.643h3.612v-13.224h5.023l5.801,13.224h4.084l-6.116-13.639
	C126.851,229.176,128.365,225.432,128.365,222.474z M113.889,227.451v-11.286h5.85c1.508,0,5.02,0.481,5.02,4.935v1.332
	c0,4.778-4.114,5.02-4.94,5.02H113.889z M154.824,240.679H141.18v-11.373h12.6v-3.566h-12.6v-9.575h13.644V212.6h-17.25v31.643
	h17.25V240.679z M184.926,237.087l-5.8-24.447h-3.212l-5.837,24.445l-4.816-24.445h-3.784l6.574,31.602h3.893l5.587-22.879
	l5.521,22.879h3.898l6.613-31.602h-3.782L184.926,237.087z M219.437,243.294l-7.924-29.747h-4.257l-7.761,29.747h1.627l2.338-8.843
	h11.971l2.297,8.843H219.437z M203.879,232.781l4.587-17.606h1.923l4.585,17.606H203.879z M236.261,213.548h-8.511v29.746h1.712
	v-13.225h6.59l5.799,13.225h2.005l-5.966-13.308c4.963-1.086,6.047-5.299,6.047-7.513v-1.499
	C243.937,218.556,242.646,213.548,236.261,213.548z M242.23,222.433c0,4.882-3.799,5.965-5.888,5.965h-6.881v-13.182h6.8
	c2.088,0,5.969,0.915,5.969,5.884V222.433z M251.126,213.547v1.668h7.673v28.079h1.71v-28.079h7.638v-1.668H251.126z
	 M82.148,191.197h186v-9.364H91.512V9.88h176.636V0.516h-186V191.197z M260.435,61.989v-2.436c0-11.821-8.397-35.654-39.563-35.654
	h-114.58v145.254h115.598c31.17,0,41.196-24.65,41.196-36.679v-5.082c0-8.557-5.75-28.322-24.694-33.209
	C255.304,88.27,260.435,70.347,260.435,61.989z M222.093,161.01H114.64V34.342l119.12,125.069
	C229.388,160.629,225.175,161.01,222.093,161.01z"/>
<g>
	<path fill="#7E838A" d="M13.165,337.141c0-1.561,0.205-2.971,0.615-4.23c0.41-1.26,0.985-2.335,1.725-3.225
		c0.74-0.89,1.63-1.57,2.67-2.04c1.04-0.47,2.19-0.705,3.45-0.705c1.16,0,2.175,0.24,3.045,0.72c0.87,0.48,1.564,1.03,2.085,1.65
		l-0.81,0.899c-0.54-0.6-1.17-1.084-1.89-1.455c-0.72-0.369-1.53-0.555-2.43-0.555c-1.08,0-2.055,0.21-2.925,0.63
		s-1.605,1.016-2.205,1.785c-0.6,0.771-1.065,1.705-1.395,2.805c-0.33,1.101-0.495,2.341-0.495,3.721s0.16,2.625,0.48,3.734
		c0.319,1.11,0.78,2.056,1.38,2.835c0.6,0.78,1.325,1.386,2.175,1.815c0.85,0.431,1.805,0.645,2.865,0.645
		c1.02,0,1.93-0.199,2.73-0.6c0.8-0.399,1.56-1.01,2.28-1.83l0.81,0.87c-0.76,0.88-1.605,1.57-2.535,2.07
		c-0.93,0.499-2.045,0.75-3.345,0.75c-1.22,0-2.335-0.24-3.345-0.721c-1.01-0.479-1.88-1.164-2.61-2.055
		c-0.73-0.89-1.3-1.97-1.71-3.24C13.37,340.146,13.165,338.721,13.165,337.141z"/>
	<path fill="#7E838A" d="M42.085,347.07l-5.34-9.09h-4.2v9.09h-1.38v-19.77h5.64c0.979,0,1.87,0.095,2.67,0.284
		c0.8,0.19,1.485,0.495,2.055,0.915s1.01,0.96,1.32,1.62s0.465,1.46,0.465,2.4c0,1.58-0.456,2.815-1.365,3.705
		c-0.91,0.89-2.145,1.445-3.705,1.665l5.43,9.18H42.085z M36.445,336.84c1.76,0,3.105-0.354,4.035-1.064
		c0.93-0.71,1.395-1.795,1.395-3.255c0-1.48-0.465-2.524-1.395-3.135c-0.93-0.61-2.275-0.915-4.035-0.915h-3.9v8.369H36.445z"/>
	<path fill="#7E838A" d="M56.305,340.29h-7.83l-2.31,6.78h-1.41l6.99-19.77h1.38l6.96,19.77h-1.47L56.305,340.29z M55.915,339.12
		l-1.26-3.689c-0.4-1.181-0.78-2.311-1.14-3.391c-0.36-1.08-0.71-2.229-1.05-3.45h-0.12c-0.34,1.221-0.69,2.37-1.05,3.45
		c-0.36,1.08-0.74,2.21-1.14,3.391l-1.26,3.689H55.915z"/>
	<path fill="#7E838A" d="M63.024,327.301h10.77v1.199h-9.39v7.86h7.92v1.2h-7.92v9.51h-1.38V327.301z"/>
	<path fill="#7E838A" d="M81.354,328.5h-6.3v-1.199h13.95v1.199h-6.27v18.57h-1.38V328.5z"/>
	<path fill="#7E838A" d="M101.664,339.061l-5.94-11.76h1.47l3,6.18c0.34,0.72,0.68,1.43,1.02,2.13c0.34,0.7,0.7,1.41,1.08,2.13h0.12
		c0.379-0.72,0.75-1.43,1.11-2.13s0.709-1.41,1.05-2.13l3-6.18h1.41l-5.94,11.76v8.01h-1.38V339.061z"/>
	<path fill="#7E838A" d="M118.314,347.431c-1.2,0-2.3-0.245-3.3-0.735c-1-0.49-1.86-1.185-2.58-2.085
		c-0.72-0.9-1.28-1.984-1.68-3.255c-0.4-1.27-0.6-2.686-0.6-4.245s0.2-2.965,0.6-4.215c0.4-1.25,0.96-2.32,1.68-3.21
		c0.72-0.89,1.58-1.57,2.58-2.04c1-0.47,2.1-0.705,3.3-0.705c1.18,0,2.27,0.235,3.27,0.705c1,0.47,1.86,1.15,2.58,2.04
		c0.72,0.89,1.28,1.96,1.68,3.21c0.399,1.25,0.6,2.655,0.6,4.215s-0.2,2.976-0.6,4.245c-0.4,1.271-0.96,2.354-1.68,3.255
		c-0.72,0.9-1.58,1.595-2.58,2.085C120.583,347.186,119.494,347.431,118.314,347.431z M118.314,346.17c1,0,1.91-0.214,2.73-0.645
		c0.82-0.43,1.525-1.04,2.115-1.83c0.589-0.79,1.045-1.74,1.365-2.85c0.32-1.11,0.48-2.355,0.48-3.735c0-1.36-0.16-2.59-0.48-3.69
		c-0.32-1.1-0.775-2.034-1.365-2.805c-0.59-0.77-1.295-1.365-2.115-1.785c-0.82-0.42-1.73-0.63-2.73-0.63
		c-1,0-1.915,0.21-2.745,0.63s-1.54,1.016-2.13,1.785c-0.59,0.771-1.045,1.705-1.365,2.805c-0.32,1.101-0.48,2.33-0.48,3.69
		c0,1.38,0.16,2.625,0.48,3.735c0.319,1.109,0.774,2.06,1.365,2.85c0.59,0.79,1.3,1.4,2.13,1.83
		C116.399,345.956,117.313,346.17,118.314,346.17z"/>
	<path fill="#7E838A" d="M130.704,327.301h1.38v12.029c0,1.32,0.145,2.415,0.435,3.285c0.29,0.87,0.675,1.57,1.155,2.1
		c0.48,0.53,1.04,0.905,1.68,1.125c0.64,0.221,1.31,0.33,2.01,0.33c0.72,0,1.399-0.109,2.04-0.33c0.64-0.22,1.209-0.595,1.71-1.125
		c0.5-0.529,0.895-1.229,1.185-2.1c0.29-0.87,0.435-1.965,0.435-3.285v-12.029h1.32v12.18c0,1.54-0.19,2.82-0.57,3.84
		s-0.88,1.835-1.5,2.445s-1.335,1.04-2.145,1.29c-0.81,0.249-1.635,0.375-2.475,0.375c-0.86,0-1.69-0.126-2.49-0.375
		c-0.8-0.25-1.51-0.68-2.13-1.29c-0.62-0.61-1.115-1.426-1.485-2.445c-0.371-1.02-0.555-2.3-0.555-3.84V327.301z"/>
	<path fill="#7E838A" d="M160.524,347.07l-5.34-9.09h-4.2v9.09h-1.38v-19.77h5.64c0.979,0,1.87,0.095,2.67,0.284
		c0.8,0.19,1.485,0.495,2.055,0.915s1.01,0.96,1.32,1.62s0.465,1.46,0.465,2.4c0,1.58-0.456,2.815-1.365,3.705
		c-0.91,0.89-2.145,1.445-3.705,1.665l5.43,9.18H160.524z M154.884,336.84c1.76,0,3.105-0.354,4.035-1.064
		c0.93-0.71,1.395-1.795,1.395-3.255c0-1.48-0.465-2.524-1.395-3.135c-0.93-0.61-2.275-0.915-4.035-0.915h-3.9v8.369H154.884z"/>
	<path fill="#7E838A" d="M172.163,327.301h1.92l4.139,11.609l1.561,4.38h0.119l1.53-4.38l4.11-11.609h1.95v19.77h-1.351v-12.99
		c0-0.819,0.02-1.705,0.061-2.654c0.039-0.95,0.079-1.846,0.12-2.686h-0.12l-1.53,4.35l-4.26,11.82h-1.2l-4.26-11.82l-1.56-4.35
		h-0.12c0.04,0.84,0.075,1.735,0.105,2.686c0.03,0.949,0.045,1.835,0.045,2.654v12.99h-1.26V327.301z"/>
	<path fill="#7E838A" d="M201.981,340.29h-7.83l-2.31,6.78h-1.41l6.99-19.77h1.38l6.96,19.77h-1.47L201.981,340.29z M201.592,339.12
		l-1.261-3.689c-0.399-1.181-0.779-2.311-1.14-3.391s-0.71-2.229-1.05-3.45h-0.12c-0.34,1.221-0.69,2.37-1.05,3.45
		c-0.36,1.08-0.74,2.21-1.141,3.391l-1.26,3.689H201.592z"/>
	<path fill="#7E838A" d="M208.042,343.5c0.72,0.82,1.579,1.471,2.58,1.95c1,0.48,2.08,0.72,3.24,0.72c1.5,0,2.694-0.364,3.585-1.095
		c0.89-0.729,1.335-1.685,1.335-2.865c0-0.619-0.096-1.14-0.285-1.56c-0.19-0.42-0.445-0.785-0.766-1.095
		c-0.319-0.311-0.7-0.58-1.14-0.811c-0.44-0.229-0.9-0.454-1.38-0.675l-3-1.35c-0.42-0.181-0.865-0.4-1.335-0.66
		c-0.471-0.26-0.9-0.585-1.29-0.976c-0.39-0.39-0.716-0.85-0.975-1.38c-0.261-0.529-0.391-1.165-0.391-1.904
		c0-0.721,0.145-1.375,0.436-1.966c0.289-0.589,0.689-1.1,1.199-1.529c0.511-0.431,1.115-0.766,1.815-1.005
		c0.7-0.24,1.46-0.36,2.28-0.36c1.199,0,2.27,0.235,3.21,0.705c0.939,0.47,1.71,1.025,2.31,1.665l-0.81,0.93
		c-0.581-0.619-1.261-1.114-2.04-1.485c-0.78-0.369-1.67-0.555-2.67-0.555c-1.32,0-2.375,0.32-3.165,0.96
		c-0.791,0.641-1.186,1.5-1.186,2.58c0,0.58,0.11,1.07,0.33,1.47c0.22,0.4,0.5,0.746,0.84,1.035c0.34,0.29,0.71,0.54,1.11,0.75
		c0.399,0.21,0.78,0.396,1.14,0.556l3,1.319c0.54,0.24,1.061,0.51,1.561,0.811c0.499,0.3,0.939,0.649,1.319,1.05
		s0.686,0.875,0.915,1.425c0.23,0.551,0.346,1.205,0.346,1.965c0,0.761-0.15,1.466-0.45,2.115c-0.3,0.65-0.726,1.21-1.275,1.68
		c-0.55,0.471-1.215,0.84-1.995,1.11c-0.779,0.27-1.649,0.405-2.609,0.405c-1.44,0-2.715-0.275-3.825-0.825
		s-2.055-1.265-2.835-2.146L208.042,343.5z"/>
	<path fill="#7E838A" d="M227.782,328.5h-6.3v-1.199h13.95v1.199h-6.271v18.57h-1.38V328.5z"/>
	<path fill="#7E838A" d="M239.032,327.301h10.8v1.199h-9.42v7.471h7.92v1.199h-7.92v8.7h9.72v1.2h-11.1V327.301z"/>
	<path fill="#7E838A" d="M265.162,347.07l-5.34-9.09h-4.2v9.09h-1.38v-19.77h5.64c0.979,0,1.87,0.095,2.67,0.284
		c0.8,0.19,1.485,0.495,2.055,0.915c0.57,0.42,1.01,0.96,1.32,1.62c0.31,0.66,0.465,1.46,0.465,2.4c0,1.58-0.455,2.815-1.364,3.705
		c-0.911,0.89-2.146,1.445-3.705,1.665l5.43,9.18H265.162z M259.521,336.84c1.76,0,3.105-0.354,4.035-1.064
		c0.931-0.71,1.396-1.795,1.396-3.255c0-1.48-0.465-2.524-1.396-3.135c-0.93-0.61-2.275-0.915-4.035-0.915h-3.899v8.369H259.521z"/>
	<path fill="#7E838A" d="M270.832,327.301h5.399c1.1,0,2.085,0.095,2.955,0.284c0.87,0.19,1.605,0.506,2.205,0.945
		c0.601,0.44,1.06,1.01,1.38,1.71s0.48,1.561,0.48,2.58c0,1.94-0.62,3.386-1.86,4.335c-1.24,0.95-2.96,1.425-5.16,1.425h-4.02v8.49
		h-1.38V327.301z M275.872,337.41c2.04,0,3.544-0.359,4.515-1.08c0.97-0.72,1.455-1.89,1.455-3.51c0-0.84-0.125-1.535-0.375-2.085
		s-0.62-0.995-1.11-1.335s-1.109-0.58-1.859-0.72s-1.626-0.21-2.625-0.21h-3.66v8.939H275.872z"/>
	<path fill="#7E838A" d="M287.362,327.301h1.38v19.77h-1.38V327.301z"/>
	<path fill="#7E838A" d="M294.352,327.301h10.8v1.199h-9.42v7.471h7.92v1.199h-7.92v8.7h9.72v1.2h-11.1V327.301z"/>
	<path fill="#7E838A" d="M308.271,337.141c0-1.561,0.204-2.971,0.614-4.23s0.985-2.335,1.726-3.225c0.739-0.89,1.63-1.57,2.67-2.04
		s2.19-0.705,3.45-0.705c1.159,0,2.175,0.24,3.045,0.72c0.87,0.48,1.564,1.03,2.085,1.65l-0.811,0.899
		c-0.54-0.6-1.17-1.084-1.89-1.455c-0.72-0.369-1.53-0.555-2.43-0.555c-1.08,0-2.056,0.21-2.925,0.63
		c-0.87,0.42-1.605,1.016-2.205,1.785c-0.601,0.771-1.065,1.705-1.396,2.805c-0.33,1.101-0.495,2.341-0.495,3.721
		s0.16,2.625,0.48,3.734c0.319,1.11,0.78,2.056,1.38,2.835c0.6,0.78,1.324,1.386,2.175,1.815c0.85,0.431,1.805,0.645,2.865,0.645
		c1.02,0,1.93-0.199,2.729-0.6c0.8-0.399,1.561-1.01,2.28-1.83l0.811,0.87c-0.761,0.88-1.605,1.57-2.535,2.07
		c-0.931,0.499-2.046,0.75-3.346,0.75c-1.22,0-2.335-0.24-3.345-0.721c-1.01-0.479-1.88-1.164-2.609-2.055
		c-0.73-0.89-1.301-1.97-1.711-3.24C308.476,340.146,308.271,338.721,308.271,337.141z"/>
	<path fill="#7E838A" d="M326.271,327.301h10.8v1.199h-9.42v7.471h7.92v1.199h-7.92v8.7h9.72v1.2h-11.1V327.301z"/>
</g>
</svg>
