<?xml version="1.0" encoding="UTF-8"?>
<svg width="280px" height="108px" viewBox="0 0 280 108" version="1.1" xmlns="http://www.w3.org/2000/svg" xmlns:xlink="http://www.w3.org/1999/xlink">
    <!-- Generator: Sketch 47.1 (45422) - http://www.bohemiancoding.com/sketch -->
    <title>logo_clipsal</title>
    <desc>Created with Sketch.</desc>
    <defs>
        <polygon id="path-1" points="0 107.692308 279.115497 107.692308 279.115497 0.887533156 0 0.887533156"></polygon>
    </defs>
    <g id="Symbols" stroke="none" stroke-width="1" fill="none" fill-rule="evenodd">
        <g id="Enabled/header_clipsal" transform="translate(-160.000000, -80.000000)">
            <g id="logo_clipsal" transform="translate(160.000000, 80.000000)">
                <polygon id="Fill-1" fill="#4E2F91" points="53.8461538 1.08780109 45.0839414 56.5656566 24.7692308 56.5656566 33.3357657 1.08780109"></polygon>
                <polygon id="Fill-2" fill="#E03A3E" points="8.1917986 1.08780109 0 56.5656566 19.5356865 56.5656566 28 1.08780109"></polygon>
                <g id="Group-41">
                    <path d="M88.062596,16.3905836 C86.6663046,15.5420424 85.396106,15.2728117 83.9330596,15.2728117 C78.219947,15.2728117 71.6112053,21.2255968 71.6112053,32.3810345 C71.6112053,40.1330239 74.0310728,43.718435 79.4753113,43.6033156 C80.6212715,43.577321 81.7727947,43.521618 83.4194172,43.521618 L81.7727947,55.154244 C78.8670993,56.6043767 75.4811391,56.6043767 75.4811391,56.6043767 C66.289351,56.6043767 56.6988874,50.1335544 56.6988874,36.3433687 C56.6988874,14.9664456 69.198755,1.2096817 82.918755,1.2096817 C85.457298,1.2096817 87.8085563,1.75 90.0318675,2.75636605 L88.062596,16.3905836 Z" id="Fill-3" fill="#242424"></path>
                    <path d="M174.024265,38.9818302 C174.024265,38.9818302 171.867709,53.5444297 171.867709,53.55 C171.776848,54.1571618 175.196185,55.618435 175.672742,55.8133952 C177.235921,56.4539788 178.778702,56.814191 180.456848,56.955305 C184.284132,57.278382 188.194861,57.0370027 191.871947,55.8728117 C196.231417,54.4950928 200.244132,51.7526525 202.660291,47.8683024 C205.015258,44.0767905 205.721748,39.2956233 204.564662,34.9860743 C203.691285,31.7330239 201.764662,28.7844828 199.18347,26.6343501 C196.648636,24.5213528 194.09155,22.3210875 193.242278,18.8953581 C192.988238,17.8667109 193.003073,16.7396552 193.464795,15.7852785 C195.441483,11.6874005 203.437245,15.246817 205.795921,17.2744032 L207.577907,3.79801061 C204.086252,1.62374005 198.386119,0.888461538 194.512477,0.888461538 C184.91645,0.888461538 177.577113,11.0616711 177.577113,17.8444297 C177.577113,23.3460212 179.275656,26.6659151 182.898967,30.9271883 C185.326252,33.7513263 191.643868,36.8149867 188.862411,41.4513263 C185.964132,46.2770557 176.859497,41.8523873 174.024265,38.9818302" id="Fill-5" fill="#242424"></path>
                    <path d="M155.072901,26.287321 C154.820715,26.287321 154.373828,26.287321 153.865748,26.2130504 L155.846146,14.4541645 L156.281907,14.4541645 C159.139391,14.4541645 161.609325,14.9369231 161.609325,19.3021751 C161.609325,23.6637135 158.694358,26.287321 155.072901,26.287321 M162.093298,2.33877984 L142.739921,2.33877984 L133.865219,56.1756499 L148.547603,56.2183554 L151.184424,38.6013793 C151.753695,38.6013793 152.32853,38.6775066 152.897801,38.6775066 C164.839523,38.6775066 174.821245,34.364244 175.640848,20.7504509 C176.608795,4.76557029 166.934887,2.82710875 162.093298,2.33877984" id="Fill-7" fill="#242424"></path>
                    <path d="M191.888265,94.1353316 L190.497536,97.9101326 C189.924556,97.3661008 189.344159,97.089443 188.758199,97.089443 C188.227868,97.089443 187.769854,97.2732626 187.382305,97.6334748 C186.992901,97.993687 186.62204,98.662122 186.266013,99.6350663 L186.266013,104.241698 L182.499921,104.241698 L182.499921,93.5541645 L186.266013,93.5541645 L186.266013,96.1313528 C186.50151,95.4981963 186.920583,94.8817507 187.521377,94.2764456 C188.122172,93.6767109 188.826808,93.3740584 189.638993,93.3740584 C190.063629,93.3740584 190.43449,93.4371883 190.751576,93.5615915 C191.070517,93.6878515 191.450649,93.8790981 191.888265,94.1353316" id="Fill-9" fill="#242424"></path>
                    <path d="M173.037404,97.943183 C173.037404,97.2728912 173.232106,96.7325729 173.62151,96.3203714 C174.014623,95.9007427 174.522702,95.6964987 175.156874,95.6964987 C175.792901,95.6964987 176.282437,95.8988859 176.625483,96.3092308 C176.966675,96.7158621 177.137272,97.2617507 177.137272,97.943183 L173.037404,97.943183 Z M180.667868,99.0498143 C180.667868,97.707374 180.408265,96.6118833 179.88906,95.7689125 C179.368,94.9166578 178.702305,94.3076393 177.895682,93.9344297 C177.087205,93.5612202 176.250914,93.373687 175.384954,93.373687 C174.070252,93.373687 172.952106,93.609496 172.030517,94.0792573 C171.108927,94.5527321 170.417272,95.2025995 169.959258,96.0307162 C169.503099,96.8569761 169.273166,97.7964987 169.273166,98.8455703 C169.273166,99.9076393 169.503099,100.858302 169.959258,101.69756 C170.417272,102.538674 171.108927,103.199682 172.030517,103.689867 C172.952106,104.17634 174.072106,104.423289 175.384954,104.423289 C176.601377,104.423289 177.600848,104.306313 178.388927,104.072361 C179.175152,103.838408 179.846411,103.576605 180.397139,103.288806 L180.397139,100.949284 C178.856212,101.664138 177.450649,102.020637 176.178596,102.020637 C175.448,102.020637 174.797139,101.814536 174.224159,101.402334 C173.651179,100.988276 173.289589,100.453528 173.143099,99.8018037 L180.667868,99.8018037 L180.667868,99.0498143 Z" id="Fill-11" fill="#242424"></path>
                    <path d="M163.573033,100.854403 C163.31343,101.069788 163.040848,101.249894 162.760848,101.392865 C162.482702,101.537692 162.11555,101.608249 161.657536,101.608249 C161.104954,101.608249 160.619126,101.394721 160.201907,100.962095 C159.782834,100.533183 159.577007,99.8424668 159.577007,98.897374 C159.577007,98.0302653 159.775417,97.3451194 160.170384,96.8419363 C160.567205,96.3350398 161.062305,96.0825199 161.657536,96.0825199 C161.99502,96.0825199 162.288,96.1400796 162.538331,96.2422016 C162.783099,96.3480371 163.131709,96.5225729 163.573033,96.7676658 L163.573033,100.854403 Z M163.573033,89.7063926 L163.573033,94.1904775 C163.23555,93.9528117 162.851709,93.7597082 162.417801,93.6055968 C161.983894,93.4496286 161.414623,93.3716446 160.717404,93.3716446 C159.589987,93.3716446 158.638728,93.6408753 157.865483,94.1700531 C157.086675,94.7010875 156.517404,95.3936605 156.152106,96.2422016 C155.786808,97.0888859 155.60694,98.000557 155.60694,98.9697878 C155.60694,100.208249 155.848,101.233183 156.330119,102.048302 C156.814093,102.863422 157.429722,103.4613 158.177007,103.847507 C158.926146,104.231857 159.688265,104.421247 160.465219,104.421247 C161.249589,104.421247 161.863364,104.315411 162.306543,104.100027 C162.751576,103.882785 163.174358,103.609841 163.573033,103.27748 L163.573033,104.241141 L167.337272,104.241141 L167.337272,89.7063926 L163.573033,89.7063926 Z" id="Fill-13" fill="#242424"></path>
                    <mask id="mask-2" fill="white">
                        <use xlink:href="#path-1"></use>
                    </mask>
                    <g id="Clip-16"></g>
                    <polygon id="Fill-15" fill="#242424" mask="url(#mask-2)" points="149.685033 104.24244 153.447417 104.24244 153.447417 93.5549072 149.685033 93.5549072"></polygon>
                    <path d="M152.67343,89.9720955 C152.361907,89.6583024 151.989192,89.4986207 151.560848,89.4986207 C151.121377,89.4986207 150.748662,89.6583024 150.444556,89.9720955 C150.138596,90.2896021 149.984689,90.6609549 149.984689,91.0954377 C149.984689,91.3888064 150.055152,91.6561804 150.194225,91.8957029 C150.331444,92.1370822 150.522437,92.3264721 150.763497,92.4657294 C151.002702,92.6087003 151.266013,92.6774005 151.560848,92.6774005 C151.989192,92.6774005 152.361907,92.5251459 152.67343,92.2150663 C152.986808,91.9087003 153.144424,91.533634 153.144424,91.0954377 C153.144424,90.6609549 152.986808,90.2896021 152.67343,89.9720955" id="Fill-17" fill="#242424" mask="url(#mask-2)"></path>
                    <path d="M140.013907,97.943183 C140.013907,97.2728912 140.208609,96.7325729 140.599868,96.3203714 C140.989272,95.9007427 141.497351,95.6964987 142.133377,95.6964987 C142.771258,95.6964987 143.260795,95.8988859 143.603841,96.3092308 C143.943179,96.7158621 144.113775,97.2617507 144.113775,97.943183 L140.013907,97.943183 Z M147.646225,99.0498143 C147.646225,97.707374 147.382914,96.6118833 146.865563,95.7689125 C146.344503,94.9166578 145.680662,94.3076393 144.872185,93.9344297 C144.065563,93.5612202 143.229272,93.373687 142.361457,93.373687 C141.046755,93.373687 139.928609,93.609496 139.00702,94.0792573 C138.08543,94.5527321 137.393775,95.2025995 136.935762,96.0307162 C136.479603,96.8569761 136.251523,97.7964987 136.251523,98.8455703 C136.251523,99.9076393 136.479603,100.858302 136.935762,101.69756 C137.393775,102.538674 138.08543,103.199682 139.00702,103.689867 C139.928609,104.17634 141.046755,104.423289 142.361457,104.423289 C143.579735,104.423289 144.579205,104.306313 145.36543,104.072361 C146.151656,103.838408 146.822914,103.576605 147.371788,103.288806 L147.371788,100.949284 C145.83457,101.664138 144.429007,102.020637 143.153245,102.020637 C142.424503,102.020637 141.773642,101.814536 141.200662,101.402334 C140.625828,100.988276 140.266093,100.453528 140.119603,99.8018037 L147.646225,99.8018037 L147.646225,99.0498143 Z" id="Fill-18" fill="#242424" mask="url(#mask-2)"></path>
                    <path d="M134.43653,97.9693634 C134.43653,94.9057029 133.158914,93.3720159 130.607391,93.3720159 C129.87494,93.3720159 129.209245,93.5019894 128.614013,93.756366 C128.016927,94.0125995 127.42355,94.456366 126.830172,95.0950928 L126.830172,93.5539788 L123.067788,93.5539788 L123.067788,104.241512 L126.830172,104.241512 L126.830172,97.9693634 C126.965536,97.7818302 127.093483,97.6035809 127.219576,97.4364721 C127.343815,97.2693634 127.497722,97.0892573 127.685007,96.9091512 C127.868583,96.7271883 128.078119,96.580504 128.311762,96.4653846 C128.545404,96.3484085 128.816132,96.2927056 129.123947,96.2927056 C129.771099,96.2927056 130.193881,96.5080902 130.384874,96.9444297 C130.577722,97.3844828 130.674146,97.8969496 130.674146,98.4855438 L130.674146,98.7046419 L130.674146,104.241512 L134.43653,104.241512 L134.43653,97.9693634 Z" id="Fill-19" fill="#242424" mask="url(#mask-2)"></path>
                    <path d="M120.789033,104.241512 L117.026649,104.241512 L117.026649,98.7046419 C117.026649,98.6619363 117.026649,98.6210875 117.030358,98.5820955 C117.034066,98.546817 117.035921,98.4632626 117.035921,98.3370027 C117.035921,97.8245358 116.928371,97.3584881 116.711417,96.9332891 C116.494464,96.5025199 116.082808,96.2927056 115.47645,96.2927056 C115.001748,96.2927056 114.582675,96.4523873 114.221086,96.7680371 C113.857642,97.0874005 113.510887,97.4884615 113.18453,97.9693634 L113.18453,104.241512 L109.420291,104.241512 L109.420291,89.7067639 L113.18453,89.7067639 L113.18453,95.0950928 C113.803868,94.4322281 114.417642,93.977321 115.024,93.7340849 C115.632212,93.4964191 116.275656,93.3720159 116.959894,93.3720159 C119.513272,93.3720159 120.789033,94.8128647 120.789033,97.6834218 L120.789033,104.241512 Z" id="Fill-20" fill="#242424" mask="url(#mask-2)"></path>
                    <path d="M107.573589,100.77809 C106.883788,100.986048 106.295974,101.149443 105.813854,101.258992 C105.333589,101.374111 104.903391,101.426101 104.526967,101.426101 C104.128291,101.426101 103.73147,101.336976 103.332795,101.15687 C102.934119,100.971194 102.605907,100.687109 102.348159,100.300902 C102.088556,99.9091247 101.958755,99.4337931 101.958755,98.8656233 C101.958755,98.0133687 102.220212,97.3839257 102.739417,96.9772944 C103.260477,96.5688064 103.855709,96.3682759 104.526967,96.3682759 C105.218623,96.3682759 106.177298,96.5632361 107.404848,96.9531565 L107.404848,93.9934748 C106.896768,93.8022281 106.394252,93.653687 105.899152,93.5404244 C105.402199,93.4308753 104.758755,93.3714589 103.970675,93.3714589 C102.791338,93.3714589 101.79743,93.5682759 100.990808,93.9600531 C100.184185,94.3518302 99.5685563,94.8364456 99.1420662,95.4176127 C98.7155762,95.9969231 98.4170331,96.6003714 98.2464371,97.2186737 C98.0739868,97.8406897 97.9886887,98.3902918 97.9886887,98.8656233 C97.9886887,99.3409549 98.0739868,99.890557 98.2427285,100.510716 C98.4077616,101.132732 98.7100132,101.745464 99.1476291,102.341485 C99.585245,102.94122 100.204583,103.433263 101.011205,103.83061 C101.817828,104.226101 102.804318,104.421061 103.970675,104.421061 C104.488026,104.421061 104.964583,104.389496 105.400344,104.320796 C105.83796,104.257666 106.229219,104.172255 106.577828,104.073846 C106.928291,103.969867 107.258358,103.860318 107.573589,103.739629 L107.573589,100.77809 Z" id="Fill-21" fill="#242424" mask="url(#mask-2)"></path>
                    <path d="M96.080053,100.021088 C96.080053,100.927188 95.8482649,101.712599 95.3846887,102.371751 C94.9229669,103.032759 94.2758146,103.541512 93.4469404,103.896154 C92.6180662,104.248939 91.6668079,104.421618 90.5950199,104.421618 C90.2964768,104.421618 89.9274702,104.404907 89.4917086,104.364058 C89.0578013,104.325066 88.4792583,104.222944 87.7579338,104.048408 C87.0366093,103.873873 86.2856159,103.613926 85.5068079,103.275995 L85.5068079,99.7147215 C86.2355497,100.169629 86.9531656,100.546552 87.6578013,100.847347 C88.3642914,101.15 89.1189934,101.298541 89.9256159,101.298541 C90.6710464,101.298541 91.149457,101.174138 91.3682649,100.927188 C91.5889272,100.678382 91.6983311,100.448143 91.6983311,100.230902 C91.6983311,99.8372679 91.5110464,99.5086207 91.1346225,99.2375332 C90.760053,98.9683024 90.2148874,98.6897878 89.4991258,98.4038462 C88.7054834,98.0696286 88.0119735,97.7019894 87.4148874,97.3064987 C86.8178013,96.9091512 86.3282649,96.4171088 85.9481325,95.8229443 C85.5698543,95.2250663 85.3807152,94.5213528 85.3807152,93.7136605 C85.3807152,92.9263926 85.5735629,92.2189655 85.957404,91.585809 C86.3375364,90.9545093 86.9234967,90.445756 87.7115762,90.0688329 C88.4978013,89.6919098 89.4583311,89.5006631 90.5931656,89.5006631 C91.4016424,89.5006631 92.1489272,89.5823607 92.8350199,89.7364721 C93.5192583,89.8924403 94.0866755,90.0725464 94.5317086,90.2675066 C94.9767417,90.4661804 95.2845563,90.6165782 95.4514437,90.7316976 L95.4514437,94.1407162 C94.8580662,93.717374 94.1979338,93.3330239 93.4691921,92.9988064 C92.738596,92.6645889 91.9616424,92.4956233 91.1309139,92.4956233 C90.5876026,92.4956233 90.1944901,92.6033156 89.9497219,92.8112732 C89.7049536,93.0210875 89.5844238,93.2810345 89.5844238,93.5874005 C89.5844238,93.8733422 89.7049536,94.1202918 89.9478675,94.3319629 C90.1907815,94.5417772 90.6246887,94.7961538 91.2514437,95.0988064 C92.3677351,95.620557 93.2596556,96.0958886 93.9309139,96.5155172 C94.6021722,96.9370027 95.1287947,97.4197613 95.5089272,97.9693634 C95.8909139,98.5171088 96.080053,99.2022546 96.080053,100.021088" id="Fill-22" fill="#242424" mask="url(#mask-2)"></path>
                    <path d="M72.6286623,107.044668 C72.9939603,106.810716 73.3073377,106.548912 73.5613775,106.261114 C73.8191258,105.973316 74.0305166,105.67809 74.1936954,105.371724 C74.3587285,105.059788 74.5015099,104.762706 74.6127682,104.480477 L78.4307815,94.4706631 C78.4456159,94.4279576 78.4048212,94.3629708 78.312106,94.2757029 C78.2193907,94.188435 78.0970066,94.0955968 77.9468079,93.9953316 C77.7984636,93.8969231 77.6241589,93.8115119 77.423894,93.7409549 C77.2236291,93.6666844 77.015947,93.6295491 76.8008477,93.6295491 C76.4726358,93.6295491 76.157404,93.7335279 75.8570066,93.9451989 C75.5566093,94.149443 75.3136954,94.557931 75.1282649,95.1576658 L73.1126358,101.129019 L70.8392583,95.1335279 C70.6389934,94.5337931 70.3960795,94.1345889 70.1105166,93.9303448 C69.8249536,93.7316711 69.5041589,93.6295491 69.1444238,93.6295491 C68.9163444,93.6295491 68.6975364,93.6703979 68.4917086,93.7502387 C68.2840265,93.8282228 68.1041589,93.913634 67.9539603,94.0083289 C67.8037616,94.1030239 67.6869404,94.1995756 67.5997881,94.2979841 C67.5144901,94.3982493 67.4792583,94.4706631 67.495947,94.5115119 L71.0970066,102.887374 C71.1971391,103.104615 71.3250861,103.258727 71.482702,103.360849 C71.6403179,103.462971 71.8405828,103.527958 72.0834967,103.553952 C72.0983311,103.613369 72.0834967,103.69878 72.0408477,103.812042 C72.0130331,103.89931 71.9536954,104.008859 71.8683974,104.144403 C71.7830993,104.279947 71.6607152,104.441485 71.5030993,104.629019 C71.2175364,104.929814 70.8726358,105.096923 70.4646887,105.134058 C70.0548874,105.171194 69.6543576,105.150769 69.2519735,105.082069 C68.7939603,104.992944 68.317404,104.842546 67.8148874,104.629019 C67.4570066,105.028223 67.258596,105.392149 67.2140927,105.726366 C67.173298,106.055013 67.2344901,106.339098 67.3976689,106.586048 C67.5608477,106.827427 67.8074702,107.029814 68.1375364,107.19878 C68.4676026,107.358462 68.8199205,107.481008 69.1981987,107.562706 C69.5783311,107.638833 69.9603179,107.681538 70.3460132,107.690822 C70.7298543,107.698249 71.0599205,107.664828 71.3325033,107.594271 C71.8331656,107.466154 72.2652185,107.280477 72.6286623,107.044668" id="Fill-23" fill="#00A651" mask="url(#mask-2)"></path>
                    <path d="M63.3680795,101.26679 C62.8748344,101.83496 62.2165563,102.113475 61.3988079,102.113475 C61.0260927,102.113475 60.6830464,102.052202 60.3659603,101.933369 C60.0507285,101.810822 59.7762914,101.641857 59.5389404,101.417188 C59.2997351,101.194377 59.1143046,100.930716 58.9770861,100.62435 C58.8435762,100.314271 58.7749669,99.9744828 58.7749669,99.6012732 L58.7749669,97.6702387 C59.0030464,97.1392042 59.3423841,96.7214324 59.7855629,96.4132095 C60.230596,96.1068435 60.7757616,95.9527321 61.4229139,95.9527321 C62.2388079,95.9527321 62.8915232,96.2331034 63.3792053,96.7901326 C63.8668874,97.3471618 64.1116556,98.0991512 64.1116556,99.0423873 C64.1116556,99.9596286 63.8613245,100.702334 63.3680795,101.26679 M66.6576159,96.7381432 C66.414702,96.0604244 66.0809272,95.4829708 65.6507285,95.0076393 C65.2205298,94.5397347 64.710596,94.1739523 64.1172185,93.9140053 C63.5219868,93.6577719 62.8766887,93.5277984 62.1739073,93.5277984 C61.4284768,93.5277984 60.772053,93.6819098 60.1990728,93.9882759 C59.627947,94.2983554 59.1550993,94.7179841 58.7823841,95.2490186 L58.7749669,91.745305 C58.7749669,91.2606897 58.7174834,90.8577719 58.6043709,90.5458355 C58.489404,90.2283289 58.3429139,89.9832361 58.1630464,89.80313 C57.9868874,89.6230239 57.7847682,89.5004775 57.5659603,89.4262069 C57.3434437,89.3537931 57.1190728,89.3203714 56.8928477,89.3203714 C56.590596,89.3203714 56.3291391,89.3649337 56.0992053,89.4503448 C55.8711258,89.535756 55.7580132,89.6081698 55.7580132,89.6638727 L55.7580132,102.882175 C55.7580132,103.441061 55.8803974,103.819841 56.1325828,104.018515 C56.3810596,104.219045 56.7129801,104.31931 57.1283444,104.31931 L57.4472848,104.31931 C57.8329801,104.31931 58.1500662,104.215332 58.4003974,104.012944 C58.6488742,103.804987 58.7749669,103.431777 58.7749669,102.893316 L58.7749669,102.722493 C59.0605298,103.221963 59.4870199,103.647162 60.0525828,103.99809 C60.6181457,104.350875 61.3098013,104.525411 62.1256954,104.525411 C62.8562914,104.525411 63.5219868,104.389867 64.1227815,104.11878 C64.7235762,103.843979 65.2409272,103.468912 65.6711258,102.989867 C66.0994702,102.510822 66.433245,101.931512 66.670596,101.251936 C66.9060927,100.568647 67.0229139,99.8222281 67.0229139,99.0089655 C67.0229139,98.1734218 66.9023841,97.4195756 66.6576159,96.7381432" id="Fill-24" fill="#00A651" mask="url(#mask-2)"></path>
                    <path d="M275.571921,9.24724138 C273.969801,9.24724138 272.718146,7.93450928 272.718146,6.15015915 C272.718146,4.39551724 273.969801,3.07535809 275.571921,3.07535809 C277.155497,3.07535809 278.410861,4.39551724 278.410861,6.15015915 C278.410861,7.93450928 277.155497,9.24724138 275.571921,9.24724138 M275.571921,2.45891247 C273.649007,2.45891247 272.011656,4.02787798 272.011656,6.15015915 C272.011656,8.29657825 273.649007,9.86925729 275.571921,9.86925729 C277.481854,9.86925729 279.115497,8.29657825 279.115497,6.15015915 C279.115497,4.02787798 277.481854,2.45891247 275.571921,2.45891247" id="Fill-25" fill="#242424" mask="url(#mask-2)"></path>
                    <path d="M279.049669,102.358382 L279.049669,103.947772 C278.235629,104.248568 277.441987,104.397109 276.661325,104.397109 C275.38,104.397109 274.358278,104.018329 273.594305,103.257056 C272.832185,102.497639 272.450199,101.478276 272.450199,100.204536 C272.450199,98.9177984 272.822914,97.8780106 273.568344,97.0870292 C274.313775,96.2979045 275.292848,95.9024138 276.511126,95.9024138 C276.930199,95.9024138 277.312185,95.9451194 277.647815,96.0212467 C277.985298,96.1029443 278.398808,96.2551989 278.895762,96.4742971 L278.895762,98.1992308 C278.068742,97.6681963 277.302914,97.3989655 276.598278,97.3989655 C275.860265,97.3989655 275.255762,97.6589125 274.784768,98.1750928 C274.310066,98.6894164 274.07457,99.3485676 274.07457,100.15069 C274.07457,100.991804 274.328609,101.658382 274.838543,102.155995 C275.348477,102.651751 276.03457,102.8987 276.898675,102.8987 C277.523576,102.8987 278.239338,102.718594 279.049669,102.358382" id="Fill-26" fill="#242424" mask="url(#mask-2)"></path>
                    <path d="M265.693669,92.9412467 C265.50453,93.1306366 265.408106,93.3515915 265.408106,93.6022546 C265.408106,93.8566313 265.50453,94.079443 265.693669,94.2725464 C265.882808,94.4637931 266.101616,94.5603448 266.350093,94.5603448 C266.617113,94.5603448 266.843338,94.4656499 267.034331,94.2762599 C267.221616,94.08687 267.31804,93.8640584 267.31804,93.6022546 C267.31804,93.3348806 267.221616,93.1102122 267.034331,92.9282493 C266.843338,92.7425729 266.617113,92.6497347 266.350093,92.6497347 C266.101616,92.6497347 265.882808,92.7462865 265.693669,92.9412467" id="Fill-27" fill="#242424" mask="url(#mask-2)"></path>
                    <polygon id="Fill-28" fill="#242424" mask="url(#mask-2)" points="265.538278 104.240584 267.162649 104.240584 267.162649 96.0819629 265.538278 96.0819629"></polygon>
                    <path d="M256.577907,96.0827056 L256.577907,97.9394695 L256.66506,97.7964987 C257.451285,96.535756 258.235656,95.9025995 259.018172,95.9025995 C259.631947,95.9025995 260.269828,96.212679 260.933669,96.8291247 L260.078834,98.2532626 C259.515126,97.7203714 258.994066,97.4529973 258.511947,97.4529973 C257.989033,97.4529973 257.534728,97.7018037 257.150887,98.2012732 C256.768901,98.6970292 256.577907,99.2856233 256.577907,99.9689125 L256.577907,104.241326 L254.953536,104.241326 L254.953536,96.0827056 L256.577907,96.0827056 Z" id="Fill-29" fill="#242424" mask="url(#mask-2)"></path>
                    <path d="M244.224344,97.5287533 L245.639179,97.5287533 L245.639179,101.158727 C245.639179,101.899576 245.674411,102.400902 245.74302,102.666419 C245.811629,102.931936 245.893219,103.143607 245.993351,103.307003 C246.093483,103.468541 246.219576,103.617082 246.373483,103.747056 C246.861166,104.179682 247.471232,104.396923 248.209245,104.396923 C248.937987,104.396923 249.611099,104.224244 250.228583,103.877029 L250.228583,102.384191 C249.590702,102.762971 248.986199,102.948647 248.415073,102.948647 C247.651099,102.948647 247.265404,102.480743 247.265404,101.543077 L247.265404,97.5287533 L249.818781,97.5287533 L249.818781,96.0823342 L247.265404,96.0823342 L247.265404,94.3796817 L244.224344,97.3709284 L244.224344,97.5287533 Z" id="Fill-30" fill="#242424" mask="url(#mask-2)"></path>
                    <path d="M240.094808,102.358382 L240.094808,103.947772 C239.282623,104.248568 238.485272,104.397109 237.706464,104.397109 C236.425139,104.397109 235.401563,104.018329 234.637589,103.257056 C233.877325,102.497639 233.493483,101.478276 233.493483,100.204536 C233.493483,98.9177984 233.866199,97.8780106 234.613483,97.0870292 C235.35706,96.2979045 236.336132,95.9024138 237.556265,95.9024138 C237.975338,95.9024138 238.35547,95.9451194 238.691099,96.0212467 C239.028583,96.1029443 239.443947,96.2551989 239.940901,96.4742971 L239.940901,98.1992308 C239.113881,97.6681963 238.348053,97.3989655 237.643417,97.3989655 C236.905404,97.3989655 236.300901,97.6589125 235.828053,98.1750928 C235.355205,98.6894164 235.117854,99.3485676 235.117854,100.15069 C235.117854,100.991804 235.373748,101.658382 235.881828,102.155995 C236.391762,102.651751 237.077854,102.8987 237.943815,102.8987 C238.566861,102.8987 239.282623,102.718594 240.094808,102.358382" id="Fill-31" fill="#242424" mask="url(#mask-2)"></path>
                    <path d="M223.080079,99.335756 C223.191338,98.6840318 223.434252,98.1827056 223.803258,97.8262069 C224.172265,97.4752785 224.645113,97.2970292 225.223656,97.2970292 C225.804053,97.2970292 226.262066,97.4752785 226.605113,97.8262069 C226.946305,98.1827056 227.139152,98.6840318 227.179947,99.335756 L223.080079,99.335756 Z M228.778358,100.089602 C228.778358,98.8140053 228.455709,97.7983554 227.810411,97.0407958 C227.168821,96.2832361 226.302861,95.9025995 225.223656,95.9025995 C224.099947,95.9025995 223.187629,96.2925199 222.484848,97.0742175 C221.782066,97.8522016 221.431603,98.8659947 221.431603,100.110027 C221.431603,100.941857 221.594781,101.671565 221.928556,102.301008 C222.262331,102.934164 222.709219,103.437347 223.261801,103.812414 C223.818093,104.183767 224.541272,104.369443 225.436901,104.369443 C226.093325,104.369443 226.66445,104.298886 227.150278,104.161485 C227.63796,104.018515 228.129351,103.788276 228.62445,103.457772 L228.62445,101.89252 C227.730675,102.546101 226.755311,102.872891 225.692795,102.872891 C224.934384,102.872891 224.313192,102.640796 223.83849,102.174748 C223.356371,101.7087 223.096768,101.081114 223.055974,100.291989 L228.778358,100.291989 L228.778358,100.089602 Z" id="Fill-32" fill="#242424" mask="url(#mask-2)"></path>
                    <polygon id="Fill-33" fill="#242424" mask="url(#mask-2)" points="56.6174834 74.0588859 279.074702 74.0588859 279.074702 72.8724138 56.6174834 72.8724138"></polygon>
                    <polygon id="Fill-34" fill="#242424" mask="url(#mask-2)" points="214.439205 104.240584 216.06543 104.240584 216.06543 91.8485411 214.439205 91.8485411"></polygon>
                    <polygon id="Fill-35" fill="#242424" mask="url(#mask-2)" points="202.098623 91.8515119 209.109748 91.8515119 209.109748 93.424191 203.876901 93.424191 203.876901 97.2194164 208.955841 97.2194164 208.955841 98.8199469 203.876901 98.8199469 203.876901 102.667162 209.289616 102.667162 209.289616 104.241698 202.098623 104.241698"></polygon>
                    <path d="M222.480583,37.5203714 L226.927205,20.2654642 L227.027338,37.5166578 L222.480583,37.5203714 Z M238.544424,2.8267374 L221.492238,2.8267374 L201.67343,56.6079045 L215.801377,56.604191 L218.703364,48.8522016 L227.897007,48.8522016 L227.92853,56.1214324 L242.269722,56.1214324 L238.544424,2.8267374 Z" id="Fill-36" fill="#242424" mask="url(#mask-2)"></path>
                    <polygon id="Fill-37" fill="#242424" mask="url(#mask-2)" points="244.541245 56.2222546 271.454623 56.1238462 273.379391 44.0066048 261.28747 44.0066048 267.961113 2.82729443 253.514225 2.82729443"></polygon>
                    <polygon id="Fill-38" fill="#242424" mask="url(#mask-2)" points="123.384874 1.8537931 138.868318 1.8537931 129.674675 56.2179841 115.157325 56.2179841"></polygon>
                    <polygon id="Fill-39" fill="#242424" mask="url(#mask-2)" points="85.5455629 56.1197613 112.254967 56.1197613 114.67298 42.554244 103.063179 42.554244 109.35298 2.14920424 94.5611921 2.14920424"></polygon>
                    <path d="M274.829457,5.89819629 L274.829457,4.57246684 L275.663894,4.57246684 C276.092238,4.57246684 276.546543,4.6727321 276.546543,5.19819629 C276.546543,5.85920424 276.077404,5.89819629 275.563762,5.89819629 L274.829457,5.89819629 Z M276.136742,6.41809019 C276.731974,6.33824934 277.184424,6.00403183 277.184424,5.23718833 C277.184424,4.39793103 276.71343,4.02843501 275.756609,4.02843501 L274.217536,4.02843501 L274.217536,8.29713528 L274.829457,8.29713528 L274.829457,6.44779841 L275.532238,6.44779841 L276.598464,8.29713528 L277.288265,8.29713528 L276.136742,6.41809019 Z" id="Fill-40" fill="#242424" mask="url(#mask-2)"></path>
                </g>
            </g>
        </g>
    </g>
</svg>