<svg id="Layer_1" data-name="Layer 1" xmlns="http://www.w3.org/2000/svg" viewBox="0 0 230 162"><defs><style>.cls-1{fill:none;stroke:#96caff;stroke-miterlimit:10;stroke-width:4px;}</style></defs><title>1_innovationworkshop</title><path class="cls-1" d="M212.5,160.27H155.28V145.42c-6.67-.77-11.58-3.06-15-7-5.13-5.94-5.63-14.62-5.23-22.05h0a43.2,43.2,0,0,1-4.44-.06,6.39,6.39,0,0,1-5.95-9.07c.46-1.35,1-2.67,1.54-3.93.6-1.45,1.18-2.82,1.62-4.23s1-3.1,1.48-4.64a160.12,160.12,0,0,0,4.43-15.53c4.74-22.26,23.52-37.77,45.69-37.77h.18A46.21,46.21,0,0,1,224.89,79c2.63,14.43-.81,27.53-10.24,38.93a9.66,9.66,0,0,0-2,5.4c-.19,7.38-.17,14.9-.14,22.18q0,4,0,8Z"/><path class="cls-1" d="M75.05,160.25H17.58V149.91q0-3.57,0-7.13c0-6.59,0-13.41-.11-20.1a7.54,7.54,0,0,0-1.62-4.28C2.82,102.92.64,81.88,10.31,64.81S39.18,38.61,59,41.94A45.25,45.25,0,0,1,96.26,79.77c1,6.44,3.29,12.22,5.71,18.33.87,2.19,1.74,4.39,2.55,6.62,1.18,3.26,2,6.59.43,8.93s-5,2.7-8.38,2.75H96c-.32,1.67-.6,3.33-.88,4.94-.82,4.86-1.6,9.46-3.38,13.8-3.09,7.55-10.59,9.52-16.68,10.14Z"/><circle class="cls-1" cx="51.31" cy="67.86" r="5.62"/><circle class="cls-1" cx="68.47" cy="33.08" r="5.62"/><circle class="cls-1" cx="81.29" cy="18.41" r="5.62"/><circle class="cls-1" cx="97.62" cy="10.12" r="5.62"/><circle class="cls-1" cx="115.46" cy="7.86" r="5.62"/><circle class="cls-1" cx="132.8" cy="9.78" r="5.62"/><circle class="cls-1" cx="148.63" cy="18.35" r="5.62"/><circle class="cls-1" cx="161.38" cy="32.32" r="5.62"/><circle class="cls-1" cx="36.91" cy="82.6" r="5.62"/><circle class="cls-1" cx="51.31" cy="82.6" r="5.62"/><circle class="cls-1" cx="65.7" cy="82.6" r="5.62"/><circle class="cls-1" cx="36.91" cy="97.35" r="5.62"/><circle class="cls-1" cx="51.31" cy="97.35" r="5.62"/><circle class="cls-1" cx="65.7" cy="97.35" r="5.62"/><circle class="cls-1" cx="178.72" cy="67.86" r="5.62"/><circle class="cls-1" cx="164.33" cy="82.6" r="5.62"/><circle class="cls-1" cx="178.72" cy="82.6" r="5.62"/><circle class="cls-1" cx="193.12" cy="82.6" r="5.62"/><circle class="cls-1" cx="164.33" cy="97.35" r="5.62"/><circle class="cls-1" cx="178.72" cy="97.35" r="5.62"/><circle class="cls-1" cx="193.12" cy="97.35" r="5.62"/></svg>