<svg id="Layer_1" data-name="Layer 1" xmlns="http://www.w3.org/2000/svg" viewBox="0 0 200 162"><defs><style>.cls-1{fill:none;stroke:#96caff;stroke-linecap:round;stroke-linejoin:round;stroke-width:4px;}</style></defs><title>6_uxandengagement</title><line class="cls-1" x1="185" y1="20" x2="140" y2="20"/><line class="cls-1" x1="171.94" y1="3.94" x2="185.96" y2="19.01"/><line class="cls-1" x1="185.96" y1="19.53" x2="171.94" y2="34.59"/><line class="cls-1" x1="14" y1="20" x2="58" y2="20"/><line class="cls-1" x1="26.04" y1="34.59" x2="12.01" y2="19.53"/><line class="cls-1" x1="12.01" y1="19.01" x2="26.04" y2="3.94"/><path class="cls-1" d="M82.27,102.38l-31-14.28a19.93,19.93,0,0,0-20.85,2.27s-13.37,11.41,1.39,19.48C45.4,117.12,76.94,139,93.3,160h55.84l17.92-24.27s8.18-11.09,8.18-21.39"/><line class="cls-1" x1="152" y1="64.85" x2="152" y2="76.67"/><path class="cls-1" d="M128.76,79.13V57.84a11.66,11.66,0,0,1,11.62-11.62h0A11.66,11.66,0,0,1,152,57.84V84.2"/><path class="cls-1" d="M105.51,72.74V51.44a11.66,11.66,0,0,1,11.62-11.62h0a11.66,11.66,0,0,1,11.62,11.62v21.3"/><path class="cls-1" d="M82.27,102.38V14A11.66,11.66,0,0,1,93.89,2.42h0A11.66,11.66,0,0,1,105.51,14v58.7"/><path class="cls-1" d="M152,78.32V69.49a11.66,11.66,0,0,1,11.62-11.62h0a11.66,11.66,0,0,1,11.62,11.62v44.67"/></svg>