<svg id="Layer_1" data-name="Layer 1" xmlns="http://www.w3.org/2000/svg" viewBox="0 0 176 176"><defs><style>.cls-1{fill:#a63e7e;}.cls-2{fill:none;}</style></defs><title>ic_create</title><path class="cls-1" d="M140.33,111l-25.56,25.62L51.28,73.43,76.85,47.81ZM83.23,66.43a2.26,2.26,0,0,0-.67-1.6l-5.09-5.06a2.27,2.27,0,0,0-3.2,0l-1.51,1.51a2.26,2.26,0,0,0,0,3.2l5.07,5.08a2.25,2.25,0,0,0,1.62.66c.6,0,3.11-2.18,3.11-2.18A2.33,2.33,0,0,0,83.23,66.43Zm43.63,45.7a2.26,2.26,0,0,0,0-3.21l-36.2-36A2.2,2.2,0,0,0,89,72.24a2.28,2.28,0,0,0-1.6.66l-1.51,1.52a2.25,2.25,0,0,0,0,3.2l36.19,36a2.29,2.29,0,0,0,3.23,0ZM48.52,70.68,74.09,45.05l-7-7L41.5,63.69ZM29.36,51.6a7.8,7.8,0,0,1,0-11.07L43.83,26a7.83,7.83,0,0,1,11.08,0l9.56,9.51L38.91,61.11Zm4.53-5.54,5,5,15.5-15.53-5-5ZM154.81,146a3.89,3.89,0,0,1-5,5L118.21,140l25.53-25.63Zm-8.69-10.45-4.35-12.42L126.92,138l12.46,4.3Z"/><circle class="cls-2" cx="122.66" cy="48.87" r="7.92" transform="translate(1.37 101.05) rotate(-45)"/><path class="cls-1" d="M149.39,58.86a4.47,4.47,0,0,0,0-6.3L119.68,22.85a4.47,4.47,0,0,0-6.3,0L92.69,43.54l15.62,15.62a3,3,0,0,1-4.24,4.24L88.45,47.78,86.34,49.9l36.09,35.92ZM117.06,43.27a7.92,7.92,0,1,1,0,11.21A7.92,7.92,0,0,1,117.06,43.27Z"/><path class="cls-1" d="M49.19,87l15.62,15.62a3,3,0,0,1-4.24,4.24L44.95,91.29l-5.57,5.57,22.86,22.86A3,3,0,0,1,58,124L35.13,101.1l-5.57,5.57,15.62,15.62a3,3,0,0,1-4.24,4.24L25.31,110.92l-6.22,6.22a4.47,4.47,0,0,0,0,6.3L48.8,153.15a4.47,4.47,0,0,0,6.3,0L88.35,119.9,52.26,84Z"/></svg>