<svg id="Layer_1" data-name="Layer 1" xmlns="http://www.w3.org/2000/svg" viewBox="0 0 300 350"><defs><style>.cls-1{fill:#f9e163;}</style></defs><title>ic_faq</title><path class="cls-1" d="M293.53,300.34Q289,315.82,281.92,325a58,58,0,0,1-15.08,14.06A45.86,45.86,0,0,1,251,345.37a82.7,82.7,0,0,1-14.46,1.43q-21.6,0-41.15-13.85t-35.45-47.67a233.09,233.09,0,0,1-58.27-7.13Q73.91,271,53.14,254.71t-33.21-43Q7.5,185,7.5,146.33q0-37.07,10.59-63.77t29.54-44A118.08,118.08,0,0,1,92.46,13.09a185.63,185.63,0,0,1,56-8.15A174.78,174.78,0,0,1,204.1,13.7a130.62,130.62,0,0,1,45.84,26.08Q269.49,57.1,280.9,83t11.41,60.1q0,51.75-23.22,85.16T207.16,275.9a84.37,84.37,0,0,0,21.6,28.72A63.81,63.81,0,0,0,242,313.38a28.75,28.75,0,0,0,12.43,3.26q15.48,0,23.23-16.3Zm-142.2-35.45q21.59,0,35.45-9.17a63,63,0,0,0,21.8-25.26q7.95-16.09,11-37.89a336.41,336.41,0,0,0,3.06-46.65,328.47,328.47,0,0,0-3.06-45.23q-3.06-22-11.41-39.12a70.09,70.09,0,0,0-23.43-27.5q-15.08-10.39-39.52-10.39-22,0-35.45,9.78A62.17,62.17,0,0,0,89.2,59.74q-7.13,16.5-9.37,37.89a432,432,0,0,0-2.24,45,333.79,333.79,0,0,0,3.26,48.08q3.26,22.41,11.41,38.91a63.61,63.61,0,0,0,22.61,25.87Q129.33,264.9,151.33,264.89Z"/></svg>