<svg xmlns="http://www.w3.org/2000/svg" width="50" height="48" viewBox="0 0 50 48">
  <defs>
    <style>
      .cls-1 {
        fill: #fff;
        fill-rule: evenodd;
      }
    </style>
  </defs>
  <path class="cls-1" d="M24.522,39.893c-1.18,0-2.366.072-3.536-.033a2.748,2.748,0,0,1-1.492-.708,5.02,5.02,0,0,1-1.452-3.317,6.636,6.636,0,0,0-1.561-3.392A18.175,18.175,0,0,1,13.97,28.8a9.659,9.659,0,0,1-.559-5.284,11.189,11.189,0,0,1,11.328-9.6c7.864,0.1,13.23,7.962,10.232,15.09a13.372,13.372,0,0,1-2.055,3.047,7.872,7.872,0,0,0-1.931,4.32,4.766,4.766,0,0,1-1.525,2.987,1.986,1.986,0,0,1-1.215.508C27.008,39.936,25.764,39.893,24.522,39.893Zm1.354-1.909c2.544,0.392,2.984.1,3.415-2.19a10.16,10.16,0,0,1,2.515-5.15,8.114,8.114,0,0,0,1.934-8.077,8.856,8.856,0,0,0-7.423-6.7,9.111,9.111,0,0,0-9.657,3.95,8.356,8.356,0,0,0,.034,10.039c1.552,2.049,3.04,4.023,3.3,6.7a2.214,2.214,0,0,0,1.164,1.47,5.713,5.713,0,0,0,2.12.058m2.2-33.073q0,1.946,0,3.891c0,0.644-.159,1.26-0.91,1.257s-0.9-.624-0.9-1.265q0-3.846,0-7.69A0.968,0.968,0,0,1,24.526,0c0.781-.031.942,0.567,0.944,1.209C25.476,2.478,25.472,3.745,25.472,5.011ZM7.618,6.861a5.128,5.128,0,0,1,.839.53c1.879,1.844,3.743,3.7,5.611,5.556a0.93,0.93,0,0,1,.215,1.446c-0.523.54-1.011,0.23-1.442-.2-1.865-1.858-3.743-3.7-5.58-5.59A1.478,1.478,0,0,1,6.91,7.55,1.979,1.979,0,0,1,7.618,6.861Zm27.841,7.913a1.791,1.791,0,0,1-.711-0.548,1.415,1.415,0,0,1,.166-1.075c0.567-.687,1.246-1.284,1.881-1.915,1.249-1.242,2.5-2.477,3.743-3.728,0.439-.444.9-0.726,1.436-0.218s0.245,1-.188,1.428c-1.838,1.834-3.67,3.673-5.515,5.5A5.876,5.876,0,0,1,35.459,14.774ZM5.081,25.47c-1.334,0-2.668-.014-4,0.007A0.874,0.874,0,0,1,0,24.619a0.912,0.912,0,0,1,1.089-.875c2.606,0.013,5.212.009,7.818,0a0.9,0.9,0,0,1,1.117.927,0.885,0.885,0,0,1-1.126.8C7.625,25.459,6.352,25.47,5.081,25.47Zm38.97,0c-1.3,0-2.609-.006-3.913,0a0.842,0.842,0,0,1-1.028-.809,0.869,0.869,0,0,1,1.035-.917q3.913,0,7.826.006A0.862,0.862,0,0,1,49,24.669a0.851,0.851,0,0,1-1.036.8C46.659,25.464,45.355,25.47,44.05,25.47ZM24.565,41.611c-1.15,0-2.3.041-3.448-.03a2.26,2.26,0,0,1-.86-0.591,2.078,2.078,0,0,1,.814-0.675q3.495-.081,6.991,0a2.091,2.091,0,0,1,.813.676,2.289,2.289,0,0,1-.862.591C26.868,41.653,25.715,41.612,24.565,41.611Zm0,0.491c1.149,0,2.3-.041,3.446.029a2.277,2.277,0,0,1,.866.588,2.1,2.1,0,0,1-.821.676q-3.493.083-6.988,0a2.082,2.082,0,0,1-.813-0.679,2.266,2.266,0,0,1,.863-0.587C22.266,42.06,23.418,42.1,24.567,42.1Zm0,3.051c-0.958,0-1.921.051-2.872-.031a2.226,2.226,0,0,1-.843-0.624,2.151,2.151,0,0,1,.842-0.645q2.873-.087,5.748,0a2.124,2.124,0,0,1,.83.645,2.2,2.2,0,0,1-.833.623C26.487,45.2,25.525,45.153,24.566,45.153ZM24.52,46.966a4.482,4.482,0,0,1-1.284-.029,2.617,2.617,0,0,1-.784-0.7,2.032,2.032,0,0,1,.77-0.568,16.376,16.376,0,0,1,2.675,0,2.081,2.081,0,0,1,.781.56,2.492,2.492,0,0,1-.78.7A5.269,5.269,0,0,1,24.52,46.966Z"/>
</svg>
