<svg id="Layer_1" data-name="Layer 1" xmlns="http://www.w3.org/2000/svg" viewBox="0 0 691.09 285.18"><title>hca_hybridmobileapp</title><path d="M162,17.44a142.59,142.59,0,0,0,0,285.18Z" transform="translate(-19.41 -17.44)" style="fill:#3e55a5"/><path d="M162,17.44V302.62a142.59,142.59,0,1,0,0-285.18Z" transform="translate(-19.41 -17.44)" style="fill:#f1a91e"/><path d="M308.59,111.69s84.63-100.84,195.8-15.47" transform="translate(-19.41 -17.44)" style="fill:none;stroke:#6f3b97;stroke-linecap:round;stroke-linejoin:round;stroke-width:4px"/><polygon points="466.73 83.12 481.05 75.78 485.71 60.38 503.18 94.25 466.73 83.12" style="fill:#6f3b97"/><path d="M522.59,225.78S438,326.62,326.79,241.25" transform="translate(-19.41 -17.44)" style="fill:none;stroke:#6f3b97;stroke-linecap:round;stroke-linejoin:round;stroke-width:4px"/><polygon points="325.62 219.47 311.3 226.81 306.64 242.21 289.18 208.34 325.62 219.47" style="fill:#6f3b97"/><rect x="525.75" y="97" width="165.33" height="111.33" rx="12" ry="12" style="fill:#3c8bca"/><path d="M45.16,141.44v1.12l-1.43.25v11.43H42l-6.15-9.88-.05,0v8.51l1.43.25v1.11h-4.6v-1.11l1.43-.25V142.81l-1.43-.25v-1.12h3.16l6.15,9.87.05,0v-8.49l-1.43-.25v-1.12h4.6Z" transform="translate(-19.41 -17.44)" style="fill:#fff"/><path d="M52.7,154.24q-.08-.39-.12-.69t-.06-.62A4.19,4.19,0,0,1,51.26,154a3.59,3.59,0,0,1-3.86-.3,2.66,2.66,0,0,1-.77-2,2.37,2.37,0,0,1,1.09-2.09,5.33,5.33,0,0,1,3-.73H52.5v-1.11A1.71,1.71,0,0,0,52,146.4a2.08,2.08,0,0,0-1.47-.49,3.6,3.6,0,0,0-1.15.17,2.15,2.15,0,0,0-.8.46l-.18,1H47V145.7a5.14,5.14,0,0,1,1.57-.83,6.22,6.22,0,0,1,2-.31,4,4,0,0,1,2.62.83,2.89,2.89,0,0,1,1,2.36v4.58q0,.18,0,.36t0,.35l.7.1v1.11ZM49.91,153a3.08,3.08,0,0,0,1.57-.41,2.56,2.56,0,0,0,1-1V150H50.66a2.63,2.63,0,0,0-1.68.49,1.48,1.48,0,0,0-.62,1.2,1.18,1.18,0,0,0,.39,1A1.77,1.77,0,0,0,49.91,153Z" transform="translate(-19.41 -17.44)" style="fill:#fff"/><path d="M59.43,142.44v2.29h1.8V146h-1.8v5.77a1.29,1.29,0,0,0,.28.94,1,1,0,0,0,.73.27,3.78,3.78,0,0,0,.51,0l.48-.08.24,1.19a2.22,2.22,0,0,1-.72.26,4.55,4.55,0,0,1-.95.1,2.24,2.24,0,0,1-1.68-.64,2.77,2.77,0,0,1-.62-2V146H56.2v-1.28h1.5v-2.29Z" transform="translate(-19.41 -17.44)" style="fill:#fff"/><path d="M63,153.13l1.43-.25v-6.79L63,145.85v-1.12h3.16v8.16l1.43.25v1.11H63Zm3.16-10.84H64.43v-1.77h1.73Z" transform="translate(-19.41 -17.44)" style="fill:#fff"/><path d="M72.17,145.85,71,146l2,5.41.16.69h.05l.17-.69,1.9-5.41-1.15-.18v-1.12h3.67v1.12L77,146l-3.19,8.26H72.51L69.28,146l-.78-.13v-1.12h3.67Z" transform="translate(-19.41 -17.44)" style="fill:#fff"/><path d="M83.19,154.42A4,4,0,0,1,80,153.1a5,5,0,0,1-1.17-3.43v-.39a4.88,4.88,0,0,1,1.21-3.38,3.72,3.72,0,0,1,2.86-1.35,3.6,3.6,0,0,1,2.9,1.16,4.61,4.61,0,0,1,1,3.09v1.08H80.65l0,0a3.76,3.76,0,0,0,.69,2.25,2.21,2.21,0,0,0,1.87.88,4.36,4.36,0,0,0,1.54-.25,3.55,3.55,0,0,0,1.15-.69l.68,1.13a4.15,4.15,0,0,1-1.35.83A5.39,5.39,0,0,1,83.19,154.42Zm-.26-8.51a1.88,1.88,0,0,0-1.49.73,3.48,3.48,0,0,0-.76,1.84l0,0h4.39v-.23a2.65,2.65,0,0,0-.54-1.71A1.94,1.94,0,0,0,82.92,145.92Z" transform="translate(-19.41 -17.44)" style="fill:#fff"/><path d="M42.55,167H41.32L41,165.16a3.35,3.35,0,0,0-1-.68,3.71,3.71,0,0,0-1.47-.26,3.59,3.59,0,0,0-3.07,1.45,6,6,0,0,0-1.07,3.67v.2a6.12,6.12,0,0,0,1.05,3.68,3.39,3.39,0,0,0,2.91,1.45,4.39,4.39,0,0,0,1.58-.27,3,3,0,0,0,1.1-.67l.33-1.81h1.22v2.28a4.79,4.79,0,0,1-1.66,1.27,5.63,5.63,0,0,1-2.57.56,5.18,5.18,0,0,1-4.1-1.85,6.83,6.83,0,0,1-1.6-4.64v-.18a6.91,6.91,0,0,1,1.57-4.65,5.16,5.16,0,0,1,4.12-1.84,5.56,5.56,0,0,1,2.57.57,4.94,4.94,0,0,1,1.66,1.27Z" transform="translate(-19.41 -17.44)" style="fill:#fff"/><path d="M44.4,171a5.24,5.24,0,0,1,1.14-3.48,4.22,4.22,0,0,1,6.22,0A5.22,5.22,0,0,1,52.91,171v.19a5.21,5.21,0,0,1-1.14,3.48,4.25,4.25,0,0,1-6.22,0,5.21,5.21,0,0,1-1.14-3.48Zm1.73.19a4.51,4.51,0,0,0,.64,2.5,2.29,2.29,0,0,0,3.77,0,4.49,4.49,0,0,0,.64-2.5V171a4.5,4.5,0,0,0-.64-2.49,2.29,2.29,0,0,0-3.77,0,4.54,4.54,0,0,0-.63,2.49Z" transform="translate(-19.41 -17.44)" style="fill:#fff"/><path d="M54.15,174.73l1.43-.25v-6.79l-1.43-.25v-1.12h3l.11,1.24a3.11,3.11,0,0,1,1.18-1,3.61,3.61,0,0,1,1.67-.37,2.94,2.94,0,0,1,1.63.44,2.66,2.66,0,0,1,1,1.32,3.53,3.53,0,0,1,1.19-1.28,3.12,3.12,0,0,1,1.72-.47,2.86,2.86,0,0,1,2.3,1,4.56,4.56,0,0,1,.84,3v4.33l1.43.25v1.11H65.64v-1.11l1.43-.25v-4.35a3.16,3.16,0,0,0-.48-2,1.75,1.75,0,0,0-1.43-.58,1.83,1.83,0,0,0-1.45.64,2.77,2.77,0,0,0-.64,1.6v4.68l1.43.25v1.11H59.9v-1.11l1.43-.25v-4.35a3.12,3.12,0,0,0-.5-2,1.73,1.73,0,0,0-1.44-.62,2.38,2.38,0,0,0-1.3.33,2.1,2.1,0,0,0-.78.91v5.69l1.43.25v1.11h-4.6Z" transform="translate(-19.41 -17.44)" style="fill:#fff"/><path d="M71.29,178.38l1.43-.25V167.69l-1.43-.25v-1.12H74.2l.16,1.16a3.2,3.2,0,0,1,1.16-1,3.46,3.46,0,0,1,1.58-.34,3.16,3.16,0,0,1,2.75,1.4,6.34,6.34,0,0,1,1,3.7v.18a5.24,5.24,0,0,1-1,3.32A3.25,3.25,0,0,1,77.12,176a3.77,3.77,0,0,1-1.54-.29,3,3,0,0,1-1.13-.87v3.28l1.43.25v1.12h-4.6Zm7.8-7.12a5,5,0,0,0-.63-2.66,2.06,2.06,0,0,0-1.88-1,2.32,2.32,0,0,0-1.27.33,2.51,2.51,0,0,0-.85.91v4.63a2.26,2.26,0,0,0,2.14,1.23,2.13,2.13,0,0,0,1.86-.9,4,4,0,0,0,.63-2.33Z" transform="translate(-19.41 -17.44)" style="fill:#fff"/><path d="M82.4,171a5.24,5.24,0,0,1,1.14-3.48,4.22,4.22,0,0,1,6.22,0A5.22,5.22,0,0,1,90.91,171v.19a5.21,5.21,0,0,1-1.14,3.48,4.25,4.25,0,0,1-6.22,0,5.21,5.21,0,0,1-1.14-3.48Zm1.73.19a4.51,4.51,0,0,0,.64,2.5,2.29,2.29,0,0,0,3.77,0,4.49,4.49,0,0,0,.64-2.5V171a4.5,4.5,0,0,0-.64-2.49,2.29,2.29,0,0,0-3.77,0,4.54,4.54,0,0,0-.63,2.49Z" transform="translate(-19.41 -17.44)" style="fill:#fff"/><path d="M92.24,174.73l1.43-.25v-6.79l-1.43-.25v-1.12h3l.12,1.42a3.45,3.45,0,0,1,1.19-1.17,3.18,3.18,0,0,1,1.63-.42,3.1,3.1,0,0,1,2.38.9,4,4,0,0,1,.84,2.78v4.65l1.43.25v1.11h-4.6v-1.11l1.43-.25v-4.61a2.57,2.57,0,0,0-.5-1.78,2,2,0,0,0-1.52-.53,2.44,2.44,0,0,0-1.32.36,2.63,2.63,0,0,0-.92,1v5.58l1.43.25v1.11h-4.6Z" transform="translate(-19.41 -17.44)" style="fill:#fff"/><path d="M108.33,176a4,4,0,0,1-3.16-1.32,5,5,0,0,1-1.17-3.43v-.39a4.88,4.88,0,0,1,1.21-3.38,3.72,3.72,0,0,1,2.86-1.35,3.6,3.6,0,0,1,2.9,1.16,4.61,4.61,0,0,1,1,3.09v1.08h-6.17l0,0a3.76,3.76,0,0,0,.69,2.25,2.21,2.21,0,0,0,1.87.88,4.36,4.36,0,0,0,1.54-.25,3.55,3.55,0,0,0,1.15-.69l.68,1.13a4.15,4.15,0,0,1-1.35.83A5.39,5.39,0,0,1,108.33,176Zm-.26-8.51a1.88,1.88,0,0,0-1.49.73,3.48,3.48,0,0,0-.76,1.84l0,0h4.39v-.23a2.65,2.65,0,0,0-.54-1.71A1.94,1.94,0,0,0,108.07,167.52Z" transform="translate(-19.41 -17.44)" style="fill:#fff"/><path d="M113.41,174.73l1.43-.25v-6.79l-1.43-.25v-1.12h3l.12,1.42a3.45,3.45,0,0,1,1.19-1.17,3.18,3.18,0,0,1,1.63-.42,3.1,3.1,0,0,1,2.38.9,4,4,0,0,1,.84,2.78v4.65l1.43.25v1.11h-4.6v-1.11l1.43-.25v-4.61a2.57,2.57,0,0,0-.5-1.78,2,2,0,0,0-1.52-.53,2.44,2.44,0,0,0-1.32.36,2.63,2.63,0,0,0-.92,1v5.58l1.43.25v1.11h-4.6Z" transform="translate(-19.41 -17.44)" style="fill:#fff"/><path d="M128.27,164v2.29h1.8v1.28h-1.8v5.77a1.29,1.29,0,0,0,.28.94,1,1,0,0,0,.73.27,3.78,3.78,0,0,0,.51,0l.48-.08.24,1.19a2.22,2.22,0,0,1-.72.26,4.55,4.55,0,0,1-.95.1,2.24,2.24,0,0,1-1.68-.64,2.77,2.77,0,0,1-.62-2v-5.77H125v-1.28h1.5V164Z" transform="translate(-19.41 -17.44)" style="fill:#fff"/><path d="M139.12,169.32h-1.3l-.28-1.14a2.34,2.34,0,0,0-.8-.48,3.07,3.07,0,0,0-1.09-.18,2,2,0,0,0-1.37.4,1.27,1.27,0,0,0-.45,1,1.09,1.09,0,0,0,.4.89,4.1,4.1,0,0,0,1.61.58,6.93,6.93,0,0,1,2.68,1.05,2.12,2.12,0,0,1,.88,1.78,2.46,2.46,0,0,1-1,2,4.29,4.29,0,0,1-2.68.78,7,7,0,0,1-1.94-.25,5.17,5.17,0,0,1-1.54-.73v-2.17h1.3l.33,1.27a1.81,1.81,0,0,0,.81.4,4.5,4.5,0,0,0,1.05.12,2.45,2.45,0,0,0,1.45-.37,1.15,1.15,0,0,0,.52-1,1.18,1.18,0,0,0-.44-.94,4.09,4.09,0,0,0-1.65-.64,6.92,6.92,0,0,1-2.61-1,2.07,2.07,0,0,1-.88-1.76,2.48,2.48,0,0,1,1-2,3.9,3.9,0,0,1,2.57-.82,6.24,6.24,0,0,1,1.94.28,4,4,0,0,1,1.43.78Z" transform="translate(-19.41 -17.44)" style="fill:#fff"/><path d="M259.35,142.56l-1.3.2,1.64,7,.24,1.6H260l.34-1.61,2.36-8.37h1.53l2.36,8.37.35,1.64H267l.25-1.64,1.61-7-1.31-.2v-1.12h4.07v1.12l-1,.13-2.79,11.55h-1.55l-2.53-8.88-.23-1.15h-.05l-.22,1.15-2.57,8.88H259.1l-2.79-11.55-1-.13v-1.12h4.06Z" transform="translate(-19.41 -17.44)" style="fill:#fff"/><path d="M276.69,154.42a4,4,0,0,1-3.16-1.32,5,5,0,0,1-1.17-3.43v-.39a4.88,4.88,0,0,1,1.21-3.38,3.72,3.72,0,0,1,2.86-1.35,3.6,3.6,0,0,1,2.9,1.16,4.61,4.61,0,0,1,1,3.09v1.08h-6.17l0,0a3.76,3.76,0,0,0,.69,2.25,2.21,2.21,0,0,0,1.87.88,4.36,4.36,0,0,0,1.54-.25,3.55,3.55,0,0,0,1.15-.69l.68,1.13a4.15,4.15,0,0,1-1.35.83A5.39,5.39,0,0,1,276.69,154.42Zm-.26-8.51a1.88,1.88,0,0,0-1.49.73,3.48,3.48,0,0,0-.76,1.84l0,0h4.39v-.23a2.65,2.65,0,0,0-.54-1.71A1.94,1.94,0,0,0,276.43,145.92Z" transform="translate(-19.41 -17.44)" style="fill:#fff"/><path d="M290.73,149.85a5.23,5.23,0,0,1-1,3.32,3.27,3.27,0,0,1-2.72,1.26,3.46,3.46,0,0,1-1.62-.36,3,3,0,0,1-1.14-1.05l-.16,1.22H282.6V141.89l-1.43-.25v-1.12h3.16v5.33a3,3,0,0,1,1.11-1,3.41,3.41,0,0,1,1.55-.33,3.16,3.16,0,0,1,2.74,1.41,6.33,6.33,0,0,1,1,3.7Zm-1.74-.18a5.28,5.28,0,0,0-.6-2.67,2,2,0,0,0-1.83-1,2.28,2.28,0,0,0-1.35.39,2.74,2.74,0,0,0-.87,1v4.2a2.69,2.69,0,0,0,.88,1,2.33,2.33,0,0,0,1.36.39,2,2,0,0,0,1.81-.87,4,4,0,0,0,.59-2.3Z" transform="translate(-19.41 -17.44)" style="fill:#fff"/><path d="M194,167h-1.22l-.33-1.81a3.35,3.35,0,0,0-1-.68,3.71,3.71,0,0,0-1.47-.26,3.59,3.59,0,0,0-3.07,1.45,6,6,0,0,0-1.07,3.67v.2a6.12,6.12,0,0,0,1.05,3.68,3.39,3.39,0,0,0,2.91,1.45,4.39,4.39,0,0,0,1.58-.27,3,3,0,0,0,1.1-.67l.33-1.81H194v2.28a4.79,4.79,0,0,1-1.66,1.27,5.63,5.63,0,0,1-2.57.56,5.18,5.18,0,0,1-4.1-1.85,6.83,6.83,0,0,1-1.6-4.64v-.18a6.91,6.91,0,0,1,1.57-4.65,5.16,5.16,0,0,1,4.12-1.84,5.56,5.56,0,0,1,2.57.57A4.94,4.94,0,0,1,194,164.7Z" transform="translate(-19.41 -17.44)" style="fill:#fff"/><path d="M195.83,171a5.24,5.24,0,0,1,1.14-3.48,4.22,4.22,0,0,1,6.22,0,5.22,5.22,0,0,1,1.15,3.48v.19a5.21,5.21,0,0,1-1.14,3.48,4.25,4.25,0,0,1-6.22,0,5.21,5.21,0,0,1-1.14-3.48Zm1.73.19a4.51,4.51,0,0,0,.64,2.5,2.29,2.29,0,0,0,3.77,0,4.49,4.49,0,0,0,.64-2.5V171a4.5,4.5,0,0,0-.64-2.49,2.29,2.29,0,0,0-3.77,0,4.54,4.54,0,0,0-.63,2.49Z" transform="translate(-19.41 -17.44)" style="fill:#fff"/><path d="M205.58,174.73l1.43-.25v-6.79l-1.43-.25v-1.12h3l.11,1.24a3.11,3.11,0,0,1,1.18-1,3.61,3.61,0,0,1,1.67-.37,2.94,2.94,0,0,1,1.63.44,2.66,2.66,0,0,1,1,1.32,3.53,3.53,0,0,1,1.19-1.28,3.12,3.12,0,0,1,1.72-.47,2.86,2.86,0,0,1,2.3,1,4.56,4.56,0,0,1,.84,3v4.33l1.43.25v1.11h-4.61v-1.11l1.43-.25v-4.35a3.16,3.16,0,0,0-.48-2,1.75,1.75,0,0,0-1.43-.58,1.83,1.83,0,0,0-1.45.64,2.77,2.77,0,0,0-.64,1.6v4.68l1.43.25v1.11h-4.6v-1.11l1.43-.25v-4.35a3.12,3.12,0,0,0-.5-2,1.73,1.73,0,0,0-1.44-.62,2.38,2.38,0,0,0-1.3.33,2.1,2.1,0,0,0-.78.91v5.69l1.43.25v1.11h-4.6Z" transform="translate(-19.41 -17.44)" style="fill:#fff"/><path d="M222.72,178.38l1.43-.25V167.69l-1.43-.25v-1.12h2.92l.16,1.16a3.2,3.2,0,0,1,1.16-1,3.46,3.46,0,0,1,1.58-.34,3.16,3.16,0,0,1,2.75,1.4,6.34,6.34,0,0,1,1,3.7v.18a5.24,5.24,0,0,1-1,3.32,3.25,3.25,0,0,1-2.72,1.26,3.77,3.77,0,0,1-1.54-.29,3,3,0,0,1-1.13-.87v3.28l1.43.25v1.12h-4.6Zm7.8-7.12a5,5,0,0,0-.63-2.66,2.06,2.06,0,0,0-1.88-1,2.32,2.32,0,0,0-1.27.33,2.51,2.51,0,0,0-.85.91v4.63a2.26,2.26,0,0,0,2.14,1.23,2.13,2.13,0,0,0,1.86-.9,4,4,0,0,0,.63-2.33Z" transform="translate(-19.41 -17.44)" style="fill:#fff"/><path d="M233.83,171a5.24,5.24,0,0,1,1.14-3.48,4.22,4.22,0,0,1,6.22,0,5.22,5.22,0,0,1,1.15,3.48v.19a5.21,5.21,0,0,1-1.14,3.48,4.25,4.25,0,0,1-6.22,0,5.21,5.21,0,0,1-1.14-3.48Zm1.73.19a4.51,4.51,0,0,0,.64,2.5,2.29,2.29,0,0,0,3.77,0,4.49,4.49,0,0,0,.64-2.5V171a4.5,4.5,0,0,0-.64-2.49,2.29,2.29,0,0,0-3.77,0,4.54,4.54,0,0,0-.63,2.49Z" transform="translate(-19.41 -17.44)" style="fill:#fff"/><path d="M243.67,174.73l1.43-.25v-6.79l-1.43-.25v-1.12h3l.12,1.42a3.45,3.45,0,0,1,1.19-1.17,3.18,3.18,0,0,1,1.63-.42,3.1,3.1,0,0,1,2.38.9,4,4,0,0,1,.84,2.78v4.65l1.43.25v1.11h-4.6v-1.11l1.43-.25v-4.61a2.57,2.57,0,0,0-.5-1.78,2,2,0,0,0-1.52-.53,2.44,2.44,0,0,0-1.32.36,2.63,2.63,0,0,0-.92,1v5.58l1.43.25v1.11h-4.6Z" transform="translate(-19.41 -17.44)" style="fill:#fff"/><path d="M259.76,176a4,4,0,0,1-3.16-1.32,5,5,0,0,1-1.17-3.43v-.39a4.88,4.88,0,0,1,1.21-3.38,3.72,3.72,0,0,1,2.86-1.35,3.6,3.6,0,0,1,2.9,1.16,4.61,4.61,0,0,1,1,3.09v1.08h-6.17l0,0a3.76,3.76,0,0,0,.69,2.25,2.21,2.21,0,0,0,1.87.88,4.36,4.36,0,0,0,1.54-.25,3.55,3.55,0,0,0,1.15-.69l.68,1.13a4.15,4.15,0,0,1-1.35.83A5.39,5.39,0,0,1,259.76,176Zm-.26-8.51a1.88,1.88,0,0,0-1.49.73,3.48,3.48,0,0,0-.76,1.84l0,0h4.39v-.23a2.65,2.65,0,0,0-.54-1.71A1.94,1.94,0,0,0,259.5,167.52Z" transform="translate(-19.41 -17.44)" style="fill:#fff"/><path d="M264.84,174.73l1.43-.25v-6.79l-1.43-.25v-1.12h3l.12,1.42a3.45,3.45,0,0,1,1.19-1.17,3.18,3.18,0,0,1,1.63-.42,3.1,3.1,0,0,1,2.38.9,4,4,0,0,1,.84,2.78v4.65l1.43.25v1.11h-4.6v-1.11l1.43-.25v-4.61a2.57,2.57,0,0,0-.5-1.78,2,2,0,0,0-1.52-.53,2.44,2.44,0,0,0-1.32.36,2.63,2.63,0,0,0-.92,1v5.58l1.43.25v1.11h-4.6Z" transform="translate(-19.41 -17.44)" style="fill:#fff"/><path d="M279.7,164v2.29h1.8v1.28h-1.8v5.77a1.29,1.29,0,0,0,.28.94,1,1,0,0,0,.73.27,3.78,3.78,0,0,0,.51,0l.48-.08.24,1.19a2.22,2.22,0,0,1-.72.26,4.55,4.55,0,0,1-.95.1,2.24,2.24,0,0,1-1.68-.64,2.77,2.77,0,0,1-.62-2v-5.77h-1.5v-1.28H278V164Z" transform="translate(-19.41 -17.44)" style="fill:#fff"/><path d="M290.55,169.32h-1.3l-.28-1.14a2.34,2.34,0,0,0-.8-.48,3.07,3.07,0,0,0-1.09-.18,2,2,0,0,0-1.37.4,1.27,1.27,0,0,0-.45,1,1.09,1.09,0,0,0,.4.89,4.1,4.1,0,0,0,1.61.58,6.93,6.93,0,0,1,2.68,1.05,2.12,2.12,0,0,1,.88,1.78,2.46,2.46,0,0,1-1,2,4.29,4.29,0,0,1-2.68.78,7,7,0,0,1-1.94-.25,5.17,5.17,0,0,1-1.54-.73v-2.17h1.3l.33,1.27a1.81,1.81,0,0,0,.81.4,4.5,4.5,0,0,0,1.05.12,2.45,2.45,0,0,0,1.45-.37,1.15,1.15,0,0,0,.52-1,1.18,1.18,0,0,0-.44-.94,4.09,4.09,0,0,0-1.65-.64,6.92,6.92,0,0,1-2.61-1,2.07,2.07,0,0,1-.88-1.76,2.48,2.48,0,0,1,1-2,3.9,3.9,0,0,1,2.57-.82,6.24,6.24,0,0,1,1.94.28,4,4,0,0,1,1.43.78Z" transform="translate(-19.41 -17.44)" style="fill:#fff"/><path d="M383,176.57v-1.11l1.43-.25V165.14l-1.43-.25v-1.12h4.6v1.12l-1.43.25v10.08h4.45l.13-1.47h1.48v2.82Z" transform="translate(-19.41 -17.44)"/><path d="M393.66,171.73a5.24,5.24,0,0,1,1.14-3.48,4.22,4.22,0,0,1,6.22,0,5.22,5.22,0,0,1,1.15,3.48v.19A5.21,5.21,0,0,1,401,175.4a4.25,4.25,0,0,1-6.22,0,5.21,5.21,0,0,1-1.14-3.48Zm1.73.19a4.51,4.51,0,0,0,.64,2.5,2.29,2.29,0,0,0,3.77,0,4.49,4.49,0,0,0,.64-2.5v-.19a4.5,4.5,0,0,0-.64-2.49,2.29,2.29,0,0,0-3.77,0,4.54,4.54,0,0,0-.63,2.49Z" transform="translate(-19.41 -17.44)"/><path d="M410,176.57q-.08-.39-.12-.69t-.06-.62a4.19,4.19,0,0,1-1.25,1.07,3.59,3.59,0,0,1-3.86-.3,2.66,2.66,0,0,1-.77-2A2.37,2.37,0,0,1,405,171.9a5.33,5.33,0,0,1,3-.73h1.78v-1.11a1.71,1.71,0,0,0-.53-1.32,2.08,2.08,0,0,0-1.47-.49,3.6,3.6,0,0,0-1.15.17,2.15,2.15,0,0,0-.8.46l-.18,1H404.3V168a5.14,5.14,0,0,1,1.57-.83,6.22,6.22,0,0,1,2-.31,4,4,0,0,1,2.62.83,2.89,2.89,0,0,1,1,2.36v4.58c0,.12,0,.24,0,.36s0,.23,0,.35l.7.1v1.11Zm-2.79-1.27a3.08,3.08,0,0,0,1.57-.41,2.56,2.56,0,0,0,1-1v-1.56h-1.85a2.64,2.64,0,0,0-1.68.49,1.48,1.48,0,0,0-.62,1.2,1.18,1.18,0,0,0,.39,1A1.77,1.77,0,0,0,407.17,175.31Z" transform="translate(-19.41 -17.44)"/><path d="M420.07,175.44a3.07,3.07,0,0,1-1.14,1,3.46,3.46,0,0,1-1.56.33,3.25,3.25,0,0,1-2.72-1.26,5.26,5.26,0,0,1-1-3.32V172a6.35,6.35,0,0,1,1-3.7,3.15,3.15,0,0,1,2.74-1.41,3.38,3.38,0,0,1,1.49.31,3.08,3.08,0,0,1,1.1.9v-3.88l-1.43-.25v-1.12h3.16v12.36l1.43.25v1.11h-2.94Zm-4.67-3.26a4,4,0,0,0,.59,2.3,2,2,0,0,0,1.82.87,2.29,2.29,0,0,0,1.3-.35,2.68,2.68,0,0,0,.87-1v-4.41a2.67,2.67,0,0,0-.87-.95,2.29,2.29,0,0,0-1.28-.35,2,2,0,0,0-1.83,1,5.31,5.31,0,0,0-.59,2.67Z" transform="translate(-19.41 -17.44)"/><path d="M434.66,163.78a4.51,4.51,0,0,1,3.19,1.05,4,4,0,0,1,0,5.56,4.53,4.53,0,0,1-3.19,1h-2.72v3.78l1.43.25v1.11h-4.6v-1.11l1.43-.25V165.14l-1.43-.25v-1.12h5.88Zm-2.72,6.31h2.72a2.52,2.52,0,0,0,1.95-.7,2.5,2.5,0,0,0,.65-1.76,2.54,2.54,0,0,0-.65-1.78,2.5,2.5,0,0,0-1.95-.71h-2.72Z" transform="translate(-19.41 -17.44)"/><path d="M446.48,176.57q-.08-.39-.12-.69t-.06-.62a4.19,4.19,0,0,1-1.25,1.07,3.59,3.59,0,0,1-3.86-.3,2.66,2.66,0,0,1-.77-2,2.37,2.37,0,0,1,1.09-2.09,5.33,5.33,0,0,1,3-.73h1.78v-1.11a1.71,1.71,0,0,0-.53-1.32,2.08,2.08,0,0,0-1.47-.49,3.6,3.6,0,0,0-1.15.17,2.15,2.15,0,0,0-.8.46l-.18,1h-1.34V168a5.14,5.14,0,0,1,1.57-.83,6.22,6.22,0,0,1,2-.31,4,4,0,0,1,2.62.83,2.89,2.89,0,0,1,1,2.36v4.58c0,.12,0,.24,0,.36s0,.23,0,.35l.7.1v1.11Zm-2.79-1.27a3.08,3.08,0,0,0,1.57-.41,2.56,2.56,0,0,0,1-1v-1.56h-1.85a2.64,2.64,0,0,0-1.68.49,1.48,1.48,0,0,0-.62,1.2,1.18,1.18,0,0,0,.39,1A1.77,1.77,0,0,0,443.7,175.31Z" transform="translate(-19.41 -17.44)"/><path d="M450.2,172a6.24,6.24,0,0,1,1-3.7,3.21,3.21,0,0,1,2.77-1.41,3.37,3.37,0,0,1,1.57.35,3.09,3.09,0,0,1,1.13,1l.16-1.2h1.46v9.39a4,4,0,0,1-1,2.9,3.89,3.89,0,0,1-2.93,1.06,6.49,6.49,0,0,1-1.49-.19,5.78,5.78,0,0,1-1.41-.51l.45-1.34a5.61,5.61,0,0,0,2.43.59,2.09,2.09,0,0,0,1.7-.65,2.83,2.83,0,0,0,.54-1.85v-.91a3.07,3.07,0,0,1-1.12.91,3.46,3.46,0,0,1-1.49.31,3.32,3.32,0,0,1-2.75-1.27,5.18,5.18,0,0,1-1-3.31Zm1.73.18a4,4,0,0,0,.61,2.3,2.1,2.1,0,0,0,1.85.87,2.29,2.29,0,0,0,1.31-.36,2.7,2.7,0,0,0,.87-1v-4.38a2.69,2.69,0,0,0-.87-1,2.28,2.28,0,0,0-1.29-.36,2,2,0,0,0-1.85,1,5.16,5.16,0,0,0-.62,2.66Z" transform="translate(-19.41 -17.44)"/><path d="M464.72,176.76a4,4,0,0,1-3.16-1.32,5,5,0,0,1-1.17-3.43v-.39a4.88,4.88,0,0,1,1.21-3.38,3.72,3.72,0,0,1,2.86-1.35,3.6,3.6,0,0,1,2.9,1.16,4.61,4.61,0,0,1,1,3.09v1.08h-6.17l0,0a3.76,3.76,0,0,0,.69,2.25,2.21,2.21,0,0,0,1.87.88,4.35,4.35,0,0,0,1.54-.25,3.55,3.55,0,0,0,1.15-.69l.68,1.13a4.16,4.16,0,0,1-1.35.83A5.39,5.39,0,0,1,464.72,176.76Zm-.26-8.51A1.88,1.88,0,0,0,463,169a3.48,3.48,0,0,0-.76,1.84l0,0h4.39v-.23a2.65,2.65,0,0,0-.54-1.71A1.94,1.94,0,0,0,464.46,168.25Z" transform="translate(-19.41 -17.44)"/><path d="M477.33,170.05H476l-.28-1.14a2.34,2.34,0,0,0-.8-.48,3.06,3.06,0,0,0-1.08-.18,2,2,0,0,0-1.37.4,1.27,1.27,0,0,0-.45,1,1.09,1.09,0,0,0,.4.89,4.1,4.1,0,0,0,1.61.58,6.93,6.93,0,0,1,2.68,1.05,2.12,2.12,0,0,1,.88,1.78,2.46,2.46,0,0,1-1,2,4.29,4.29,0,0,1-2.68.78,7,7,0,0,1-1.94-.25,5.17,5.17,0,0,1-1.54-.73v-2.17h1.3l.33,1.27a1.81,1.81,0,0,0,.81.4,4.5,4.5,0,0,0,1.05.12,2.45,2.45,0,0,0,1.45-.37,1.15,1.15,0,0,0,.52-1,1.18,1.18,0,0,0-.44-.94,4.09,4.09,0,0,0-1.65-.64,6.92,6.92,0,0,1-2.61-1,2.07,2.07,0,0,1-.88-1.76,2.48,2.48,0,0,1,1-2,3.9,3.9,0,0,1,2.57-.82,6.24,6.24,0,0,1,1.94.28,4,4,0,0,1,1.43.78Z" transform="translate(-19.41 -17.44)"/><path d="M609.15,157.43v-1.12h4.6v1.12l-1.43.25v4.42h6.21v-4.42l-1.43-.25v-1.12h4.6v1.12l-1.43.25v10.08l1.43.25v1.11h-4.6V168l1.43-.25v-4.3h-6.21v4.3l1.43.25v1.11h-4.6V168l1.43-.25V157.68Z" transform="translate(-19.41 -17.44)" style="fill:#fff"/><path d="M632.9,160.25h-1.22l-.33-1.81a3.35,3.35,0,0,0-1-.68,3.71,3.71,0,0,0-1.47-.26,3.59,3.59,0,0,0-3.07,1.45,6,6,0,0,0-1.07,3.67v.2a6.12,6.12,0,0,0,1.05,3.68,3.39,3.39,0,0,0,2.91,1.45,4.39,4.39,0,0,0,1.58-.27,3,3,0,0,0,1.1-.67l.33-1.81h1.22v2.28a4.79,4.79,0,0,1-1.66,1.27,5.63,5.63,0,0,1-2.57.56,5.18,5.18,0,0,1-4.1-1.85,6.83,6.83,0,0,1-1.6-4.64v-.18a6.91,6.91,0,0,1,1.57-4.65,5.16,5.16,0,0,1,4.12-1.84,5.56,5.56,0,0,1,2.57.57A4.94,4.94,0,0,1,632.9,158Z" transform="translate(-19.41 -17.44)" style="fill:#fff"/><path d="M634.44,168l.95-.13,4.47-11.56h1.49l4.39,11.56.94.13v1.11H643V168l1-.17-.84-2.36H638l-.87,2.36,1,.17v1.11h-3.67Zm4.1-4h4.06l-2-5.49h-.05Z" transform="translate(-19.41 -17.44)" style="fill:#fff"/><path d="M610.08,181.7h-1.31l-.33-1.83a3.18,3.18,0,0,0-1.05-.55,4.84,4.84,0,0,0-1.53-.22,3.35,3.35,0,0,0-2.12.58,1.85,1.85,0,0,0-.74,1.52,1.68,1.68,0,0,0,.75,1.39,7.15,7.15,0,0,0,2.43,1,6.88,6.88,0,0,1,3.07,1.48,3.17,3.17,0,0,1,1.05,2.42A3,3,0,0,1,609,190a5.38,5.38,0,0,1-3.3.94,6.71,6.71,0,0,1-2.62-.48,5.28,5.28,0,0,1-1.87-1.27v-2.38h1.3l.33,1.84a4.21,4.21,0,0,0,1.2.68,4.68,4.68,0,0,0,1.66.26,3.45,3.45,0,0,0,2.07-.55,1.76,1.76,0,0,0,.76-1.5,1.9,1.9,0,0,0-.66-1.47,5.53,5.53,0,0,0-2.33-1,7.79,7.79,0,0,1-3.17-1.42,2.94,2.94,0,0,1-1.14-2.36,3.05,3.05,0,0,1,1.27-2.5,5.22,5.22,0,0,1,3.31-1,6.28,6.28,0,0,1,2.45.46,5.53,5.53,0,0,1,1.77,1.12Z" transform="translate(-19.41 -17.44)" style="fill:#fff"/><path d="M616.27,190.9a4,4,0,0,1-3.16-1.32,5,5,0,0,1-1.17-3.43v-.39a4.88,4.88,0,0,1,1.21-3.38A3.72,3.72,0,0,1,616,181a3.6,3.6,0,0,1,2.9,1.16,4.61,4.61,0,0,1,1,3.09v1.08h-6.17l0,0a3.76,3.76,0,0,0,.69,2.25,2.21,2.21,0,0,0,1.87.88,4.35,4.35,0,0,0,1.54-.25,3.55,3.55,0,0,0,1.15-.69l.68,1.13a4.16,4.16,0,0,1-1.35.83A5.39,5.39,0,0,1,616.27,190.9Zm-.26-8.51a1.88,1.88,0,0,0-1.49.73,3.48,3.48,0,0,0-.76,1.84l0,0h4.39v-.23a2.65,2.65,0,0,0-.54-1.71A1.94,1.94,0,0,0,616,182.39Z" transform="translate(-19.41 -17.44)" style="fill:#fff"/><path d="M621.61,182.32V181.2h3l.17,1.38a3.32,3.32,0,0,1,1-1.14,2.32,2.32,0,0,1,1.36-.41l.42,0,.33.07-.23,1.61-1-.05a2,2,0,0,0-1.15.32,2.08,2.08,0,0,0-.72.9v5.46l1.43.25v1.11h-4.6v-1.11l1.43-.25v-6.79Z" transform="translate(-19.41 -17.44)" style="fill:#fff"/><path d="M632.47,182.32l-1.14.18,2,5.41.16.69h.05l.17-.69,1.9-5.41-1.15-.18V181.2h3.67v1.12l-.78.13-3.19,8.26H632.8l-3.23-8.26-.78-.13V181.2h3.67Z" transform="translate(-19.41 -17.44)" style="fill:#fff"/><path d="M643.48,190.9a4,4,0,0,1-3.16-1.32,5,5,0,0,1-1.17-3.43v-.39a4.88,4.88,0,0,1,1.21-3.38,3.72,3.72,0,0,1,2.86-1.35,3.6,3.6,0,0,1,2.9,1.16,4.61,4.61,0,0,1,1,3.09v1.08h-6.17l0,0a3.76,3.76,0,0,0,.69,2.25,2.21,2.21,0,0,0,1.87.88,4.35,4.35,0,0,0,1.54-.25,3.55,3.55,0,0,0,1.15-.69l.68,1.13a4.16,4.16,0,0,1-1.35.83A5.39,5.39,0,0,1,643.48,190.9Zm-.26-8.51a1.88,1.88,0,0,0-1.49.73A3.48,3.48,0,0,0,641,185l0,0h4.39v-.23a2.65,2.65,0,0,0-.54-1.71A1.94,1.94,0,0,0,643.22,182.39Z" transform="translate(-19.41 -17.44)" style="fill:#fff"/><path d="M648.82,182.32V181.2h3l.17,1.38a3.32,3.32,0,0,1,1-1.14,2.32,2.32,0,0,1,1.36-.41l.42,0,.33.07-.23,1.61-1-.05a2,2,0,0,0-1.15.32,2.08,2.08,0,0,0-.72.9v5.46l1.43.25v1.11h-4.6v-1.11l1.43-.25v-6.79Z" transform="translate(-19.41 -17.44)" style="fill:#fff"/></svg>