<svg id="Layer_3" data-name="Layer 3" xmlns="http://www.w3.org/2000/svg" xmlns:xlink="http://www.w3.org/1999/xlink" viewBox="0 0 946 322.24"><defs><linearGradient id="linear-gradient" x1="197.53" y1="153.12" x2="713.89" y2="153.12" gradientUnits="userSpaceOnUse"><stop offset="0" stop-color="#37c0cd"/><stop offset="0.25" stop-color="#4dc5ec"/><stop offset="0.81" stop-color="#a63e7e"/><stop offset="1" stop-color="#da5653"/></linearGradient></defs><title>home_innovationprocess_dashed</title><path d="M833,314.9H177c-79.2,0-144-64.8-144-144v-10c0-79.2,64.8-144,144-144H833c79.2,0,144,64.8,144,144v10C977,250.1,912.2,314.9,833,314.9Z" transform="translate(-32 -4.77)" style="fill:none;stroke:#fff;stroke-linecap:round;stroke-miterlimit:10;stroke-width:2px;stroke-dasharray:20,20,20,20,20,20"/><rect x="197.53" y="151.62" width="516.36" height="3" style="fill:url(#linear-gradient)"/><circle cx="125.9" cy="145.82" r="83.9" style="fill:#37c0cd"/><circle cx="345.9" cy="145.82" r="83.9" style="fill:#4dc5ec"/><circle cx="565.9" cy="145.82" r="83.9" style="fill:#a63e7e"/><circle cx="785.9" cy="145.82" r="83.9" style="fill:#da5653"/><path d="M370.91,151.43Zm33.06,0Zm9.31-25.9c-7.22-8.89-27.56-15.12-44.74-10.11-18.08,5.28-27.16,16.88-28.35,37.39a11.86,11.86,0,0,1-1.13,4.45l-4.59,9.59a3,3,0,0,0,1.73,4.06l1.48.52a3.17,3.17,0,0,1,2.06,3.05c-.4,18.35.52,23,19.49,23,20.21,0,17.62-15.22,42.06-18.18C419.35,177.12,425.65,140.73,413.28,125.53Zm-4.92,23.83h0a2,2,0,0,1-2,2.07H404a17.89,17.89,0,0,1-1.84,4.71l1.62,1.67a2.15,2.15,0,0,1,0,3l-3,3.05a2,2,0,0,1-2.87.09l-.09-.09-1.62-1.64a16.52,16.52,0,0,1-4.45,1.91v2.36a2.09,2.09,0,0,1-2.06,2.09h-4.31a2,2,0,0,1-1.48-.62,2.12,2.12,0,0,1-.61-1.48v-2.28a16.89,16.89,0,0,1-4.64-2L377,163.87a2,2,0,0,1-2.87.09l-.09-.09-3-3.05a2.16,2.16,0,0,1,0-3l1.62-1.66a17.5,17.5,0,0,1-1.82-4.76h-2.24a2,2,0,0,1-2.1-2s0-.08,0-.12V145a2.09,2.09,0,0,1,2.06-2.12H371a17.41,17.41,0,0,1,1.87-4.62l-1.69-1.69a2.16,2.16,0,0,1,0-3l3-3.05a2,2,0,0,1,2.89-.07l.07.07,1.62,1.66a15.06,15.06,0,0,1,4.64-2V128a2.12,2.12,0,0,1,.61-1.48,2,2,0,0,1,1.48-.62h4.21a2.09,2.09,0,0,1,2.07,2.1h0v2.39a16.52,16.52,0,0,1,4.45,1.91l1.63-1.66a2,2,0,0,1,2.89-.07l.07.07,3,3.05a2.16,2.16,0,0,1,0,3l-1.62,1.64a17.53,17.53,0,0,1,1.88,4.65h2.33a2,2,0,0,1,2.06,2s0,0,0,.06Zm-20.91-8.09a5.93,5.93,0,1,0,5.81,6s0-.08,0-.12A5.93,5.93,0,0,0,387.45,141.27Z" transform="translate(-32 -4.77)" style="fill:#fff"/><path d="M798.9,173.26h13.78v3.14H798.9V179h43.3V176.4H826.14v-3.14H844V163.18H798.9Zm-9.13-43.73h59.89v26.53h8.52V122.22H781.23v19.7h8.54ZM767.66,187.8H797V143.67H767.66ZM783,185.35a2.3,2.3,0,1,1,2.33-2.3,2.3,2.3,0,0,1-2.33,2.3Zm-9.26-35.74h17.35v28.65H773.71Zm72.35,8.12V189h20.41V157.73Zm10.66,1.48a.62.62,0,1,1-.64.62.64.64,0,0,1,.62-.65h0Zm-3.76,2.09h7.45v.59h-7.51Zm3.59,26.19A1.48,1.48,0,1,1,858,186a1.48,1.48,0,0,1-1.48,1.48h0Zm5.93-4.58H850.23V163.57h12.23Z" transform="translate(-32 -4.77)" style="fill:#fff"/><path d="M208.28,128v32.9s-6.73,1.38-8.11,1.57-5.72,1.64-8.89-1.48c-4.85-4.86-22.07-22.81-22.07-22.81s-3-3.05-7.74-.41c-4.36,2.42-10.82,5.93-13.55,7.32a5.75,5.75,0,0,1-3.41,1.13,6.11,6.11,0,0,1-5.93-6.25,6.24,6.24,0,0,1,3.94-5.93c6.18-3.84,19.12-11.51,24.53-14.52,3.3-1.82,5.65-2,10.2,2,5.57,4.92,10.54,9.38,10.54,9.38a8.74,8.74,0,0,0,4.18.79C195.92,131.2,208.28,128,208.28,128Zm-68.56,55.72a6.24,6.24,0,0,0-1.1-6.46,5.59,5.59,0,0,0-5.53-1.48,6.12,6.12,0,0,0-1.2-5.84,5.59,5.59,0,0,0-5.53-1.48,6.15,6.15,0,0,0-1.08-5.84,6,6,0,0,0-8.55-.18l-.34.36c-2.56,2.58-4.19,7.23-1.91,10s4.89,1.07,6.89.59c-.55,2.07-2.22,4-.18,6.71s4.89,1.07,6.89.59c-.56,2.07-2.15,4.19-.18,6.71s5.25,1.17,7.41.47c-.83,2.24-2.61,4.64-.33,7.41s7.54,1.48,10.12-1.13a6.62,6.62,0,0,0,.64-9.1A5.66,5.66,0,0,0,139.72,183.77Zm46.87-17.19c-18.49-19.37-9.78-10.26-19.81-20.73a6.33,6.33,0,0,0-7-1.32c-2.79,1.27-6.37,3-9.07,4.34a17.06,17.06,0,0,1-6,2.12,10.63,10.63,0,0,1-10.37-10.85,11,11,0,0,1,4.91-9.19c4.13-3,13.65-8.3,13.65-8.3a11.72,11.72,0,0,0-9.25-3.85c-6.34,0-19.61,9.1-19.61,9.1a10,10,0,0,1-9.1.25l-10.37-3.76V162a44.76,44.76,0,0,1,5.6,2,12.43,12.43,0,0,1,3-4.8,11.06,11.06,0,0,1,15.63-.18l.06.06a10.58,10.58,0,0,1,2.42,4.59,10,10,0,0,1,4.25,2.71A10.52,10.52,0,0,1,138,171a10,10,0,0,1,4.25,2.71,10.77,10.77,0,0,1,2.62,5,10,10,0,0,1,4.45,2.79A11.28,11.28,0,0,1,152,191h0c.09.1,1.48,1.76,2.39,2.7a4.45,4.45,0,0,0,6.29.16l.16-.16a5,5,0,0,0,0-6.74l-.19-.16h0c-5.93-6.27-6.3-6.73-5.71-7.41s1.48.74,8.17,7.77l.12.07a4.16,4.16,0,0,0,.43.56,4.45,4.45,0,0,0,6.29.16l.16-.16a5,5,0,0,0,0-6.74,2.54,2.54,0,0,0-.3-.27l-.19-.15c-6.11-6.4-6.8-7.62-6.34-8.11s3.38,2.71,9.45,9.08h0a4.45,4.45,0,0,0,6.27-.15,4.93,4.93,0,0,0,.3-6.36.64.64,0,0,0-.15-.31c-7.69-8.06-7.41-8.18-6.91-8.68s.5-.52,8,7.32l.07.1a4.45,4.45,0,0,0,6.29.16l.16-.16a5,5,0,0,0,0-6.76Z" transform="translate(-32 -4.77)" style="fill:#fff"/><circle cx="617.71" cy="134.57" r="5.07" transform="translate(53.77 471.43) rotate(-45)" style="fill:none"/><path d="M627.48,170.43,611.95,186l-38.57-38.4L588.86,132Zm-34.7-27.07a1.41,1.41,0,0,0-.41-1l-3.1-3.07a1.41,1.41,0,0,0-1.94,0l-.91.91a1.41,1.41,0,0,0,0,1.94l3.08,3a1.41,1.41,0,0,0,1,.39c.37,0,1.89-1.32,1.89-1.32A1.41,1.41,0,0,0,592.78,143.36Zm26.51,27.76a1.41,1.41,0,0,0,0-1.94l-22-21.89a1.38,1.38,0,0,0-2,0l-.91.93a1.41,1.41,0,0,0,0,1.94l22,21.88a1.41,1.41,0,0,0,2,0Zm-47.59-25.19,15.48-15.56L583,126.15l-15.48,15.58Zm-11.64-11.59a4.74,4.74,0,0,1,0-6.71l0,0,8.81-8.82a4.76,4.76,0,0,1,6.73,0h0l5.81,5.78L566,140.14Zm2.81-3.36,3,3,9.41-9.43-3.05-3Zm73.39,60.66a2.36,2.36,0,0,1-3,3L614,188.07l15.48-15.56ZM631,185.29l-2.65-7.49-9,9,7.57,2.62Z" transform="translate(-32 -4.77)" style="fill:#fff"/><path d="M633,138.76a2.72,2.72,0,0,0,0-3.83l-18.05-18.05a2.72,2.72,0,0,0-3.83,0l-12.57,12.57,9.48,9.48a1.83,1.83,0,0,1-2.57,2.57L596,132l-1.28,1.28,21.92,21.84Zm-19.7-9.47a3.42,3.42,0,1,0,.05,0h-.05Z" transform="translate(-32 -4.77)" style="fill:#fff"/><path d="M572.11,155.88l9.48,9.48a1.83,1.83,0,0,1-2.57,2.57l-9.48-9.48-3.39,3.39L580,175.73a1.83,1.83,0,0,1-2.57,2.57l-13.89-13.89-3.39,3.39,9.48,9.48a1.83,1.83,0,0,1-2.57,2.57l-9.48-9.48-3.77,3.77a2.72,2.72,0,0,0,0,3.83l18,18.05a2.72,2.72,0,0,0,3.83,0l20.21-20.21L574,154Z" transform="translate(-32 -4.77)" style="fill:#fff"/><path d="M134.17,265.76a7.47,7.47,0,0,1-2.06,5.67,8.28,8.28,0,0,1-5.94,2H122v-15h4.63a7.67,7.67,0,0,1,5.57,1.93A7.2,7.2,0,0,1,134.17,265.76Zm-2.58.08q0-5.38-5-5.38h-2.12v10.88h1.74Q131.59,271.34,131.59,265.84Z" transform="translate(-32 -4.77)" style="fill:#fff"/><path d="M137,259.05a1.34,1.34,0,0,1,.35-1,1.38,1.38,0,0,1,1-.35,1.35,1.35,0,0,1,1,.35,1.34,1.34,0,0,1,.35,1,1.31,1.31,0,0,1-.35,1,1.34,1.34,0,0,1-1,.35,1.37,1.37,0,0,1-1-.35A1.31,1.31,0,0,1,137,259.05Zm2.55,14.35h-2.41V262.06h2.41Z" transform="translate(-32 -4.77)" style="fill:#fff"/><path d="M150.61,270.17a3,3,0,0,1-1.21,2.55,5.8,5.8,0,0,1-3.47.89,8.17,8.17,0,0,1-3.64-.69v-2.08a8.94,8.94,0,0,0,3.72.92q2.23,0,2.23-1.34a1.06,1.06,0,0,0-.25-.72,2.91,2.91,0,0,0-.81-.6,14.12,14.12,0,0,0-1.57-.7,7.22,7.22,0,0,1-2.65-1.52,2.8,2.8,0,0,1-.69-2,2.59,2.59,0,0,1,1.17-2.26,5.58,5.58,0,0,1,3.19-.8,9.06,9.06,0,0,1,3.78.81l-.78,1.82a8.42,8.42,0,0,0-3.09-.76q-1.91,0-1.91,1.09a1.09,1.09,0,0,0,.5.9,10.89,10.89,0,0,0,2.17,1,10,10,0,0,1,2,1,3,3,0,0,1,.94,1A3,3,0,0,1,150.61,270.17Z" transform="translate(-32 -4.77)" style="fill:#fff"/><path d="M157.79,273.6a5,5,0,0,1-3.91-1.5,7.62,7.62,0,0,1,.06-8.71,5.19,5.19,0,0,1,4-1.54,7.58,7.58,0,0,1,3.23.67l-.73,1.94a7.3,7.3,0,0,0-2.52-.59q-2.94,0-2.94,3.91a4.67,4.67,0,0,0,.73,2.87,2.54,2.54,0,0,0,2.15,1,6.16,6.16,0,0,0,3-.8v2.1a4.76,4.76,0,0,1-1.38.54A8.28,8.28,0,0,1,157.79,273.6Z" transform="translate(-32 -4.77)" style="fill:#fff"/><path d="M173.67,267.7a6.19,6.19,0,0,1-1.43,4.34,5.11,5.11,0,0,1-4,1.56,5.44,5.44,0,0,1-2.81-.72,4.73,4.73,0,0,1-1.88-2.06,7,7,0,0,1-.66-3.12,6.15,6.15,0,0,1,1.42-4.31,5.13,5.13,0,0,1,4-1.55,5,5,0,0,1,3.9,1.58A6.12,6.12,0,0,1,173.67,267.7Zm-8.25,0q0,3.93,2.9,3.93t2.87-3.93q0-3.88-2.89-3.89a2.47,2.47,0,0,0-2.2,1A5.11,5.11,0,0,0,165.41,267.7Z" transform="translate(-32 -4.77)" style="fill:#fff"/><path d="M179,273.4l-4.31-11.34h2.54l2.31,6.59a13.07,13.07,0,0,1,.72,2.69h.08a18.07,18.07,0,0,1,.72-2.69l2.31-6.59H186l-4.33,11.34Z" transform="translate(-32 -4.77)" style="fill:#fff"/><path d="M192.63,273.6a5.49,5.49,0,0,1-4.14-1.54,5.86,5.86,0,0,1-1.49-4.25,6.43,6.43,0,0,1,1.38-4.37,4.78,4.78,0,0,1,3.8-1.59,4.67,4.67,0,0,1,3.55,1.36A5.21,5.21,0,0,1,197,267v1.3h-7.56a3.73,3.73,0,0,0,.89,2.54,3.11,3.11,0,0,0,2.37.89,8.77,8.77,0,0,0,1.87-.19,9.85,9.85,0,0,0,1.86-.63v2a7.36,7.36,0,0,1-1.78.6A11,11,0,0,1,192.63,273.6Zm-.44-9.93a2.42,2.42,0,0,0-1.84.73,3.47,3.47,0,0,0-.83,2.12h5.15a3.14,3.14,0,0,0-.68-2.13A2.32,2.32,0,0,0,192.19,263.68Z" transform="translate(-32 -4.77)" style="fill:#fff"/><path d="M205.53,261.85a5.8,5.8,0,0,1,1.2.1l-.24,2.25a4.55,4.55,0,0,0-1.07-.12,3.09,3.09,0,0,0-2.34.94,3.41,3.41,0,0,0-.9,2.45v5.93h-2.41V262.06h1.89l.32,2h.12a4.5,4.5,0,0,1,1.47-1.61A3.5,3.5,0,0,1,205.53,261.85Z" transform="translate(-32 -4.77)" style="fill:#fff"/><path d="M369.19,273.4v-15h2.45v15Z" transform="translate(-32 -4.77)" style="fill:#fff"/><path d="M379.17,273.6a4,4,0,0,1-3.31-1.54,8.43,8.43,0,0,1,0-8.66,4,4,0,0,1,3.34-1.55,3.91,3.91,0,0,1,3.4,1.65h.12a14.46,14.46,0,0,1-.17-1.93v-4.13H385v16h-1.89l-.42-1.49h-.11A3.85,3.85,0,0,1,379.17,273.6Zm.65-1.95a2.62,2.62,0,0,0,2.16-.84,4.4,4.4,0,0,0,.7-2.71v-.34a5.08,5.08,0,0,0-.7-3,2.59,2.59,0,0,0-2.18-.9,2.22,2.22,0,0,0-2,1,5.28,5.28,0,0,0-.69,2.94,5.15,5.15,0,0,0,.67,2.88A2.25,2.25,0,0,0,379.81,271.65Z" transform="translate(-32 -4.77)" style="fill:#fff"/><path d="M393.38,273.6a5.49,5.49,0,0,1-4.14-1.54,5.86,5.86,0,0,1-1.49-4.25,6.43,6.43,0,0,1,1.38-4.37,4.78,4.78,0,0,1,3.8-1.59,4.67,4.67,0,0,1,3.55,1.36,5.21,5.21,0,0,1,1.3,3.75v1.3h-7.56a3.73,3.73,0,0,0,.89,2.54,3.11,3.11,0,0,0,2.37.89,8.77,8.77,0,0,0,1.87-.19,9.85,9.85,0,0,0,1.86-.63v2a7.36,7.36,0,0,1-1.78.6A11,11,0,0,1,393.38,273.6Zm-.44-9.93a2.42,2.42,0,0,0-1.84.73,3.47,3.47,0,0,0-.83,2.12h5.15a3.14,3.14,0,0,0-.68-2.13A2.32,2.32,0,0,0,392.94,263.68Z" transform="translate(-32 -4.77)" style="fill:#fff"/><path d="M407.62,273.4l-.48-1.58h-.08a4.65,4.65,0,0,1-1.65,1.41,5.23,5.23,0,0,1-2.13.37,3.61,3.61,0,0,1-2.61-.9,3.37,3.37,0,0,1-.94-2.55,3,3,0,0,1,1.3-2.65,7.52,7.52,0,0,1,4-1l2-.06v-.61a2.3,2.3,0,0,0-.51-1.62,2.07,2.07,0,0,0-1.57-.54,5.44,5.44,0,0,0-1.67.26,12.61,12.61,0,0,0-1.54.6l-.78-1.72a8.41,8.41,0,0,1,2-.73,9.32,9.32,0,0,1,2.07-.25,4.9,4.9,0,0,1,3.27.94,3.69,3.69,0,0,1,1.1,3v7.64ZM404,271.76a3,3,0,0,0,2.11-.73,2.66,2.66,0,0,0,.79-2.06v-1l-1.46.06a5,5,0,0,0-2.48.57,1.73,1.73,0,0,0-.77,1.55,1.52,1.52,0,0,0,.45,1.17A1.94,1.94,0,0,0,404,271.76Z" transform="translate(-32 -4.77)" style="fill:#fff"/><path d="M416.93,271.65a5.89,5.89,0,0,0,1.76-.28v1.81a4.84,4.84,0,0,1-1,.29,7.06,7.06,0,0,1-1.31.12q-3.42,0-3.42-3.61v-6.11h-1.55v-1.07l1.66-.88.82-2.4h1.49v2.52h3.23v1.83h-3.23V270a1.7,1.7,0,0,0,.44,1.29A1.59,1.59,0,0,0,416.93,271.65Z" transform="translate(-32 -4.77)" style="fill:#fff"/><path d="M425.91,273.6a5.49,5.49,0,0,1-4.14-1.54,5.86,5.86,0,0,1-1.49-4.25,6.43,6.43,0,0,1,1.38-4.37,4.78,4.78,0,0,1,3.8-1.59,4.67,4.67,0,0,1,3.55,1.36,5.21,5.21,0,0,1,1.3,3.75v1.3h-7.56a3.73,3.73,0,0,0,.89,2.54,3.11,3.11,0,0,0,2.37.89,8.77,8.77,0,0,0,1.87-.19,9.85,9.85,0,0,0,1.86-.63v2a7.36,7.36,0,0,1-1.78.6A11,11,0,0,1,425.91,273.6Zm-.44-9.93a2.42,2.42,0,0,0-1.84.73,3.47,3.47,0,0,0-.83,2.12H428a3.14,3.14,0,0,0-.68-2.13A2.32,2.32,0,0,0,425.47,263.68Z" transform="translate(-32 -4.77)" style="fill:#fff"/><path d="M595.24,260.29a4,4,0,0,0-3.32,1.5,7.86,7.86,0,0,0,0,8.31,4.11,4.11,0,0,0,3.37,1.42,8.88,8.88,0,0,0,1.85-.19q.89-.19,1.86-.49v2.1a11.25,11.25,0,0,1-4,.67,6.39,6.39,0,0,1-5.06-2,8.34,8.34,0,0,1-1.76-5.71,9.21,9.21,0,0,1,.86-4.09,6.11,6.11,0,0,1,2.48-2.69,7.49,7.49,0,0,1,3.8-.93,9.44,9.44,0,0,1,4.25,1l-.88,2a13.21,13.21,0,0,0-1.6-.63A5.8,5.8,0,0,0,595.24,260.29Z" transform="translate(-32 -4.77)" style="fill:#fff"/><path d="M607.67,261.85a5.81,5.81,0,0,1,1.2.1l-.24,2.25a4.55,4.55,0,0,0-1.07-.12,3.08,3.08,0,0,0-2.34.94,3.41,3.41,0,0,0-.9,2.45v5.93h-2.41V262.06h1.89l.32,2h.12a4.5,4.5,0,0,1,1.47-1.61A3.5,3.5,0,0,1,607.67,261.85Z" transform="translate(-32 -4.77)" style="fill:#fff"/><path d="M615.92,273.6a5.49,5.49,0,0,1-4.14-1.54,5.86,5.86,0,0,1-1.49-4.25,6.43,6.43,0,0,1,1.38-4.37,4.78,4.78,0,0,1,3.8-1.59,4.67,4.67,0,0,1,3.55,1.36,5.21,5.21,0,0,1,1.3,3.75v1.3h-7.56a3.73,3.73,0,0,0,.89,2.54,3.11,3.11,0,0,0,2.37.89,8.77,8.77,0,0,0,1.87-.19,9.84,9.84,0,0,0,1.86-.63v2a7.36,7.36,0,0,1-1.78.6A11,11,0,0,1,615.92,273.6Zm-.44-9.93a2.42,2.42,0,0,0-1.84.73,3.47,3.47,0,0,0-.83,2.12H618a3.14,3.14,0,0,0-.68-2.13A2.32,2.32,0,0,0,615.48,263.68Z" transform="translate(-32 -4.77)" style="fill:#fff"/><path d="M630.17,273.4l-.48-1.58h-.08a4.65,4.65,0,0,1-1.65,1.41,5.23,5.23,0,0,1-2.13.37,3.61,3.61,0,0,1-2.61-.9,3.37,3.37,0,0,1-.94-2.55,3,3,0,0,1,1.3-2.65,7.52,7.52,0,0,1,4-1l2-.06v-.61a2.3,2.3,0,0,0-.51-1.62,2.07,2.07,0,0,0-1.57-.54,5.44,5.44,0,0,0-1.67.26,12.61,12.61,0,0,0-1.54.6l-.78-1.72a8.4,8.4,0,0,1,2-.73,9.32,9.32,0,0,1,2.07-.25,4.9,4.9,0,0,1,3.27.94,3.69,3.69,0,0,1,1.1,3v7.64Zm-3.59-1.64a3,3,0,0,0,2.11-.73,2.66,2.66,0,0,0,.79-2.06v-1L628,268a5,5,0,0,0-2.48.57,1.73,1.73,0,0,0-.77,1.55,1.52,1.52,0,0,0,.45,1.17A1.94,1.94,0,0,0,626.58,271.76Z" transform="translate(-32 -4.77)" style="fill:#fff"/><path d="M639.48,271.65a5.89,5.89,0,0,0,1.76-.28v1.81a4.84,4.84,0,0,1-1,.29,7.06,7.06,0,0,1-1.31.12q-3.42,0-3.42-3.61v-6.11h-1.55v-1.07l1.66-.88.82-2.4h1.49v2.52h3.23v1.83H637.9V270a1.71,1.71,0,0,0,.44,1.29A1.59,1.59,0,0,0,639.48,271.65Z" transform="translate(-32 -4.77)" style="fill:#fff"/><path d="M648.46,273.6a5.49,5.49,0,0,1-4.14-1.54,5.86,5.86,0,0,1-1.49-4.25,6.43,6.43,0,0,1,1.38-4.37,4.79,4.79,0,0,1,3.8-1.59,4.67,4.67,0,0,1,3.55,1.36,5.21,5.21,0,0,1,1.3,3.75v1.3h-7.56a3.73,3.73,0,0,0,.89,2.54,3.11,3.11,0,0,0,2.37.89,8.78,8.78,0,0,0,1.87-.19,9.86,9.86,0,0,0,1.86-.63v2a7.36,7.36,0,0,1-1.78.6A11,11,0,0,1,648.46,273.6Zm-.44-9.93a2.42,2.42,0,0,0-1.84.73,3.47,3.47,0,0,0-.83,2.12h5.15a3.14,3.14,0,0,0-.68-2.13A2.32,2.32,0,0,0,648,263.68Z" transform="translate(-32 -4.77)" style="fill:#fff"/><path d="M800.41,265.26h5.52v7.53a15.87,15.87,0,0,1-2.6.63,18.42,18.42,0,0,1-2.69.18,6.76,6.76,0,0,1-5.25-2,8.11,8.11,0,0,1-1.85-5.69,7.58,7.58,0,0,1,2.08-5.67,7.83,7.83,0,0,1,5.73-2,11.18,11.18,0,0,1,4.45.9l-.86,2a8.66,8.66,0,0,0-3.65-.84,4.92,4.92,0,0,0-3.79,1.51,5.84,5.84,0,0,0-1.39,4.12,6.15,6.15,0,0,0,1.26,4.18,4.55,4.55,0,0,0,3.61,1.43,11.82,11.82,0,0,0,2.54-.3v-3.87h-3.11Z" transform="translate(-32 -4.77)" style="fill:#fff"/><path d="M815,261.85a5.8,5.8,0,0,1,1.2.1L816,264.2a4.55,4.55,0,0,0-1.07-.12,3.09,3.09,0,0,0-2.34.94,3.41,3.41,0,0,0-.9,2.45v5.93h-2.41V262.06h1.89l.32,2h.12a4.5,4.5,0,0,1,1.47-1.61A3.5,3.5,0,0,1,815,261.85Z" transform="translate(-32 -4.77)" style="fill:#fff"/><path d="M828.38,267.7A6.19,6.19,0,0,1,827,272a5.11,5.11,0,0,1-4,1.56,5.44,5.44,0,0,1-2.81-.72,4.73,4.73,0,0,1-1.88-2.06,7,7,0,0,1-.66-3.12,6.15,6.15,0,0,1,1.42-4.31,5.13,5.13,0,0,1,4-1.55,5,5,0,0,1,3.9,1.58A6.12,6.12,0,0,1,828.38,267.7Zm-8.25,0q0,3.93,2.9,3.93t2.87-3.93q0-3.88-2.89-3.89a2.46,2.46,0,0,0-2.2,1A5.11,5.11,0,0,0,820.12,267.7Z" transform="translate(-32 -4.77)" style="fill:#fff"/><path d="M840.45,273.4,839,268.1q-.27-.84-1-3.91h-.09q-.59,2.77-.94,3.93l-1.51,5.27h-2.67l-3.18-11.34h2.46l1.45,5.59q.49,2.07.7,3.55h.06q.1-.75.31-1.72T835,268l1.72-6h2.65l1.67,6q.15.5.38,1.54a11.91,11.91,0,0,1,.27,1.61h.08a31.42,31.42,0,0,1,.72-3.53l1.47-5.59h2.42l-3.2,11.34Z" transform="translate(-32 -4.77)" style="fill:#fff"/><polyline points="635.13 0.79 649.8 12.13 635.8 23.46" style="fill:none;stroke:#fff;stroke-linejoin:round;stroke-width:2px"/><polyline points="472.38 298.79 457.71 310.13 471.71 321.46" style="fill:none;stroke:#fff;stroke-linejoin:round;stroke-width:2px"/></svg>