<svg id="Layer_3" data-name="Layer 3" xmlns="http://www.w3.org/2000/svg" viewBox="0 0 945.89 300"><title>home_innovationprocess_dashed</title><path d="M813,309.5H789v-2h24Zm-48,0H741v-2h24Zm-48,0H693v-2h24Zm-48,0H645v-2h24Zm-48,0H597v-2h24Zm-48,0H549v-2h24Zm-48,0H501v-2h24Zm-48,0H453v-2h24Zm-48,0H405v-2h24Zm-48,0H357v-2h24Zm-48,0H309v-2h24Zm-48,0H261v-2h24Zm-48,0H213v-2h24Zm-48,0H165v-2h24Zm628.57-.07-.06-2a142.78,142.78,0,0,0,23.64-2.73l.39,2A144.65,144.65,0,0,1,817.57,309.43Zm-676.65-.82a144,144,0,0,1-23.67-4.68l.55-1.92a142,142,0,0,0,23.34,4.62Zm723.79-8.69L864,298a143.12,143.12,0,0,0,21.41-10.37l1,1.72A145,145,0,0,1,864.71,299.92Zm-770-4.57a145.9,145.9,0,0,1-20.82-12.21L75,281.49a144,144,0,0,0,20.53,12Zm811.42-19.9-1.29-1.53a145.19,145.19,0,0,0,16.89-16.77l1.52,1.3A147.21,147.21,0,0,1,906.1,275.44ZM55.35,267.66a147.22,147.22,0,0,1-15.74-18.29l1.62-1.18a145.26,145.26,0,0,0,15.52,18Zm882-28.8-1.71-1a143.17,143.17,0,0,0,10.53-21.35l1.86.73A145.15,145.15,0,0,1,937.34,238.86ZM27.1,228.73a144.55,144.55,0,0,1-8.92-22.43l1.91-.58a142.46,142.46,0,0,0,8.79,22.11Zm927.85-34.66-2-.41a142.35,142.35,0,0,0,2.9-23.62l2,.08A144.26,144.26,0,0,1,954.95,194.08ZM13.15,182.71A145.27,145.27,0,0,1,12,164.5v-5.86h2v5.86a143.18,143.18,0,0,0,1.13,18Zm942.61-36.55a142.25,142.25,0,0,0-3.37-23.56l1.95-.45A144.15,144.15,0,0,1,957.75,146ZM15.36,134.84l-2-.28A143.77,143.77,0,0,1,18.7,111l1.91.6A141.88,141.88,0,0,0,15.36,134.84Zm929.77-34.9a143.43,143.43,0,0,0-10.94-21.13l1.69-1.06A145.39,145.39,0,0,1,947,99.17ZM29.67,89.62l-1.78-.91A146.18,146.18,0,0,1,40.65,68.22l1.6,1.19A144.15,144.15,0,0,0,29.67,89.62ZM919.9,59.78a145.37,145.37,0,0,0-17.21-16.44l1.26-1.55A147.46,147.46,0,0,1,921.4,58.45ZM58,51.56l-1.39-1.44a147.08,147.08,0,0,1,18.7-15.25l1.13,1.65A145,145,0,0,0,58,51.56ZM883,29.93a143,143,0,0,0-21.63-10l.68-1.88A144.92,144.92,0,0,1,884,28.19ZM97.11,24.73l-.84-1.81a144.24,144.24,0,0,1,22.66-8.31l.53,1.93A142.28,142.28,0,0,0,97.11,24.73Zm741.29-11a142.8,142.8,0,0,0-23.69-2.26l0-2a144.8,144.8,0,0,1,24,2.3ZM142.85,12.2l-.2-2c4.74-.47,9.56-.71,14.35-.71h9.72v2H157C152.28,11.5,147.52,11.74,142.85,12.2Zm647.87-.7h-24v-2h24Zm-48,0h-24v-2h24Zm-48,0h-24v-2h24Zm-48,0h-24v-2h24Zm-48,0h-24v-2h24Zm-48,0h-24v-2h24Zm-48,0h-24v-2h24Zm-48,0h-24v-2h24Zm-48,0h-24v-2h24Zm-48,0h-24v-2h24Zm-48,0h-24v-2h24Zm-48,0h-24v-2h24Zm-48,0h-24v-2h24Z" transform="translate(-12 -9.5)" style="fill:#fff"/></svg>