<?xml version="1.0" encoding="utf-8"?>
<!-- Generator: Adobe Illustrator 20.1.0, SVG Export Plug-In . SVG Version: 6.00 Build 0)  -->
<svg version="1.1" id="Layer_1" xmlns="http://www.w3.org/2000/svg" xmlns:xlink="http://www.w3.org/1999/xlink" x="0px" y="0px"
	 viewBox="0 0 146 256.7" style="enable-background:new 0 0 146 256.7;" xml:space="preserve">
<style type="text/css">
	.st0{fill:none;stroke:#FFFFFF;stroke-width:4;stroke-miterlimit:10;}
	.st1{fill:#FFFFFF;}
	.st2{fill:none;stroke:#FFFFFF;stroke-width:3;stroke-linecap:round;stroke-linejoin:round;stroke-miterlimit:10;}
</style>
<path class="st0" d="M122.3,243.3H25.7c-6.6,0-12-5.4-12-12V22c0-6.6,5.4-12,12-12h96.7c6.6,0,12,5.4,12,12v209.3
	C134.3,237.9,128.9,243.3,122.3,243.3z"/>
<line class="st0" x1="13.7" y1="47.3" x2="134.3" y2="47.3"/>
<line class="st0" x1="13.7" y1="208" x2="134.3" y2="208"/>
<g>
	<path class="st1" d="M74,18.9c-2.4,0-4.4,2-4.4,4.4s2,4.4,4.4,4.4s4.4-2,4.4-4.4S76.4,18.9,74,18.9L74,18.9z"/>
</g>
<g>
	<path class="st1" d="M57,31.1c-1.1,0-2,0.9-2,2c0,1.1,0.9,2,2,2s2-0.9,2-2C59,32,58.1,31.1,57,31.1L57,31.1z"/>
</g>
<circle class="st0" cx="75" cy="226.3" r="10.7"/>
<g>
	<path class="st1" d="M83.7,31.4H64.9c-1.1,0-2,0.9-2,2c0,1.1,0.9,2,2,2h18.8c1.1,0,2-0.9,2-2C85.7,32.3,84.8,31.4,83.7,31.4
		L83.7,31.4z"/>
</g>
<g id="Layer_4">
	<path class="st2" d="M65.8,154.7c1.8-3,8.8-19.3-1.9-26.7C45,115,53.2,85.3,53.2,85.3h21.4h1H97c0,0,8.2,29.7-10.7,42.7
		c-10.7,7.3-3.7,23.7-1.9,26.7"/>
	<path class="st2" d="M104.3,95.7c0,0,7.3-2,7.3,3c0,8-1.7,16.2-9.7,18.7"/>
	<polygon class="st2" points="54.7,158.7 96,158.7 100,170.7 51.4,170.7 	"/>
	<line class="st2" x1="65.9" y1="164.7" x2="83" y2="164.7"/>
	<polygon class="st2" points="81.2,113.7 75.6,110.7 70,113.5 71.1,107.3 66.6,102.8 72.9,102 75.8,96.3 78.5,102 84.8,103 
		80.2,107.4 	"/>
	<path class="st2" d="M46.5,95.7c0,0-7.3-2-7.3,3c0,8,1.7,16.2,9.7,18.7"/>
	<line class="st2" x1="37.2" y1="129.3" x2="37.2" y2="138.7"/>
	<line class="st2" x1="32.7" y1="134" x2="41.8" y2="134"/>
	<g>
		<line class="st2" x1="106.8" y1="144.6" x2="106.8" y2="150.7"/>
		<line class="st2" x1="103.8" y1="147.7" x2="109.8" y2="147.7"/>
	</g>
	<g>
		<line class="st2" x1="115.6" y1="121.2" x2="115.6" y2="133.7"/>
		<line class="st2" x1="109.6" y1="127.5" x2="121.8" y2="127.5"/>
	</g>
	<g>
		<line class="st2" x1="48.4" y1="141.4" x2="48.4" y2="147.5"/>
		<line class="st2" x1="45.4" y1="144.5" x2="51.4" y2="144.5"/>
	</g>
</g>
</svg>
